<?xml version="1.0" encoding="utf-8"?>
<!-- Generator: Adobe Illustrator 26.4.0, SVG Export Plug-In . SVG Version: 6.00 Build 0)  -->
<svg version="1.1" id="Layer_1" xmlns="http://www.w3.org/2000/svg" xmlns:xlink="http://www.w3.org/1999/xlink" x="0px" y="0px"
	 viewBox="0 0 89.86 23.75" style="enable-background:new 0 0 89.86 23.75;" xml:space="preserve">
<style type="text/css">
	.st0{fill:#00A651;}
	.st1{fill:#FFFFFF;}
</style>
<g>
	<path class="st0" d="M77.08,0.01C77.17,0.13,77.17-0.03,77.08,0.01c14.09,0.12,13.34,12.48,12.26,15.82
		c-1.48,4.15-5.39,7.96-13.24,7.92H12.68C6.1,23.56,1.58,19.91,0.55,15.69c-1.7-4.74,0.08-15.21,11.58-15.68c0.09,0,4.08,0,4.08,0
		L77.08,0.01z"/>
	<path class="st1" d="M39.47,7.65c1.41,2.54,0.46,5.8-1.3,7.9c-2,2.54-5.66,3.04-8.45,2.37c-1.85-0.56-2.73-1.84-3.06-3.26
		c-0.41-2.86,0.66-5.6,2.7-7.6c1.82-1.74,4.52-2.08,7-1.62C37.54,5.75,38.77,6.46,39.47,7.65z"/>
	<path class="st1" d="M18.61,17.35c-0.96,0.43-1.71,0.56-3.42,0.57H8.22L10.76,5.8l7.44,0c2.87,0,3.66,2.23,2.74,4.03
		c-0.47,0.92-1.24,1.36-1.89,1.63c-0.01,0.01,0.02-0.01,0-0.02c-0.01,0.06,0.04,0.03,0,0c-0.01,0.01-0.01,0.03,0,0
		C21.88,12.6,21.06,16.25,18.61,17.35z"/>
	<polygon class="st1" points="24.48,17.93 21.08,17.93 23.73,5.87 27.07,5.87 	"/>
	<path class="st1" d="M54.22,5.78c6.05-0.09,4.36,5.7,0.99,6.63c0,0.02,0,0.02,0,0c2,0.62,1.84,3.41,1.7,5.52l-3.92,0
		c0.04-0.65,1.86-4.97-0.92-4.86h-2.73c0.01,0.01-0.68,3.23-1.03,4.85h-3.32c0.01,0.01,1-4.84,1.01-4.85l-3.56-0.01l0.52-2.42
		l3.55,0l1.12-4.87H54.22"/>
	<path class="st0" d="M16.47,8.06c2.34,0,1.34,2.37,0.08,2.42c-0.95,0-3.53,0-3.52,0.01l0.49-2.43C13.53,8.06,16.47,8.06,16.47,8.06
		z"/>
	<path class="st0" d="M35.93,8.66c1.23,1.18,0.41,3.68-0.4,5.05c-0.89,1.39-1.87,1.69-2.31,1.8c-1.37,0.26-2.23-0.19-2.61-0.86
		c-0.66-1.04-0.23-4.18,1.16-5.59C32.74,7.9,34.82,7.6,35.93,8.66z"/>
	<path class="st0" d="M53.09,8.1c2.27,0.14,1.81,2.5,0.16,2.57c0.02,0.05-3.39-0.01-3.39,0.01l0.58-2.59
		C50.43,8.1,53.09,8.1,53.09,8.1z"/>
	<path class="st0" d="M15.51,12.69c3.07-0.09,2.72,2.99,0.26,2.82c0,0-3.81,0-3.82,0c0.01-0.01,0.63-2.82,0.63-2.82
		C12.58,12.69,15.51,12.69,15.51,12.69z"/>
	<path class="st1" d="M69.17,17.9l2.58-12.06h6.33c3.06,0.21,4.19,2.03,4.56,3.69c0.51,2.76,0.03,8.26-6.92,8.37c0-0.01-0.02,0,0,0
		H69.17z"/>
	<path class="st1" d="M69.79,17.9l-3.36,0c0,0.01-0.47-2.04-0.49-2.06h-5.45c0.01,0.02-1.25,2.06-1.25,2.1l-3.17,0l7.28-12.11
		c0,0,3.83,0,3.85,0C67.2,5.82,69.79,17.9,69.79,17.9z"/>
	<path class="st0" d="M76.78,8.08c3.66,0,3.57,7.53-1.81,7.6c0,0-1.98,0-1.98,0l1.61-7.6C74.61,8.08,76.78,8.08,76.78,8.08z"/>
	<polygon class="st0" points="61.94,13.45 64.51,9.05 65.42,13.45 	"/>
</g>
</svg>
