<?xml version="1.0" encoding="UTF-8"?><svg id="Layer_2" xmlns="http://www.w3.org/2000/svg" viewBox="0 0 219.37 55.08"><defs><style>.cls-1{fill:#2bbadd;}.cls-2{fill:#004b58;}.cls-3{fill:#90d7ec;}.cls-4{fill:#2db0d1;}</style></defs><g><path class="cls-2" d="M84.59,4.29c-6.72,0-12.16,5.65-12.16,12.34s5.44,12.25,12.21,12.25c5.18,0,9.81-3.34,11.52-8.22h-3.17c-1.29,3.47-4.8,5.53-8.4,5.53-4.58,0-8.87-3.86-9.08-8.48h21.33c0-.3,.04-.56,.04-.86,0-6.77-5.44-12.55-12.29-12.55Zm-9.08,10.71c.73-4.58,4.45-8.01,9.12-8.01s8.39,3.43,9.17,8.01h-18.29Z"/><polygon class="cls-2" points="108.51 24.59 100.24 4.89 97.03 4.89 106.92 28.32 110.22 28.32 120.11 4.89 116.9 4.89 108.51 24.59"/><path class="cls-2" d="M132.5,4.29c-6.81,0-12.21,5.7-12.21,12.46s5.61,12.12,12.21,12.12,12.29-5.57,12.29-12.29-5.61-12.29-12.29-12.29Zm.04,21.89c-5.18,0-9.25-4.37-9.25-9.47s3.94-9.72,9.25-9.72,9.25,4.37,9.25,9.47-3.85,9.72-9.25,9.72Z"/><path class="cls-2" d="M160.81,3.25c-7.49,0-13.35,5.68-13.35,12.92s5.98,12.73,13.32,12.73c2.66,0,5.26-.74,7.33-2.08,1.76,1.57,3.11,2.08,5.47,2.08h.15v-2.52h-.32c-1.29,0-2.21-.33-3.24-1.18,2.56-2.45,3.96-5.61,3.96-8.93,0-7.42-5.73-13.02-13.32-13.02Zm10.57,12.96c0,3.26-1.73,5.7-3.23,7.21-4.04-3.44-7.25-5.31-12.5-5.31-1.76,0-3.37,.25-5.06,.79-.26-.85-.38-1.67-.38-2.59,0-5.91,4.67-10.54,10.64-10.54,5.81,0,10.54,4.68,10.54,10.44Zm-16.1,4.42c2.7,0,5.44,.72,7.53,1.96,.84,.51,1.78,1.25,2.61,1.91,.19,.15,.37,.29,.55,.43-1.43,.96-3.16,1.44-5.14,1.44-3.09,0-5.8-1.16-7.83-3.36-.58-.62-1.02-1.2-1.32-1.77,1.28-.52,2.26-.62,3.6-.62Z"/><path class="cls-2" d="M191.6,19.09c0,.87-.08,3.05-.81,4.36-1.07,1.95-2.73,2.93-4.93,2.93s-3.86-.99-4.93-2.93c-.73-1.31-.81-3.49-.81-4.36V3.68h-2.75v15.41c0,1.17,.12,3.4,.94,5.16,1.38,2.96,4.13,4.65,7.55,4.65s6.17-1.7,7.55-4.65c.82-1.75,.94-3.99,.94-5.16V3.68h-2.75v15.41Z"/><path class="cls-2" d="M208.75,3.77l-.04-.09h-2.95l-10.5,24.58-.09,.21h2.88l3.57-8.24h11.18l3.5,8.15,.04,.09h3.01l-10.61-24.7Zm2.98,13.94h-9.04l4.57-10.71,4.47,10.71Z"/></g><path class="cls-1" d="M74.56,44.35c-.02-.07-.05-.14-.05-.2,0-.24,.22-.45,.47-.45,.23,0,.4,.17,.46,.37l2.19,6.31,2.08-6.33c.07-.2,.2-.35,.44-.35h.06c.23,0,.37,.15,.44,.35l2.08,6.33,2.2-6.33c.07-.2,.22-.35,.43-.35,.24,0,.45,.22,.45,.44,0,.07-.03,.15-.06,.22l-2.54,7.06c-.08,.23-.24,.39-.46,.39h-.07c-.23,0-.39-.16-.46-.39l-2.06-6.1-2.05,6.1c-.08,.23-.24,.39-.46,.39h-.07c-.23,0-.39-.15-.46-.39l-2.54-7.06Z"/><path class="cls-1" d="M86.54,51.1l3.22-7.04c.11-.25,.28-.4,.57-.4h.05c.27,0,.45,.15,.56,.4l3.22,7.03c.03,.08,.06,.16,.06,.23,0,.24-.19,.43-.43,.43-.22,0-.36-.15-.44-.33l-.83-1.83h-4.36l-.83,1.85c-.08,.19-.23,.31-.43,.31-.23,0-.41-.18-.41-.41,0-.07,.01-.15,.06-.24Zm5.62-2.33l-1.83-4.06-1.83,4.06h3.65Z"/><path class="cls-1" d="M97.11,44.58h-2.3c-.23,0-.42-.18-.42-.41s.19-.42,.42-.42h5.51c.23,0,.42,.19,.42,.42s-.19,.41-.42,.41h-2.3v6.72c0,.25-.2,.45-.45,.45s-.45-.2-.45-.45v-6.72Z"/><path class="cls-1" d="M102.57,51.24v-7.03c0-.25,.2-.45,.44-.45h4.93c.23,0,.41,.18,.41,.41s-.18,.41-.41,.41h-4.48v2.71h3.97c.23,0,.41,.19,.41,.41,0,.23-.18,.41-.41,.41h-3.97v2.78h4.54c.23,0,.41,.18,.41,.41s-.18,.41-.41,.41h-4.99c-.24,0-.44-.2-.44-.45Z"/><path class="cls-1" d="M110.31,44.21c0-.25,.2-.45,.44-.45h2.97c.98,0,1.76,.3,2.26,.79,.39,.39,.61,.94,.61,1.57v.02c0,1.3-.89,2.06-2.12,2.3l1.97,2.54c.09,.1,.15,.2,.15,.33,0,.24-.23,.44-.45,.44-.18,0-.32-.1-.42-.24l-2.23-2.9h-2.28v2.69c0,.25-.2,.45-.45,.45s-.44-.2-.44-.45v-7.09Zm3.34,3.6c1.19,0,2.04-.61,2.04-1.63v-.02c0-.98-.75-1.57-2.03-1.57h-2.45v3.22h2.44Z"/><path class="cls-1" d="M124.58,44.58h-2.3c-.23,0-.42-.18-.42-.41s.19-.42,.42-.42h5.51c.23,0,.42,.19,.42,.42s-.19,.41-.42,.41h-2.3v6.72c0,.25-.2,.45-.45,.45s-.45-.2-.45-.45v-6.72Z"/><path class="cls-1" d="M130.04,51.24v-7.03c0-.25,.2-.45,.44-.45h4.93c.23,0,.41,.18,.41,.41s-.18,.41-.41,.41h-4.48v2.71h3.97c.23,0,.41,.19,.41,.41,0,.23-.18,.41-.41,.41h-3.97v2.78h4.54c.23,0,.41,.18,.41,.41s-.18,.41-.41,.41h-4.99c-.24,0-.44-.2-.44-.45Z"/><path class="cls-1" d="M137.31,47.75v-.02c0-2.25,1.68-4.11,4.02-4.11,1.28,0,2.1,.42,2.84,1.03,.09,.08,.18,.2,.18,.36,0,.24-.22,.44-.45,.44-.12,0-.23-.06-.3-.1-.61-.54-1.3-.91-2.28-.91-1.76,0-3.07,1.43-3.07,3.26v.02c0,1.84,1.33,3.28,3.07,3.28,.99,0,1.68-.34,2.36-.96,.07-.07,.17-.12,.28-.12,.23,0,.43,.2,.43,.43,0,.14-.07,.25-.15,.32-.78,.71-1.64,1.17-2.95,1.17-2.29,0-3.98-1.8-3.98-4.08Z"/><path class="cls-1" d="M146.38,44.15c0-.25,.2-.45,.44-.45s.45,.2,.45,.45v3.13h4.58v-3.13c0-.25,.2-.45,.45-.45s.44,.2,.44,.45v7.15c0,.25-.2,.45-.44,.45s-.45-.2-.45-.45v-3.18h-4.58v3.18c0,.25-.2,.45-.45,.45s-.44-.2-.44-.45v-7.15Z"/><path class="cls-1" d="M155.38,44.16c0-.24,.2-.44,.44-.44h.12c.2,0,.33,.1,.45,.26l4.82,6.15v-5.99c0-.24,.19-.44,.44-.44s.43,.2,.43,.44v7.17c0,.24-.17,.42-.41,.42h-.05c-.19,0-.33-.11-.47-.27l-4.92-6.3v6.15c0,.24-.19,.44-.44,.44s-.43-.2-.43-.44v-7.15Z"/><path class="cls-1" d="M164.29,47.75v-.02c0-2.19,1.64-4.11,4.06-4.11s4.04,1.89,4.04,4.08v.02c0,2.19-1.64,4.11-4.06,4.11s-4.04-1.89-4.04-4.08Zm7.17,0v-.02c0-1.8-1.32-3.28-3.13-3.28s-3.11,1.45-3.11,3.26v.02c0,1.8,1.32,3.28,3.13,3.28s3.11-1.45,3.11-3.26Z"/><path class="cls-1" d="M174.59,44.15c0-.25,.2-.45,.44-.45s.45,.2,.45,.45v6.72h4.12c.23,0,.41,.19,.41,.42s-.18,.41-.41,.41h-4.57c-.24,0-.44-.2-.44-.45v-7.09Z"/><path class="cls-1" d="M180.95,47.75v-.02c0-2.19,1.64-4.11,4.06-4.11s4.04,1.89,4.04,4.08v.02c0,2.19-1.64,4.11-4.06,4.11s-4.04-1.89-4.04-4.08Zm7.17,0v-.02c0-1.8-1.32-3.28-3.13-3.28s-3.11,1.45-3.11,3.26v.02c0,1.8,1.32,3.28,3.13,3.28s3.11-1.45,3.11-3.26Z"/><path class="cls-1" d="M190.85,47.75v-.02c0-2.18,1.6-4.11,3.98-4.11,1.2,0,1.99,.32,2.71,.85,.1,.08,.18,.2,.18,.36,0,.25-.2,.45-.44,.45-.1,0-.19-.05-.28-.11-.57-.43-1.2-.73-2.2-.73-1.76,0-3.02,1.49-3.02,3.26v.02c0,1.89,1.21,3.3,3.14,3.3,.91,0,1.75-.35,2.29-.79v-1.97h-2.13c-.22,0-.4-.18-.4-.4s.18-.41,.4-.41h2.55c.24,0,.44,.2,.44,.45v2.42c0,.22-.1,.41-.31,.54-.73,.53-1.7,.96-2.88,.96-2.5,0-4.04-1.82-4.04-4.08Z"/><path class="cls-1" d="M200.49,44.15c0-.25,.2-.45,.44-.45s.45,.2,.45,.45v7.15c0,.25-.2,.45-.45,.45s-.44-.2-.44-.45v-7.15Z"/><path class="cls-1" d="M204.03,51.24v-7.03c0-.25,.2-.45,.44-.45h4.93c.23,0,.41,.18,.41,.41s-.18,.41-.41,.41h-4.48v2.71h3.97c.23,0,.41,.19,.41,.41,0,.23-.18,.41-.41,.41h-3.97v2.78h4.54c.23,0,.41,.18,.41,.41s-.18,.41-.41,.41h-4.99c-.24,0-.44-.2-.44-.45Z"/><path class="cls-1" d="M211.56,50.74c-.1-.07-.17-.19-.17-.34,0-.25,.19-.44,.43-.44,.11,0,.22,.05,.27,.1,.75,.63,1.5,.94,2.51,.94,1.07,0,1.77-.57,1.77-1.35v-.02c0-.74-.4-1.16-2.06-1.51-1.83-.4-2.67-.99-2.67-2.29v-.02c0-1.25,1.1-2.17,2.61-2.17,1.04,0,1.8,.26,2.53,.78,.09,.07,.19,.19,.19,.36,0,.24-.19,.43-.43,.43-.1,0-.18-.02-.26-.08-.67-.49-1.32-.69-2.05-.69-1.03,0-1.69,.57-1.69,1.28v.02c0,.75,.41,1.17,2.16,1.54,1.77,.39,2.59,1.03,2.59,2.25v.02c0,1.36-1.13,2.25-2.71,2.25-1.16,0-2.12-.36-3.01-1.07Z"/><path class="cls-3" d="M13.77,30.88s0,.02,0,.04c0,.23,0,.45,.02,.67,.25,9.89,5.71,18.49,13.75,23.14,.2,.12,.4,.23,.61,.34-.2,0-.4,.02-.61,.02s-.4-.01-.61-.02C12,54.74,0,42.55,0,27.54,0,17.1,5.81,8.02,14.37,3.35,18.28,1.21,22.77,0,27.54,0c2.17,0,4.29,.25,6.31,.73l-6.31,6.31s-13.5,13.24-13.75,23.14c0,.24-.02,.47-.02,.71"/><path class="cls-1" d="M40.71,3.35c-2.13-1.16-4.43-2.05-6.86-2.62l-6.31,6.31s13.5,13.24,13.75,23.14c.01,.23,.02,.47,.02,.71h0c0-.24-.01-.47-.02-.71v1.42c-.37,7.28-6.38,13.06-13.75,13.06s-13.38-5.79-13.75-13.06c.25,9.89,5.71,18.49,13.75,23.14,.2,.12,.4,.23,.61,.34,14.93-.32,26.93-12.52,26.93-27.52,0-10.44-5.81-19.52-14.37-24.19Z"/><g><path class="cls-4" d="M22.99,43.88c-5.16-1.8-8.91-6.59-9.2-12.29,.25,9.89,5.71,18.49,13.75,23.14,.2,.12,.4,.23,.61,.34,1.7-.04,3.36-.24,4.97-.57-4.26-2.56-7.77-6.23-10.13-10.62Z"/><path class="cls-4" d="M33.49,7.03l4.83-4.83c-1.43-.61-2.92-1.12-4.47-1.48l-6.31,6.31s1.24,1.22,2.97,3.19c1.73-1.97,2.97-3.19,2.97-3.19Z"/></g></svg>