<?xml version="1.0" encoding="UTF-8"?><svg id="Wells_Fargo" xmlns="http://www.w3.org/2000/svg" viewBox="0 0 226.53 244.53"><defs><style>.cls-1{fill:#ffcd41;}.cls-2{fill:#fff;}.cls-3{fill:#d71e28;}</style></defs><rect id="Yellow" class="cls-1" y="226.53" width="226.53" height="18"/><g><rect id="Box" class="cls-3" width="226.53" height="226.53"/><path id="Type" class="cls-2" d="M32.45,102.86l-9.05-31.53h-4.11v-4.47h16.77v4.47h-4.83l6.02,21.7,7.2-26.18h7.41l7.35,26.23,5.91-21.75h-5.04v-4.47h43.62v11.67h-3.7l-.36-1.39c-1.13-4.32-2.31-5.81-5.76-5.81h-8.54v10.85h10.34c.41,.87,.57,1.49,.57,2.47,0,1.03-.15,1.7-.57,2.57h-10.34v11.16h8.9c3.34,0,4.83-1.44,5.86-6.02l.41-1.8h3.7v12.29h-30.91v-4.47h4.37v-27.05h-7.1l-9,31.53h-7.15l-7.3-26.13-7.51,26.13h-7.15Zm104.66-12.29h-3.7l-.41,1.8c-1.03,4.58-2.47,6.02-5.86,6.02h-7.15v-27.05h4.89v-4.47h-16.92v4.47h4.37v27.05h-4.37v4.47h29.16v-12.29Zm32.4,0h-3.7l-.41,1.8c-1.03,4.58-2.47,6.02-5.86,6.02h-7.15v-27.05h4.89v-4.47h-16.92v4.47h4.37v27.05h-4.37v4.47h29.16v-12.29Zm32.92,2.26c0-5.66-3.45-9.57-9.93-11.06l-6.53-1.49c-3.81-.87-5.4-2.37-5.4-4.89,0-3.03,2.42-4.94,7.15-4.94s7.51,1.7,8.59,5.71l.46,1.75h3.7v-8.9c-4.17-2.11-8.59-3.19-13.06-3.19-8.79,0-14.45,4.22-14.45,11.01,0,5.25,3.29,9.1,9.62,10.49l6.53,1.44c4.17,.93,5.71,2.57,5.71,5.3,0,3.34-2.52,5.19-7.56,5.19-5.71,0-8.64-2.26-9.93-6.58l-.67-2.21h-3.7v10.08c4.68,2.31,9.15,3.34,15.17,3.34,8.64,0,14.3-4.32,14.3-11.06ZM46.18,125.9c3.45,0,4.63,1.49,5.76,5.81l.36,1.39h3.7v-11.67H24.99v4.47h4.37v27.05h-4.37v4.47h17.18v-4.47h-5.14v-10.49h10.59c.41-.87,.57-1.54,.57-2.57s-.15-1.59-.57-2.47h-10.59v-11.52h9.15Zm78.38,27.46c.31,.57,.46,1.23,.46,2.11s-.15,1.54-.46,2.11c-1.13,.15-2.57,.26-4.01,.26-4.99,0-7.41-2.06-7.97-6.84l-.21-1.8c-.62-5.19-2.31-7.2-7.97-7.2h-2.83v10.95h4.89v4.47h-32.35v-4.47h4.22l-2.37-6.43h-13.37l-2.37,6.43h4.32v4.47h-13.63v-4.47h3.6l12.6-31.53h6.84l12.86,31.53h7.1v-27.05h-4.37v-4.47h20.67c7.35,0,12.14,3.65,12.14,9.51s-4.78,8.9-9.41,9.1v.15c4.68,.36,6.58,2.98,7.05,7.05l.21,1.9c.31,2.98,.93,4.32,3.29,4.32,.41,0,.77-.05,1.08-.1Zm-50.25-11.21l-5.04-13.63-5.04,13.63h10.08Zm40.27-10.49c0-3.76-2.31-5.76-6.94-5.76h-6.07v11.57h6.07c4.58,0,6.94-2.11,6.94-5.81Zm31.27,9.36c0,1.03,.15,1.7,.57,2.52h6.12v9.1c-2.01,.82-4.01,1.18-6.07,1.18-7.41,0-11.26-5.3-11.26-14.45s3.86-14.45,10.85-14.45c4.68,0,7.41,2.31,9,6.33l.57,1.44h3.7v-9.21c-4.63-2.21-8.79-3.19-13.63-3.19-11.31,0-18.93,7.56-18.93,19.13s7.41,19.03,18.93,19.03c4.58,0,9.31-1.29,14.4-3.81v-16.05h-13.68c-.41,.82-.57,1.44-.57,2.42Zm57.81-1.65c0,11.21-7.97,19.08-19.13,19.08s-19.13-7.87-19.13-19.08,8.07-19.08,19.13-19.08,19.13,7.92,19.13,19.08Zm-8.43,0c0-9.1-3.75-14.4-10.7-14.4s-10.7,5.3-10.7,14.4,3.7,14.4,10.7,14.4,10.7-5.25,10.7-14.4Z"/></g></svg>