<svg id="Layer_1" data-name="Layer 1" xmlns="http://www.w3.org/2000/svg" xmlns:xlink="http://www.w3.org/1999/xlink" viewBox="0 0 889.41 184.07"><defs><style>.cls-1{fill:url(#linear-gradient);}.cls-2{fill:url(#linear-gradient-2);}.cls-3{fill:url(#linear-gradient-3);}.cls-4{fill:url(#linear-gradient-4);}.cls-5{fill:url(#linear-gradient-5);}.cls-6{fill:url(#linear-gradient-6);}.cls-7{fill:#fff;}.cls-8{fill:#1d1d1b;}</style><linearGradient id="linear-gradient" x1="92.04" y1="-4.53" x2="92.04" y2="189.78" gradientUnits="userSpaceOnUse"><stop offset="0" stop-color="#00774a"/><stop offset="0.6" stop-color="#8ccaae"/><stop offset="1" stop-color="#00975f"/></linearGradient><linearGradient id="linear-gradient-2" x1="91.75" y1="-45.73" x2="91.75" y2="172.63" gradientUnits="userSpaceOnUse"><stop offset="0" stop-color="#00975f"/><stop offset="0.3" stop-color="#8ccaae"/><stop offset="0.55" stop-color="#00975f"/><stop offset="0.84" stop-color="#00774a"/><stop offset="0.89" stop-color="#008052"/><stop offset="0.98" stop-color="#009869"/><stop offset="1" stop-color="#00a070"/></linearGradient><linearGradient id="linear-gradient-3" x1="126.72" y1="160.57" x2="126.72" y2="19.27" gradientUnits="userSpaceOnUse"><stop offset="0" stop-color="#00a97c"/><stop offset="1" stop-color="#00975f"/></linearGradient><linearGradient id="linear-gradient-4" x1="39.05" y1="160.58" x2="39.05" y2="19.23" xlink:href="#linear-gradient-3"/><linearGradient id="linear-gradient-5" x1="66.36" y1="160.54" x2="66.36" y2="19.29" xlink:href="#linear-gradient-3"/><linearGradient id="linear-gradient-6" x1="89.98" y1="160.57" x2="89.98" y2="19.27" xlink:href="#linear-gradient-3"/></defs><title>bnp-paribas-logo-2016</title><rect class="cls-1" width="184.07" height="184.07"/><path class="cls-2" d="M178.39,93.1c0,38.42,1.77,77.76,1.77,77.76-.07,4.42-2.9,7.24-6.46,7.24H14.38c-3.57,0-6-3.18-6.45-7.24,0,0-4.6-33.58-4.6-84.92s4.6-75.47,4.6-75.47c.55-4.22,2.88-7.23,6.45-7.23H173.7c3.56,0,6.54,3.3,6.46,7.23C180.16,10.47,178.39,54.68,178.39,93.1Z"/><path class="cls-3" d="M142.94,49.71c-11.38,6.66-14.86,7.2-27.21,14.61l.6-1.37c6.48-7.07,9.31-10.05,13.57-16.29-11.42.61-28,2-39.8,4.59h0L90.73,50c10.73-5.23,30.67-10.41,40.83-11.76-2.48-3.49-22.68-14.41-27.7-16.52h0l.58-1.27c15.31,1.72,35.59,8.88,44.43,14.3,3.73-1.17,7.55-1.29,14.47-1.89,0,0-1,4.18-8.57,9.36h0c1.87,5-2.63,32.77-6.33,40.13h0C148.28,70.72,147.24,56.07,142.94,49.71Z"/><path class="cls-4" d="M59.77,149.22l.58-1.28c-6.05-2.35-12.09-4.2-17-8.81h0a50.37,50.37,0,0,1,6.18-11.87h0l.6-1.3c-5.19.78-9.9,2.68-14.39,3.55h0c-3.54-6.22-4.92-14.74-6.7-22.85L28.46,108h0c-1,9.25-1.41,15.87-.09,23.26h0c-3.74,1-7,1.19-10,2.47L17.76,135h0a127.61,127.61,0,0,0,14.14,7.76h0A48.08,48.08,0,0,0,42.67,158h0l.59-1.28c-.88-3.55-2-6.48-1.58-10.36h0A67.47,67.47,0,0,0,59.77,149.22Z"/><path class="cls-5" d="M76.55,56.77a65.4,65.4,0,0,0-4.37,10h-.47c14.18,1.91,27.57,7.64,30.93,9.63L102,77.7h0c-14.71-2.58-22.46-2.29-27.94-1.8h0c-5.47.53-6.59,1.21-6.59,1.21h0c-3.15,6.9-5,18.17-5.75,22.32l-.59,1.29h0c-2.7-6.46-6.57-19.38-6.57-19.38h0c-7.42,4-24.51,20-24.51,20h0C39.52,82.57,49,74,49,74h0c-3.29-3.3-11.88-5-18.15-5.25h0l.58-1.27c3.94-1.16,12.05-1.64,17.49-1.89h0a92,92,0,0,1,10.32.18h0C65,61.19,73.55,57.19,76.55,56.77Z"/><path class="cls-6" d="M94.59,137.55c-3,4-5.51,7.2-8.79,10.89h0c-4.84,1.34-10.65.73-15.13.9l-.59,1.28h0a39.09,39.09,0,0,0,10.2,3.52h0c-2.86,2.6-6.68,4.58-9.36,6.39l-.59,1.27h0c5.75-1.36,13.32-3.8,19-7.13h0A33.71,33.71,0,0,0,97,154.2h0s.6-1.31.6-1.28c-.37-1.3-1.52-2.09-1.86-3.91h0a134.34,134.34,0,0,0,13.54-12.29h0l.61-1.28c-4.37,3-9.67,7.15-14.78,9.57h0C94.88,142.5,94.72,140.37,94.59,137.55Z"/><path class="cls-7" d="M143.53,48.41c-11.36,6.68-14.84,7.24-27.2,14.63a125.48,125.48,0,0,0,14.15-17.65c-11.39.6-27.94,2-39.75,4.59h0c10.28-5.5,30.67-11.6,41.44-13.06-2.5-3.44-22.7-14.39-27.73-16.49h0c16,1.24,35.55,7.22,45,13,3.73-1.16,7.61-1.22,14.55-1.84h0c-1.77,3-1.84,4.79-8.65,9.31h0c1.88,5-2.62,32.78-6.34,40.13h0C148.88,69.44,147.87,54.78,143.53,48.41Z"/><path class="cls-7" d="M60.35,147.94a45.31,45.31,0,0,1-16.41-10.08h0a51,51,0,0,1,6.2-11.9h0c-5.3.79-9.21,1.39-13.79,2.25h0c-3.72-6.51-5.41-12.8-7.3-21.55h0c-1,9.28-1.4,15.9-.09,23.28h0a68,68,0,0,0-10.63,3.74h0a132.63,132.63,0,0,0,14.15,7.76h0a48.34,48.34,0,0,0,10.78,15.24h0a28.34,28.34,0,0,1-1-11.64h0A67.38,67.38,0,0,0,60.35,147.94Z"/><path class="cls-7" d="M77.34,55.67h0a37.85,37.85,0,0,0-5,9.85h0a83.76,83.76,0,0,1,30.33,10.92h0c-14.72-2.61-22.47-2.29-28-1.8h0c-5.45.52-6.57,1.16-6.57,1.16h0c-4,8.7-6.35,23.63-6.35,23.63h0C59.08,93,55.21,80.05,55.21,80.05h0c-7.42,4-24.49,20-24.49,20h0c9.38-18.8,18.91-27.35,18.91-27.35h0c-3.28-3.32-11.87-5-18.16-5.26h0c3.26-1.33,11.64-2.89,18.07-3.19h0a93.57,93.57,0,0,1,10.34.19h0C65.62,59.93,74.34,56.11,77.34,55.67Z"/><path class="cls-7" d="M95.19,136.28c-3,4-5.53,7.19-8.82,10.88h0a54.45,54.45,0,0,1-15.7,2.18h0a39.31,39.31,0,0,0,10.21,3.53h0a71,71,0,0,1-10,7.66h0c5.76-1.36,13.32-3.8,19-7.13h0a35,35,0,0,0,7.71-.48h0a42.83,42.83,0,0,1-1.28-5.19h0a130.52,130.52,0,0,0,13.57-12.29h0a92.25,92.25,0,0,1-14.19,8.29h0C95.45,141.22,95.32,139.1,95.19,136.28Z"/><path class="cls-8" d="M230.38,60.72c.38,6.68.78,23.6.78,29.77,0,5.68,0,24.7-1,32.91l-.07.65h29.73c14.61,0,30.07-4.55,30.07-17.52,0-8.13-5.89-14.13-16.89-17.42,8.16-2.18,13.6-7.76,13.6-14.14,0-10.59-12.17-14.58-23.61-14.85H230.21Zm23,6.48c12.39.11,16.93,2.63,16.93,9.37a7.14,7.14,0,0,1-1.67,4.78c-2.37,2.85-7,4.33-12.89,4h-.31l-3.46,9h3.46c6.85-.2,12.79,2,15.85,5.7a9.07,9.07,0,0,1,2.12,5.83c0,7-6.21,10.7-18.47,10.7-2.06,0-5.43,0-7.51-.07-.35-9.42-.5-22.16-.5-26,0-4.45.29-14.35.5-22.81A33.61,33.61,0,0,1,253.34,67.2Z"/><path class="cls-8" d="M358.49,60.12H344l.59,16.12c.28,8,.55,16.16,1.12,24.12h0c-.94-2.5-1.81-3.78-6.21-10.18,0-.22-15-23.35-20.27-29.92l-.15-.14H302.32v.6c.53,6.68.74,23.6.74,29.77,0,5.68,0,24.7-.8,32.91l-.14.65h15v-.65c-.85-15.6-.85-31.35-.85-46.62h0c.52,1.85,1.18,3.44,3.54,6.93.19.41,26,37.92,27.21,40.07l.13.27h12l0-.65c-.91-8.21-1-27.23-1-32.91,0-6.17.41-23.09.8-29.77l.19-.6Z"/><path class="cls-8" d="M375.79,60.72c.59,6.68.81,23.6.81,29.77,0,5.68,0,24.7-.88,32.91v.65h17.79l-.07-.65c-.61-5.9-.92-17.16-1-25.76.84,0,3.36.17,3.36.17l2.52,0c23.4,0,34.79-6.19,34.79-19.23,0-14.83-16-18.24-29.29-18.51h-28Zm21.93,7.11c8.35-.15,14.16,1.53,16.92,5a8.83,8.83,0,0,1,2,5.77c0,9.25-10.42,11.26-19.12,11.26l-3.52-.2-1.46-.15c-.06-2.13-.06-5-.06-8.12,0-4,0-8.8.19-13.22A39.49,39.49,0,0,1,397.72,67.83Z"/><path class="cls-8" d="M467.09,60.72c.57,6.68.89,23.6.89,29.77,0,5.68-.06,24.7-1,32.91v.65h17.8l-.1-.65c-.56-5.9-.89-17.16-.89-25.76.83,0,3.2.17,3.2.17l2.59,0c23.39,0,34.88-6.19,34.88-19.23,0-14.83-16.06-18.24-29.42-18.51h-28ZM489,67.83c8.35-.15,14.17,1.53,17,5a8.74,8.74,0,0,1,1.93,5.77c0,9.25-10.4,11.26-19,11.26l-3.52-.2s-.94-.08-1.48-.15c-.1-2.13-.1-5-.1-8.12,0-4.06,0-8.8.17-13.22A37.08,37.08,0,0,1,489,67.83Z"/><path class="cls-8" d="M548.28,60.12h-.23l-.13.32c-3.31,9.09-24.66,55.67-28,62.81l-.28.8h15.15l.13-.36c1.33-4.38,3.13-9.32,5.08-14.59l12.65-.19,10.46.08s1.69.11,2.2.11c2.69,6.87,4.76,12,5.66,14.68l.17.27h17.56L560.3,60.12h-12Zm4.34,18.82c1.41,3,5.08,11.55,9.22,21.69-.65,0-1.44,0-1.44,0l-7.78.1s-8.07-.1-9.41-.13C546.57,92.53,549.9,85.2,552.62,78.94Z"/><path class="cls-8" d="M595.81,60.72c.52,6.68.77,23.6.77,29.77,0,5.68,0,24.7-1,32.91v.65h17.91l-.08-.65c-.94-8.26-1-27.23-1-32.91,0-4.45.14-14.35.58-22.36,1.36-.09,3.43-.3,4.83-.3,8.28-.15,14.13,1.56,16.88,5a8.69,8.69,0,0,1,1.9,5.77c0,7.38-6.89,11.12-13.31,11.46a19.29,19.29,0,0,1-3.75-.19l-1.26-.21.69,1.17c6.36,9.27,15.86,25.33,19.79,32.92l.11.27H658l-.47-.86c-.78-1.08-13.24-19.42-18.53-27.25l-.46-.47c9.81-2.94,14.54-8.43,14.54-16.84,0-14.72-16-18.23-29.45-18.51H595.76Z"/><path class="cls-8" d="M683.31,60.12h-17l.1.6c.44,6.68.78,23.6.78,29.77,0,5.65-.08,24.65-.88,32.91l-.07.65h17.68l-.1-.65c-.67-8.26-.89-27.26-.89-32.91,0-6.17.42-23.09.89-29.77v-.6Z"/><path class="cls-8" d="M700,60.72c.51,6.68.82,23.6.82,29.77,0,5.68,0,24.7-.9,32.91l-.14.65h29.77c14.56,0,30.06-4.55,30.06-17.52,0-8.13-5.89-14.13-17-17.42,8.17-2.18,13.68-7.76,13.68-14.14,0-10.59-12.19-14.58-23.52-14.85H699.91Zm22.94,6.48h0c12.5.11,17,2.63,17,9.37a7,7,0,0,1-1.71,4.78c-2.25,2.85-7.06,4.33-12.91,4h-.29l-3.43,9h3.43c6.87-.2,12.76,2,15.81,5.7a8.73,8.73,0,0,1,2.2,5.83c0,7-6.24,10.7-18.56,10.7-2,0-5.31,0-7.39-.07-.52-9.42-.52-22.16-.52-26,0-4.45.17-14.35.52-22.81A31.79,31.79,0,0,1,722.93,67.2Z"/><path class="cls-8" d="M803.38,60.12h-12l-.08.28c-3.57,9.68-26.12,58.72-28,62.79l-.33.86h15.23l.1-.38c1.27-4.39,3-9.3,5-14.68l12.59-.19,10.48.16,2.23,0c2.76,6.87,4.8,12.09,5.69,14.68l.17.38h17.62L803.76,60.12ZM796,78.91c1.43,3,5.07,11.49,9.21,21.66-.63,0-1.4.06-1.4.06l-7.81.11s-8.16-.17-9.37-.17C790,92.4,793.22,85.12,796,78.91Z"/><path class="cls-8" d="M837.11,76.65c0,11.23,11.25,15.75,21.21,19.88,7.76,3.09,15.87,6.34,15.87,11.7a5.55,5.55,0,0,1-1.22,3.94c-1.87,2.2-5.64,3.12-11.64,2.79s-12.63-2.11-20.16-5.58L838.22,108v13.93l2,.51,1.17.2a78,78,0,0,0,18,2.61c18.77,0,30-7.49,30-19.86,0-11.63-11.56-16.15-21.79-20.23-7.53-3.05-15.32-6.07-15.32-11.06,0-1.44,0-5.63,9.72-5.63,7.17,0,14.15,2.92,18.1,4.43l3.61,1.51,0-2.4V60.39l-3.58-.65a82.31,82.31,0,0,0-16-1.94C847.92,57.8,837.11,65.44,837.11,76.65Z"/></svg>