<?xml version="1.0" encoding="utf-8"?>
<!-- Generator: Adobe Illustrator 24.0.1, SVG Export Plug-In . SVG Version: 6.00 Build 0)  -->
<svg version="1.1" xmlns="http://www.w3.org/2000/svg" xmlns:xlink="http://www.w3.org/1999/xlink" x="0px" y="0px"
	 viewBox="0 0 283.465 38" enable-background="new 0 0 283.465 38" xml:space="preserve">
<g id="Boundingbox">
	<rect fill="none" width="283.465" height="38"/>
</g>
<g id="CoBa">
	<g id="Commerzbank_1_">
		<g id="Wortmarke_2_">
			<path d="M9.916,31.724c3.129,0,5.542-1.131,7.39-3.242l-2.714-2.79c-1.131,1.207-2.564,1.848-4.411,1.848
				c-3.205,0-5.354-2.677-5.354-6.26c0-3.468,2.187-6.22,5.278-6.22c1.622,0,3.017,0.602,4.148,1.696l2.828-2.94
				c-1.659-1.811-4.109-2.941-6.899-2.941C4.524,10.873,0,15.548,0,21.393C0,27.501,4.449,31.724,9.916,31.724L9.916,31.724
				L9.916,31.724z"/>
			<path d="M29.271,27.614c-3.469,0-5.693-2.752-5.693-6.335c0-3.393,2.149-6.296,5.693-6.296c3.469,0,5.693,2.753,5.693,6.334
				C34.964,24.711,32.815,27.614,29.271,27.614L29.271,27.614L29.271,27.614z M29.196,31.724c5.995,0,10.519-4.712,10.519-10.521
				c0-5.88-4.26-10.33-10.368-10.33c-5.995,0-10.519,4.713-10.519,10.519C18.828,27.275,23.088,31.724,29.196,31.724L29.196,31.724
				L29.196,31.724z"/>
			<path d="M56.445,31.347l3.393-11.048c0.603-1.922,1.056-4.109,1.056-4.109h0.076c0,0,0.038,2.187,0.226,4.375l0.905,10.782h4.448
				l-1.96-20.133h-5.844l-3.054,9.99c-0.49,1.623-1.018,3.696-1.018,3.696s-0.527-2.073-1.055-3.733l-3.091-9.953h-5.958
				l-1.961,20.133h4.185l0.905-10.858c0.188-2.112,0.227-4.298,0.227-4.298h0.075c0,0,0.491,2.187,1.094,4.185l3.393,10.972H56.445
				L56.445,31.347z"/>
			<path d="M84.533,31.347l3.393-11.048c0.604-1.922,1.056-4.109,1.056-4.109h0.075c0,0,0.038,2.187,0.226,4.375l0.905,10.782h4.45
				l-1.961-20.133h-5.843l-3.054,9.99c-0.491,1.623-1.018,3.696-1.018,3.696s-0.528-2.073-1.057-3.733l-3.091-9.953h-5.957
				l-1.961,20.133h4.185l0.905-10.858c0.189-2.112,0.227-4.298,0.227-4.298h0.075c0,0,0.49,2.187,1.093,4.185l3.393,10.972H84.533
				L84.533,31.347z"/>
			<polygon points="99.455,31.347 112.538,31.347 112.538,27.501 103.829,27.501 103.829,23.09 111.219,23.09 111.219,19.32 
				103.829,19.32 103.829,15.059 112.425,15.059 112.425,11.213 99.455,11.213 99.455,31.347 			"/>
			<path d="M127.602,17.661c0,1.885-1.245,2.677-3.695,2.677h-1.81v-5.355h1.81C126.245,14.983,127.602,15.7,127.602,17.661
				L127.602,17.661L127.602,17.661z M132.994,31.347l-4.939-8.106c2.602-0.979,4.072-2.979,4.072-5.58
				c0-4.072-2.299-6.447-8.37-6.447h-6.032v20.133h4.373v-7.314h1.396l4.298,7.314H132.994L132.994,31.347z"/>
			<polygon points="135.576,31.347 149.602,31.347 149.602,27.501 141.081,27.501 149.412,14.531 149.412,11.213 135.765,11.213 
				135.765,15.059 143.908,15.059 135.576,28.029 135.576,31.347 			"/>
			<path d="M158.516,23.053h3.244c1.959,0,3.203,0.603,3.203,2.187c0,1.546-0.979,2.338-3.203,2.338h-3.244V23.053L158.516,23.053z
				 M158.516,14.983h2.527c1.395,0,2.789,0.452,2.789,2.112c0,1.62-1.205,2.262-2.602,2.262h-2.715V14.983L158.516,14.983z
				 M154.143,31.347h7.691c3.582,0,7.578-1.621,7.578-5.806c0-2.601-1.658-4.338-4.297-4.676v-0.037
				c2.072-0.643,3.356-2.225,3.356-4.45c0-4.374-3.846-5.165-7.354-5.165h-6.975V31.347L154.143,31.347z"/>
			<path d="M175.287,31.347l1.395-4.109h7.842l1.395,4.109h4.713l-7.162-20.133h-5.43l-7.164,20.133H175.287L175.287,31.347z
				 M183.242,23.467h-5.279l1.773-5.317c0.49-1.508,0.867-2.865,0.867-2.865s0.377,1.357,0.867,2.828L183.242,23.467L183.242,23.467
				z"/>
			<path d="M193.365,31.347h4.072v-9.576c0-1.811-0.113-3.658-0.113-3.658s0.943,1.621,1.998,3.204l6.824,10.03h3.885V11.213h-4.072
				v9.125c0,1.81,0.113,3.657,0.113,3.657s-0.943-1.621-2-3.206l-6.521-9.576h-4.186V31.347L193.365,31.347z"/>
			<polygon points="214.869,11.213 214.869,31.347 219.244,31.347 219.244,21.922 225.691,31.347 231.082,31.347 223.693,20.565 
				230.365,11.213 225.313,11.213 219.244,20.262 219.244,11.213 214.869,11.213 			"/>
		</g>
		<g id="Bildmarke_10_">
			<radialGradient id="Überlappung_Verlauf_rechts_1_" cx="275.7897" cy="33.7241" r="33.2018" gradientUnits="userSpaceOnUse">
				<stop  offset="0" style="stop-color:#FFDF4F"/>
				<stop  offset="0.1374" style="stop-color:#FFD137"/>
				<stop  offset="0.3217" style="stop-color:#FFC31A"/>
				<stop  offset="0.44" style="stop-color:#FEBE10"/>
				<stop  offset="0.6086" style="stop-color:#FCBA12"/>
				<stop  offset="0.7543" style="stop-color:#F5AF15"/>
				<stop  offset="0.8911" style="stop-color:#ED9F18"/>
				<stop  offset="0.9" style="stop-color:#ED9D19"/>
				<stop  offset="1" style="stop-color:#E0861A"/>
			</radialGradient>
			<path id="Überlappung_Verlauf_rechts_10_" fill="url(#Überlappung_Verlauf_rechts_1_)" d="M264.513,1.897
				c0.86-0.556,1.859-0.925,2.685-1.017c0.604-0.066,2.596-0.041,4.867-0.041c0.01,0,0.018,0.005,0.023,0.013l-0.059-0.101
				c-0.005-0.008-0.014-0.013-0.198-0.013h-4.3c-0.604,0-2.923,0-5.617,3.272c0.036,0.042,0.071,0.083,0.106,0.125
				C262.712,3.327,263.58,2.5,264.513,1.897z"/>
			<radialGradient id="SVGID_1_" cx="266.9178" cy="0.7134" r="33.1365" gradientUnits="userSpaceOnUse">
				<stop  offset="0" style="stop-color:#FFDF4F"/>
				<stop  offset="0.1374" style="stop-color:#FFD137"/>
				<stop  offset="0.3217" style="stop-color:#FFC31A"/>
				<stop  offset="0.44" style="stop-color:#FEBE10"/>
				<stop  offset="0.6086" style="stop-color:#FCBA12"/>
				<stop  offset="0.7543" style="stop-color:#F5AF15"/>
				<stop  offset="0.8911" style="stop-color:#ED9F18"/>
				<stop  offset="0.9" style="stop-color:#ED9D19"/>
				<stop  offset="1" style="stop-color:#E0861A"/>
			</radialGradient>
			<path fill="url(#SVGID_1_)" d="M268.76,0.738h-16.855c-0.009,0-0.019,0.004-0.022,0.012l-8.44,14.62l-2.646,4.583l-0.308,0.532
				l-0.039,0.067c-0.003,0.006-0.003,0.017,0.002,0.025l8.126,14.073c-0.032-0.098-0.087-0.206-0.087-0.206
				c-0.172-0.318-0.299-0.565-0.367-0.721c-0.333-0.761-0.526-1.814-0.475-2.838c0.135-2.696,1.567-5.356,2.287-6.605
				c1.691-2.929,4.961-8.591,4.961-8.591s3.269-5.662,4.96-8.591c0.721-1.248,2.308-3.819,4.575-5.284
				c0.861-0.556,1.87-0.916,2.695-1.007c0.272-0.03,0.832-0.048,1.572-0.058C268.757,0.751,268.76,0.751,268.76,0.738z"/>
			<radialGradient id="SVGID_2_" cx="242.9946" cy="24.973" r="33.0472" gradientUnits="userSpaceOnUse">
				<stop  offset="0" style="stop-color:#FFDF4F"/>
				<stop  offset="0.1374" style="stop-color:#FFD137"/>
				<stop  offset="0.3217" style="stop-color:#FFC31A"/>
				<stop  offset="0.44" style="stop-color:#FEBE10"/>
				<stop  offset="0.6086" style="stop-color:#FCBA12"/>
				<stop  offset="0.7543" style="stop-color:#F5AF15"/>
				<stop  offset="0.8911" style="stop-color:#ED9F18"/>
				<stop  offset="0.9" style="stop-color:#ED9D19"/>
				<stop  offset="1" style="stop-color:#E0861A"/>
			</radialGradient>
			<path fill="url(#SVGID_2_)" d="M281.796,23.435c-0.379,0.637-0.674,1.112-0.836,1.334c-0.492,0.669-1.309,1.363-2.22,1.83
				c-2.403,1.231-5.423,1.32-6.864,1.32c-3.382,0-9.92,0-9.92,0s-6.538,0-9.92,0c-1.44,0-4.461-0.089-6.863-1.32
				c-0.912-0.467-1.729-1.161-2.221-1.83c-0.162-0.222-0.456-0.696-0.835-1.332c-0.029-0.05-0.046-0.054-0.046-0.054l0.84,1.455
				l7.592,13.15c0.004,0.006,0.014,0.012,0.022,0.012h11.431h11.433c0.009,0,0.017-0.006,0.021-0.014l8.432-14.605
				C281.842,23.382,281.826,23.385,281.796,23.435z"/>
			<radialGradient id="SVGID_3_" cx="275.7888" cy="33.5791" r="33.1961" gradientUnits="userSpaceOnUse">
				<stop  offset="0" style="stop-color:#FFDF4F"/>
				<stop  offset="0.1374" style="stop-color:#FFD137"/>
				<stop  offset="0.3217" style="stop-color:#FFC31A"/>
				<stop  offset="0.44" style="stop-color:#FEBE10"/>
				<stop  offset="0.6086" style="stop-color:#FCBA12"/>
				<stop  offset="0.7543" style="stop-color:#F5AF15"/>
				<stop  offset="0.8911" style="stop-color:#ED9F18"/>
				<stop  offset="0.9" style="stop-color:#ED9D19"/>
				<stop  offset="1" style="stop-color:#E0861A"/>
			</radialGradient>
			<path fill="url(#SVGID_3_)" d="M283.462,20.552l-11.432-19.8c-0.005-0.008-0.014-0.013-0.023-0.013c-1.14,0-3.252,0-3.252,0
				s0.001,0.013-0.057,0.014c-0.74,0.01-1.3,0.027-1.572,0.058c-0.825,0.091-1.834,0.451-2.695,1.007
				c-0.948,0.613-1.778,1.42-2.475,2.242c0.969,1.143,1.682,2.316,2.1,3.042c1.691,2.929,4.961,8.591,4.961,8.591
				s3.269,5.662,4.96,8.591c0.72,1.248,2.153,3.908,2.288,6.605c0.051,1.023-0.142,2.077-0.475,2.838
				c-0.11,0.251-0.375,0.744-0.736,1.39c-0.028,0.05-0.026,0.073-0.026,0.073l8.435-14.611
				C283.466,20.569,283.466,20.559,283.462,20.552z"/>
		</g>
	</g>
</g>
</svg>
