<?xml version="1.0" encoding="UTF-8"?><svg id="a" xmlns="http://www.w3.org/2000/svg" viewBox="0 0 568.52 155.53"><defs><style>.c{fill:#fff;}.d{fill:#45b7e9;}.e{fill:#268ecd;}</style></defs><g><path class="d" d="M239.07,115.21c-6.05,3.53-12.77,5.38-21,5.38-23.69,0-37.46-16.46-37.46-44.35,0-19.82,7.56-32.93,17.64-39.82,5.71-3.86,14.11-6.38,21.34-6.38,5.71,0,11.93,1.34,16.63,3.86,3.19,1.68,4.7,2.86,8.4,6.05l-10.92,14.78c-4.54-4.2-9.41-6.72-13.61-6.72-10.08,0-14.62,8.74-14.62,28.9,0,11.26,1.51,17.98,4.37,21.67,2.35,3.02,6.22,4.87,10.08,4.87,5.21,0,9.91-2.18,15.46-7.06l1.34-1.18,10.25,13.61c-3.36,3.36-4.87,4.54-7.9,6.38Z"/><path class="d" d="M314,108.49c-6.55,7.39-15.12,11.93-28.39,11.93-23.35,0-38.64-17.47-38.64-44.52s15.46-45.02,38.64-45.02c12.26,0,21.84,4.2,29.23,12.94,6.89,8.06,9.91,17.47,9.91,31.42,0,14.78-3.36,24.86-10.75,33.26Zm-18.31-56.45c-2.18-2.86-5.71-4.54-9.74-4.54-5.37,0-9.74,3.36-11.59,8.74-1.51,4.54-2.35,10.58-2.35,19.15,0,9.91,1.01,17.3,2.86,21.67,2.02,4.7,7.06,7.06,11.42,7.06,9.74,0,13.94-8.74,13.94-29.06,0-11.59-1.51-19.15-4.54-23.02Z"/><path class="d" d="M388.09,120.92c-2.86-2.02-5.21-4.87-6.72-8.4-5.54,5.38-13.61,8.23-22.68,8.23-12.1,0-22.51-5.71-25.37-13.94-1.34-3.86-1.85-8.4-1.85-17.14V34.57l22.18-4.2v55.27c0,7.73,.67,11.76,1.85,14.11,1.18,2.35,4.54,4.03,7.9,4.03,5.54,0,12.26-4.03,13.94-8.23V35.07l21.5-4.54V96.22c0,5.71,1.85,11.59,5.21,15.62l-15.96,9.07Z"/><path class="d" d="M476.28,110.67c-5.88,6.22-13.61,9.74-23.02,9.74-6.72,0-13.1-1.68-17.98-4.54,.34,2.02,.34,4.54,.34,7.06v26.88l-21.67,5.71V56.07c0-11.26-.17-14.45-1.34-21.67l19.99-3.53c.84,3.02,1.34,5.38,1.51,8.06,3.86-4.7,12.43-8.06,21.17-8.06,6.05,0,12.26,2.02,16.97,5.21,9.24,6.22,15.96,17.3,15.96,37.13,0,18.48-3.02,27.89-11.93,37.46Zm-14.78-54.26c-1.68-4.7-5.21-7.22-10.75-7.22s-10.92,2.35-14.95,6.55v41.83c3.02,2.52,7.9,5.04,12.43,5.04,11.09,0,15.46-7.56,15.46-27.22,0-8.23-.67-14.78-2.18-18.98Z"/><path class="d" d="M556.59,122.93c-5.21-2.18-9.91-6.05-12.1-10.42-1.68,1.68-3.53,3.36-5.21,4.54-4.2,3.02-10.25,4.7-17.3,4.7-19.15,0-29.57-9.74-29.57-26.88,0-20.16,13.94-29.57,41.33-29.57,1.68,0,3.19,0,5.04,.17v-3.53c0-9.58-1.85-12.77-10.08-12.77-7.22,0-15.62,3.53-24.86,9.74l-9.58-16.13c4.54-2.86,7.9-4.54,13.94-7.06,8.4-3.53,15.62-5.04,23.52-5.04,14.45,0,24.36,5.38,27.72,14.95,1.18,3.53,1.68,6.22,1.51,15.46l-.5,28.9c-.17,9.41,.5,13.44,8.06,19.15l-11.93,13.78Zm-19.15-42c-15.62,0-21,2.86-21,13.1,0,6.72,4.2,11.26,9.91,11.26,4.2,0,8.4-2.18,11.76-5.88l.34-18.48h-1.01Z"/></g><path class="d" d="M130.28,64.17c-2.89-1.39-5.74-2.65-8.5-3.76,2.77-.56,5.58-1.22,8.41-2,19.54-5.36,31.94-13.77,28.93-18.92-2.9-4.98-19.42-5.53-38.01-1.14-2.69,.63-5.28,1.33-7.77,2.09,1.31-1.91,2.57-3.91,3.75-5.96,7.86-13.81,9.35-25.65,4.2-27.85-5.12-2.19-15.71,5.53-24.63,18.53-1.33,1.93-2.55,3.89-3.67,5.85-.59-2.14-1.28-4.32-2.08-6.5C85.53,9.8,77.03-.3,71.34,.6c-5.8,.91-7.41,13.02-3.11,28.5,.65,2.29,1.38,4.55,2.19,6.72-2.3-1.3-4.74-2.56-7.29-3.79-17.97-8.6-35.59-11.9-40.07-7.5-4.67,4.59,6.33,15.97,25.42,25.58,2.71,1.37,5.43,2.62,8.12,3.76-3.13,.55-6.39,1.21-9.77,2.01C21.56,61.86-.21,72.7,0,79.97c.23,7.6,24.14,7.52,51.3,.08,3.61-.98,7.06-2.05,10.32-3.17-2.08,2.66-4.19,5.52-6.29,8.6-16.61,24.23-26.11,50.89-18.33,55.59,7.91,4.76,28.53-16.08,43.39-42.16,1.87-3.3,3.56-6.49,5.03-9.56,.66,3.26,1.48,6.65,2.45,10.19,7.72,27.68,22.04,50.58,30.56,47.02,8.31-3.47,6.13-30.07-3.28-55.78-1.2-3.3-2.46-6.4-3.76-9.33,2.77,1.65,5.74,3.27,8.85,4.83,22.91,11.55,43.89,15.4,45.88,8.44,1.89-6.64-14.54-20.37-35.83-30.55Z"/><g id="b"><path class="e" d="M68.2,72.24c-2.45,.83-5.06,1.62-7.77,2.35-8.11,2.18-15.8,3.48-22.18,3.89-18.65,14.42-31.6,30.15-27.96,36.17,3.62,6.01,21.81-.47,41.43-13.35,2.46-6.79,6.58-14.82,11.85-22.66,1.53-2.28,3.08-4.41,4.62-6.4Z"/><path class="e" d="M63.94,54.61c-2.1-.88-4.23-1.86-6.36-2.92-6.17-3.09-11.3-6.43-14.99-9.56-18.91-.58-34.64,2.41-36.88,7.69-2.25,5.32,9.79,11.12,28.08,14.16,6.1-2.94,14.05-5.75,22.67-7.81,2.57-.62,5.08-1.14,7.48-1.57Z"/><path class="e" d="M74.45,40.33c-.67-1.75-1.28-3.57-1.82-5.43-1.51-5.24-2.2-10.05-2.17-13.95-10.48-9.25-20.87-14.25-25.43-11.98-4.52,2.24-2.37,11.09,5.12,21.74,5.43,1.18,11.91,3.43,18.49,6.59,2.03,.98,3.97,1.99,5.8,3.03Z"/><path class="e" d="M108.41,43.93c2-.62,4.08-1.19,6.23-1.71,6.13-1.47,11.96-2.27,16.88-2.43,9.87-9.06,14.13-17.45,10.41-20.55-3.5-2.92-13.39-.59-24.6,5.59-.8,4-2.75,8.97-5.84,14.27-.97,1.67-2,3.29-3.08,4.82Z"/><path class="e" d="M86.41,81.64c-1.11,2.26-2.37,4.6-3.77,7.01-4.27,7.32-9.12,13.95-13.79,19.1-2.15,24.41,1.5,45.4,9.78,45.79,7.93,.37,15.86-18.38,19.42-41.31-3.66-6.04-7.17-14.16-9.75-23.09-.75-2.59-1.37-5.1-1.88-7.51Z"/><path class="e" d="M92.29,36.37c.89-1.6,1.88-3.19,2.94-4.79,3.01-4.47,6.26-8.2,9.34-10.93-.31-11.73-3.74-20.09-8.49-20.62-4.59-.51-9.65,6.33-12.68,17.06,2.64,3.5,5.22,8.34,7.24,13.99,.63,1.77,1.18,3.55,1.65,5.29Z"/><path class="e" d="M167.94,64.06c-.81-5-12.9-10.14-28.95-12.9-4.24,2.53-10.32,5.03-17.59,6.99-2.24,.61-4.48,1.13-6.66,1.57,2.14,.87,4.35,1.84,6.59,2.92,6.55,3.15,12.43,6.71,17.03,10.18,17.92,.23,30.45-3.34,29.58-8.75Z"/><path class="e" d="M106.32,75.82c.95,2.19,1.88,4.53,2.76,6.99,2.64,7.4,4.39,14.78,5.19,21.15,15.89,15.75,31.79,24.72,36.4,19.33,4.25-4.98-3.12-20.23-15.91-35.75-6.15-1.35-13.78-4.1-21.7-8.07-2.36-1.19-4.62-2.41-6.74-3.66Z"/></g><path class="c" d="M138.36,72.81c-4.6-3.46-10.48-7.02-17.03-10.17-2.24-1.08-4.45-2.05-6.59-2.93,2.19-.44,4.42-.96,6.66-1.57,7.27-1.96,13.36-4.46,17.59-6.99,4.89-2.92,7.32-5.88,6.15-8.11-1.26-2.39-6.47-3.49-13.62-3.26-4.92,.17-10.75,.96-16.88,2.43-2.15,.52-4.24,1.09-6.23,1.7,1.08-1.54,2.11-3.15,3.08-4.82,3.09-5.3,5.05-10.27,5.84-14.27,.91-4.57,.31-7.86-1.91-8.84-2.44-1.07-6.46,.77-10.84,4.65-3.08,2.73-6.33,6.47-9.34,10.93-1.07,1.6-2.06,3.19-2.95,4.79-.46-1.74-1.02-3.52-1.65-5.29-2.01-5.66-4.59-10.49-7.24-13.99-3.05-4.04-6.18-6.28-8.65-5.85-2.74,.49-4.24,4.19-4.29,9.72-.03,3.9,.66,8.71,2.17,13.95,.54,1.85,1.15,3.67,1.82,5.43-1.83-1.04-3.77-2.05-5.8-3.03-6.58-3.16-13.06-5.41-18.49-6.59-6.42-1.39-11.37-1.28-13.18,.67-2.03,2.2,.29,6.25,5.61,10.75,3.69,3.13,8.82,6.47,14.99,9.56,2.13,1.07,4.26,2.04,6.36,2.92-2.4,.43-4.91,.96-7.48,1.57-8.61,2.06-16.56,4.87-22.67,7.81-7.45,3.6-12.15,7.42-11.86,10.4,.33,3.36,6.85,4.7,16.33,4.08,6.37-.41,14.06-1.7,22.17-3.88,2.71-.73,5.31-1.52,7.77-2.35-1.54,1.99-3.08,4.13-4.62,6.41-5.27,7.83-9.39,15.86-11.85,22.66-3.06,8.45-3.53,14.98-.35,16.8,3.52,2.02,10.28-2.43,17.46-10.35,4.68-5.16,9.53-11.78,13.79-19.1,1.4-2.41,2.66-4.75,3.77-7.01,.51,2.4,1.13,4.91,1.88,7.51,2.58,8.93,6.09,17.05,9.74,23.09,4.49,7.41,9.2,11.7,12.67,10.4,3.75-1.39,4.8-8.85,3.56-18.68-.81-6.38-2.56-13.75-5.2-21.15-.88-2.46-1.8-4.79-2.76-6.99,2.11,1.25,4.37,2.47,6.73,3.66,7.92,3.97,15.56,6.72,21.7,8.07,7.3,1.6,12.49,1.2,13.48-1.59,1.06-2.98-2.96-7.94-9.88-13.15Z"/></svg>