<?xml version="1.0" encoding="utf-8"?>
<!-- Generator: Adobe Illustrator 23.0.6, SVG Export Plug-In . SVG Version: 6.00 Build 0)  -->
<svg version="1.1" id="Layer_1" xmlns="http://www.w3.org/2000/svg" xmlns:xlink="http://www.w3.org/1999/xlink" x="0px" y="0px"
	 viewBox="0 0 577.267 236.442" enable-background="new 0 0 577.267 236.442" xml:space="preserve">
<path fill="#0059A2" d="M0.448,167.958c-0.017-1.962,1.557-3.531,3.519-3.531c1.966,0,3.54,1.57,3.54,3.531
	c0,1.97-1.608,3.519-3.54,3.519C2.043,171.477,0.448,169.928,0.448,167.958"/>
<path fill="#0059A2" d="M25.189,167.958c-0.017-1.962,1.552-3.531,3.523-3.531c1.962,0,3.531,1.57,3.531,3.531
	c0,1.97-1.608,3.519-3.531,3.519C26.78,171.477,25.189,169.928,25.189,167.958"/>
<path fill="#0059A2" d="M49.931,167.958c-0.017-1.962,1.552-3.531,3.519-3.531c1.966,0,3.536,1.57,3.536,3.531
	c0,1.97-1.608,3.519-3.536,3.519C51.522,171.477,49.931,169.928,49.931,167.958"/>
<path fill="#0059A2" d="M74.673,167.958c-0.021-1.962,1.552-3.531,3.519-3.531s3.536,1.57,3.536,3.531
	c0,1.97-1.608,3.519-3.536,3.519S74.673,169.928,74.673,167.958"/>
<path fill="#0059A2" d="M99.414,167.958c-0.021-1.962,1.552-3.531,3.519-3.531c1.962,0,3.531,1.57,3.531,3.531
	c0,1.97-1.608,3.519-3.531,3.519C101.005,171.477,99.414,169.928,99.414,167.958"/>
<path fill="#0059A2" d="M124.152,167.958c-0.017-1.962,1.557-3.531,3.519-3.531c1.966,0,3.54,1.57,3.54,3.531
	c0,1.97-1.608,3.519-3.54,3.519C125.742,171.477,124.152,169.928,124.152,167.958"/>
<path fill="#0059A2" d="M148.893,167.958c-0.017-1.962,1.552-3.531,3.519-3.531c1.962,0,3.54,1.57,3.54,3.531
	c0,1.97-1.612,3.519-3.54,3.519C150.488,171.477,148.893,169.928,148.893,167.958"/>
<path fill="#0059A2" d="M173.635,167.958c-0.017-1.962,1.552-3.531,3.519-3.531s3.536,1.57,3.536,3.531
	c0,1.97-1.608,3.519-3.536,3.519S173.635,169.928,173.635,167.958"/>
<path fill="#0059A2" d="M198.376,167.958c-0.021-1.962,1.552-3.531,3.519-3.531c1.962,0,3.536,1.57,3.536,3.531
	c0,1.97-1.608,3.519-3.536,3.519C199.967,171.477,198.376,169.928,198.376,167.958"/>
<path fill="#0059A2" d="M223.114,167.958c-0.017-1.962,1.557-3.531,3.519-3.531c1.966,0,3.54,1.57,3.54,3.531
	c0,1.97-1.608,3.519-3.54,3.519C224.704,171.477,223.114,169.928,223.114,167.958"/>
<path fill="#0059A2" d="M247.855,167.958c-0.017-1.962,1.552-3.531,3.519-3.531s3.536,1.57,3.536,3.531
	c0,1.97-1.608,3.519-3.536,3.519C249.45,171.477,247.855,169.928,247.855,167.958"/>
<path fill="#0059A2" d="M272.597,167.958c-0.017-1.962,1.552-3.531,3.519-3.531s3.536,1.57,3.536,3.531
	c0,1.97-1.608,3.519-3.536,3.519C274.188,171.477,272.597,169.928,272.597,167.958"/>
<path fill="#0059A2" d="M297.338,167.958c-0.021-1.962,1.548-3.531,3.519-3.531c1.966,0,3.536,1.57,3.536,3.531
	c0,1.97-1.612,3.519-3.536,3.519C298.929,171.477,297.338,169.928,297.338,167.958"/>
<path fill="#0059A2" d="M322.076,167.958c-0.017-1.962,1.552-3.531,3.519-3.531s3.54,1.57,3.54,3.531c0,1.97-1.608,3.519-3.54,3.519
	C323.671,171.477,322.076,169.928,322.076,167.958"/>
<path fill="#0059A2" d="M346.822,167.958c-0.021-1.962,1.552-3.531,3.514-3.531c1.966,0,3.54,1.57,3.54,3.531
	c0,1.97-1.612,3.519-3.54,3.519C348.412,171.477,346.822,169.928,346.822,167.958"/>
<path fill="#0059A2" d="M371.563,167.958c-0.026-1.962,1.548-3.531,3.514-3.531s3.536,1.57,3.536,3.531
	c0,1.97-1.608,3.519-3.536,3.519C373.154,171.477,371.563,169.928,371.563,167.958"/>
<path fill="#0059A2" d="M396.301,167.958c-0.021-1.962,1.552-3.531,3.519-3.531c1.962,0,3.54,1.57,3.54,3.531
	c0,1.97-1.608,3.519-3.54,3.519C397.891,171.477,396.301,169.928,396.301,167.958"/>
<path fill="#0059A2" d="M421.042,167.958c-0.017-1.962,1.557-3.531,3.514-3.531c1.966,0,3.54,1.57,3.54,3.531
	c0,1.97-1.608,3.519-3.54,3.519C422.633,171.477,421.042,169.928,421.042,167.958"/>
<path fill="#0059A2" d="M445.779,167.958c-0.017-1.962,1.557-3.531,3.523-3.531c1.962,0,3.536,1.57,3.536,3.531
	c0,1.97-1.608,3.519-3.536,3.519C447.375,171.477,445.779,169.928,445.779,167.958"/>
<path fill="#0059A2" d="M470.521,167.958c-0.017-1.962,1.557-3.531,3.523-3.531c1.962,0,3.536,1.57,3.536,3.531
	c0,1.97-1.608,3.519-3.536,3.519C472.112,171.477,470.521,169.928,470.521,167.958"/>
<path fill="#0059A2" d="M495.263,167.958c-0.021-1.962,1.552-3.531,3.518-3.531c1.962,0,3.536,1.57,3.536,3.531
	c0,1.97-1.608,3.519-3.536,3.519C496.853,171.477,495.263,169.928,495.263,167.958"/>
<path fill="#0059A2" d="M520,167.958c-0.017-1.962,1.557-3.531,3.523-3.531c1.962,0,3.536,1.57,3.536,3.531
	c0,1.97-1.608,3.519-3.536,3.519C521.595,171.477,520,169.928,520,167.958"/>
<path fill="#0059A2" d="M544.746,167.958c-0.021-1.962,1.552-3.531,3.518-3.531c1.962,0,3.536,1.57,3.536,3.531
	c0,1.97-1.612,3.519-3.536,3.519C546.332,171.477,544.746,169.928,544.746,167.958"/>
<path fill="#0059A2" d="M569.483,167.958c-0.021-1.962,1.557-3.531,3.523-3.531c1.958,0,3.531,1.57,3.531,3.531
	c0,1.97-1.608,3.519-3.531,3.519C571.074,171.477,569.483,169.928,569.483,167.958"/>
<path fill="#0090D2" d="M29.638,208.258c-1.028-4.363-5.302-5.506-9.69-5.506c-10.083,0-13.733,7.843-13.508,14.672
	c0.456,9.366,3.651,14.463,15.452,14.668c2.785,0,5.579-0.414,8.197-1.147v-10.33h-9.34v-4.355h15.034v18.05
	c-4.721,1.271-9.451,2.133-14.126,2.133c-5.809,0-10.543-0.67-15.043-4.205c-4.559-3.523-6.15-9.648-6.15-14.813
	c0-3.796,1.42-7.954,3.527-11.23c3.591-5.57,9.63-7.788,16.638-7.788c6.952,0,14.651,2.832,14.987,9.852"/>
<polyline fill="#0090D2" points="56.875,235.687 56.875,199.161 82.687,199.161 82.687,203.499 62.577,203.499 62.577,214.891 
	81.718,214.891 81.718,219.245 62.577,219.245 62.577,231.345 83.139,231.345 83.139,235.687 "/>
<polyline fill="#0090D2" points="137.783,199.161 137.783,235.687 130.72,235.687 109.915,204.676 109.804,204.676 109.804,235.687 
	104.733,235.687 104.733,199.161 112.546,199.161 132.601,229.366 132.711,229.366 132.711,199.161 "/>
<polyline fill="#0090D2" points="159.377,235.687 159.377,199.161 185.189,199.161 185.189,203.499 165.083,203.499 
	165.083,214.891 184.225,214.891 184.225,219.245 165.083,219.245 165.083,231.345 185.645,231.345 185.645,235.687 "/>
<path fill="#0090D2" d="M212.089,203.499h9.404c6.325,0.26,7.745,2.785,7.745,5.681c0,2.879-1.42,5.417-7.745,5.668h-9.404
	 M220.179,219.203c2.278,0.158,4.555,0,6.206,1.672c1.885,1.813,1.885,4.785,2.337,8.082c0.286,2.184,0.968,4.542,1.493,6.73h6.09
	c-1.484-3.45-1.941-7.344-2.572-10.974c-0.623-4.099-1.301-6.445-6.261-7.485v-0.102c4.785-1.028,7.754-4.414,7.754-8.812
	c0-7.225-7.131-9.153-14.019-9.153h-14.702v36.526h5.694v-16.484H220.179z"/>
<path fill="#0090D2" d="M271.914,204.16l7.468,17.653h-15.329 M257.665,235.687l4.457-9.511h19.082l4.44,9.511h6.214l-16.642-36.526
	h-6.091L251.8,235.687H257.665z"/>
<polyline fill="#0090D2" points="309.413,235.687 309.413,199.161 315.107,199.161 315.107,231.345 334.252,231.345 
	334.252,235.687 "/>
<polyline fill="#0090D2" points="405.884,202.803 405.756,202.803 392.598,235.687 387.241,235.687 374.08,202.803 373.969,202.803 
	373.969,235.687 368.266,235.687 368.266,199.161 378.468,199.161 390.316,229.268 390.436,229.268 402.067,199.161 
	411.565,199.161 411.565,235.687 405.884,235.687 "/>
<rect x="433.577" y="199.161" fill="#0090D2" width="5.685" height="36.526"/>
<polyline fill="#0090D2" points="461.313,235.687 461.313,199.161 467.019,199.161 467.019,231.345 486.165,231.345 
	486.165,235.687 "/>
<polyline fill="#0090D2" points="504.688,235.687 504.688,199.161 510.382,199.161 510.382,231.345 529.524,231.345 
	529.524,235.687 "/>
<path fill="#0090D2" d="M551.915,225.02c0.115,5.144,3.48,7.071,8.999,7.071c4.679,0,10.377-1.211,10.377-6.325
	c0-3.553-3.31-5.007-6.726-5.613c-6.777-1.305-18.062-2.687-18.062-10.867c0-7.946,8.155-10.884,15.845-10.884
	c7.003,0,13.904,2.781,13.904,9.857h-5.988c-0.23-4.099-4.099-5.506-8.21-5.506c-4.035,0-9.566,1.309-9.566,5.66
	c0,4.154,3.301,4.414,6.901,5.404c7.575,2.179,17.879,2.179,17.879,11.396c0,8.287-8.364,11.23-16.685,11.23
	c-8.615,0-14.881-3.224-14.65-11.422"/>
<path fill="#0059A2" d="M99.768,52.042c0-16.745,5.493-26.934,5.493-26.934H85.536c-1.86,8.087-5.054,13.58-13.541,15.828
	c0.098-0.277,0.183-0.508,0.235-0.661c1.582-4.564,3.881-12.672,3.881-17.427C76.11,10.232,67.396,0,51.863,0
	C36.991,0,24.916,11.789,24.916,26.699c0,14.838,9.443,25.471,22.003,29.996c-1.1,3.033-2.278,6.27-3.484,9.592
	c-1.599-0.128-3.241-0.217-4.965-0.217C8.671,66.07,0,86.402,0,99.167c0,24.998,23.266,40.736,51.373,40.736
	c23.539,0,54.055-12.292,54.055-46.719C105.428,78.392,99.768,64.176,99.768,52.042 M43.747,26.733c0-5.293,3.139-8.94,7.101-8.94
	c2.499,0,6.619,1.365,6.619,8.232c0,2.461-2.858,9.37-3.898,12.305c-0.09,0.243-0.341,0.943-0.708,1.962
	C46.22,37.524,43.747,30.214,43.747,26.733 M51.424,120.846c-15.986,0-31.523-7.506-31.523-21.197
	c0-9.323,7.208-14.403,16.937-15.167c-4.478,12.33-8.099,22.302-8.099,22.302h19.15c0,0,3.135-8.547,7.161-19.521
	c8.112,3.263,11.985,8.108,11.985,8.108l6.342-17.167c0,0-4.201-4.15-12.219-7.596c1.489-4.056,2.947-8.044,4.303-11.742
	c8.321-0.921,14.8-3.992,14.8-3.992c0,16.745,5.165,25.096,5.165,36.765C85.425,114.837,66.582,120.846,51.424,120.846"/>
</svg>
