<?xml version="1.0" encoding="utf-8"?>
<!-- Generator: Adobe Illustrator 23.0.3, SVG Export Plug-In . SVG Version: 6.00 Build 0)  -->
<svg version="1.1" id="Layer_1" xmlns="http://www.w3.org/2000/svg" xmlns:xlink="http://www.w3.org/1999/xlink" x="0px" y="0px"
	 viewBox="0 0 552.2 93.9" style="enable-background:new 0 0 552.2 93.9;" xml:space="preserve">
<style type="text/css">
	.st0{fill:#184573;}
	.st1{fill:#E83935;}
</style>
<g>
	<path class="st0" d="M245.5,43.9c0-5.2,0-10.4,0-15.5c-4.4,0-8.9,0-13.3,0c0-5.7,0-11.3,0-16.9c-5.9,0-11.8,0-17.6,0v16.9h-7.3
		c0,5.2,0,10.4,0,15.6h7.3v0h0c0,4.7,0,9.5,0,14.2h0c0,0.4,0,0.8,0,1.2c0,0.3,0,0.6,0,0.9h0c0,2.8,0,5.5,0,8.3
		c0.1,7.5,2.9,15.4,9.1,19.8c5.5,4,12.4,4.7,19,4.6c-5.4-5.7-8.7-13.9-10-20.6l0-0.2l0-0.2c-0.2-1.5-0.4-3.8-0.4-6.3
		c0-0.5-0.1-1.1-0.1-1.6c0-1.3,0-2.7,0-4c0-5.4,0-10.8,0-16.1C236.6,43.9,241.1,43.9,245.5,43.9"/>
	<path class="st0" d="M204,16.2c0-5.2,0-10.4,0-15.6c-8.7-1.5-18.7-0.9-25.7,5.1c-6.2,5.6-7.5,14.5-7.2,22.5h-0.2h-7.4
		c0,5.2,0,10.4,0,15.6h6.4c0.4,0,0.8,0,1.2,0h0v8.5h0c0,12.7,0,25.5,0,38.2h8.2c3.2,0,6.5,0,9.7,0c0-12.9,0-25.8,0-38.8v-7.9h11.9
		c0-5.2,0-10.4,0-15.6c0,0-11.7,0-12,0c0.2-3.5-0.2-7.7,2.6-10.3C195,15.1,199.9,16.1,204,16.2"/>
	<path class="st0" d="M138.4,77.1c-4.5,1.4-10.1,2.9-14.2-0.2c-3.8-2.7-3.3-9.1,0.8-11.3c4.2-2.2,9.1-1.4,13.5-0.6
		C139,69.1,138.9,73.1,138.4,77.1 M139.2,90.6h7.9h4.5h5c-0.1-13.3,0.1-26.7-0.1-40c-0.1-7.8-3.1-16.5-10.6-20.2
		c-10.6-5.3-23.1-4.1-34.5-2.3c0,5.7,0,11.3,0,17c7.3-1.6,15.3-3.2,22.5-0.5c3.4,1.2,4.6,4.7,5.1,7.9c-5.1-0.6-10.2-1.8-15.3-0.8
		c-6,0.7-12,3.7-15.5,8.9c-5.5,8.3-3.9,20.8,4.2,26.8c7.7,5.9,18.8,5.2,26.6-0.1C139.2,88.1,139.2,89.7,139.2,90.6"/>
	<path class="st0" d="M47.7,6.1c7.1,0,14.3,0,21.4,0C58.7,20.2,48.5,34.5,38,48.5c9.4,14,18.5,28.1,28,42.1c-7.4,0-14.8,0-22.2,0
		c-8.2-12.5-16.5-25-24.7-37.6c0,12.5,0,25.1,0,37.6c-6.4,0-12.7,0-19.1,0C0,62.4,0,34.3,0,6.2c6.4,0,12.7,0,19.1,0
		c0,13.3,0,26.6,0,39.9C28.6,32.7,38.2,19.4,47.7,6.1"/>
	<path class="st0" d="M70.4,28.5c6,0,12,0,18,0c0,4,0,7.9-0.1,11.9c2.9-6.6,9.2-10.9,16.2-12c0,5.9,0.1,11.8-0.1,17.7
		C96.7,47,88.9,52.7,88.6,61c-0.2,9.9,0,19.7,0,29.6c-6.1,0-12.1,0-18.2,0C70.4,69.9,70.4,49.2,70.4,28.5"/>
	<path class="st1" d="M384.6,37.7c3,1-4.5,16.1-4.5,16.1c-3,1-6,2-8,2C373.1,53.8,378.6,34.7,384.6,37.7 M390.1,78
		c-2.5,1-3,1.5-6,2.5c-3,1-6.5,1-9.5,0c-9.5-4-3.5-18.6-3.5-18.6c39.2-9.6,33.7-30.7,23.1-31.7c-6.5,0-30.1,1-41.2,28.2
		c-1.5,4-12.1,32.7,11.6,34.7c5,0,10.6-0.5,15.6-3c4.5-2.5,8-5.5,11.1-9.6C393.7,76,390.1,78,390.1,78"/>
	<path class="st1" d="M481.6,83.5c-0.5-0.5-1.5-0.5-2-1c-3-2-0.5-7.6,0-10.6l9-32.2c0.5-2,4-12.6-10-10.6c-12.1,2-20.6,9.6-20.6,9.6
		c1-3,2-7.6,0-8.6c-2.5-1-17.1,3.5-20.6,6.6c-1,0-2.5,1.5-1,3c1.5,2,2,3.5,1,7.1c-2,6-8,27.2-9.5,31.2c-1.5,4-3.5,11.6,0,14.1
		c2.5,2,13.1-2.5,14.6-3.5c1.5-0.5,3-1.5,3.5-2c2-2-1-3,2-13.6c0-0.5,3.5-11.1,6-20.1c2-7.6,9-11.1,11.6-11.6c4-0.5,3,3,2.5,5.5
		c-3.5,11.1-7.5,27.7-9,31.7c-1.5,4-4,12.1,0,13.6c3.5,2.5,19.6-4.5,21.1-5.5C483.1,84.5,483.1,83.5,481.6,83.5"/>
	<path class="st1" d="M420.3,83.5c-1-0.5-1.5-0.5-2-1c-3-2-1-7.6,0-10.6l9.5-32.2c0.5-3.5,2.5-8.1,0-9.6c-3-1-17.6,3.5-21.1,6.6
		c-0.5,0-2,1.5-0.5,3c1.5,2,1.5,3.5,0.5,7.1c-1.5,6-8.5,27.7-10,31.7c-1.5,4-3.5,12.1,1,13.6c3.5,2.5,18.6-4,20.6-5.5
		C421.8,85,421.8,83.5,420.3,83.5"/>
	<path class="st1" d="M417.3,22.6c1,2,10-2,14.6-4.5c0.5-0.5,2.5-2,3-3.5c1-3.5,1.5-5,2-7.6c0.5-1,0.5-2.5-1-3c-2-0.5-14.1,1-17.1,6
		C417.8,12,414.3,21.6,417.3,22.6"/>
	<path class="st1" d="M551.9,57.8c-1.5-5.5-10.6-7.1-14.1-4c-2,2-3,6-2.5,7c8.5-2.5,10,5,8.5,8.1c-3,4.5-4,6-8,6h-26.6
		c-0.5-0.5-1-1,0-2c1.5-2,27.6-37.8,28.6-39.3c0.5-1,2-3.5-1.5-3.5h-29.1c-3,0-4.5,1-7,3.5c-2,2.5-4.5,10.1-6,15.1c0,0,0,2,3-0.5
		c0.5-0.5,1.5-2.5,3-2.5h17.6c5.5,0-23.6,27.7-32.7,42.3c-1.5,2.5,1,2.5,2.5,2.5h38.2c9.5,0,8,1.5,13.1-5.5
		C538.9,85,554.4,64.9,551.9,57.8"/>
	<path class="st1" d="M341.9,74.9l10.6-40.8c7-24.7,11.1-25.7,13.6-28.2h-16.6c-6,0-10.6,8.6-11.6,14.1l-7,25.7h-15.1
		c0,0,9-32.7,10-36.3c0.5-1.5,0.5-3.5-2.5-3.5c-0.5,0-32.2-1-42.2,2.5C276.6,10,270.1,14,268.1,20c-1.5,3.5-3.5,10.1,1,22.2
		c0.5,1.5,1.5,2.5,2,3c1.5,1,14.6-1,14.1-1c1,0,1.5-0.5,0.5-2.5c-1-2.5-4-7.1-4.5-11.6c-2-17.6,10.5-20.1,12.6-20.7
		c3-0.5,5.5-0.5,8.5,0c1,0,3.5,0.5,4,1.5c1,2-0.5,5.5-1.5,9.6c-1,3-9.5,34.2-12.1,42.8c-1.5,6.5-8,20.6-14.6,22.7
		c-1.5,0.5-3.5,0.5-5.5,0c-2-0.5-4-1.5-5.5-2.5c-4-4-6.5-12.1-7-18.1c-0.5-7.6,1-13.1-0.5-13.1c-2.6,0-11.4,3.5-14.9,6c0,0,0,0,0,0
		c-1.4,1-1.5,1.2-1.5,1.2c-0.1,0.1-0.1,0.1-0.2,0.2c-0.9,1.6-0.9,7.2-0.4,10.7c1.5,7.6,5.5,16.1,11.6,20.1
		c16.1,11.1,44.2-9.1,47.2-11.1c4.5-4,7.5-9.6,8.5-13.6c1.5-5,4-13.6,4-13.6h15.1c0,0-6,22.7-7.5,28.2c-1.5,4.5-2.5,12.1,1.5,11.6
		c15.1,0,21.1-5.5,21.6-6c0.5-0.5,0.5-1.5,0-2C343.4,83.5,339.9,80,341.9,74.9"/>
</g>
</svg>
