<svg id="Layer_1" data-name="Layer 1" xmlns="http://www.w3.org/2000/svg" xmlns:xlink="http://www.w3.org/1999/xlink" viewBox="0 0 792 270.05"><defs><style>.cls-1{fill:#002a4e;}.cls-2{fill:url(#linear-gradient);}</style><linearGradient id="linear-gradient" x1="421.43" y1="46.21" x2="421.43" gradientUnits="userSpaceOnUse"><stop offset="0" stop-color="#91c548"/><stop offset="0.24" stop-color="#a6ce3a"/><stop offset="0.73" stop-color="#dde416"/><stop offset="1" stop-color="#fff200"/></linearGradient></defs><polygon class="cls-1" points="40.15 139.15 39.6 139.15 39.6 208.45 0 208.45 0 1.66 39.6 1.66 39.6 128.97 40.15 128.97 82.78 67.11 128.7 67.11 81.4 130.91 130.62 208.45 81.95 208.45 40.15 139.15"/><polygon class="cls-1" points="189.74 208.45 136.67 67.11 180.12 67.11 210.09 160.6 210.64 160.6 240.62 67.11 284.07 67.11 207.62 270.05 166.09 270.05 189.74 208.45"/><path class="cls-1" d="M294.78,67.11h38V94.33h.55c7.43-20.07,22-31.08,40.7-31.08h5.5v38.51h-8.8c-20.34,0-36.3,12.36-36.3,37.39v69.3h-39.6Z"/><rect class="cls-1" x="401.2" y="67.11" width="39.6" height="141.35"/><path class="cls-1" d="M466.28,1.66h39.59V86.35h.56c13.19-17.32,26.67-23.1,44.81-23.1,40.7,0,65.45,34.93,65.45,74.26s-26.68,74.78-66,74.78c-18.16,0-34.65-6.87-45.93-23.64h-.55v19.8H466.28ZM540.8,96.81c-24.75,0-36.3,20.07-36.3,41.25,0,23.64,12.65,42.34,35.19,42.34,23.38,0,35.75-19.53,35.75-41.8,0-21.45-11.82-41.79-34.64-41.79"/><path class="cls-1" d="M723.39,190h-.56c-13.2,17.33-31.9,22.28-48.39,22.28-22.28,0-49.5-11-49.5-43.18,0-15.11,4.94-40.15,60.22-43.44l36.57-2.2v-6.6c0-16.78-10.45-25-27.77-25-16.22,0-25.85,8.25-26.68,20.9H629.33c1.38-21.72,16.78-49.5,66.28-49.5,34.93,0,64.08,13.2,64.08,45.65v81.95a78.14,78.14,0,0,0,1.91,17.6H723.39Zm-1.66-43.17-33,3c-18.15,1.65-24.21,7.14-24.21,17.32,0,12.65,11.55,16.5,24.75,16.5,12.37,0,32.45-6.88,32.45-23.92Z"/><polygon class="cls-1" points="788.69 67.89 782.91 83.24 777.13 67.89 773.82 67.89 773.82 86.15 776.12 86.15 776.12 70.96 776.17 70.96 781.88 86.15 783.95 86.15 789.67 70.96 789.7 70.96 789.7 86.15 792 86.15 792 67.89 788.69 67.89"/><polygon class="cls-1" points="762.97 86.15 765.44 86.15 765.44 69.94 771.51 69.94 771.51 67.89 756.88 67.89 756.88 69.94 762.97 69.94 762.97 86.15"/><path class="cls-2" d="M398.33,23.38c0,11,9.89,22.83,23.1,22.83,12.64,0,23.1-11.28,23.1-23.38C444.53,10.18,433.25,0,421.43,0c-13.21,0-23.1,11.83-23.1,23.38"/></svg>