<?xml version="1.0" encoding="utf-8"?>
<!-- Generator: Adobe Illustrator 25.2.1, SVG Export Plug-In . SVG Version: 6.00 Build 0)  -->
<svg version="1.1" id="Title" xmlns="http://www.w3.org/2000/svg" xmlns:xlink="http://www.w3.org/1999/xlink" x="0px" y="0px"
	 viewBox="0 0 354.35 330.82" style="enable-background:new 0 0 354.35 330.82;" xml:space="preserve">
<style type="text/css">
	.st0{fill:#6F5E4A;}
</style>
<g>
	<path class="st0" d="M294.13,56.28c6.77-2.88,18.91-7.73,25.91-10.27v-6.89c-14.05,5.19-38.72,15.41-55.54,24.56
		c0.45,0.56,3.39,4.69,3.72,5.19c7.11-2.94,13.49-4.86,19.25-4.86c8.07,0,14.68,0,25.74-2.6v-5.19c-6.21,1.13-12.81,2.48-17.1,2.48
		c-2.54,0-3.27-0.34-3.27-1.19C292.83,57.02,293.17,56.68,294.13,56.28z"/>
	<path class="st0" d="M129.93,124.08c4.85-2.31,12.7-3.44,16.59-3.44c3.56,0,7.23,0.4,10.61,0.85c3.84,0.51,8.3,1.07,12.98,1.07
		c10.61,0,21-5.65,22.63-6.66c-1.3-1.13-2.94-2.71-3.9-3.89c-3.39,1.47-11.18,4.29-18.91,4.29c-3.84,0-7.06-0.34-10.61-0.79
		c-4.4-0.56-8.58-1.07-12.14-1.07c-5.93,0-13.26,0.56-20.38,5.59L129.93,124.08z"/>
	<path class="st0" d="M130.56,69.32c-0.96-0.68-2.14-0.96-3.22-0.96c-2.37,0-3.33,1.41-3.78,2.88c-0.23,0.68-0.28,1.36-0.28,1.92
		c0,2.03,0.9,3.44,2.37,3.44c2.03,0,6.1-2.82,6.1-5.25C131.74,70.62,131.4,69.89,130.56,69.32z"/>
	<path class="st0" d="M217.03,132.83c-1.58-0.96-3.84-2.43-5.02-3.22c-5.81,2.54-11.57,7.62-16.48,12.76
		c-11.29,11.74-10.27,18.52-22.18,23.09c-2.99,1.13-6.66,2.37-11.35,3.44c-2.76-8.52-9.71-16.99-17.05-16.99
		c-5.08,0-10.95,2.65-17.72,5.65c-7.96,3.5-15.24,7.51-17.55,9.03l3.1,4.18c2.37-1.3,9.2-4.69,16.03-7.62
		c5.93-2.54,11.29-4.63,14.9-4.63c5.81,0,9.6,6.6,11.68,11.91c-7.62,1.81-20.15,2.26-23.93,2.26c-1.75,0-2.37,0.28-2.99,0.79
		c-0.56,0.51-1.02,1.41-1.3,2.65l-0.45,1.92h4.06c21.11,0,41.03-3.33,53.85-11.12c1.81,0.51,3.39,0.85,5.42,0.85
		c7.34,0,14.9-4.01,19.64-7.68c1.69-1.3,2.09-2.48,2.09-3.78c0-0.62-0.06-1.19-0.11-1.75l-0.22-2.2
		c-6.77,5.36-12.42,9.37-19.42,9.37c-1.24,0-2.14-0.11-2.88-0.34C195.98,150.45,202.07,140.74,217.03,132.83z"/>
	<path class="st0" d="M283.91,143.73l2.77,1.92c0.39,0.28,0.68,0.45,1.02,0.45c0.56,0,0.96-0.56,0.96-1.02
		c0-0.28-0.11-0.57-0.45-0.85c-8.24-7.51-17.1-16.65-25.4-25.46c-6.49-6.94-13.15-14.28-19.02-21.68c-0.4-0.51-0.73-0.73-1.19-0.73
		c-0.68,0-1.02,0.45-1.02,0.96c0,0.79,0.56,1.75,1.98,4.12c4.29,7.28,9.6,14.62,16.14,21.51
		C266.76,130.46,275.05,137.46,283.91,143.73z"/>
	<path class="st0" d="M120,119.74l-3.27-4.23c-12.64,4.86-26.7,12.7-26.7,20.72c0,4.57,3.39,8.19,11.01,8.19
		c11.18,0,23.09-5.64,32.62-10.9l-1.36-1.86c-0.79-1.13-1.47-1.47-2.54-1.47c-0.68,0-1.41,0.28-2.03,0.56
		c-8.19,4.01-17.05,8.02-25.29,8.02c-4.74,0-5.93-1.47-5.93-3.5C96.52,129.5,112.21,122.84,120,119.74z"/>
	<path class="st0" d="M172.21,145.65c-4.8,0-4.35-8.19-4.68-14.68c-16.93,1.64-27.54,6.66-39.17,12.93l1.35,5.19
		c10.56-6.32,20.72-9.94,31.5-11.01c0.11,6.21,2.77,14.51,9.82,14.51c7.56,0,16.76-11.86,27.54-25.74l2.82-3.67
		c-1.47-1.13-3.1-2.15-4.12-3.11C186.21,134.3,176.61,145.65,172.21,145.65z"/>
	<polygon class="st0" points="173.51,88.01 149.52,88.01 146.81,93.2 175.65,93.2 	"/>
	<path class="st0" d="M149.18,45.73c5.93-1.3,10.16-2.26,15.8-2.26c5.02,0,8.64,1.19,10.22,4.35c2.94,5.87,2.94,23.65,7.9,37.03
		c4.63,12.59,15.92,24.9,28.62,34.32c0.17,0.11,0.34,0.17,0.56,0.17c0.62,0,1.02-0.45,1.02-0.9c0-0.34-0.11-0.56-0.39-0.85
		c-10.61-10.61-19.25-22.36-23.88-35.23c-4.57-12.53-3.84-30.15-7.85-37.99c-2.65-5.19-8.3-6.55-13.49-6.55
		c-4.18,0-8.07,0.85-9.88,1.24l4.57-7.73h-7.73c1.64-2.88,3.33-5.53,4.18-7.11c0.73-1.35,1.02-3.05,1.92-5.36
		c2.94-7.4,9.43-12.08,17.89-12.08c10.61,0,16.82,6.83,22.97,13.66c2.82,3.16,7.45,9.77,12.81,14.68
		c3.67,3.39,10.67,7.17,21.45,18.29c6.21,6.44,13.43,14.79,21.05,25.97c27.26,39.91,45.16,75.08,55.15,102.52l-0.17,0.11
		c-28.62-19.42-53.4-37.77-73.38-60.4c-14.17-16.09-26.47-34.72-37.2-58.49c-0.73-1.58-1.35-3.05-2.03-4.57
		c-0.28-0.62-0.56-0.79-1.02-0.79c-0.56,0-0.96,0.4-0.96,0.96c0,0.62,0.28,1.97,0.9,4.69c5.7,24.61,21.51,46.69,38.38,65.03
		c16.82,18.23,35.84,33.93,51.48,45.33l12.19,34.89c0.28,0.85,0.62,1.75,0.62,2.6c0,0.62-0.17,1.13-0.56,1.47
		c-0.34,0.34-0.79,0.51-1.81,0.51h-3.67c-1.58,0-2.2-0.23-2.77-0.68c-0.56-0.45-0.96-1.13-1.24-1.92
		c-1.07-3.27-7.51-21.62-8.75-25.35c-0.23-0.68-0.62-0.9-1.07-0.9c-0.56,0-0.96,0.45-0.96,0.96c0,0.45,0.17,0.96,0.45,2.54
		c1.64,8.35,3.56,17.73,4.34,21.28c0.34,1.64,0.73,3.16,0.73,4.29c0,1.02-0.23,1.58-1.07,2.43l-3.78,3.84
		c-0.9,0.9-1.41,1.13-2.14,1.13c-0.9,0-1.64-0.62-1.98-2.2c-4.29-20.04-10.78-44.88-12.47-51.77c-0.39-1.52-0.68-2.37-1.58-2.37
		c-0.79,0-1.07,0.57-1.07,1.24c0,0.51,0.11,1.13,0.17,1.58c1.02,7.11,5.14,33.02,9.6,56.68c0.79,4.06,2.31,6.32,5.81,6.32
		c1.58,0,3.1-0.62,4.52-1.98c2.31-2.31,2.99-2.94,5.76-5.65c1.98-1.92,3.33-2.71,6.72-2.71h8.35c1.98,0,3.05-0.51,4.01-1.41
		c0.9-0.85,1.47-2.03,1.47-3.73c0-1.75-0.45-3.16-1.07-4.91c-2.15-5.76-9.03-25.23-11.06-30.71l0.17-0.11
		c7.06,5.36,17.33,12.19,21.84,12.19c1.41,0,2.26-0.62,2.26-2.82c0-10.39-17.27-53.12-56.73-111.95
		c-21-31.33-39.46-41.89-44.65-46.86c-5.7-5.48-10.05-11.69-12.81-14.68C199.7,8.3,191.74,0,178.65,0c-12.64,0-21,8.24-23.71,15.35
		c-0.79,2.03-1.41,4.52-1.98,5.42c-1.24,2.03-6.83,11.57-9.14,15.36h10.44L149.18,45.73z"/>
	<path class="st0" d="M266.47,29.81h0.9c0,0.4-0.06,0.85-0.06,1.24c0,6.38,3.27,11.12,11.35,11.12c4.97,0,12.76-2.48,20.09-4.97
		c6.1-2.09,11.68-4.23,14.45-5.02V25.4c-3.16,0.96-9.6,3.44-16.26,5.76c-7,2.43-13.89,4.63-17.89,4.63c-4.4,0-5.65-2.43-5.65-5.87
		c0-7.11,4.46-17.33,7.28-23.15h-6.83c-3.56,6.89-17.55,28.96-25.12,38.11l4.35,4.69C257.16,45.05,261.62,37.37,266.47,29.81z"/>
	<path class="st0" d="M314.45,244.44c-0.9,0-1.81,0.11-3.33,0.28l-45.04,4.46c-1.3,0.11-1.92,0.51-2.37,1.02
		c-0.51,0.56-0.73,1.3-0.73,2.31v2.94c0,1.13,0.23,1.64,0.62,2.09c0.51,0.56,1.24,0.85,2.26,0.85h48.6c1.18,0,2.09-0.34,2.77-0.9
		c0.73-0.68,1.07-1.58,1.07-2.94v-5.25c0-2.03-0.39-3.05-1.07-3.78C316.6,244.84,315.58,244.44,314.45,244.44z"/>
	<path class="st0" d="M58.65,204.02c-3.78,2.2-8.47,3.22-12.59,3.22c-1.75,0-2.54,0.34-3.16,0.96c-0.68,0.68-1.02,1.69-1.02,3.1
		v1.98h1.41c7.56,0,14.56-1.19,22.24-7.23l25.01-19.53c3.56,4.06,12.53,9.71,23.14,9.71c5.98,0,9.82-1.47,15.35-2.88
		c4.29-1.07,8.47-2.03,17.61-2.03h26.47c13.55,0,20.1-2.82,27.32-6.89c15.69-8.81,29.07-23.71,36.63-40.82
		c-1.98-1.24-3.84-2.37-5.42-3.44c-8.47,17.84-21.34,30.82-34.54,38.33c-6.26,3.56-11.91,5.87-24.1,5.87h-26.36
		c-9.43,0-15.35,1.24-19.98,2.43c-4.97,1.3-8.13,2.6-13.15,2.6c-7.45,0-14.34-3.67-17.67-7.17l6.21-4.91l-3.1-4.12
		c-1.81,1.3-23.88,17.61-28.5,21.28l-0.28-0.17c0.11-1.13,0.11-2.15,0.11-3.16c0-12.42-5.76-15.41-14.51-18.91l-5.93,3.5
		c12.02,4.01,15.01,7.23,15.01,16.2C64.85,199.05,62.31,201.88,58.65,204.02z"/>
	<path class="st0" d="M53.68,140.68l0.4,2.43c0.17,1.02,0.56,1.86,1.41,2.26c1.02,0.51,2.48,0.56,5.02,0.56
		c6.43,0,11.12-0.79,13.83-1.47c6.94,10.33,16.48,14.28,25.68,14.28c7.84,0,15.8-2.88,23.42-7.06l-1.41-5.14
		c-7.45,4.18-15.18,6.94-22.01,6.94c-7.62,0-14.39-3.27-20.04-11.8c-2.37-3.61-4.23-8.13-6.49-12.14
		c-2.71-4.74-5.64-7.28-10.78-7.28c-4.68,0-9.26,1.92-14.11,4.01l0.23,1.07c0.39,1.75,1.07,2.99,2.71,2.99
		c0.73,0,1.47-0.34,1.86-0.45c2.71-0.85,4.69-1.58,7.45-1.58c4.23,0,6.27,2.48,9.14,8.58l1.07,2.26c-2.94,1.02-9.82,1.52-14.96,1.52
		H53.68z"/>
	<path class="st0" d="M171.99,16.32c-3.67,0-4.68,3.56-4.68,5.53c0,1.58,0.56,3.44,2.54,3.44c1.64,0,3.67-1.19,5.25-2.48
		c1.52-1.24,2.54-2.26,2.54-3.27c0-0.96-0.9-1.86-2.26-2.48C174.41,16.6,173.23,16.32,171.99,16.32z"/>
	<path class="st0" d="M252.19,328.05c0.68-0.85,1.13-1.92,1.13-3.39v-73.89c0-1.47-0.45-2.54-1.13-3.39
		c-0.85-1.02-2.03-1.64-3.78-1.64h-6.72c-1.75,0-2.93,0.62-3.78,1.64c-0.68,0.85-1.13,1.92-1.13,3.39v73.89
		c0,1.47,0.45,2.54,1.13,3.39c0.85,1.02,2.03,1.64,3.78,1.64h6.72C250.16,329.69,251.35,329.07,252.19,328.05z"/>
	<path class="st0" d="M69.03,327.82c0.79-0.96,1.24-2.03,1.24-3.9v-65.54h117.91c1.19,0,2.09-0.34,2.77-0.9
		c0.73-0.68,1.07-1.58,1.07-2.94v-4.97c0-1.35-0.34-2.26-1.07-2.94c-0.68-0.56-1.58-0.9-2.77-0.9H59.49c-2.15,0-3.5,0.73-4.46,1.86
		c-0.79,0.96-1.24,2.03-1.24,3.9v51.26h-0.28c0,0-28.05-50.02-29.41-52.33c-0.96-1.64-2.03-2.77-3.44-3.61
		c-1.41-0.79-2.88-1.3-5.7-1.3H5.7c-2.15,0-3.5,0.73-4.46,1.86C0.45,248.34,0,249.41,0,251.27v72.66c0,1.86,0.45,2.94,1.24,3.9
		c0.96,1.13,2.31,1.86,4.46,1.86h5.25c2.14,0,3.5-0.73,4.46-1.86c0.79-0.96,1.24-2.03,1.24-3.9v-52.5h0.28
		c0,0,29.13,51.6,30.31,53.52c1.64,2.71,4.4,4.74,8.35,4.74h8.98C66.72,329.69,68.07,328.95,69.03,327.82z"/>
	<path class="st0" d="M135.47,302.53c0.96-0.9,1.41-2.2,1.41-4.63c0-7.39-2.31-15.07-7.17-20.94c-4.97-5.93-12.53-9.94-23.2-9.94
		c-19.59,0-30.59,15.3-30.59,31.44c0,17.22,11.8,32.35,30.71,32.35c9.43,0,18.68-3.56,23.99-9.82c2.32-2.71,4.18-6.49,4.18-8.81
		c0-0.79-0.17-1.47-0.62-1.98c-0.45-0.56-1.13-0.9-2.32-0.9h-9.09c-1.81,0-3.05,0.68-3.95,2.03c-2.65,3.9-6.49,5.93-12.14,5.93
		c-8.47,0-13.94-6.44-14.34-13.49h39.29C133.38,303.77,134.62,303.38,135.47,302.53z M92.46,291.75
		c0.73-6.94,6.04-12.14,14.11-12.14c7.9,0,13.38,5.19,14.11,12.14H92.46z"/>
	<path class="st0" d="M32.68,24.9c-3.16-2.43-6.72-4.4-10.89-6.1c-0.28-0.11-0.51-0.17-0.73-0.17c-0.62,0-0.9,0.45-0.9,0.85
		c0,0.34,0.11,0.62,0.62,1.07c4.91,4.18,14.39,12.14,17.33,14.56l2.37-2.71C37.93,29.41,35.33,26.93,32.68,24.9z"/>
	<path class="st0" d="M2.26,195.38c4.23,0,4.74-2.54,4.74-4.97c0-1.64-0.06-3.5-0.06-5.53c0.06-4.69,0.23-8.86,7.79-12.25
		c3.05-1.35,18.01-7.45,29.12-12.19c3.27-1.41,6.32-2.6,9.71-2.6c3.78,0,8.13,1.64,13.55,4.85c4.57,2.71,9.37,6.38,13.15,10.61
		l4.8-3.67c-4.12-4.86-9.82-9.2-15.52-12.59c-5.7-3.39-10.78-5.36-15.07-5.36c-1.86,0-3.39,0.34-4.69,0.68
		c-1.52,0.4-2.94,0.85-4.74,0.85c-2.09,0-3.84-0.51-6.38-3.44c-0.96-1.07-7.06-8.02-8.35-10.05c-0.62-0.96-1.75-2.88-1.75-5.14
		c0-0.96,0.17-2.09,0.73-3.1c5.25,4.06,11.74,6.55,19.64,7.51l-1.07-5.36c-11.34-2.99-23.42-12.98-23.42-19.42
		c0-1.35,0.34-2.32,0.85-3.5c4.4,4.06,14.73,8.3,20.32,8.3c3.05,0,5.53-1.02,7.9-1.98c2.26-0.9,4.52-1.81,7.56-1.81
		c7.23,0,16.14,3.5,23.99,6.83c0.45,0.17,0.96,0.28,1.47,0.28c1.24,0,2.2-0.56,2.82-1.75l1.02-1.86
		c-8.64-5.02-22.41-10.39-29.58-10.39c-3.27,0-5.64,0.85-7.9,1.75c-2.54,1.02-4.74,2.09-7.06,2.09c-5.7,0-20.32-5.65-20.32-11.12
		c0-6.44,23.26-8.92,25.79-8.92l2.31-5.25c-16.88,0-36.97,5.93-36.97,13.77c0,2.26,1.3,3.39,1.3,5.48c0,2.82-1.3,4.74-1.3,7.9
		c0,2.09,1.24,4.74,2.71,7.06c1.58,2.43,3.44,4.01,3.44,6.04c0,1.52-1.02,3.33-1.02,6.89c0,7.62,4.35,12.25,12.81,21.34l1.69,1.81
		c-7,2.71-20.04,8.35-23.09,9.65C2.65,171.22,0,176.59,0,185.05c0,3.27,0,7,0.22,10.33H2.26z"/>
	<path class="st0" d="M317.22,310.21c-0.45-0.56-1.13-0.9-2.31-0.9h-9.09c-1.81,0-3.05,0.68-3.95,2.03
		c-2.65,3.9-6.49,5.93-12.14,5.93c-8.47,0-13.94-6.44-14.34-13.49h39.4c1.75,0,2.99-0.4,3.84-1.24c0.96-0.9,1.41-2.2,1.41-4.63
		c0-7.39-2.31-15.07-7.17-20.94c-4.97-5.93-12.64-9.94-23.31-9.94c-19.59,0-30.59,15.3-30.59,31.44c0,17.22,11.8,32.35,30.71,32.35
		c9.43,0,18.68-3.56,23.99-9.82c2.31-2.71,4.18-6.49,4.18-8.81C317.84,311.4,317.67,310.72,317.22,310.21z M289.62,279.61
		c7.9,0,13.38,5.19,14.11,12.14H275.5C276.24,284.81,281.54,279.61,289.62,279.61z"/>
	<path class="st0" d="M129.88,57.81c-1.64-0.4-3.39-0.73-5.87-0.73c-4.46,0-9.26,1.69-12.53,4.86c-5.98,5.7-6.32,11.85-6.72,17.33
		c-0.51,7.28-1.86,9.09-5.81,14.4c-3.22,4.35-7.62,10.05-11.01,16.09c1.07,0.51,4.63,2.43,5.87,3.11c3.9-5.87,9.31-13.1,12.87-18.57
		c3.22-4.97,4.52-7.11,4.74-13.77c0.06-1.13,0.06-2.2,0.17-3.27c0.28-3.44,1.18-6.94,4.46-10.16c2.43-2.43,5.93-3.67,9.43-3.67
		c3.39,0,5.36,0.96,8.3,0.96c2.09,0,3.61-0.51,4.97-1.02l1.07-0.4l-2.6,6.21l6.1,2.48c-3.9,2.43-12.42,12.87-12.42,25.23
		c0,4.46,0.68,8.58,1.64,12.25c0.11,0.39,0.34,0.79,0.96,0.79c0.56,0,0.96-0.34,1.02-0.96l0.06-1.3c0.17-3.78,0.45-9.77,1.98-15.13
		c2.54-9.03,9.37-17.5,16.2-21.57l-9.71-4.23l4.18-10.22l-4.57,0.96c-2.77,0.57-4.8,1.07-7.23,1.07
		C133.83,58.54,132.02,58.32,129.88,57.81z"/>
	<path class="st0" d="M178.31,293.61l-12.81-3.27c-5.31-1.35-7.79-2.31-7.79-5.59c0-3.16,2.82-5.7,9.37-5.7
		c3.84,0,7.34,0.85,9.6,3.22c1.86,1.98,1.52,2.99,2.99,3.78c0.9,0.45,1.92,0.45,3.5,0.45h6.38c1.02,0,1.75-0.17,2.31-0.79
		c0.45-0.51,0.73-1.3,0.73-2.6c0-2.94-1.92-6.72-5.31-9.6c-4.52-3.89-11.63-6.49-20.21-6.49c-15.47,0-25.62,7.34-25.62,19.08
		c0,4.18,1.52,7.56,4.01,10.22c2.88,3.1,7,5.25,12.98,6.77l12.93,3.27c3.56,0.9,6.72,1.98,6.72,5.08c0,4.8-5.08,6.44-10.5,6.44
		c-2.65,0-5.42-0.51-7.68-1.64c-1.58-0.79-2.94-1.92-3.9-3.44c-0.85-1.3-1.13-2.26-2.43-2.99c-0.79-0.45-1.75-0.51-3.05-0.51h-7
		c-1.52,0-2.26,0.45-2.77,1.07c-0.51,0.62-0.68,1.52-0.68,2.43c0,2.26,0.79,5.08,2.65,7.62c4.29,5.76,13.26,10.39,24.72,10.39
		c11.29,0,26.92-4.69,26.92-19.82c0-3.9-1.13-7.23-3.22-9.94C188.52,297.62,184.74,295.25,178.31,293.61z"/>
	<path class="st0" d="M202.24,308.91c0,7.23,1.98,11.74,5.64,15.35c3.39,3.33,7.79,5.42,15.47,5.42h4.8c1.19,0,2.09-0.34,2.76-0.9
		c0.73-0.68,1.19-1.58,1.19-2.94v-4.91c0-1.35-0.45-2.26-1.19-2.94c-0.68-0.56-1.58-0.9-2.76-0.9h-0.68c-3.05,0-5.14-0.79-6.55-2.14
		c-1.69-1.58-2.54-4.01-2.54-7.17v-27.04h10.27c1.18,0,2.09-0.34,2.77-0.9c0.73-0.68,1.07-1.58,1.07-2.94v-3.89
		c0-1.36-0.34-2.26-1.07-2.94c-0.68-0.56-1.58-0.9-2.77-0.9h-10.22v-18.4c0-1.47-0.45-2.54-1.13-3.39
		c-0.85-1.02-2.03-1.64-3.78-1.64h-6.38c-1.75,0-2.94,0.62-3.78,1.64c-0.68,0.85-1.13,1.92-1.13,3.39v18.4h-3.16
		c-1.19,0-2.09,0.34-2.77,0.9c-0.73,0.68-1.07,1.58-1.07,2.94v3.89c0,1.36,0.34,2.26,1.07,2.94c0.68,0.56,1.58,0.9,2.77,0.9h3.16
		V308.91z"/>
	<path class="st0" d="M75.35,67.97c-7.96,9.43-12.14,17.05-19.08,33.99c1.13-0.11,2.77-0.23,4.57-0.23c0.9,0,1.64,0,2.82,0.06
		l0.85-1.81c3.89-8.36,9.14-19.65,16.48-28.34l2.54-2.99c7.56-8.86,12.25-14.11,15.18-26.19c1.02-4.29,1.86-8.13,4.74-10.9
		c2.6-2.48,5.87-3.56,9.2-3.56c2.82,0,4.91,0.68,7.96,1.98c2.77,1.19,3.78,1.41,6.72,1.41c1.02,0,1.75-0.06,2.43-0.11l-3.95,5.31
		l5.36,3.78c-6.72,1.98-10.27,8.47-11.46,11.46c-0.23,0.62-0.34,1.02-0.34,1.41c0,0.45,0.23,0.9,0.9,0.9c0.73,0,1.3-0.56,2.26-1.69
		c3.27-3.95,5.87-6.66,17.95-10.44l-8.52-6.44l6.43-9.43h-6.04c-3.84,0-6.38-0.06-9.71-1.58c-4.52-2.09-6.83-2.99-10.84-2.99
		c-4.91,0-9.37,1.75-13.04,5.14c-4.23,3.9-5.53,9.09-7.06,14.79c-1.19,4.4-2.6,9.26-5.76,13.72C83.31,58.99,81.39,60.86,75.35,67.97
		z"/>
	<path class="st0" d="M49.39,47.59c2.99,4.35,8.01,12.76,12.76,23.94c0.85-1.41,3.39-4.85,4.4-5.93
		c-4.35-8.81-11.46-17.22-14.56-20.55L49.39,47.59z"/>
	<path class="st0" d="M116.16,40.14c1.52-0.9,2.82-2.2,2.82-3.56c0-0.62-0.28-1.24-0.9-1.81c-1.07-1.02-2.54-1.52-3.78-1.52
		c-2.82,0-4.29,2.65-4.29,5.08c0,1.86,0.9,2.94,2.65,2.94C113.74,41.27,114.98,40.82,116.16,40.14z"/>
	<path class="st0" d="M20.15,65.2c0,0.4,0.28,0.9,0.9,0.9c0.39,0,0.73-0.17,1.47-0.45l20.66-7l-1.02-3.39
		c-8.41,1.41-14.51,3.56-21.45,8.98C20.32,64.58,20.15,64.81,20.15,65.2z"/>
	<path class="st0" d="M26.47,46.8c-13.83,0-19.7,6.66-19.7,11.12C2.65,59.61,0,64.19,0,68.42c0,8.41,6.15,14.4,14.28,14.4
		c2.71,0,5.48-1.07,7.39-2.54c1.41,0.51,3.22,0.79,5.08,0.79c3.89,0,8.24-1.35,11.29-5.81c0.45,0.06,0.85,0.06,1.3,0.06
		c4.97,0,9.26-3.27,11.52-7.56c0.56-1.07,0.79-1.92,0.79-2.54c0-0.62-0.28-1.13-0.9-1.13c-0.79,0-0.9,0.73-2.31,2.03
		c-3.16,2.88-8.01,3.95-12.98,3.95c-2.43,3.56-5.42,5.42-8.86,5.42c-2.54,0-4.52-0.68-6.55-2.03c-1.64,1.81-3.67,2.54-5.64,2.54
		c-4.46,0-7.62-3.1-7.62-7.62c0-3.16,2.03-5.98,4.85-7.06c0.51-5.59,6.49-9.37,13.94-9.37c0.96,0,1.92,0.06,2.93,0.17
		c1.13-1.81,3.84-3.73,7.68-4.23c0.79-0.11,1.41-0.17,1.86-0.4c0.45-0.22,0.68-0.68,0.68-1.19c0-0.45-0.17-0.85-0.62-1.13
		c-0.39-0.23-1.07-0.34-1.86-0.51c-3.56-0.68-7.79-2.88-9.93-8.24c-8.52,0-14.79-6.83-14.79-14.51V21.4
		c-2.82-1.13-4.74-3.84-4.74-7.06c0-4.23,3.33-7.62,7.56-7.62c2.54,0,4.74,1.24,6.15,3.1c1.19-0.34,2.54-0.45,3.84-0.45
		c6.32,0,13.1,4.01,14.39,11.8c8.13,0.73,10.05,7.62,10.55,10.5c0.28,1.47,0.51,2.71,1.47,2.71c1.02,0,1.24-1.13,1.58-2.65
		c0.62-2.88,1.69-5.19,3.84-7c0-7.4,5.53-13.77,13.38-13.77c1.19-2.6,3.78-4.4,6.89-4.4c4.23,0,7.62,3.27,7.62,7.62
		c0,2.54-1.19,4.74-3.05,6.1c0.4,1.47,0.68,2.77,0.68,4.01c0,4.74-2.82,8.07-8.01,9.82c-0.68,2.88-1.92,5.48-3.95,7.4
		c-3.39,3.27-6.83,3.27-6.83,4.63c0,0.73,0.51,1.19,1.92,1.19c6.27,0,12.42-3.5,13.15-9.32c5.98-2.03,9.6-8.07,9.6-12.87
		c0-1.24-0.11-2.32-0.62-3.33c1.64-1.58,3.56-4.29,3.56-8.3c0-3.5-1.52-7.06-4.23-9.65C83.88,1.52,80.55,0,76.65,0
		c-5.64,0-9.31,3.05-11.4,6.04c-6.15,0-14.11,6.83-14.11,16.6h-0.85c-0.56-3.39-4.06-5.65-7-5.81C40.92,9.71,35.56,3.61,26.75,3.61
		c-1.02,0-2.26,0.06-3.33,0.23C20.83,1.47,17.95,0,13.94,0C6.27,0,0,6.15,0,13.94c0,4.86,2.2,8.19,6.38,11.12
		c0,0-0.06,0.62-0.06,0.9c0,6.21,6.77,15.92,16.82,15.92c0,1.58,1.98,3.73,4.18,4.12v0.79H26.47z"/>
	<path class="st0" d="M73.38,19.53c0-0.45-0.39-0.9-0.96-0.9c-0.51,0-0.79,0.34-1.3,0.73c-2.14,1.86-4.06,3.73-6.1,6.04
		c-2.88,3.22-5.31,7.51-7.28,12.19l3.05,1.86c2.09-3.1,8.8-13.72,12.25-19.08C73.26,20.04,73.38,19.76,73.38,19.53z"/>
</g>
<g>
	<path class="st0" d="M343.89,315.66l-1.46,0l0,3.07l1.57,0c1.13,0,2.05-0.16,2.05-1.56C346.04,315.82,345.02,315.66,343.89,315.66
		 M346.15,324.94c-0.54-1.56,0.21-4.53-2-4.53l-1.73,0l0,4.53l-2.48,0l0-11l4.91,0c1.99,0,3.72,0.38,3.72,2.8
		c0,1.62-0.97,2.38-2.48,2.64c2.97,0.43,1.89,3.4,2.74,5.55L346.15,324.94z M344.21,311.23c-4.54,0-8.26,3.72-8.26,8.26
		c0,4.53,3.72,8.31,8.26,8.31c4.53,0,8.25-3.78,8.25-8.31C352.46,314.96,348.74,311.23,344.21,311.23 M344.21,329.69
		c-5.61,0-10.2-4.58-10.2-10.2c0-5.61,4.59-10.19,10.2-10.19c5.61,0,10.14,4.58,10.14,10.19
		C354.35,325.1,349.82,329.69,344.21,329.69"/>
</g>
</svg>
