<svg id="NTT_DATA_Logo" data-name="NTT DATA Logo" xmlns="http://www.w3.org/2000/svg" viewBox="0 0 169.98 24.52"><defs><style>.cls-1{fill:#5087c6;}</style></defs><path class="cls-1" d="M162.14.27H148.27V5.35h13.5c2,0,2.76.89,2.76,3.19v.85H153.34c-4.26,0-6.37,2.11-6.37,6.86v1.13c0,4.9,2.19,6.87,6.6,6.87H170V8.48c0-6-2-8.21-7.84-8.21m-8,18.85c-.83,0-1.77-.42-1.77-2.48s.93-2.41,1.77-2.41h10.39v4.89Z"/><polygon class="cls-1" points="125.36 0.27 125.36 5.31 133.13 5.31 133.13 24.25 138.65 24.25 138.65 5.31 146.42 5.31 146.42 0.27 125.36 0.27"/><path class="cls-1" d="M116.41.27H102.55V5.35h13.5c2,0,2.76.89,2.76,3.19v.85H107.62c-4.25,0-6.38,2.11-6.38,6.86v1.13c0,4.9,2.2,6.87,6.61,6.87h16.4V8.48c0-6-2-8.21-7.84-8.21m-8,18.85c-.83,0-1.76-.42-1.76-2.48s.91-2.41,1.76-2.41h10.39v4.89Z"/><path class="cls-1" d="M99.11,15.84V8.67c0-6.28-2.47-8.4-8-8.4H76.35v24h15c5.89,0,7.76-2.9,7.76-8.41M93.49,16c0,2.3-.78,3.19-2.77,3.19H81.86V5.38h8.86c2,0,2.77.89,2.77,3.19Z"/><polygon class="cls-1" points="48.59 0.27 48.59 5.31 56.36 5.31 56.36 24.25 61.88 24.25 61.88 5.31 69.65 5.31 69.65 0.27 48.59 0.27"/><polygon class="cls-1" points="25.78 0.27 25.78 5.31 33.56 5.31 33.56 24.25 39.06 24.25 39.06 5.31 46.84 5.31 46.84 0.27 25.78 0.27"/><path class="cls-1" d="M18,18.53c-.12-.21-7.48-14.4-8.38-15.8A5.13,5.13,0,0,0,4.91,0C2.66,0,0,1,0,6.33V24.26H5.43V9.3c0-1.07-.06-2.66-.07-3s0-.51.13-.6.3.06.41.26,6.93,13.55,8.38,15.8A5.12,5.12,0,0,0,19,24.52c2.25,0,4.91-1,4.91-6.33V.27H18.48V15.21c0,1.08.07,2.67.08,3s0,.51-.13.59-.32-.06-.42-.26"/></svg>