<svg id="Layer_1" data-name="Layer 1" xmlns="http://www.w3.org/2000/svg" viewBox="0 0 346.09 72.96"><defs><style>.cls-1{fill:#6d6e71;}.cls-2{fill:#002b54;}</style></defs><title>pagegroup-logo-2019</title><path class="cls-1" d="M16.15,27.6H19c7,0,13.83-.49,13.83-11.62,0-9.64-4.66-11.2-11.7-11.2-4.33,0-5,1-5,5.89ZM.2,53.45c5.72,0,7-1.22,7-7.61V10.67C7.15,4.29,5.92,3.06.2,3.06V1H23.35C33.74,1,42.17,4.7,42.17,16c0,14.57-12.93,15.39-23,15.39h-3V45.84c0,6.39,1.23,7.61,7,7.61v2H.2Z"/><path class="cls-1" d="M23.3,55.7H0V53.26H.2C5.88,53.26,7,52.08,7,45.84V10.67C7,4.44,5.88,3.26.2,3.26H0V.82H23.35c12.44,0,19,5.24,19,15.16,0,15.59-15.09,15.59-23.19,15.59H16.35V45.84c0,6.24,1.07,7.42,6.75,7.42h.2ZM.39,55.3H22.91V53.65c-5.71,0-7-1.46-7-7.81V31.17h3.23C30.21,31.17,42,30,42,16,42,3.78,31.84,1.21,23.35,1.21H.39V2.86c5.72,0,7,1.46,7,7.81V45.84c0,6.35-1.24,7.78-7,7.81ZM19,27.8H16V10.67c0-4.87.62-6.09,5.19-6.09C28.68,4.58,33,6.45,33,16,33,26.91,26.69,27.8,19,27.8Zm-2.66-.39H19c7.46,0,13.63-.86,13.63-11.43,0-9.2-4.21-11-11.5-11-4.12,0-4.79.79-4.79,5.69Z"/><path class="cls-1" d="M64.09,37.58c-3.11.08-12.93.58-12.93,8.26,0,3.2,1.72,5.82,5.16,5.82,4.66,0,7.77-3.36,7.77-9.33ZM79.22,54.85a25.75,25.75,0,0,1-8.59,1.47c-4.9,0-5.89-2.87-6.46-5.56C62.53,52.55,59,56.32,53,56.32c-5.64,0-10.72-4-10.72-9.33C42.24,35.54,59,34.8,64.09,34.56v-4.1c0-4.42,0-10.63-5.65-10.63-8.1,0-2.53,9.82-10,9.82-2.29,0-4.66-1.31-4.66-4.17,0-5.9,8.26-8.43,15-8.43,10.31,0,13.58,4.08,13.58,13.41V46.75c0,5,1,6.79,3.68,6.79a11.1,11.1,0,0,0,3.19-.74Z"/><path class="cls-1" d="M70.63,56.51c-4.79,0-6-2.69-6.57-5.34A14.81,14.81,0,0,1,53,56.51C46.94,56.51,42,52.24,42,47c0-11.51,16.33-12.36,21.85-12.62V30.46c0-4.4,0-10.43-5.45-10.43-4,0-4.51,2.38-5.08,4.91s-1.1,4.9-4.9,4.9c-2.34,0-4.86-1.36-4.86-4.36,0-5.67,7.63-8.63,15.17-8.63,10,0,13.78,3.69,13.78,13.61V46.75c0,4.86.91,6.59,3.48,6.59a9,9,0,0,0,2.62-.56l.52-.17.25-.07V55l-.13,0A25.58,25.58,0,0,1,70.63,56.51Zm-6.35-6.17.08.37c.58,2.74,1.55,5.41,6.27,5.41A25,25,0,0,0,79,54.7V53.07l-.26.08a9,9,0,0,1-2.74.59c-2.82,0-3.87-1.9-3.87-7V30.46c0-9.63-3.63-13.22-13.39-13.22-5.94,0-14.77,2.2-14.77,8.24,0,2.74,2.24,4,4.46,4,3.49,0,4-2.24,4.52-4.6.58-2.57,1.17-5.22,5.46-5.22,5.85,0,5.85,6.52,5.85,10.83v4.28l-.29,0c-5.33.25-21.56,1-21.56,12.23,0,5,4.72,9.13,10.52,9.13,6,0,9.56-3.85,11.06-5.5Zm-8,1.51c-3.25,0-5.36-2.35-5.36-6s2.28-8.17,13.12-8.45h.21v4.95C64.29,48.2,61.23,51.85,56.32,51.85Zm7.57-14.06c-8.2.25-12.53,3-12.53,8.05,0,3.41,1.94,5.62,5,5.62,4.74,0,7.57-3.42,7.57-9.13Z"/><path class="cls-1" d="M91.9,40.61c4.91,0,6.71-4.5,6.71-10.15S96.89,19.83,91.9,19.83c-6,0-6.87,6.46-6.87,10.63,0,6.14,1.55,10.15,6.87,10.15M82.57,56.48A9.24,9.24,0,0,0,81,61c0,3.43,3.68,8.42,11.2,8.42,7.86,0,13.5-4.58,13.5-8.34,0-3.52-3.92-4.58-7.36-4.58Zm17.84-7.61c6,0,12.35,2,12.35,9.73,0,6.63-7.77,14.16-21,14.16-12.19,0-16.93-5.81-16.93-9.66s3.19-6.21,5.16-7.85c-1-1-2.62-2.21-2.62-4.83,0-4.17,3.84-7.93,4.9-9.4C80,39.38,76.6,36.92,76.6,30.46c0-8.34,5.89-13.41,15.3-13.41a18.74,18.74,0,0,1,8.83,2.29c1.56-3.11,4.18-8.92,9.17-8.92a4.42,4.42,0,0,1,4.42,4.5,4.37,4.37,0,0,1-4.42,4.5,4.08,4.08,0,0,1-2.7-.9c-.58-.41-1-.82-1.56-.82-1.55,0-2.37,1.8-3,3,2.29,1.88,4.41,4.42,4.41,9.73,0,8.18-6.3,12.93-15.13,12.93a17.75,17.75,0,0,1-7-1.23,6.5,6.5,0,0,0-1.63,3.68c0,2.29,1.72,3,4.33,3Z"/><path class="cls-1" d="M91.81,73c-12.48,0-17.13-6-17.13-9.86s3-6.13,4.93-7.76l.13-.1a1.8,1.8,0,0,0-.2-.19,6,6,0,0,1-2.32-4.63c0-3.51,2.61-6.67,4.17-8.55l.66-.81c-2.31-1.65-5.65-4.19-5.65-10.6,0-8.39,5.94-13.61,15.5-13.61a18.69,18.69,0,0,1,8.74,2.23l.16-.31c1.58-3.2,4.23-8.55,9.1-8.55a4.61,4.61,0,0,1,4.61,4.7,4.54,4.54,0,0,1-4.61,4.69,4.28,4.28,0,0,1-2.82-.93l-.32-.23a1.91,1.91,0,0,0-1.12-.55c-1.32,0-2.08,1.46-2.7,2.64l-.08.14c2.18,1.82,4.37,4.42,4.37,9.78,0,8-6,13.13-15.33,13.13A17.94,17.94,0,0,1,85,42.4a6.22,6.22,0,0,0-1.51,3.44c0,2,1.28,2.83,4.14,2.83h12.77c4.68,0,12.55,1.3,12.55,9.93C113,65.51,104.87,73,91.81,73Zm.09-55.71c-9.32,0-15.1,5.06-15.1,13.21,0,6.36,3.39,8.79,5.64,10.4l.16.11-.12.16c-.19.27-.46.6-.78,1-1.53,1.84-4.08,4.94-4.08,8.3a5.57,5.57,0,0,0,2.2,4.34l.36.35.15.15-.46.39c-1.91,1.58-4.79,4-4.79,7.45,0,3.66,4.54,9.46,16.73,9.46,12.82,0,20.75-7.24,20.75-14,0-8.29-7.61-9.53-12.15-9.53H87.64c-3,0-4.53-1.06-4.53-3.23a6.72,6.72,0,0,1,1.68-3.79l.08-.12L85,42a17.83,17.83,0,0,0,6.89,1.21c9.07,0,14.94-5,14.94-12.73,0-5.28-2.09-7.72-4.35-9.58l-.13-.1.23-.43c.63-1.2,1.49-2.85,3-2.85a2.25,2.25,0,0,1,1.36.63l.31.23a3.89,3.89,0,0,0,2.59.86,4.17,4.17,0,0,0,4.22-4.3,4.22,4.22,0,0,0-4.22-4.3c-4.62,0-7.21,5.21-8.75,8.32l-.33.66-.17-.09A18.7,18.7,0,0,0,91.9,17.25Zm.32,52.35c-7.78,0-11.4-5.14-11.4-8.62a9.62,9.62,0,0,1,1.58-4.6l.06-.1h15.9c1.78,0,7.56.35,7.56,4.78C105.92,65.09,100.06,69.6,92.22,69.6ZM82.69,56.68A8.92,8.92,0,0,0,81.21,61c0,3.31,3.5,8.23,11,8.23s13.31-4.38,13.31-8.15c0-4.07-5.49-4.38-7.17-4.38ZM91.9,40.81c-4.89,0-7.07-3.19-7.07-10.35,0-4.93,1.23-10.82,7.07-10.82,4.45,0,6.9,3.84,6.9,10.82C98.8,37.13,96.35,40.81,91.9,40.81ZM91.9,20c-5.52,0-6.68,5.67-6.68,10.43,0,6.88,2.06,9.95,6.68,9.95,5.66,0,6.51-6.23,6.51-9.95C98.41,26.57,97.56,20,91.9,20Z"/><path class="cls-1" d="M134,29.16c0-5.16-1.4-9.33-7-9.33-6.22,0-7.85,6.13-7.85,9.33Zm7.52,25a32.36,32.36,0,0,1-11.29,2.13c-12.6,0-20-7.36-20-21,0-12.35,6.13-18.32,17.1-18.32,12.84,0,15,8.59,15,15.46H119.06c0,8.59,3.27,20.13,14.89,20.13a21.55,21.55,0,0,0,7.52-1.39Z"/><path class="cls-1" d="M130.18,56.51c-12.86,0-20.24-7.7-20.24-21.14,0-12.11,6-18.52,17.3-18.52,10.06,0,15.17,5.27,15.17,15.66v.2H119.25c.06,9.57,3.94,19.73,14.7,19.73a21.23,21.23,0,0,0,7.46-1.38l.26-.09v3.36l-.13.05A32.6,32.6,0,0,1,130.18,56.51Zm-2.94-39.27c-11.22,0-16.91,6.1-16.91,18.13,0,13.19,7.24,20.75,19.85,20.75a32.05,32.05,0,0,0,11.1-2.07V51.53A21.53,21.53,0,0,1,134,52.84c-11.13,0-15.09-10.5-15.09-20.33v-.2H142C142,22.17,137.11,17.24,127.24,17.24Zm6.9,12.11H118.86v-.19c0-3.3,1.68-9.53,8-9.53s7.23,5.43,7.23,9.53ZM119.26,29h14.49c-.05-6.09-2.22-8.94-6.84-8.94C121,20,119.32,25.75,119.26,29Z"/><path class="cls-2" d="M191.45,53a54.11,54.11,0,0,1-20.13,3.35c-18.57,0-23.07-15.38-23.07-28C148.25,11.49,153,.2,171.32.2a57.25,57.25,0,0,1,17.35,2.37l.49,12.93h-2.37c-1.31-4.09-4.1-11.37-15.14-11.37-12.35,0-13.74,13.16-13.74,24,0,14.32,3.52,24.3,17.09,24.3a28.2,28.2,0,0,0,7.45-1.31V34.56c0-6.38-1.06-7.61-6.46-7.61V24.9h21.92V27c-5.4,0-6.46,1.23-6.46,7.61Z"/><path class="cls-2" d="M171.32,56.51c-8.43,0-14.71-3.14-18.66-9.35-3.81-6-4.6-13.54-4.6-18.82C148.06,8.48,155,0,171.32,0a57.06,57.06,0,0,1,17.41,2.38l.13.05v.13l.49,13.13h-2.72l0-.13C185.52,12.2,183,4.32,171.65,4.32c-12,0-13.54,12.71-13.54,23.77,0,16.9,5,24.1,16.89,24.1a27.6,27.6,0,0,0,7.25-1.26V34.56c0-6.24-1-7.41-6.26-7.41h-.2V24.7h22.32v2.45h-.2c-5.27,0-6.26,1.17-6.26,7.41V53.11l-.63.21A54.11,54.11,0,0,1,171.32,56.51Zm0-56.11c-16,0-22.87,8.35-22.87,27.94,0,10.37,3,27.78,22.87,27.78a53.45,53.45,0,0,0,19.57-3.18l.36-.12V34.56c0-6.42,1.1-7.77,6.47-7.81V25.1H176.18v1.65c5.37,0,6.47,1.39,6.47,7.81V51.24l-.15,0a28.62,28.62,0,0,1-7.5,1.31c-15.32,0-17.29-13.09-17.29-24.5,0-11.25,1.58-24.16,13.94-24.16,11.49,0,14.15,7.85,15.28,11.37h2l-.47-12.59A57.33,57.33,0,0,0,171.32.4Z"/><path class="cls-2" d="M198,53.7c4.75,0,6.14-1.47,6.14-7.12V27.36c0-5.82-2.95-6.55-6.14-6.55V19l14.4-2v9.48h.16c1.4-3.68,4.42-9.48,11.13-9.48a4.46,4.46,0,0,1,4.42,4.25,4.33,4.33,0,0,1-4.42,4.58c-2.94,0-2.37-1.88-5.07-1.88-2.54,0-6.22,5-6.22,13.42v9.16c0,5.65,1.39,7.12,6.14,7.12v1.8H198Z"/><path class="cls-2" d="M218.72,55.7H197.79V53.5h.2c4.72,0,5.94-1.42,5.94-6.92V27.36c0-5.86-3.07-6.35-5.94-6.35h-.2V18.84l.17,0,14.63-2v9.09c2.42-6,6.15-9.06,11.09-9.06a4.68,4.68,0,0,1,4.62,4.45,4.55,4.55,0,0,1-4.62,4.78,3.7,3.7,0,0,1-2.79-1,3,3,0,0,0-2.28-.86c-2.52,0-6,5-6,13.22v9.16c0,5.5,1.22,6.92,5.94,6.92h.19Zm-20.53-.4h20.14V53.9c-4.75,0-6.14-1.72-6.14-7.32V37.42c0-8.43,3.74-13.62,6.42-13.62a3.38,3.38,0,0,1,2.53,1,3.31,3.31,0,0,0,2.54.92,4.16,4.16,0,0,0,4.22-4.38,4.27,4.27,0,0,0-4.22-4.06c-4.91,0-8.59,3.15-10.94,9.36l-.05.13h-.5V17.27l-14,1.91v1.43c3.21,0,6.13.94,6.13,6.75V46.58c0,5.6-1.38,7.27-6.13,7.32Z"/><path class="cls-2" d="M246.83,53.54c7.11,0,8.59-8.19,8.59-16.86s-1.48-16.85-8.59-16.85-8.59,8.18-8.59,16.85,1.47,16.86,8.59,16.86M229.32,36.68c0-13.25,5.64-19.63,17.51-19.63s17.51,6.38,17.51,19.63-5.65,19.64-17.51,19.64-17.51-6.39-17.51-19.64"/><path class="cls-2" d="M246.83,56.52c-11.92,0-17.71-6.49-17.71-19.84s5.79-19.83,17.71-19.83,17.7,6.49,17.7,19.83S258.74,56.52,246.83,56.52Zm0-39.28c-11.81,0-17.32,6.18-17.32,19.44,0,13.08,5.67,19.44,17.32,19.44s17.31-6.36,17.31-19.44C264.14,23.42,258.64,17.24,246.83,17.24Zm0,36.49c-7.88,0-8.79-9.73-8.79-17s.91-17,8.79-17,8.78,9.73,8.78,17.05S254.7,53.73,246.83,53.73Zm0-33.7c-5.73,0-8.4,5.29-8.4,16.65s2.67,16.66,8.4,16.66,8.39-5.3,8.39-16.66S252.55,20,246.83,20Z"/><path class="cls-2" d="M293.94,46.66h-.16c-1.72,3.28-5.24,9.66-12.44,9.66-9.16,0-10.88-4.66-10.88-10.88V27.35c0-5.8-2.94-6.54-6.13-6.54V19l14.4-2V38.81c0,9.9,1.47,12.52,6.21,12.52,4.26,0,9-8.51,9-13.58V27.35c0-5.8-2.94-6.54-6.13-6.54V19l14.4-2V46c0,5.81,3,6.54,6.13,6.54v1.81l-14.4,2Z"/><path class="cls-2" d="M293.75,56.54V47.15c-1.64,3.1-5.24,9.37-12.41,9.37-9.73,0-11.08-5.33-11.08-11.08V27.35c0-5.86-3.06-6.35-5.93-6.35h-.2V18.84l.17,0,14.62-2v22c0,9.56,1.35,12.32,6,12.32,4,0,8.81-8.22,8.81-13.38V27.35c0-5.86-3.07-6.35-5.94-6.35h-.2V18.84l.17,0,14.62-2V46c0,5.58,2.86,6.35,5.94,6.35h.2v2.17l-.17,0ZM264.53,20.61c3.21,0,6.13.93,6.13,6.74V45.44c0,6.41,1.82,10.68,10.68,10.68,7.25,0,10.77-6.69,12.26-9.55l.06-.1h.48v9.62l14-1.91V52.75c-3.07,0-6.14-.92-6.14-6.74V17.27l-14,1.91v1.43c3.22,0,6.14.93,6.14,6.74v10.4c0,4.93-4.64,13.78-9.2,13.78-5,0-6.41-2.86-6.41-12.72V17.27l-14,1.91Z"/><path class="cls-2" d="M328.55,52.39c7.6,0,8.42-6.55,8.42-16,0-6.95-1.14-14.72-8.42-14.72-5.4,0-7.78,5.56-7.78,14.72,0,10,1.8,16,7.78,16M306.37,71c4.75,0,6.14-1.47,6.14-7.2V27.36c0-5.82-2.95-6.55-6.14-6.55V19l14.4-2v6.54c2.05-2.29,4.5-6.54,11.54-6.54,10.23,0,13.58,9.73,13.58,19.38,0,9.49-2.86,19.88-14.56,19.88-6.71,0-8.51-3.35-10.39-5.8h-.17V63.76c0,5.73,1.39,7.2,6.14,7.2v1.8H306.37Z"/><path class="cls-2" d="M327.11,73H306.18v-2.2h.19c4.72,0,5.94-1.44,5.94-7V27.36c0-5.86-3.06-6.35-5.94-6.35h-.19V18.84l.17,0,14.62-2v6.24l.48-.57c2-2.38,4.64-5.64,10.86-5.64,12.44,0,13.78,13.69,13.78,19.58,0,9.16-2.56,20.08-14.76,20.08-6.2,0-8.32-2.88-10-5.19l-.33-.44V63.76c0,5.56,1.22,7,5.94,7h.2Zm-20.54-.4h20.14v-1.4c-4.75,0-6.13-1.74-6.13-7.4V50.31H321l0,.08c.18.22.35.46.52.69,1.75,2.36,3.72,5,9.72,5,11.87,0,14.36-10.71,14.36-19.69,0-5.77-1.3-19.19-13.38-19.19-6,0-8.65,3.18-10.56,5.5-.29.35-.56.69-.83,1l-.34.39V17.27l-14,1.91v1.43c3.21,0,6.14.94,6.14,6.75v36.4c0,5.66-1.39,7.35-6.14,7.4Zm22-20c-5.59,0-8-4.83-8-16.16,0-9.76,2.75-14.92,8-14.92,7.73,0,8.62,8.52,8.62,14.92C337.17,45.27,336.52,52.59,328.55,52.59Zm0-30.68c-5,0-7.58,4.88-7.58,14.52,0,11,2.27,15.76,7.58,15.76,7.62,0,8.23-6.83,8.23-15.76C336.78,30.2,335.92,21.91,328.55,21.91Z"/></svg>