<?xml version="1.0" encoding="utf-8"?>
<!-- Generator: Adobe Illustrator 26.0.3, SVG Export Plug-In . SVG Version: 6.00 Build 0)  -->
<svg version="1.1" id="Layer_1" xmlns="http://www.w3.org/2000/svg" xmlns:xlink="http://www.w3.org/1999/xlink" x="0px" y="0px"
	 viewBox="0 0 255.4 147.1" style="enable-background:new 0 0 255.4 147.1;" xml:space="preserve">
<style type="text/css">
	.st0{clip-path:url(#SVGID_00000041281180820063100010000016493958320118284719_);fill:#4D4D4F;}
	.st1{clip-path:url(#SVGID_00000041281180820063100010000016493958320118284719_);}
	.st2{clip-path:url(#SVGID_00000041281180820063100010000016493958320118284719_);fill:#56C5D0;}
	.st3{clip-path:url(#SVGID_00000041281180820063100010000016493958320118284719_);fill:#0095DA;}
</style>
<g>
	<g>
		<defs>
			<rect id="SVGID_1_" width="255.4" height="147.1"/>
		</defs>
		<clipPath id="SVGID_00000153675544015393577190000018138545981166997177_">
			<use xlink:href="#SVGID_1_"  style="overflow:visible;"/>
		</clipPath>
		<path style="clip-path:url(#SVGID_00000153675544015393577190000018138545981166997177_);fill:#4D4D4F;" d="M172.1,137h2l1.7,5.1
			l1.6-5.1h1.9l-2.5,6.9l-0.5,1.2c-0.2,0.4-0.3,0.7-0.5,1c-0.2,0.2-0.3,0.4-0.5,0.5c-0.2,0.1-0.4,0.2-0.7,0.3
			c-0.3,0.1-0.6,0.1-1,0.1c-0.4,0-0.7,0-1.1-0.1l-0.2-1.5c0.3,0.1,0.6,0.1,0.8,0.1c0.4,0,0.8-0.1,1-0.4c0.2-0.3,0.4-0.6,0.5-1
			L172.1,137z M169.3,140.7c-0.2,0.1-0.6,0.2-1.1,0.3c-0.5,0.1-0.9,0.2-1,0.3c-0.2,0.2-0.4,0.4-0.4,0.7c0,0.3,0.1,0.5,0.3,0.7
			c0.2,0.2,0.4,0.3,0.7,0.3c0.3,0,0.7-0.1,1-0.3c0.2-0.2,0.4-0.4,0.4-0.6c0.1-0.2,0.1-0.5,0.1-0.9V140.7z M166.8,139.2l-1.7-0.3
			c0.2-0.7,0.5-1.2,1-1.5c0.5-0.3,1.2-0.5,2.1-0.5c0.8,0,1.5,0.1,1.9,0.3c0.4,0.2,0.7,0.5,0.9,0.8c0.2,0.3,0.2,0.9,0.2,1.7l0,2.2
			c0,0.6,0,1.1,0.1,1.4c0.1,0.3,0.2,0.6,0.3,1h-1.8c0-0.1-0.1-0.3-0.2-0.6c0-0.1-0.1-0.2-0.1-0.2c-0.3,0.3-0.7,0.5-1,0.7
			c-0.4,0.2-0.8,0.2-1.2,0.2c-0.7,0-1.3-0.2-1.7-0.6c-0.4-0.4-0.6-0.9-0.6-1.5c0-0.4,0.1-0.8,0.3-1.1c0.2-0.3,0.5-0.6,0.8-0.7
			c0.3-0.2,0.8-0.3,1.5-0.4c0.9-0.2,1.5-0.3,1.8-0.5v-0.2c0-0.4-0.1-0.6-0.3-0.8c-0.2-0.2-0.5-0.2-1-0.2c-0.3,0-0.6,0.1-0.8,0.2
			C167.1,138.6,166.9,138.9,166.8,139.2 M156.2,144.2l-2.2-7.2h1.8l1.3,4.7l1.2-4.7h1.8l1.2,4.7l1.3-4.7h1.8l-2.3,7.2h-1.8l-1.2-4.6
			l-1.2,4.6H156.2z M147.6,144.2h-1.9V137h1.7v1c0.3-0.5,0.6-0.8,0.8-1c0.2-0.2,0.5-0.2,0.8-0.2c0.4,0,0.8,0.1,1.2,0.4l-0.6,1.6
			c-0.3-0.2-0.6-0.3-0.9-0.3c-0.3,0-0.5,0.1-0.7,0.2c-0.2,0.1-0.3,0.4-0.4,0.8c-0.1,0.4-0.2,1.2-0.2,2.4V144.2z M142.4,140
			c0-0.5-0.2-1-0.4-1.3c-0.3-0.3-0.6-0.4-1-0.4c-0.4,0-0.7,0.2-1,0.5c-0.3,0.3-0.4,0.7-0.4,1.2H142.4z M142.3,141.9l1.9,0.3
			c-0.2,0.7-0.6,1.2-1.1,1.6c-0.5,0.4-1.2,0.5-1.9,0.5c-1.2,0-2.1-0.4-2.7-1.2c-0.5-0.6-0.7-1.5-0.7-2.5c0-1.2,0.3-2.1,0.9-2.8
			c0.6-0.7,1.4-1,2.3-1c1.1,0,1.9,0.4,2.5,1.1c0.6,0.7,0.9,1.8,0.9,3.2h-4.7c0,0.6,0.2,1,0.5,1.3c0.3,0.3,0.6,0.5,1.1,0.5
			c0.3,0,0.5-0.1,0.7-0.2C142,142.5,142.2,142.2,142.3,141.9 M136.9,137v1.5h-1.3v2.9c0,0.6,0,0.9,0,1c0,0.1,0.1,0.2,0.2,0.2
			c0.1,0.1,0.2,0.1,0.3,0.1c0.2,0,0.4-0.1,0.8-0.2l0.2,1.5c-0.4,0.2-0.9,0.3-1.5,0.3c-0.3,0-0.6-0.1-0.9-0.2
			c-0.3-0.1-0.5-0.3-0.6-0.4c-0.1-0.2-0.2-0.4-0.3-0.7c0-0.2-0.1-0.7-0.1-1.3v-3.1h-0.9V137h0.9v-1.4l1.9-1.1v2.5H136.9z M132.4,137
			v1.5h-1.3v2.9c0,0.6,0,0.9,0,1c0,0.1,0.1,0.2,0.2,0.2c0.1,0.1,0.2,0.1,0.3,0.1c0.2,0,0.4-0.1,0.8-0.2l0.2,1.5
			c-0.4,0.2-0.9,0.3-1.5,0.3c-0.3,0-0.6-0.1-0.9-0.2c-0.3-0.1-0.5-0.3-0.6-0.4c-0.1-0.2-0.2-0.4-0.3-0.7c0-0.2-0.1-0.7-0.1-1.3v-3.1
			h-0.9V137h0.9v-1.4l1.9-1.1v2.5H132.4z M125.8,140c0-0.5-0.2-1-0.4-1.3c-0.3-0.3-0.6-0.4-1-0.4c-0.4,0-0.7,0.2-1,0.5
			c-0.3,0.3-0.4,0.7-0.4,1.2H125.8z M125.7,141.9l1.9,0.3c-0.2,0.7-0.6,1.2-1.1,1.6c-0.5,0.4-1.2,0.5-1.9,0.5
			c-1.2,0-2.1-0.4-2.7-1.2c-0.5-0.6-0.7-1.5-0.7-2.5c0-1.2,0.3-2.1,0.9-2.8c0.6-0.7,1.4-1,2.3-1c1,0,1.9,0.4,2.5,1.1
			c0.6,0.7,0.9,1.8,0.9,3.2H123c0,0.6,0.2,1,0.5,1.3c0.3,0.3,0.6,0.5,1.1,0.5c0.3,0,0.5-0.1,0.7-0.2
			C125.4,142.5,125.6,142.2,125.7,141.9 M115.1,140.4c0,0.7,0.1,1.3,0.3,1.6c0.3,0.5,0.8,0.8,1.3,0.8c0.4,0,0.8-0.2,1.1-0.5
			c0.3-0.4,0.4-0.9,0.4-1.7c0-0.8-0.1-1.4-0.4-1.8c-0.3-0.4-0.7-0.5-1.1-0.5c-0.4,0-0.8,0.2-1.1,0.5
			C115.2,139.2,115.1,139.7,115.1,140.4 M113.2,144.2v-9.9h1.9v3.6c0.6-0.7,1.3-1,2-1c0.9,0,1.6,0.3,2.1,0.9
			c0.6,0.6,0.8,1.5,0.8,2.7c0,1.2-0.3,2.2-0.9,2.8c-0.6,0.7-1.3,1-2.1,1c-0.4,0-0.8-0.1-1.2-0.3c-0.4-0.2-0.7-0.5-1-0.9v1H113.2z
			 M105.8,140.7c-0.2,0.1-0.6,0.2-1.1,0.3c-0.5,0.1-0.9,0.2-1,0.3c-0.2,0.2-0.4,0.4-0.4,0.7c0,0.3,0.1,0.5,0.3,0.7
			c0.2,0.2,0.4,0.3,0.7,0.3c0.3,0,0.7-0.1,1-0.3c0.2-0.2,0.4-0.4,0.4-0.6c0-0.2,0.1-0.5,0.1-0.9V140.7z M103.3,139.2l-1.7-0.3
			c0.2-0.7,0.5-1.2,1-1.5c0.5-0.3,1.2-0.5,2.1-0.5c0.8,0,1.5,0.1,1.9,0.3c0.4,0.2,0.7,0.5,0.9,0.8c0.2,0.3,0.2,0.9,0.2,1.7l0,2.2
			c0,0.6,0,1.1,0.1,1.4c0.1,0.3,0.2,0.6,0.3,1h-1.8c0-0.1-0.1-0.3-0.2-0.6c0-0.1-0.1-0.2-0.1-0.2c-0.3,0.3-0.7,0.5-1,0.7
			c-0.4,0.2-0.8,0.2-1.2,0.2c-0.7,0-1.3-0.2-1.7-0.6c-0.4-0.4-0.6-0.9-0.6-1.5c0-0.4,0.1-0.8,0.3-1.1c0.2-0.3,0.5-0.6,0.8-0.7
			c0.3-0.2,0.8-0.3,1.5-0.4c0.9-0.2,1.5-0.3,1.8-0.5v-0.2c0-0.4-0.1-0.6-0.3-0.8c-0.2-0.2-0.5-0.2-1-0.2c-0.3,0-0.6,0.1-0.8,0.2
			C103.6,138.6,103.5,138.9,103.3,139.2 M91.3,140.4c0,0.8,0.1,1.3,0.3,1.7c0.3,0.5,0.7,0.7,1.3,0.7c0.4,0,0.8-0.2,1.1-0.6
			c0.3-0.4,0.5-0.9,0.5-1.7c0-0.8-0.1-1.4-0.4-1.8c-0.3-0.4-0.7-0.5-1.1-0.5c-0.4,0-0.8,0.2-1.1,0.5
			C91.5,139.2,91.3,139.7,91.3,140.4 M96.3,144.2h-1.7v-1c-0.3,0.4-0.6,0.7-1,0.9c-0.4,0.2-0.8,0.3-1.2,0.3c-0.8,0-1.5-0.3-2.1-1
			c-0.6-0.7-0.9-1.6-0.9-2.8c0-1.2,0.3-2.1,0.8-2.8c0.6-0.6,1.3-0.9,2.1-0.9c0.8,0,1.5,0.3,2,1v-3.6h1.9V144.2z M88,144.2h-1.9v-3.6
			c0-0.8,0-1.3-0.1-1.5c-0.1-0.2-0.2-0.4-0.4-0.5c-0.2-0.1-0.4-0.2-0.6-0.2c-0.3,0-0.6,0.1-0.9,0.3c-0.3,0.2-0.4,0.4-0.5,0.7
			c-0.1,0.3-0.1,0.8-0.1,1.6v3.2h-1.9V137h1.7v1.1c0.6-0.8,1.4-1.2,2.3-1.2c0.4,0,0.8,0.1,1.1,0.2c0.3,0.2,0.6,0.3,0.8,0.6
			c0.2,0.2,0.3,0.5,0.4,0.8c0.1,0.3,0.1,0.7,0.1,1.3V144.2z M77.8,137h1.9v7.2h-1.9V137z M77.8,134.3h1.9v1.8h-1.9V134.3z M72.4,137
			h1v-0.5c0-0.6,0.1-1.1,0.2-1.3c0.1-0.3,0.4-0.5,0.7-0.7c0.3-0.2,0.8-0.3,1.3-0.3c0.5,0,1.1,0.1,1.6,0.2l-0.3,1.3
			c-0.3-0.1-0.6-0.1-0.9-0.1c-0.3,0-0.5,0.1-0.6,0.2c-0.1,0.1-0.2,0.4-0.2,0.7v0.5h1.4v1.5h-1.4v5.7h-1.9v-5.7h-1V137z M61.3,142.1
			l1.9-0.3c0.1,0.4,0.2,0.6,0.5,0.8c0.2,0.2,0.6,0.3,1,0.3c0.5,0,0.8-0.1,1.1-0.3c0.2-0.1,0.2-0.3,0.2-0.5c0-0.1,0-0.3-0.1-0.4
			c-0.1-0.1-0.3-0.2-0.6-0.2c-1.5-0.3-2.5-0.6-2.9-0.9c-0.6-0.4-0.8-0.9-0.8-1.6c0-0.6,0.2-1.1,0.7-1.6c0.5-0.4,1.2-0.6,2.2-0.6
			c1,0,1.7,0.2,2.2,0.5c0.5,0.3,0.8,0.8,1,1.4l-1.8,0.3c-0.1-0.3-0.2-0.5-0.4-0.6c-0.2-0.2-0.5-0.2-0.9-0.2c-0.5,0-0.8,0.1-1.1,0.2
			c-0.1,0.1-0.2,0.2-0.2,0.4c0,0.1,0.1,0.2,0.2,0.3c0.2,0.1,0.7,0.3,1.7,0.5c1,0.2,1.7,0.5,2.1,0.8c0.4,0.3,0.6,0.8,0.6,1.4
			c0,0.7-0.3,1.2-0.8,1.7c-0.5,0.5-1.3,0.7-2.4,0.7c-1,0-1.7-0.2-2.3-0.6C61.8,143.3,61.4,142.8,61.3,142.1 M53.5,137h2l1.7,5.1
			l1.6-5.1h1.9l-2.5,6.9l-0.4,1.2c-0.2,0.4-0.3,0.7-0.5,1c-0.2,0.2-0.3,0.4-0.5,0.5c-0.2,0.1-0.4,0.2-0.7,0.3
			c-0.3,0.1-0.6,0.1-1,0.1c-0.4,0-0.7,0-1.1-0.1l-0.2-1.5c0.3,0.1,0.6,0.1,0.8,0.1c0.4,0,0.8-0.1,1-0.4c0.2-0.3,0.4-0.6,0.5-1
			L53.5,137z M50.7,140.7c-0.2,0.1-0.6,0.2-1.1,0.3c-0.5,0.1-0.9,0.2-1,0.3c-0.2,0.2-0.4,0.4-0.4,0.7c0,0.3,0.1,0.5,0.3,0.7
			c0.2,0.2,0.4,0.3,0.7,0.3c0.3,0,0.7-0.1,1-0.3c0.2-0.2,0.4-0.4,0.4-0.6c0.1-0.2,0.1-0.5,0.1-0.9V140.7z M48.2,139.2l-1.7-0.3
			c0.2-0.7,0.5-1.2,1-1.5c0.5-0.3,1.2-0.5,2.1-0.5c0.8,0,1.5,0.1,1.9,0.3c0.4,0.2,0.7,0.5,0.9,0.8c0.2,0.3,0.2,0.9,0.2,1.7l0,2.2
			c0,0.6,0,1.1,0.1,1.4c0.1,0.3,0.2,0.6,0.3,1h-1.8c0-0.1-0.1-0.3-0.2-0.6c0-0.1-0.1-0.2-0.1-0.2c-0.3,0.3-0.7,0.5-1,0.7
			c-0.4,0.2-0.7,0.2-1.2,0.2c-0.7,0-1.3-0.2-1.7-0.6c-0.4-0.4-0.6-0.9-0.6-1.5c0-0.4,0.1-0.8,0.3-1.1c0.2-0.3,0.5-0.6,0.8-0.7
			c0.3-0.2,0.8-0.3,1.5-0.4c0.9-0.2,1.5-0.3,1.8-0.5v-0.2c0-0.4-0.1-0.6-0.3-0.8c-0.2-0.2-0.5-0.2-1-0.2c-0.3,0-0.6,0.1-0.8,0.2
			C48.4,138.6,48.3,138.9,48.2,139.2 M37.5,144.2l-2.2-7.2h1.8l1.3,4.7l1.2-4.7h1.8l1.2,4.7L44,137h1.8l-2.3,7.2h-1.8l-1.2-4.6
			l-1.2,4.6H37.5z M32.4,134.3h1.9v9.9h-1.9V134.3z M28.8,140.7c-0.2,0.1-0.6,0.2-1.1,0.3c-0.5,0.1-0.9,0.2-1,0.3
			c-0.2,0.2-0.4,0.4-0.4,0.7c0,0.3,0.1,0.5,0.3,0.7c0.2,0.2,0.4,0.3,0.7,0.3c0.3,0,0.7-0.1,1-0.3c0.2-0.2,0.4-0.4,0.4-0.6
			c0-0.2,0.1-0.5,0.1-0.9V140.7z M26.3,139.2l-1.7-0.3c0.2-0.7,0.5-1.2,1-1.5c0.5-0.3,1.2-0.5,2.1-0.5c0.8,0,1.5,0.1,1.9,0.3
			c0.4,0.2,0.7,0.5,0.9,0.8c0.2,0.3,0.2,0.9,0.2,1.7l0,2.2c0,0.6,0,1.1,0.1,1.4c0.1,0.3,0.2,0.6,0.3,1h-1.8c0-0.1-0.1-0.3-0.2-0.6
			c0-0.1-0.1-0.2-0.1-0.2c-0.3,0.3-0.7,0.5-1,0.7c-0.4,0.2-0.8,0.2-1.2,0.2c-0.7,0-1.3-0.2-1.7-0.6c-0.4-0.4-0.6-0.9-0.6-1.5
			c0-0.4,0.1-0.8,0.3-1.1c0.2-0.3,0.5-0.6,0.8-0.7c0.3-0.2,0.8-0.3,1.5-0.4c0.9-0.2,1.5-0.3,1.8-0.5v-0.2c0-0.4-0.1-0.6-0.3-0.8
			c-0.2-0.2-0.5-0.2-1-0.2c-0.3,0-0.6,0.1-0.8,0.2C26.5,138.6,26.4,138.9,26.3,139.2 M17.7,140c0-0.5-0.2-1-0.4-1.3
			c-0.3-0.3-0.6-0.4-1-0.4c-0.4,0-0.7,0.2-1,0.5c-0.3,0.3-0.4,0.7-0.4,1.2H17.7z M17.6,141.9l1.9,0.3c-0.2,0.7-0.6,1.2-1.1,1.6
			c-0.5,0.4-1.2,0.5-1.9,0.5c-1.2,0-2.1-0.4-2.7-1.2c-0.5-0.6-0.7-1.5-0.7-2.5c0-1.2,0.3-2.1,0.9-2.8c0.6-0.7,1.4-1,2.3-1
			c1,0,1.9,0.4,2.5,1.1c0.6,0.7,0.9,1.8,0.9,3.2h-4.7c0,0.6,0.2,1,0.5,1.3c0.3,0.3,0.6,0.5,1.1,0.5c0.3,0,0.5-0.1,0.7-0.2
			C17.3,142.5,17.5,142.2,17.6,141.9 M2.3,144.2L0,134.3h2l1.5,6.8l1.8-6.8h2.3l1.7,6.9l1.5-6.9h2l-2.4,9.9H8.3l-1.9-7.4l-1.9,7.4
			H2.3z"/>
		<path style="clip-path:url(#SVGID_00000153675544015393577190000018138545981166997177_);" d="M61.7,101.2H16.5
			c-1.1,0-2.1,0.2-2.9,0.7c-0.8,0.5-1.2,1-1.2,1.7c0,1.7,3.3,2.5,9.8,2.5c1.4,0,3.9,0,7.4-0.1c3.5-0.1,6.3-0.1,8.2-0.1
			c7.2,0,12.7,0.6,16.3,1.7c4.8,1.5,7.3,4.2,7.3,7.9c0,2.5-1.6,4.7-4.9,6.6c-3.3,1.9-7.1,2.8-11.6,2.8H0v-7.1H45
			c1.1,0,2.1-0.2,2.9-0.7c0.8-0.5,1.2-1,1.2-1.7c0-1.7-3.3-2.5-9.8-2.5c-1.4,0-3.9,0-7.5,0.1c-3.6,0.1-6.3,0.1-8.2,0.1
			c-7.2,0-12.6-0.6-16.2-1.7c-4.8-1.5-7.3-4.1-7.3-7.9c0-2.5,1.6-4.7,4.9-6.6c3.2-1.9,7.1-2.8,11.5-2.8h45.2V101.2z"/>
		<path style="clip-path:url(#SVGID_00000153675544015393577190000018138545981166997177_);" d="M110.6,103.5c0-0.6-0.4-1.2-1.2-1.7
			c-0.8-0.5-1.8-0.7-2.9-0.7H78.2v4.7h28.3c1.1,0,2.1-0.2,2.9-0.7C110.2,104.7,110.6,104.2,110.6,103.5 M123.5,124.6h-12.4
			c0-0.1,0.1-0.9,0.3-2.2c0.2-1.4,0.3-2.5,0.3-3.5c0-4-1.3-6-4-6H78.2v11.7H65.9V94.2H106c4.4,0,8.3,0.9,11.6,2.8
			c3.3,1.8,4.9,4,4.9,6.6c0,2-1,4-3.1,5.7c2.7,1.7,4,3.7,4,6V124.6z"/>
		<path style="clip-path:url(#SVGID_00000153675544015393577190000018138545981166997177_);" d="M179.6,101.2h-32.4
			c-2,0-3.3,0.6-3.8,1.7c-0.2,0.4-0.3,1.4-0.3,3h34.9v7.1h-34.9v11.7h-12.3v-21.1c0-2.5,1.6-4.7,4.9-6.6c3.2-1.9,7.1-2.8,11.5-2.8
			h32.4V101.2z"/>
		<path style="clip-path:url(#SVGID_00000153675544015393577190000018138545981166997177_);fill:#56C5D0;" d="M128.4,29.3
			c12.5,8.4,13.6,26.5,25.2,36.7c15.3,13.6,30.1,16.4,49.6,15.7c-41.8,11.1-60.6-8.3-71.2-34.9c-5.8-10.5-4.1-21.9-16.9-17.6
			c-10.4,3.5-18.3,10.7-25,17c0.9-1.7,3.9-5.1,6.7-7.7c10.9-8.9,19.6-12.8,24.8-12.5C124.5,26.1,126.1,27.7,128.4,29.3"/>
		<path style="clip-path:url(#SVGID_00000153675544015393577190000018138545981166997177_);fill:#0095DA;" d="M252.7,27.7
			c15.7,31.7-41,57.4-72.1,49c-17.9-5.8-21.8-9.8-25.9-15.9c11.2,7.4,21.6,8.1,40.6,5c22-3.5,44.4-17.5,52.3-38.8
			c2.3-6.3-4.6-10-8.7-12.4c-30.4-17.7-76.2,5.8-99.7,23.5c-0.5-1.3-1.8-2.9-1.8-2.9c2.2-1.9,20.4-12.6,24.6-15.3
			c23.1-15.3,47.4-27.5,74.2-13.9c6.8,3.9,12,12.1,14.2,16.6C251.2,24.2,251.9,26,252.7,27.7 M128,42.1
			c-5.3,4.2-38.4,32.7-45.5,25.6c-5-4.9,3.7-16.7,6.5-20.4c-1.9,1.8-8.6,9.9-9.7,11.8c-26,43.1,38.8-2.1,49.1-13.2
			C127.7,44.5,128,43.9,128,42.1"/>
	</g>
</g>
</svg>
