<svg id="Layer_1" data-name="Layer 1" xmlns="http://www.w3.org/2000/svg" viewBox="0 0 1200 266.83"><defs><style>.cls-1{fill:#237cc1;}.cls-2{fill:#799b3e;}</style></defs><g id="TC_ENERGY_RGB_ENG"><path class="cls-1" d="M380.41,424.35V324.09c0-1.53-.77-2.29-2.09-2.29H348.1c-2.49,0-3.27-1.1-3.27-3.18V304.06c0-2.24.78-3.18,3.27-3.18H442c2.29,0,3.26,1.12,3.26,3.18v14.5a3.24,3.24,0,0,1-3.24,3.24H411.81c-1.34,0-2.1.79-2.1,2.31V425.26c0,2.31-1.15,3.28-3.25,3.28H383.93c-2.09,0-3.22-1-3.22-3.25" transform="translate(0 -204.08)"/><path class="cls-1" d="M452.55,365.73c0-43.05,22.67-68.39,67.64-68.39a81.35,81.35,0,0,1,27.25,4.77c4.19,1.53,5,2.66,4.58,6.09v14.67c.38,2.85-.18,3.81-2.3,3.81-3.05,0-13-8-29-8-23.44,0-38.49,15.23-38.49,45.91,0,27.44,13.33,43.64,38.49,43.64,18.1,0,25.53-8.4,29.34-8.4,1.71,0,2.28,1.16,4,2.87v14.48c-1.74,3.81-3.08,5.53-8.61,7.81-6.48,2.66-17.72,4.37-29.9,4.37-42.86,0-63.06-25.15-63.06-63.64" transform="translate(0 -204.08)"/><path class="cls-1" d="M610.62,424.35v-120c0-2.47,1-3.43,3.29-3.43h72.76c2.5,0,3.48,1,3.48,3.24v14.53c0,2.22-1,3.15-3.47,3.15H642c-1.35,0-2.11.55-2.11,2.22v24.86A1.93,1.93,0,0,0,642,351.1h34.48c2.23,0,3.17,1,3.17,3.08v14.61a3.24,3.24,0,0,1-3.24,3.24H642c-1.31,0-2.05.78-2.05,2.3v28.72c0,1.71.74,2.47,2.24,2.47h47.08c2.43,0,3,1.15,3,3.42V423.4c0,2.08-.55,3-3,3H614.7c-2.26,0-3.22-1-3.22-3.24" transform="translate(0 -204.08)"/><path class="cls-1" d="M711.08,424.35V331.54c0-2.49,1.16-3.46,3.26-3.46h20.92a2.37,2.37,0,0,1,2.67,2.49c0,1.16.38,1.91,1.92,1.91,4.81,0,13-6.9,27.64-6.9,26.49,0,33.58,14.19,33.58,40.84V423a3.14,3.14,0,0,1-3.46,3.45H777.25s-3.24-.52-3.39-2.8v-54.1c.15-15.61-2.91-23.44-17.39-23.44-8.2,0-17,2.68-16.09,10.86v66.7c-.86,2.09-4.29,4.88-4.29,4.88H715.51a3.11,3.11,0,0,1-3.41-3.43" transform="translate(0 -204.08)"/><path class="cls-1" d="M884.55,367.85c1.91,0,2.28-.76,2.28-2.47,0-9.71-5-20.6-19.25-20.6-13.92,0-20.39,11.24-20.39,20.6,0,1.71.19,2.47,2.47,2.47Zm-65.55,11c0-34.3,19.42-51.44,49-51.44,30.86,0,45.72,17.73,45.72,53.16,0,2.87-.75,4-3.43,4h-60.4c-2.28,0-2.84,1-2.84,3.81,0,16.2,13.72,21.91,29.53,21.91,16.38,0,24.59-5.9,28.58-5.9,2.1,0,2.66,1.34,2.66,3.62v10.86c0,2.28-.75,3.81-4.18,5.34-5.91,2.68-17,4.77-29.53,4.77C838.45,429,819,414.14,819,378.87" transform="translate(0 -204.08)"/><path class="cls-1" d="M930.82,424.35V331.51c0-2.28.94-3.43,2.87-3.43h20.58c2.23,0,2.8.76,2.8,3.08,0,1.72,0,2.67,1.86,2.67,4.63,0,10.22-7.47,22.49-7.47,6.88,0,8,1.91,8,5v15a2.8,2.8,0,0,1-2.87,2.8c-2.54-.06-5.31-.76-10.68-.76C964,348.42,958,354,958,364.15v59c0,2.11-.94,3.26-2.8,3.26H933a3,3,0,0,1-3.08-3.26" transform="translate(0 -204.08)"/><path class="cls-1" d="M1064.76,395.05V356.59c0-7.62-7.43-11.24-16.57-11.24-14.48,0-25,8.77-25,32.77,0,18.86,6.68,30.49,23.63,30.49,8.6,0,17.91-3.05,17.91-13m-58.78,69c-5.15-1.91-6.09-3.62-6.09-7.81V446.19c0-2.89,1-4.41,3.26-4.41,4.41,0,14,7.87,33.39,7.87,8.24,0,15.74-1.54,21.12-5.19,5-3.46,7.1-9.21,7.1-16.12v-4c0-1.53-.39-2.47-1.77-2.47-3,0-9.47,6.09-25.85,6.09-28.39,0-44.57-18.29-44.57-49,0-33.53,19.51-51.26,46.35-51.26,15.58,0,20.32,6.3,25,6.3,1.19,0,1.78-.37,2-1.71,0-1.34.59-2.09,2-2.09h21.2A2.86,2.86,0,0,1,1092,333v89.87c0,15.42-1.53,25.15-8.77,32.77-9.71,10.49-25.91,14.11-43.07,14.11-14.86,0-26.49-2.87-32.77-5.17" transform="translate(0 -204.08)"/><path class="cls-1" d="M1117.08,466.21V453.84c0-2.85,1.13-4,3.25-4,1,0,2.47.19,5.52.19,5.15,0,8.39-1.34,10.68-5.9,1.9-4.38,2.86-7.05,2.86-9.15a14.52,14.52,0,0,0-1-5l-32.21-94.13a12.45,12.45,0,0,1-1-3.43c0-1.34,1-2.28,2.87-2.28h21.72a3.41,3.41,0,0,1,3.62,2.28l20,68.79c.37,1.13.56,1.71,1.52,1.71s1.16-.58,1.53-1.71l19.26-68.79c.37-1.91,1.9-2.28,3.62-2.28h18.1c1.72,0,2.49,1,2.49,2.09a12.78,12.78,0,0,1-.77,3.81L1164,443.35c-6.09,19.26-17.54,27.25-35,27.25-9.75,0-11.85-1.5-11.85-4.94" transform="translate(0 -204.08)"/><path class="cls-2" d="M127.18,470.39l0-6.09c-33.92-16.51-59.44-47.67-59.44-88.59,0-46.33,29.91-85.55,71.12-98.61L115,253.22c-38.13,14.53-72.66,52.2-72.66,99.1a106.12,106.12,0,0,0,5.69,34.38l0,0H44.54a107.65,107.65,0,0,1-16.81-57.89c0-44.53,26.68-82.7,64.63-98.78l-24-24.61C27.86,225.51.19,268,0,316.86c-.31,85.62,101.88,144.85,127.18,154.06" transform="translate(0 -204.08)"/><path class="cls-1" d="M137.65,204.61l0,6.09c33.92,16.51,59.43,47.67,59.43,88.59,0,46.33-29.9,85.55-71.11,98.61l23.79,23.88c38.13-14.53,72.67-52.2,72.67-99.1a105.86,105.86,0,0,0-5.7-34.38l0,0h3.52a107.65,107.65,0,0,1,16.81,57.89c0,44.53-26.69,82.7-64.63,98.78l24.07,24.59C237,449.47,264.66,407,264.85,358.11c.31-85.59-101.88-144.8-127.2-154" transform="translate(0 -204.08)"/></g></svg>