<?xml version="1.0" encoding="UTF-8"?><svg id="MASTER" xmlns="http://www.w3.org/2000/svg" xmlns:xlink="http://www.w3.org/1999/xlink" viewBox="0 0 642.95 116.46"><defs><style>.cls-1{fill:#939598;}.cls-2{fill:#cd1e2e;}.cls-3{fill:#003976;}.cls-4{clip-path:url(#clippath);}.cls-5{fill:none;}.cls-6{fill:#49635f;}.cls-7{fill:#cb2029;}.cls-8{fill:#163e6d;}.cls-9{fill:#231f20;}</style><clipPath id="clippath"><rect class="cls-5" x="513.94" y="98.81" width="128.54" height="15.71"/></clipPath></defs><g id="Colour"><g><path class="cls-3" d="M101.4,49.63h-5.3l-4.11-16.45h-.07l-4.05,16.45h-5.41l-6.43-24.16h5.34l3.84,16.45h.07l4.22-16.45h5l4.15,16.65h.07l3.98-16.65h5.24l-6.53,24.16Z"/><path class="cls-3" d="M115.88,31.66c5.54,0,9.11,3.66,9.11,9.24s-3.57,9.21-9.11,9.21-9.08-3.65-9.08-9.21,3.57-9.24,9.08-9.24Zm0,14.82c3.3,0,4.28-2.81,4.28-5.58s-.99-5.62-4.28-5.62-4.25,2.81-4.25,5.62,.99,5.58,4.25,5.58Z"/><path class="cls-3" d="M126.8,32.14h4.56v2.37h.07c1.26-1.79,3.09-2.84,5.37-2.84s4.18,.81,5.13,2.91c1.02-1.52,2.86-2.91,5.3-2.91,3.74,0,6.43,1.73,6.43,6.26v11.71h-4.83v-9.92c0-2.33-.2-4.26-2.96-4.26s-3.23,2.23-3.23,4.43v9.75h-4.83v-9.81c0-2.03,.14-4.37-2.92-4.37-.95,0-3.26,.61-3.26,4.03v10.15h-4.83v-17.5Z"/><path class="cls-3" d="M160.12,42.05c.14,3.05,1.63,4.43,4.32,4.43,1.94,0,3.5-1.18,3.81-2.27h4.25c-1.36,4.13-4.25,5.89-8.23,5.89-5.54,0-8.98-3.79-8.98-9.21s3.64-9.24,8.98-9.24c5.98,0,8.87,5.01,8.53,10.39h-12.68Zm7.85-3.05c-.44-2.44-1.5-3.72-3.84-3.72-3.06,0-3.94,2.37-4.01,3.72h7.85Z"/><path class="cls-3" d="M174.32,32.14h4.59v2.44h.1c1.22-1.96,3.33-2.91,5.37-2.91,5.13,0,6.42,2.88,6.42,7.21v10.76h-4.83v-9.88c0-2.88-.85-4.3-3.09-4.3-2.62,0-3.74,1.46-3.74,5.01v9.17h-4.83v-17.5Z"/><path class="cls-3" d="M206.18,29.43h-4.83v-3.96h4.83v3.96Zm-4.83,2.71h4.83v17.5h-4.83v-17.5Z"/><path class="cls-3" d="M208.64,32.14h4.59v2.44h.1c1.22-1.96,3.33-2.91,5.37-2.91,5.13,0,6.43,2.88,6.43,7.21v10.76h-4.83v-9.88c0-2.88-.85-4.3-3.09-4.3-2.62,0-3.74,1.46-3.74,5.01v9.17h-4.83v-17.5Z"/><path class="cls-3" d="M241.42,29.94h-7.27v-4.47h19.89v4.47h-7.28v19.7h-5.34V29.94Z"/><path class="cls-3" d="M252.25,32.14h4.59v3.25h.07c.88-2.2,3.26-3.72,5.61-3.72,.34,0,.75,.07,1.05,.17v4.47c-.44-.1-1.16-.17-1.73-.17-3.54,0-4.76,2.54-4.76,5.62v7.89h-4.83v-17.5Z"/><path class="cls-3" d="M268.21,42.05c.14,3.05,1.63,4.43,4.32,4.43,1.94,0,3.5-1.18,3.81-2.27h4.25c-1.36,4.13-4.25,5.89-8.23,5.89-5.54,0-8.97-3.79-8.97-9.21s3.64-9.24,8.97-9.24c5.98,0,8.87,5.01,8.53,10.39h-12.68Zm7.85-3.05c-.44-2.44-1.5-3.72-3.84-3.72-3.06,0-3.94,2.37-4.01,3.72h7.85Z"/><path class="cls-3" d="M282.03,37.52c.27-4.5,4.32-5.85,8.26-5.85,3.5,0,7.72,.78,7.72,4.98v9.1c0,1.59,.17,3.18,.61,3.89h-4.9c-.17-.54-.31-1.12-.34-1.69-1.53,1.59-3.77,2.17-5.92,2.17-3.33,0-5.98-1.66-5.98-5.25,0-3.96,2.99-4.91,5.98-5.31,2.96-.44,5.71-.34,5.71-2.3,0-2.06-1.43-2.37-3.13-2.37-1.84,0-3.03,.74-3.2,2.64h-4.83Zm11.15,3.55c-.82,.71-2.52,.74-4.01,1.02-1.5,.3-2.86,.81-2.86,2.57s1.39,2.23,2.96,2.23c3.77,0,3.91-2.98,3.91-4.03v-1.79Z"/><path class="cls-3" d="M304.12,43.95c.03,2.1,1.8,2.94,3.71,2.94,1.39,0,3.16-.54,3.16-2.23,0-1.46-2.01-1.96-5.47-2.71-2.79-.61-5.58-1.59-5.58-4.67,0-4.47,3.88-5.62,7.65-5.62s7.38,1.29,7.75,5.58h-4.59c-.14-1.86-1.56-2.37-3.3-2.37-1.09,0-2.69,.2-2.69,1.62,0,1.73,2.72,1.96,5.47,2.61,2.82,.64,5.58,1.66,5.58,4.91,0,4.6-4.01,6.09-8.02,6.09s-8.06-1.52-8.26-6.16h4.59Z"/><path class="cls-3" d="M333.82,49.63h-4.59v-2.44h-.1c-1.22,1.96-3.33,2.91-5.37,2.91-5.13,0-6.42-2.88-6.42-7.21v-10.76h4.83v9.88c0,2.88,.85,4.3,3.09,4.3,2.62,0,3.74-1.46,3.74-5.01v-9.17h4.83v17.5Z"/><path class="cls-3" d="M335.92,32.14h4.59v3.25h.07c.88-2.2,3.26-3.72,5.61-3.72,.34,0,.75,.07,1.05,.17v4.47c-.44-.1-1.16-.17-1.73-.17-3.54,0-4.76,2.54-4.76,5.62v7.89h-4.83v-17.5Z"/><path class="cls-3" d="M359.32,51.83c-1.05,2.81-2.72,3.96-6.05,3.96-.99,0-1.97-.07-2.96-.17v-3.96c.92,.07,1.87,.2,2.82,.17,1.67-.17,2.21-1.9,1.67-3.28l-6.19-16.41h5.17l3.98,11.98h.07l3.84-11.98h5l-7.34,19.7Z"/><path class="cls-3" d="M393.08,46.89c-1.87,2.4-4.32,3.32-6.66,3.32-7.51,0-11.93-5.58-11.93-12.56s4.42-12.76,11.93-12.76c4.96,0,9.66,3.05,10.23,8.53h-5.1c-.61-2.67-2.62-4.06-5.13-4.06-4.79,0-6.6,4.06-6.6,8.29s1.8,8.09,6.6,8.09c3.47,0,5.47-1.86,5.78-5.21h-5.37v-3.96h10.2v13.06h-3.4l-.54-2.74Z"/><path class="cls-3" d="M399.76,25.47h4.83v24.16h-4.83V25.47Z"/><path class="cls-3" d="M415.46,31.66c5.54,0,9.11,3.66,9.11,9.24s-3.57,9.21-9.11,9.21-9.08-3.65-9.08-9.21,3.57-9.24,9.08-9.24Zm0,14.82c3.3,0,4.28-2.81,4.28-5.58s-.99-5.62-4.28-5.62-4.25,2.81-4.25,5.62,.99,5.58,4.25,5.58Z"/><path class="cls-3" d="M426.31,25.47h4.83v8.8h.07c1.19-1.79,3.37-2.61,5.54-2.61,3.5,0,7.28,2.81,7.28,9.21s-3.77,9.24-7.28,9.24c-2.58,0-4.73-.78-5.78-2.71h-.07v2.23h-4.59V25.47Zm8.77,9.81c-2.86,0-4.11,2.67-4.11,5.62s1.26,5.58,4.11,5.58,4.11-2.67,4.11-5.58-1.26-5.62-4.11-5.62Z"/><path class="cls-3" d="M445.44,37.52c.27-4.5,4.32-5.85,8.26-5.85,3.5,0,7.72,.78,7.72,4.98v9.1c0,1.59,.17,3.18,.61,3.89h-4.9c-.17-.54-.31-1.12-.34-1.69-1.53,1.59-3.77,2.17-5.92,2.17-3.33,0-5.98-1.66-5.98-5.25,0-3.96,2.99-4.91,5.98-5.31,2.96-.44,5.71-.34,5.71-2.3,0-2.06-1.43-2.37-3.13-2.37-1.84,0-3.03,.74-3.2,2.64h-4.83Zm11.15,3.55c-.82,.71-2.52,.74-4.01,1.02-1.5,.3-2.86,.81-2.86,2.57s1.39,2.23,2.96,2.23c3.77,0,3.91-2.98,3.91-4.03v-1.79Z"/><path class="cls-3" d="M463.96,25.47h4.83v24.16h-4.83V25.47Z"/><path class="cls-3" d="M483.47,41.61c0,3.22,2.52,4.47,5.37,4.47,1.87,0,4.73-.54,4.73-3.01,0-2.61-3.64-3.05-7.21-3.99-3.6-.95-7.24-2.34-7.24-6.87,0-4.94,4.69-7.31,9.08-7.31,5.07,0,9.72,2.2,9.72,7.78h-5.17c-.17-2.91-2.24-3.65-4.79-3.65-1.7,0-3.67,.71-3.67,2.74,0,1.86,1.16,2.1,7.24,3.66,1.77,.44,7.21,1.56,7.21,7.04,0,4.43-3.5,7.75-10.1,7.75-5.37,0-10.4-2.64-10.34-8.6h5.17Z"/><path class="cls-3" d="M506.3,32.14h3.54v3.22h-3.54v8.66c0,1.62,.41,2.03,2.04,2.03,.51,0,.99-.03,1.5-.14v3.76c-.82,.14-1.87,.17-2.82,.17-2.96,0-5.54-.68-5.54-4.16v-10.32h-2.92v-3.22h2.92v-5.25h4.83v5.25Z"/><path class="cls-3" d="M527.39,49.63h-4.59v-2.44h-.1c-1.22,1.96-3.33,2.91-5.37,2.91-5.13,0-6.42-2.88-6.42-7.21v-10.76h4.83v9.88c0,2.88,.85,4.3,3.09,4.3,2.62,0,3.74-1.46,3.74-5.01v-9.17h4.83v17.5Z"/><path class="cls-3" d="M542.36,47.4h-.07c-1.12,1.9-3.09,2.71-5.34,2.71-5.3,0-7.89-4.53-7.89-9.37s2.62-9.07,7.79-9.07c2.07,0,4.11,.88,5.2,2.61h.07v-8.8h4.83v24.16h-4.59v-2.23Zm-4.22-12.12c-3.16,0-4.25,2.71-4.25,5.58s1.26,5.62,4.25,5.62c3.2,0,4.15-2.78,4.15-5.65s-1.02-5.55-4.15-5.55Z"/><path class="cls-3" d="M558.19,51.83c-1.05,2.81-2.72,3.96-6.05,3.96-.99,0-1.97-.07-2.96-.17v-3.96c.92,.07,1.87,.2,2.82,.17,1.67-.17,2.21-1.9,1.67-3.28l-6.19-16.41h5.17l3.98,11.98h.07l3.84-11.98h5l-7.34,19.7Z"/><path class="cls-3" d="M573.32,35.05c-.17-5.42,2.92-9.58,8.63-9.58,4.35,0,8.16,2.78,8.16,7.41,0,3.55-1.9,5.52-4.25,7.18-2.35,1.66-5.13,3.01-6.87,5.45h11.25v4.13h-17.47c.03-5.48,3.4-7.82,7.51-10.59,2.11-1.42,4.96-2.88,5-5.79,0-2.23-1.5-3.66-3.57-3.66-2.86,0-3.77,2.94-3.77,5.45h-4.62Z"/><path class="cls-3" d="M599.54,25.47c4.76,0,8.77,2.98,8.77,12.22s-4.01,12.42-8.77,12.42-8.7-2.98-8.7-12.42,4.01-12.22,8.7-12.22Zm0,20.68c3.94,0,3.94-5.79,3.94-8.46,0-2.47,0-8.26-3.94-8.26s-3.88,5.79-3.88,8.26c0,2.67,0,8.46,3.88,8.46Z"/><path class="cls-3" d="M609.06,35.05c-.17-5.42,2.92-9.58,8.63-9.58,4.35,0,8.16,2.78,8.16,7.41,0,3.55-1.9,5.52-4.25,7.18-2.35,1.66-5.13,3.01-6.87,5.45h11.25v4.13h-17.47c.03-5.48,3.4-7.82,7.51-10.59,2.11-1.42,4.96-2.88,5-5.79,0-2.23-1.5-3.66-3.57-3.66-2.86,0-3.77,2.94-3.77,5.45h-4.62Z"/><path class="cls-3" d="M626.02,35.05c-.17-5.42,2.92-9.58,8.63-9.58,4.35,0,8.16,2.78,8.16,7.41,0,3.55-1.9,5.52-4.25,7.18-2.35,1.66-5.13,3.01-6.87,5.45h11.25v4.13h-17.47c.03-5.48,3.4-7.82,7.51-10.59,2.11-1.42,4.96-2.88,5-5.79,0-2.23-1.5-3.66-3.57-3.66-2.86,0-3.77,2.94-3.77,5.45h-4.62Z"/></g></g><g><g id="treasurytoday"><g><path class="cls-3" d="M86.36,10.65h1.2v-2.16h1.59v2.16h1.43v1.18h-1.43v3.84c0,.65,.06,.99,.77,.99,.22,0,.45,0,.67-.06v1.23c-.35,.03-.68,.08-1.03,.08-1.66,0-1.96-.64-1.99-1.84v-4.25h-1.2v-1.18Z"/><path class="cls-3" d="M91.07,10.65h1.49v1.39h.03c.18-.77,1.13-1.59,2.1-1.59,.36,0,.46,.03,.6,.04v1.53c-.22-.03-.46-.07-.68-.07-1.09,0-1.95,.88-1.95,2.46v3.43h-1.59v-7.2Z"/><path class="cls-3" d="M96.92,14.66c0,1.13,.61,2.13,1.94,2.13,.92,0,1.48-.4,1.75-1.2h1.5c-.35,1.57-1.68,2.45-3.26,2.45-2.26,0-3.52-1.57-3.52-3.79,0-2.05,1.34-3.8,3.48-3.8,2.27,0,3.66,2.05,3.4,4.2h-5.29Zm3.7-1.04c-.06-1-.74-1.91-1.81-1.91s-1.85,.84-1.89,1.91h3.7Z"/><path class="cls-3" d="M109.09,16.24c0,.39,.08,.54,.38,.54,.1,0,.22,0,.39-.03v1.1c-.24,.08-.74,.18-1,.18-.64,0-1.1-.22-1.23-.88-.63,.61-1.64,.88-2.49,.88-1.29,0-2.46-.7-2.46-2.1,0-1.8,1.43-2.09,2.77-2.24,1.14-.21,2.16-.08,2.16-1.02,0-.82-.85-.97-1.49-.97-.89,0-1.52,.36-1.59,1.14h-1.59c.11-1.85,1.68-2.39,3.27-2.39,1.41,0,2.88,.57,2.88,2.09v3.7Zm-1.59-2.01c-.49,.32-1.25,.31-1.95,.43-.68,.11-1.29,.36-1.29,1.2,0,.71,.9,.92,1.46,.92,.7,0,1.78-.36,1.78-1.36v-1.18Z"/><path class="cls-3" d="M111.63,15.53c.08,.92,.78,1.25,1.63,1.25,.6,0,1.64-.13,1.6-.95-.04-.84-1.2-.93-2.35-1.2-1.17-.25-2.31-.67-2.31-2.13,0-1.57,1.7-2.06,3.01-2.06,1.48,0,2.81,.61,3.01,2.21h-1.66c-.14-.75-.77-.96-1.46-.96-.46,0-1.31,.11-1.31,.74,0,.78,1.17,.89,2.34,1.16,1.16,.26,2.33,.68,2.33,2.1,0,1.71-1.73,2.34-3.22,2.34-1.81,0-3.16-.81-3.19-2.51h1.59Z"/><path class="cls-3" d="M123.48,17.84h-1.56v-1h-.03c-.39,.72-1.25,1.2-2.05,1.2-1.88,0-2.69-.95-2.69-2.83v-4.57h1.59v4.41c0,1.27,.52,1.73,1.38,1.73,1.32,0,1.77-.85,1.77-1.96v-4.18h1.59v7.2Z"/><path class="cls-3" d="M124.68,10.65h1.49v1.39h.03c.18-.77,1.13-1.59,2.1-1.59,.36,0,.46,.03,.6,.04v1.53c-.22-.03-.46-.07-.68-.07-1.09,0-1.95,.88-1.95,2.46v3.43h-1.59v-7.2Z"/><path class="cls-3" d="M129.41,10.65h1.74l1.88,5.37h.03l1.82-5.37h1.66l-2.8,7.59c-.52,1.29-.89,2.46-2.55,2.46-.38,0-.74-.03-1.1-.08v-1.34c.25,.04,.5,.1,.75,.1,.74,0,.92-.39,1.11-1l.18-.56-2.73-7.17Z"/></g><g><path class="cls-2" d="M136.86,10.65h1.2v-2.16h1.59v2.16h1.43v1.18h-1.43v3.84c0,.65,.06,.99,.77,.99,.22,0,.45,0,.67-.06v1.23c-.35,.03-.68,.08-1.03,.08-1.66,0-1.96-.64-1.99-1.84v-4.25h-1.2v-1.18Z"/><path class="cls-2" d="M141.35,14.24c0-2.2,1.32-3.79,3.63-3.79s3.63,1.59,3.63,3.79-1.32,3.8-3.63,3.8-3.63-1.59-3.63-3.8Zm5.68,0c0-1.24-.63-2.53-2.05-2.53s-2.05,1.29-2.05,2.53,.63,2.55,2.05,2.55,2.05-1.29,2.05-2.55Z"/><path class="cls-2" d="M156.27,17.84h-1.5v-.97h-.03c-.42,.82-1.32,1.17-2.23,1.17-2.27,0-3.37-1.68-3.37-3.84,0-2.6,1.55-3.75,3.12-3.75,.9,0,1.91,.33,2.39,1.13h.03v-3.68h1.59v9.94Zm-3.55-1.06c1.42,0,2.02-1.29,2.02-2.55,0-1.59-.77-2.53-1.99-2.53-1.49,0-2.02,1.32-2.02,2.62s.61,2.46,1.99,2.46Z"/><path class="cls-2" d="M163.45,16.24c0,.39,.08,.54,.38,.54,.1,0,.22,0,.39-.03v1.1c-.24,.08-.74,.18-1,.18-.64,0-1.1-.22-1.23-.88-.63,.61-1.64,.88-2.49,.88-1.3,0-2.46-.7-2.46-2.1,0-1.8,1.43-2.09,2.77-2.24,1.14-.21,2.16-.08,2.16-1.02,0-.82-.85-.97-1.49-.97-.89,0-1.52,.36-1.59,1.14h-1.59c.11-1.85,1.68-2.39,3.27-2.39,1.41,0,2.88,.57,2.88,2.09v3.7Zm-1.59-2.01c-.49,.32-1.25,.31-1.95,.43-.68,.11-1.29,.36-1.29,1.2,0,.71,.91,.92,1.46,.92,.7,0,1.78-.36,1.78-1.36v-1.18Z"/><path class="cls-2" d="M163.51,10.65h1.74l1.88,5.37h.03l1.82-5.37h1.66l-2.8,7.59c-.52,1.29-.89,2.46-2.55,2.46-.38,0-.74-.03-1.1-.08v-1.34c.25,.04,.5,.1,.75,.1,.74,0,.92-.39,1.11-1l.18-.56-2.73-7.17Z"/></g></g><g><path class="cls-1" d="M175.36,17.68c0,1.48-.87,2.21-2.42,2.21-.99,0-2.11-.38-2.2-1.53h1.09c.13,.62,.63,.72,1.18,.72,.88,0,1.27-.45,1.27-1.26v-.75h-.02c-.3,.54-.87,.87-1.48,.87-1.56,0-2.21-1.18-2.21-2.59,0-1.32,.83-2.47,2.23-2.47,.62,0,1.18,.26,1.46,.81h.02v-.68h1.09v4.67Zm-1.09-2.32c0-.85-.38-1.63-1.32-1.63s-1.3,.9-1.3,1.72,.39,1.63,1.3,1.63c.96,0,1.32-.88,1.32-1.72Z"/><path class="cls-1" d="M176.11,13.01h1.02v.95h.02c.12-.52,.77-1.09,1.44-1.09,.25,0,.31,.02,.41,.03v1.05c-.15-.02-.31-.05-.47-.05-.74,0-1.33,.6-1.33,1.69v2.34h-1.09v-4.93Z"/><path class="cls-1" d="M178.93,15.47c0-1.51,.91-2.59,2.49-2.59s2.49,1.09,2.49,2.59-.91,2.6-2.49,2.6-2.49-1.09-2.49-2.6Zm3.89,0c0-.85-.43-1.73-1.4-1.73s-1.4,.89-1.4,1.73,.43,1.74,1.4,1.74,1.4-.89,1.4-1.74Z"/><path class="cls-1" d="M188.75,17.94h-1.07v-.69h-.02c-.27,.5-.86,.82-1.4,.82-1.29,0-1.84-.65-1.84-1.93v-3.13h1.09v3.02c0,.87,.35,1.18,.94,1.18,.91,0,1.21-.58,1.21-1.34v-2.86h1.09v4.93Z"/><path class="cls-1" d="M189.54,13.01h1.03v.67h.02c.31-.56,.9-.8,1.53-.8,1.55,0,2.31,1.18,2.31,2.62,0,1.32-.67,2.57-2.13,2.57-.63,0-1.31-.23-1.65-.77h-.02v2.46h-1.09v-6.75Zm2.43,.72c-.92,0-1.38,.7-1.38,1.74,0,.99,.51,1.73,1.38,1.73,.99,0,1.36-.88,1.36-1.73s-.47-1.74-1.36-1.74Z"/></g></g><g><path class="cls-8" d="M72.07,5.29H0V0H99.91V5.28h-19.09l-29.62,49.2c-1.54,2.76-3.91,4.14-7.08,4.14h-4.08V29.61l-16.06,25c-1.72,2.68-4.25,4.01-7.6,4.01h-4.63l3.43-37.69L0,20.91V12.63l19.45,.07c1.76,0,3.27,.4,4.54,1.21,1.7,1.11,2.55,2.84,2.55,5.19,0,.35-.02,.71-.07,1.08l-2.35,22.13,15.57-24.7c1.11-1.76,2.1-2.96,2.97-3.59,1.22-.87,2.88-1.31,4.99-1.31h4.43v6.17h-3.22v23.52L72.07,5.29Z"/><path class="cls-7" d="M61.95,15.72c0,2.18-1.77,3.94-3.94,3.94s-3.94-1.77-3.94-3.94,1.77-3.94,3.94-3.94,3.94,1.76,3.94,3.94Z"/></g><g><path class="cls-3" d="M82.7,64.8h11.84v2.21h-4.65v12.42h-2.56v-12.42h-4.63v-2.21Z"/><path class="cls-3" d="M95.92,64.8h2.34v5.43h.04c.57-.96,1.78-1.68,3.18-1.68,2.29,0,3.75,1.23,3.75,3.61v7.27h-2.34v-6.66c-.04-1.66-.7-2.38-2.07-2.38-1.56,0-2.56,1.23-2.56,2.79v6.25h-2.34v-14.63Z"/><path class="cls-3" d="M109.51,74.74c0,1.66,.9,3.13,2.85,3.13,1.35,0,2.17-.59,2.58-1.76h2.21c-.51,2.32-2.48,3.61-4.8,3.61-3.32,0-5.18-2.32-5.18-5.57,0-3.01,1.97-5.59,5.12-5.59,3.34,0,5.39,3.01,5,6.19h-7.79Zm5.45-1.54c-.08-1.48-1.09-2.81-2.66-2.81s-2.73,1.23-2.79,2.81h5.45Z"/><path class="cls-3" d="M126.61,74.74c0,1.66,.9,3.13,2.85,3.13,1.35,0,2.17-.59,2.58-1.76h2.21c-.51,2.32-2.48,3.61-4.8,3.61-3.32,0-5.18-2.32-5.18-5.57,0-3.01,1.97-5.59,5.12-5.59,3.34,0,5.39,3.01,5,6.19h-7.79Zm5.45-1.54c-.08-1.48-1.09-2.81-2.66-2.81s-2.73,1.23-2.79,2.81h5.45Z"/><path class="cls-3" d="M137.94,76.03c.12,1.35,1.15,1.84,2.4,1.84,.88,0,2.42-.18,2.36-1.39-.06-1.23-1.76-1.37-3.46-1.76-1.72-.37-3.4-.98-3.4-3.14,0-2.32,2.5-3.03,4.43-3.03,2.17,0,4.14,.9,4.43,3.26h-2.44c-.21-1.11-1.13-1.41-2.15-1.41-.68,0-1.93,.16-1.93,1.09,0,1.15,1.72,1.31,3.44,1.7,1.7,.39,3.42,1,3.42,3.09,0,2.52-2.54,3.44-4.73,3.44-2.66,0-4.65-1.19-4.69-3.69h2.34Z"/><path class="cls-3" d="M148.58,76.03c.12,1.35,1.15,1.84,2.4,1.84,.88,0,2.42-.18,2.36-1.39-.06-1.23-1.76-1.37-3.46-1.76-1.72-.37-3.4-.98-3.4-3.14,0-2.32,2.5-3.03,4.43-3.03,2.17,0,4.14,.9,4.43,3.26h-2.44c-.21-1.11-1.13-1.41-2.15-1.41-.68,0-1.93,.16-1.93,1.09,0,1.15,1.72,1.31,3.44,1.7,1.7,.39,3.42,1,3.42,3.09,0,2.52-2.54,3.44-4.73,3.44-2.66,0-4.65-1.19-4.69-3.69h2.34Z"/><path class="cls-3" d="M159.28,74.74c0,1.66,.9,3.13,2.85,3.13,1.35,0,2.17-.59,2.58-1.76h2.21c-.51,2.32-2.48,3.61-4.8,3.61-3.32,0-5.18-2.32-5.18-5.57,0-3.01,1.97-5.59,5.12-5.59,3.34,0,5.39,3.01,5,6.19h-7.79Zm5.45-1.54c-.08-1.48-1.09-2.81-2.66-2.81s-2.73,1.23-2.79,2.81h5.45Z"/><path class="cls-3" d="M168.86,68.84h2.21v1.56l.04,.04c.7-1.17,1.91-1.88,3.3-1.88,2.29,0,3.75,1.23,3.75,3.61v7.27h-2.34v-6.66c-.04-1.66-.7-2.38-2.07-2.38-1.56,0-2.56,1.23-2.56,2.79v6.25h-2.34v-10.59Z"/><path class="cls-3" d="M179.56,68.84h1.76v-3.18h2.34v3.18h2.11v1.74h-2.11v5.66c0,.96,.08,1.46,1.13,1.46,.33,0,.66,0,.98-.08v1.8c-.51,.04-1,.12-1.52,.12-2.44,0-2.89-.94-2.93-2.71v-6.25h-1.76v-1.74Z"/><path class="cls-3" d="M187.51,64.8h2.34v2.21h-2.34v-2.21Zm0,4.04h2.34v10.59h-2.34v-10.59Z"/><path class="cls-3" d="M201.26,77.07c0,.57,.12,.8,.55,.8,.14,0,.33,0,.57-.04v1.62c-.35,.12-1.09,.27-1.48,.27-.94,0-1.62-.33-1.8-1.29-.92,.9-2.42,1.29-3.67,1.29-1.91,0-3.63-1.02-3.63-3.09,0-2.64,2.11-3.07,4.08-3.3,1.68-.31,3.18-.12,3.18-1.5,0-1.21-1.25-1.43-2.19-1.43-1.31,0-2.23,.53-2.34,1.68h-2.34c.16-2.73,2.48-3.52,4.82-3.52,2.07,0,4.24,.84,4.24,3.07v5.45Zm-2.34-2.95c-.72,.47-1.84,.45-2.87,.64-1,.16-1.91,.53-1.91,1.76,0,1.04,1.33,1.35,2.15,1.35,1.02,0,2.62-.53,2.62-2.01v-1.74Z"/><path class="cls-3" d="M203.85,64.8h2.34v14.63h-2.34v-14.63Z"/><path class="cls-3" d="M216.19,76.03c.12,1.35,1.15,1.84,2.4,1.84,.88,0,2.42-.18,2.36-1.39-.06-1.23-1.76-1.37-3.46-1.76-1.72-.37-3.4-.98-3.4-3.14,0-2.32,2.5-3.03,4.43-3.03,2.17,0,4.14,.9,4.43,3.26h-2.44c-.2-1.11-1.13-1.41-2.15-1.41-.68,0-1.93,.16-1.93,1.09,0,1.15,1.72,1.31,3.44,1.7,1.7,.39,3.42,1,3.42,3.09,0,2.52-2.54,3.44-4.73,3.44-2.66,0-4.65-1.19-4.69-3.69h2.34Z"/><path class="cls-3" d="M224,68.84h1.76v-3.18h2.34v3.18h2.11v1.74h-2.11v5.66c0,.96,.08,1.46,1.13,1.46,.33,0,.66,0,.98-.08v1.8c-.51,.04-1,.12-1.52,.12-2.44,0-2.89-.94-2.93-2.71v-6.25h-1.76v-1.74Z"/><path class="cls-3" d="M241.2,79.43h-2.29v-1.48h-.04c-.57,1.07-1.84,1.76-3.01,1.76-2.77,0-3.96-1.39-3.96-4.16v-6.72h2.34v6.5c0,1.87,.76,2.54,2.03,2.54,1.95,0,2.6-1.25,2.6-2.89v-6.15h2.34v10.59Z"/><path class="cls-3" d="M253.64,79.43h-2.21v-1.43h-.04c-.61,1.21-1.95,1.72-3.28,1.72-3.34,0-4.96-2.48-4.96-5.66,0-3.83,2.28-5.51,4.59-5.51,1.33,0,2.81,.49,3.52,1.66h.04v-5.41h2.34v14.63Zm-5.23-1.56c2.09,0,2.97-1.91,2.97-3.75,0-2.34-1.13-3.73-2.93-3.73-2.19,0-2.97,1.95-2.97,3.85s.9,3.63,2.93,3.63Z"/><path class="cls-3" d="M255.02,68.84h2.56l2.77,7.91h.04l2.68-7.91h2.44l-4.12,11.17c-.76,1.91-1.31,3.63-3.75,3.63-.55,0-1.09-.04-1.62-.12v-1.97c.37,.06,.74,.14,1.11,.14,1.09,0,1.35-.57,1.64-1.48l.27-.82-4.02-10.55Z"/><path class="cls-3" d="M272.03,74.12c0-3.24,1.95-5.57,5.35-5.57s5.35,2.34,5.35,5.57-1.95,5.59-5.35,5.59-5.35-2.34-5.35-5.59Zm8.36,0c0-1.82-.92-3.73-3.01-3.73s-3.01,1.91-3.01,3.73,.92,3.75,3.01,3.75,3.01-1.91,3.01-3.75Z"/><path class="cls-3" d="M284.68,68.84h2.21v1.56l.04,.04c.7-1.17,1.91-1.88,3.3-1.88,2.29,0,3.75,1.23,3.75,3.61v7.27h-2.34v-6.66c-.04-1.66-.7-2.38-2.07-2.38-1.56,0-2.56,1.23-2.56,2.79v6.25h-2.34v-10.59Z"/><path class="cls-3" d="M311.94,78.88c0,3.18-1.87,4.75-5.21,4.75-2.13,0-4.53-.82-4.73-3.3h2.34c.29,1.33,1.35,1.56,2.54,1.56,1.89,0,2.73-.96,2.73-2.71v-1.62h-.04c-.66,1.17-1.86,1.87-3.18,1.87-3.36,0-4.75-2.54-4.75-5.57,0-2.85,1.78-5.31,4.8-5.31,1.33,0,2.54,.55,3.13,1.74h.04v-1.46h2.34v10.04Zm-2.34-4.98c0-1.82-.82-3.5-2.85-3.5s-2.79,1.93-2.79,3.69,.84,3.5,2.79,3.5c2.07,0,2.85-1.88,2.85-3.69Z"/><path class="cls-3" d="M316.13,74.74c0,1.66,.9,3.13,2.85,3.13,1.35,0,2.17-.59,2.58-1.76h2.21c-.51,2.32-2.48,3.61-4.8,3.61-3.32,0-5.18-2.32-5.18-5.57,0-3.01,1.97-5.59,5.12-5.59,3.34,0,5.39,3.01,5,6.19h-7.79Zm5.45-1.54c-.08-1.48-1.09-2.81-2.66-2.81s-2.73,1.23-2.79,2.81h5.45Z"/><path class="cls-3" d="M325.7,68.84h2.21v1.56l.04,.04c.7-1.17,1.91-1.88,3.3-1.88,2.29,0,3.75,1.23,3.75,3.61v7.27h-2.34v-6.66c-.04-1.66-.7-2.38-2.07-2.38-1.56,0-2.56,1.23-2.56,2.79v6.25h-2.34v-10.59Z"/><path class="cls-3" d="M347.45,79.43h-2.21v-1.43h-.04c-.61,1.21-1.95,1.72-3.28,1.72-3.34,0-4.96-2.48-4.96-5.66,0-3.83,2.28-5.51,4.59-5.51,1.33,0,2.81,.49,3.52,1.66h.04v-5.41h2.34v14.63Zm-5.23-1.56c2.09,0,2.97-1.91,2.97-3.75,0-2.34-1.13-3.73-2.93-3.73-2.19,0-2.97,1.95-2.97,3.85s.9,3.63,2.93,3.63Z"/><path class="cls-3" d="M351.82,74.74c0,1.66,.9,3.13,2.85,3.13,1.35,0,2.17-.59,2.58-1.76h2.21c-.51,2.32-2.48,3.61-4.79,3.61-3.32,0-5.19-2.32-5.19-5.57,0-3.01,1.97-5.59,5.12-5.59,3.34,0,5.39,3.01,5,6.19h-7.79Zm5.45-1.54c-.08-1.48-1.09-2.81-2.66-2.81s-2.73,1.23-2.79,2.81h5.45Z"/><path class="cls-3" d="M361.39,68.84h2.19v2.05h.04c.27-1.13,1.66-2.34,3.09-2.34,.53,0,.68,.04,.88,.06v2.25c-.33-.04-.68-.1-1-.1-1.6,0-2.87,1.29-2.87,3.63v5.04h-2.34v-10.59Z"/><path class="cls-3" d="M376.13,74.74c0,1.66,.9,3.13,2.85,3.13,1.35,0,2.17-.59,2.58-1.76h2.21c-.51,2.32-2.48,3.61-4.8,3.61-3.32,0-5.18-2.32-5.18-5.57,0-3.01,1.97-5.59,5.12-5.59,3.34,0,5.39,3.01,5,6.19h-7.79Zm5.45-1.54c-.08-1.48-1.09-2.81-2.66-2.81s-2.73,1.23-2.79,2.81h5.45Z"/><path class="cls-3" d="M395.69,83.34h-2.34v-5.29h-.04c-.74,1.17-2.19,1.66-3.54,1.66-3.14,0-4.57-2.68-4.57-5.53,0-3.09,1.62-5.63,4.96-5.63,1.35,0,2.62,.51,3.28,1.72h.04v-1.43h2.21v14.51Zm-5.23-5.47c2.03,0,2.97-1.52,2.97-3.73s-1.02-3.75-2.97-3.75-2.93,1.82-2.93,3.75,.8,3.73,2.93,3.73Z"/><path class="cls-3" d="M407.53,79.43h-2.29v-1.48h-.04c-.57,1.07-1.84,1.76-3.01,1.76-2.77,0-3.96-1.39-3.96-4.16v-6.72h2.34v6.5c0,1.87,.76,2.54,2.03,2.54,1.95,0,2.6-1.25,2.6-2.89v-6.15h2.34v10.59Z"/><path class="cls-3" d="M418.87,77.07c0,.57,.12,.8,.55,.8,.14,0,.33,0,.57-.04v1.62c-.35,.12-1.09,.27-1.47,.27-.94,0-1.62-.33-1.8-1.29-.92,.9-2.42,1.29-3.67,1.29-1.91,0-3.63-1.02-3.63-3.09,0-2.64,2.11-3.07,4.08-3.3,1.68-.31,3.18-.12,3.18-1.5,0-1.21-1.25-1.43-2.19-1.43-1.31,0-2.23,.53-2.34,1.68h-2.34c.16-2.73,2.48-3.52,4.82-3.52,2.07,0,4.24,.84,4.24,3.07v5.45Zm-2.34-2.95c-.72,.47-1.84,.45-2.87,.64-1,.16-1.91,.53-1.91,1.76,0,1.04,1.33,1.35,2.15,1.35,1.02,0,2.62-.53,2.62-2.01v-1.74Z"/><path class="cls-3" d="M421.46,64.8h2.34v14.63h-2.34v-14.63Z"/><path class="cls-3" d="M426.4,64.8h2.34v2.21h-2.34v-2.21Zm0,4.04h2.34v10.59h-2.34v-10.59Z"/><path class="cls-3" d="M430.21,68.84h1.76v-3.18h2.34v3.18h2.11v1.74h-2.11v5.66c0,.96,.08,1.46,1.13,1.46,.33,0,.66,0,.98-.08v1.8c-.51,.04-1,.12-1.52,.12-2.44,0-2.89-.94-2.93-2.71v-6.25h-1.76v-1.74Z"/><path class="cls-3" d="M436.94,68.84h2.56l2.77,7.91h.04l2.68-7.91h2.44l-4.12,11.17c-.76,1.91-1.31,3.63-3.75,3.63-.55,0-1.09-.04-1.62-.12v-1.97c.37,.06,.74,.14,1.11,.14,1.09,0,1.35-.57,1.64-1.48l.27-.82-4.02-10.55Z"/><path class="cls-3" d="M454.5,64.8h2.34v2.21h-2.34v-2.21Zm0,4.04h2.34v10.59h-2.34v-10.59Z"/><path class="cls-3" d="M459.38,68.84h2.21v1.56l.04,.04c.7-1.17,1.91-1.88,3.3-1.88,2.29,0,3.75,1.23,3.75,3.61v7.27h-2.34v-6.66c-.04-1.66-.7-2.38-2.07-2.38-1.56,0-2.56,1.23-2.56,2.79v6.25h-2.34v-10.59Z"/><path class="cls-3" d="M484,72.38c-.18-1.29-1.13-1.99-2.42-1.99-1.21,0-2.91,.63-2.91,3.85,0,1.76,.78,3.63,2.81,3.63,1.35,0,2.29-.9,2.52-2.42h2.34c-.43,2.75-2.13,4.26-4.86,4.26-3.32,0-5.14-2.36-5.14-5.47s1.74-5.7,5.23-5.7c2.46,0,4.55,1.23,4.78,3.83h-2.34Z"/><path class="cls-3" d="M487.75,74.12c0-3.24,1.95-5.57,5.35-5.57s5.35,2.34,5.35,5.57-1.95,5.59-5.35,5.59-5.35-2.34-5.35-5.59Zm8.36,0c0-1.82-.92-3.73-3.01-3.73s-3.01,1.91-3.01,3.73,.92,3.75,3.01,3.75,3.01-1.91,3.01-3.75Z"/><path class="cls-3" d="M500.4,68.84h2.19v2.05h.04c.27-1.13,1.66-2.34,3.09-2.34,.53,0,.68,.04,.88,.06v2.25c-.33-.04-.68-.1-1-.1-1.6,0-2.87,1.29-2.87,3.63v5.04h-2.34v-10.59Z"/><path class="cls-3" d="M507.68,68.84h2.21v1.43h.04c.66-1.21,1.93-1.72,3.28-1.72,3.34,0,4.96,2.54,4.96,5.63,0,2.85-1.43,5.53-4.57,5.53-1.35,0-2.81-.49-3.54-1.66h-.04v5.29h-2.34v-14.51Zm5.23,1.56c-1.97,0-2.97,1.5-2.97,3.75,0,2.13,1.09,3.73,2.97,3.73,2.13,0,2.93-1.88,2.93-3.73s-1-3.75-2.93-3.75Z"/><path class="cls-3" d="M519.65,74.12c0-3.24,1.95-5.57,5.35-5.57s5.35,2.34,5.35,5.57-1.95,5.59-5.35,5.59-5.35-2.34-5.35-5.59Zm8.36,0c0-1.82-.92-3.73-3.01-3.73s-3.01,1.91-3.01,3.73,.92,3.75,3.01,3.75,3.01-1.91,3.01-3.75Z"/><path class="cls-3" d="M532.3,68.84h2.19v2.05h.04c.27-1.13,1.66-2.34,3.09-2.34,.53,0,.68,.04,.88,.06v2.25c-.33-.04-.68-.1-1-.1-1.6,0-2.87,1.29-2.87,3.63v5.04h-2.34v-10.59Z"/><path class="cls-3" d="M548.39,77.07c0,.57,.12,.8,.55,.8,.14,0,.33,0,.57-.04v1.62c-.35,.12-1.09,.27-1.47,.27-.94,0-1.62-.33-1.8-1.29-.92,.9-2.42,1.29-3.67,1.29-1.91,0-3.63-1.02-3.63-3.09,0-2.64,2.11-3.07,4.08-3.3,1.68-.31,3.18-.12,3.18-1.5,0-1.21-1.25-1.43-2.19-1.43-1.31,0-2.23,.53-2.34,1.68h-2.34c.16-2.73,2.48-3.52,4.82-3.52,2.07,0,4.24,.84,4.24,3.07v5.45Zm-2.34-2.95c-.72,.47-1.84,.45-2.87,.64-1,.16-1.91,.53-1.91,1.76,0,1.04,1.33,1.35,2.15,1.35,1.02,0,2.62-.53,2.62-2.01v-1.74Z"/><path class="cls-3" d="M549.85,68.84h1.76v-3.18h2.34v3.18h2.11v1.74h-2.11v5.66c0,.96,.08,1.46,1.13,1.46,.33,0,.66,0,.98-.08v1.8c-.51,.04-1,.12-1.52,.12-2.44,0-2.89-.94-2.93-2.71v-6.25h-1.76v-1.74Z"/><path class="cls-3" d="M559.56,74.74c0,1.66,.9,3.13,2.85,3.13,1.35,0,2.17-.59,2.58-1.76h2.21c-.51,2.32-2.48,3.61-4.8,3.61-3.32,0-5.18-2.32-5.18-5.57,0-3.01,1.97-5.59,5.12-5.59,3.34,0,5.39,3.01,5,6.19h-7.79Zm5.45-1.54c-.08-1.48-1.09-2.81-2.66-2.81s-2.73,1.23-2.79,2.81h5.45Z"/><path class="cls-3" d="M573.79,68.84h1.74v-.88c0-2.71,1.41-3.16,2.93-3.16,.74,0,1.27,.04,1.64,.14v1.82c-.31-.08-.61-.12-1.09-.12-.64,0-1.15,.23-1.15,1.11v1.09h1.99v1.74h-1.99v8.85h-2.34v-8.85h-1.74v-1.74Zm7.56-4.04h2.34v2.21h-2.34v-2.21Zm0,4.04h2.34v10.59h-2.34v-10.59Z"/><path class="cls-3" d="M586.24,68.84h2.21v1.56l.04,.04c.7-1.17,1.91-1.88,3.3-1.88,2.29,0,3.75,1.23,3.75,3.61v7.27h-2.34v-6.66c-.04-1.66-.7-2.38-2.07-2.38-1.56,0-2.56,1.23-2.56,2.79v6.25h-2.34v-10.59Z"/><path class="cls-3" d="M606.88,77.07c0,.57,.12,.8,.55,.8,.14,0,.33,0,.57-.04v1.62c-.35,.12-1.09,.27-1.47,.27-.94,0-1.62-.33-1.8-1.29-.92,.9-2.42,1.29-3.67,1.29-1.91,0-3.63-1.02-3.63-3.09,0-2.64,2.11-3.07,4.08-3.3,1.68-.31,3.18-.12,3.18-1.5,0-1.21-1.25-1.43-2.19-1.43-1.31,0-2.23,.53-2.34,1.68h-2.34c.16-2.73,2.48-3.52,4.82-3.52,2.07,0,4.24,.84,4.24,3.07v5.45Zm-2.34-2.95c-.72,.47-1.84,.45-2.87,.64-1,.16-1.91,.53-1.91,1.76,0,1.04,1.33,1.35,2.15,1.35,1.02,0,2.62-.53,2.62-2.01v-1.74Z"/><path class="cls-3" d="M609.4,68.84h2.21v1.56l.04,.04c.7-1.17,1.91-1.88,3.3-1.88,2.29,0,3.75,1.23,3.75,3.61v7.27h-2.34v-6.66c-.04-1.66-.7-2.38-2.07-2.38-1.56,0-2.56,1.23-2.56,2.79v6.25h-2.34v-10.59Z"/><path class="cls-3" d="M628.32,72.38c-.18-1.29-1.13-1.99-2.42-1.99-1.21,0-2.91,.63-2.91,3.85,0,1.76,.78,3.63,2.81,3.63,1.35,0,2.29-.9,2.52-2.42h2.34c-.43,2.75-2.13,4.26-4.86,4.26-3.32,0-5.14-2.36-5.14-5.47s1.74-5.7,5.23-5.7c2.46,0,4.55,1.23,4.78,3.83h-2.34Z"/><path class="cls-3" d="M634.39,74.74c0,1.66,.9,3.13,2.85,3.13,1.35,0,2.17-.59,2.58-1.76h2.21c-.51,2.32-2.48,3.61-4.8,3.61-3.32,0-5.18-2.32-5.18-5.57,0-3.01,1.97-5.59,5.12-5.59,3.34,0,5.39,3.01,5,6.19h-7.79Zm5.45-1.54c-.08-1.48-1.09-2.81-2.66-2.81s-2.73,1.23-2.79,2.81h5.45Z"/></g><g><path class="cls-9" d="M403.43,108.68h.64v1.08h.02c.32-.77,1.11-1.24,2.02-1.24,1.73,0,2.55,1.4,2.55,3s-.83,3-2.55,3c-.85,0-1.67-.43-1.97-1.24h-.02v3.18h-.69v-7.78Zm2.68,.42c-1.53,0-1.99,1.13-1.99,2.42,0,1.18,.52,2.42,1.99,2.42,1.32,0,1.86-1.24,1.86-2.42s-.54-2.42-1.86-2.42Z"/><path class="cls-9" d="M409.76,108.68h.64v1.33h.02c.35-.91,1.12-1.45,2.15-1.41v.69c-1.25-.07-2.11,.86-2.11,2.04v3.03h-.69v-5.68Z"/><path class="cls-9" d="M418.21,111.52c0,1.63-.95,3-2.68,3s-2.68-1.38-2.68-3,.95-3,2.68-3,2.68,1.38,2.68,3Zm-4.68,0c0,1.21,.66,2.42,1.99,2.42s1.99-1.21,1.99-2.42-.66-2.42-1.99-2.42-1.99,1.21-1.99,2.42Z"/><path class="cls-9" d="M423.85,114.36h-.64v-1.02h-.02c-.36,.76-1.11,1.19-1.96,1.19-1.43,0-1.99-.84-1.99-2.16v-3.69h.69v3.7c.03,1.02,.42,1.56,1.52,1.56,1.19,0,1.71-1.12,1.71-2.28v-2.98h.69v5.68Z"/><path class="cls-9" d="M430.18,114.36h-.64v-1.08h-.02c-.3,.74-1.2,1.24-2.02,1.24-1.73,0-2.55-1.4-2.55-3s.83-3,2.55-3c.85,0,1.67,.43,1.97,1.24h.02v-3.26h.69v7.86Zm-2.68-.42c1.47,0,1.99-1.24,1.99-2.42s-.52-2.42-1.99-2.42c-1.32,0-1.86,1.24-1.86,2.42s.54,2.42,1.86,2.42Z"/><path class="cls-9" d="M431.52,106.5h.69v7.86h-.69v-7.86Z"/><path class="cls-9" d="M432.96,108.68h.74l1.87,4.84,1.75-4.84h.69l-2.46,6.55c-.4,.96-.63,1.23-1.5,1.23-.28-.01-.42-.01-.53-.06v-.58c.17,.03,.32,.06,.47,.06,.62,0,.76-.36,.99-.89l.24-.65-2.27-5.65Z"/><path class="cls-9" d="M445.15,110.34c-.03-.86-.69-1.24-1.49-1.24-.62,0-1.34,.24-1.34,.98,0,.62,.7,.84,1.18,.96l.92,.21c.79,.12,1.62,.58,1.62,1.57,0,1.23-1.22,1.71-2.28,1.71-1.32,0-2.22-.62-2.33-2h.69c.05,.93,.75,1.42,1.67,1.42,.65,0,1.55-.29,1.55-1.08,0-.66-.62-.88-1.24-1.03l-.89-.2c-.9-.24-1.58-.55-1.58-1.52,0-1.15,1.13-1.59,2.13-1.59,1.13,0,2.04,.59,2.08,1.83h-.69Z"/><path class="cls-9" d="M451.65,114.36h-.64v-1.02h-.02c-.36,.76-1.11,1.19-1.96,1.19-1.43,0-1.99-.84-1.99-2.16v-3.69h.69v3.7c.03,1.02,.42,1.56,1.52,1.56,1.19,0,1.71-1.12,1.71-2.28v-2.98h.69v5.68Z"/><path class="cls-9" d="M452.99,108.68h.64v1.08h.02c.32-.77,1.11-1.24,2.02-1.24,1.73,0,2.55,1.4,2.55,3s-.83,3-2.55,3c-.85,0-1.67-.43-1.97-1.24h-.02v3.18h-.69v-7.78Zm2.68,.42c-1.53,0-1.99,1.13-1.99,2.42,0,1.18,.52,2.42,1.99,2.42,1.32,0,1.86-1.24,1.86-2.42s-.54-2.42-1.86-2.42Z"/><path class="cls-9" d="M459.32,108.68h.64v1.08h.02c.32-.77,1.11-1.24,2.02-1.24,1.73,0,2.55,1.4,2.55,3s-.83,3-2.55,3c-.85,0-1.67-.43-1.97-1.24h-.02v3.18h-.69v-7.78Zm2.68,.42c-1.53,0-1.99,1.13-1.99,2.42,0,1.18,.52,2.42,1.99,2.42,1.32,0,1.86-1.24,1.86-2.42s-.54-2.42-1.86-2.42Z"/><path class="cls-9" d="M470.74,111.52c0,1.63-.95,3-2.68,3s-2.68-1.38-2.68-3,.95-3,2.68-3,2.68,1.38,2.68,3Zm-4.68,0c0,1.21,.66,2.42,1.99,2.42s1.99-1.21,1.99-2.42-.66-2.42-1.99-2.42-1.99,1.21-1.99,2.42Z"/><path class="cls-9" d="M471.8,108.68h.64v1.33h.02c.35-.91,1.12-1.45,2.15-1.41v.69c-1.25-.07-2.11,.86-2.11,2.04v3.03h-.69v-5.68Z"/><path class="cls-9" d="M476.73,108.68h1.16v.58h-1.16v3.83c0,.45,.07,.72,.56,.75,.2,0,.4-.01,.59-.03v.59c-.21,0-.41,.02-.62,.02-.92,0-1.24-.31-1.23-1.28v-3.88h-.99v-.58h.99v-1.71h.69v1.71Z"/><path class="cls-9" d="M479.05,111.7c.01,1.01,.54,2.23,1.87,2.23,1.01,0,1.56-.59,1.78-1.45h.69c-.3,1.29-1.05,2.04-2.48,2.04-1.8,0-2.56-1.39-2.56-3,0-1.5,.76-3,2.56-3s2.55,1.59,2.5,3.19h-4.37Zm3.67-.58c-.03-1.04-.68-2.02-1.8-2.02s-1.76,.99-1.87,2.02h3.67Z"/><path class="cls-9" d="M489.42,114.36h-.64v-1.08h-.02c-.3,.74-1.2,1.24-2.02,1.24-1.73,0-2.55-1.4-2.55-3s.83-3,2.55-3c.85,0,1.67,.43,1.97,1.24h.02v-3.26h.69v7.86Zm-2.68-.42c1.47,0,1.99-1.24,1.99-2.42s-.52-2.42-1.99-2.42c-1.32,0-1.86,1.24-1.86,2.42s.54,2.42,1.86,2.42Z"/><path class="cls-9" d="M493.8,106.5h.69v3.26h.02c.3-.81,1.12-1.24,1.97-1.24,1.73,0,2.55,1.4,2.55,3s-.83,3-2.55,3c-.91,0-1.71-.47-2.02-1.24h-.02v1.08h-.64v-7.86Zm2.68,2.6c-1.47,0-1.99,1.24-1.99,2.42s.52,2.42,1.99,2.42c1.32,0,1.86-1.24,1.86-2.42s-.54-2.42-1.86-2.42Z"/><path class="cls-9" d="M499.31,108.68h.74l1.87,4.84,1.75-4.84h.69l-2.46,6.55c-.4,.96-.63,1.23-1.5,1.23-.28-.01-.42-.01-.53-.06v-.58c.17,.03,.32,.06,.47,.06,.62,0,.76-.36,.99-.89l.24-.65-2.27-5.65Z"/></g><g><path class="cls-6" d="M640.25,109.09c0-.35,.21-.49,.43-.49,.36,0,.5,.32,.51,.73v.33l1.21-.06-.02-.38c-.06-1.38-.78-1.79-1.72-1.79-1.22,0-1.8,.79-1.8,1.79s.43,1.53,1.16,2.18c.5,.44,1.02,.85,1.02,1.32,0,.34-.14,.51-.43,.51-.34,0-.57-.21-.61-.86l-.02-.34-1.23,.06,.03,.53c.07,1.43,.94,1.81,1.85,1.81,1.27,0,1.83-.77,1.83-1.88,0-1.02-.58-1.53-1.2-2.1-.74-.69-1.03-.87-1.03-1.34m-4.04-.44h.19c.24,0,.49,.15,.49,1.02s-.28,1-.54,1h-.14v-2.02h0Zm2.27,5.68l-.78-3.11c.47-.34,.74-.98,.74-1.74,0-1.28-.7-1.96-1.78-1.96h-1.99v6.81h1.54v-2.75h.13l.61,2.75h1.53Zm-6.53-1.09c-.34,0-.52-.37-.52-2.33s.18-2.31,.52-2.31,.53,.36,.53,2.31-.19,2.33-.53,2.33m0,1.18c1.39,0,2.1-.95,2.1-3.51s-.71-3.49-2.1-3.49-2.09,.95-2.09,3.49,.71,3.51,2.09,3.51m-4.73-5.32c0-.35,.21-.49,.43-.49,.36,0,.5,.32,.51,.73v.33l1.21-.06-.02-.38c-.06-1.38-.78-1.79-1.72-1.79-1.22,0-1.8,.79-1.8,1.79s.43,1.53,1.16,2.18c.5,.44,1.02,.85,1.02,1.32,0,.34-.14,.51-.43,.51-.33,0-.57-.21-.61-.86l-.02-.34-1.23,.06,.03,.53c.07,1.43,.94,1.81,1.85,1.81,1.27,0,1.84-.77,1.84-1.88,0-1.02-.58-1.53-1.2-2.1-.73-.69-1.03-.87-1.03-1.34m-3.56,5.23h1.54v-6.81h-1.54v6.81h0Zm-3.21-6.81h-1.55l1.04,6.81h2.09l1.14-6.81h-1.47l-.65,5.65-.58-5.65h0Zm-3.34,3.4c0,1.84-.24,2.23-.66,2.23h-.23v-4.45h.23c.42,0,.66,.38,.66,2.22m-2.43,3.41h1.95c1.37,0,2.07-1.09,2.07-3.41s-.7-3.4-2.07-3.4h-1.95v6.81h0Zm-2.96-2.41l.37-3.23,.34,3.23h-.71Zm.95,2.41h1.55l-1.01-6.81h-2.14l-1.11,6.81h1.47l.17-1.51h.91l.15,1.51h0Z"/><g class="cls-4"><path class="cls-6" d="M633.6,105.83v-1.18h-1.04v-5.63h-1.54v6.81h2.59Zm-5.55-2.42l.37-3.23,.34,3.23h-.71Zm.95,2.42h1.55l-1.01-6.81h-2.14l-1.11,6.81h1.47l.17-1.51h.91l.15,1.51h0Zm-5.21-1.18v-1.95h.16c.38,0,.63,.18,.63,.94,0,.83-.25,1.01-.63,1.01h-.16Zm.76-3.72c0,.64-.21,.86-.56,.86h-.2v-1.59h.15c.37,0,.61,.15,.61,.73m-2.31,4.9h1.82c1.37,0,2.06-.68,2.06-2.13,0-.66-.25-1.3-.94-1.6,.6-.25,.87-.81,.87-1.4,0-1.11-.64-1.69-1.97-1.69h-1.84v6.81h0Zm-2.67-1.09c-.34,0-.52-.37-.52-2.33s.18-2.31,.52-2.31,.53,.36,.53,2.31-.19,2.33-.53,2.33m0,1.18c1.39,0,2.1-.95,2.1-3.51s-.71-3.49-2.1-3.49-2.09,.95-2.09,3.49,.71,3.51,2.09,3.51m-2.3-.09v-1.18h-1.04v-5.63h-1.54v6.81h2.59Zm-3.36-4.73l-.02-.38c-.05-1.17-.67-1.79-1.64-1.79-1.41,0-2.18,1.12-2.18,3.49s.77,3.51,1.93,3.51c.55,0,.93-.25,1.11-.58l.27,.49h.55v-3.65h-1.76v.82h.47v1.3c0,.35-.17,.44-.4,.44-.34,0-.59-.41-.59-2.33s.22-2.31,.59-2.31c.26,0,.44,.21,.45,.78v.27l1.21-.06h0Z"/><path class="cls-6" d="M600.98,114.32h3.47v-12.65h2.04v-2.65h-7.55v2.65h2.04v12.65h0Zm-2.86,0v-2.65h-2.55v-4.39h2.14v-2.04h-2.14v-3.57h2.55v-2.65h-6.02v15.31h6.02Zm-7.25,0v-2.65h-2.55v-4.39h2.14v-2.04h-2.14v-3.57h2.55v-2.65h-6.02v15.31h6.02Zm-12.22-12.76h.43c.55,0,1.1,.33,1.1,2.29s-.63,2.24-1.22,2.24h-.31v-4.53h0Zm5.1,12.76l-1.76-6.98c1.06-.78,1.65-2.2,1.65-3.92,0-2.88-1.57-4.41-4-4.41h-4.47v15.31h3.47v-6.18h.29l1.37,6.18h3.45Zm-14.9,0h3.47v-12.65h2.04v-2.65h-7.55v2.65h2.04v12.65h0Zm-7.24-11.76c0-.8,.47-1.1,.96-1.1,.82,0,1.12,.71,1.14,1.63l.02,.73,2.69-.14-.04-.86c-.14-3.1-1.75-4.02-3.86-4.02-2.74,0-4.04,1.78-4.04,4.02s.96,3.43,2.61,4.9c1.12,.98,2.29,1.92,2.29,2.96,0,.75-.31,1.14-.96,1.14-.76,0-1.29-.47-1.37-1.94l-.04-.75-2.76,.14,.06,1.18c.16,3.2,2.12,4.06,4.16,4.06,2.86,0,4.12-1.74,4.12-4.22,0-2.29-1.31-3.43-2.69-4.72-1.65-1.55-2.31-1.96-2.31-3.02m-7.82,11.76v-2.65h-2.55v-4.39h2.14v-2.04h-2.14v-3.57h2.55v-2.65h-6.02v15.31h6.02Zm-12.65,0h3.47v-12.65h2.04v-2.65h-7.55v2.65h2.04v12.65h0Zm-7.49-5.43l.84-7.27,.75,7.27h-1.59Zm2.14,5.43h3.49l-2.27-15.31h-4.82l-2.49,15.31h3.31l.39-3.39h2.04l.35,3.39h0Zm-11.27,0h3.47v-12.65h2.04v-2.65h-7.55v2.65h2.04v12.65h0Zm-7.25-11.76c0-.8,.47-1.1,.96-1.1,.82,0,1.12,.71,1.14,1.63l.02,.73,2.69-.14-.04-.86c-.14-3.1-1.76-4.02-3.86-4.02-2.74,0-4.04,1.78-4.04,4.02s.96,3.43,2.61,4.9c1.12,.98,2.29,1.92,2.29,2.96,0,.75-.31,1.14-.96,1.14-.76,0-1.29-.47-1.37-1.94l-.04-.75-2.76,.14,.06,1.18c.16,3.2,2.12,4.06,4.16,4.06,2.86,0,4.12-1.74,4.12-4.22,0-2.29-1.31-3.43-2.69-4.72-1.65-1.55-2.31-1.96-2.31-3.02"/></g></g></svg>