<?xml version="1.0" encoding="UTF-8"?><svg id="Ebene_1" xmlns="http://www.w3.org/2000/svg" viewBox="0 0 293.13 106.04"><defs><style>.cls-1{fill:#ed1c24;}.cls-2{fill:#231f20;}</style></defs><path class="cls-2" d="M78.9,30.65l-1.91,1.59,2.02,6.57-6.04-3.29-2.02,1.59,6.68,3.61-7.1,5.73-1.91-2.54,2.55-2.02-1.91-2.23-2.54,2.02-1.91-2.44,2.54-2.01-1.91-2.44-13.04,10.82,12.41,9.97,2.23-2.76c1.59,.11,2.76,1.27,3.39,2.76l-2.23,2.76,1.38,1.06c3.08-2.76,7.1-4.56,11.24-4.56,8.7,0,15.48,7.11,15.48,15.8,0,2.86-.74,5.94-2.33,8.48l2.33,1.8c-.11,1.7-1.7,3.5-3.29,3.92l-2.23-1.8c-3.08,2.97-7.1,4.56-11.35,4.56-8.7,0-15.48-6.89-15.48-15.69,0-2.86,.85-5.83,2.12-8.27l-1.27-1.17-2.23,2.97c-1.59-.21-2.97-1.27-3.39-2.97l2.23-2.65-10.5-8.7v13.79l3.5,.11c.42,.53,.74,1.27,.74,2.12,0,.74-.32,1.59-.64,2.23h-3.61v1.7c7.64,1.27,14,7.74,14,15.59s-6.26,14.63-14,15.91v2.76c-.74,.42-1.7,.74-2.54,.74-.95,0-2.02-.32-2.86-.74v-2.76c-7.74-1.27-13.79-7.74-13.79-15.91s6.04-14.32,13.79-15.48v-1.8h-3.61c-.42-.63-.64-1.48-.64-2.23,0-.85,.21-1.59,.64-2.23h3.61v-13.79l-10.6,8.7,2.33,2.65c-.53,1.7-1.91,2.76-3.5,2.97l-2.23-2.97-1.38,1.17c1.48,2.44,2.23,5.41,2.23,8.27,0,8.8-6.79,15.69-15.48,15.69-4.14,0-8.27-1.59-11.24-4.56l-2.33,1.8c-1.48-.42-3.08-2.23-3.29-3.92l2.23-1.8c-1.38-2.54-2.23-5.62-2.23-8.48,0-8.69,6.79-15.8,15.48-15.8,4.24,0,8.27,1.8,11.35,4.56l1.27-.95-2.23-2.86c.53-1.48,1.91-2.54,3.5-2.76l2.23,2.76,12.41-9.97-13.04-10.82-1.91,2.44,2.55,2.01-1.91,2.44-2.54-2.02-1.91,2.23,2.44,2.02-1.91,2.54-7-5.73,6.57-3.61-1.91-1.59-6.04,3.29,2.01-6.57-1.91-1.59-2.23,7.21-7.11-5.73,1.91-2.33,2.44,2.01,2.02-2.33-2.55-2.23,1.91-2.23,2.54,1.91,1.8-2.23-5.51-4.35c.53-1.8,1.7-3.29,3.39-4.35l29.37,23.97V23.97h-2.97v3.08h-2.97v-3.08h-3.08v3.08h-3.08v-9.01l7,2.97v-2.54l-6.47-2.65,6.47-2.55v-2.44l-7,2.76V4.45h3.08v3.29h3.08v-3.29h2.97v3.29h2.97V.53c.85-.32,1.8-.53,2.76-.53,.85,0,1.8,.21,2.65,.53V39.98l29.37-23.97c1.59,1.06,2.76,2.55,3.39,4.35l-5.62,4.35,1.91,2.23,2.55-1.91,1.91,2.23-2.54,2.23,1.91,2.33,2.55-2.01,1.91,2.33-7.11,5.73-2.23-7.21ZM18.88,74.02c0,2.55,1.91,4.14,4.14,4.35l-3.71,2.86c-2.54-.96-4.88-4.03-4.88-6.68,0-.85,.21-1.38,.42-2.01-.32,0-.53,.11-.74,.11-3.39,0-6.26-3.18-6.89-6.47l3.82-2.97c-.11,.42-.11,.74-.11,1.06,0,2.12,2.02,4.03,4.14,4.03,2.23,0,4.35-1.91,4.35-4.14,0-2.76-2.12-4.56-4.77-4.56-5.2,0-10.29,4.98-10.29,11.56,0,1.91,.42,3.71,1.27,5.3l2.33-1.8c1.59,.74,2.86,2.33,3.29,4.14l-2.33,1.8c2.23,1.91,4.98,2.76,7.85,2.76,5.94,0,10.71-4.77,10.71-9.01,0-2.44-1.7-4.56-4.24-4.56-2.33,0-4.35,1.8-4.35,4.24Zm31.5,9.12c0,2.33,1.91,4.24,4.14,4.24,1.59,0,2.23-.64,3.39-1.59v4.77c-1.17,.64-2.33,.95-3.61,.95-2.54,0-4.67-.74-6.04-2.97-1.48,2.23-3.61,2.97-6.15,2.97-1.17,0-2.44-.32-3.61-.95v-4.77c1.06,1.06,1.91,1.59,3.39,1.59,2.33,0,4.14-1.91,4.14-4.24s-1.48-4.24-3.92-4.24c-4.35,0-6.15,4.14-6.15,7.95,0,5.62,4.14,10.39,9.54,11.35v-2.86c.85-.42,1.8-.53,2.65-.53,.95,0,1.91,.11,2.76,.53v2.86c4.98-.74,9.54-6.04,9.54-11.35,0-3.92-1.59-7.95-6.15-7.95-2.33,0-3.92,2.01-3.92,4.24Zm26.41-18.98c0,2.12,2.23,4.14,4.45,4.14s4.14-1.91,4.14-4.03c0-.32-.11-.64-.11-1.06l3.71,2.97c-.64,3.61-3.82,6.79-7.53,6.36,.21,.64,.32,1.17,.32,2.01,0,2.65-2.33,5.73-4.88,6.68l-3.71-2.86c2.33-.21,4.24-1.8,4.24-4.35s-2.12-4.24-4.45-4.24-4.24,2.12-4.24,4.67c0,3.08,3.71,8.91,10.82,8.91,2.86,0,5.62-.85,7.74-2.76l-2.33-1.8c.53-1.8,1.59-3.39,3.29-4.14l2.33,1.8c.85-1.59,1.38-3.39,1.38-5.3,0-5.09-3.92-11.56-10.18-11.56-2.65,0-4.98,1.8-4.98,4.56Z"/><path class="cls-1" d="M171.25,63.86c0,21.97-12.01,24.61-24.02,24.61-20.65,0-25.05-10.55-25.05-25.63V20.28h-7.62v-4.1h28.86v4.1h-8.2V61.59c0,14.57,3.81,21.83,14.28,21.83s15.89-5.27,15.89-20.43V20.28h-7.69v-4.1h20.51v4.1h-6.96V63.86Zm19.63,19.7V20.28h-7.47v-4.1h32.01c13.62,0,20.36,7.69,20.36,16.7,0,9.59-8.72,15.01-16.48,16.62,15.09,1.39,19.19,11.06,19.19,18.16,0,14.5-12.38,19.99-24.54,19.99h-31.05v-4.1h7.98Zm31.86-49.88c0-6.66-3.44-13.4-10.99-13.4h-8.13v27.46h7.25c7.98,0,11.87-6.74,11.87-14.06Zm2.56,33.98c0-9.52-4.1-15.89-13.7-15.89h-7.98v31.79h6.45c10.18,0,15.23-6.01,15.23-15.89Zm45.12-48.34c-7.54,0-12.38,4.47-12.38,12.23,0,7.03,7.62,10.4,15.01,12.89,4.39,1.54,9.96,3.59,13.77,7.25,4.17,3.95,6.45,9.23,6.3,15.89-.29,12.45-9.01,20.87-24.39,20.95-5.79,0-14.79-1.32-20.21-4.47l-.59-18.75h4.54c.37,12.6,6.3,19.19,16.7,19.19,8.35,0,12.96-5.57,12.96-14.06,0-7.32-6.08-10.47-15.31-13.55-3-1.03-8.94-3.22-13.11-7.32-3.74-3.73-5.49-8.42-5.49-13.4,0-14.57,10.4-20.87,23.29-20.87,5.13,0,12.82,1.83,17.29,4.39l.44,16.26h-4.54c-.95-11.57-6.01-16.62-14.28-16.62Z"/></svg>