<svg id="Laag_1" data-name="Laag 1" xmlns="http://www.w3.org/2000/svg" viewBox="0 0 503.95 77.35"><defs><style>.cls-1{fill:#ef7b10;}.cls-2{fill:#1d1d1b;}</style></defs><title>Vanderlande-logo-2020</title><rect class="cls-1" x="3.47" y="69.71" width="498.25" height="7.64"/><path class="cls-2" d="M71,16.34l-.93,5.48H58.57l.81-4.92A6.49,6.49,0,0,1,61.91,13a7.15,7.15,0,0,1,4.57-1.69,4.52,4.52,0,0,1,3.62,1.51A3.94,3.94,0,0,1,71,16.34M74.32,0H62.09a15.7,15.7,0,0,0-10,3.67,14.84,14.84,0,0,0-5.57,8.88l-8,41.9H51.32a1.24,1.24,0,0,0,1.21-1L56.43,33H67.87l-4.1,21.45h12.8a1.23,1.23,0,0,0,1.21-1L85.48,13a10.44,10.44,0,0,0-2.31-9.16A11.12,11.12,0,0,0,74.32,0"/><path class="cls-2" d="M345.14,16.34l-.93,5.48H332.72l.81-4.92A6.49,6.49,0,0,1,336.06,13a7.15,7.15,0,0,1,4.57-1.69,4.54,4.54,0,0,1,3.62,1.51,3.94,3.94,0,0,1,.89,3.56M348.47,0H336.23a15.69,15.69,0,0,0-10,3.67,14.91,14.91,0,0,0-5.58,8.88l-8,41.9h12.77a1.24,1.24,0,0,0,1.21-1L330.58,33H342l-4.09,21.45h12.8a1.23,1.23,0,0,0,1.21-1L359.63,13a10.44,10.44,0,0,0-2.31-9.16A11.12,11.12,0,0,0,348.47,0"/><path class="cls-2" d="M134.1,1H121.84l-5.08,26.55L107,1.48a1.17,1.17,0,0,0-1-.5h-8.9L86.92,54.45H99.54a1.22,1.22,0,0,0,1.19-1L105.6,27.9l10,26.55h8.81a1.22,1.22,0,0,0,1.19-1l9.73-51a1.27,1.27,0,0,0-.26-1A1.18,1.18,0,0,0,134.1,1"/><path class="cls-2" d="M168.6,16.27,164.33,38.7A5.49,5.49,0,0,1,162.25,42a5.85,5.85,0,0,1-3.81,1.4H152.1l6-31.28h6.82a3.74,3.74,0,0,1,3,1.25,3.22,3.22,0,0,1,.73,2.95M171.81,1H146.6L136.42,54.45h25.66a15.34,15.34,0,0,0,9.82-3.63,14.56,14.56,0,0,0,5.47-8.69l5.4-28.37a10.28,10.28,0,0,0-2.27-9A10.89,10.89,0,0,0,171.81,1"/><path class="cls-2" d="M229.11,1.41a1.23,1.23,0,0,0-.94-.43h-33.3L184.68,54.45h33.76a1.22,1.22,0,0,0,1.19-1l1.66-8.66a1.25,1.25,0,0,0-.26-1,1.21,1.21,0,0,0-.93-.45H200.35l1.91-10h14.26a1.22,1.22,0,0,0,1.19-1l1.69-8.65a1.26,1.26,0,0,0-.26-1,1.18,1.18,0,0,0-.93-.45H204.42l1.85-10.21h20.21a1.22,1.22,0,0,0,1.19-1l1.69-8.66a1.27,1.27,0,0,0-.25-1"/><path class="cls-2" d="M408.67,1H396.4l-5.07,26.55-9.77-26a1.15,1.15,0,0,0-1-.5h-8.9l-10.2,53.47h12.63a1.21,1.21,0,0,0,1.18-1l4.88-25.56,9.95,26.55h8.82a1.21,1.21,0,0,0,1.18-1l9.73-51a1.23,1.23,0,0,0-.25-1,1.21,1.21,0,0,0-.93-.43"/><path class="cls-2" d="M443.17,16.27,438.89,38.7A5.49,5.49,0,0,1,436.81,42a5.83,5.83,0,0,1-3.8,1.4h-6.35l6-31.28h6.82a3.76,3.76,0,0,1,3,1.25,3.25,3.25,0,0,1,.73,2.95M446.38,1H421.16L411,54.45h25.66a15.33,15.33,0,0,0,9.81-3.63,14.51,14.51,0,0,0,5.47-8.69l5.4-28.37a10.24,10.24,0,0,0-2.26-9A10.92,10.92,0,0,0,446.38,1"/><path class="cls-2" d="M503.67,1.41a1.19,1.19,0,0,0-.93-.43H469.43L459.24,54.45H493a1.23,1.23,0,0,0,1.19-1l1.65-8.66a1.22,1.22,0,0,0-1.18-1.45H474.92l1.9-10h14.27a1.22,1.22,0,0,0,1.19-1L494,23.74a1.22,1.22,0,0,0-.25-1,1.18,1.18,0,0,0-.93-.45H479l1.85-10.21h20.21a1.23,1.23,0,0,0,1.19-1l1.68-8.66a1.23,1.23,0,0,0-.25-1"/><path class="cls-2" d="M260.23,16.27,260,17.58a5.52,5.52,0,0,1-2.1,3.3,5.92,5.92,0,0,1-3.79,1.4h-6.31l1.92-10.21h6.78a3.76,3.76,0,0,1,3,1.25,3.24,3.24,0,0,1,.72,2.95M263.53,1H238.3L228.1,54.45h12.55a1.21,1.21,0,0,0,1.19-1l3.9-20.08h6.78a3.73,3.73,0,0,1,3,1.26,3.29,3.29,0,0,1,.73,3L253,54.45h12.78a1.22,1.22,0,0,0,1.18-1l3.83-20.09a5.72,5.72,0,0,0-1.28-5,5.81,5.81,0,0,0-2.39-1.67,11.58,11.58,0,0,0,2.35-1.87,15.69,15.69,0,0,0,4.46-7.93l.59-3.1a10.21,10.21,0,0,0-2.26-9A10.9,10.9,0,0,0,263.53,1"/><path class="cls-2" d="M277.12,54.45h27.65a1.2,1.2,0,0,0,1.18-1l1.7-8.66a1.21,1.21,0,0,0-.26-1,1.18,1.18,0,0,0-.93-.45H292.84l7.75-40.93a1.3,1.3,0,0,0-.25-1A1.23,1.23,0,0,0,299.4,1H287.31Z"/><path class="cls-2" d="M0,.54s10,0,12.72,0c1.6,0,2.3.76,2.37,2.38.46,11.3.39,34.52.39,34.52L27.62.54H40.45c1.51,0,2,0,2.4.49s-.05,1.61-.05,1.61L23.4,51.45a14.31,14.31,0,0,1-1.08,2c-.67.95-1.53,1-3.09,1H3.52Z"/></svg>