<?xml version="1.0" encoding="utf-8"?>
<!-- Generator: Adobe Illustrator 23.0.6, SVG Export Plug-In . SVG Version: 6.00 Build 0)  -->
<svg version="1.1" id="Layer_1" xmlns="http://www.w3.org/2000/svg" xmlns:xlink="http://www.w3.org/1999/xlink" x="0px" y="0px"
	 viewBox="0 0 458.1 186.7" style="enable-background:new 0 0 458.1 186.7;" xml:space="preserve">
<style type="text/css">
	.st0{fill:#D5002B;}
</style>
<g id="Westpac_Help_Logo_Master">
</g>
<g id="Westpac_Help_Logo_Stacked">
</g>
<g>
	<g id="XMLID_10_">
		<path id="XMLID_12_" class="st0" d="M162.3,166.9l-45-139.6C110.9,6,100.1,0,83.6,0H0c6.6,2.7,10.9,19.6,10.9,19.6l40.4,140.2
			c4.7,17.6,19.2,26.9,35.7,26.9h88.6C169.3,185.5,162.3,166.9,162.3,166.9"/>
		<path id="XMLID_11_" class="st0" d="M295.8,166.9l45-139.6C347.2,6,358,0,374.5,0h83.6c-6.6,2.7-10.9,19.6-10.9,19.6l-40.4,140.2
			c-4.7,17.6-19.2,26.9-35.7,26.9h-88.6C288.9,185.5,295.8,166.9,295.8,166.9"/>
	</g>
	<rect id="XMLID_9_" x="180.1" y="1.1" class="st0" width="98.4" height="185.6"/>
</g>
</svg>
