<svg id="MASTER" xmlns="http://www.w3.org/2000/svg" viewBox="0 0 518.11 74.03"><defs><style>.cls-1{fill:#173e6d;}.cls-2{fill:#cc2029;}</style></defs><g id="Colour"><path class="cls-1" d="M66.21,31.73h5.48L80.76,56H75.22l-1.83-5.41H64.31L62.41,56H57ZM65.7,46.62H72l-3.06-8.91h-.07Z" transform="translate(0)"/><path class="cls-1" d="M93.28,53.76h-.07a5.84,5.84,0,0,1-5.34,2.72c-5.3,0-7.88-4.56-7.88-9.42S82.6,38,87.77,38A6,6,0,0,1,93,40.56H93V31.73h4.83V56H93.28ZM89.06,41.58c-3.16,0-4.25,2.72-4.25,5.61s1.26,5.65,4.25,5.65c3.2,0,4.15-2.79,4.15-5.68S92.19,41.58,89.06,41.58Z" transform="translate(0)"/><path class="cls-1" d="M99.74,43.83C100,39.31,104.06,38,108,38c3.5,0,7.72.78,7.72,5v9.15a9,9,0,0,0,.61,3.91h-4.89a6.93,6.93,0,0,1-.34-1.7,8.07,8.07,0,0,1-5.92,2.18c-3.33,0-6-1.67-6-5.27,0-4,3-4.93,6-5.34s5.71-.34,5.71-2.31-1.43-2.38-3.13-2.38-3,.74-3.19,2.65Zm11.15,3.57c-.81.71-2.51.75-4,1S104,49.23,104,51s1.4,2.25,3,2.25c3.78,0,3.91-3,3.91-4Z" transform="translate(0)"/><path class="cls-1" d="M117.94,38.42h4.55V40.8h.07A6.34,6.34,0,0,1,127.93,38c2.21,0,4.18.81,5.14,2.92a6.37,6.37,0,0,1,5.3-2.92c3.74,0,6.42,1.73,6.42,6.29V56H140V46c0-2.35-.21-4.29-3-4.29s-3.23,2.25-3.23,4.46V56H129V46.14c0-2,.14-4.39-2.92-4.39-1,0-3.26.62-3.26,4V56h-4.83Z" transform="translate(0)"/><path class="cls-1" d="M158.8,47.94c0,3.23,2.52,4.49,5.38,4.49,1.87,0,4.72-.54,4.72-3s-3.64-3.06-7.21-4-7.24-2.34-7.24-6.9c0-5,4.69-7.34,9.08-7.34,5.07,0,9.72,2.21,9.72,7.82h-5.16c-.17-2.93-2.25-3.67-4.8-3.67-1.7,0-3.67.71-3.67,2.75,0,1.87,1.16,2.11,7.24,3.67,1.77.44,7.21,1.56,7.21,7.07,0,4.46-3.5,7.79-10.1,7.79-5.37,0-10.4-2.65-10.33-8.64Z" transform="translate(0)"/><path class="cls-1" d="M175.42,38.42H180V40.8H180A6.34,6.34,0,0,1,185.41,38c2.21,0,4.18.81,5.14,2.92a6.37,6.37,0,0,1,5.3-2.92c3.74,0,6.42,1.73,6.42,6.29V56h-4.82V46c0-2.35-.21-4.29-3-4.29s-3.23,2.25-3.23,4.46V56h-4.83V46.14c0-2,.14-4.39-2.92-4.39-.95,0-3.27.62-3.27,4V56h-4.82Z" transform="translate(0)"/><path class="cls-1" d="M208.86,35.7H204v-4h4.83ZM204,38.42h4.83V56H204Z" transform="translate(0)"/><path class="cls-1" d="M218,38.42h3.53v3.23H218v8.71c0,1.63.41,2,2,2a7.52,7.52,0,0,0,1.49-.14V56a18,18,0,0,1-2.82.17c-3,0-5.54-.68-5.54-4.18V41.65h-2.92V38.42h2.92V33.15H218Z" transform="translate(0)"/><path class="cls-1" d="M223.23,31.73h4.83v9.14h.1A6.17,6.17,0,0,1,233.29,38c5.14,0,6.43,2.89,6.43,7.24V56h-4.83V46.07c0-2.89-.85-4.32-3.09-4.32-2.62,0-3.74,1.47-3.74,5V56h-4.83Z" transform="translate(0)"/><path class="cls-1" d="M256.58,31.73h5.48L271.13,56h-5.54l-1.83-5.41h-9.08L252.77,56h-5.4Zm-.51,14.89h6.29l-3.06-8.91h-.07Z" transform="translate(0)"/><path class="cls-1" d="M289.54,56h-5l-3.13-11.8h-.07l-3,11.8h-5l-5.57-17.58h5.1l3.23,11.94h.06l2.93-11.94h4.69l3,11.9h.07l3.23-11.9h5Z" transform="translate(0)"/><path class="cls-1" d="M295.26,43.83c.27-4.52,4.32-5.88,8.26-5.88,3.5,0,7.72.78,7.72,5v9.15a9,9,0,0,0,.61,3.91H307a7.43,7.43,0,0,1-.34-1.7,8,8,0,0,1-5.91,2.18c-3.33,0-6-1.67-6-5.27,0-4,3-4.93,6-5.34s5.71-.34,5.71-2.31-1.43-2.38-3.13-2.38-3,.74-3.19,2.65Zm11.15,3.57c-.82.71-2.52.75-4,1s-2.86.81-2.86,2.58,1.4,2.25,3,2.25c3.77,0,3.91-3,3.91-4Z" transform="translate(0)"/><path class="cls-1" d="M313.39,38.42H318v3.27h.07A6.21,6.21,0,0,1,323.66,38a3.66,3.66,0,0,1,1,.17V42.6a8.94,8.94,0,0,0-1.73-.16c-3.54,0-4.76,2.54-4.76,5.64V56h-4.83Z" transform="translate(0)"/><path class="cls-1" d="M338.46,53.76h-.07a5.85,5.85,0,0,1-5.34,2.72c-5.3,0-7.89-4.56-7.89-9.42S327.78,38,333,38a6.05,6.05,0,0,1,5.2,2.61h.07V31.73h4.83V56h-4.59Zm-4.22-12.18c-3.16,0-4.25,2.72-4.25,5.61s1.26,5.65,4.25,5.65c3.2,0,4.15-2.79,4.15-5.68S337.37,41.58,334.24,41.58Z" transform="translate(0)"/><path class="cls-1" d="M349,50.29c0,2.11,1.8,3,3.7,3,1.4,0,3.16-.55,3.16-2.25,0-1.46-2-2-5.47-2.72-2.79-.61-5.57-1.6-5.57-4.69,0-4.49,3.87-5.64,7.64-5.64s7.38,1.29,7.76,5.61h-4.59c-.14-1.87-1.57-2.38-3.3-2.38-1.09,0-2.69.2-2.69,1.63,0,1.73,2.72,2,5.48,2.62s5.57,1.66,5.57,4.93c0,4.62-4,6.12-8,6.12s-8.06-1.53-8.26-6.19Z" transform="translate(0)"/><path class="cls-2" d="M376.74,31.73h5.47L391.29,56h-5.54l-1.84-5.41h-9.08L372.93,56h-5.41Zm-.51,14.89h6.29l-3.06-8.91h-.07Z" transform="translate(0)"/><path class="cls-2" d="M395.05,47.94c0,3.23,2.52,4.49,5.37,4.49,1.87,0,4.73-.54,4.73-3s-3.64-3.06-7.21-4-7.24-2.34-7.24-6.9c0-5,4.69-7.34,9.08-7.34,5.06,0,9.72,2.21,9.72,7.82h-5.17c-.17-2.93-2.24-3.67-4.79-3.67-1.7,0-3.67.71-3.67,2.75,0,1.87,1.15,2.11,7.24,3.67,1.77.44,7.21,1.56,7.21,7.07,0,4.46-3.5,7.79-10.1,7.79-5.37,0-10.4-2.65-10.33-8.64Z" transform="translate(0)"/><path class="cls-2" d="M411.93,31.73h5.34V56h-5.34Z" transform="translate(0)"/><path class="cls-2" d="M426.86,31.73h5.47L441.41,56h-5.55L434,50.59H425L423.05,56h-5.41Zm-.51,14.89h6.29l-3.07-8.91h-.06Z" transform="translate(0)"/><path class="cls-2" d="M448.48,41.35c-.17-5.44,2.92-9.62,8.64-9.62,4.35,0,8.15,2.78,8.15,7.44,0,3.57-1.9,5.54-4.24,7.21s-5.14,3-6.87,5.47h11.25V56H447.94c0-5.51,3.4-7.85,7.51-10.64,2.11-1.43,5-2.89,5-5.81a3.44,3.44,0,0,0-3.57-3.68c-2.86,0-3.78,3-3.78,5.48Z" transform="translate(0)"/><path class="cls-2" d="M474.36,31.73c4.76,0,8.78,3,8.78,12.27,0,9.48-4,12.48-8.78,12.48s-8.7-3-8.7-12.48C465.66,34.72,469.67,31.73,474.36,31.73Zm0,20.77c3.95,0,3.95-5.82,3.95-8.5,0-2.48,0-8.3-3.95-8.3s-3.87,5.82-3.87,8.3C470.49,46.68,470.49,52.5,474.36,52.5Z" transform="translate(0)"/><path class="cls-2" d="M483.55,41.35c-.17-5.44,2.92-9.62,8.63-9.62,4.35,0,8.16,2.78,8.16,7.44,0,3.57-1.9,5.54-4.25,7.21s-5.13,3-6.87,5.47h11.26V56H483c0-5.51,3.4-7.85,7.52-10.64,2.1-1.43,5-2.89,5-5.81a3.44,3.44,0,0,0-3.57-3.68c-2.85,0-3.77,3-3.77,5.48Z" transform="translate(0)"/><path class="cls-2" d="M501.18,41.35c-.17-5.44,2.92-9.62,8.63-9.62,4.35,0,8.16,2.78,8.16,7.44,0,3.57-1.9,5.54-4.25,7.21s-5.13,3-6.86,5.47h11.25V56H500.63c0-5.51,3.4-7.85,7.52-10.64,2.11-1.43,5-2.89,5-5.81a3.43,3.43,0,0,0-3.56-3.68c-2.86,0-3.78,3-3.78,5.48Z" transform="translate(0)"/></g><g id="sail-outline"><path class="cls-2" d="M28,57.48,64.2,0S52.14,39.14,44.48,49.77,28,57.48,28,57.48M25.9,54.53C34.55,44.7,50.35,6.91,50.35,6.91L8.72,60.6s8.53,3.76,17.18-6.07" transform="translate(0)"/><path class="cls-1" d="M45.27,51.38q0,.6,0,1.2a22.59,22.59,0,0,1-8.63,17.78,18.46,18.46,0,0,0,5.32-13,19.46,19.46,0,0,0-.14-2.3A24.78,24.78,0,0,0,45.27,51.38ZM5,57.37A18.52,18.52,0,0,1,23.48,38.86h.09L29.64,31A22.65,22.65,0,0,0,15.38,74,18.51,18.51,0,0,1,5,57.37Z" transform="translate(0)"/></g><g id="treasurytoday-logo-outline"><path class="cls-1" d="M67,12.69h1.49V10h2v2.69h1.79v1.47H70.49v4.78c0,.82.07,1.23,1,1.23a3.37,3.37,0,0,0,.83-.07v1.53c-.44,0-.85.1-1.28.1-2.07,0-2.45-.8-2.48-2.29V14.16H67Z" transform="translate(0)"/><path class="cls-1" d="M72.89,12.69h1.85v1.73h0a2.9,2.9,0,0,1,2.62-2,4.24,4.24,0,0,1,.75.06v1.9a8.47,8.47,0,0,0-.85-.09c-1.36,0-2.43,1.1-2.43,3.07v4.26h-2Z" transform="translate(0)"/><path class="cls-1" d="M80.16,17.68a2.39,2.39,0,0,0,2.41,2.65,2.09,2.09,0,0,0,2.19-1.49h1.87a3.94,3.94,0,0,1-4.06,3.05c-2.8,0-4.38-2-4.38-4.72,0-2.54,1.66-4.73,4.33-4.73,2.83,0,4.56,2.55,4.23,5.24Zm4.61-1.3a2.31,2.31,0,1,0-4.61,0Z" transform="translate(0)"/><path class="cls-1" d="M95.31,19.65c0,.49.1.68.46.68a2.38,2.38,0,0,0,.49,0v1.37a4.69,4.69,0,0,1-1.25.23c-.79,0-1.37-.28-1.52-1.1a4.57,4.57,0,0,1-3.1,1.1c-1.62,0-3.07-.87-3.07-2.62,0-2.23,1.78-2.6,3.45-2.79,1.42-.26,2.68-.1,2.68-1.26S92.4,14,91.6,14c-1.11,0-1.89.45-2,1.42h-2c.14-2.3,2.1-3,4.07-3,1.75,0,3.59.71,3.59,2.6Zm-2-2.49a7.08,7.08,0,0,1-2.42.53c-.85.14-1.62.45-1.62,1.49s1.13,1.15,1.82,1.15c.87,0,2.22-.45,2.22-1.7Z" transform="translate(0)"/><path class="cls-1" d="M98.48,18.77c.1,1.14,1,1.56,2,1.56.75,0,2-.16,2-1.18S101,18,99.57,17.66s-2.88-.83-2.88-2.65,2.12-2.57,3.74-2.57c1.84,0,3.5.77,3.75,2.76h-2.06c-.18-.94-1-1.2-1.82-1.2-.57,0-1.63.14-1.63.92,0,1,1.45,1.11,2.91,1.44s2.89.85,2.89,2.62c0,2.13-2.15,2.91-4,2.91-2.25,0-3.93-1-4-3.12Z" transform="translate(0)"/><path class="cls-1" d="M113.22,21.64h-1.94V20.4h0a3,3,0,0,1-2.55,1.49c-2.34,0-3.34-1.18-3.34-3.52V12.69h2v5.49c0,1.58.64,2.15,1.72,2.15,1.64,0,2.2-1.06,2.2-2.45V12.69h2Z" transform="translate(0)"/><path class="cls-1" d="M114.71,12.69h1.85v1.73h0a2.89,2.89,0,0,1,2.62-2,4,4,0,0,1,.74.06v1.9a8.17,8.17,0,0,0-.85-.09c-1.35,0-2.42,1.1-2.42,3.07v4.26h-2Z" transform="translate(0)"/><path class="cls-1" d="M120.6,12.69h2.17l2.34,6.68h0l2.27-6.68h2.06L126,22.13c-.64,1.61-1.11,3.07-3.17,3.07a8.83,8.83,0,0,1-1.37-.11V23.43a5.89,5.89,0,0,0,.94.12c.91,0,1.14-.49,1.38-1.25l.23-.69Z" transform="translate(0)"/><path class="cls-2" d="M129.87,12.69h1.49V10h2v2.69h1.78v1.47h-1.78v4.78c0,.82.07,1.23.95,1.23a3.29,3.29,0,0,0,.83-.07v1.53c-.43,0-.85.1-1.28.1-2.06,0-2.44-.8-2.48-2.29V14.16h-1.49Z" transform="translate(0)"/><path class="cls-2" d="M135.46,17.16c0-2.74,1.65-4.72,4.53-4.72s4.52,2,4.52,4.72-1.65,4.73-4.52,4.73-4.53-2-4.53-4.73m7.07,0c0-1.55-.78-3.16-2.54-3.16s-2.55,1.61-2.55,3.16.78,3.17,2.55,3.17,2.54-1.61,2.54-3.17" transform="translate(0)"/><path class="cls-2" d="M154,21.64h-1.87V20.43h0a3,3,0,0,1-2.77,1.46c-2.83,0-4.2-2.1-4.2-4.79,0-3.24,1.93-4.66,3.88-4.66a3.44,3.44,0,0,1,3,1.41h0V9.27h2Zm-4.42-1.31c1.77,0,2.52-1.61,2.52-3.17,0-2-1-3.16-2.48-3.16-1.85,0-2.51,1.65-2.51,3.26s.76,3.07,2.47,3.07" transform="translate(0)"/><path class="cls-2" d="M163,19.65c0,.49.11.68.47.68a2.43,2.43,0,0,0,.49,0v1.37a4.76,4.76,0,0,1-1.25.23c-.8,0-1.37-.28-1.53-1.1a4.56,4.56,0,0,1-3.1,1.1c-1.61,0-3.07-.87-3.07-2.62,0-2.23,1.79-2.6,3.45-2.79,1.42-.26,2.69-.1,2.69-1.26S160.06,14,159.27,14c-1.11,0-1.89.45-2,1.42h-2c.14-2.3,2.1-3,4.08-3,1.75,0,3.58.71,3.58,2.6Zm-2-2.49a7.14,7.14,0,0,1-2.43.53c-.85.14-1.61.45-1.61,1.49s1.13,1.15,1.82,1.15c.87,0,2.22-.45,2.22-1.7Z" transform="translate(0)"/><path class="cls-2" d="M163,12.69h2.16l2.34,6.68h0l2.27-6.68h2.06l-3.48,9.44c-.64,1.61-1.11,3.07-3.17,3.07a8.83,8.83,0,0,1-1.37-.11V23.43a5.92,5.92,0,0,0,.93.12c.92,0,1.14-.49,1.39-1.25l.22-.69Z" transform="translate(0)"/></g><path class="cls-1" d="M173.87,10.93h2.41l4,10.71h-2.45L177,19.26h-4l-.84,2.38H169.8Zm-.23,6.57h2.78l-1.35-3.93h0Z" transform="translate(0)"/><path class="cls-1" d="M182.82,18.09c0,1.42,1.11,2,2.37,2,.83,0,2.09-.24,2.09-1.34s-1.61-1.35-3.18-1.77-3.2-1-3.2-3c0-2.19,2.07-3.24,4-3.24,2.23,0,4.29,1,4.29,3.45h-2.28c-.08-1.29-1-1.62-2.12-1.62-.75,0-1.62.31-1.62,1.21s.51.93,3.2,1.62c.78.2,3.18.69,3.18,3.12,0,2-1.55,3.44-4.46,3.44-2.37,0-4.59-1.17-4.56-3.81Z" transform="translate(0)"/><path class="cls-1" d="M191,10.93h2.36V21.64H191Z" transform="translate(0)"/><path class="cls-1" d="M198.3,10.93h2.42l4,10.71h-2.44l-.81-2.38h-4l-.84,2.38h-2.38Zm-.22,6.57h2.77l-1.35-3.93h0Z" transform="translate(0)"/></svg>