<svg id="Layer_1" data-name="Layer 1" xmlns="http://www.w3.org/2000/svg" viewBox="0 0 1505.96 309.18"><defs><style>.cls-1{fill:#20409a;}.cls-2{fill:#0e76bc;}.cls-3{fill:#00aeef;}.cls-4{fill:#58585a;}</style></defs><title>analyste-logo-2019</title><polygon class="cls-1" points="178.51 0 0 309.18 357.01 309.18 178.51 0"/><polygon class="cls-2" points="178.51 196.22 0 309.18 357.01 309.18 178.51 196.22"/><polygon class="cls-3" points="178.51 196.22 357.01 309.18 178.51 0 178.51 196.22"/><path class="cls-4" d="M437.41,196.69,421.79,231H403.45L468.82,88.28,534.19,231H515.86l-15.62-34.32Zm31.41-71-24.33,55.38h48.67Z"/><path class="cls-4" d="M580.3,87.55,683.08,195.24V94.09h17.07V236.64L597.37,129V231H580.3Z"/><path class="cls-4" d="M780.22,196.69,764.6,231H746.26L811.63,88.28,877,231H858.66l-15.61-34.32Zm31.41-71L787.3,181.07H836Z"/><path class="cls-4" d="M941.82,215.39h53.89V231h-71V94.09h17.08Z"/><path class="cls-4" d="M1025,94.09h19.62l33.59,58.47,33.6-58.47h19.61l-44.67,77.36V231h-17.07V171.45Z"/><path class="cls-4" d="M1240.32,120.06c-5.09-8.54-11.62-12.89-22-12.89-10.9,0-22.89,7.44-22.89,19.43,0,10.71,10.54,16.34,19.07,19.61l9.81,3.81c19.43,7.63,34,18.34,34,41.22,0,24.88-19.25,42.68-43.77,42.68-22.15,0-39.4-16.35-42.31-38.32l17.25-3.63c-.18,15.07,11.81,26,26.52,26s25.24-12.34,25.24-26.69c0-14.71-11.81-21.06-23.61-26l-9.44-4c-15.62-6.72-29.78-15.62-29.78-34.68,0-22.16,19.61-35.42,40.31-35.42,15.25,0,27.78,7.45,35.23,20.71Z"/><path class="cls-4" d="M1350.17,231H1333.1V109.71h-32.51V94.09h82.08v15.62h-32.5Z"/><path class="cls-4" d="M1432.41,94.09H1506v15.62h-56.48V148h54.84v15.62h-54.84v51.75H1506V231h-73.55Z"/></svg>