<?xml version="1.0" encoding="UTF-8" standalone="no"?>
<svg
   xmlns:dc="http://purl.org/dc/elements/1.1/"
   xmlns:cc="http://creativecommons.org/ns#"
   xmlns:rdf="http://www.w3.org/1999/02/22-rdf-syntax-ns#"
   xmlns:svg="http://www.w3.org/2000/svg"
   xmlns="http://www.w3.org/2000/svg"
   xmlns:sodipodi="http://sodipodi.sourceforge.net/DTD/sodipodi-0.dtd"
   xmlns:inkscape="http://www.inkscape.org/namespaces/inkscape"
   version="1.1"
   id="svg2"
   xml:space="preserve"
   width="549.56"
   height="514.09332"
   viewBox="0 0 549.56 514.09332"
   sodipodi:docname="ApexLogo_Logo.eps"><metadata
     id="metadata8"><rdf:RDF><cc:Work
         rdf:about=""><dc:format>image/svg+xml</dc:format><dc:type
           rdf:resource="http://purl.org/dc/dcmitype/StillImage" /></cc:Work></rdf:RDF></metadata><defs
     id="defs6" /><sodipodi:namedview
     pagecolor="#ffffff"
     bordercolor="#666666"
     borderopacity="1"
     objecttolerance="10"
     gridtolerance="10"
     guidetolerance="10"
     inkscape:pageopacity="0"
     inkscape:pageshadow="2"
     inkscape:window-width="640"
     inkscape:window-height="480"
     id="namedview4" /><g
     id="g10"
     inkscape:groupmode="layer"
     inkscape:label="ink_ext_XXXXXX"
     transform="matrix(1.3333333,0,0,-1.3333333,0,514.09333)"><g
       id="g12"
       transform="scale(0.1)"><path
         d="m 3443.2,0.0117188 h -66.19 L 3692.87,420.09 3404.99,851.801 h 149.59 l 217.39,-327.141 245.37,327.141 h 66.72 L 3802.65,477.582 4121.73,0.0117188 H 3971.6 L 3723.54,373 3443.2,0.0117188"
         style="fill:#4f4c4c;fill-opacity:1;fill-rule:nonzero;stroke:none"
         id="path14" /><path
         d="m 1595.84,435.301 v -0.102 h -106.7 v 363.84 h 106.7 v -0.18 c 100.32,-1.058 181.33,-76.437 181.33,-181.129 0,-104.679 -81.01,-181.371 -181.33,-182.429 z m 63.17,414.758 -53.37,0.211 h -182.83 v -0.34 h -79.72 V 1.41016 h 146.05 V 381.121 h 156.59 l 32.26,0.129 c 130.92,0 246.67,105.73 246.67,234.398 0,128.684 -127.61,234.411 -265.65,234.411"
         style="fill:#4f4c4c;fill-opacity:1;fill-rule:nonzero;stroke:none"
         id="path16" /><path
         d="M 260.668,373.09 414.375,676.309 553.918,373.09 Z M 725.621,0.0117188 H 871.152 L 470.02,871.371 H 434.551 L 0,0.0117188 H 71.5469 L 233.047,318.602 H 578.992 L 725.621,0.0117188"
         style="fill:#4f4c4c;fill-opacity:1;fill-rule:nonzero;stroke:none"
         id="path18" /><path
         d="m 2979.67,796.762 v 55.039 H 2387.75 V 0.0117188 h 591.92 V 55.0391 H 2530.84 V 378.492 h 310.99 v 62.867 h -310.99 v 355.403 h 448.83"
         style="fill:#4f4c4c;fill-opacity:1;fill-rule:nonzero;stroke:none"
         id="path20" /><path
         d="m 2852.59,1543.79 c 0,182.4 147.85,330.25 330.25,330.25 182.39,0 330.26,-147.85 330.26,-330.25 0,-182.4 -147.87,-330.26 -330.26,-330.26 -182.4,0 -330.25,147.86 -330.25,330.26"
         style="fill:#ef6419;fill-opacity:1;fill-rule:nonzero;stroke:none"
         id="path22" /><path
         d="m 2801.88,2814.33 v 0 c -165.18,79.5 -365.38,9.4 -444.88,-155.79 l -465.63,-966.31 c -79.5,-165.17 -9.4,-365.38 155.79,-444.88 v 0 c 165.18,-79.5 365.38,-9.39 444.88,155.78 l 465.64,966.31 c 79.5,165.19 9.39,365.39 -155.8,444.89"
         style="fill:#ef6419;fill-opacity:1;fill-rule:nonzero;stroke:none"
         id="path24" /><path
         d="m 2231.34,3821.57 v 0 c 162.75,-80.65 229.93,-279.8 149.28,-442.55 L 1398.6,1396.64 c -80.64,-162.76 -279.79,-229.93 -442.545,-149.29 v 0 C 793.301,1328 726.121,1527.15 806.766,1689.9 l 982.024,1982.38 c 80.65,162.76 279.79,229.93 442.55,149.29"
         style="fill:#ef6419;fill-opacity:1;fill-rule:nonzero;stroke:none"
         id="path26" /></g></g></svg>
