<?xml version="1.0" encoding="utf-8"?>
<!-- Generator: Adobe Illustrator 25.4.1, SVG Export Plug-In . SVG Version: 6.00 Build 0)  -->
<svg version="1.1" id="Vrstva_1" xmlns="http://www.w3.org/2000/svg" xmlns:xlink="http://www.w3.org/1999/xlink" x="0px" y="0px"
	 viewBox="0 0 653.38 291.99" style="enable-background:new 0 0 653.38 291.99;" xml:space="preserve">
<style type="text/css">
	.st0{fill:#164194;}
</style>
<g>
	<path class="st0" d="M208.13,64v141.09c0,4.82,4.08,5.64,7.75,1.76l47.67-45.99V4.77c0-4.28-3.8-5.09-7.6-1.75L136.68,118.39
		c-33.94,33.4-35.15,69.73-14.8,87.11c5.98,4.28,10.05,4.55,14.67,0.41l65.6-62.82c4.88-4.8-1.36-5.21-1.36-5.21H166.3
		c-12.22-0.13-14.82-15.8,0.88-33.23L208.13,64z"/>
	<path class="st0" d="M339.07,104.74l24.44-23.63c3.38-3.64,3.8-6.04-0.82-10.29c-17.1-14.43-41.97-14.56-57.33-0.15l-24.17,23.26
		c-13.71,15.1-7.86,25.25,0,33.02l51.76,50.21c5.84,5.37,2.3,14.04-8.83,19.8c-14.94,7.06-20.9,3.19-20.9-10.44v-28.86
		c-0.28-4.54-2.19-4.54-4.9-1.6l-29.89,29.38c-5.84,6.57,0.42,15.11,9.5,18.59c29.74,9.62,46.6,2.41,60.72-10.15l19.29-19.11
		c15.34-18.04,1.08-30.34,1.08-30.34c-7.34-7.47-50.12-48.22-50.12-48.22c-10.58-8.56-7.63-16.78,7.88-25.79
		c5.97-3.49,11.69-1.06,11.69,4.53v30.73C328.47,112.07,332,111.71,339.07,104.74"/>
	<path class="st0" d="M524.05,3.7c4.08-4.15,8.93-4.68,8.93,3.76v101.57l48.38-46.5c4.63-5.33,8.67-4.03,8.67,2.15v108.48
		l-32.57,31.81c-5.72,5.09-9.81,4.56-9.81-2.93v-97.82l-14.68,14.56v53.58l-34.19,33.28c-5.03,4.55-9.78,4.41-9.78-4.42V36.73
		L524.05,3.7z"/>
	<path class="st0" d="M644.66,2.08l-34.78,32.9v36.49c0,5.75,3.67,6.28,8.28,1.98l33.56-32.58V3.69
		C651.45-0.85,647.9-0.98,644.66,2.08"/>
	<path class="st0" d="M644.38,61.45l-33.96,32.87v109.3c0.15,5.49,3.67,6.16,8.14,1.74l33.43-32.47V64.12
		C651.98,58.91,648.31,57.59,644.38,61.45"/>
	<path class="st0" d="M461.27,63.06l-68.15,65.73c-17.09,16.82-36.06,54.82-10.58,76.17c6.52,4.81,8.94,4.01,13.85,0l31.78-30.21
		v28.73c0,5.22,4.22,5.88,8.69,1.73c6.18-5.72,33.54-31.53,33.54-31.53V65.19C470.55,58.1,466.73,57.71,461.27,63.06 M428.42,165.55
		l-10.96,9.32c-6.83,4.83-16.74-5.32-16.74-24.43c0.17-13.72,5.96-25.65,15.85-34.94l11.85-11.29V165.55z"/>
</g>
<g>
	<path class="st0" d="M15,252.2h2.3l15,32.43h-2.62l-4.09-9.02h-19l-4.09,9.02H0L15,252.2z M24.57,273.45l-8.46-18.63l-8.51,18.63
		H24.57z"/>
	<path class="st0" d="M37.12,281.69l1.33-1.79c2.58,1.98,5.43,3.08,8.42,3.08c3.17,0,5.66-1.75,5.66-4.46v-0.09
		c0-2.76-2.94-3.77-6.21-4.69c-3.82-1.1-8.05-2.25-8.05-6.44v-0.09c0-3.77,3.17-6.49,7.73-6.49c2.81,0,5.98,1.01,8.33,2.58
		l-1.2,1.89c-2.16-1.43-4.74-2.35-7.22-2.35c-3.22,0-5.34,1.75-5.34,4.09v0.09c0,2.62,3.17,3.59,6.53,4.55
		c3.77,1.06,7.73,2.44,7.73,6.58v0.09c0,4.19-3.59,6.85-8.1,6.85C43.33,285.09,39.61,283.71,37.12,281.69z"/>
	<path class="st0" d="M60.63,277.82v-0.09c0-4.88,4.19-7.64,10.26-7.64c3.27,0,5.52,0.41,7.77,1.01v-1.01c0-4.74-2.9-7.18-7.73-7.18
		c-2.85,0-5.2,0.78-7.36,1.89l-0.83-1.98c2.58-1.2,5.11-2.02,8.33-2.02c3.17,0,5.7,0.87,7.41,2.58c1.56,1.56,2.39,3.73,2.39,6.62
		v14.63h-2.21v-3.91c-1.61,2.25-4.51,4.46-8.97,4.46C65.32,285.18,60.63,282.7,60.63,277.82z M78.71,275.84v-2.67
		c-1.98-0.51-4.6-1.06-7.96-1.06c-4.97,0-7.73,2.21-7.73,5.47v0.09c0,3.41,3.22,5.38,6.81,5.38
		C74.61,283.06,78.71,280.12,78.71,275.84z"/>
	<path class="st0" d="M89.51,251.05h2.25v14.49c1.56-2.76,4.19-4.92,8.46-4.92c5.94,0,9.39,4.05,9.39,9.66v14.35h-2.25v-13.94
		c0-4.83-2.71-8-7.45-8c-4.6,0-8.14,3.5-8.14,8.37v13.57h-2.25V251.05z"/>
	<path class="st0" d="M118.31,251.97h2.81v3.08h-2.81V251.97z M118.59,261.17h2.25v23.46h-2.25V261.17z"/>
	<path class="st0" d="M145.13,252.43h22.91v2.21h-20.52v12.65h18.45v2.21h-18.45v12.93h20.75v2.21h-23.14V252.43z"/>
	<path class="st0" d="M175.53,275.52v-14.35h2.25v13.94c0,4.83,2.71,8,7.45,8c4.6,0,8.14-3.5,8.14-8.37v-13.57h2.25v23.46h-2.25
		v-4.37c-1.56,2.76-4.19,4.92-8.46,4.92C178.98,285.18,175.53,281.13,175.53,275.52z"/>
	<path class="st0" d="M204.74,261.17H207v6.67c1.84-4.19,5.75-7.22,10.4-7.04v2.48h-0.23c-5.43,0-10.17,4.09-10.17,11.73v9.62h-2.25
		V261.17z"/>
	<path class="st0" d="M220.94,272.99v-0.09c0-6.58,5.11-12.28,12.1-12.28c6.95,0,12.01,5.61,12.01,12.19v0.09
		c0,6.58-5.11,12.28-12.1,12.28C226,285.18,220.94,279.57,220.94,272.99z M242.6,272.99v-0.09c0-5.66-4.23-10.17-9.66-10.17
		c-5.57,0-9.57,4.55-9.57,10.08v0.09c0,5.66,4.23,10.17,9.66,10.17C238.6,283.06,242.6,278.51,242.6,272.99z"/>
	<path class="st0" d="M252.54,261.17h2.25v5.25c2.02-3.08,5.01-5.8,9.66-5.8c5.66,0,11.41,4.55,11.41,12.19v0.09
		c0,7.64-5.75,12.28-11.41,12.28c-4.69,0-7.73-2.67-9.66-5.61v12.42h-2.25V261.17z M273.42,272.99v-0.09
		c0-6.17-4.28-10.12-9.2-10.12c-4.88,0-9.57,4.09-9.57,10.08v0.09c0,6.03,4.69,10.08,9.57,10.08
		C269.33,283.02,273.42,279.29,273.42,272.99z"/>
	<path class="st0" d="M281.84,272.94v-0.09c0-6.81,4.78-12.24,11.13-12.24c6.58,0,10.77,5.34,10.77,12.28c0,0.41,0,0.55-0.05,0.92
		h-19.46c0.41,5.84,4.6,9.25,9.2,9.25c3.63,0,6.12-1.61,8.05-3.68l1.56,1.38c-2.39,2.58-5.2,4.42-9.71,4.42
		C287.17,285.18,281.84,280.26,281.84,272.94z M301.3,271.79c-0.32-4.74-3.04-9.11-8.42-9.11c-4.65,0-8.23,3.91-8.65,9.11H301.3z"/>
	<path class="st0" d="M343.99,279.52c-3.04,3.54-6.58,5.57-10.9,5.57c-5.66,0-9.89-3.68-9.89-8.92v-0.09c0-4.33,3.08-7.5,8.33-9.43
		c-2.44-2.71-3.59-4.69-3.59-7.36v-0.09c0-4.14,3.36-7.32,8.05-7.32c4.19,0,7.41,3.13,7.41,6.99v0.09c0,4-2.99,6.62-7.91,8.33
		l8.46,8.69c1.56-2.21,2.94-4.88,4.19-7.82l2.16,0.87c-1.47,3.31-3.04,6.21-4.79,8.56l5.94,6.12l-1.89,1.56L343.99,279.52z
		 M342.47,277.96l-9.52-9.84c-5.11,1.75-7.36,4.74-7.36,7.87v0.09c0,3.91,3.13,6.95,7.54,6.95
		C336.72,283.02,339.8,281.09,342.47,277.96z M341,259.05v-0.09c0-2.85-2.21-5.06-5.11-5.06c-3.27,0-5.57,2.3-5.57,5.2v0.09
		c0,2.02,0.87,3.59,3.73,6.62C338.65,264.34,341,262.09,341,259.05z"/>
	<path class="st0" d="M372.96,252.43h2.39v32.2h-2.39V252.43z"/>
	<path class="st0" d="M385.29,261.17h2.25v4.37c1.56-2.76,4.19-4.92,8.46-4.92c5.93,0,9.38,4.05,9.38,9.66v14.35h-2.25v-13.94
		c0-4.83-2.71-8-7.45-8c-4.6,0-8.14,3.5-8.14,8.37v13.57h-2.25V261.17z"/>
	<path class="st0" d="M415.28,278.6v-15.37h-3.4v-2.07h3.4v-7.5h2.25v7.5h8.24v2.07h-8.24v15.14c0,3.36,1.98,4.55,4.69,4.55
		c1.15,0,2.12-0.23,3.45-0.83v2.12c-1.2,0.55-2.35,0.83-3.82,0.83C418.23,285.04,415.28,283.06,415.28,278.6z"/>
	<path class="st0" d="M430.69,272.94v-0.09c0-6.81,4.79-12.24,11.13-12.24c6.58,0,10.76,5.34,10.76,12.28c0,0.41,0,0.55-0.05,0.92
		h-19.46c0.41,5.84,4.6,9.25,9.2,9.25c3.63,0,6.12-1.61,8.05-3.68l1.56,1.38c-2.39,2.58-5.2,4.42-9.71,4.42
		C436.03,285.18,430.69,280.26,430.69,272.94z M450.15,271.79c-0.32-4.74-3.04-9.11-8.42-9.11c-4.65,0-8.24,3.91-8.65,9.11H450.15z"
		/>
	<path class="st0" d="M459.72,261.17h2.25v6.67c1.84-4.19,5.75-7.22,10.4-7.04v2.48h-0.23c-5.43,0-10.17,4.09-10.17,11.73v9.62
		h-2.25V261.17z"/>
	<path class="st0" d="M478.67,261.17h2.25v4.37c1.56-2.76,4.19-4.92,8.46-4.92c5.93,0,9.38,4.05,9.38,9.66v14.35h-2.25v-13.94
		c0-4.83-2.71-8-7.45-8c-4.6,0-8.14,3.5-8.14,8.37v13.57h-2.25V261.17z"/>
	<path class="st0" d="M505.49,277.82v-0.09c0-4.88,4.19-7.64,10.26-7.64c3.27,0,5.52,0.41,7.77,1.01v-1.01
		c0-4.74-2.9-7.18-7.73-7.18c-2.85,0-5.2,0.78-7.36,1.89l-0.83-1.98c2.58-1.2,5.11-2.02,8.33-2.02c3.17,0,5.71,0.87,7.41,2.58
		c1.56,1.56,2.39,3.73,2.39,6.62v14.63h-2.21v-3.91c-1.61,2.25-4.51,4.46-8.97,4.46C510.18,285.18,505.49,282.7,505.49,277.82z
		 M523.57,275.84v-2.67c-1.98-0.51-4.6-1.06-7.96-1.06c-4.97,0-7.73,2.21-7.73,5.47v0.09c0,3.41,3.22,5.38,6.81,5.38
		C519.47,283.06,523.57,280.12,523.57,275.84z"/>
	<path class="st0" d="M535.39,278.6v-15.37h-3.4v-2.07h3.4v-7.5h2.25v7.5h8.24v2.07h-8.24v15.14c0,3.36,1.98,4.55,4.69,4.55
		c1.15,0,2.12-0.23,3.45-0.83v2.12c-1.2,0.55-2.35,0.83-3.82,0.83C538.33,285.04,535.39,283.06,535.39,278.6z"/>
	<path class="st0" d="M553.14,251.97h2.81v3.08h-2.81V251.97z M553.42,261.17h2.25v23.46h-2.25V261.17z"/>
	<path class="st0" d="M563.49,272.99v-0.09c0-6.58,5.11-12.28,12.1-12.28c6.95,0,12.01,5.61,12.01,12.19v0.09
		c0,6.58-5.11,12.28-12.1,12.28C568.55,285.18,563.49,279.57,563.49,272.99z M585.16,272.99v-0.09c0-5.66-4.23-10.17-9.66-10.17
		c-5.57,0-9.57,4.55-9.57,10.08v0.09c0,5.66,4.23,10.17,9.66,10.17C581.16,283.06,585.16,278.51,585.16,272.99z"/>
	<path class="st0" d="M595.09,261.17h2.25v4.37c1.56-2.76,4.19-4.92,8.46-4.92c5.93,0,9.38,4.05,9.38,9.66v14.35h-2.25v-13.94
		c0-4.83-2.71-8-7.45-8c-4.6,0-8.14,3.5-8.14,8.37v13.57h-2.25V261.17z"/>
	<path class="st0" d="M621.91,277.82v-0.09c0-4.88,4.19-7.64,10.26-7.64c3.27,0,5.52,0.41,7.77,1.01v-1.01
		c0-4.74-2.9-7.18-7.73-7.18c-2.85,0-5.2,0.78-7.36,1.89l-0.83-1.98c2.58-1.2,5.11-2.02,8.33-2.02c3.17,0,5.71,0.87,7.41,2.58
		c1.56,1.56,2.39,3.73,2.39,6.62v14.63h-2.21v-3.91c-1.61,2.25-4.51,4.46-8.97,4.46C626.6,285.18,621.91,282.7,621.91,277.82z
		 M639.99,275.84v-2.67c-1.98-0.51-4.6-1.06-7.96-1.06c-4.97,0-7.73,2.21-7.73,5.47v0.09c0,3.41,3.22,5.38,6.81,5.38
		C635.9,283.06,639.99,280.12,639.99,275.84z"/>
	<path class="st0" d="M651.12,251.05h2.25v33.58h-2.25V251.05z"/>
</g>
</svg>
