<svg id="Layer_1" data-name="Layer 1" xmlns="http://www.w3.org/2000/svg" viewBox="0 0 480.49 410.9"><defs><style>.cls-1{fill:#0069b4;}.cls-2{fill:#ffde00;}.cls-3{fill:#64b445;}</style></defs><title>aviva-investors-logo</title><path class="cls-1" d="M0,359.65A7.42,7.42,0,0,1,3.39,361a3.55,3.55,0,0,1,1.77,2.91v45.28H18.57V358H0Zm76.79,36.1L48.13,358H28.49v1.69A7.42,7.42,0,0,1,31.88,361a3.54,3.54,0,0,1,1.76,2.92v45.27H43.72V375l25.79,34.16h17.3V358h-10Zm52.25-.38L114.09,358H95.23v1.69c3,.61,4.92,2,5.77,4.09l18,45.42h14.43L154.77,358H144.71Zm33-35.72a7.44,7.44,0,0,1,3.39,1.28,3.62,3.62,0,0,1,1.77,3v45.27h35.51V401.7H180.58v-16h20.25v-7.27H180.58v-13h22.09V358H162Zm78.91,20.63q-7.4-4.53-7.91-4.91-6-4.08-5.95-6.1a3.38,3.38,0,0,1,1.38-2.7c1.78-1.48,4.46-2.22,8.07-2.22a18.71,18.71,0,0,1,6.14.9c3.23,1.18,5.19,2.82,5.89,4.95h1.61v-11A45.44,45.44,0,0,0,235.7,357q-10.78,0-16.71,4c-3.7,2.5-5.55,5.82-5.55,9.92,0,3.37,1.47,6.53,4.43,9.45a47.51,47.51,0,0,0,8.76,6.33c4.45,2.73,6.88,4.24,7.31,4.54,3.07,2.31,4.61,4.53,4.61,6.63,0,1.77-1,3.09-2.88,4a13,13,0,0,1-5.17.94,37.74,37.74,0,0,1-17.65-4.15v9a54.53,54.53,0,0,0,16.4,2.47A37.77,37.77,0,0,0,242,408.18c7.16-2.51,10.71-6.88,10.71-13.07Q252.74,387.63,240.91,380.28Zm18.36-14.85h18.42v43.73h13.42V365.43h18.42V358H259.27Zm160,26.23c-.84-1-1.42-1.66-1.75-2a21.57,21.57,0,0,0-3.49-3.45q15.09-2.32,15.09-13.24,0-15-21.83-15H378.66v1.69a7.44,7.44,0,0,1,3.32,1.28,3.38,3.38,0,0,1,1.85,2.81v45.41h13.41V386.76a23.35,23.35,0,0,1,5.71,4.45c.85.9,2.39,2.77,4.65,5.59l9.89,12.35h15.92l-12.08-14.92Zm-17.46-9c-1.93,0-3.45-.05-4.58-.15v-18h4.93a33.63,33.63,0,0,1,7.34.67q6.19,1.44,6.2,7.75C415.71,379.43,411.07,382.66,401.82,382.66Zm66.84-2.38q-7.38-4.53-7.91-4.91-6-4.08-6-6.1a3.34,3.34,0,0,1,1.39-2.7q2.65-2.22,8.06-2.22a18.81,18.81,0,0,1,6.15.9c3.22,1.18,5.18,2.82,5.89,4.95h1.6v-11A45.42,45.42,0,0,0,463.45,357q-10.79,0-16.72,4c-3.7,2.5-5.54,5.82-5.54,9.92,0,3.37,1.47,6.53,4.42,9.45a47.66,47.66,0,0,0,8.77,6.33c4.44,2.73,6.88,4.24,7.3,4.54,3.07,2.31,4.61,4.53,4.61,6.63q0,2.65-2.88,4a12.94,12.94,0,0,1-5.17.94,37.7,37.7,0,0,1-17.64-4.15v9A54.64,54.64,0,0,0,457,410.09a37.78,37.78,0,0,0,12.77-1.91c7.13-2.51,10.71-6.88,10.71-13.07Q480.49,387.63,468.66,380.28ZM342.79,356.61c-18.54,0-29.92,12.15-29.92,27.14s11.38,27.15,29.92,27.15,29.91-12.15,29.91-27.15S361.34,356.61,342.79,356.61Zm0,46.28c-10.26,0-15.92-5.62-15.92-19.14s5.66-19.14,15.92-19.14,15.94,5.62,15.94,19.14S353,402.89,342.79,402.89Z"/><path class="cls-1" d="M219,242.05c2,.35,9.11,2.43,9.11,7.48v81h24.08V239.16H219ZM32,239.16v2.89c2.92.6,9.24,2.37,6.67,8.07L2.79,330.55h19L33,305.47H72.79l9.83,25.08h24.95L71.93,239.16Zm6.08,55,16.13-35.95,14.09,35.95Zm398.31-55h-39.9v2.89c2.91.6,9.24,2.37,6.66,8.07l-35.89,80.43h19l11.23-25.08h39.78l9.84,25.08h25Zm-33.82,55,16.12-35.95,14.1,35.95Zm-47.71-55-27.93,67-26.57-67H266.54V242c3.91.76,8.31,2.44,10.31,7.5l32.12,81h25.84l38.08-91.39ZM160,306.17l-26.58-67H99.62V242c3.92.76,8.29,2.44,10.3,7.5l32.11,81h25.86L206,239.16H188Z"/><path class="cls-2" d="M303.55,164.72,287.54,0h0L271.3,167.46q15.79-1.72,32.25-2.74"/><path class="cls-3" d="M342.66,163.54V0L287.54,0V0l16,164.72c12.75-.77,25.81-1.18,39.1-1.2"/><path class="cls-1" d="M271.3,167.48,287.53,0V0L143.41,0V198.87c33.86-14.84,78-25.89,127.89-31.39"/></svg>