<svg id="Layer_1" data-name="Layer 1" xmlns="http://www.w3.org/2000/svg" viewBox="0 0 182.16 44.41"><defs><style>.cls-1{fill:#0069b4;}.cls-2{fill:#ffde00;}.cls-3{fill:#64b445;}</style></defs><title>aviva-investors-secondary-logo</title><path class="cls-1" d="M58.66,31.24a1.83,1.83,0,0,1,.87.34.9.9,0,0,1,.46.75V44h3.45V30.81H58.66ZM78.4,40.52,71,30.81H66v.43a1.91,1.91,0,0,1,.87.34.91.91,0,0,1,.45.75V44H69.9V35.19L76.53,44H81V30.81H78.4Zm13.43-.1L88,30.81H83.14v.43a1.83,1.83,0,0,1,1.48,1.05L89.26,44H93l5.47-13.15H95.86Zm8.47-9.18a1.92,1.92,0,0,1,.87.33,1,1,0,0,1,.46.76V44h9.12V42.05h-5.67V37.93h5.2V36.06h-5.2V32.73h5.67V30.81H100.3Zm20.28,5.3c-1.26-.77-1.94-1.2-2-1.26-1-.7-1.53-1.22-1.53-1.57a.87.87,0,0,1,.35-.69,3.21,3.21,0,0,1,2.08-.57,5,5,0,0,1,1.58.23A2.23,2.23,0,0,1,122.54,34H123V31.12a11.7,11.7,0,0,0-3.71-.55,7.73,7.73,0,0,0-4.29,1,3,3,0,0,0-1.43,2.56,3.36,3.36,0,0,0,1.14,2.42,11.75,11.75,0,0,0,2.25,1.63c1.15.7,1.77,1.09,1.88,1.17.79.59,1.18,1.16,1.18,1.7a1.07,1.07,0,0,1-.74,1,3.29,3.29,0,0,1-1.33.24,9.75,9.75,0,0,1-4.53-1.06v2.31a14.14,14.14,0,0,0,4.22.63,9.68,9.68,0,0,0,3.28-.49c1.84-.64,2.75-1.76,2.75-3.36Q123.62,38.43,120.58,36.54Zm4.72-3.81H130V44h3.44V32.73h4.74V30.81H125.3Zm41.13,6.74-.45-.53a5.5,5.5,0,0,0-.9-.88c2.58-.4,3.88-1.54,3.88-3.41,0-2.56-1.88-3.84-5.61-3.84H156v.43a1.89,1.89,0,0,1,.85.33.86.86,0,0,1,.47.72V44h3.45V38.21a5.91,5.91,0,0,1,1.47,1.14c.21.23.61.71,1.19,1.44L166,44h4.09L167,40.13Zm-4.49-2.32c-.5,0-.89,0-1.18,0V32.49H162a8.32,8.32,0,0,1,1.88.17,1.85,1.85,0,0,1,1.6,2Q165.51,37.16,161.94,37.15Zm17.17-.61c-1.26-.77-1.94-1.2-2-1.26-1-.7-1.53-1.22-1.53-1.57a.85.85,0,0,1,.36-.69,3.16,3.16,0,0,1,2.07-.57,4.92,4.92,0,0,1,1.58.23A2.21,2.21,0,0,1,181.07,34h.42V31.12a11.79,11.79,0,0,0-3.71-.55,7.77,7.77,0,0,0-4.3,1,3,3,0,0,0-1.43,2.56,3.36,3.36,0,0,0,1.14,2.42,12.23,12.23,0,0,0,2.26,1.63c1.14.7,1.76,1.09,1.87,1.17.79.59,1.19,1.16,1.19,1.7a1.08,1.08,0,0,1-.74,1,3.33,3.33,0,0,1-1.33.24,9.76,9.76,0,0,1-4.54-1.06v2.31a14.24,14.24,0,0,0,4.22.63,9.64,9.64,0,0,0,3.28-.49q2.76-1,2.76-3.36Q182.16,38.43,179.11,36.54Zm-32.34-6.08c-4.77,0-7.69,3.12-7.69,7s2.92,7,7.69,7,7.68-3.12,7.68-7S151.53,30.46,146.77,30.46Zm0,11.89c-2.64,0-4.09-1.44-4.09-4.92s1.45-4.91,4.09-4.91,4.09,1.44,4.09,4.91S149.4,42.35,146.77,42.35Z"/><path class="cls-1" d="M115,1c.51.09,2.34.63,2.34,1.93V23.76h6.18V.27H115ZM66.89.27V1c.76.16,2.38.61,1.72,2.08L59.38,23.76h4.88l2.89-6.45H77.37l2.53,6.45h6.41L77.15.27ZM68.46,14.4l4.15-9.24,3.62,9.24ZM170.83.27H160.58V1c.74.16,2.37.61,1.71,2.08l-9.23,20.67h4.88l2.88-6.45h10.23l2.53,6.45H180ZM162.14,14.4l4.14-9.24,3.63,9.24ZM149.87.27,142.7,17.49,135.87.27h-8.7V1a3.27,3.27,0,0,1,2.65,1.93l8.25,20.82h6.65L154.5.27ZM99.8,17.49,93,.27h-8.7V1a3.27,3.27,0,0,1,2.65,1.93l8.25,20.82h6.65L111.61.27H107Z"/><path class="cls-2" d="M35.59,36.6,32,0h0L28.42,37.21c2.34-.25,4.73-.46,7.17-.61"/><path class="cls-3" d="M44.28,36.34V0H32l3.56,36.61c2.83-.17,5.73-.27,8.69-.27"/><path class="cls-1" d="M28.42,37.22,32,0H0V44.19c7.53-3.3,17.33-5.75,28.42-7"/></svg>