<?xml version="1.0" encoding="utf-8"?>
<!-- Generator: Adobe Illustrator 26.3.1, SVG Export Plug-In . SVG Version: 6.00 Build 0)  -->
<svg version="1.1" xmlns="http://www.w3.org/2000/svg" xmlns:xlink="http://www.w3.org/1999/xlink" x="0px" y="0px"
	 viewBox="0 0 219.9 45.4" style="enable-background:new 0 0 219.9 45.4;" xml:space="preserve">
<style type="text/css">
	.st0{fill:url(#SVGID_1_);}
	.st1{fill:url(#SVGID_00000071532179208722303090000001420074789945972352_);}
	.st2{fill:url(#SVGID_00000059302809797839373510000010051803080982367136_);}
	.st3{fill:url(#SVGID_00000028309578527453408200000012930765304282856379_);}
	.st4{fill:url(#SVGID_00000115511423173005322430000015394122350911730333_);}
	.st5{fill:url(#SVGID_00000018224701689047833280000004089983456866119559_);}
	.st6{fill:#FFFFFF;}
</style>
<symbol  id="volume" viewBox="-22.7 -22.7 45.4 45.4">
	<g>
		<linearGradient id="SVGID_1_" gradientUnits="userSpaceOnUse" x1="0" y1="23.7934" x2="2.931637e-15" y2="-24.0838">
			<stop  offset="0" style="stop-color:#008053"/>
			<stop  offset="0.6" style="stop-color:#7FCBAE"/>
			<stop  offset="1" style="stop-color:#00A76D"/>
		</linearGradient>
		<rect x="-22.7" y="-22.7" class="st0" width="45.4" height="45.4"/>
		
			<linearGradient id="SVGID_00000129900208685668675810000013907066748183277738_" gradientUnits="userSpaceOnUse" x1="-7.154047e-02" y1="33.9436" x2="-7.154047e-02" y2="-19.8565">
			<stop  offset="0" style="stop-color:#00A76D"/>
			<stop  offset="0.3" style="stop-color:#7FCBAE"/>
			<stop  offset="0.55" style="stop-color:#00A76D"/>
			<stop  offset="0.8352" style="stop-color:#008053"/>
			<stop  offset="0.8691" style="stop-color:#008558"/>
			<stop  offset="0.9244" style="stop-color:#009264"/>
			<stop  offset="0.9938" style="stop-color:#00A97A"/>
			<stop  offset="1" style="stop-color:#00AD7D"/>
		</linearGradient>
		<path style="fill:url(#SVGID_00000129900208685668675810000013907066748183277738_);" d="M21.3-0.3c0-9.5,0.4-19.2,0.4-19.2
			c0-1.1-0.7-1.8-1.6-1.8h-39.3c-0.9,0-1.5,0.8-1.6,1.8c0,0-1.1,8.3-1.1,20.9c0,12.6,1.1,18.6,1.1,18.6c0.1,1,0.7,1.8,1.6,1.8h39.3
			c0.9,0,1.6-0.8,1.6-1.8C21.7,20.1,21.3,9.2,21.3-0.3z"/>
		<g>
			<g>
				
					<linearGradient id="SVGID_00000158734108879919403440000013706992320641329566_" gradientUnits="userSpaceOnUse" x1="8.5463" y1="-16.8858" x2="8.5463" y2="17.9297">
					<stop  offset="0" style="stop-color:#00B387"/>
					<stop  offset="1" style="stop-color:#00A76D"/>
				</linearGradient>
				<path style="fill:url(#SVGID_00000158734108879919403440000013706992320641329566_);" d="M12.5,10.4C9.7,8.8,8.9,8.7,5.8,6.8
					L6,7.2c1.6,1.7,2.3,2.5,3.3,4c-2.8-0.2-6.9-0.5-9.8-1.1l0,0l0,0l0,0l0.2,0.3c2.6,1.3,7.6,2.6,10.1,2.9c-0.6,0.9-5.6,3.6-6.8,4.1
					l0,0l0,0l0,0l0.1,0.3c3.8-0.4,8.8-2.2,10.9-3.5c0.9,0.3,1.9,0.3,3.6,0.5c0,0-0.3-1-2.1-2.3l0,0l0,0l0,0c0.5-1.2-0.6-8.1-1.6-9.9
					l0,0l0,0l0,0C13.9,5.3,13.6,8.9,12.5,10.4z"/>
				
					<linearGradient id="SVGID_00000011735284720201015460000009762782653564382351_" gradientUnits="userSpaceOnUse" x1="-13.0547" y1="-16.8878" x2="-13.0547" y2="17.9381">
					<stop  offset="0" style="stop-color:#00B387"/>
					<stop  offset="1" style="stop-color:#00A76D"/>
				</linearGradient>
				<path style="fill:url(#SVGID_00000011735284720201015460000009762782653564382351_);" d="M-8-14.1l0.1,0.3c-1.5,0.6-3,1-4.2,2.2
					l0,0l0,0l0,0l0,0l0,0l0,0l0,0l0,0l0,0l0,0l0,0l0,0l0,0l0,0l0,0l0,0l0,0l0,0l0,0l0,0l0,0l0,0l0,0l0,0l0,0l0,0l0,0l0,0l0,0l0,0
					l0,0c0.4,1.1,0.8,1.9,1.5,2.9l0,0l0,0l0,0l0,0l0,0l0,0l0,0l0,0l0,0l0,0l0,0l0,0l0,0l0,0l0,0l0,0l0,0l0,0l0,0l0,0l0,0l0,0l0,0
					l0,0l0,0l0,0l0,0l0,0l0,0l0,0l0,0l0.1,0.3c-1.3-0.2-2.4-0.7-3.5-0.9l0,0l0,0l0,0l0,0l0,0l0,0l0,0l0,0l0,0l0,0l0,0l0,0l0,0l0,0
					l0,0l0,0l0,0l0,0l0,0l0,0l0,0l0,0l0,0l0,0l0,0l0,0l0,0l0,0l0,0l0,0l0,0c-0.9,1.5-1.2,3.6-1.7,5.6l-0.1-0.3l0,0l0,0l0,0l0,0l0,0
					l0,0l0,0l0,0l0,0l0,0l0,0l0,0l0,0l0,0l0,0c-0.2-2.3-0.3-3.9,0-5.7l0,0l0,0l0,0l0,0l0,0l0,0l0,0l0,0l0,0l0,0l0,0l0,0l0,0l0,0l0,0
					l0,0l0,0l0,0l0,0l0,0l0,0l0,0l0,0l0,0l0,0l0,0l0,0l0,0l0,0l0,0l0,0c-0.9-0.3-1.7-0.3-2.5-0.6l-0.1-0.3l0,0l0,0l0,0l0,0l0,0l0,0
					l0,0l0,0l0,0l0,0l0,0l0,0l0,0l0,0l0,0l0,0l0,0l0,0l0,0l0,0l0,0l0,0l0,0l0,0l0,0l0,0l0,0l0,0l0,0l0,0l0,0
					c1.2-0.7,2.1-1.3,3.5-1.9l0,0l0,0l0,0l0,0l0,0l0,0l0,0l0,0l0,0l0,0l0,0l0,0l0,0l0,0l0,0l0,0l0,0l0,0l0,0l0,0l0,0l0,0l0,0l0,0
					l0,0l0,0l0,0l0,0l0,0l0,0l0,0c0.7-1.5,1.5-2.6,2.7-3.8l0,0l0,0l0,0l0,0l0,0l0,0l0,0l0,0l0,0l0,0l0,0l0,0l0,0l0,0l0,0l0,0l0,0
					l0,0l0,0l0,0l0,0l0,0l0,0l0,0l0,0l0,0l0,0l0,0l0,0l0,0l0,0l0.1,0.3c-0.2,0.9-0.5,1.6-0.4,2.6l0,0l0,0l0,0l0,0l0,0l0,0l0,0l0,0
					l0,0l0,0l0,0l0,0l0,0l0,0l0,0l0,0l0,0l0,0l0,0l0,0l0,0l0,0l0,0l0,0l0,0l0,0l0,0l0,0l0,0l0,0l0,0C-10.9-13.8-9.6-14-8-14.1z"/>
				
					<linearGradient id="SVGID_00000119090073220724136780000018265845159080304557_" gradientUnits="userSpaceOnUse" x1="-6.3257" y1="-16.8801" x2="-6.3257" y2="17.9245">
					<stop  offset="0" style="stop-color:#00B387"/>
					<stop  offset="1" style="stop-color:#00A76D"/>
				</linearGradient>
				<path style="fill:url(#SVGID_00000119090073220724136780000018265845159080304557_);" d="M-3.8,8.7c0,0-0.6-1.1-1.1-2.5H-5l0,0
					l0,0c3.5-0.5,6.8-1.9,7.6-2.4L2.5,3.5l0,0l0,0l0,0l0,0l0,0l0,0l0,0C-1.2,4.2-3.1,4.1-4.4,4l0,0l0,0l0,0C-5.8,3.8-6,3.7-6,3.7
					l0,0l0,0l0,0l0,0l0,0l0,0l0,0C-6.8,2-7.3-0.8-7.5-1.8l-0.1-0.3l0,0l0,0l0,0l0,0l0,0l0,0l0,0c-0.7,1.6-1.6,4.8-1.6,4.8l0,0l0,0
					l0,0l0,0l0,0l0,0l0,0c-1.8-1-6-4.9-6-4.9l0,0l0,0l0,0l0,0l0,0l0,0l0,0c2.3,4.6,4.7,6.7,4.7,6.7l0,0l0,0l0,0l0,0l0,0l0,0l0,0
					c-0.8,0.8-2.9,1.2-4.5,1.3l0,0l0,0l0,0l0.1,0.3c1,0.3,3,0.4,4.3,0.5l0,0l0,0l0,0l0,0l0,0l0,0l0,0c1.6,0,2.5,0,2.5,0l0,0l0,0l0,0
					C-6.7,7.6-4.6,8.6-3.8,8.7z"/>
				
					<linearGradient id="SVGID_00000041279605477568570440000015350896206635502985_" gradientUnits="userSpaceOnUse" x1="-0.5078" y1="-16.8852" x2="-0.5078" y2="17.9244">
					<stop  offset="0" style="stop-color:#00B387"/>
					<stop  offset="1" style="stop-color:#00A76D"/>
				</linearGradient>
				<path style="fill:url(#SVGID_00000041279605477568570440000015350896206635502985_);" d="M0.6-11.2c-0.7-1-1.4-1.8-2.2-2.7l0,0
					l0,0l0,0l0,0l0,0l0,0l0,0l0,0l0,0l0,0l0,0l0,0l0,0l0,0l0,0l0,0l0,0l0,0l0,0l0,0l0,0l0,0l0,0l0,0l0,0l0,0l0,0l0,0l0,0l0,0l0,0
					c-1.2-0.3-2.6-0.2-3.7-0.2l-0.1-0.3l0,0l0,0l0,0l0,0l0,0l0,0l0,0l0,0l0,0l0,0l0,0l0,0l0,0l0,0l0,0l0,0l0,0l0,0l0,0l0,0l0,0l0,0
					l0,0l0,0l0,0l0,0l0,0l0,0l0,0l0,0l0,0c0.8-0.4,1.6-0.7,2.5-0.9l0,0l0,0l0,0l0,0l0,0l0,0l0,0l0,0l0,0l0,0l0,0l0,0l0,0l0,0l0,0
					l0,0l0,0l0,0l0,0l0,0l0,0l0,0l0,0l0,0l0,0l0,0l0,0l0,0l0,0l0,0l0,0c-0.7-0.6-1.6-1.1-2.3-1.6l-0.1-0.3l0,0l0,0l0,0l0,0l0,0l0,0
					l0,0l0,0l0,0l0,0l0,0l0,0l0,0l0,0l0,0l0,0l0,0l0,0l0,0l0,0l0,0l0,0l0,0l0,0l0,0l0,0l0,0l0,0l0,0l0,0l0,0
					c1.4,0.3,3.3,0.9,4.7,1.8l0,0l0,0l0,0l0,0l0,0l0,0l0,0l0,0l0,0l0,0l0,0l0,0l0,0l0,0l0,0l0,0l0,0l0,0l0,0l0,0l0,0l0,0l0,0l0,0
					l0,0l0,0l0,0l0,0l0,0l0,0l0,0c0.7,0,1.4,0,1.9,0.1l0,0l0,0l0,0l0,0l0,0l0,0l0,0l0,0l0,0l0,0l0,0l0,0l0,0l0,0l0,0l0,0l0,0l0,0
					l0,0l0,0l0,0l0,0l0,0l0,0l0,0l0,0l0,0l0,0l0,0l0,0l0,0c0,0,0.1,0.3,0.1,0.3c-0.1,0.3-0.4,0.5-0.5,1l0,0l0,0l0,0l0,0l0,0l0,0l0,0
					l0,0l0,0l0,0l0,0l0,0l0,0l0,0l0,0l0,0l0,0l0,0l0,0l0,0l0,0l0,0l0,0l0,0l0,0l0,0l0,0l0,0l0,0l0,0l0,0c1.3,1,2.2,1.9,3.3,3l0,0
					l0,0l0,0l0,0l0,0l0,0l0,0l0,0l0,0l0,0l0,0l0,0l0,0l0,0l0,0l0,0l0,0l0,0l0,0l0,0l0,0l0,0l0,0l0,0l0,0l0,0l0,0l0,0l0,0l0,0l0,0
					l0.2,0.3c-1.1-0.7-2.4-1.8-3.6-2.4l0,0l0,0l0,0l0,0l0,0l0,0l0,0l0,0l0,0l0,0l0,0l0,0l0,0l0,0l0,0l0,0l0,0l0,0l0,0l0,0l0,0l0,0
					l0,0l0,0l0,0l0,0l0,0l0,0l0,0l0,0l0,0C0.7-12.4,0.7-11.9,0.6-11.2z"/>
			</g>
			<g>
				<path class="st6" d="M12.7,10.7C9.9,9.1,9,9,6,7.1c1.8,1.9,2.4,2.7,3.5,4.4c-2.8-0.1-6.9-0.5-9.8-1.1l0,0l0,0l0,0
					c2.5,1.4,7.6,2.9,10.2,3.2c-0.6,0.8-5.6,3.5-6.8,4.1l0,0l0,0l0,0c3.9-0.3,8.8-1.8,11.1-3.2c0.9,0.3,1.9,0.3,3.6,0.5l0,0l0,0l0,0
					c-0.4-0.7-0.5-1.2-2.1-2.3l0,0l0,0l0,0c0.5-1.2-0.6-8.1-1.6-9.9l0,0l0,0l0,0C14,5.6,13.8,9.2,12.7,10.7z"/>
				<path class="st6" d="M-7.8-13.8c-1.6,0.6-2.8,1.3-4,2.5l0,0l0,0l0,0l0,0l0,0l0,0l0,0l0,0l0,0l0,0l0,0l0,0l0,0l0,0l0,0l0,0l0,0
					l0,0l0,0l0,0l0,0l0,0l0,0l0,0l0,0l0,0l0,0l0,0l0,0l0,0l0,0c0.4,1.1,0.8,1.9,1.5,2.9l0,0l0,0l0,0l0,0l0,0l0,0l0,0l0,0l0,0l0,0
					l0,0l0,0l0,0l0,0l0,0l0,0l0,0l0,0l0,0l0,0l0,0l0,0l0,0l0,0l0,0l0,0l0,0l0,0l0,0l0,0l0,0c-1.3-0.2-2.3-0.3-3.4-0.6l0,0l0,0l0,0
					l0,0l0,0l0,0l0,0l0,0l0,0l0,0l0,0l0,0l0,0l0,0l0,0l0,0l0,0l0,0l0,0l0,0l0,0l0,0l0,0l0,0l0,0l0,0l0,0l0,0l0,0l0,0l0,0
					c-0.9,1.6-1.3,3.2-1.8,5.3l0,0l0,0l0,0l0,0l0,0l0,0l0,0l0,0l0,0l0,0l0,0l0,0l0,0l0,0l0,0c-0.2-2.3-0.3-3.9,0-5.7l0,0l0,0l0,0
					l0,0l0,0l0,0l0,0l0,0l0,0l0,0l0,0l0,0l0,0l0,0l0,0l0,0l0,0l0,0l0,0l0,0l0,0l0,0l0,0l0,0l0,0l0,0l0,0l0,0l0,0l0,0l0,0
					c-1-0.3-1.8-0.5-2.6-0.9l0,0l0,0l0,0l0,0l0,0l0,0l0,0l0,0l0,0l0,0l0,0l0,0l0,0l0,0l0,0l0,0l0,0l0,0l0,0l0,0l0,0l0,0l0,0l0,0l0,0
					l0,0l0,0l0,0l0,0l0,0l0,0c1.2-0.7,2.2-1.3,3.5-1.9l0,0l0,0l0,0l0,0l0,0l0,0l0,0l0,0l0,0l0,0l0,0l0,0l0,0l0,0l0,0l0,0l0,0l0,0
					l0,0l0,0l0,0l0,0l0,0l0,0l0,0l0,0l0,0l0,0l0,0l0,0l0,0c0.7-1.5,1.5-2.6,2.7-3.8l0,0l0,0l0,0l0,0l0,0l0,0l0,0l0,0l0,0l0,0l0,0
					l0,0l0,0l0,0l0,0l0,0l0,0l0,0l0,0l0,0l0,0l0,0l0,0l0,0l0,0l0,0l0,0l0,0l0,0l0,0l0,0c-0.3,1-0.4,1.8-0.2,2.9l0,0l0,0l0,0l0,0l0,0
					l0,0l0,0l0,0l0,0l0,0l0,0l0,0l0,0l0,0l0,0l0,0l0,0l0,0l0,0l0,0l0,0l0,0l0,0l0,0l0,0l0,0l0,0l0,0l0,0l0,0l0,0
					C-10.8-13.5-9.5-13.7-7.8-13.8z"/>
				<path class="st6" d="M-3.6,9L-3.6,9L-3.6,9L-3.6,9L-3.6,9c-0.5-0.7-1.1-1.9-1.2-2.4l0,0l0,0l0,0C-0.7,6,2.6,3.8,2.6,3.8l0,0l0,0
					l0,0l0,0l0,0l0,0l0,0C-1,4.5-2.9,4.4-4.3,4.3l0,0l0,0l0,0C-5.6,4.2-5.9,4-5.9,4l0,0l0,0l0,0l0,0l0,0l0,0l0,0
					c-1-2.1-1.6-5.8-1.6-5.8l0,0l0,0l0,0l0,0l0,0l0,0l0,0C-8.1-0.2-9.1,3-9.1,3l0,0l0,0l0,0l0,0l0,0l0,0l0,0c-1.8-1-6-4.9-6-4.9l0,0
					l0,0l0,0l0,0l0,0l0,0l0,0c2.3,4.6,4.7,6.7,4.7,6.7l0,0l0,0l0,0l0,0l0,0l0,0l0,0c-0.8,0.8-2.9,1.2-4.5,1.3l0,0l0,0l0,0
					c0.8,0.3,2.9,0.7,4.5,0.8l0,0l0,0l0,0l0,0l0,0l0,0l0,0c1.6,0,2.5,0,2.5,0l0,0l0,0l0,0C-6.5,7.9-4.4,8.9-3.6,9z"/>
				<path class="st6" d="M0.8-10.9c-0.7-1-1.4-1.8-2.2-2.7l0,0l0,0l0,0l0,0l0,0l0,0l0,0l0,0l0,0l0,0l0,0l0,0l0,0l0,0l0,0l0,0l0,0
					l0,0l0,0l0,0l0,0l0,0l0,0l0,0l0,0l0,0l0,0l0,0l0,0l0,0l0,0c-1.4-0.4-2.5-0.5-3.9-0.5l0,0l0,0l0,0l0,0l0,0l0,0l0,0l0,0l0,0l0,0
					l0,0l0,0l0,0l0,0l0,0l0,0l0,0l0,0l0,0l0,0l0,0l0,0l0,0l0,0l0,0l0,0l0,0l0,0l0,0l0,0l0,0c0.8-0.4,1.6-0.7,2.5-0.9l0,0l0,0l0,0
					l0,0l0,0l0,0l0,0l0,0l0,0l0,0l0,0l0,0l0,0l0,0l0,0l0,0l0,0l0,0l0,0l0,0l0,0l0,0l0,0l0,0l0,0l0,0l0,0l0,0l0,0l0,0l0,0
					c-0.9-0.8-1.6-1.3-2.5-1.9l0,0l0,0l0,0l0,0l0,0l0,0l0,0l0,0l0,0l0,0l0,0l0,0l0,0l0,0l0,0l0,0l0,0l0,0l0,0l0,0l0,0l0,0l0,0l0,0
					l0,0l0,0l0,0l0,0l0,0l0,0l0,0c1.4,0.3,3.3,0.9,4.7,1.8l0,0l0,0l0,0l0,0l0,0l0,0l0,0l0,0l0,0l0,0l0,0l0,0l0,0l0,0l0,0l0,0l0,0
					l0,0l0,0l0,0l0,0l0,0l0,0l0,0l0,0l0,0l0,0l0,0l0,0l0,0l0,0c0.7,0,1.4,0,1.9,0.1l0,0l0,0l0,0l0,0l0,0l0,0l0,0l0,0l0,0l0,0l0,0
					l0,0l0,0l0,0l0,0l0,0l0,0l0,0l0,0l0,0l0,0l0,0l0,0l0,0l0,0l0,0l0,0l0,0l0,0l0,0l0,0c-0.1,0.4-0.2,0.7-0.3,1.3l0,0l0,0l0,0l0,0
					l0,0l0,0l0,0l0,0l0,0l0,0l0,0l0,0l0,0l0,0l0,0l0,0l0,0l0,0l0,0l0,0l0,0l0,0l0,0l0,0l0,0l0,0l0,0l0,0l0,0l0,0l0,0
					c1.3,1,2.3,1.9,3.3,3l0,0l0,0l0,0l0,0l0,0l0,0l0,0l0,0l0,0l0,0l0,0l0,0l0,0l0,0l0,0l0,0l0,0l0,0l0,0l0,0l0,0l0,0l0,0l0,0l0,0
					l0,0l0,0l0,0l0,0l0,0l0,0c-1.2-0.8-2.2-1.4-3.5-2l0,0l0,0l0,0l0,0l0,0l0,0l0,0l0,0l0,0l0,0l0,0l0,0l0,0l0,0l0,0l0,0l0,0l0,0l0,0
					l0,0l0,0l0,0l0,0l0,0l0,0l0,0l0,0l0,0l0,0l0,0l0,0C0.8-12.1,0.8-11.6,0.8-10.9z"/>
			</g>
		</g>
	</g>
</symbol>
<g id="Bandeau">
</g>
<g id="Embleme">
</g>
<g id="noms">
	<g>
		<g>
			<g>
				<path d="M62.9,28.6c0.4,1.1,3.5,8.1,4.3,9.7H64c-0.1-0.4-0.4-0.9-0.8-2.1c-0.5,0-1,0-1.6,0c-0.6,0-1.1,0-1.6,0
					c-0.3,0.8-0.5,1.4-0.8,2.1h-2.8c0.5-1.2,3.7-8.1,4.3-9.7H62.9z M62.6,34.7c-0.4-0.9-0.9-2.1-1.1-2.9c-0.3,0.8-0.8,2.1-1.1,2.9
					c0.4,0,0.8,0,1.2,0C62,34.8,62.2,34.7,62.6,34.7z"/>
				<path d="M72.1,28.4c1.2,0,2.4,0.2,3.2,0.4v2.5c-1.1-0.6-2.1-1.1-3.5-1.1c-1.1,0-1.2,0.4-1.2,0.8c0,1.6,5.5,1.6,5.5,4.6
					c0,1.9-1.8,3.1-4.7,3.1c-1.3,0-2.6-0.3-3.4-0.6v-2.3c2,0.9,3.1,1.3,4,1.3c0.8,0,1.3-0.3,1.3-1c0-1.8-5.5-1.7-5.5-4.8
					C67.8,29.4,69.5,28.4,72.1,28.4z"/>
				<path d="M81.4,28.4c1.2,0,2.4,0.2,3.2,0.4v2.5c-1.1-0.6-2.1-1.1-3.5-1.1c-1.1,0-1.2,0.4-1.2,0.8c0,1.6,5.5,1.6,5.5,4.6
					c0,1.9-1.8,3.1-4.7,3.1c-1.3,0-2.6-0.3-3.4-0.6v-2.3c2,0.9,3.1,1.3,4,1.3c0.8,0,1.3-0.3,1.3-1c0-1.8-5.5-1.7-5.5-4.8
					C77.2,29.4,78.9,28.4,81.4,28.4z"/>
				<path d="M94.8,28.6v1.6c-1.2-0.1-2.1-0.2-2.9-0.2h-1.3c-0.2,0-0.3,0-0.5,0c-0.1,0-0.2,0-0.4,0c0,0.9,0,1.8,0,2.5l3.5-0.1v1.6
					l-3.5-0.1c0,0.6,0,1.9,0.1,2.8c1.6,0,3.7-0.1,5.3-0.2v1.6h-8.4c0.1-1.3,0.1-4.2,0.1-5c0-0.9-0.1-3.5-0.1-4.6H94.8z"/>
				<path d="M105.2,28.6v1.6c-1.4-0.1-2-0.2-3.1-0.2c-0.1,1.1-0.1,2.6-0.1,3.2c0,0.8,0,3.6,0.2,5.1h-3.2c0.2-1.5,0.2-4.2,0.2-5.1
					c0-0.6-0.1-2.2-0.1-3.2c-1.1,0-1.7,0.1-3.1,0.2v-1.6H105.2z"/>
				<path d="M115.2,35.1c0.6-2.1,1.3-4.5,1.7-6.5h4c-0.1,1.1-0.1,3.7-0.1,4.6c0,0.8,0,3.6,0.2,5h-2.8c0.2-1.9,0.1-4.7,0.1-7
					c-0.5,1.3-1.9,5.6-2.3,7h-1.9c-0.5-2-1.7-5.5-2.3-7.1c0,2.2,0.1,6.4,0.2,7h-2.6c0.2-1.5,0.2-4.2,0.2-5c0-0.9-0.1-3.5-0.1-4.6h4
					C113.8,29.9,114.5,33,115.2,35.1z"/>
				<path d="M128.3,28.6c0.4,1.1,3.5,8.1,4.3,9.7h-3.2c-0.1-0.4-0.4-0.9-0.8-2.1c-0.5,0-1,0-1.6,0c-0.6,0-1.1,0-1.6,0
					c-0.3,0.8-0.5,1.4-0.8,2.1h-2.8c0.5-1.2,3.7-8.1,4.3-9.7H128.3z M128,34.7c-0.4-0.9-0.9-2.1-1.1-2.9c-0.3,0.8-0.8,2.1-1.1,2.9
					c0.4,0,0.8,0,1.2,0C127.3,34.8,127.6,34.7,128,34.7z"/>
				<path d="M142.4,28.6c-0.1,1.1-0.1,3.6-0.1,4.6c0,0.9,0,3.7,0.1,5.1h-2.3l-3.7-5.4c-0.3-0.4-0.5-0.8-0.6-1.3v3.1
					c0,1.2,0,2.8,0.1,3.7h-2.6c0.2-1.5,0.2-4.2,0.2-5.1c0-0.9-0.1-3.5-0.1-4.6h3l3.1,5c0.2,0.2,0.2,0.4,0.3,0.6v-5.6H142.4z"/>
				<path d="M149.6,28.6c0.4,1.1,3.5,8.1,4.3,9.7h-3.2c-0.1-0.4-0.4-0.9-0.8-2.1c-0.5,0-1,0-1.6,0c-0.6,0-1.1,0-1.6,0
					c-0.3,0.8-0.5,1.4-0.8,2.1h-2.8c0.5-1.2,3.7-8.1,4.3-9.7H149.6z M149.4,34.7c-0.4-0.9-0.9-2.1-1.1-2.9c-0.3,0.8-0.8,2.1-1.1,2.9
					c0.4,0,0.8,0,1.2,0C148.7,34.8,148.9,34.7,149.4,34.7z"/>
				<path d="M164,33.6c-0.1,0.9-0.1,3-0.1,4.1c-1,0.5-2.7,0.8-4.2,0.8c-3.6,0-5.9-2.3-5.9-5c0-2.9,2.4-5.1,6.3-5.1
					c0.9,0,2.2,0.1,3.2,0.4l-0.7,1.9c-0.7-0.4-1.8-0.8-2.5-0.8c-2.3,0-3.1,2-3.1,3.6c0,2.7,1.4,3.6,3.1,3.6c0.2,0,0.8,0,1-0.1
					c0-1.2,0-2.6-0.1-3.4H164z"/>
				<path d="M173.6,28.6v1.6c-1.2-0.1-2.1-0.2-2.9-0.2h-1.3c-0.2,0-0.3,0-0.5,0c-0.1,0-0.2,0-0.4,0c0,0.9,0,1.8,0,2.5l3.5-0.1v1.6
					l-3.5-0.1c0,0.6,0,1.9,0.1,2.8c1.6,0,3.7-0.1,5.3-0.2v1.6h-8.4c0.1-1.3,0.1-4.2,0.1-5c0-0.9-0.1-3.5-0.1-4.6H173.6z"/>
				<path d="M181.5,35.1c0.6-2.1,1.3-4.5,1.7-6.5h4c-0.1,1.1-0.1,3.7-0.1,4.6c0,0.8,0,3.6,0.2,5h-2.8c0.2-1.9,0.1-4.7,0.1-7
					c-0.5,1.3-1.9,5.6-2.3,7h-1.9c-0.5-2-1.7-5.5-2.3-7.1c0,2.2,0.1,6.4,0.2,7h-2.6c0.2-1.5,0.2-4.2,0.2-5c0-0.9-0.1-3.5-0.1-4.6h4
					C180.1,29.9,180.8,33,181.5,35.1z"/>
				<path d="M197.3,28.6v1.6c-1.2-0.1-2.1-0.2-2.9-0.2h-1.3c-0.2,0-0.3,0-0.5,0c-0.1,0-0.2,0-0.4,0c0,0.9,0,1.8,0,2.5l3.5-0.1v1.6
					l-3.5-0.1c0,0.6,0,1.9,0.1,2.8c1.6,0,3.7-0.1,5.3-0.2v1.6h-8.4c0.1-1.3,0.1-4.2,0.1-5c0-0.9-0.1-3.5-0.1-4.6H197.3z"/>
				<path d="M208.4,28.6c-0.1,1.1-0.1,3.6-0.1,4.6c0,0.9,0,3.7,0.1,5.1h-2.3l-3.7-5.4c-0.3-0.4-0.5-0.8-0.6-1.3v3.1
					c0,1.2,0,2.8,0.1,3.7h-2.6c0.2-1.5,0.2-4.2,0.2-5.1c0-0.9-0.1-3.5-0.1-4.6h3l3.1,5c0.2,0.2,0.2,0.4,0.3,0.6v-5.6H208.4z"/>
				<path d="M219,28.6v1.6c-1.4-0.1-2-0.2-3.1-0.2c-0.1,1.1-0.1,2.6-0.1,3.2c0,0.8,0,3.6,0.2,5.1h-3.2c0.2-1.5,0.2-4.2,0.2-5.1
					c0-0.6-0.1-2.2-0.1-3.2c-1.1,0-1.7,0.1-3.1,0.2v-1.6H219z"/>
			</g>
		</g>
	</g>
	<g>
		<path d="M57.2,6.5c0.1,1.7,0.2,5.8,0.2,7.4c0,1.4,0,6.1-0.2,8.1l0,0.2l7.3,0c3.6,0,7.4-1.1,7.4-4.3c0-2-1.5-3.5-4.2-4.3
			c2-0.5,3.3-1.9,3.3-3.5c0-2.6-3-3.6-5.8-3.7c0,0-8.1,0-8.1,0L57.2,6.5z M62.9,8.1c3.1,0,4.2,0.6,4.2,2.3c0,0.4-0.1,0.8-0.4,1.2
			c-0.6,0.7-1.8,1.1-3.2,1h-0.1l-0.8,2.2h0.9c1.7-0.1,3.2,0.5,3.9,1.4c0.4,0.4,0.5,0.9,0.5,1.4c0,1.8-1.5,2.7-4.6,2.7
			c-0.5,0-1.3,0-1.9,0c-0.1-2.3-0.1-5.5-0.1-6.4c0-1.1,0-3.6,0.1-5.7C61.8,8.1,62.4,8.1,62.9,8.1z"/>
		<path d="M88.9,6.3h-3.6l0.2,4c0.1,2,0.1,4,0.3,6l0,0l0,0c-0.2-0.6-0.4-0.9-1.5-2.5c0-0.1-3.7-5.8-5-7.4l0,0H75l0,0.2
			c0.1,1.7,0.2,5.8,0.2,7.4c0,1.4,0,6.1-0.2,8.1l0,0.2h3.7l0-0.2c-0.2-3.9-0.2-7.8-0.2-11.5v0c0.1,0.5,0.3,0.9,0.9,1.7
			c0.1,0.1,6.4,9.3,6.7,9.9l0,0.1h3l0-0.2c-0.2-2-0.2-6.7-0.2-8.1c0-1.5,0.1-5.7,0.2-7.4l0-0.2H88.9z"/>
		<path d="M93.2,6.5c0.1,1.7,0.2,5.8,0.2,7.4c0,1.4,0,6.1-0.2,8.1l0,0.2h4.4l0-0.2c-0.2-1.4-0.2-4.2-0.2-6.4c0.2,0,0.8,0,0.8,0
			l0.6,0c5.8,0,8.6-1.5,8.6-4.8c0-3.7-3.9-4.5-7.3-4.6l-6.9,0L93.2,6.5z M98.5,8.2c2.1,0,3.5,0.4,4.2,1.2c0.3,0.4,0.5,0.9,0.5,1.4
			c0,2.3-2.6,2.8-4.7,2.8l-0.9,0c0,0-0.2,0-0.3-0.1c0-0.5,0-1.2,0-2c0-1,0-2.2,0.1-3.3C97.6,8.3,98.1,8.2,98.5,8.2z"/>
		<path d="M115.7,6.5c0.1,1.7,0.2,5.8,0.2,7.4c0,1.4,0,6.1-0.2,8.1l0,0.2h4.4l0-0.2c-0.2-1.4-0.2-4.2-0.2-6.4c0.2,0,0.8,0,0.8,0
			l0.6,0c5.8,0,8.6-1.5,8.6-4.8c0-3.7-3.9-4.5-7.3-4.6l-6.9,0L115.7,6.5z M121.1,8.2c2.1,0,3.5,0.4,4.2,1.2c0.3,0.4,0.5,0.9,0.5,1.4
			c0,2.3-2.6,2.8-4.7,2.8l-0.9,0c0,0-0.2,0-0.3-0.1c0-0.5,0-1.2,0-2c0-1,0-2.2,0.1-3.3C120.1,8.3,120.6,8.2,121.1,8.2z"/>
		<path d="M135.7,6.3L135.7,6.3l-0.1,0.1c-0.8,2.2-6.1,13.7-6.9,15.5l-0.1,0.2h3.8l0-0.1c0.3-1.1,0.7-2.3,1.2-3.6c0.1,0,3.1,0,3.1,0
			l2.6,0c0,0,0.5,0,0.6,0c0.7,1.7,1.2,3,1.4,3.6l0,0.1h4.4l-7-15.8h-0.1H135.7z M136.8,11c0.4,0.7,1.3,2.9,2.3,5.4
			c-0.2,0-0.3,0-0.3,0l-1.9,0c0,0-2,0-2.3,0C135.3,14.3,136.1,12.5,136.8,11z"/>
		<path d="M147.5,6.5c0.1,1.7,0.2,5.8,0.2,7.4c0,1.4,0,6.1-0.2,8.1l0,0.2h4.4l0-0.2c-0.2-2-0.2-6.7-0.2-8.1c0-1.1,0-3.6,0.1-5.5
			c0.4,0,0.9-0.1,1.2-0.1c2.1,0,3.5,0.4,4.2,1.2c0.3,0.4,0.5,0.9,0.5,1.4c0,1.8-1.7,2.7-3.3,2.8c-0.5,0-0.9,0-0.9,0l-0.3-0.1
			l0.2,0.3c1.5,2.3,3.9,6.3,4.9,8.1l0,0.1h4.7l-0.1-0.2c-0.2-0.3-3.2-4.8-4.6-6.7c0,0,0-0.1-0.1-0.1c2.4-0.7,3.6-2.1,3.6-4.2
			c0-3.7-4-4.5-7.3-4.6l-6.9,0L147.5,6.5z"/>
		<path d="M169.1,6.3h-4.2l0,0.2c0.1,1.7,0.2,5.8,0.2,7.4c0,1.4,0,6.1-0.2,8.1l0,0.2h4.4l0-0.2c-0.2-2-0.2-6.7-0.2-8.1
			c0-1.5,0.1-5.7,0.2-7.4l0-0.2H169.1z"/>
		<path d="M173.2,6.5c0.1,1.7,0.2,5.8,0.2,7.4c0,1.4,0,6.1-0.2,8.1l0,0.2l7.3,0c3.6,0,7.4-1.1,7.4-4.3c0-2-1.4-3.5-4.2-4.3
			c2-0.5,3.4-1.9,3.4-3.5c0-2.6-3-3.6-5.8-3.7c0,0-8.1,0-8.1,0L173.2,6.5z M178.8,8.1L178.8,8.1c3.1,0,4.2,0.6,4.2,2.3
			c0,0.4-0.1,0.8-0.4,1.2c-0.6,0.7-1.7,1.1-3.2,1h-0.1l-0.8,2.2h0.9c1.7-0.1,3.1,0.5,3.9,1.4c0.3,0.4,0.5,0.9,0.5,1.4
			c0,1.8-1.5,2.7-4.5,2.7c-0.5,0-1.3,0-1.9,0c-0.1-2.3-0.1-5.5-0.1-6.4c0-1.1,0-3.6,0.1-5.7C177.7,8.1,178.3,8.1,178.8,8.1z"/>
		<path d="M198.7,6.3h-3l0,0.1c-0.9,2.4-6.4,14.5-6.9,15.5l-0.1,0.2h3.8l0-0.1c0.3-1.1,0.7-2.3,1.2-3.6c0.1,0,3.1,0,3.1,0l2.6,0
			c0,0,0.4,0,0.6,0c0.7,1.7,1.2,3,1.4,3.6l0,0.1h4.4L198.7,6.3L198.7,6.3z M196.9,11c0.4,0.7,1.2,2.9,2.3,5.3c-0.2,0-0.3,0-0.3,0
			l-1.9,0c0,0-2,0-2.3,0C195.4,14.3,196.2,12.5,196.9,11z"/>
		<path d="M207,10.4c0,2.8,2.8,3.9,5.3,4.9c1.9,0.8,3.9,1.6,3.9,2.9c0,0.4-0.1,0.7-0.3,1c-0.5,0.5-1.4,0.8-2.9,0.7
			c-1.4-0.1-3.1-0.5-4.9-1.4l-0.8-0.4l0,0.6v2.8l0.5,0.1l0.3,0.1c0.9,0.2,2.7,0.6,4.5,0.6c4.6,0,7.4-1.8,7.4-4.9c0-2.8-2.9-4-5.4-5
			c-1.9-0.7-3.8-1.5-3.8-2.7c0-0.4,0-1.4,2.4-1.4c1.8,0,3.5,0.7,4.5,1.1l0.9,0.4l0-0.6V6.4l-0.9-0.2c-0.9-0.2-2.4-0.5-3.9-0.5
			C209.7,5.8,207,7.6,207,10.4z"/>
	</g>
	
		<use xlink:href="#volume"  width="45.4" height="45.4" x="-22.7" y="-22.7" transform="matrix(1 0 0 -1 22.6772 22.6777)" style="overflow:visible;"/>
</g>
</svg>
