<?xml version="1.0" encoding="utf-8"?>
<!-- Generator: Adobe Illustrator 25.2.3, SVG Export Plug-In . SVG Version: 6.00 Build 0)  -->
<svg version="1.1" xmlns="http://www.w3.org/2000/svg" xmlns:xlink="http://www.w3.org/1999/xlink" x="0px" y="0px"
	 viewBox="0 0 272.48 89.63" style="enable-background:new 0 0 272.48 89.63;" xml:space="preserve">
<style type="text/css">
	.st0{fill:url(#SVGID_1_);}
	.st1{fill:url(#SVGID_2_);}
	.st2{fill:url(#SVGID_3_);}
	.st3{fill:url(#SVGID_4_);}
	.st4{fill:url(#SVGID_5_);}
	.st5{fill:url(#SVGID_6_);}
	.st6{fill:#FFFFFF;}
</style>
<g id="Calque_1">
</g>
<g id="Contents">
	<g>
		<g>
			<g>
				<linearGradient id="SVGID_1_" gradientUnits="userSpaceOnUse" x1="28.063" y1="-1.3807" x2="28.063" y2="57.8664">
					<stop  offset="0" style="stop-color:#008053"/>
					<stop  offset="0.6" style="stop-color:#7FCBAE"/>
					<stop  offset="1" style="stop-color:#00A76D"/>
				</linearGradient>
				<rect class="st0" width="56.13" height="56.13"/>
				<linearGradient id="SVGID_2_" gradientUnits="userSpaceOnUse" x1="27.9744" y1="-13.9421" x2="27.9744" y2="52.6354">
					<stop  offset="0" style="stop-color:#00A76D"/>
					<stop  offset="0.3" style="stop-color:#7FCBAE"/>
					<stop  offset="0.55" style="stop-color:#00A76D"/>
					<stop  offset="0.8352" style="stop-color:#008053"/>
					<stop  offset="0.8691" style="stop-color:#008558"/>
					<stop  offset="0.9244" style="stop-color:#009264"/>
					<stop  offset="0.9938" style="stop-color:#00A97A"/>
					<stop  offset="1" style="stop-color:#00AD7D"/>
				</linearGradient>
				<path class="st1" d="M54.39,28.39c0,11.72,0.54,23.71,0.54,23.71c-0.02,1.35-0.88,2.21-1.97,2.21H4.38
					c-1.09,0-1.84-0.97-1.97-2.21c0,0-1.4-10.24-1.4-25.89c0-15.65,1.4-23.01,1.4-23.01C2.58,1.91,3.3,0.99,4.38,0.99h48.58
					c1.09,0,1.99,1.01,1.97,2.21C54.93,3.19,54.39,16.67,54.39,28.39z"/>
				<g>
					<g>
						<linearGradient id="SVGID_3_" gradientUnits="userSpaceOnUse" x1="38.639" y1="48.959" x2="38.639" y2="5.875">
							<stop  offset="0" style="stop-color:#00B387"/>
							<stop  offset="1" style="stop-color:#00A76D"/>
						</linearGradient>
						<path class="st2" d="M43.58,15.16c-3.47,2.03-4.53,2.2-8.3,4.46l0.18-0.42c1.98-2.16,2.84-3.06,4.14-4.97
							c-3.48,0.19-8.52,0.6-12.13,1.4l0,0l0,0l0,0l0.19-0.39c3.27-1.59,9.35-3.17,12.45-3.58c-0.76-1.06-6.91-4.39-8.45-5.04l0,0
							l0,0l0,0l0.18-0.39c4.67,0.53,10.85,2.71,13.55,4.36c1.14-0.36,2.3-0.39,4.41-0.58c0,0-0.31,1.27-2.61,2.85l0,0l0,0l0,0
							c0.57,1.53-0.8,9.99-1.93,12.24l0,0l0,0l0,0C45.21,21.56,44.9,17.1,43.58,15.16z"/>
						<linearGradient id="SVGID_4_" gradientUnits="userSpaceOnUse" x1="11.9079" y1="48.9614" x2="11.9079" y2="5.8647">
							<stop  offset="0" style="stop-color:#00B387"/>
							<stop  offset="1" style="stop-color:#00A76D"/>
						</linearGradient>
						<path class="st3" d="M18.22,45.5l0.18-0.39c-1.84-0.72-3.69-1.28-5.18-2.69l0,0l0,0l0,0l0,0l0,0l0,0l0,0l0,0l0,0l0,0l0,0l0,0
							l0,0l0,0l0,0l0,0l0,0l0,0l0,0l0,0l0,0l0,0l0,0l0,0l0,0l0,0l0,0l0,0l0,0l0,0l0,0c0.47-1.31,1.01-2.33,1.88-3.62l0,0l0,0l0,0
							l0,0l0,0l0,0l0,0l0,0l0,0l0,0l0,0l0,0l0,0l0,0l0,0l0,0l0,0l0,0l0,0l0,0l0,0l0,0l0,0l0,0l0,0l0,0l0,0l0,0l0,0l0,0l0,0l0.18-0.4
							c-1.58,0.24-3.02,0.82-4.39,1.09l0,0l0,0l0,0l0,0l0,0l0,0l0,0l0,0l0,0l0,0l0,0l0,0l0,0l0,0l0,0l0,0l0,0l0,0l0,0l0,0l0,0l0,0
							l0,0l0,0l0,0l0,0l0,0l0,0l0,0l0,0l0,0c-1.08-1.9-1.5-4.5-2.04-6.97l-0.18,0.39l0,0l0,0l0,0l0,0l0,0l0,0l0,0l0,0l0,0l0,0l0,0
							l0,0l0,0l0,0l0,0c-0.31,2.82-0.43,4.84-0.03,7.09l0,0l0,0l0,0l0,0l0,0l0,0l0,0l0,0l0,0l0,0l0,0l0,0l0,0l0,0l0,0l0,0l0,0l0,0
							l0,0l0,0l0,0l0,0l0,0l0,0l0,0l0,0l0,0l0,0l0,0l0,0l0,0c-1.14,0.32-2.14,0.36-3.06,0.75l-0.18,0.39l0,0l0,0l0,0l0,0l0,0l0,0
							l0,0l0,0l0,0l0,0l0,0l0,0l0,0l0,0l0,0l0,0l0,0l0,0l0,0l0,0l0,0l0,0l0,0l0,0l0,0l0,0l0,0l0,0l0,0l0,0l0,0
							c1.46,0.9,2.66,1.59,4.31,2.37l0,0l0,0l0,0l0,0l0,0l0,0l0,0l0,0l0,0l0,0l0,0l0,0l0,0l0,0l0,0l0,0l0,0l0,0l0,0l0,0l0,0l0,0l0,0
							l0,0l0,0l0,0l0,0l0,0l0,0l0,0l0,0c0.88,1.9,1.8,3.18,3.28,4.65l0,0l0,0l0,0l0,0l0,0l0,0l0,0l0,0l0,0l0,0l0,0l0,0l0,0l0,0l0,0
							l0,0l0,0l0,0l0,0l0,0l0,0l0,0l0,0l0,0l0,0l0,0l0,0l0,0l0,0l0,0l0,0l0.18-0.39c-0.27-1.08-0.61-1.97-0.48-3.16l0,0l0,0l0,0l0,0
							l0,0l0,0l0,0l0,0l0,0l0,0l0,0l0,0l0,0l0,0l0,0l0,0l0,0l0,0l0,0l0,0l0,0l0,0l0,0l0,0l0,0l0,0l0,0l0,0l0,0l0,0l0,0
							C14.55,45.15,16.13,45.44,18.22,45.5z"/>
						<linearGradient id="SVGID_5_" gradientUnits="userSpaceOnUse" x1="20.2349" y1="48.952" x2="20.2349" y2="5.8814">
							<stop  offset="0" style="stop-color:#00B387"/>
							<stop  offset="1" style="stop-color:#00A76D"/>
						</linearGradient>
						<path class="st4" d="M23.34,17.31c0,0-0.74,1.31-1.33,3.06h-0.14l0,0l0,0c4.32,0.58,8.4,2.33,9.43,2.94l-0.18,0.39l0,0l0,0
							l0,0l0,0l0,0l0,0l0,0c-4.49-0.79-6.85-0.7-8.52-0.55l0,0l0,0l0,0c-1.67,0.16-2.01,0.37-2.01,0.37l0,0l0,0l0,0l0,0l0,0l0,0l0,0
							c-0.96,2.1-1.53,5.54-1.75,6.81l-0.18,0.39l0,0l0,0l0,0l0,0l0,0l0,0l0,0c-0.82-1.97-2-5.91-2-5.91l0,0l0,0l0,0l0,0l0,0l0,0
							l0,0c-2.26,1.21-7.47,6.1-7.47,6.1l0,0l0,0l0,0l0,0l0,0l0,0l0,0c2.87-5.73,5.78-8.35,5.78-8.35l0,0l0,0l0,0l0,0l0,0l0,0l0,0
							c-1-1.01-3.62-1.52-5.53-1.6l0,0l0,0l0,0l0.18-0.39c1.2-0.35,3.67-0.5,5.33-0.58l0,0l0,0l0,0l0,0l0,0l0,0l0,0
							c1.96-0.06,3.15,0.05,3.15,0.05l0,0l0,0l0,0C19.82,18.66,22.43,17.44,23.34,17.31z"/>
						<linearGradient id="SVGID_6_" gradientUnits="userSpaceOnUse" x1="27.4345" y1="48.9583" x2="27.4345" y2="5.8741">
							<stop  offset="0" style="stop-color:#00B387"/>
							<stop  offset="1" style="stop-color:#00A76D"/>
						</linearGradient>
						<path class="st5" d="M28.84,41.94c-0.91,1.23-1.68,2.2-2.68,3.32l0,0l0,0l0,0l0,0l0,0l0,0l0,0l0,0l0,0l0,0l0,0l0,0l0,0l0,0
							l0,0l0,0l0,0l0,0l0,0l0,0l0,0l0,0l0,0l0,0l0,0l0,0l0,0l0,0l0,0l0,0l0,0c-1.48,0.41-3.25,0.22-4.61,0.27l-0.18,0.39l0,0l0,0
							l0,0l0,0l0,0l0,0l0,0l0,0l0,0l0,0l0,0l0,0l0,0l0,0l0,0l0,0l0,0l0,0l0,0l0,0l0,0l0,0l0,0l0,0l0,0l0,0l0,0l0,0l0,0l0,0l0,0
							c1.03,0.53,2.03,0.85,3.11,1.07l0,0l0,0l0,0l0,0l0,0l0,0l0,0l0,0l0,0l0,0l0,0l0,0l0,0l0,0l0,0l0,0l0,0l0,0l0,0l0,0l0,0l0,0
							l0,0l0,0l0,0l0,0l0,0l0,0l0,0l0,0l0,0c-0.87,0.79-2.04,1.4-2.85,1.95l-0.18,0.39l0,0l0,0l0,0l0,0l0,0l0,0l0,0l0,0l0,0l0,0l0,0
							l0,0l0,0l0,0l0,0l0,0l0,0l0,0l0,0l0,0l0,0l0,0l0,0l0,0l0,0l0,0l0,0l0,0l0,0l0,0l0,0c1.75-0.41,4.06-1.16,5.78-2.17l0,0l0,0
							l0,0l0,0l0,0l0,0l0,0l0,0l0,0l0,0l0,0l0,0l0,0l0,0l0,0l0,0l0,0l0,0l0,0l0,0l0,0l0,0l0,0l0,0l0,0l0,0l0,0l0,0l0,0l0,0l0,0
							c0.89,0.04,1.73-0.02,2.34-0.14l0,0l0,0l0,0l0,0l0,0l0,0l0,0l0,0l0,0l0,0l0,0l0,0l0,0l0,0l0,0l0,0l0,0l0,0l0,0l0,0l0,0l0,0
							l0,0l0,0l0,0l0,0l0,0l0,0l0,0l0,0l0,0c0,0,0.18-0.4,0.18-0.39c-0.11-0.4-0.46-0.64-0.57-1.19l0,0l0,0l0,0l0,0l0,0l0,0l0,0l0,0
							l0,0l0,0l0,0l0,0l0,0l0,0l0,0l0,0l0,0l0,0l0,0l0,0l0,0l0,0l0,0l0,0l0,0l0,0l0,0l0,0l0,0l0,0l0,0
							c1.61-1.25,2.78-2.39,4.13-3.75l0,0l0,0l0,0l0,0l0,0l0,0l0,0l0,0l0,0l0,0l0,0l0,0l0,0l0,0l0,0l0,0l0,0l0,0l0,0l0,0l0,0l0,0
							l0,0l0,0l0,0l0,0l0,0l0,0l0,0l0,0l0,0l0.19-0.39c-1.33,0.92-2.95,2.18-4.51,2.92l0,0l0,0l0,0l0,0l0,0l0,0l0,0l0,0l0,0l0,0l0,0
							l0,0l0,0l0,0l0,0l0,0l0,0l0,0l0,0l0,0l0,0l0,0l0,0l0,0l0,0l0,0l0,0l0,0l0,0l0,0l0,0C28.93,43.45,28.88,42.8,28.84,41.94z"/>
					</g>
					<g>
						<path class="st6" d="M43.76,14.76c-3.46,2.04-4.52,2.21-8.29,4.46c2.19-2.38,2.96-3.39,4.31-5.38
							c-3.47,0.18-8.52,0.6-12.12,1.4l0,0l0,0l0,0c3.14-1.67,9.35-3.54,12.64-3.98c-0.76-1.05-6.92-4.39-8.45-5.03l0,0l0,0l0,0
							c4.88,0.38,10.84,2.2,13.73,3.97c1.14-0.36,2.32-0.37,4.44-0.56l0,0l0,0l0,0c-0.54,0.93-0.56,1.46-2.64,2.84l0,0l0,0l0,0
							c0.58,1.54-0.8,10-1.93,12.24l0,0l0,0l0,0C45.4,21.17,45.09,16.7,43.76,14.76z"/>
						<path class="st6" d="M18.4,45.11c-1.99-0.74-3.42-1.6-5-3.07l0,0l0,0l0,0l0,0l0,0l0,0l0,0l0,0l0,0l0,0l0,0l0,0l0,0l0,0l0,0
							l0,0l0,0l0,0l0,0l0,0l0,0l0,0l0,0l0,0l0,0l0,0l0,0l0,0l0,0l0,0l0,0c0.47-1.3,1.01-2.32,1.89-3.63l0,0l0,0l0,0l0,0l0,0l0,0l0,0
							l0,0l0,0l0,0l0,0l0,0l0,0l0,0l0,0l0,0l0,0l0,0l0,0l0,0l0,0l0,0l0,0l0,0l0,0l0,0l0,0l0,0l0,0l0,0l0,0
							c-1.62,0.24-2.81,0.42-4.21,0.69l0,0l0,0l0,0l0,0l0,0l0,0l0,0l0,0l0,0l0,0l0,0l0,0l0,0l0,0l0,0l0,0l0,0l0,0l0,0l0,0l0,0l0,0
							l0,0l0,0l0,0l0,0l0,0l0,0l0,0l0,0l0,0c-1.13-1.99-1.65-3.9-2.23-6.57l0,0l0,0l0,0l0,0l0,0l0,0l0,0l0,0l0,0l0,0l0,0l0,0l0,0
							l0,0l0,0c-0.31,2.83-0.43,4.85-0.03,7.1l0,0l0,0l0,0l0,0l0,0l0,0l0,0l0,0l0,0l0,0l0,0l0,0l0,0l0,0l0,0l0,0l0,0l0,0l0,0l0,0
							l0,0l0,0l0,0l0,0l0,0l0,0l0,0l0,0l0,0l0,0l0,0c-1.28,0.36-2.19,0.67-3.24,1.14l0,0l0,0l0,0l0,0l0,0l0,0l0,0l0,0l0,0l0,0l0,0
							l0,0l0,0l0,0l0,0l0,0l0,0l0,0l0,0l0,0l0,0l0,0l0,0l0,0l0,0l0,0l0,0l0,0l0,0l0,0l0,0c1.48,0.9,2.67,1.6,4.31,2.37l0,0l0,0l0,0
							l0,0l0,0l0,0l0,0l0,0l0,0l0,0l0,0l0,0l0,0l0,0l0,0l0,0l0,0l0,0l0,0l0,0l0,0l0,0l0,0l0,0l0,0l0,0l0,0l0,0l0,0l0,0l0,0
							c0.89,1.9,1.8,3.18,3.29,4.65l0,0l0,0l0,0l0,0l0,0l0,0l0,0l0,0l0,0l0,0l0,0l0,0l0,0l0,0l0,0l0,0l0,0l0,0l0,0l0,0l0,0l0,0l0,0
							l0,0l0,0l0,0l0,0l0,0l0,0l0,0l0,0c-0.35-1.25-0.44-2.24-0.3-3.55l0,0l0,0l0,0l0,0l0,0l0,0l0,0l0,0l0,0l0,0l0,0l0,0l0,0l0,0
							l0,0l0,0l0,0l0,0l0,0l0,0l0,0l0,0l0,0l0,0l0,0l0,0l0,0l0,0l0,0l0,0l0,0C14.73,44.76,16.31,45.04,18.4,45.11z"/>
						<path class="st6" d="M23.58,16.97L23.58,16.97L23.58,16.97L23.58,16.97L23.58,16.97c-0.62,0.8-1.34,2.31-1.53,3l0,0l0,0l0,0
							c5.13,0.69,9.25,3.33,9.25,3.33l0,0l0,0l0,0l0,0l0,0l0,0l0,0c-4.49-0.8-6.85-0.7-8.52-0.55l0,0l0,0l0,0
							c-1.66,0.16-2,0.35-2,0.35l0,0l0,0l0,0l0,0l0,0l0,0l0,0c-1.21,2.65-1.94,7.2-1.94,7.2l0,0l0,0l0,0l0,0l0,0l0,0l0,0
							c-0.82-1.97-2-5.91-2-5.91l0,0l0,0l0,0l0,0l0,0l0,0l0,0c-2.26,1.21-7.47,6.11-7.47,6.11l0,0l0,0l0,0l0,0l0,0l0,0l0,0
							c2.86-5.73,5.77-8.34,5.77-8.34l0,0l0,0l0,0l0,0l0,0l0,0l0,0c-1-1.01-3.62-1.52-5.54-1.6l0,0l0,0l0,0
							c0.99-0.41,3.55-0.88,5.51-0.97l0,0l0,0l0,0l0,0l0,0l0,0l0,0c1.96-0.06,3.15,0.06,3.15,0.06l0,0l0,0l0,0
							C20.01,18.27,22.67,17.11,23.58,16.97z"/>
						<path class="st6" d="M29.02,41.55c-0.91,1.23-1.68,2.19-2.69,3.32l0,0l0,0l0,0l0,0l0,0l0,0l0,0l0,0l0,0l0,0l0,0l0,0l0,0l0,0
							l0,0l0,0l0,0l0,0l0,0l0,0l0,0l0,0l0,0l0,0l0,0l0,0l0,0l0,0l0,0l0,0l0,0c-1.73,0.48-3.1,0.66-4.79,0.66l0,0l0,0l0,0l0,0l0,0
							l0,0l0,0l0,0l0,0l0,0l0,0l0,0l0,0l0,0l0,0l0,0l0,0l0,0l0,0l0,0l0,0l0,0l0,0l0,0l0,0l0,0l0,0l0,0l0,0l0,0l0,0
							c1.03,0.53,2.03,0.85,3.11,1.08l0,0l0,0l0,0l0,0l0,0l0,0l0,0l0,0l0,0l0,0l0,0l0,0l0,0l0,0l0,0l0,0l0,0l0,0l0,0l0,0l0,0l0,0
							l0,0l0,0l0,0l0,0l0,0l0,0l0,0l0,0l0,0c-1.08,0.98-1.99,1.67-3.04,2.34l0,0l0,0l0,0l0,0l0,0l0,0l0,0l0,0l0,0l0,0l0,0l0,0l0,0
							l0,0l0,0l0,0l0,0l0,0l0,0l0,0l0,0l0,0l0,0l0,0l0,0l0,0l0,0l0,0l0,0l0,0l0,0c1.75-0.42,4.06-1.16,5.78-2.18l0,0l0,0l0,0l0,0
							l0,0l0,0l0,0l0,0l0,0l0,0l0,0l0,0l0,0l0,0l0,0l0,0l0,0l0,0l0,0l0,0l0,0l0,0l0,0l0,0l0,0l0,0l0,0l0,0l0,0l0,0l0,0
							c0.9,0.03,1.74-0.02,2.35-0.15l0,0l0,0l0,0l0,0l0,0l0,0l0,0l0,0l0,0l0,0l0,0l0,0l0,0l0,0l0,0l0,0l0,0l0,0l0,0l0,0l0,0l0,0l0,0
							l0,0l0,0l0,0l0,0l0,0l0,0l0,0l0,0c-0.16-0.52-0.26-0.91-0.39-1.58l0,0l0,0l0,0l0,0l0,0l0,0l0,0l0,0l0,0l0,0l0,0l0,0l0,0l0,0
							l0,0l0,0l0,0l0,0l0,0l0,0l0,0l0,0l0,0l0,0l0,0l0,0l0,0l0,0l0,0l0,0l0,0c1.62-1.25,2.79-2.39,4.14-3.75l0,0l0,0l0,0l0,0l0,0
							l0,0l0,0l0,0l0,0l0,0l0,0l0,0l0,0l0,0l0,0l0,0l0,0l0,0l0,0l0,0l0,0l0,0l0,0l0,0l0,0l0,0l0,0l0,0l0,0l0,0l0,0
							c-1.43,1-2.67,1.75-4.32,2.53l0,0l0,0l0,0l0,0l0,0l0,0l0,0l0,0l0,0l0,0l0,0l0,0l0,0l0,0l0,0l0,0l0,0l0,0l0,0l0,0l0,0l0,0l0,0
							l0,0l0,0l0,0l0,0l0,0l0,0l0,0l0,0C29.1,43.06,29.06,42.41,29.02,41.55z"/>
					</g>
				</g>
			</g>
		</g>
		<g>
			<g>
				<g>
					<g>
						<g>
							<path d="M70.25,18.51c0.12,2.04,0.24,7.2,0.24,9.08c0,1.73,0,7.53-0.3,10.04l-0.02,0.2h9.07c4.45,0,9.17-1.39,9.17-5.34
								c0-2.48-1.79-4.31-5.15-5.31c2.49-0.67,4.15-2.37,4.15-4.31c0-3.23-3.71-4.44-7.2-4.53h-10L70.25,18.51z M77.24,20.49
								c3.78,0.03,5.16,0.8,5.16,2.86c0,0.57-0.17,1.07-0.51,1.46c-0.72,0.87-2.13,1.32-3.93,1.21h-0.09l-1.06,2.75h1.06
								c2.09-0.06,3.9,0.6,4.83,1.74c0.43,0.52,0.65,1.14,0.65,1.78c0,2.15-1.89,3.26-5.63,3.26c-0.63,0-1.65,0-2.29-0.02
								c-0.11-2.87-0.15-6.76-0.15-7.93c0-1.35,0.09-4.37,0.15-6.95C75.86,20.55,76.58,20.49,77.24,20.49z"/>
							<path d="M109.31,18.33h-4.41l0.18,4.92c0.09,2.43,0.17,4.93,0.34,7.35l0,0l0,0c-0.28-0.76-0.55-1.15-1.89-3.1
								c-0.01-0.07-4.59-7.12-6.18-9.12l-0.05-0.05h-5.12v0.18c0.16,2.04,0.23,7.2,0.23,9.08c0,1.73,0,7.53-0.24,10.04l-0.04,0.2
								h4.56v-0.2c-0.26-4.76-0.26-9.56-0.26-14.22l0,0c0.16,0.56,0.36,1.05,1.08,2.11c0.06,0.13,7.91,11.56,8.3,12.22l0.04,0.08
								h3.65l-0.01-0.2c-0.28-2.5-0.3-8.3-0.3-10.04c0-1.88,0.13-7.04,0.24-9.08l0.06-0.18H109.31z"/>
							<path d="M114.58,18.51c0.18,2.04,0.25,7.2,0.25,9.08c0,1.73,0,7.53-0.27,10.04v0.2h5.43l-0.02-0.2
								c-0.18-1.8-0.28-5.23-0.3-7.86c0.26,0.01,1.02,0.05,1.02,0.05l0.77,0.02c7.14,0,10.61-1.89,10.61-5.86
								c0-4.52-4.87-5.56-8.93-5.64h-8.55V18.51z M121.27,20.68c2.54-0.05,4.32,0.47,5.16,1.53c0.39,0.46,0.6,1.06,0.6,1.76
								c0,2.82-3.17,3.43-5.83,3.43l-1.08-0.06c0,0-0.26-0.02-0.44-0.04c-0.02-0.65-0.02-1.51-0.02-2.48c0-1.23,0-2.68,0.06-4.03
								C120.1,20.75,120.66,20.68,121.27,20.68z"/>
							<path d="M142.42,18.51c0.17,2.04,0.27,7.2,0.27,9.08c0,1.73-0.02,7.53-0.3,10.04v0.2h5.43l-0.03-0.2
								c-0.17-1.8-0.27-5.23-0.27-7.86c0.25,0.01,0.98,0.05,0.98,0.05l0.79,0.02c7.13,0,10.64-1.89,10.64-5.86
								c0-4.52-4.9-5.56-8.97-5.64h-8.53V18.51z M149.1,20.68c2.55-0.05,4.32,0.47,5.17,1.53c0.39,0.46,0.59,1.06,0.59,1.76
								c0,2.82-3.17,3.43-5.79,3.43L148,27.35c0,0-0.29-0.02-0.45-0.04c-0.03-0.65-0.03-1.52-0.03-2.48c0-1.24,0-2.68,0.05-4.03
								C147.91,20.75,148.5,20.68,149.1,20.68z"/>
							<path d="M167.18,18.33h-0.07l-0.04,0.1c-1.01,2.77-7.52,16.98-8.55,19.15l-0.09,0.24h4.62l0.04-0.11
								c0.41-1.34,0.95-2.84,1.55-4.45c0.19,0,3.86-0.06,3.86-0.06l3.19,0.02c0,0,0.51,0.03,0.67,0.03c0.82,2.1,1.45,3.67,1.73,4.48
								l0.05,0.08h5.35l-8.65-19.49h-0.11H167.18z M168.5,24.07c0.43,0.93,1.55,3.52,2.81,6.61c-0.2,0.01-0.44,0.01-0.44,0.01
								l-2.37,0.03c0,0-2.46-0.03-2.87-0.04C166.65,28.21,167.67,25.98,168.5,24.07z"/>
							<path d="M181.67,18.51c0.16,2.04,0.23,7.2,0.23,9.08c0,1.73,0,7.53-0.3,10.04v0.2h5.46l-0.02-0.2
								c-0.29-2.52-0.31-8.3-0.31-10.04c0-1.35,0.04-4.37,0.18-6.82c0.41-0.03,1.04-0.09,1.47-0.09c2.52-0.05,4.31,0.47,5.14,1.53
								c0.4,0.46,0.58,1.08,0.58,1.76c0,2.25-2.1,3.39-4.06,3.49c-0.66,0.03-1.14-0.06-1.14-0.06l-0.38-0.06l0.21,0.36
								c1.94,2.82,4.84,7.72,6.03,10.04l0.04,0.08h5.83l-0.14-0.26c-0.24-0.33-4.04-5.92-5.65-8.31c0,0-0.07-0.07-0.14-0.15
								c2.99-0.9,4.43-2.57,4.43-5.13c0-4.49-4.87-5.56-8.98-5.64h-8.5L181.67,18.51z"/>
							<path d="M208.35,18.33h-5.2l0.03,0.18c0.13,2.04,0.24,7.2,0.24,9.08c0,1.72-0.02,7.52-0.27,10.04l-0.02,0.2h5.39l-0.03-0.2
								c-0.21-2.52-0.27-8.31-0.27-10.04c0-1.88,0.13-7.04,0.27-9.08v-0.18H208.35z"/>
							<path d="M213.43,18.51c0.16,2.04,0.25,7.2,0.25,9.08c0,1.73,0,7.53-0.27,10.04l-0.04,0.2h9.08c4.44,0,9.17-1.39,9.17-5.34
								c0-2.48-1.8-4.31-5.18-5.31c2.49-0.67,4.17-2.37,4.17-4.31c0-3.23-3.71-4.44-7.17-4.53h-10.02L213.43,18.51z M220.43,20.49
								L220.43,20.49c3.81,0.03,5.19,0.8,5.19,2.86c0,0.57-0.17,1.07-0.52,1.46c-0.69,0.87-2.15,1.32-3.94,1.21h-0.09l-1.05,2.75
								h1.05c2.09-0.06,3.89,0.6,4.82,1.74c0.45,0.52,0.67,1.14,0.67,1.78c0,2.15-1.9,3.26-5.66,3.26c-0.6,0-1.62,0-2.26-0.02
								c-0.16-2.87-0.16-6.76-0.16-7.93c0-1.35,0.05-4.37,0.16-6.95C219.06,20.55,219.78,20.49,220.43,20.49z"/>
							<path d="M244.96,18.33h-3.65l-0.02,0.09c-1.09,2.95-7.97,17.9-8.54,19.14l-0.1,0.26h4.65l0.03-0.12
								c0.39-1.34,0.93-2.84,1.53-4.48c0.15,0,3.84-0.06,3.84-0.06l3.2,0.05c0,0,0.56,0.01,0.68,0.01c0.84,2.1,1.46,3.69,1.74,4.48
								l0.05,0.12h5.38l-8.65-19.49H244.96z M242.72,24.06c0.44,0.91,1.55,3.5,2.81,6.6c-0.19,0-0.43,0.02-0.43,0.02l-2.38,0.03
								c0,0-2.49-0.05-2.86-0.05C240.87,28.17,241.86,25.95,242.72,24.06z"/>
							<path d="M255.24,23.37c0,3.42,3.43,4.8,6.47,6.06c2.36,0.94,4.84,1.93,4.84,3.57c0,0.49-0.1,0.91-0.37,1.2
								c-0.57,0.67-1.72,0.95-3.55,0.85c-1.81-0.07-3.85-0.64-6.15-1.7l-0.9-0.43v0.76v3.49l0.61,0.15l0.36,0.06
								c1.13,0.28,3.32,0.8,5.5,0.8c5.72,0,9.14-2.28,9.14-6.06c0-3.55-3.53-4.92-6.64-6.17c-2.3-0.93-4.67-1.85-4.67-3.37
								c0-0.44,0-1.72,2.97-1.72c2.19,0,4.31,0.89,5.52,1.35l1.1,0.46l-0.01-0.73v-3.53l-1.09-0.2c-1.11-0.22-2.97-0.59-4.88-0.59
								C258.54,17.62,255.24,19.95,255.24,23.37z"/>
						</g>
					</g>
				</g>
			</g>
		</g>
	</g>
</g>
<g id="FR">
</g>
<g id="_x3C_Calque_x3E_">
	<g>
		<path d="M9.9,70.65v2H6.02v12H3.86v-12H0v-2H9.9z"/>
		<path d="M14.34,74.83c0.8-0.58,1.8-1.06,3.08-1.06c1.92,0,3.12,1.06,3.12,3.38v7.5h-2.18v-7.06c0-1.3-0.44-1.76-1.66-1.76
			c-0.8,0-1.68,0.34-2.36,0.78v8.04h-2.18V70.07l2.18-0.4V74.83z"/>
		<path d="M25.26,79.93c0.1,2.46,1.1,3.16,2.6,3.16c1.16,0,2.18-0.58,2.78-1.04l0.34,1.7c-0.96,0.6-1.96,1.16-3.56,1.16
			c-2.64,0-4.44-1.58-4.44-5.56c0-3.94,1.58-5.58,4.3-5.58c2.76,0,3.84,1.8,3.84,4.46v1.7H25.26z M29.02,78.23
			c0-1.8-0.52-2.64-1.78-2.64c-1.3,0-1.86,0.78-1.96,2.64H29.02z"/>
		<path d="M41.54,69.64v5.06c0.86-0.52,1.76-0.94,2.9-0.94c1.72,0,3.54,1.08,3.54,5.46c0,4.28-2.04,5.68-4.44,5.68
			c-1.38,0-3.04-0.52-4.18-1.38V70.04L41.54,69.64z M41.54,82.49c0.62,0.4,1.26,0.6,1.88,0.6c1.26,0,2.26-0.98,2.26-3.86
			c0-2.82-0.98-3.5-2-3.5c-0.86,0-1.44,0.3-2.14,0.74V82.49z"/>
		<path d="M55.42,76.99c0-1-0.66-1.4-1.56-1.4c-0.94,0-1.72,0.54-1.72,1.64l-1.92-0.2c0.06-2.16,1.78-3.26,3.78-3.26
			c2.2,0,3.6,1.12,3.6,3.02v5.54c0,0.5,0.24,0.72,0.58,0.72c0.34,0,0.7-0.16,1.04-0.42l0.14,1.58c-0.4,0.42-1.12,0.7-1.84,0.7
			c-0.76,0-1.68-0.32-1.78-1.48c-0.8,1-1.94,1.48-3.06,1.48c-1.66,0-2.84-0.96-2.84-2.88c0-2.72,2.6-3.84,5.58-3.82V76.99z
			 M55.42,79.85C53.56,79.79,52,80.47,52,81.83c0,0.82,0.36,1.26,1.2,1.26c0.82,0,1.62-0.52,2.22-1.18V79.85z"/>
		<path d="M63.02,74.99c0.84-0.62,1.88-1.22,3.3-1.22c1.92,0,3.12,1.06,3.12,3.38v7.5h-2.18v-7.06c0-1.3-0.44-1.76-1.66-1.76
			c-0.8,0-1.68,0.34-2.36,0.78v8.04h-2.18V74.03h1.96V74.99z"/>
		<path d="M74.76,84.65h-2.18v-14.6l2.18-0.4v8.86l3.68-4.48h2.36l-3.34,4.26l3.74,6.36h-2.48l-2.78-4.76l-1.18,1.4V84.65z"/>
		<path d="M90.74,86.27c0,1.76-1.22,2.62-2.68,2.62c-0.68,0-1.44-0.18-2.1-0.54l0.34-1.74c0.4,0.18,0.86,0.34,1.26,0.34
			c0.62,0,1-0.3,1-1.1V75.79h-1.48v-1.76h1.48v-0.72c0-2.58,1.58-3.66,3.8-3.66c0.74,0,1.44,0.12,2.02,0.34L94,71.75
			c-0.42-0.16-0.94-0.26-1.5-0.26c-1.02,0-1.76,0.5-1.76,1.76v0.78h2.62l-0.26,1.76h-2.36V86.27z"/>
		<path d="M102.86,79.39c0,3.68-1.52,5.52-4.38,5.52c-2.8,0-4.4-1.6-4.4-5.56c0-3.9,1.54-5.58,4.4-5.58
			C101.46,73.77,102.86,75.37,102.86,79.39z M96.32,79.35c0,2.88,0.72,3.74,2.16,3.74c1.44,0,2.14-0.86,2.14-3.7
			c0-2.96-0.7-3.8-2.14-3.8C97.04,75.59,96.32,76.43,96.32,79.35z"/>
		<path d="M107.46,74.03v1.04c0.88-0.94,1.76-1.3,2.7-1.3c1.58,0,1.88,1.44,1.88,3l-1.86,0.22c-0.02-0.64-0.08-1.08-0.68-1.08
			c-0.58,0-1.2,0.48-1.82,1.12v7.62h-2.18V74.03H107.46z"/>
		<path d="M124.44,76.99c0-1-0.66-1.4-1.56-1.4c-0.94,0-1.72,0.54-1.72,1.64l-1.92-0.2c0.06-2.16,1.78-3.26,3.78-3.26
			c2.2,0,3.6,1.12,3.6,3.02v5.54c0,0.5,0.24,0.72,0.58,0.72c0.34,0,0.7-0.16,1.04-0.42l0.14,1.58c-0.4,0.42-1.12,0.7-1.84,0.7
			c-0.76,0-1.68-0.32-1.78-1.48c-0.8,1-1.94,1.48-3.06,1.48c-1.66,0-2.84-0.96-2.84-2.88c0-2.72,2.6-3.84,5.58-3.82V76.99z
			 M124.44,79.85c-1.86-0.06-3.42,0.62-3.42,1.98c0,0.82,0.36,1.26,1.2,1.26c0.82,0,1.62-0.52,2.22-1.18V79.85z"/>
		<path d="M140.86,77.61c-0.06-1.04-0.5-2.02-1.7-2.02c-1.32,0-1.92,0.76-1.92,3.76c0,3,0.9,3.74,2.48,3.74
			c1.26,0,2.08-0.54,2.68-0.96l0.42,1.62c-0.9,0.62-2,1.16-3.54,1.16c-2.76,0-4.32-1.74-4.32-5.58c0-3.7,1.34-5.56,4.28-5.56
			c2.56,0,3.54,1.58,3.58,3.64C142.16,77.47,141.52,77.53,140.86,77.61z"/>
		<path d="M147.6,74.83c0.8-0.58,1.8-1.06,3.08-1.06c1.92,0,3.12,1.06,3.12,3.38v7.5h-2.18v-7.06c0-1.3-0.44-1.76-1.66-1.76
			c-0.8,0-1.68,0.34-2.36,0.78v8.04h-2.18V70.07l2.18-0.4V74.83z"/>
		<path d="M161.82,76.99c0-1-0.66-1.4-1.56-1.4c-0.94,0-1.72,0.54-1.72,1.64l-1.92-0.2c0.06-2.16,1.78-3.26,3.78-3.26
			c2.2,0,3.6,1.12,3.6,3.02v5.54c0,0.5,0.24,0.72,0.58,0.72c0.34,0,0.7-0.16,1.04-0.42l0.14,1.58c-0.4,0.42-1.12,0.7-1.84,0.7
			c-0.76,0-1.68-0.32-1.78-1.48c-0.8,1-1.94,1.48-3.06,1.48c-1.66,0-2.84-0.96-2.84-2.88c0-2.72,2.6-3.84,5.58-3.82V76.99z
			 M161.82,79.85c-1.86-0.06-3.42,0.62-3.42,1.98c0,0.82,0.36,1.26,1.2,1.26c0.82,0,1.62-0.52,2.22-1.18V79.85z"/>
		<path d="M169.42,74.99c0.84-0.62,1.88-1.22,3.3-1.22c1.92,0,3.12,1.06,3.12,3.38v7.5h-2.18v-7.06c0-1.3-0.44-1.76-1.66-1.76
			c-0.8,0-1.68,0.34-2.36,0.78v8.04h-2.18V74.03h1.96V74.99z"/>
		<path d="M187.26,75.99l-1.46-0.08c0.38,0.5,0.52,1.1,0.52,1.94c0,2.4-1.56,4.04-3.88,4.04c-0.46,0-0.68-0.02-1.04-0.12
			c-0.4,0.28-0.66,0.46-0.66,0.82c0,1.12,6.44-0.2,6.44,3.62c0,2.3-2.42,3.42-5.04,3.42c-2.64,0-4.38-0.96-4.38-2.66
			c0-1.12,0.72-1.92,1.82-2.52c-0.48-0.26-0.9-0.66-0.9-1.5c0-0.84,0.6-1.4,1.28-1.88c-0.9-0.68-1.44-1.78-1.44-3.26
			c0-2.46,1.56-4.04,3.94-4.04c0.56,0,1.08,0.1,1.52,0.26h3.28V75.99z M179.82,86.73c0,0.96,1.14,1.2,2.38,1.2
			c1.38,0,2.82-0.54,2.82-1.46c0-1.3-1.8-1.28-3.44-1.5C180.72,85.37,179.82,85.97,179.82,86.73z M182.44,75.53
			c-1.16,0-1.88,0.66-1.88,2.3c0,1.64,0.72,2.3,1.88,2.3c1.16,0,1.88-0.66,1.88-2.3C184.32,76.19,183.6,75.53,182.44,75.53z"/>
		<path d="M191.38,70.24v2.36h-2.18v-2.36H191.38z M191.38,74.03v10.62h-2.18V74.03H191.38z"/>
		<path d="M196.7,74.99c0.84-0.62,1.88-1.22,3.3-1.22c1.92,0,3.12,1.06,3.12,3.38v7.5h-2.18v-7.06c0-1.3-0.44-1.76-1.66-1.76
			c-0.8,0-1.68,0.34-2.36,0.78v8.04h-2.18V74.03h1.96V74.99z"/>
		<path d="M214.54,75.99l-1.46-0.08c0.38,0.5,0.52,1.1,0.52,1.94c0,2.4-1.56,4.04-3.88,4.04c-0.46,0-0.68-0.02-1.04-0.12
			c-0.4,0.28-0.66,0.46-0.66,0.82c0,1.12,6.44-0.2,6.44,3.62c0,2.3-2.42,3.42-5.04,3.42c-2.64,0-4.38-0.96-4.38-2.66
			c0-1.12,0.72-1.92,1.82-2.52c-0.48-0.26-0.9-0.66-0.9-1.5c0-0.84,0.6-1.4,1.28-1.88c-0.9-0.68-1.44-1.78-1.44-3.26
			c0-2.46,1.56-4.04,3.94-4.04c0.56,0,1.08,0.1,1.52,0.26h3.28V75.99z M207.1,86.73c0,0.96,1.14,1.2,2.38,1.2
			c1.38,0,2.82-0.54,2.82-1.46c0-1.3-1.8-1.28-3.44-1.5C208,85.37,207.1,85.97,207.1,86.73z M209.72,75.53
			c-1.16,0-1.88,0.66-1.88,2.3c0,1.64,0.72,2.3,1.88,2.3c1.16,0,1.88-0.66,1.88-2.3C211.6,76.19,210.88,75.53,209.72,75.53z"/>
		<path d="M229.34,74.03l2.18,7.9l1.88-7.9h2.32l-2.96,10.62h-2.4l-2.2-7.82l-2.2,7.82h-2.4l-2.96-10.62h2.32l1.88,7.9l2.18-7.9
			H229.34z"/>
		<path d="M245.66,79.39c0,3.68-1.52,5.52-4.38,5.52c-2.8,0-4.4-1.6-4.4-5.56c0-3.9,1.54-5.58,4.4-5.58
			C244.26,73.77,245.66,75.37,245.66,79.39z M239.12,79.35c0,2.88,0.72,3.74,2.16,3.74c1.44,0,2.14-0.86,2.14-3.7
			c0-2.96-0.7-3.8-2.14-3.8C239.84,75.59,239.12,76.43,239.12,79.35z"/>
		<path d="M250.26,74.03v1.04c0.88-0.94,1.76-1.3,2.7-1.3c1.58,0,1.88,1.44,1.88,3l-1.86,0.22c-0.02-0.64-0.08-1.08-0.68-1.08
			c-0.58,0-1.2,0.48-1.82,1.12v7.62h-2.18V74.03H250.26z"/>
		<path d="M258.94,69.64v12.56c0,0.58,0.32,0.8,0.74,0.8c0.46,0,0.88-0.18,1.3-0.42l0.22,1.68c-0.82,0.44-1.46,0.64-2.22,0.64
			c-1.78,0-2.22-1.3-2.22-2.7V70.04L258.94,69.64z"/>
		<path d="M268.88,83.39c-0.78,0.88-1.76,1.52-3.06,1.52c-1.72,0-3.64-1.32-3.64-5.54c0-4.1,1.82-5.6,3.78-5.6
			c0.9,0,1.66,0.22,2.58,0.66v-4.38l2.18-0.4v12.68c0,0.5,0.24,0.72,0.58,0.72c0.34,0,0.7-0.16,1.04-0.42l0.14,1.58
			c-0.4,0.42-1.12,0.7-1.84,0.7C269.8,84.91,268.98,84.55,268.88,83.39z M268.54,76.19c-0.64-0.32-1.22-0.6-2.12-0.6
			c-1,0-1.96,0.66-1.96,3.68c0,2.6,0.88,3.64,1.84,3.64c0.98,0,1.72-0.6,2.24-1.2V76.19z"/>
	</g>
</g>
</svg>
