<?xml version="1.0" encoding="utf-8"?>
<!-- Generator: Adobe Illustrator 24.0.2, SVG Export Plug-In . SVG Version: 6.00 Build 0)  -->
<svg version="1.1" xmlns="http://www.w3.org/2000/svg" xmlns:xlink="http://www.w3.org/1999/xlink" x="0px" y="0px"
	 viewBox="0 0 272.478 89.629" enable-background="new 0 0 272.478 89.629" xml:space="preserve">
<g id="Calque_1">
</g>
<g id="Contents">
	<g>
		<g>
			<g>
				<linearGradient id="SVGID_1_" gradientUnits="userSpaceOnUse" x1="28.063" y1="-1.3807" x2="28.063" y2="57.8664">
					<stop  offset="0" style="stop-color:#008053"/>
					<stop  offset="0.6" style="stop-color:#7FCBAE"/>
					<stop  offset="1" style="stop-color:#00A76D"/>
				</linearGradient>
				<rect fill="url(#SVGID_1_)" width="56.126" height="56.126"/>
				<linearGradient id="SVGID_2_" gradientUnits="userSpaceOnUse" x1="27.9744" y1="-13.9421" x2="27.9744" y2="52.6354">
					<stop  offset="0" style="stop-color:#00A76D"/>
					<stop  offset="0.3" style="stop-color:#7FCBAE"/>
					<stop  offset="0.55" style="stop-color:#00A76D"/>
					<stop  offset="0.8352" style="stop-color:#008053"/>
					<stop  offset="0.8691" style="stop-color:#008558"/>
					<stop  offset="0.9244" style="stop-color:#009264"/>
					<stop  offset="0.9938" style="stop-color:#00A97A"/>
					<stop  offset="1" style="stop-color:#00AD7D"/>
				</linearGradient>
				<path fill="url(#SVGID_2_)" d="M54.392,28.388c0,11.715,0.541,23.71,0.541,23.71c-0.021,1.345-0.884,2.206-1.969,2.206H4.384
					c-1.088,0-1.839-0.968-1.967-2.206c0,0-1.402-10.241-1.402-25.893c0-15.645,1.402-23.012,1.402-23.012
					c0.168-1.287,0.88-2.207,1.967-2.207h48.58c1.085,0,1.994,1.008,1.969,2.207C54.933,3.194,54.392,16.673,54.392,28.388z"/>
				<g>
					<g>
						<linearGradient id="SVGID_3_" gradientUnits="userSpaceOnUse" x1="38.639" y1="48.959" x2="38.639" y2="5.875">
							<stop  offset="0" style="stop-color:#00B387"/>
							<stop  offset="1" style="stop-color:#00A76D"/>
						</linearGradient>
						<path fill="url(#SVGID_3_)" d="M43.584,15.156c-3.471,2.033-4.53,2.196-8.296,4.457l0.184-0.418
							c1.976-2.156,2.836-3.065,4.135-4.969c-3.48,0.189-8.525,0.604-12.134,1.399l0,0l0,0l0,0l0.191-0.387
							c3.274-1.593,9.351-3.175,12.45-3.584c-0.755-1.064-6.914-4.394-8.446-5.037l0,0l0,0l0,0l0.179-0.389
							c4.667,0.527,10.85,2.709,13.546,4.363c1.139-0.359,2.302-0.394,4.413-0.578c0,0-0.312,1.274-2.614,2.853l0,0l0,0l0,0
							c0.571,1.529-0.801,9.993-1.93,12.238l0,0l0,0l0,0C45.211,21.564,44.895,17.096,43.584,15.156z"/>
						<linearGradient id="SVGID_4_" gradientUnits="userSpaceOnUse" x1="11.9079" y1="48.9614" x2="11.9079" y2="5.8647">
							<stop  offset="0" style="stop-color:#00B387"/>
							<stop  offset="1" style="stop-color:#00A76D"/>
						</linearGradient>
						<path fill="url(#SVGID_4_)" d="M18.224,45.499l0.176-0.392c-1.843-0.715-3.686-1.28-5.178-2.685l0,0l0,0l0,0l0,0l0,0l0,0l0,0
							l0,0l0,0l0,0l0,0l0,0l0,0l0,0l0,0l0,0l0,0l0,0l0,0l0,0l0,0l0,0l0,0l0,0l0,0l0,0l0,0l0,0l0,0l0,0l0,0
							c0.47-1.305,1.007-2.328,1.883-3.621l0,0l0,0l0,0l0,0l0,0l0,0l0,0l0,0l0,0l0,0l0,0l0,0l0,0l0,0l0,0l0,0l0,0l0,0l0,0l0,0l0,0
							l0,0l0,0l0,0l0,0l0,0l0,0l0,0l0,0l0,0l0,0l0.185-0.396c-1.583,0.238-3.02,0.818-4.389,1.085l0,0l0,0l0,0l0,0l0,0l0,0l0,0l0,0
							l0,0l0,0l0,0l0,0l0,0l0,0l0,0l0,0l0,0l0,0l0,0l0,0l0,0l0,0l0,0l0,0l0,0l0,0l0,0l0,0l0,0l0,0l0,0
							c-1.081-1.898-1.5-4.496-2.044-6.968l-0.18,0.394l0,0l0,0l0,0l0,0l0,0l0,0l0,0l0,0l0,0l0,0l0,0l0,0l0,0l0,0l0,0
							c-0.306,2.821-0.429,4.838-0.025,7.092l0,0l0,0l0,0l0,0l0,0l0,0l0,0l0,0l0,0l0,0l0,0l0,0l0,0l0,0l0,0l0,0l0,0l0,0l0,0l0,0l0,0
							l0,0l0,0l0,0l0,0l0,0l0,0l0,0l0,0l0,0l0,0c-1.141,0.317-2.141,0.361-3.061,0.753l-0.175,0.387l0,0l0,0l0,0l0,0l0,0l0,0l0,0
							l0,0l0,0l0,0l0,0l0,0l0,0l0,0l0,0l0,0l0,0l0,0l0,0l0,0l0,0l0,0l0,0l0,0l0,0l0,0l0,0l0,0l0,0l0,0l0,0
							c1.464,0.903,2.655,1.594,4.311,2.367l0,0l0,0l0,0l0,0l0,0l0,0l0,0l0,0l0,0l0,0l0,0l0,0l0,0l0,0l0,0l0,0l0,0l0,0l0,0l0,0l0,0
							l0,0l0,0l0,0l0,0l0,0l0,0l0,0l0,0l0,0l0,0c0.885,1.902,1.8,3.184,3.283,4.649l0,0l0,0l0,0l0,0l0,0l0,0l0,0l0,0l0,0l0,0l0,0
							l0,0l0,0l0,0l0,0l0,0l0,0l0,0l0,0l0,0l0,0l0,0l0,0l0,0l0,0l0,0l0,0l0,0l0,0l0,0l0,0l0.181-0.391
							c-0.267-1.082-0.613-1.975-0.482-3.157l0,0l0,0l0,0l0,0l0,0l0,0l0,0l0,0l0,0l0,0l0,0l0,0l0,0l0,0l0,0l0,0l0,0l0,0l0,0l0,0l0,0
							l0,0l0,0l0,0l0,0l0,0l0,0l0,0l0,0l0,0l0,0C14.548,45.152,16.127,45.435,18.224,45.499z"/>
						<linearGradient id="SVGID_5_" gradientUnits="userSpaceOnUse" x1="20.2349" y1="48.952" x2="20.2349" y2="5.8814">
							<stop  offset="0" style="stop-color:#00B387"/>
							<stop  offset="1" style="stop-color:#00A76D"/>
						</linearGradient>
						<path fill="url(#SVGID_5_)" d="M23.342,17.31c0,0-0.741,1.315-1.334,3.06h-0.141l0,0l0,0c4.322,0.582,8.404,2.332,9.429,2.937
							l-0.182,0.387l0,0l0,0l0,0l0,0l0,0l0,0l0,0c-4.486-0.788-6.849-0.7-8.52-0.55l0,0l0,0l0,0
							c-1.667,0.161-2.007,0.369-2.007,0.369l0,0l0,0l0,0l0,0l0,0l0,0l0,0c-0.962,2.103-1.526,5.54-1.755,6.806l-0.18,0.394l0,0l0,0
							l0,0l0,0l0,0l0,0l0,0c-0.822-1.972-2.004-5.911-2.004-5.911l0,0l0,0l0,0l0,0l0,0l0,0l0,0c-2.26,1.212-7.472,6.104-7.472,6.104
							l0,0l0,0l0,0l0,0l0,0l0,0l0,0c2.874-5.728,5.777-8.346,5.777-8.346l0,0l0,0l0,0l0,0l0,0l0,0l0,0
							c-1.003-1.005-3.621-1.518-5.533-1.6l0,0l0,0l0,0l0.177-0.387c1.201-0.353,3.674-0.5,5.332-0.576l0,0l0,0l0,0l0,0l0,0l0,0l0,0
							c1.961-0.059,3.147,0.053,3.147,0.053l0,0l0,0l0,0C19.819,18.659,22.426,17.439,23.342,17.31z"/>
						<linearGradient id="SVGID_6_" gradientUnits="userSpaceOnUse" x1="27.4345" y1="48.9583" x2="27.4345" y2="5.8741">
							<stop  offset="0" style="stop-color:#00B387"/>
							<stop  offset="1" style="stop-color:#00A76D"/>
						</linearGradient>
						<path fill="url(#SVGID_6_)" d="M28.842,41.94c-0.906,1.229-1.681,2.197-2.68,3.321l0,0l0,0l0,0l0,0l0,0l0,0l0,0l0,0l0,0l0,0
							l0,0l0,0l0,0l0,0l0,0l0,0l0,0l0,0l0,0l0,0l0,0l0,0l0,0l0,0l0,0l0,0l0,0l0,0l0,0l0,0l0,0c-1.477,0.41-3.248,0.224-4.613,0.273
							l-0.179,0.391l0,0l0,0l0,0l0,0l0,0l0,0l0,0l0,0l0,0l0,0l0,0l0,0l0,0l0,0l0,0l0,0l0,0l0,0l0,0l0,0l0,0l0,0l0,0l0,0l0,0l0,0l0,0
							l0,0l0,0l0,0l0,0c1.027,0.528,2.033,0.852,3.108,1.073l0,0l0,0l0,0l0,0l0,0l0,0l0,0l0,0l0,0l0,0l0,0l0,0l0,0l0,0l0,0l0,0l0,0
							l0,0l0,0l0,0l0,0l0,0l0,0l0,0l0,0l0,0l0,0l0,0l0,0l0,0l0,0c-0.871,0.793-2.036,1.397-2.853,1.949l-0.181,0.386l0,0l0,0l0,0
							l0,0l0,0l0,0l0,0l0,0l0,0l0,0l0,0l0,0l0,0l0,0l0,0l0,0l0,0l0,0l0,0l0,0l0,0l0,0l0,0l0,0l0,0l0,0l0,0l0,0l0,0l0,0l0,0
							c1.753-0.415,4.062-1.159,5.781-2.174l0,0l0,0l0,0l0,0l0,0l0,0l0,0l0,0l0,0l0,0l0,0l0,0l0,0l0,0l0,0l0,0l0,0l0,0l0,0l0,0l0,0
							l0,0l0,0l0,0l0,0l0,0l0,0l0,0l0,0l0,0l0,0c0.894,0.04,1.731-0.019,2.344-0.141l0,0l0,0l0,0l0,0l0,0l0,0l0,0l0,0l0,0l0,0l0,0
							l0,0l0,0l0,0l0,0l0,0l0,0l0,0l0,0l0,0l0,0l0,0l0,0l0,0l0,0l0,0l0,0l0,0l0,0l0,0l0,0c0,0,0.184-0.4,0.184-0.39
							c-0.112-0.396-0.464-0.638-0.568-1.193l0,0l0,0l0,0l0,0l0,0l0,0l0,0l0,0l0,0l0,0l0,0l0,0l0,0l0,0l0,0l0,0l0,0l0,0l0,0l0,0l0,0
							l0,0l0,0l0,0l0,0l0,0l0,0l0,0l0,0l0,0l0,0c1.612-1.251,2.78-2.39,4.128-3.746l0,0l0,0l0,0l0,0l0,0l0,0l0,0l0,0l0,0l0,0l0,0
							l0,0l0,0l0,0l0,0l0,0l0,0l0,0l0,0l0,0l0,0l0,0l0,0l0,0l0,0l0,0l0,0l0,0l0,0l0,0l0,0l0.186-0.393
							c-1.332,0.919-2.947,2.181-4.505,2.92l0,0l0,0l0,0l0,0l0,0l0,0l0,0l0,0l0,0l0,0l0,0l0,0l0,0l0,0l0,0l0,0l0,0l0,0l0,0l0,0l0,0
							l0,0l0,0l0,0l0,0l0,0l0,0l0,0l0,0l0,0l0,0C28.93,43.451,28.881,42.801,28.842,41.94z"/>
					</g>
					<g>
						<path fill="#FFFFFF" d="M43.763,14.761c-3.464,2.036-4.525,2.208-8.292,4.462c2.194-2.38,2.956-3.392,4.313-5.384
							c-3.472,0.184-8.519,0.602-12.121,1.399l0,0l0,0l0,0c3.136-1.675,9.354-3.537,12.636-3.981
							c-0.761-1.05-6.921-4.387-8.453-5.03l0,0l0,0l0,0c4.876,0.379,10.838,2.202,13.727,3.969c1.137-0.355,2.319-0.372,4.435-0.561
							l0,0l0,0l0,0c-0.539,0.926-0.562,1.461-2.638,2.838l0,0l0,0l0,0c0.575,1.538-0.799,9.997-1.934,12.237l0,0l0,0l0,0
							C45.396,21.172,45.086,16.703,43.763,14.761z"/>
						<path fill="#FFFFFF" d="M18.4,45.107c-1.99-0.738-3.424-1.598-5.002-3.073l0,0l0,0l0,0l0,0l0,0l0,0l0,0l0,0l0,0l0,0l0,0l0,0
							l0,0l0,0l0,0l0,0l0,0l0,0l0,0l0,0l0,0l0,0l0,0l0,0l0,0l0,0l0,0l0,0l0,0l0,0l0,0c0.473-1.304,1.011-2.323,1.891-3.629l0,0l0,0
							l0,0l0,0l0,0l0,0l0,0l0,0l0,0l0,0l0,0l0,0l0,0l0,0l0,0l0,0l0,0l0,0l0,0l0,0l0,0l0,0l0,0l0,0l0,0l0,0l0,0l0,0l0,0l0,0l0,0
							c-1.618,0.242-2.811,0.424-4.206,0.688l0,0l0,0l0,0l0,0l0,0l0,0l0,0l0,0l0,0l0,0l0,0l0,0l0,0l0,0l0,0l0,0l0,0l0,0l0,0l0,0l0,0
							l0,0l0,0l0,0l0,0l0,0l0,0l0,0l0,0l0,0l0,0c-1.135-1.986-1.649-3.902-2.227-6.571l0,0l0,0l0,0l0,0l0,0l0,0l0,0l0,0l0,0l0,0l0,0
							l0,0l0,0l0,0l0,0C8.548,35.35,8.43,37.37,8.829,39.62l0,0l0,0l0,0l0,0l0,0l0,0l0,0l0,0l0,0l0,0l0,0l0,0l0,0l0,0l0,0l0,0l0,0
							l0,0l0,0l0,0l0,0l0,0l0,0l0,0l0,0l0,0l0,0l0,0l0,0l0,0l0,0c-1.28,0.355-2.186,0.666-3.239,1.141l0,0l0,0l0,0l0,0l0,0l0,0l0,0
							l0,0l0,0l0,0l0,0l0,0l0,0l0,0l0,0l0,0l0,0l0,0l0,0l0,0l0,0l0,0l0,0l0,0l0,0l0,0l0,0l0,0l0,0l0,0l0,0
							c1.476,0.903,2.667,1.598,4.314,2.366l0,0l0,0l0,0l0,0l0,0l0,0l0,0l0,0l0,0l0,0l0,0l0,0l0,0l0,0l0,0l0,0l0,0l0,0l0,0l0,0l0,0
							l0,0l0,0l0,0l0,0l0,0l0,0l0,0l0,0l0,0l0,0c0.886,1.898,1.801,3.182,3.286,4.645l0,0l0,0l0,0l0,0l0,0l0,0l0,0l0,0l0,0l0,0l0,0
							l0,0l0,0l0,0l0,0l0,0l0,0l0,0l0,0l0,0l0,0l0,0l0,0l0,0l0,0l0,0l0,0l0,0l0,0l0,0l0,0c-0.348-1.247-0.44-2.238-0.297-3.547l0,0
							l0,0l0,0l0,0l0,0l0,0l0,0l0,0l0,0l0,0l0,0l0,0l0,0l0,0l0,0l0,0l0,0l0,0l0,0l0,0l0,0l0,0l0,0l0,0l0,0l0,0l0,0l0,0l0,0l0,0l0,0
							C14.734,44.762,16.31,45.043,18.4,45.107z"/>
						<path fill="#FFFFFF" d="M23.582,16.974L23.582,16.974L23.582,16.974L23.582,16.974L23.582,16.974
							c-0.62,0.805-1.339,2.306-1.533,3.003l0,0l0,0l0,0c5.13,0.695,9.246,3.329,9.246,3.329l0,0l0,0l0,0l0,0l0,0l0,0l0,0
							c-4.486-0.795-6.85-0.696-8.524-0.546l0,0l0,0l0,0c-1.663,0.157-2.005,0.353-2.005,0.353l0,0l0,0l0,0l0,0l0,0l0,0l0,0
							c-1.21,2.651-1.936,7.205-1.936,7.205l0,0l0,0l0,0l0,0l0,0l0,0l0,0c-0.816-1.969-1.995-5.91-1.995-5.91l0,0l0,0l0,0l0,0l0,0
							l0,0l0,0c-2.264,1.211-7.47,6.108-7.47,6.108l0,0l0,0l0,0l0,0l0,0l0,0l0,0c2.862-5.733,5.767-8.341,5.767-8.341l0,0l0,0l0,0
							l0,0l0,0l0,0l0,0c-1-1.013-3.621-1.518-5.537-1.603l0,0l0,0l0,0c0.995-0.406,3.548-0.881,5.51-0.972l0,0l0,0l0,0l0,0l0,0l0,0
							l0,0c1.964-0.056,3.152,0.056,3.152,0.056l0,0l0,0l0,0C20.008,18.274,22.666,17.109,23.582,16.974z"/>
						<path fill="#FFFFFF" d="M29.024,41.553c-0.905,1.229-1.684,2.194-2.689,3.316l0,0l0,0l0,0l0,0l0,0l0,0l0,0l0,0l0,0l0,0l0,0
							l0,0l0,0l0,0l0,0l0,0l0,0l0,0l0,0l0,0l0,0l0,0l0,0l0,0l0,0l0,0l0,0l0,0l0,0l0,0l0,0c-1.726,0.485-3.103,0.665-4.787,0.665l0,0
							l0,0l0,0l0,0l0,0l0,0l0,0l0,0l0,0l0,0l0,0l0,0l0,0l0,0l0,0l0,0l0,0l0,0l0,0l0,0l0,0l0,0l0,0l0,0l0,0l0,0l0,0l0,0l0,0l0,0l0,0
							c1.033,0.533,2.034,0.852,3.112,1.078l0,0l0,0l0,0l0,0l0,0l0,0l0,0l0,0l0,0l0,0l0,0l0,0l0,0l0,0l0,0l0,0l0,0l0,0l0,0l0,0l0,0
							l0,0l0,0l0,0l0,0l0,0l0,0l0,0l0,0l0,0l0,0c-1.078,0.975-1.989,1.67-3.036,2.336l0,0l0,0l0,0l0,0l0,0l0,0l0,0l0,0l0,0l0,0l0,0
							l0,0l0,0l0,0l0,0l0,0l0,0l0,0l0,0l0,0l0,0l0,0l0,0l0,0l0,0l0,0l0,0l0,0l0,0l0,0l0,0c1.755-0.416,4.06-1.16,5.778-2.175l0,0
							l0,0l0,0l0,0l0,0l0,0l0,0l0,0l0,0l0,0l0,0l0,0l0,0l0,0l0,0l0,0l0,0l0,0l0,0l0,0l0,0l0,0l0,0l0,0l0,0l0,0l0,0l0,0l0,0l0,0l0,0
							c0.897,0.035,1.736-0.023,2.351-0.145l0,0l0,0l0,0l0,0l0,0l0,0l0,0l0,0l0,0l0,0l0,0l0,0l0,0l0,0l0,0l0,0l0,0l0,0l0,0l0,0l0,0
							l0,0l0,0l0,0l0,0l0,0l0,0l0,0l0,0l0,0l0,0c-0.161-0.52-0.258-0.908-0.389-1.584l0,0l0,0l0,0l0,0l0,0l0,0l0,0l0,0l0,0l0,0l0,0
							l0,0l0,0l0,0l0,0l0,0l0,0l0,0l0,0l0,0l0,0l0,0l0,0l0,0l0,0l0,0l0,0l0,0l0,0l0,0l0,0c1.617-1.252,2.79-2.386,4.135-3.748l0,0
							l0,0l0,0l0,0l0,0l0,0l0,0l0,0l0,0l0,0l0,0l0,0l0,0l0,0l0,0l0,0l0,0l0,0l0,0l0,0l0,0l0,0l0,0l0,0l0,0l0,0l0,0l0,0l0,0l0,0l0,0
							c-1.432,1-2.667,1.745-4.324,2.528l0,0l0,0l0,0l0,0l0,0l0,0l0,0l0,0l0,0l0,0l0,0l0,0l0,0l0,0l0,0l0,0l0,0l0,0l0,0l0,0l0,0l0,0
							l0,0l0,0l0,0l0,0l0,0l0,0l0,0l0,0l0,0C29.104,43.06,29.063,42.414,29.024,41.553z"/>
					</g>
				</g>
			</g>
		</g>
		<g>
			<g>
				<g>
					<g>
						<g>
							<path d="M70.245,18.514c0.117,2.039,0.237,7.197,0.237,9.077c0,1.733-0.004,7.534-0.304,10.035l-0.021,0.198h9.066
								c4.453,0,9.166-1.387,9.166-5.343c0-2.478-1.794-4.308-5.149-5.309c2.49-0.667,4.148-2.368,4.148-4.313
								c0-3.229-3.711-4.445-7.198-4.53h-9.997L70.245,18.514z M77.245,20.491c3.779,0.032,5.164,0.799,5.164,2.856
								c0,0.568-0.174,1.072-0.51,1.457c-0.723,0.87-2.132,1.32-3.931,1.207h-0.092l-1.056,2.75h1.056
								c2.086-0.06,3.9,0.598,4.831,1.737c0.43,0.518,0.645,1.141,0.645,1.779c0,2.15-1.894,3.262-5.63,3.262
								c-0.63,0-1.654,0-2.289-0.022c-0.107-2.871-0.155-6.756-0.155-7.928c0-1.355,0.088-4.373,0.155-6.955
								C75.865,20.547,76.579,20.491,77.245,20.491z"/>
							<path d="M109.308,18.33h-4.412l0.179,4.916c0.086,2.428,0.169,4.927,0.341,7.354l0,0l0,0c-0.285-0.76-0.551-1.15-1.891-3.103
								c-0.006-0.068-4.59-7.12-6.18-9.122l-0.047-0.045H92.18v0.184c0.162,2.039,0.227,7.197,0.227,9.077
								c0,1.733,0,7.534-0.244,10.035l-0.043,0.198h4.56v-0.198c-0.259-4.757-0.259-9.559-0.259-14.216l0,0
								c0.16,0.564,0.361,1.05,1.08,2.114c0.057,0.126,7.914,11.562,8.295,12.217l0.04,0.082h3.653l-0.006-0.198
								c-0.278-2.502-0.301-8.302-0.301-10.035c0-1.88,0.126-7.038,0.244-9.077l0.057-0.184H109.308z"/>
							<path d="M114.582,18.514c0.18,2.039,0.248,7.197,0.248,9.077c0,1.733,0,7.534-0.268,10.035v0.198h5.425l-0.023-0.198
								c-0.185-1.799-0.281-5.232-0.3-7.855c0.256,0.011,1.025,0.052,1.025,0.052l0.769,0.017c7.138,0,10.61-1.889,10.61-5.865
								c0-4.522-4.872-5.56-8.932-5.645h-8.553V18.514z M121.27,20.683c2.544-0.047,4.318,0.467,5.159,1.534
								c0.387,0.459,0.602,1.065,0.602,1.758c0,2.82-3.175,3.434-5.827,3.434l-1.076-0.062c0,0-0.256-0.024-0.445-0.045
								c-0.019-0.651-0.019-1.511-0.019-2.475c0-1.227,0-2.683,0.058-4.032C120.095,20.747,120.661,20.683,121.27,20.683z"/>
							<path d="M142.422,18.514c0.172,2.039,0.271,7.197,0.271,9.077c0,1.733-0.018,7.534-0.3,10.035v0.198h5.429l-0.031-0.198
								c-0.171-1.799-0.27-5.232-0.27-7.855c0.254,0.011,0.976,0.052,0.976,0.052l0.788,0.017c7.134,0,10.637-1.889,10.637-5.865
								c0-4.522-4.899-5.56-8.972-5.645h-8.527V18.514z M149.1,20.683c2.548-0.047,4.322,0.467,5.175,1.534
								c0.392,0.459,0.59,1.065,0.59,1.758c0,2.82-3.171,3.434-5.79,3.434l-1.074-0.062c0,0-0.285-0.024-0.449-0.045
								c-0.031-0.651-0.031-1.516-0.031-2.475c0-1.239,0-2.683,0.052-4.032C147.91,20.747,148.496,20.683,149.1,20.683z"/>
							<path d="M167.177,18.33h-0.07l-0.039,0.099c-1.01,2.773-7.519,16.976-8.549,19.151l-0.086,0.244h4.621l0.039-0.109
								c0.407-1.337,0.954-2.842,1.548-4.451c0.186,0,3.857-0.057,3.857-0.057l3.19,0.024c0,0,0.515,0.033,0.669,0.033
								c0.822,2.096,1.453,3.674,1.727,4.477l0.053,0.082h5.352l-8.65-19.494h-0.106H167.177z M168.499,24.07
								c0.43,0.931,1.549,3.52,2.811,6.613c-0.196,0.01-0.438,0.01-0.438,0.01l-2.374,0.03c0,0-2.46-0.03-2.868-0.04
								C166.655,28.212,167.67,25.978,168.499,24.07z"/>
							<path d="M181.67,18.514c0.156,2.039,0.233,7.197,0.233,9.077c0,1.733,0,7.534-0.297,10.035v0.198h5.46l-0.024-0.198
								c-0.288-2.519-0.309-8.302-0.309-10.035c0-1.355,0.042-4.373,0.179-6.816c0.415-0.028,1.044-0.092,1.473-0.092
								c2.525-0.047,4.308,0.474,5.145,1.534c0.399,0.459,0.58,1.077,0.58,1.758c0,2.251-2.1,3.392-4.058,3.495
								c-0.657,0.027-1.144-0.058-1.144-0.058l-0.382-0.065l0.209,0.358c1.938,2.825,4.836,7.722,6.033,10.037l0.036,0.082h5.83
								l-0.144-0.264c-0.238-0.329-4.036-5.919-5.65-8.307c0,0-0.072-0.07-0.141-0.145c2.991-0.897,4.434-2.569,4.434-5.134
								c0-4.489-4.869-5.557-8.979-5.645h-8.498L181.67,18.514z"/>
							<path d="M208.35,18.33h-5.197l0.029,0.184c0.134,2.039,0.239,7.197,0.239,9.077c0,1.725-0.024,7.517-0.268,10.035
								l-0.02,0.198h5.389l-0.029-0.198c-0.206-2.519-0.271-8.311-0.271-10.035c0-1.88,0.128-7.038,0.271-9.077V18.33H208.35z"/>
							<path d="M213.434,18.514c0.156,2.039,0.251,7.197,0.251,9.077c0,1.733,0,7.534-0.274,10.035l-0.044,0.198h9.078
								c4.44,0,9.165-1.387,9.165-5.343c0-2.478-1.796-4.308-5.18-5.309c2.491-0.667,4.169-2.368,4.169-4.313
								c0-3.229-3.715-4.445-7.171-4.53h-10.018L213.434,18.514z M220.43,20.491L220.43,20.491c3.809,0.032,5.192,0.799,5.192,2.856
								c0,0.568-0.174,1.072-0.52,1.457c-0.686,0.87-2.153,1.32-3.937,1.207h-0.088l-1.048,2.75h1.048
								c2.094-0.06,3.89,0.598,4.821,1.737c0.454,0.518,0.669,1.141,0.669,1.779c0,2.15-1.902,3.262-5.658,3.262
								c-0.604,0-1.619,0-2.255-0.022c-0.157-2.871-0.157-6.756-0.157-7.928c0-1.355,0.051-4.373,0.157-6.955
								C219.065,20.547,219.776,20.491,220.43,20.491z"/>
							<path d="M244.96,18.33h-3.65l-0.024,0.088c-1.09,2.951-7.965,17.903-8.542,19.143l-0.102,0.264h4.645l0.029-0.116
								c0.387-1.337,0.926-2.835,1.532-4.476c0.146,0,3.838-0.058,3.838-0.058l3.196,0.049c0,0,0.557,0.008,0.678,0.008
								c0.841,2.096,1.465,3.687,1.736,4.476l0.051,0.116h5.375l-8.648-19.494H244.96z M242.717,24.06
								c0.438,0.909,1.547,3.503,2.811,6.604c-0.193,0-0.428,0.019-0.428,0.019l-2.383,0.032c0,0-2.487-0.052-2.856-0.052
								C240.872,28.174,241.861,25.955,242.717,24.06z"/>
							<path d="M255.244,23.371c0,3.424,3.43,4.803,6.468,6.063c2.364,0.941,4.839,1.934,4.839,3.566
								c0,0.494-0.099,0.91-0.374,1.202c-0.569,0.671-1.72,0.951-3.547,0.851c-1.813-0.074-3.853-0.644-6.15-1.702l-0.899-0.434
								v0.757v3.492l0.614,0.155l0.357,0.062c1.134,0.28,3.323,0.796,5.501,0.796c5.723,0,9.139-2.284,9.139-6.058
								c0-3.546-3.526-4.924-6.643-6.166c-2.297-0.93-4.673-1.853-4.673-3.373c0-0.437,0-1.716,2.966-1.716
								c2.186,0,4.312,0.889,5.518,1.352l1.1,0.459l-0.007-0.73v-3.531l-1.092-0.198c-1.113-0.224-2.968-0.593-4.88-0.593
								C258.541,17.623,255.244,19.955,255.244,23.371z"/>
						</g>
					</g>
				</g>
			</g>
		</g>
	</g>
</g>
<g id="FR">
</g>
<g id="_x3C_Calque_x3E_">
	<g>
		<path d="M9.902,70.645v2H6.022v12.003H3.861V72.646H0v-2H9.902z"/>
		<path d="M14.341,74.826c0.8-0.58,1.8-1.06,3.081-1.06c1.92,0,3.121,1.06,3.121,3.381v7.502h-2.181v-7.062
			c0-1.3-0.44-1.76-1.66-1.76c-0.8,0-1.681,0.34-2.36,0.78v8.042H12.16V70.065l2.181-0.4V74.826z"/>
		<path d="M25.26,79.927c0.1,2.461,1.1,3.161,2.601,3.161c1.16,0,2.18-0.58,2.781-1.04l0.34,1.7c-0.96,0.6-1.96,1.161-3.56,1.161
			c-2.641,0-4.441-1.581-4.441-5.562c0-3.941,1.58-5.581,4.301-5.581c2.76,0,3.841,1.8,3.841,4.461v1.7H25.26z M29.021,78.227
			c0-1.8-0.52-2.641-1.78-2.641c-1.3,0-1.86,0.78-1.96,2.641H29.021z"/>
		<path d="M41.54,69.645v5.062c0.86-0.521,1.761-0.94,2.9-0.94c1.721,0,3.541,1.08,3.541,5.461c0,4.281-2.04,5.682-4.441,5.682
			c-1.38,0-3.041-0.521-4.181-1.38V70.045L41.54,69.645z M41.54,82.487c0.62,0.4,1.26,0.6,1.88,0.6c1.26,0,2.26-0.98,2.26-3.861
			c0-2.82-0.98-3.501-2-3.501c-0.86,0-1.44,0.3-2.141,0.74V82.487z"/>
		<path d="M55.42,76.986c0-1-0.66-1.4-1.56-1.4c-0.94,0-1.721,0.54-1.721,1.641l-1.92-0.2C50.279,74.866,52,73.766,54,73.766
			c2.201,0,3.601,1.12,3.601,3.021v5.541c0,0.5,0.24,0.72,0.58,0.72c0.34,0,0.7-0.16,1.041-0.42l0.14,1.58
			c-0.4,0.42-1.12,0.7-1.841,0.7c-0.76,0-1.68-0.32-1.78-1.48c-0.8,1-1.94,1.48-3.061,1.48c-1.66,0-2.841-0.96-2.841-2.881
			c0-2.721,2.6-3.841,5.581-3.821V76.986z M55.42,79.847c-1.86-0.06-3.42,0.62-3.42,1.98c0,0.82,0.36,1.26,1.2,1.26
			c0.82,0,1.62-0.52,2.22-1.18V79.847z"/>
		<path d="M63.02,74.986c0.84-0.62,1.88-1.22,3.301-1.22c1.92,0,3.121,1.06,3.121,3.381v7.502h-2.18v-7.062
			c0-1.3-0.44-1.76-1.661-1.76c-0.8,0-1.68,0.34-2.361,0.78v8.042h-2.18V74.026h1.96V74.986z"/>
		<path d="M74.76,84.648h-2.181V70.045l2.181-0.4v8.862l3.681-4.481h2.36l-3.341,4.261l3.741,6.361h-2.48l-2.78-4.761l-1.181,1.4
			V84.648z"/>
		<path d="M90.739,86.268c0,1.761-1.221,2.621-2.681,2.621c-0.681,0-1.44-0.18-2.101-0.54l0.34-1.74c0.4,0.18,0.86,0.34,1.261,0.34
			c0.62,0,1-0.3,1-1.1V75.786h-1.48v-1.76h1.48v-0.72c0-2.581,1.58-3.661,3.801-3.661c0.74,0,1.44,0.12,2.021,0.34L94,71.745
			c-0.42-0.16-0.94-0.26-1.501-0.26c-1.02,0-1.76,0.5-1.76,1.76v0.78h2.62l-0.26,1.76h-2.36V86.268z"/>
		<path d="M102.86,79.387c0,3.681-1.521,5.521-4.381,5.521c-2.801,0-4.401-1.601-4.401-5.562c0-3.901,1.54-5.581,4.401-5.581
			C101.46,73.766,102.86,75.366,102.86,79.387z M96.318,79.347c0,2.881,0.721,3.741,2.161,3.741c1.439,0,2.141-0.86,2.141-3.701
			c0-2.961-0.701-3.801-2.141-3.801C97.039,75.586,96.318,76.426,96.318,79.347z"/>
		<path d="M107.459,74.026v1.04c0.88-0.94,1.761-1.3,2.7-1.3c1.58,0,1.881,1.44,1.881,3l-1.861,0.22
			c-0.02-0.64-0.079-1.08-0.68-1.08c-0.58,0-1.2,0.48-1.82,1.12v7.622h-2.181V74.026H107.459z"/>
		<path d="M124.438,76.986c0-1-0.66-1.4-1.56-1.4c-0.94,0-1.721,0.54-1.721,1.641l-1.921-0.2c0.061-2.161,1.781-3.261,3.781-3.261
			c2.201,0,3.601,1.12,3.601,3.021v5.541c0,0.5,0.24,0.72,0.58,0.72c0.341,0,0.7-0.16,1.04-0.42l0.141,1.58
			c-0.4,0.42-1.12,0.7-1.841,0.7c-0.76,0-1.68-0.32-1.78-1.48c-0.8,1-1.94,1.48-3.061,1.48c-1.66,0-2.841-0.96-2.841-2.881
			c0-2.721,2.601-3.841,5.581-3.821V76.986z M124.438,79.847c-1.859-0.06-3.42,0.62-3.42,1.98c0,0.82,0.359,1.26,1.2,1.26
			c0.819,0,1.62-0.52,2.22-1.18V79.847z"/>
		<path d="M140.858,77.606c-0.061-1.04-0.5-2.021-1.7-2.021c-1.32,0-1.921,0.76-1.921,3.761c0,3.001,0.9,3.741,2.48,3.741
			c1.261,0,2.081-0.54,2.681-0.96l0.421,1.62c-0.9,0.62-2.001,1.161-3.541,1.161c-2.761,0-4.321-1.741-4.321-5.582
			c0-3.701,1.341-5.561,4.281-5.561c2.561,0,3.54,1.58,3.581,3.641C142.159,77.466,141.518,77.526,140.858,77.606z"/>
		<path d="M147.598,74.826c0.8-0.58,1.801-1.06,3.081-1.06c1.92,0,3.12,1.06,3.12,3.381v7.502h-2.181v-7.062
			c0-1.3-0.439-1.76-1.66-1.76c-0.8,0-1.68,0.34-2.36,0.78v8.042h-2.181V70.065l2.181-0.4V74.826z"/>
		<path d="M161.817,76.986c0-1-0.66-1.4-1.56-1.4c-0.94,0-1.721,0.54-1.721,1.641l-1.921-0.2c0.061-2.161,1.781-3.261,3.781-3.261
			c2.201,0,3.601,1.12,3.601,3.021v5.541c0,0.5,0.24,0.72,0.58,0.72c0.341,0,0.7-0.16,1.04-0.42l0.141,1.58
			c-0.4,0.42-1.12,0.7-1.841,0.7c-0.76,0-1.68-0.32-1.78-1.48c-0.8,1-1.94,1.48-3.061,1.48c-1.66,0-2.841-0.96-2.841-2.881
			c0-2.721,2.601-3.841,5.581-3.821V76.986z M161.817,79.847c-1.859-0.06-3.42,0.62-3.42,1.98c0,0.82,0.359,1.26,1.2,1.26
			c0.819,0,1.62-0.52,2.22-1.18V79.847z"/>
		<path d="M169.417,74.986c0.84-0.62,1.881-1.22,3.301-1.22c1.92,0,3.121,1.06,3.121,3.381v7.502h-2.181v-7.062
			c0-1.3-0.44-1.76-1.661-1.76c-0.8,0-1.68,0.34-2.36,0.78v8.042h-2.181V74.026h1.961V74.986z"/>
		<path d="M187.259,75.986l-1.461-0.08c0.381,0.5,0.52,1.1,0.52,1.94c0,2.4-1.561,4.04-3.881,4.04c-0.46,0-0.681-0.02-1.04-0.12
			c-0.4,0.28-0.66,0.461-0.66,0.82c0,1.12,6.441-0.2,6.441,3.621c0,2.3-2.421,3.42-5.041,3.42c-2.641,0-4.381-0.96-4.381-2.661
			c0-1.12,0.72-1.92,1.82-2.521c-0.48-0.26-0.9-0.66-0.9-1.5c0-0.84,0.6-1.4,1.28-1.88c-0.9-0.68-1.44-1.781-1.44-3.261
			c0-2.461,1.561-4.041,3.94-4.041c0.561,0,1.081,0.1,1.52,0.26h3.281V75.986z M179.817,86.729c0,0.96,1.14,1.2,2.38,1.2
			c1.38,0,2.82-0.54,2.82-1.46c0-1.3-1.8-1.28-3.44-1.5C180.717,85.368,179.817,85.968,179.817,86.729z M182.438,75.526
			c-1.16,0-1.881,0.66-1.881,2.301c0,1.64,0.721,2.3,1.881,2.3c1.16,0,1.88-0.66,1.88-2.3
			C184.317,76.186,183.598,75.526,182.438,75.526z"/>
		<path d="M191.377,70.245v2.361h-2.181v-2.361H191.377z M191.377,74.026v10.622h-2.181V74.026H191.377z"/>
		<path d="M196.696,74.986c0.841-0.62,1.881-1.22,3.301-1.22c1.921,0,3.121,1.06,3.121,3.381v7.502h-2.181v-7.062
			c0-1.3-0.44-1.76-1.66-1.76c-0.8,0-1.681,0.34-2.36,0.78v8.042h-2.181V74.026h1.96V74.986z"/>
		<path d="M214.538,75.986l-1.46-0.08c0.38,0.5,0.52,1.1,0.52,1.94c0,2.4-1.559,4.04-3.881,4.04c-0.46,0-0.68-0.02-1.04-0.12
			c-0.4,0.28-0.66,0.461-0.66,0.82c0,1.12,6.441-0.2,6.441,3.621c0,2.3-2.42,3.42-5.041,3.42c-2.641,0-4.381-0.96-4.381-2.661
			c0-1.12,0.721-1.92,1.82-2.521c-0.48-0.26-0.9-0.66-0.9-1.5c0-0.84,0.601-1.4,1.28-1.88c-0.899-0.68-1.44-1.781-1.44-3.261
			c0-2.461,1.561-4.041,3.941-4.041c0.56,0,1.08,0.1,1.519,0.26h3.281V75.986z M207.097,86.729c0,0.96,1.141,1.2,2.381,1.2
			c1.38,0,2.82-0.54,2.82-1.46c0-1.3-1.801-1.28-3.441-1.5C207.997,85.368,207.097,85.968,207.097,86.729z M209.717,75.526
			c-1.16,0-1.88,0.66-1.88,2.301c0,1.64,0.72,2.3,1.88,2.3c1.161,0,1.881-0.66,1.881-2.3
			C211.598,76.186,210.878,75.526,209.717,75.526z"/>
		<path d="M229.337,74.026l2.182,7.901l1.88-7.901h2.32l-2.96,10.622h-2.401l-2.2-7.822l-2.2,7.822h-2.401l-2.96-10.622h2.32
			l1.881,7.901l2.181-7.901H229.337z"/>
		<path d="M245.657,79.387c0,3.681-1.52,5.521-4.381,5.521c-2.801,0-4.4-1.601-4.4-5.562c0-3.901,1.54-5.581,4.4-5.581
			C244.257,73.766,245.657,75.366,245.657,79.387z M239.116,79.347c0,2.881,0.72,3.741,2.16,3.741c1.44,0,2.141-0.86,2.141-3.701
			c0-2.961-0.7-3.801-2.141-3.801C239.836,75.586,239.116,76.426,239.116,79.347z"/>
		<path d="M250.256,74.026v1.04c0.88-0.94,1.761-1.3,2.701-1.3c1.58,0,1.88,1.44,1.88,3l-1.86,0.22c-0.02-0.64-0.08-1.08-0.68-1.08
			c-0.581,0-1.2,0.48-1.821,1.12v7.622h-2.18V74.026H250.256z"/>
		<path d="M258.935,69.645v12.563c0,0.58,0.32,0.8,0.74,0.8c0.46,0,0.88-0.18,1.301-0.42l0.22,1.681
			c-0.82,0.44-1.46,0.64-2.221,0.64c-1.78,0-2.221-1.3-2.221-2.701V70.045L258.935,69.645z"/>
		<path d="M268.876,83.388c-0.779,0.88-1.76,1.521-3.061,1.521c-1.72,0-3.641-1.32-3.641-5.542c0-4.101,1.82-5.601,3.781-5.601
			c0.9,0,1.66,0.22,2.58,0.66v-4.381l2.181-0.4v12.683c0,0.5,0.24,0.72,0.58,0.72c0.341,0,0.7-0.16,1.04-0.42l0.141,1.58
			c-0.4,0.42-1.12,0.7-1.841,0.7C269.797,84.908,268.977,84.548,268.876,83.388z M268.536,76.186c-0.64-0.32-1.22-0.6-2.12-0.6
			c-1,0-1.96,0.66-1.96,3.681c0,2.601,0.88,3.641,1.84,3.641c0.98,0,1.721-0.6,2.24-1.2V76.186z"/>
	</g>
</g>
</svg>
