<?xml version="1.0" encoding="utf-8"?>
<!-- Generator: Adobe Illustrator 25.2.2, SVG Export Plug-In . SVG Version: 6.00 Build 0)  -->
<svg version="1.1" id="LOGO" xmlns="http://www.w3.org/2000/svg" xmlns:xlink="http://www.w3.org/1999/xlink" x="0px" y="0px"
	 viewBox="0 0 288 130.28" style="enable-background:new 0 0 288 130.28;" xml:space="preserve">
<style type="text/css">
	.st0{fill:#AB8433;}
	.st1{fill:#8D9091;}
	.st2{fill:#9D8E6C;}
	.st3{fill:#4B4C4C;}
</style>
<g id="Icon">
	<path class="st0" d="M71.26,27.87L37.08,14.5c-7.34,4.02-13.35,8.67-18.22,13.36c4.87,4.68,10.88,9.33,18.22,13.36L71.26,27.87z"/>
	<path class="st1" d="M0,0c0,0,3.62,11.77,15.49,24.43c5.27-4.05,11.61-7.73,19.15-10.89L0,0z"/>
	<path class="st2" d="M0,55.73c0,0,3.62-11.76,15.49-24.43c5.27,4.05,11.61,7.72,19.15,10.89L0,55.73z"/>
</g>
<g>
	<polygon class="st3" points="63.88,71.4 67.04,71.4 67.04,89.1 52.59,69.33 45.37,69.33 45.37,71.4 48.35,71.4 49.34,72.8 
		49.34,95.17 46.18,95.17 46.18,97.25 55.1,97.25 55.1,95.17 51.96,95.17 51.96,76.36 67.48,97.72 69.65,97.72 69.65,71.4 
		72.76,71.4 72.76,69.33 63.88,69.33 	"/>
	<path class="st3" d="M30.22,94.85h-3.58V83.98h3.58c3.72,0,6.13,2.22,6.13,5.65C36.35,93.48,33.05,94.85,30.22,94.85 M26.64,71.77
		h3.42c1.82,0,4.86,0.62,4.86,4.78c0,3.46-2.56,5.01-5.09,5.01h-3.2V71.77z M34.67,82.51c2.65-0.75,5.12-2.82,5.12-6.12
		c0-4.29-3.18-7.06-8.12-7.06H18.86v2.06h3.11v23.77h-3.11v2.09h13.55c5.23,0,8.72-2.97,8.72-7.41
		C41.13,85.46,37.98,83.23,34.67,82.51"/>
	<polygon class="st3" points="91.8,71.4 95.37,71.4 89.37,81.29 82.93,71.4 86.16,71.4 86.16,69.33 74.89,69.33 74.89,71.4 
		77.41,71.4 85.9,84.45 85.9,95.16 82.79,95.16 82.79,97.25 93.68,97.25 93.68,95.16 90.52,95.16 90.52,84.21 98.37,71.4 
		100.64,71.4 100.64,69.33 91.8,69.33 	"/>
	<polygon class="st3" points="224.01,94.85 214.81,94.85 214.81,71.4 217.92,71.4 217.92,69.33 207.02,69.33 207.02,71.4 
		210.15,71.4 210.15,95.16 207.02,95.16 207.02,97.25 226.44,97.25 226.44,91.19 224.01,91.19 	"/>
	<polygon class="st3" points="200.08,94.85 190.9,94.85 190.9,71.4 194.02,71.4 194.02,69.33 183.11,69.33 183.11,71.4 186.23,71.4 
		186.23,95.16 183.11,95.16 183.11,97.25 202.53,97.25 202.53,91.19 200.08,91.19 	"/>
	<polygon class="st3" points="133.86,89.4 124.46,69.33 116.67,69.33 116.67,71.4 119.82,71.4 119.82,95.16 116.67,95.16 
		116.67,97.25 125.59,97.25 125.59,95.16 122.44,95.16 122.44,75.8 132.85,98.04 142.74,76.29 142.74,95.16 139.63,95.16 
		139.63,97.25 150.52,97.25 150.52,95.16 147.4,95.16 147.4,71.4 150.52,71.4 150.52,69.33 143.11,69.33 	"/>
	<path class="st3" d="M243.16,95.09c-5.18,0-8.78-4.85-8.78-11.8c0-6.93,3.64-11.75,8.83-11.75c5.08,0,8.63,4.83,8.63,11.75
		C251.83,90.23,248.27,95.09,243.16,95.09 M243.16,68.83c-7.66,0-13.91,6.51-13.91,14.51c0,7.97,6.24,14.45,13.91,14.45
		c7.61,0,13.79-6.51,13.79-14.5C256.95,75.31,250.77,68.83,243.16,68.83"/>
	<polygon class="st3" points="279.12,69.33 279.12,71.4 282.27,71.4 282.27,89.1 267.83,69.33 260.59,69.33 260.59,71.4 
		263.59,71.4 264.58,72.8 264.58,95.16 261.44,95.16 261.44,97.25 270.35,97.25 270.35,95.16 267.19,95.16 267.19,76.36 
		282.71,97.72 284.89,97.72 284.89,71.4 288,71.4 288,69.33 	"/>
	<polygon class="st3" points="173.9,94.85 164.23,94.85 164.23,84.26 171.53,84.26 171.53,87.44 173.98,87.44 173.98,78.72 
		171.53,78.72 171.53,81.86 164.23,81.86 164.23,71.77 173.52,71.77 173.52,75.31 175.93,75.31 175.93,68.16 173.48,68.16 
		173.48,69.33 156.46,69.33 156.46,71.4 159.56,71.4 159.56,95.16 156.46,95.16 156.46,97.25 176.35,97.25 176.35,91.19 
		173.9,91.19 	"/>
</g>
<g>
	<path class="st3" d="M18.86,130.01v-13.83h1.78v13.83H18.86z"/>
	<path class="st3" d="M33.62,130.01l-6.79-11.12v11.12h-1.68v-13.83h1.95l6.79,11.16v-11.16h1.68v13.83H33.62z"/>
	<path class="st3" d="M44.68,130.01h-1.81l-4.66-13.83H40l3.82,11.69l3.75-11.69h1.78L44.68,130.01z"/>
	<path class="st3" d="M51.99,130.01v-13.83h9.25v1.6h-7.51v4.22h6.6v1.64h-6.6v4.78h7.51v1.6H51.99z"/>
	<path class="st3" d="M72.98,128.88c-0.96,0.94-2.44,1.39-3.92,1.39c-1.68,0-3.02-0.47-3.96-1.33c-0.88-0.82-1.48-2.01-1.48-3.32
		h1.81c0,0.82,0.41,1.64,0.98,2.19c0.62,0.61,1.68,0.86,2.65,0.86c1.05,0,1.95-0.22,2.58-0.8c0.43-0.39,0.7-0.88,0.7-1.62
		c0-1.07-0.68-1.97-2.32-2.22c-0.76-0.12-1.44-0.21-2.19-0.33c-2.07-0.31-3.69-1.46-3.69-3.67c0-1.03,0.47-2.03,1.21-2.73
		c0.96-0.9,2.19-1.37,3.63-1.37c1.35,0,2.67,0.45,3.59,1.33c0.84,0.8,1.29,1.8,1.33,2.97h-1.81c-0.04-0.68-0.29-1.29-0.68-1.74
		c-0.53-0.61-1.37-0.96-2.44-0.96c-0.99,0-1.85,0.27-2.46,0.96c-0.35,0.41-0.57,0.88-0.57,1.5c0,1.25,1.03,1.81,2.07,1.95
		c0.78,0.1,1.54,0.23,2.3,0.35c2.3,0.33,3.84,1.74,3.84,3.92C74.15,127.35,73.67,128.21,72.98,128.88z"/>
	<path class="st3" d="M81.48,117.79v12.22h-1.76v-12.22H75.6v-1.62h9.99v1.62H81.48z"/>
	<path class="st3" d="M100.16,130.01v-11.67l-4.29,11.47H94.5l-4.29-11.57v11.77h-1.66v-13.83h2.5l4.18,11.26l4.16-11.26h2.44v13.83
		H100.16z"/>
	<path class="st3" d="M105.9,130.01v-13.83h9.25v1.6h-7.51v4.22h6.6v1.64h-6.6v4.78h7.51v1.6H105.9z"/>
	<path class="st3" d="M127.46,130.01l-6.79-11.12v11.12h-1.68v-13.83h1.95l6.79,11.16v-11.16h1.68v13.83H127.46z"/>
	<path class="st3" d="M138.1,117.79v12.22h-1.76v-12.22h-4.12v-1.62h9.99v1.62H138.1z"/>
	<path class="st3" d="M161.24,130.01v-11.67l-4.29,11.47h-1.37l-4.29-11.57v11.77h-1.66v-13.83h2.5l4.18,11.26l4.16-11.26h2.44
		v13.83H161.24z"/>
	<path class="st3" d="M175.63,130.01l-1.13-3.28h-6.01l-1.11,3.28h-1.76l4.88-13.83h2.03l4.9,13.83H175.63z M171.48,117.91
		l-2.44,7.18h4.9L171.48,117.91z"/>
	<path class="st3" d="M188.61,130.01l-6.79-11.12v11.12h-1.68v-13.83h1.95l6.79,11.16v-11.16h1.68v13.83H188.61z"/>
	<path class="st3" d="M203.29,130.01l-1.13-3.28h-6.01l-1.11,3.28h-1.76l4.88-13.83h2.03l4.9,13.83H203.29z M199.13,117.91
		l-2.44,7.18h4.9L199.13,117.91z"/>
	<path class="st3" d="M216.17,130.01l-0.29-1.66c-0.68,1.13-2.2,1.93-3.77,1.93c-1.39,0-2.73-0.45-3.73-1.42
		c-1.41-1.37-1.8-3.28-1.8-5.76c0-2.2,0.29-4.23,1.8-5.7c0.99-0.98,2.34-1.48,3.73-1.48c1.56,0,3,0.55,3.96,1.56
		c0.66,0.7,1.13,1.58,1.19,2.69h-1.81c-0.06-0.64-0.27-1.09-0.62-1.52c-0.62-0.74-1.58-1.09-2.71-1.09c-0.94,0-1.85,0.37-2.52,1.05
		c-1.13,1.17-1.21,3.04-1.21,4.49c0,1.39,0.1,3.38,1.25,4.55c0.66,0.68,1.54,1,2.48,1c0.98,0,1.89-0.33,2.52-0.96
		c0.92-0.9,1.19-2.24,1.19-3.51h-3.71v-1.62h5.27v7.45H216.17z"/>
	<path class="st3" d="M221.38,130.01v-13.83h9.25v1.6h-7.51v4.22h6.6v1.64h-6.6v4.78h7.51v1.6H221.38z"/>
	<path class="st3" d="M245.8,130.01v-11.67l-4.29,11.47h-1.37l-4.29-11.57v11.77h-1.66v-13.83h2.5l4.18,11.26l4.16-11.26h2.44v13.83
		H245.8z"/>
	<path class="st3" d="M251.97,130.01v-13.83h9.25v1.6h-7.51v4.22h6.6v1.64h-6.6v4.78h7.51v1.6H251.97z"/>
	<path class="st3" d="M273.24,130.01l-6.79-11.12v11.12h-1.68v-13.83h1.95l6.79,11.16v-11.16h1.68v13.83H273.24z"/>
	<path class="st3" d="M283.88,117.79v12.22h-1.76v-12.22h-4.12v-1.62H288v1.62H283.88z"/>
</g>
</svg>
