<svg id="Layer_1" data-name="Layer 1" xmlns="http://www.w3.org/2000/svg" viewBox="0 0 707.1 160.27"><defs><style>.cls-1{fill:#231f20;}.cls-2{fill:#0070b8;}</style></defs><title>bottomline-technologies-2019-logo</title><path class="cls-1" d="M209.66,68.38c6-3.8,8.37-11.63,8.37-18.45,0-18.92-10.88-25.85-28.59-25.85H166.35v95.24h29.16c17.3,0,30.42-8.32,30.42-27C225.93,81.8,220.88,70.4,209.66,68.38ZM184.89,39h2.4c7.84,0,13.4,2.52,13.4,12.24s-4.42,12.5-13.52,12.5h-2.28Zm3.92,65.51h-3.92V77.87h3c9.35,0,19.46.51,19.46,12.91S198.79,104.46,188.81,104.46Zm72.66-49.07c-19.33,0-32.55,13.76-32.55,33s13.1,32.89,32.55,32.89S294,107.53,294,88.4,280.8,55.39,261.47,55.39Zm0,50.25c-9.1,0-14.66-8.94-14.66-17.24,0-8.55,5.56-17.36,14.66-17.36s14.67,8.81,14.67,17.36C276.14,96.7,270.57,105.64,261.47,105.64ZM362.59,57.36H351.73v-21H334.11v21H319.66v-21H302v21H296V72.23H302v47.09h17.63V72.23h14.45v47.09h17.62V72.23h10.86Zm29.7-2c-19.33,0-32.56,13.76-32.56,33s13.11,32.89,32.56,32.89,32.56-13.76,32.56-32.89S411.62,55.39,392.29,55.39Zm0,50.25c-9.1,0-14.67-8.94-14.67-17.24,0-8.55,5.57-17.36,14.67-17.36S407,79.85,407,88.4C407,96.7,401.39,105.64,392.29,105.64ZM499.61,55.4a21.52,21.52,0,0,0-18.12,9.75c-4-6.58-10.07-9.75-17.77-9.75A18.76,18.76,0,0,0,448.5,63h-.25V57.36H430.62v62h17.63V88.9c0-6.47-.51-19.32,9.38-19.32,9.26,0,8.51,12.34,8.51,18.39v31.35h17.62V89c0-6.42-.12-19.39,9.52-19.39,8.75,0,8.37,11.21,8.37,17.25v32.49h17.62V80.79C519.27,67.3,515.37,55.4,499.61,55.4Zm29.75,63.92H547V12.24H529.36ZM566.68,20.8a10.46,10.46,0,1,0,10.46,10.45A10.5,10.5,0,0,0,566.68,20.8Zm-8.74,98.52h17.62v-62H557.94ZM620.53,55.4c-6.33,0-12.55,2.16-16.21,7.73h-.26V57.36H586.44v62h17.62V88.65c0-7.36.13-19.07,10.64-19.07,10,0,9.62,9.57,9.62,17v32.74h17.62V81.55C641.94,67.18,637.17,55.4,620.53,55.4ZM707.1,89c0-18.62-9.1-33.61-29.42-33.61-20.08,0-30,14.74-30,33.49s11.74,32.4,30.93,32.4c13,0,23.87-7,28.16-19.31l-16.29-2.64c-2.4,4.91-6.06,8.43-11.87,8.43-9.22,0-12.25-8.81-12.25-16.6H707.1Zm-40.29-8.87c.89-6.37,4.8-12.37,11.88-12.37,6.81,0,10.85,6.12,11.74,12.37Z"/><path class="cls-2" d="M120.5,38.19c-.3-10.4-9.44-14.36-9.44-14.36-13.79-6.93-29.4-1.75-34.61.36,0,0,.62,2.07-.12-8.7s-11.09-14-11.09-14c-16-4.34-27.45,1.89-28.52,2.34S8.33,21.33,3.63,24.26A5.69,5.69,0,0,0,.57,28.94V52.15c0,2.48,1.25,3.13,1.51,3.29C7.34,58.5,61.35,89.63,76,97.76c2.21,1.23,2.73,1.59,3.73,1.56s1.79-.64,3.84-1.8c6.57-3.73,7.6-4.08,18.76-11s18.1-12.64,18.1-17.87C120.45,61.52,120.58,40.38,120.5,38.19ZM36,31.23a33.36,33.36,0,0,1,29.25-1.8L36,46.52,23.25,39.13ZM101.5,58,78.57,71.06,60.18,60.45l13.67-8.06s18.82-12.15,38.39-2A50.7,50.7,0,0,1,101.5,58Z"/><path class="cls-2" d="M5,66.8c-1.09-.63-1.61-.87-2.67-1.44a1.52,1.52,0,0,0-2.28,1c0,.71,0,1.15,0,2.41V90.11a4.39,4.39,0,0,0,2,3.44s52.75,30,52.77,30.34-12.71,7.39-12.71,7.39a4.38,4.38,0,0,0-2,3.43v24.14c0,1.26.9,1.78,2,1.14l35.67-20.63a22.78,22.78,0,0,1,2.05-1.11s.07,0,.07,0,.9-.59,2-1.23l37.31-21.58a4.41,4.41,0,0,0,2-3.45V88.31c0-1.27-.89-1.79-2-1.16L81.51,108.71a4.48,4.48,0,0,1-4,0Z"/></svg>