<?xml version="1.0" encoding="utf-8"?>
<!-- Generator: Adobe Illustrator 25.2.2, SVG Export Plug-In . SVG Version: 6.00 Build 0)  -->
<svg version="1.1" id="Layer_1" xmlns="http://www.w3.org/2000/svg" xmlns:xlink="http://www.w3.org/1999/xlink" x="0px" y="0px"
	 viewBox="0 0 72 37.95" style="enable-background:new 0 0 72 37.95;" xml:space="preserve">
<style type="text/css">
	.st0{fill:#0D274D;}
</style>
<g>
	<g>
		<g>
			<rect x="20.36" y="25.21" class="st0" width="3.16" height="12.51"/>
			<path class="st0" d="M48.98,28.8c-0.13-0.07-1.15-0.67-2.66-0.67c-2.04,0-3.46,1.42-3.46,3.34c0,1.86,1.36,3.34,3.46,3.34
				c1.48,0,2.52-0.59,2.66-0.66v3.36c-0.4,0.11-1.47,0.45-2.88,0.45c-3.55,0-6.67-2.45-6.67-6.48c0-3.74,2.82-6.48,6.67-6.48
				c1.48,0,2.58,0.36,2.88,0.45V28.8z"/>
			<path class="st0" d="M16.02,28.8c-0.13-0.07-1.14-0.67-2.65-0.67c-2.04,0-3.46,1.42-3.46,3.34c0,1.86,1.36,3.34,3.46,3.34
				c1.48,0,2.52-0.59,2.65-0.66v3.36c-0.39,0.11-1.47,0.45-2.88,0.45c-3.55,0-6.66-2.45-6.66-6.48c0-3.74,2.82-6.48,6.66-6.48
				c1.49,0,2.58,0.36,2.88,0.45V28.8z"/>
			<path class="st0" d="M65.52,31.47c0,3.58-2.76,6.48-6.61,6.48c-3.85,0-6.61-2.9-6.61-6.48c0-3.57,2.76-6.48,6.61-6.48
				C62.76,24.99,65.52,27.9,65.52,31.47z M58.91,28.18c-1.87,0-3.26,1.47-3.26,3.29c0,1.82,1.39,3.29,3.26,3.29
				c1.87,0,3.27-1.47,3.27-3.29C62.17,29.65,60.78,28.18,58.91,28.18z"/>
			<path class="st0" d="M35.49,28.06c-0.05-0.01-1.38-0.38-2.47-0.38c-1.27,0-1.95,0.42-1.95,1.03c0,0.76,0.93,1.03,1.45,1.19
				l0.87,0.28c2.05,0.65,2.98,2.05,2.98,3.58c0,3.14-2.76,4.2-5.18,4.2c-1.68,0-3.25-0.31-3.41-0.34v-2.88
				c0.28,0.07,1.6,0.46,2.98,0.46c1.57,0,2.29-0.46,2.29-1.17c0-0.63-0.62-1-1.41-1.25c-0.19-0.06-0.48-0.15-0.67-0.22
				c-1.76-0.56-3.22-1.59-3.22-3.66c0-2.34,1.75-3.91,4.66-3.91c1.54,0,2.98,0.37,3.08,0.4V28.06z"/>
		</g>
	</g>
	<path class="st0" d="M3.13,11.77c0-0.86-0.7-1.56-1.57-1.56c-0.86,0-1.57,0.7-1.57,1.56v3.28c0,0.87,0.71,1.57,1.57,1.57
		c0.86,0,1.57-0.7,1.57-1.57V11.77z"/>
	<path class="st0" d="M11.74,7.46c0-0.86-0.7-1.56-1.57-1.56S8.61,6.6,8.61,7.46v7.59c0,0.87,0.7,1.57,1.57,1.57s1.57-0.7,1.57-1.57
		V7.46z"/>
	<path class="st0" d="M20.35,1.56c0-0.86-0.7-1.56-1.57-1.56c-0.86,0-1.57,0.7-1.57,1.56v16.61c0,0.87,0.7,1.57,1.57,1.57
		c0.86,0,1.57-0.7,1.57-1.57V1.56z"/>
	<path class="st0" d="M28.96,7.46c0-0.86-0.7-1.56-1.57-1.56c-0.86,0-1.57,0.7-1.57,1.56v7.59c0,0.87,0.7,1.57,1.57,1.57
		c0.86,0,1.57-0.7,1.57-1.57V7.46z"/>
	<path class="st0" d="M37.56,11.77c0-0.86-0.7-1.56-1.56-1.56c-0.86,0-1.57,0.7-1.57,1.56v3.28c0,0.87,0.7,1.57,1.57,1.57
		c0.86,0,1.56-0.7,1.56-1.57V11.77z"/>
	<path class="st0" d="M46.18,7.46c0-0.86-0.7-1.56-1.56-1.56c-0.86,0-1.56,0.7-1.56,1.56v7.59c0,0.87,0.7,1.57,1.56,1.57
		c0.86,0,1.56-0.7,1.56-1.57V7.46z"/>
	<path class="st0" d="M54.79,1.56c0-0.86-0.7-1.56-1.56-1.56c-0.86,0-1.56,0.7-1.56,1.56v16.61c0,0.87,0.7,1.57,1.56,1.57
		c0.86,0,1.56-0.7,1.56-1.57V1.56z"/>
	<path class="st0" d="M63.4,7.46c0-0.86-0.7-1.56-1.58-1.56c-0.86,0-1.56,0.7-1.56,1.56v7.59c0,0.87,0.7,1.57,1.56,1.57
		c0.88,0,1.58-0.7,1.58-1.57V7.46z"/>
	<path class="st0" d="M72,11.77c0-0.86-0.7-1.56-1.56-1.56c-0.86,0-1.56,0.7-1.56,1.56v3.28c0,0.87,0.7,1.57,1.56,1.57
		c0.86,0,1.56-0.7,1.56-1.57V11.77z"/>
</g>
</svg>
