<svg id="Layer_1" data-name="Layer 1" xmlns="http://www.w3.org/2000/svg" viewBox="0 0 895.37 511.3"><defs><style>.cls-1{fill:#21205f;}.cls-1,.cls-2{fill-rule:evenodd;}.cls-2{fill:#ee3224;}</style></defs><title>citi-logo-2012-cmyk-blue</title><polygon class="cls-1" points="380.68 188.99 315.97 188.99 315.97 505.57 380.68 505.57 380.68 188.99 380.68 188.99"/><path class="cls-1" d="M440,189.59v59.26h54.42v178.4c0,24.78,6.95,44.44,20,59.56,13,15.44,30.24,23,52,23.6,21.76.28,41.11-4.54,57.44-14.53l.91-.6v-.9l15.43-60.18-3.94,2.41c-17.24,10.6-33.27,15.73-47.78,15.73-20.26,0-30.23-12.08-30.23-35.67V248.85h65.91V189.59H558.18V90.72l-63.81,34.16v64.71Z"/><polygon class="cls-1" points="752.91 188.99 687.88 188.99 687.88 505.57 752.91 505.57 752.91 188.99 752.91 188.99"/><path class="cls-1" d="M278.79,238.88l-1.52-1.22c-29.93-36-67.12-53.81-111.87-53.81-46.57,0-85.27,14.5-116.11,42.93C16.33,256.72,0,297.22,0,347.72,0,398.52,16.33,438.44,49.29,469,79.53,497.4,118.83,511.3,165.4,511.3c44.75,0,82.54-17.83,111.87-53.51l1.52-.91L242.2,412.44l-1.51,1.5c-23.59,23.59-49.29,35.68-76.8,35.68q-42.64,0-70.76-29C74.38,401.84,65,377.06,65,347.72s9.37-54.12,28.12-73.17,42.33-28.42,70.76-28.42c27.51,0,53.21,11.8,76.8,35.68L242.2,283l36.59-44.14Z"/><path class="cls-2" d="M347.73,137c25.7-26,53.81-46,86.47-59.88a247.4,247.4,0,0,1,98.88-20.24A250,250,0,0,1,632.26,77.1C664.32,91,692.72,111,718.14,137l1.19.91h74.08l-3-4.24C761.07,92.23,723,59.27,677.31,35.07,631.35,11.49,583.57,0,533.08,0A310.65,310.65,0,0,0,388.85,35.07c-46,24.2-84.06,57.16-113.39,98.58l-3,4.24h75l.31-.91Z"/><path class="cls-1" d="M861.14,152.28a33.76,33.76,0,0,1-24.07-9.78q-9.92-9.42-10.18-24.55.27-15.12,10.21-24.45a34.79,34.79,0,0,1,48.18,0q9.84,9.33,10.09,24.45-.25,15.13-10.12,24.55a34,34,0,0,1-24.11,9.78ZM833.71,118q.09,12.6,8,20.52,7.68,8.06,19.51,8.15a26.05,26.05,0,0,0,19.46-8.15q7.66-7.93,7.85-20.52-.16-12.53-7.85-20.42t-19.46-8.06q-11.82.11-19.51,8.06-7.93,7.89-8,20.42Zm20.2,19.84h-5.76V98.27H863q13.77-.09,13.77,11.24c-.06,3.5-1,6.1-2.84,7.78a12.54,12.54,0,0,1-7.24,3.1l11.08,17.4h-6.67l-10.32-17.18h-6.85v17.18Zm7.14-22.14a17.21,17.21,0,0,0,6.76-1c1.81-.75,2.76-2.58,2.81-5.5,0-2.39-1-4-2.72-4.84a15.84,15.84,0,0,0-5.86-1h-8.13v12.4Z"/></svg>