<svg id="Layer_1" data-name="Layer 1" xmlns="http://www.w3.org/2000/svg" viewBox="0 0 226.91 66.16"><defs><style>.cls-1{fill:#fff;}.cls-2{fill:#ed1c24;}.cls-3{fill:#231f20;}</style></defs><title>dbs-bank-logo-2015</title><polygon class="cls-1" points="11.01 11.01 55.15 11.01 55.15 55.15 11.01 55.15 11.01 11.01 11.01 11.01"/><path class="cls-2" d="M61.2,33.08h0A30.36,30.36,0,0,1,64.6,18c.94-2,3-4.9,0-8.28a5.68,5.68,0,0,0-7.16-1,5.67,5.67,0,0,0-1-7.16c-3.38-3-6.3-1-8.28,0C41.32,4.78,37.44,5,33.08,5h0A30.47,30.47,0,0,1,18,1.56c-2-.94-4.9-3-8.28,0a5.67,5.67,0,0,0-1,7.16,5.68,5.68,0,0,0-7.16,1c-3,3.38-1,6.29,0,8.28C4.78,24.84,5,28.72,5,33.08H5a30.52,30.52,0,0,1-3.4,15.09c-.94,2-3,4.89,0,8.27a5.67,5.67,0,0,0,7.16,1,5.67,5.67,0,0,0,1,7.16c3.38,3,6.29,1,8.27,0,6.85-3.22,10.72-3.4,15.09-3.4h0c4.36,0,8.24.18,15.08,3.4,2,.94,4.9,3,8.28,0a5.68,5.68,0,0,0,1-7.16,5.67,5.67,0,0,0,7.16-1c3-3.38,1-6.29,0-8.27a30.43,30.43,0,0,1-3.4-15.09ZM53.72,53.77l-16-13.44s-2.16-2.12-4.61-2.12-4.62,2.12-4.62,2.12l-16,13.44-.06-.05,13.45-16S28,35.53,28,33.08s-2.12-4.62-2.12-4.62l-13.45-16,.06-.06,16,13.46A7.77,7.77,0,0,0,33.08,28a7.77,7.77,0,0,0,4.62-2.11l16-13.45.06,0-13.45,16a7.77,7.77,0,0,0-2.11,4.62,7.77,7.77,0,0,0,2.11,4.62l13.45,16-.05.05Z"/><path class="cls-3" d="M222.51,3.82h.57l.21,10.5h-.64c-1-4.26-5.15-8.3-13.37-8.73-9.73-.5-13.95,5.29-14,10.77-.06,7.3,5.62,8.8,14,10.85,4,1,18.69,2.89,17.51,19.42-.83,11.54-10.79,17-24.9,16.59a66.29,66.29,0,0,1-14.05-2.46c-1.53-.43-1.91.08-2.54,1.21l-.66,0,0-11.32.65,0c.33,1.15.41,3.28,2.48,5.1,1.53,1.33,5.07,4.62,12.86,4.71s14-3.14,14.86-11.72c.23-2.31,0-7.6-5.17-10-4-1.89-15.25-3.14-20.7-7.89A14.16,14.16,0,0,1,184.29,18c1.44-11.84,11.31-14.8,20.19-15a65.42,65.42,0,0,1,14.27,1.56,5.21,5.21,0,0,0,2.85-.07,1.79,1.79,0,0,0,.91-.69ZM167,31.08c14.42,3.57,15.29,14,15.09,16.91-.65,13-11.71,14.53-16.16,14.53h-34l0-.66c2.48-.33,4.33-1.69,4.33-6l.21-44.89c.05-4.88-1.24-6.36-3.94-6.68l0-.61h25.74c4.72,0,18.93-1,20.14,12.13,1,10.47-10.51,14.85-11.36,15.31Zm3.79,17c.26-12.64-9-16-18.63-16.52-.19,0-.12-.5,0-.52,3.12-.12,15.54-1.56,15-13.41C166.72,6.07,158,5.81,154.74,5.76c-2.6,0-3.17,0-4.27,0-1.86.08-2.32.21-2.32,2.24,0,.26-.41,20.81-.64,35.25-.13,7.86-.15,13.91-.15,13.91,0,1.43-.15,2.89,3.4,3.06s8.38.33,11.67-.37c3-.65,8.18-2.86,8.37-11.8ZM103,3.64C115.24,3.58,131.37,12,131.32,33c-.06,18.26-13.23,29.51-25.43,29.51H75l0-.65c1.75-.3,3.69-1.39,4-2.55,1-4.41.79-44.67.16-51.31a4.28,4.28,0,0,0-3.83-3.74l0-.63Zm5.6,55.07c5.48-2,12.28-11.34,11.16-26.1-1.08-14.28-6.53-25.49-21-26.54,0,0-2.74-.2-5-.21-2.47,0-3-.1-3.18,2.53-.33,4.93-.42,43.32-.1,48.87,0,.76.13,2.59,3.3,2.89a33.28,33.28,0,0,0,14.88-1.44Z"/></svg>