<?xml version="1.0" encoding="utf-8"?>
<!-- Generator: Adobe Illustrator 23.0.3, SVG Export Plug-In . SVG Version: 6.00 Build 0)  -->
<svg version="1.1" id="Layer_1" xmlns="http://www.w3.org/2000/svg" xmlns:xlink="http://www.w3.org/1999/xlink" x="0px" y="0px"
	 viewBox="0 0 443.3 445.7" style="enable-background:new 0 0 443.3 445.7;" xml:space="preserve">
<style type="text/css">
	.st0{fill:#BA2334;}
	.st1{fill:#FFFFFF;}
</style>
<path class="st0" d="M206.8,0.9c-50.8,6.7-96.1,21.6-135,56.7c-104.8,94.6-93.1,268.8,23,348.8c21.5,14.8,45.7,25.8,71,32.1
	c26.4,6.6,54,8.9,81,5.6c103-12.4,188.7-98,195.9-202.7C450.3,130.8,376.3,27,265.8,4.9C247,1.1,225.8-1.5,206.8,0.9z"/>
<path class="st1" d="M312.8,253.5c0,8.4-2,25.8,3.6,32.7c4.3,5.4,13,8.1,19.4,9.9c21.9,6.2,51.8,0.9,61-22.6c2-5,2.7-10.7,2.2-16
	c-1.8-22.9-19.6-35.6-37.2-47.7c-9.6-6.5-21-13.1-25.6-24.3c-9-21.4,16.6-36.2,34.6-27.7c5.2,2.5,9.7,6.7,12.6,11.7
	c2.6,4.4,3.1,10.3,8.4,12c-0.5-6.4,1.4-21.5-2.7-26.4c-3.9-4.5-12.7-5.6-18.3-6.6c-20.1-3.5-45,4.3-51,26c-12,45,51.2,49.1,62.4,83
	c8.9,27-23.7,40.5-44.4,29.1c-7.5-4.1-12.8-11.3-16.1-19.1C319.5,262.5,319.2,254.6,312.8,253.5z M50.8,150.5l13.4,11l1.6,41
	l-0.8,65l-0.9,17l-13.3,11c12.6,0,25.3-1,38-1c19.3,0.2,36.7,2,54-9c40.7-26.2,44.2-99.9,1-125.5C117.8,144.6,79.7,150.7,50.8,150.5
	z M193.8,151.5v1c4.5,2.3,11.2,2.8,13.4,8c4.2,10.1,1.6,25.2,1.6,36v57c0,9.7,1.4,20.6-1,30c-2,7.8-10.8,5.6-13,12h51
	c-2.6-7.3-14.1-2.3-17.3-10c-5-12.2-1.7-31-1.7-44c0-4-1.3-11.2,1.6-14.6c4-4.6,20-3.3,25.4-1.7c9.5,2.7,7.5,14.8,15,17.3l-1-44
	c-5.7,5.4-5,15.1-14,17.6c-5.1,1.4-20.5,2.4-24.7-1.2c-3.3-2.8-2.3-8.4-2.3-12.4c0-10-4-31.4,2.6-39.8c3.3-4.1,9.7-3.2,14.4-3.8
	c18.6-2.4,36.3,2.7,41,22.6h4l-2-31l-63,1H193.8z"/>
<path class="st0" d="M89.8,159c-12,2.7-7,32-7,41.5c0,21-1.1,42.2,0.8,63c0.6,6.5-1.8,15.6,3.4,20.7c5.7,5.7,22.2,4.3,29.7,2.8
	c26.8-4.7,38-31.8,38-56.5c0-33.2-7.8-66-46-71.6C102.8,158.1,95.6,157.7,89.8,159z"/>
</svg>
