<?xml version="1.0" encoding="utf-8"?>
<!-- Generator: Adobe Illustrator 25.3.0, SVG Export Plug-In . SVG Version: 6.00 Build 0)  -->
<svg version="1.1" id="alle_logos" xmlns="http://www.w3.org/2000/svg" xmlns:xlink="http://www.w3.org/1999/xlink" x="0px" y="0px"
	 viewBox="0 0 2651.25 601.02" style="enable-background:new 0 0 2651.25 601.02;" xml:space="preserve">
<style type="text/css">
	.st0{fill:#9696A7;}
	.st1{fill:#00468E;}
</style>
<g id="DUERR_x5F_gross_x5F_SVG">
	<g id="DUERR_Text_2_">
		<g>
			<path class="st0" d="M1163.16,446.49c-1.67-17.75-17.23-32.15-35.78-32.17h-49.34V596.1h-86.7V159.42h186.33
				c39.98,0,72.18,32.4,72.18,72.14v1.54v80.06c0,28.15-16.16,52.62-39.51,64.57c22.56,11.69,38.4,35.08,39.51,62.35V559.9v1.32
				c0,12.9,0,23.9,0,34.88h-86.69V446.49 M1163.16,312.43v-51.16c-1.67-18.31-17.27-32.51-36.31-32.51h-48.81v116h52.47
				C1148.13,343.07,1161.62,329.57,1163.16,312.43z"/>
			<path class="st0" d="M135.37,526.78c19.53,0,35.12-15.54,36.1-34.42V263.18c-0.98-19.08-16.56-34.35-35.98-34.42H86.76v298.02
				H135.37 M0,159.42h185.72c38.95,0,70.76,30.79,72.46,69.34V514.7v8.67c0,40.12-32.37,72.73-72.46,72.73H0V159.42z"/>
			<path class="st0" d="M330.69,527.97v-1.54V159.42h86.68V490.4c0,20.27,15.97,36.38,36.08,36.38h12.66
				c19.83,0,36.08-16.11,36.08-36.38c0-0.35,0.02-1.24,0.09-1.59v-329.4h86.52v367.36v1.19c0,40.12-32.4,72.27-72.43,72.27h-113.4
				C363.07,600.23,330.69,568.08,330.69,527.97"/>
			<path class="st0" d="M832.82,446.49c-2.11-17.75-17.47-32.15-36.28-32.17h-48.81V596.1h-86.71V159.42h186.03
				c39.83,0,72.18,32.4,72.18,72.14v81.6c0,28.15-16.08,52.62-39.67,64.57c23.19,11.69,39.15,35.08,39.63,62.35V559.9v1.32
				c0,12.9,0.18,21.3,0.18,34.88h-86.56V446.49 M832.82,312.43v-51.16c-2.11-18.31-17.51-32.51-36.28-32.51h-48.81v116h52.4
				C817.55,343.07,831.04,329.57,832.82,312.43z"/>
		</g>
		<g>
			<path class="st0" d="M1163.16,446.5c-1.67-17.75-17.23-32.15-35.78-32.17h-49.34V596.1h-86.7V159.42h186.33
				c39.98,0,72.18,32.4,72.18,72.14v1.54v80.06c0,28.15-16.16,52.62-39.51,64.57c22.56,11.69,38.4,35.08,39.51,62.35V559.9v1.32
				c0,12.9,0,23.9,0,34.88h-86.69V446.5 M1163.16,312.43v-51.16c-1.67-18.31-17.27-32.51-36.31-32.51h-48.81v116h52.47
				C1148.14,343.07,1161.62,329.58,1163.16,312.43z"/>
			<rect x="502.27" class="st0" width="86.52" height="79.55"/>
			<rect x="330.69" class="st0" width="86.68" height="79.55"/>
			<path class="st0" d="M135.38,526.78c19.53,0,35.12-15.54,36.1-34.42V263.18c-0.98-19.08-16.56-34.35-35.98-34.42H86.76v298.02
				H135.38 M0,159.42h185.72c38.95,0,70.76,30.79,72.46,69.34V514.7v8.67c0,40.12-32.37,72.73-72.46,72.73H0V159.42z"/>
			<path class="st0" d="M330.69,527.97v-1.54V159.42h86.68V490.4c0,20.27,15.97,36.38,36.08,36.38h12.66
				c19.83,0,36.08-16.11,36.08-36.38c0-0.35,0.02-1.24,0.09-1.59v-329.4h86.52v367.36v1.19c0,40.12-32.4,72.27-72.43,72.27h-113.4
				C363.07,600.24,330.69,568.08,330.69,527.97"/>
			<path class="st0" d="M832.82,446.5c-2.11-17.75-17.47-32.15-36.28-32.17h-48.81V596.1h-86.71V159.42h186.03
				c39.83,0,72.18,32.4,72.18,72.14v81.6c0,28.15-16.08,52.62-39.67,64.57c23.19,11.69,39.15,35.08,39.63,62.35V559.9v1.32
				c0,12.9,0.18,21.3,0.18,34.88h-86.56V446.5 M832.82,312.43v-51.16c-2.11-18.31-17.51-32.51-36.28-32.51h-48.81v116h52.4
				C817.55,343.07,831.05,329.58,832.82,312.43z"/>
		</g>
	</g>
	<g id="GroupText_2_">
		<path class="st1" d="M1486.93,579.69c-12.15,12.84-27.74,18.57-44.94,18.57c-17.88,0-31.64-5.96-42.19-16.51
			c-15.82-16.05-16.51-32.33-16.51-66.49c0-34.17,0.69-50.44,16.51-66.5c10.55-10.55,24.31-16.51,42.19-16.51
			c34.39,0,54.8,22.7,59.16,50.44h-24.76c-4.13-17.88-16.05-28.43-34.39-28.43c-9.86,0-18.11,3.67-24.31,10.09
			c-8.03,8.71-9.63,18.57-9.63,50.9s1.61,42.19,9.63,50.9c6.19,6.42,14.44,10.09,24.31,10.09c10.78,0,20.4-4.13,26.82-11.69
			c5.96-6.88,8.03-15.13,8.03-25.68v-9.17h-34.85v-21.1h59.61v24.99C1501.6,554.92,1497.71,567.99,1486.93,579.69z"/>
		<path class="st1" d="M1722.24,596.88l-34.39-68.79h-30.96v68.79h-24.76V433.63h63.28c30.96,0,50.68,19.95,50.68,47.69
			c0,23.39-14.22,38.29-32.56,43.34l37.61,72.23H1722.24z M1693.58,455.87h-36.69V507h36.69c16.51,0,27.74-9.4,27.74-25.45
			C1721.32,465.5,1710.09,455.87,1693.58,455.87z"/>
		<path class="st1" d="M1963.28,581.75c-10.55,10.55-24.31,16.51-42.19,16.51c-17.88,0-31.64-5.96-42.19-16.51
			c-16.05-16.05-16.51-32.33-16.51-66.49c0-34.17,0.46-50.44,16.51-66.5c10.55-10.55,24.31-16.51,42.19-16.51
			c17.88,0,31.64,5.96,42.19,16.51c16.05,16.05,16.51,32.33,16.51,66.5C1979.79,549.42,1979.33,565.7,1963.28,581.75z
			 M1945.4,464.36c-6.19-6.42-14.45-10.09-24.31-10.09c-9.86,0-18.11,3.67-24.31,10.09c-8.02,8.71-9.63,18.57-9.63,50.9
			s1.61,41.96,9.63,50.67c6.19,6.42,14.45,10.32,24.31,10.32c9.86,0,18.11-3.9,24.31-10.32c8.26-8.49,9.63-18.34,9.63-50.67
			S1953.65,472.84,1945.4,464.36z"/>
		<path class="st1" d="M2165.55,598.26c-33.25,0-58.47-22.7-58.47-56.41V433.63h24.76v107.08c0,21.78,13.3,35.31,33.71,35.31
			c20.4,0,33.93-13.53,33.93-35.31V433.63h24.76v108.22C2224.25,575.56,2198.8,598.26,2165.55,598.26z"/>
		<path class="st1" d="M2406.64,532.45h-37.15v64.43h-24.76V433.63h61.91c31.87,0,52.28,21.09,52.28,49.53
			C2458.92,511.59,2438.52,532.45,2406.64,532.45z M2405.27,455.87h-35.77v54.57h35.77c17.43,0,28.89-10.09,28.89-27.28
			C2434.16,465.73,2422.69,455.87,2405.27,455.87z"/>
	</g>
	<rect id="Punkt_2_" x="2564.73" y="521.46" class="st0" width="86.52" height="79.55"/>
</g>
</svg>
