<svg xmlns="http://www.w3.org/2000/svg" xmlns:xlink="http://www.w3.org/1999/xlink" viewBox="0 0 759.67 105.27"><defs><style>.cls-1{isolation:isolate;}.cls-2{fill:#1b3f73;}.cls-3{fill:#00abdf;}.cls-4{opacity:0.5;mix-blend-mode:screen;fill:url(#linear-gradient);}</style><linearGradient id="linear-gradient" x1="232.57" y1="162.73" x2="232.57" y2="152.65" gradientTransform="matrix(0.87, 0.26, -0.33, 1.1, 82.41, -220.36)" gradientUnits="userSpaceOnUse"><stop offset="0.01" stop-color="#010101"/><stop offset="0.82" stop-color="#c5e0e3"/><stop offset="0.85" stop-color="#cde5e7"/><stop offset="0.94" stop-color="#e8f4f6"/><stop offset="1" stop-color="#f2fafb"/></linearGradient></defs><title>ecr-research-logo-2019</title><g class="cls-1"><g id="Layer_1" data-name="Layer 1"><path class="cls-2" d="M121.79,101.35a47.54,47.54,0,0,1-19.43,3.92c-20.42,0-33.7-13.85-33.7-34.68S82.92,34.52,105,34.52c7.27,0,13.7,1.82,17.06,3.64l-2.8,9.37A30.08,30.08,0,0,0,105,44.31C89.49,44.31,81.1,55.92,81.1,70c0,15.66,10.07,25.31,23.49,25.31a35.17,35.17,0,0,0,15.1-3.22Z"/><path class="cls-2" d="M165.19,35.05h3.48l.55.47V46.58q0,.48-.75.48-19.8,0-23.28,18.23a86.59,86.59,0,0,0-.75,12v26l-.47.48H133.66l-.48-.48V77.3q0-28.39,14.74-37A31.72,31.72,0,0,1,165.19,35.05Z"/><path class="cls-2" d="M11.89,72C12.16,88.63,22.65,95.48,35,95.48c8.81,0,14.26-1.54,18.73-3.36l2.24,8.67c-4.33,2-11.88,4.34-22.64,4.34C12.58,105.13,0,91.29,0,71,0,50.46,12.16,34.38,31.88,34.38,54,34.38,59.7,53.82,59.7,66.26a31.58,31.58,0,0,1-.42,5.87Zm35.92-8.81c.14-7.68-3.21-20-16.91-20-12.59,0-17.9,11.46-18.87,20Z"/><path class="cls-2" d="M630.35,35.05h3.48l.54.47V46.58q0,.48-.75.48-19.79,0-23.27,18.23a86.59,86.59,0,0,0-.75,12v26l-.48.48H598.81l-.47-.48V77.3q0-28.39,14.74-37A31.7,31.7,0,0,1,630.35,35.05Z"/><path class="cls-2" d="M703.63,9.66h10.24l.47.48V45.5h.28q1.5-4.78,7.92-8.46a31.53,31.53,0,0,1,13.71-3.22q16.2,0,21.37,12.43,2,4.65,2,18.91v38.09l-.55.48H748.68l-.48-.48V59.15Q748.2,44,734.75,44h-.27q-20.13,0-20.14,23.14v36.11l-.47.48H703.63l-.48-.48V10.14Z"/><path class="cls-2" d="M691.92,101.35a47.5,47.5,0,0,1-19.43,3.92c-20.42,0-33.7-13.85-33.7-34.68s14.26-36.07,36.35-36.07c7.27,0,13.7,1.82,17.06,3.64l-2.8,9.37a30.08,30.08,0,0,0-14.26-3.22c-15.52,0-23.91,11.61-23.91,25.72,0,15.66,10.07,25.31,23.49,25.31a35.2,35.2,0,0,0,15.1-3.22Z"/><path class="cls-2" d="M586.82,87.51l-.06,16.22h-11l-.08-8.53h-.42c-3.64,5.31-11.05,10.07-20.69,10.07-13.71,0-20.7-9.65-20.7-19.43,0-16.37,14.55-25.31,40.69-25.17v-1.4c0-5.59-1.54-15.8-15.38-15.66a32.69,32.69,0,0,0-17.76,5l-2.79-8.24c5.59-3.5,13.84-5.88,22.37-5.88,20.83,0,25.86,14.12,25.86,27.68Zm-12-18.31c-13.43-.28-28.66,2.09-28.66,15.23,0,8.11,5.31,11.75,11.46,11.75,8.95,0,14.68-5.59,16.64-11.33a12.54,12.54,0,0,0,.56-3.91Z"/><path class="cls-2" d="M413.4,91.29A34.83,34.83,0,0,0,429.76,96c8.81,0,13-4.33,13-10.07s-3.49-9.09-12.44-12.44c-12.3-4.47-18-11-18-19.15,0-10.91,9-19.86,23.35-19.86,6.85,0,12.87,1.82,16.5,4.2l-2.93,8.81a27.73,27.73,0,0,0-13.85-3.92c-7.27,0-11.18,4.2-11.18,9.22,0,5.74,3.91,8.26,12.72,11.61,11.61,4.34,17.76,10.21,17.76,20.41,0,12-9.37,20.42-25.17,20.42a38.58,38.58,0,0,1-19-4.76Z"/><path class="cls-2" d="M331.22,35.05h3.48l.55.47V46.58q0,.48-.75.48-19.8,0-23.27,18.23a85,85,0,0,0-.76,12v26l-.48.48H299.68l-.47-.48V77.3q0-28.39,14.74-37A31.72,31.72,0,0,1,331.22,35.05Z"/><path class="cls-2" d="M352.12,72c.28,16.64,10.77,23.49,23.07,23.49,8.81,0,14.26-1.54,18.73-3.36l2.24,8.67c-4.33,2-11.88,4.34-22.64,4.34-20.7,0-33.28-13.84-33.28-34.12,0-20.55,12.16-36.63,31.88-36.63,22.09,0,27.82,19.44,27.82,31.88a31.58,31.58,0,0,1-.42,5.87Zm35.93-8.81c.15-7.68-3.21-20-16.91-20-12.58,0-17.9,11.46-18.88,20Z"/><path class="cls-2" d="M477.34,72c.27,16.64,10.76,23.49,23.06,23.49,8.81,0,14.26-1.54,18.73-3.36l2.24,8.67c-4.33,2-11.88,4.34-22.64,4.34-20.7,0-33.28-13.84-33.28-34.12,0-20.55,12.16-36.63,31.88-36.63,22.09,0,27.81,19.44,27.81,31.88a32.64,32.64,0,0,1-.41,5.87Zm35.92-8.81c.15-7.68-3.21-20-16.92-20-12.58,0-17.89,11.46-18.86,20Z"/><path class="cls-2" d="M250.25,72.33a57.55,57.55,0,0,0,3.92-18c-9.51.09-18.69.57-27.34,1.42V70.18l1.41,0A137.08,137.08,0,0,1,250.25,72.33Zm-1.75,4a121.21,121.21,0,0,0-16.16-1.78c-1.8-.06-3.59-.1-5.39-.09h-.12V103C236,95,242.86,87.16,248.5,76.34Zm34.3-21.05c-7.79-.64-16-1-24.39-1a60.13,60.13,0,0,1-3.94,18.92,81,81,0,0,1,19,7A50.74,50.74,0,0,0,282.8,55.29Zm-50.6,48.63c15.69-2.14,29.45-9.73,38.7-20.53a78.49,78.49,0,0,0-18.11-6.23C248,87.63,240.66,96.4,232.2,103.92Zm-20.5-5.39a75.84,75.84,0,0,1-15-21.37,85.51,85.51,0,0,0-13.93,4.31c-.58.24-1.14.48-1.69.73-.85.38-1.69.77-2.5,1.19,9.25,10.8,23,18.39,38.71,20.53-1.46-1.3-2.87-2.65-4.26-4ZM176.06,80.18c1.21-.65,2.43-1.23,3.66-1.78.73-.33,1.46-.66,2.2-1A87.88,87.88,0,0,1,195,73.2a58.18,58.18,0,0,1-2.52-8.32c-.24-1.06-.44-2.12-.62-3.19-8.73,2.33-16.05,5.11-21.55,8.22A50,50,0,0,0,176.06,80.18Zm41.46,18.06c.5.49,1,1,1.53,1.46q1.75,1.65,3.63,3.28V74.47A118.26,118.26,0,0,0,201,76.34,83.05,83.05,0,0,0,217.52,98.24ZM199.27,72.33a136.8,136.8,0,0,1,22.64-2.14h.77v-14A223.33,223.33,0,0,0,196,60.66c.19,1.12.41,2.22.67,3.33A60,60,0,0,0,199.27,72.33Z"/><path class="cls-3" d="M206.62,40.36a25.15,25.15,0,1,0,4.8-35.23A25.15,25.15,0,0,0,206.62,40.36Z"/><path class="cls-4" d="M244,18.22c-1.64,5.4-8.3,8.18-14.88,6.19s-10.59-8-9-13.4,8.3-8.17,14.88-6.18S245.62,12.81,244,18.22Z"/></g></g></svg>