<?xml version="1.0" encoding="utf-8"?>
<!-- Generator: Adobe Illustrator 25.4.1, SVG Export Plug-In . SVG Version: 6.00 Build 0)  -->
<svg version="1.1" id="Layer_1" xmlns="http://www.w3.org/2000/svg" xmlns:xlink="http://www.w3.org/1999/xlink" x="0px" y="0px"
	 viewBox="0 0 533.33 533.33" style="enable-background:new 0 0 533.33 533.33;" xml:space="preserve">
<style type="text/css">
	.st0{fill-rule:evenodd;clip-rule:evenodd;}
</style>
<path class="st0" d="M266.66,0C119.62,0,0,119.63,0,266.67s119.62,266.67,266.66,266.67c147.04,0,266.66-119.62,266.66-266.67
	C533.33,119.63,413.7,0,266.66,0z M266.66,498.79c-127.99,0-232.12-104.13-232.12-232.13c0-128,104.13-232.13,232.12-232.13
	c127.99,0,232.13,104.13,232.13,232.13C498.79,394.66,394.66,498.79,266.66,498.79L266.66,498.79z M357.26,188.89h2.1v-10.19h3.79
	v-1.8h-9.68v1.8h3.78L357.26,188.89L357.26,188.89z M366.51,179.62h0.04l3.33,9.27h1.71l3.33-9.27h0.05v9.27h1.98v-11.99h-2.9
	l-3.21,9.38h-0.06l-3.29-9.38h-2.95v11.99h1.99V179.62z M305.95,176.88H174.77l-19.9,31.99H285.9L305.95,176.88z M332.76,177.19
	l-80.2,127.7h-88.96l20.52-32.01h53.32l20.37-32H134.56l-20.36,32h29.2l-40.51,63.92h169.07l62.45-98.49l22.77,34.57h-20.53
	l-19.44,32.01H378l21.11,31.9h38.78L332.76,177.19z"/>
</svg>
