<?xml version="1.0" encoding="utf-8"?>
<!-- Generator: Adobe Illustrator 26.2.1, SVG Export Plug-In . SVG Version: 6.00 Build 0)  -->
<svg version="1.1" id="Layer_1" xmlns="http://www.w3.org/2000/svg" xmlns:xlink="http://www.w3.org/1999/xlink" x="0px" y="0px"
	 viewBox="0 0 1247.9 595.4" style="enable-background:new 0 0 1247.9 595.4;" xml:space="preserve">
<style type="text/css">
	.st0{fill:#FFD400;}
	.st1{fill:#6D6E71;}
</style>
<polygon class="st0" points="560.4,0 0,204.5 560.4,105.5 "/>
<path class="st1" d="M547.4,452.8c0-10.5-7.2-15-11.1-16.7c5.2-2.8,8.6-8.6,8.6-14.9c0-12.5-8.5-19.6-23.4-19.6h-32.1v75.3h31.8
	C537.6,476.9,547.4,467.9,547.4,452.8z M521.2,464.1h-17.8v-21.5h17.8c7.6,0,11.4,3.6,11.4,10.7
	C532.6,460.2,528.5,464.1,521.2,464.1z M521.1,430.4h-17.7v-16.1h17c6.7,0,9.9,2.7,9.9,8.1C530.3,426.1,528.7,430.4,521.1,430.4z
	 M557,453v-31.1h13.6v30.3c0,9.2,3.2,13.4,10.1,13.4c6.8,0,10.2-4.5,10.2-13.4v-30.4h13.6v55H591v-4.4c-3.3,3.7-7.8,5.6-13.2,5.6
	C559.8,478.1,557,462.3,557,453z M764.4,476.9h-13.6v-55h13.6v4.6c3.3-3.8,8.2-5.8,13.8-5.8c13.2,0,20.2,8.7,20.2,25.1v31.1h-13.6
	v-30.3c0-9.2-3.2-13.4-9.9-13.4c-6.8,0-10.4,4.6-10.4,13.4V476.9z M630.4,441.2v35.7h-13.6v-55h13.6V441.2z M642.5,405.8l13.6-6.8
	v41v37h-13.6V405.8z M699.3,425.7c-3.3-3.4-7.6-5.1-12.2-5.1c-13.3,0-21.6,10.8-21.6,28.1c0,18.3,8,29.3,21.3,29.3
	c4.6,0,8.8-1.7,12.5-5.4v4.2h13.6V399l-13.6,6.8V425.7z M689.8,465.5c-4.7,0-10.4-3-10.4-17c0-12.7,5.5-15.4,10.2-15.4
	c5.1,0,8.2,3,9.7,5.4v21.6C697.3,462.7,694.8,465.5,689.8,465.5z M995.8,420.7c-4.2,0-8.7,1.9-12.2,5.1v-25.4l-13.6,6.8v69.7h13.6
	v-4.1c3.4,3.5,7.7,5.3,12.5,5.3c13.6,0,21.3-10.7,21.3-29.3C1017.5,431.5,1009.2,420.7,995.8,420.7z M993.3,433.1
	c5,0,10.3,4,10.3,15.4c0,11.5-3.3,17-10,17c-5.1,0-8.5-3.4-9.9-5.2v-21.6C985.9,435.3,989.3,433.1,993.3,433.1z M841.3,425.7
	c-3.3-3.3-7.6-5.1-12.2-5.1c-13.3,0-21.6,10.8-21.6,28.1c0,18.3,8,29.2,21.3,29.2c4.8,0,9-1.8,12.5-5.3v1.3c0,6,0,14.3-17.6,14.6
	l-0.6,0l4.8,10.7l0.3,0c18-0.3,26.7-9.3,26.7-27.5v-49.9h-13.6V425.7z M841.3,438.5v21.6c-2.2,2.8-4.8,5.4-9.6,5.4
	c-4.7,0-10.3-3-10.3-17c0-12.7,5.5-15.4,10.2-15.4C836.7,433.1,839.7,436.1,841.3,438.5z M897.1,435.4c4.3-2.4,8.4-3.8,14.1-3.8
	c6.4,0,9.8,2.7,9.8,7.9v3.7c-3.1-1.6-7.6-2.6-11.7-2.6c-10.1,0-21.9,4.7-21.9,18c0,14.3,11,19.4,20.4,19.4c3.9,0,9.5-1.5,13.2-5.7
	v4.5h13.6v-37.1c0-12-8.3-19.1-22.2-19.1c-7.5,0-14.2,1.7-20.6,5.3L897.1,435.4z M901,458.6c0-4.9,3.5-7.8,9.4-7.8
	c4,0,7.5,0.8,10.7,2.7v7.5c-1.7,2.9-5.7,5.8-10.7,5.8C904.6,466.9,901,463.7,901,458.6z M1061.1,460.9c-2.5,2.2-5.8,4.6-10.9,4.6
	c-2.7,0-11.6-0.9-12.2-12h33.7c0.1-1.1,0.2-2.7,0.2-4.1c0-17.5-9.1-28.7-23.1-28.7c-14.3,0-24.7,12.1-24.7,28.7
	c0,17.4,10.2,28.6,26.1,28.6c7.3,0,14.3-2.8,19.4-8.6L1061.1,460.9z M1038.2,443.6c0.3-6.7,4.5-11.4,10.2-11.4
	c7.2,0,10.1,5.8,10.4,11.4H1038.2z M1192.3,460.9c-2.5,2.2-5.8,4.6-10.8,4.6c-2.7,0-11.6-0.9-12.2-12h33.7c0.1-1.1,0.2-2.7,0.2-4.1
	c0-17.5-9.1-28.7-23.1-28.7c-14.3,0-24.7,12.1-24.7,28.7c0,17.4,10.2,28.6,26.1,28.6c7.3,0,14.1-2.8,19.4-8.6L1192.3,460.9z
	 M1169.4,443.6c0.3-6.7,4.5-11.4,10.2-11.4c7.2,0,10.1,5.8,10.4,11.4H1169.4z M1136.6,457.8c0,4.9,1.8,7.4,5.9,7.4
	c2.9,0,5.7-1.1,8.2-2.5l-1.6,12.8c-3.2,1.7-7.1,2.5-11.4,2.5c-10.8,0-14.7-9.1-14.7-16.9v-26.6h-8.5v-12.7h8.5v-14.1l13.6-6.8v20.9
	h12.4v12.7h-12.4V457.8z M1110.3,475.5c-3.2,1.7-7.1,2.5-11.4,2.5c-10.8,0-14.7-9.1-14.7-16.9v-26.6h-8.5v-12.7h8.5v-14.1l13.6-6.8
	v20.9h11.6v12.7h-11.6v23.2c0,4.9,1.8,7.4,5.9,7.4c2.9,0,5.7-1.1,8.2-2.5L1110.3,475.5z M1244.3,437.3c-2.7-1.9-5.8-3-9-3
	c-6.7,0-9.8,4.1-9.8,12.8v29.8h-13.6v-55h13.6v4.8c3.3-4.1,7.3-5.9,12.2-5.9c3.6,0,7.6,1.3,10.2,3.3L1244.3,437.3z M630.4,407.2v6.8
	h-13.6v-13.6h13.6V407.2z M725.1,421.9h13.6v17.4v37.7h-13.6V421.9z M738.6,407.2v6.8h-13.6v-13.6h13.6V407.2z M1112.1,521.9
	c-3.3-3.4-7.6-5-12.2-5c-13.3,0-21.6,10.8-21.6,28.1c0,18.3,8,29.2,21.3,29.2c4.6,0,8.8-1.7,12.5-5.4v4.2h13.6v-77.9l-13.6,6.8
	V521.9z M1102.5,561.7c-4.7,0-10.4-3-10.4-17c0-12.7,5.5-15.4,10.2-15.4c5.1,0,8.2,3,9.7,5.4v21.6
	C1110,558.9,1107.5,561.7,1102.5,561.7z M650.2,533.4c-2.7-1.9-5.8-3-9-3c-6.7,0-9.8,4.1-9.8,12.8V573h-13.6V518h13.6v4.8
	c3.3-4.1,7.3-5.9,12.2-5.9c3.6,0,7.6,1.3,10.2,3.3L650.2,533.4z M543.3,518h13.4L541.2,573h-11.7l-6.1-22.9c-1-4-2.3-8.8-3-12
	c-0.5,2.2-2.1,9-3.1,12.4l-6,22.4h-11.8L484,518h14l5.1,20.6c0.8,3.2,2.1,9.3,2.8,13.5c0.8-4.1,2.2-10,3.3-13.8l5.7-20.3h11.6
	l5.7,20.3c1,3.6,2.5,9.6,3.3,13.9c0.6-3.5,1.8-8.7,2.9-13.9L543.3,518z M584.4,516.8c-14.5,0-25,12.1-25,28.7
	c0,16.7,10.5,28.8,25,28.8c14.5,0,25-12.1,25-28.8C609.4,528.8,598.9,516.8,584.4,516.8z M584.4,561.4c-6.8,0-11.1-6.3-11.1-15.9
	c0-9.7,4.4-15.9,11.1-15.9c6.8,0,11.2,6.3,11.2,15.9C595.6,555.2,591.2,561.4,584.4,561.4z M1045.1,533.4c-2.7-1.9-5.8-3-9-3
	c-6.7,0-9.8,4.1-9.8,12.8V573h-13.6V518h13.6v4.8c3.3-4.1,7.3-5.9,12.2-5.9c3.6,0,7.6,1.3,10.2,3.3L1045.1,533.4z M938.1,518h13.4
	L936,573h-11.7l-6.1-22.9c-1-4-2.2-8.8-3-12c-0.5,2.2-2.1,9-3,12.4l-6,22.4h-11.8l-0.1-0.3L878.8,518h14l5.1,20.6
	c0.8,3.2,2.1,9.3,2.8,13.5c0.8-4.1,2.2-10,3.3-13.8l5.7-20.3h11.6l5.7,20.3c1,3.6,2.5,9.6,3.3,13.9c0.6-3.5,1.8-8.7,2.9-13.9
	L938.1,518z M979.2,516.8c-14.5,0-25,12.1-25,28.7c0,16.7,10.5,28.8,25,28.8c14.5,0,25-12.1,25-28.8
	C1004.2,528.9,993.7,516.8,979.2,516.8z M979.2,561.4c-6.8,0-11.2-6.2-11.2-15.9c0-9.7,4.4-15.9,11.2-15.9c6.8,0,11.2,6.3,11.2,15.9
	C990.3,555.2,986,561.4,979.2,561.4z M690.7,536.1l16.8,36.9h-15l-11.6-25.6l-7.2,9.1V573h-13.5V502l13.5-6.8V539
	c1.7-2.4,3.7-5,5.1-6.9l10.9-14.1h15.7L690.7,536.1z M755.3,573h-13.6V518h13.6v4.7c3.3-3.8,8.2-5.8,13.8-5.8
	c13.2,0,20.2,8.7,20.2,25.1V573h-13.6v-30.3c0-9.2-3.2-13.4-9.9-13.4c-6.8,0-10.4,4.6-10.4,13.4V573z M832.2,521.8
	c-3.3-3.3-7.6-5-12.2-5c-13.3,0-21.6,10.8-21.6,28.1c0,18.3,8,29.2,21.3,29.2c4.8,0,9-1.8,12.5-5.3v1.3c0,6,0,14.3-17.6,14.6l-0.6,0
	l4.8,10.7l0.3,0c18-0.3,26.7-9.3,26.7-27.5V518h-13.6V521.8z M832.2,534.6v21.6c-2.2,2.8-4.8,5.4-9.6,5.4c-4.7,0-10.3-3-10.3-17
	c0-12.7,5.5-15.4,10.2-15.4C827.5,529.3,830.6,532.3,832.2,534.6z M715.9,518h13.6v23.6V573h-13.6V518z M729.5,503.3v6.8h-13.6
	v-13.6h13.6V503.3z M1055.1,502l13.6-6.8v28.1V573h-13.6V502z M89.9,461.1h102.5v-59.5H89.9v-46.8h113.4l-37.6-65.2H4.9V573h226.8
	v-65.2H89.9V461.1z M382.6,289.6l-48.2,92.5l-48-92.5h-94l99,171.5v112h84.8v-112l99.2-171.5H382.6z"/>
</svg>
