<?xml version="1.0" encoding="utf-8"?>
<!-- Generator: Adobe Illustrator 26.0.2, SVG Export Plug-In . SVG Version: 6.00 Build 0)  -->
<svg version="1.1" id="Layer_2" xmlns="http://www.w3.org/2000/svg" xmlns:xlink="http://www.w3.org/1999/xlink" x="0px" y="0px"
	 viewBox="0 0 190.1 77.48" style="enable-background:new 0 0 190.1 77.48;" xml:space="preserve">
<style type="text/css">
	.st0{fill:#009ADA;}
</style>
<g>
	<g>
		<g>
			<g>
				<g>
					<path class="st0" d="M124.56,22.2L124.56,22.2c-2.54,2.54-2.54,6.65,0,9.19l8.91,8.91c0.57,0.64,2.99,3.62,2.1,7.66
						c-0.05,0.21,0,0.43,0.16,0.59c0.24,0.24,0.63,0.24,0.86,0l2.57-2.57l3.28-3.28c3.26-3.26,3.26-8.56,0-11.82l-8.68-8.68
						C131.21,19.66,127.1,19.66,124.56,22.2z"/>
					<path class="st0" d="M177.89,75.56L177.89,75.56c2.54-2.54,2.54-6.65,0-9.19l-8.91-8.91c-0.57-0.64-2.99-3.62-2.1-7.66
						c0.05-0.21,0-0.43-0.16-0.59c-0.24-0.24-0.63-0.24-0.86,0l-2.57,2.57l-3.28,3.28c-3.26,3.26-3.26,8.56,0,11.82l8.68,8.68
						C171.24,78.1,175.35,78.1,177.89,75.56z"/>
					<path class="st0" d="M124.53,66.4l44.21-44.18c1.28-1.28,2.98-1.91,4.66-1.89c1.64,0.02,3.27,0.65,4.51,1.89v0
						c1.26,1.26,1.89,2.92,1.89,4.58c0,1.67-0.63,3.33-1.89,4.6l-44.21,44.18c-1.26,1.26-2.93,1.89-4.59,1.89
						c-1.66,0-3.33-0.63-4.59-1.89l0,0c-1.23-1.23-1.86-2.85-1.89-4.47C122.61,69.4,123.24,67.69,124.53,66.4z"/>
				</g>
				<g>
					<path class="st0" d="M9.71,32.84H5.32C2.38,32.84,0,30.46,0,27.53v0c0-2.94,2.38-5.32,5.32-5.32h4.39v-4
						c0-6.21,1.58-10.84,4.53-13.79C17.18,1.47,21.29,0,26.76,0c2.29,0,4.22,0.17,5.94,0.45c2.54,0.42,4.38,2.64,4.38,5.21v0
						c0,3.09-2.64,5.53-5.72,5.26c-0.56-0.05-1.14-0.08-1.75-0.08c-4.84,0-7.37,2.63-7.37,8.42v3.05h9.47
						c2.91,0,5.26,2.36,5.26,5.26v0c0,2.91-2.36,5.26-5.26,5.26h-9.26v38.27c0,3.52-2.85,6.37-6.37,6.37h0
						c-3.52,0-6.37-2.85-6.37-6.37V32.84z"/>
					<path class="st0" d="M50.42,0.63L50.42,0.63c3.52,0,6.37,2.85,6.37,6.37v64.11c0,3.52-2.85,6.37-6.37,6.37h0
						c-3.52,0-6.37-2.85-6.37-6.37V7C44.05,3.48,46.9,0.63,50.42,0.63z"/>
					<path class="st0" d="M66.54,48.63v-0.76c0-17.37,15.61-31.07,32.69-27.91c14.02,2.6,21.1,15.17,21.1,29.41v0
						c0,1.98-1.61,3.58-3.58,3.58l-36.82,0c-0.34,0-0.61,0.32-0.55,0.65c1.57,8.64,7.88,13.45,15.89,13.45
						c4.72,0,8.4-1.33,11.83-3.87c2-1.47,4.73-1.42,6.59,0.22l0,0c2.35,2.09,2.36,5.82-0.08,7.81c-4.77,3.89-10.81,6.25-18.55,6.25
						C78.97,77.48,66.54,65.79,66.54,48.63z M107.08,44.53c0.33,0,0.59-0.29,0.55-0.62C106.61,36,101.81,29.9,93.6,29.9
						c-7.6,0-12.99,5.71-14.33,13.99c-0.05,0.33,0.21,0.64,0.55,0.64H107.08z"/>
				</g>
			</g>
		</g>
	</g>
	<g>
		<path class="st0" d="M184.37,74.31c0-0.52,0.13-1.01,0.39-1.45c0.26-0.44,0.61-0.79,1.05-1.04c0.44-0.25,0.91-0.38,1.42-0.38
			c0.51,0,0.99,0.13,1.43,0.39c0.44,0.26,0.78,0.6,1.04,1.04c0.26,0.44,0.39,0.92,0.39,1.44c0,0.5-0.12,0.97-0.37,1.41
			c-0.25,0.44-0.59,0.79-1.03,1.06c-0.43,0.27-0.92,0.4-1.45,0.4c-0.52,0-1.01-0.13-1.44-0.39c-0.44-0.26-0.78-0.61-1.04-1.05
			C184.5,75.3,184.37,74.82,184.37,74.31z M189.69,74.31c0-0.44-0.11-0.86-0.33-1.24c-0.22-0.38-0.51-0.68-0.89-0.91
			c-0.37-0.22-0.79-0.34-1.24-0.34c-0.44,0-0.85,0.11-1.22,0.33c-0.37,0.22-0.67,0.52-0.89,0.9c-0.22,0.38-0.33,0.79-0.33,1.24
			c0,0.44,0.11,0.86,0.33,1.24c0.22,0.38,0.51,0.68,0.89,0.91c0.37,0.22,0.79,0.34,1.24,0.34s0.86-0.11,1.24-0.34
			c0.37-0.23,0.67-0.53,0.89-0.91C189.58,75.17,189.69,74.75,189.69,74.31z M188.08,75.43c0-0.23-0.03-0.41-0.07-0.53
			c-0.05-0.12-0.13-0.2-0.25-0.24c-0.12-0.04-0.29-0.07-0.51-0.07h-0.82v1.39h-0.41V72.7h1.43c0.34,0,0.6,0.08,0.8,0.23
			c0.2,0.15,0.3,0.37,0.3,0.66c0,0.21-0.05,0.38-0.15,0.52c-0.1,0.13-0.25,0.23-0.45,0.28v0.01c0.2,0.06,0.34,0.16,0.42,0.28
			c0.08,0.13,0.12,0.35,0.12,0.65c0,0.31,0.04,0.52,0.11,0.64h-0.41c-0.03-0.04-0.05-0.12-0.07-0.22
			C188.09,75.65,188.08,75.54,188.08,75.43z M188.14,73.61c0-0.35-0.26-0.53-0.78-0.53h-0.93v1.13h0.89c0.26,0,0.46-0.05,0.6-0.15
			C188.07,73.96,188.14,73.81,188.14,73.61z"/>
	</g>
</g>
</svg>
