<?xml version="1.0" encoding="utf-8"?>
<!-- Generator: Adobe Illustrator 24.1.3, SVG Export Plug-In . SVG Version: 6.00 Build 0)  -->
<svg version="1.1" id="Layer_1" xmlns="http://www.w3.org/2000/svg" xmlns:xlink="http://www.w3.org/1999/xlink" x="0px" y="0px"
	 viewBox="0 0 432.01 432" style="enable-background:new 0 0 432.01 432;" xml:space="preserve">
<style type="text/css">
	.st0{fill:#0060A8;}
</style>
<g>
	<path class="st0" d="M264.47,159.76c0-24.54,16.6-48.39,25.69-43.86C300.49,121.07,282.43,144.2,264.47,159.76 M151.38,168.73
		c0-19.75,19.49-57.29,31.41-53.32C196.85,120.1,171.13,157.96,151.38,168.73z M131.63,309.95c-8.97,0.41-14.94-5.33-14.94-14.91
		c0-25.72,35.66-50.28,62.59-63.46C174.5,267.49,162.38,308.54,131.63,309.95z M296.17,226.18c-20.33,0-35.9,14.96-35.9,32.91
		c0,14.96,8.97,26.92,20.95,26.92c4.2,0,8.36-2.39,8.36-7.78c0-7.77-10.31-9.67-9.5-21.3c0.5-7.68,7.73-12.8,14.9-12.8
		c14.36,0,21.08,13.91,21.08,28.28c-0.6,22.14-16.89,37.55-36.03,37.55c-25.14,0-41.27-23.94-41.27-49.68
		c0-38.29,25.12-53.25,38.28-56.84c0.13-0.01,34.42,6.12,33.34-9c-0.46-6.63-10.35-9.18-17.52-9.47
		c-7.95-0.31-15.93,2.55-15.93,2.55c-4.18-2.11-7.07-6.22-8.85-11c24.53-18.56,41.88-36.5,41.88-56.85
		c0-10.77-7.18-20.35-20.94-20.35c-24.53,0-43.08,31.11-43.08,59.23c0,4.79,0,9.58,1.2,13.77c-15.56,11.37-27.12,18.42-48.07,30.99
		c0-2.63,0.55-9.36,2.31-18.14c7.18-7.78,17.04-19.42,17.04-28.4c0-4.19-2.38-7.78-7.18-7.78c-11.96,0-20.94,17.94-23.33,30.52
		c-5.39,6.58-16.15,14.97-25.13,14.97c-7.18,0-9.57-6.59-10.18-8.98c22.75-7.79,50.86-38.9,50.86-67.02
		c0-5.98-2.39-19.15-20.34-19.15c-26.93,0-49.66,40.09-49.66,71.21c-9.58,0-13.16-10.18-13.16-17.95c0-7.79,2.99-15.57,2.99-17.95
		c0-2.4-1.21-5.39-4.79-5.39c-8.98,0-14.37,11.97-14.37,25.73c0.61,19.15,13.17,31.12,29.92,32.31
		c2.39,11.37,12.57,22.13,25.13,22.13c7.79,0,17.35-2.39,23.94-8.37c-0.61,4.2-1.2,7.78-1.8,11.37
		c-26.33,13.77-45.47,23.34-62.82,38.88c-13.76,12.58-21.54,29.32-21.54,42.5c0,17.95,11.37,34.69,34.7,34.69
		c27.52,0,48.47-22.13,58.64-52.65c4.79-14.36,6.71-35.25,7.9-54.41c27.53-15.55,40.58-24.56,54.92-34.74
		c1.8,2.99,3.62,5.39,5.99,7.18c-12.56,6.59-42.47,25.13-42.47,68.8c0,31.13,20.95,65.81,62.22,65.81
		c34.11,0,57.45-28.09,57.45-55.03C336.28,248.91,322.51,226.18,296.17,226.18z M399.05,277.57c-0.1,0.19-0.45,0.47-1.11,0.23
		c-0.5-0.19-0.67-0.46-0.65-0.77c0.04-0.35,7.24-21.63,7.19-46.07c-0.08-26.33-10.78-42.48-24.53-42.48
		c-8.38,0-14.36,5.99-14.36,14.95c0,16.16,19.75,17.35,19.75,52.67c0,14.36-2.99,28.1-7.78,43.08
		c-22.14,74.79-92.75,109.48-161.54,109.48c-31.72,0-54.26-6.51-60.97-9.52c-0.28-0.14-0.5-0.68-0.29-1.19
		c0.15-0.42,0.62-0.73,0.88-0.61c2.73,1.08,22.07,7.14,46.01,7.14c26.33,0,41.89-10.75,41.89-23.95c0-8.36-6.58-14.94-14.97-14.94
		c-16.15,0-17.36,20.33-52.05,20.33c-14.96,0-28.12-2.98-43.68-7.77C58.63,355.42,23.27,285.41,23.34,216
		c0.03-33.79,9.49-60.71,9.65-60.97c0.11-0.18,0.54-0.37,1.07-0.18c0.53,0.18,0.68,0.64,0.63,0.77c-0.88,2.8-7.16,22.1-7.16,46.02
		c0,26.34,10.76,41.89,24.52,41.89c7.78,0,14.37-5.98,14.37-14.35c0-16.16-19.75-17.96-19.75-52.66c0-14.97,2.99-28.13,7.78-43.69
		C77.18,58.64,147.19,23.86,216.01,23.34c31.97-0.25,59.97,9.32,61.02,10.16c0.18,0.15,0.39,0.59,0.18,1.07
		c-0.21,0.56-0.59,0.63-0.79,0.6c-0.33-0.04-18.53-7.65-46.08-7.65c-25.71-0.01-41.87,10.76-41.87,24.53
		c0,7.77,5.98,14.35,14.95,14.35c16.16,0,17.37-19.75,52.05-19.75c14.96,0,28.12,2.99,43.68,7.78
		c74.81,22.74,108.86,93.35,109.5,161.55C408.99,250.95,399.15,277.39,399.05,277.57z M216.01,10.16
		C102.32,10.16,10.16,102.32,10.16,216c0,113.7,92.16,205.83,205.85,205.83c113.68,0,205.8-92.13,205.8-205.83
		C421.82,102.91,329.69,10.16,216.01,10.16z M216.01,432C96.93,432,0,335.67,0,216C0,96.93,96.93,0,216.01,0
		c119.04,0,215.99,96.93,215.99,216C432.01,335.67,335.05,432,216.01,432z"/>
</g>
</svg>
