<?xml version="1.0" encoding="utf-8"?>
<!-- Generator: Adobe Illustrator 24.1.3, SVG Export Plug-In . SVG Version: 6.00 Build 0)  -->
<svg version="1.1" id="Henkel" xmlns="http://www.w3.org/2000/svg" xmlns:xlink="http://www.w3.org/1999/xlink" x="0px" y="0px"
	 viewBox="0 0 76.27 42.52" style="enable-background:new 0 0 76.27 42.52;" xml:space="preserve">
<style type="text/css">
	.GrŸn_x0020_bogenfšrmig{fill:url(#SVGID_1_);stroke:#FFFFFF;stroke-width:0.25;stroke-miterlimit:1;}
	.st0{fill:#FFFFFF;}
	.st1{fill:#E30613;}
</style>
<linearGradient id="SVGID_1_" gradientUnits="userSpaceOnUse" x1="0" y1="49.6055" x2="0.7071" y2="48.8984">
	<stop  offset="0" style="stop-color:#1DA238"/>
	<stop  offset="0.9831" style="stop-color:#24391D"/>
</linearGradient>
<path class="st0" d="M38.13,0.92c-20.51,0-37.2,9.13-37.2,20.34c0,11.21,16.69,20.33,37.21,20.33c20.52,0,37.21-9.12,37.21-20.33
	C75.34,10.05,58.65,0.92,38.13,0.92z"/>
<path class="st1" d="M38.13,0c21.05,0,38.13,9.52,38.13,21.26S59.19,42.52,38.14,42.52C17.09,42.52,0,33,0,21.26S17.08,0,38.13,0z
	 M38.13,1.92c-19.98,0-36.2,8.68-36.2,19.34c0,10.67,16.22,19.33,36.21,19.33c19.98,0,36.21-8.66,36.21-19.33
	C74.34,10.59,58.12,1.92,38.13,1.92z M31.43,23.3h-7.5c0.08,1.85,1.12,2.71,2.67,2.71c1.16,0,1.95-0.65,2.15-1.31h2.46
	c-0.63,2.24-2.46,3.27-4.71,3.27c-3.2,0-5.18-2.2-5.18-5.34c0-3.04,2.1-5.36,5.18-5.36C29.96,17.27,31.63,20.18,31.43,23.3z
	 M26.43,19.19c-1.56,0-2.36,1.04-2.48,2.37h4.88C28.63,20.14,28.03,19.19,26.43,19.19z M63.93,23.3h-7.5
	c0.08,1.85,1.12,2.71,2.67,2.71c1.16,0,1.95-0.65,2.15-1.31h2.46c-0.63,2.24-2.46,3.27-4.71,3.27c-3.2,0-5.18-2.2-5.18-5.34
	c0-3.04,2.1-5.36,5.18-5.36C62.46,17.27,64.13,20.18,63.93,23.3z M58.92,19.19c-1.55,0-2.36,1.04-2.48,2.37h4.87
	C61.13,20.14,60.53,19.19,58.92,19.19z M8.19,27.7h2.79v-6.04h6.02v6.04h2.79V13.65h-2.79v5.75h-6.02v-5.75H8.19V27.7z M32.97,27.7
	h2.62v-5.49c0-2.06,0.73-2.91,2.24-2.91c1.3,0,1.88,0.83,1.88,2.49v5.9h2.62v-6.24c0-2.51-0.75-4.18-3.71-4.18
	c-1.18,0-2.4,0.55-3.1,1.69h-0.06v-1.41h-2.48V27.7z M44.56,27.7h2.62v-5.5l3.87,5.5h3.26L50.04,22l3.78-4.46H50.7l-3.51,4.38v-8.27
	h-2.62V27.7z M65.47,27.7h2.62V13.65h-2.62V27.7z"/>
</svg>
