<?xml version="1.0" encoding="utf-8"?>
<!-- Generator: Adobe Illustrator 23.0.6, SVG Export Plug-In . SVG Version: 6.00 Build 0)  -->
<svg version="1.1" id="Red" xmlns="http://www.w3.org/2000/svg" xmlns:xlink="http://www.w3.org/1999/xlink" x="0px" y="0px"
	 viewBox="0 0 379.7 70.6" style="enable-background:new 0 0 379.7 70.6;" xml:space="preserve">
<style type="text/css">
	.st0{fill:#DC202E;}
</style>
<path class="st0" d="M30.4,0h17v55.2h-17V30H17.1v25.2H0V0h17.1v23h13.3V0z M95.3,24c3.1,5.3,3.4,13,1.3,19.3
	c-2.2,6.3-6.6,9.3-9.5,10.9c-2.9,1.6-7.5,2.4-12,2.4c-4.5,0-10.3-1-14.2-4.1c-3.9-3.1-6.5-6.5-7.7-11.1c-1.2-4.6-1.9-12.8,3-19.3
	C61,15.7,67.2,14.5,70,14c2.5-0.5,4.2-0.4,4.5-0.4c0,0,5.5-0.3,10,1.4C88.9,16.8,92.2,18.7,95.3,24z M80.8,29.6c0-3.1-0.5-5.4-1-6.6
	c-0.8-2.1-2.3-4.4-4.8-4.4c-0.3,0-0.6,0-0.8,0.1c-1.3,0.2-2.6,1.6-3.7,4.2c-1,2.2-1,5.6-1,10.3c0,1.4,0,2.8,0,4.4
	c-0.1,7.3,0.5,9.4,2.1,11.8c0.9,1.3,2,2.1,3.2,2.3c1,0.1,2-0.2,2.9-0.9c2.5-2.1,3.1-6.6,3.2-7.9C80.9,41.5,80.9,35,80.8,29.6z
	 M138.4,15.1c-5.7-2.4-11.3-1-14.5,0.6c-3.2,1.5-5.3,4.7-5.4,4.7v-5.4h-15.9v40.3l15.9,0V26.2c0-0.6,1.9-2.7,4.1-3.9
	c2.2-1.2,4.8-0.5,5.7,0.6c1.3,1.5,1.3,3.3,1.3,4.2v28h15.7l0-30.6C145,22.6,144.1,17.5,138.4,15.1z M192.7,24.4
	c3,5.7,2.6,13.1,2.5,13.1h-28.3v8.2c0,0,0.3,1.7,0.9,2.5c0.6,0.9,2.9,4.2,10.7,3c8.6-1.4,8.4-7.5,8.5-7.5l6.8,0c0,0-0.1,4.1-2.9,6.8
	c-2.8,2.7-7.8,5.5-13.5,6c-5.6,0.6-13.6,0.7-20-4.6c-3.7-3.1-5.4-6.5-6.5-9.6c-1.4-3.9-1.8-11.4,1.4-17.7
	c3.2-6.4,11.2-11.4,21.2-10.9C183.5,14.1,189.2,17.7,192.7,24.4z M178.7,28.5c0-2.2-0.4-4.5-0.6-5.3l0-0.1c-0.2-0.8-0.6-2-2.1-3.6
	c-1.5-1.5-4.3-1.5-5.7-0.4c-1.2,0.8-2.5,2.8-3,5.3c-0.4,2.1-0.4,6.2-0.3,7.4h11.8C178.7,31.4,178.7,30.5,178.7,28.5z M337.2,24.4
	c3,5.7,2.5,13.1,2.5,13.1h-28.3v8.2c0,0,0.3,1.7,0.9,2.5c0.6,0.9,2.9,4.2,10.7,3c8.6-1.4,8.4-7.5,8.5-7.5l6.8,0c0,0-0.1,4.1-2.9,6.8
	c-2.8,2.7-7.8,5.5-13.5,6c-5.6,0.6-13.6,0.7-20-4.6c-3.7-3.1-5.4-6.5-6.5-9.6c-1.4-3.9-1.8-11.4,1.4-17.7
	c3.2-6.4,11.2-11.4,21.2-10.9C328,14.1,333.7,17.7,337.2,24.4z M323.2,28.5c0-2.2-0.4-4.5-0.6-5.3l0-0.1c-0.2-0.8-0.6-2-2.1-3.6
	c-1.5-1.5-4.3-1.5-5.7-0.4c-1.2,0.8-2.5,2.8-3,5.3c-0.4,2.1-0.4,6.2-0.4,7.4h11.8C323.2,31.4,323.2,30.5,323.2,28.5z M288.2,14.9
	l-6.1,22.6l-6.8-22.6h-13.9l-6.2,22.6l-7-22.6h-21.8l-7.9,19.2l-7.4-19.2h-17.3l16.1,41.2c0,0,0,0.4-0.3,1.6
	c-0.3,1.2-1.5,4.1-3.4,6.2c-2,2.1-4.1,1.5-4.1,1.5s0.8-0.7,1.3-1.9c0.5-1.2,0.3-3.3-0.6-5.1c-0.9-1.8-3.4-3.3-7.2-2.6
	c-3.8,0.7-5.5,4.2-5.1,7.5c0.4,3.3,2.5,6.1,7.9,7.1c5.4,1,8.6-1,11.6-3.6c3-2.6,5.4-9.4,5.4-9.4l16.8-41.1l11.9,38.8h13.4l6.4-23.4
	l7.3,23.4h13.1l11.1-40.3H288.2z M344.5,55.2h15.3V0h-15.3V55.2z M364.5,0v55.2h15.3V0H364.5z"/>
</svg>
