<svg id="HSBC_MASTERBRAND_LOGO_WW_CMYK" xmlns="http://www.w3.org/2000/svg" viewBox="0 0 1123.31 302.32"><defs><style>.cls-1{fill:#fff;}.cls-2{fill:#e52713;}.cls-3{fill:#1d1d1b;}</style></defs><title>HSBC_MASTERBRAND_LOGO_CMYK</title><polygon class="cls-1" points="453.47 0 151.16 0 0 151.16 151.16 302.32 453.47 302.32 604.63 151.16 453.47 0"/><rect class="cls-1" x="151.16" width="302.31" height="302.31"/><polygon class="cls-2" points="604.63 151.16 453.47 0 453.47 302.31 604.63 151.16"/><polygon class="cls-2" points="302.31 151.16 453.47 0 151.16 0 302.31 151.16"/><polygon class="cls-2" points="0 151.16 151.16 302.31 151.16 0 0 151.16"/><polygon class="cls-2" points="302.31 151.16 151.16 302.31 453.47 302.31 302.31 151.16"/><path class="cls-3" d="M737.31,160.35H682.5v54.11H655V87.86H682.5v51.83h54.81V87.86H764.8v126.6H737.31Z"/><path class="cls-3" d="M830.62,216.73c-27.31,0-49.72-10.85-50.25-41.15h27.49c.35,13.49,8.23,21.54,23.29,21.54,11.21,0,23.81-5.6,23.81-18.21,0-9.8-8.57-13-22.76-17l-9.11-2.63c-20-5.78-39.74-13.49-39.74-36.25,0-28.19,26.26-37.64,50.25-37.64,24.69,0,45.88,8.58,46,36.59H852.16c-1-11.55-7.7-18.21-20.66-18.21-10.16,0-20.31,5.43-20.31,16.64,0,9.28,8.4,12.08,26.26,17.68L848,141.44c21.71,6.83,35.37,14.36,35.37,35.37C883.33,205.7,855.49,216.73,830.62,216.73Z"/><path class="cls-3" d="M898.81,87.86h44c13.84,0,19.44.35,24.87,1.58,15.41,3.49,27,13.48,27,30.46,0,16.28-10.33,24.69-25.21,28.54,17.16,3.16,29.77,11.91,29.77,30.65,0,28.71-28.37,35.37-50.61,35.37H898.81Zm44.13,52.7c12.08,0,24.34-2.45,24.34-17.16,0-13.13-11.56-16.63-22.59-16.63H925.43v33.79Zm2.62,55c12.79,0,25.4-3,25.4-18.39,0-15.06-10.86-18.56-23.82-18.56H925.43v37Z"/><path class="cls-3" d="M1070.78,216.73c-40.8,0-59.18-26.09-59.18-64.61,0-38.17,20.31-66.71,60.59-66.71,25.21,0,49.72,11.2,50.42,39.92h-28.36c-1.41-12.61-9.81-19.26-22.06-19.26-24.7,0-32.23,26.61-32.23,46.92,0,20.14,7.53,43.6,31.35,43.6,12.43,0,21.53-6.65,23.46-19.43h28.54C1120.16,205.88,1097.05,216.73,1070.78,216.73Z"/></svg>