<svg id="logo" xmlns="http://www.w3.org/2000/svg" viewBox="0 0 450.24 106.73"><defs><style>.cls-1{fill:#231f20;}</style></defs><title>intertrust-logo-2019</title><path class="cls-1" d="M7.62,93.46V50.88c0-4.92-1.25-7.11-4.07-7.11H2.09C.63,43.77,0,43,0,41.37c0-2.09.73-3,2.4-3H27.58c1.77,0,2.4.73,2.4,2.51,0,2.19-.52,2.92-2,2.92H26.53c-2.92,0-4.18,2.19-4.18,7.11V93.46c0,5.22.94,6.78,4,6.78h1.47c1.56,0,2.19.64,2.19,2.2v1.68c0,1.25-.52,1.56-2.19,1.56H2.19c-1.67,0-2.19-.31-2.19-1.56v-1.68c0-1.56.63-2.2,2.19-2.2H3.86C6.79,100.24,7.62,98.68,7.62,93.46Z"/><path class="cls-1" d="M43.47,93.46V64.63c0-4.91-1.16-6.69-4.29-6.79-1.77-.1-2.3-.62-2.3-2.61,0-2.19.63-2.82,2.41-2.82h15A1.71,1.71,0,0,1,56,54.08v.37c0,.73,1.78.15,2.2,0l4.59-1.15a42.37,42.37,0,0,1,11.28-1.57c12.43,0,18.28,5.12,18.28,16v25.7c0,5.22,1.05,6.78,4.08,6.78h1.35c1.68,0,2.2.64,2.2,2.2v1.68c0,1.25-.42,1.56-2.2,1.56H74.49c-1.77,0-2.19-.31-2.19-1.56v-1.68c0-1.56.52-2.2,2.09-2.2H75c2.93,0,3.76-1.45,3.76-6.78V68.39c0-7.41-3.55-10.76-11.49-10.76-7.41,0-10.24,2-10.24,7.1V93.46c0,5.22.84,6.78,3.77,6.78h.62c1.57,0,2.09.64,2.09,2.2v1.68c0,1.25-.42,1.56-2.09,1.56H38c-1.77,0-2.19-.31-2.19-1.56v-1.68c0-1.56.52-2.2,2.09-2.2H39.6C42.53,100.24,43.47,98.79,43.47,93.46Z"/><path class="cls-1" d="M147.8,78.52v1.15c0,7.94.73,11,3.45,15s7.73,6.15,14.41,6.15a32.07,32.07,0,0,0,14.11-3.23,4.55,4.55,0,0,1,1.77-.53,2.06,2.06,0,0,1,1.88,2.09c0,4.18-9.61,7.63-20.79,7.63-10.13,0-16.29-1.88-21.41-6.49s-7.84-11.79-7.84-20.46c0-17.76,9.72-28,26.64-28,8.77,0,13.79,1.57,18.49,5.64,4.49,4,6.59,8.78,6.59,15.36v3.86c0,1.25-.75,1.88-2.1,1.88Zm22.14-4.91v-.83c0-11-3.54-16.09-11.17-16.09-8,0-10.66,4-11,16.92Z"/><path class="cls-1" d="M334.12,53.54V89c0,7.73,2.65,11.23,10.9,11.23,6.79,0,9.78-4.82,9.78-10.46V64.63c0-4.7-1.15-6.48-4.28-6.79-1.78-.21-2.2-.73-2.2-2.61,0-2.09.63-2.82,2.3-2.82h16.71a1,1,0,0,1,1.05,1.06v40c0,5.22.94,6.78,4.08,6.78h.83c1.56,0,2.19.64,2.19,2.2v1.68c0,1.25-.52,1.56-2.3,1.56H358.39a2.42,2.42,0,0,1-2.55-2.47v-.49c0-.52-.84.64-3.59,1.75-5,2-7.44,2.13-12.14,2.13-11.18,0-19.57-5.49-19.57-16.67V64.63c0-4.59-1.26-6.48-4.29-6.79-1.77-.1-2.3-.73-2.3-2.4,0-2.2.73-3,2.51-3h13.79l3,0C333.88,52.39,334.12,52.79,334.12,53.54Z"/><path class="cls-1" d="M399.73,87.82l-11.81-6.69c-6.34-3.54-8.94-7.62-9.23-13.68-.5-10.13,5.91-15.67,18.45-15.67,10,0,16.29,1.7,16.29,4.47l.05,7c.07,1.46-.74,2.2-2.51,2.2-2.2,0-2.41-.21-3.05-2.51-.91-3.76-4.69-6.27-9.39-6.27-5.43,0-8.65,2.72-8.43,7.1a7.16,7.16,0,0,0,4,6l11.6,6.48c7.41,4.17,9.87,7.51,10.18,13.88.54,11.18-6.5,16.62-21.34,16.62-9.71,0-15.27-1.26-15.39-3.76l0-8.15c-.09-1.88.81-2.72,2.9-2.72s2.42.32,3.26,2.61c1.8,4.82,4.4,6.69,9.52,6.69,6.58,0,9.5-2.3,9.26-7.2C404,91.48,402.52,89.39,399.73,87.82Z"/><path class="cls-1" d="M262.06,100.1h-6.32c-4.45-.26-6.64-3.17-6.64-9V57.72H260c1.77,0,2.19-.52,2.19-3.13,0-1.77-.52-2.3-2.19-2.3H249.1V44.11c0-2.09-.22-3.17-3.25-3.17H237.3c-.74,0-1.77.7-1.77,2.3V90c0,5.64,1.67,9.62,5,12.44,3,2.48,5.4,3.22,11.2,3.33v0h10.32c1.78,0,2.2-.32,2.2-1.57V102.3C264.26,100.74,263.74,100.1,262.06,100.1Z"/><path class="cls-1" d="M448.05,100.1h-6.32c-4.45-.26-6.65-3.17-6.65-9V57.72H446c1.78,0,2.19-.52,2.19-3.13,0-1.77-.52-2.3-2.19-2.3H435.08V44.11c0-2.09-.22-3.17-3.25-3.17h-8.54c-.74,0-1.78.7-1.78,2.3V90c0,5.64,1.68,9.62,5,12.44,3,2.48,5.4,3.22,11.21,3.33v0h10.32c1.77,0,2.19-.32,2.19-1.57V102.3C450.24,100.74,449.72,100.1,448.05,100.1Z"/><path class="cls-1" d="M195.34,93.54V64.71c0-4.59-1.25-6.58-4.28-6.79-1.88-.2-2.3-.52-2.3-2.4,0-2.3.52-3,2.4-3H206.4a1.89,1.89,0,0,1,2,1.57h0c0,.73.31,1,1,1,1.6,0,5.05-3.23,13.29-3.23,5.61,0,8,3.74,8,6.25V62c0,1.46-.73,2.09-2.4,2.09H222.1c-1.77,0-2.5-.4-2.5-2.5,0-1.6-3.06-2.07-6.08-2.07-3.24,0-4.6,1.26-4.6,4.07v30c0,5.23.83,6.79,3.76,6.79H215c1.56,0,2.09.63,2.09,2.2v1.67c0,1.25-.53,1.57-2.2,1.57h-25c-1.78,0-2.19-.32-2.19-1.57v-1.67c0-1.57.52-2.2,2.08-2.2h1.68C194.4,100.33,195.34,98.77,195.34,93.54Z"/><path class="cls-1" d="M275.46,93.54V64.71c0-4.59-1.25-6.58-4.27-6.79-1.89-.2-2.3-.52-2.3-2.4,0-2.3.52-3,2.4-3h15.23a1.89,1.89,0,0,1,2,1.57h0c0,.73.31,1,1.05,1,1.59,0,5-3.23,13.28-3.23,5.61,0,8,3.74,8,6.25V62c0,1.46-.74,2.09-2.41,2.09h-6.27c-1.77,0-2.5-.4-2.5-2.5,0-1.6-3.05-2.07-6.08-2.07-3.24,0-4.6,1.26-4.6,4.07v30c0,5.23.84,6.79,3.77,6.79h2.29c1.57,0,2.09.63,2.09,2.2v1.67c0,1.25-.52,1.57-2.19,1.57H270c-1.77,0-2.19-.32-2.19-1.57v-1.67c0-1.57.52-2.2,2.09-2.2h1.67C274.52,100.33,275.46,98.77,275.46,93.54Z"/><path class="cls-1" d="M131.69,100.1h-6.32c-4.45-.26-6.64-3.17-6.64-9V57.72h10.92c1.77,0,2.19-.52,2.19-3.13,0-1.77-.52-2.3-2.19-2.3H118.73V44.11c0-2.09-.22-3.17-3.25-3.17h-8.55c-.74,0-1.78.7-1.78,2.3v9h-4.84c-1.67,0-2.19.53-2.19,2.3,0,2.61.42,3.13,2.19,3.13h4.84V90c0,5.64,1.67,9.62,5,12.44,3,2.48,5.4,3.22,11.2,3.33v0h10.32c1.78,0,2.2-.32,2.2-1.57V102.3C133.89,100.74,133.37,100.1,131.69,100.1Z"/><path class="cls-1" d="M330.35,8.43a4.63,4.63,0,1,0,.65,9.2,7.94,7.94,0,0,1,0-9.15A3.49,3.49,0,0,0,330.35,8.43ZM342,0H325.85c-4.26,0-7.71,3.81-7.71,8.53v9c0,4.7,3.45,8.52,7.71,8.52H342c4.27,0,7.72-3.82,7.72-8.52v-9C349.73,3.81,346.28,0,342,0Zm-3.73,21c-1.5-.22-.22-3.19.88-3.61a4.62,4.62,0,0,0-1.63-8.95,3.6,3.6,0,0,0-.66.05h0a4.2,4.2,0,0,0-3.15,1.92,4.62,4.62,0,0,0,.21,5.56,4.6,4.6,0,0,0,1-2.24c0-.05,0-.12,0-.19.32-2.29,2.71-3,3.1-2.5a7.91,7.91,0,0,1-.56,5.52l-.06.13a1.62,1.62,0,0,0-.1.18,8.55,8.55,0,0,1-3.39,3.3h0a8,8,0,1,1,0-14.23,8,8,0,1,1,4.34,15Z"/><path d="M386.35,0H371.93a8.71,8.71,0,0,0-8.76,8.67v8.75a8.7,8.7,0,0,0,8.76,8.66h14.42a8.71,8.71,0,0,0,8.76-8.66V8.68A8.72,8.72,0,0,0,386.35,0Zm-15.8,21.07a12.32,12.32,0,0,1-2.45-.24l.39-3.89a7,7,0,0,0,2.23.27c1.77,0,2.73-.78,2.73-1.77s-1-1.68-3-1.68a9.84,9.84,0,0,0-1.86.15V4.48h9v4l-5.21-.1v2.06c3.14,0,5.67,1.57,5.67,4.65C378.07,18.8,375,21.08,370.55,21.08Zm20.69-.22H380.06V17.08s6.69-6.26,6.09-8.16c-.4-1.31-2.23-.58-2.23-.58l-.18,1.42h-3.36V4.82a17.47,17.47,0,0,1,4.71-.64c3.1,0,5.64,1.29,5.87,4.4.24,3.37-5.2,8.12-5.2,8.12s2.32-.16,5.48-.16Z"/><path d="M302.72,2.83l-4.29,6.25,6.27,1.16V8.53A9,9,0,0,0,302.72,2.83Zm.9,17.15-7.47-5-1.75,10-1.85-9.79L285.17,20l4.64-7.37-10.49-1.86L290,9.08l-4.87-7.55,7.53,4.81L294,0H283.22C279,0,275.5,3.82,275.5,8.53v9c0,4.7,3.45,8.51,7.72,8.51H297c4.26,0,7.71-3.81,7.71-8.51V11.25l-6.31,1.13ZM302.36,2.41A7.33,7.33,0,0,0,297,0h-2.15l1.31,6.71Z"/></svg>