<svg id="Layer_1" data-name="Layer 1" xmlns="http://www.w3.org/2000/svg" viewBox="0 0 915.14 766.72"><defs><style>.cls-1{fill:#323e89;}</style></defs><title>invesco-logo</title><polygon class="cls-1" points="602.8 503.42 569.43 536.91 535.9 503.34 519.13 452.95 468.84 436.13 468.89 402.62 435.35 402.67 418.66 486.52 435.45 536.88 358.31 570.34 334.89 536.8 351.6 503.24 351.6 469.8 301.4 469.8 234.53 536.91 184.23 520.06 184.25 486.52 184.25 452.95 100.47 439.69 36.59 471.88 0 453.55 0 385.79 33.5 369.11 167.55 302 184.25 318.74 234.44 268.44 234.44 234.9 301.4 167.79 334.89 100.58 385.17 16.74 468.84 0 502.32 0 502.32 33.47 569.31 100.58 569.31 167.7 669.78 268.44 770.24 335.56 820.52 352.29 837.2 402.57 904.18 436.24 870.7 469.8 837.2 469.8 837.25 436.19 787.02 419.42 703.26 335.47 636.28 302.01 569.31 201.26 535.82 167.7 552.61 117.4 502.35 67.08 468.84 100.67 468.84 167.79 435.45 201.34 502.32 268.35 468.84 301.9 535.82 369.11 535.82 402.67 569.35 469.8 602.8 469.8 636.27 436.24 619.53 419.47 602.8 369.11 636.28 369.11 669.76 436.24 703.26 469.7 602.8 503.42"/><path class="cls-1" d="M.1,763.76V588.59l36.63-18.33v193.5Z"/><path class="cls-1" d="M189.24,763.76H152.63V688.4c0-24.92-8.49-32.37-23.61-32.37s-23.89,7.45-23.89,31.57v76.16H68.52V624.47h36.61v9.29c6.38-6.64,18.05-12.23,32.65-12.23,35.54,0,51.46,24.43,51.46,63.68Z"/><path class="cls-1" d="M339.22,624.47,289.07,763.76H251.4L201.26,624.47h40.33L262,689c3.37,10.62,7.16,23.86,8.76,30.5,1.58-6.9,5.31-19.65,8.76-30.5L300,624.47Z"/><path class="cls-1" d="M414.87,766.7c-40.66,0-69.65-28.4-69.65-72.45,0-42.71,29.71-72.69,66.34-72.69,38.86,0,63.44,32.92,63.44,72.69a101.67,101.67,0,0,1-.58,11.68H382.74c2.53,18.19,17.65,26.27,32.13,26.27,8.21,0,18.82-3.2,25.89-12.33l28.13,20.56C453.75,761.14,429.61,766.7,414.87,766.7Zm23.49-88.34c-1.88-13.42-10.5-25-28.14-25-13.8,0-24.54,10.88-26.91,25Z"/><path class="cls-1" d="M553.85,735.42c13.72,0,22-5.58,22-12.31,0-9.78-14.81-11.47-21.57-12.74-27.44-5.17-59.56-10.31-59.56-45.64,0-26.35,27.06-43.14,58.11-43.14,17.51,0,37.63,7.42,51.42,16.17l-18.73,25.15c-11.48-5.76-24.88-10-33.24-10-15.92,0-21.87,4.18-21.87,9.89,0,9.79,20,11.61,30.49,14.07,25.45,6,50.87,13.19,50.87,44.57,0,29.08-30.22,45.3-60,45.3-22.05,0-43.78-9.55-58.64-19.36l18.09-24.74C524.32,729.45,538.39,735.42,553.85,735.42Z"/><path class="cls-1" d="M700.13,656.84c-20.6,0-35.42,16.82-35.42,37.41s14.82,37.14,35.42,37.14a34.28,34.28,0,0,0,29.69-16.46l29.38,21.42a72.65,72.65,0,1,1,.18-84L730,673.87A34.19,34.19,0,0,0,700.13,656.84Z"/><path class="cls-1" d="M915.14,694.25a72.57,72.57,0,1,1-72.56-72.72A72.44,72.44,0,0,1,915.14,694.25Zm-37.14,0c0-20.59-14.84-37.41-35.42-37.41s-35.42,16.82-35.42,37.41,14.82,37.14,35.42,37.14S878,714.83,878,694.25Z"/></svg>