<?xml version="1.0" encoding="utf-8"?>
<!-- Generator: Adobe Illustrator 24.0.1, SVG Export Plug-In . SVG Version: 6.00 Build 0)  -->
<svg version="1.1" id="Layer_1" xmlns="http://www.w3.org/2000/svg" xmlns:xlink="http://www.w3.org/1999/xlink" x="0px" y="0px"
	 viewBox="0 0 262.1 142.35" style="enable-background:new 0 0 262.1 142.35;" xml:space="preserve">
<style type="text/css">
	.st0{fill:#8193A1;}
</style>
<g>
	<g>
		<path class="st0" d="M23.53,64.49c-0.02,5.79-1.66,13.93-15.69,18.05L3.58,83.8v15.97l8.37-2.46c17.34-5.09,26.9-16.8,26.9-32.96
			V3.01l-15.32,4.5V64.49z"/>
		<path class="st0" d="M97.48,56.89c16.88-4.96,26.17-16.35,26.17-32.09c0-14.15-11.22-21.05-21.77-21.05
			c-11.09,0-34.68,8.33-34.68,33.36v37.86c0,14.15,11.22,21.05,21.77,21.05c11.1,0,34.68-8.32,34.68-33.35v-4.28l-14.59,4.28
			c0,15.01-15.24,18.76-20.03,18.76c-4.1,0-7.24-1.83-7.24-6.46V61.51L97.48,56.89z M81.79,37.11c0-15.01,15.24-18.76,20.03-18.76
			c4.1,0,7.25,1.81,7.25,6.45c0,5.78-1.64,13.94-15.69,18.08l-11.58,3.41V37.11z"/>
		<path class="st0" d="M166.55,35.28c0-5.78,1.65-13.92,15.69-18.04l4.25-1.26V0l-8.37,2.45c-17.34,5.11-26.89,16.82-26.89,32.98
			v61.34l15.32-4.5V35.28z"/>
		<path class="st0" d="M240.34,3.75c-11.09,0-34.68,8.33-34.68,33.36v4.29l14.59-4.29c0-15.01,15.24-18.76,20.03-18.76
			c4.1,0,7.23,1.81,7.23,6.45v13.46l-15.68,4.61c-16.88,4.96-26.16,16.35-26.16,32.08c0,14.15,11.21,21.05,21.77,21.05
			c11.09,0,34.68-8.32,34.68-33.35V24.8C262.1,10.66,250.88,3.75,240.34,3.75z M247.5,62.66c0,15.01-15.23,18.76-20.02,18.76
			c-4.1,0-7.23-1.83-7.23-6.46c0-5.78,1.63-13.94,15.69-18.07l11.56-3.41V62.66z"/>
	</g>
	<g>
		<path class="st0" d="M14.15,131.68v-3.06l11.96-0.02v9.68c-1.84,1.35-3.73,2.37-5.68,3.05c-1.95,0.68-3.95,1.02-6.01,1.02
			c-2.77,0-5.29-0.55-7.56-1.65c-2.27-1.1-3.98-2.68-5.13-4.76C0.58,133.87,0,131.56,0,128.99c0-2.54,0.57-4.91,1.72-7.11
			c1.15-2.2,2.8-3.83,4.96-4.9c2.16-1.07,4.64-1.6,7.45-1.6c2.04,0,3.89,0.31,5.54,0.92c1.65,0.61,2.94,1.46,3.88,2.55
			c0.94,1.09,1.65,2.51,2.14,4.27l-3.37,0.85c-0.42-1.33-0.95-2.37-1.58-3.13c-0.63-0.76-1.53-1.37-2.7-1.82
			c-1.17-0.46-2.46-0.68-3.89-0.68c-1.71,0-3.18,0.24-4.43,0.72c-1.25,0.48-2.25,1.11-3.01,1.89c-0.76,0.78-1.36,1.64-1.78,2.58
			c-0.72,1.61-1.08,3.36-1.08,5.25c0,2.32,0.43,4.27,1.3,5.83c0.87,1.57,2.13,2.73,3.78,3.49c1.66,0.76,3.41,1.14,5.28,1.14
			c1.62,0,3.2-0.29,4.74-0.86c1.54-0.57,2.71-1.19,3.5-1.84v-4.86H14.15z"/>
		<path class="st0" d="M31.1,141.91v-26.07h3.47v26.07H31.1z"/>
		<path class="st0" d="M38.65,132.46c0-3.5,1.05-6.09,3.16-7.77c1.76-1.4,3.9-2.1,6.43-2.1c2.81,0,5.11,0.85,6.89,2.55
			c1.78,1.7,2.68,4.05,2.68,7.05c0,2.43-0.4,4.34-1.18,5.74c-0.79,1.39-1.94,2.48-3.45,3.25c-1.51,0.77-3.15,1.16-4.94,1.16
			c-2.86,0-5.18-0.85-6.94-2.54C39.53,138.1,38.65,135.65,38.65,132.46z M42.21,132.46c0,2.42,0.57,4.23,1.71,5.43
			c1.14,1.2,2.58,1.81,4.31,1.81c1.72,0,3.15-0.6,4.29-1.81c1.14-1.21,1.71-3.05,1.71-5.53c0-2.34-0.57-4.11-1.72-5.31
			c-1.15-1.2-2.58-1.81-4.28-1.81c-1.73,0-3.17,0.6-4.31,1.8C42.78,128.24,42.21,130.04,42.21,132.46z"/>
		<path class="st0" d="M65.06,141.91h-3.22v-26.07h3.47v9.3c1.46-1.7,3.33-2.54,5.6-2.54c1.26,0,2.45,0.23,3.57,0.7
			c1.12,0.47,2.05,1.13,2.77,1.97c0.73,0.85,1.29,1.87,1.7,3.07c0.41,1.2,0.62,2.48,0.62,3.84c0,3.24-0.87,5.74-2.6,7.51
			c-1.73,1.77-3.81,2.65-6.24,2.65c-2.41,0-4.31-0.93-5.68-2.79V141.91z M65.02,132.32c0,2.27,0.33,3.9,1,4.91
			c1.09,1.65,2.57,2.47,4.43,2.47c1.51,0,2.82-0.61,3.93-1.82c1.1-1.22,1.66-3.03,1.66-5.43c0-2.47-0.53-4.29-1.59-5.46
			c-1.06-1.17-2.34-1.76-3.84-1.76c-1.52,0-2.82,0.61-3.93,1.82C65.58,128.26,65.02,130.02,65.02,132.32z"/>
		<path class="st0" d="M97.14,139.58c-1.28,1.01-2.52,1.72-3.71,2.13c-1.19,0.42-2.46,0.62-3.82,0.62c-2.25,0-3.97-0.51-5.18-1.52
			c-1.21-1.01-1.81-2.31-1.81-3.89c0-0.93,0.23-1.77,0.68-2.53c0.46-0.77,1.05-1.38,1.79-1.84c0.74-0.46,1.57-0.81,2.49-1.05
			c0.68-0.17,1.71-0.33,3.08-0.48c2.8-0.31,4.86-0.68,6.18-1.1c0.01-0.44,0.02-0.72,0.02-0.84c0-1.3-0.33-2.22-0.98-2.76
			c-0.89-0.72-2.2-1.08-3.95-1.08c-1.63,0-2.83,0.26-3.61,0.79c-0.78,0.53-1.35,1.46-1.72,2.8l-3.39-0.43
			c0.31-1.34,0.81-2.42,1.52-3.25c0.71-0.82,1.73-1.46,3.06-1.9c1.33-0.44,2.88-0.67,4.64-0.67c1.75,0,3.16,0.19,4.25,0.57
			c1.09,0.38,1.89,0.86,2.41,1.43c0.51,0.58,0.87,1.3,1.08,2.18c0.12,0.55,0.17,1.53,0.17,2.95v4.27c0,2.98,0.07,4.86,0.22,5.65
			c0.15,0.79,0.44,1.54,0.88,2.27h-3.62C97.48,141.24,97.24,140.47,97.14,139.58z M96.85,132.43c-1.26,0.47-3.14,0.88-5.66,1.21
			c-1.42,0.19-2.43,0.4-3.02,0.64c-0.59,0.24-1.05,0.58-1.37,1.04c-0.32,0.46-0.48,0.96-0.48,1.52c0,0.85,0.35,1.57,1.05,2.13
			c0.7,0.57,1.72,0.85,3.07,0.85c1.33,0,2.52-0.27,3.56-0.81c1.04-0.54,1.8-1.28,2.29-2.21c0.37-0.72,0.56-1.79,0.56-3.2V132.43z"/>
		<path class="st0" d="M105.65,141.91v-26.07h3.47v26.07H105.65z"/>
		<path class="st0" d="M125.77,141.91v-26.07h5.62l6.68,18.46c0.62,1.72,1.07,3.01,1.35,3.86c0.32-0.95,0.82-2.34,1.5-4.18
			l6.76-18.14h5.03v26.07h-3.6v-21.82l-8.2,21.82h-3.37l-8.16-22.2v22.2H125.77z"/>
		<path class="st0" d="M171.64,139.58c-1.28,1.01-2.52,1.72-3.71,2.13c-1.19,0.42-2.46,0.62-3.82,0.62c-2.25,0-3.97-0.51-5.18-1.52
			c-1.21-1.01-1.81-2.31-1.81-3.89c0-0.93,0.23-1.77,0.68-2.53c0.46-0.77,1.05-1.38,1.79-1.84s1.57-0.81,2.49-1.05
			c0.68-0.17,1.71-0.33,3.08-0.48c2.8-0.31,4.86-0.68,6.18-1.1c0.01-0.44,0.02-0.72,0.02-0.84c0-1.3-0.33-2.22-0.98-2.76
			c-0.89-0.72-2.2-1.08-3.95-1.08c-1.63,0-2.83,0.26-3.61,0.79c-0.78,0.53-1.35,1.46-1.72,2.8l-3.39-0.43
			c0.31-1.34,0.82-2.42,1.52-3.25c0.71-0.82,1.73-1.46,3.06-1.9c1.33-0.44,2.88-0.67,4.64-0.67c1.75,0,3.16,0.19,4.25,0.57
			c1.09,0.38,1.89,0.86,2.41,1.43c0.51,0.58,0.87,1.3,1.08,2.18c0.12,0.55,0.17,1.53,0.17,2.95v4.27c0,2.98,0.07,4.86,0.22,5.65
			c0.15,0.79,0.44,1.54,0.88,2.27h-3.62C171.97,141.24,171.74,140.47,171.64,139.58z M171.35,132.43c-1.26,0.47-3.15,0.88-5.66,1.21
			c-1.42,0.19-2.43,0.4-3.02,0.64c-0.59,0.24-1.05,0.58-1.37,1.04c-0.32,0.46-0.48,0.96-0.48,1.52c0,0.85,0.35,1.57,1.05,2.13
			c0.7,0.57,1.72,0.85,3.07,0.85c1.33,0,2.52-0.27,3.56-0.81c1.04-0.54,1.8-1.28,2.29-2.21c0.37-0.72,0.56-1.79,0.56-3.2V132.43z"/>
		<path class="st0" d="M180.19,141.91v-18.89h3.12v2.86c0.8-1.34,1.53-2.22,2.2-2.65c0.67-0.43,1.42-0.64,2.22-0.64
			c1.17,0,2.36,0.34,3.56,1.03l-1.19,2.97c-0.85-0.46-1.69-0.69-2.54-0.69c-0.76,0-1.44,0.21-2.04,0.63c-0.6,0.42-1.03,1-1.29,1.75
			c-0.39,1.14-0.58,2.38-0.58,3.74v9.89H180.19z"/>
		<path class="st0" d="M193.38,141.91v-26.07h3.47v14.87l8.2-7.68h4.49l-7.82,7.01l8.61,11.88h-4.27l-6.76-9.66l-2.45,2.17v7.49
			H193.38z"/>
		<path class="st0" d="M227.07,135.82l3.58,0.41c-0.56,1.93-1.61,3.43-3.14,4.5c-1.53,1.07-3.48,1.6-5.85,1.6
			c-2.99,0-5.36-0.85-7.11-2.55c-1.75-1.7-2.63-4.09-2.63-7.16c0-3.18,0.89-5.64,2.66-7.4c1.77-1.75,4.07-2.63,6.89-2.63
			c2.73,0,4.97,0.86,6.7,2.58c1.73,1.72,2.6,4.14,2.6,7.26c0,0.19-0.01,0.47-0.02,0.85H215.5c0.13,2.08,0.76,3.66,1.91,4.77
			c1.14,1.1,2.57,1.65,4.27,1.65c1.27,0,2.36-0.31,3.25-0.92C225.83,138.16,226.55,137.18,227.07,135.82z M215.69,130.65h11.42
			c-0.15-1.59-0.59-2.78-1.31-3.58c-1.1-1.23-2.54-1.85-4.29-1.85c-1.59,0-2.93,0.49-4.01,1.48
			C216.41,127.68,215.81,129,215.69,130.65z"/>
		<path class="st0" d="M242.57,139.04l0.5,2.83c-0.98,0.19-1.85,0.28-2.62,0.28c-1.26,0-2.23-0.18-2.93-0.55
			c-0.69-0.37-1.18-0.85-1.46-1.45c-0.28-0.6-0.42-1.86-0.42-3.78v-10.87h-2.54v-2.49h2.54v-4.68l3.45-1.92v6.6h3.48v2.49h-3.48
			v11.05c0,0.91,0.06,1.5,0.18,1.76c0.12,0.26,0.32,0.47,0.6,0.62c0.28,0.15,0.67,0.23,1.18,0.23
			C241.44,139.17,241.94,139.13,242.57,139.04z"/>
		<path class="st0" d="M244.58,136.27l3.43-0.5c0.19,1.27,0.73,2.24,1.61,2.92c0.88,0.68,2.11,1.01,3.69,1.01
			c1.59,0,2.77-0.3,3.54-0.9c0.77-0.6,1.16-1.3,1.16-2.11c0-0.72-0.34-1.29-1.02-1.71c-0.48-0.28-1.66-0.65-3.54-1.08
			c-2.54-0.59-4.3-1.11-5.29-1.54c-0.98-0.43-1.73-1.03-2.23-1.8c-0.51-0.76-0.76-1.61-0.76-2.53c0-0.84,0.21-1.62,0.63-2.34
			c0.42-0.72,0.98-1.31,1.7-1.79c0.54-0.37,1.27-0.68,2.2-0.93c0.93-0.25,1.93-0.38,2.99-0.38c1.6,0,3.01,0.21,4.23,0.64
			c1.21,0.43,2.11,1,2.69,1.73c0.58,0.73,0.98,1.7,1.19,2.93l-3.39,0.43c-0.15-0.97-0.6-1.73-1.34-2.28
			c-0.74-0.55-1.78-0.82-3.13-0.82c-1.59,0-2.73,0.24-3.41,0.73c-0.68,0.49-1.02,1.06-1.02,1.71c0,0.42,0.14,0.79,0.42,1.12
			c0.28,0.34,0.73,0.63,1.33,0.85c0.35,0.12,1.37,0.39,3.06,0.82c2.45,0.6,4.16,1.1,5.13,1.49c0.97,0.39,1.73,0.95,2.28,1.68
			c0.55,0.74,0.83,1.65,0.83,2.74c0,1.07-0.34,2.07-1.01,3.01c-0.67,0.94-1.65,1.67-2.92,2.19c-1.27,0.52-2.71,0.77-4.31,0.77
			c-2.66,0-4.68-0.51-6.07-1.53C245.85,139.78,244.96,138.27,244.58,136.27z"/>
	</g>
</g>
</svg>
