<?xml version="1.0" encoding="utf-8"?>
<!-- Generator: Adobe Illustrator 23.0.3, SVG Export Plug-In . SVG Version: 6.00 Build 0)  -->
<svg version="1.1" id="Layer_1" xmlns="http://www.w3.org/2000/svg" xmlns:xlink="http://www.w3.org/1999/xlink" x="0px" y="0px"
	 viewBox="0 0 326.7 58.3" style="enable-background:new 0 0 326.7 58.3;" xml:space="preserve">
<style type="text/css">
	.st0{fill-rule:evenodd;clip-rule:evenodd;fill:#EF3E42;}
</style>
<g>
	<path class="st0" d="M24.7,21.1c-1.3,1.6-2.7,3.4-2.7,6.2c0,5.2,3,9.3,8.4,9.3c7.2,0,8.6-7.3,8.6-10.8c0-0.4,0-0.8-0.1-1.2l0,0
		c1.9-0.3,3.8-1.1,5.6-2.2l0,0c0.1,3.5,0.2,6.9,0.2,8.4c-0.1,4.8,0.3,5.4,1.8,5.4c1.6,0,2.5-3.3,4-6.4c1.8-3.9,3.6-7.8,4.8-7.8
		c2.1,0-1.7,14.4,3.4,14.4c3.6,0,9-14.6,11.4-14.6c1.8,0-1.9,14.6,2.2,14.6c3,0,8-14.8,9.7-14.8c1.8,0-1.9,14.8,3.4,14.8
		c4.7,0,8.6-12.2,9.9-12.2c0.6,0,1.8,1.6,2.6,3.9l0,0.1c-1.6,2-2.7,4-2.7,5.5c0,1.9,1.5,2.8,2.9,2.8c2.2,0,4.3-2.3,4.3-5.7
		c0-0.7-0.1-2.7-0.9-4.7l0,0c3.3-3,7.5-5.7,10-6.1c-1.5,1.7-4.1,3.1-4.1,7.8c0,5.1,3.9,9,8.9,9c7,0,8.5-7.5,8.5-10.4
		c0-1.1-0.1-2-0.4-2.9l0,0c2.4-1.1,4.2-2.7,4.8-2.7c1.5,0,0.9,4.4,0.9,9c0,3.4-0.5,7,2,7c1.9,0,2.9-3.8,4.8-7.2
		c1.9-3.3,3.9-7.8,4.7-7.8c1,0,0.6,7,0.6,8.3c0,1.7-0.3,7.1,3.2,7.1c2.4,0,6.9-6.7,6.9-7.6c0-0.5,0-0.6-0.4-0.6
		c-0.4,0-3.1,4.5-4.2,4.5c-1.6,0-0.6-5.8-0.6-10c0-1.9,0.3-6-2.9-6c-3.9,0-7.8,11.1-9,11.1c-1.1,0,1.7-10.7-3.3-10.7
		c-2,0-5,2.7-8.2,4.1l0,0c-1.2-2.4-3.3-3.6-5.4-3.6c-1.5,0-2.6,1.1-2.6,2.3c0,1.6,1.3,3.8,4.3,3.8c0.8,0,1.6-0.1,2.4-0.4l0,0
		c0.3,0.9,0.4,1.8,0.4,2.5c0,2.8-1.9,6.3-5.4,6.3c-2.8,0-5.3-3-5.3-6.6c0-5.9,3.6-6.9,3.6-8.1c0-0.5-0.4-0.6-1.2-0.6
		c-4,0-9.5,3.3-13.6,7.1l0,0c-0.1-0.3-0.3-0.5-0.5-0.7c-4-5.7-2.4-7-3.5-7c-1.3,0-7.1,15.8-9.4,15.8c-3,0,2.5-15.3-3.4-15.3
		c-4.6,0-7.3,12-9,12c-1.7,0,1.7-12-3.3-12C68.4,17.7,63,32,60.7,32c-2,0,1.8-14.1-2.8-14.1C53.6,17.9,50.1,29,49,29
		c-0.9,0-0.7-3.5-0.7-9.8l0,0C52,15.3,54.4,10,54.4,5c0-2.3-1.1-4.2-3.3-4.2c-4.3,0-6.7,6.7-6.7,14.2c0,1.6,0,3.7,0.1,5.8l0,0
		c-2,1.5-3.8,2.2-4.9,2.2c-0.3,0-0.6,0-1,0l0,0c-1-3.2-3.6-4.6-5.5-4.6c-1.5,0-2.7,1.4-2.7,2.6c0,1.8,1.6,3.6,6.5,3.7l0,0
		c0.1,0.6,0.2,1.3,0.2,1.8c0,2.8-2,6.5-5.6,6.5c-3.1,0-5.4-3.5-5.4-7.4c0-5,3.3-6.5,3.3-6.9c0-0.2-0.1-0.4-0.2-0.4
		c-3.3,0-8.7,3.6-13.7,8.9l0,0c-0.6-4.4-1.3-9.5-1.3-15.5c0-8.7,1.6-9.9,1.6-11c0-0.5-0.2-0.7-1-0.7C12.8,0,0,5.8,0,18.5
		c0,9.8,5.4,14.2,8.9,16.8v0c-3.7,5.5-6.4,11.6-6.4,17c0,3,1.2,6,3.4,6c3.5,0,10.3-7.5,10.3-22.8c0-2-0.3-4.3-0.6-6.9l0,0
		C18.6,25.4,21.9,22.8,24.7,21.1L24.7,21.1z M296.2,22.6L296.2,22.6c-0.7-1.3-1.6-2.3-2.7-2.3c-0.5,0-1,0.5-1,0.9
		c0,0.9,0.9,1.5,2.2,1.5C295.2,22.8,295.7,22.7,296.2,22.6L296.2,22.6z M183.9,34.3c0.7-0.9,1.3-1.8,2-2.7l0-0.1
		c-0.9-4.5-1.8-8.9-1.8-12.1c0-9.2,4-15.7,4-17.1c0-0.9,0.2-1.1-0.5-1.1c-0.5,0-9.6,3.9-9.6,17.6C178.1,24.4,180.7,31.2,183.9,34.3
		L183.9,34.3z M183.2,35.4c-1.3-1-2.5-2.7-4.3-3.9c-1.5-1.1-5.6,0.1-9.1,0.7l0,0c-0.3,2-1,4-1.7,4c-0.5,0-0.7-1.6-1.2-3.5l0,0
		c-1.6,0.3-2.9,0.5-3.7,0.5c-2.4,0-8-1.1-8-4.8c0-2.1,2.3-2.9,4.6-2.9c2.5,0,6.6,1.8,7.6,3.8c0.3-3.5-2.3-5.5-2.3-6
		c0-0.6,2.8-1.6,3-1.6c1.1,0,2,5,2,8.5c0,0.2,0,0.3,0,0.5l0,0c2.8-0.6,5.8-1.1,7.7-0.9c-1.9-2.6-3.3-6.3-3.3-11.3
		C174.4,5.8,187.1,0,189.1,0c0.9,0,1.1,0.2,1.1,0.7c0,1.1-1.7,2.3-1.7,11c0,6,0.7,11.2,1.3,15.5h0c5.1-5.3,10.4-8.9,13.7-8.9
		c0.1,0,0.2,0.2,0.2,0.4c0,0.4-3.3,1.9-3.3,6.9c0,3.9,2.4,7.4,5.5,7.4c3.5,0,5.6-3.7,5.6-6.5c0-0.5-0.1-1.2-0.2-1.8l0,0
		c-4.9-0.1-6.5-2-6.5-3.7c0-1.2,1.2-2.6,2.8-2.6c1.9,0,4.5,1.4,5.5,4.6c0.3,0,0.7,0,1,0c1.1,0,2.9-0.8,4.9-2.2l0,0
		c0-2.1-0.1-4.2-0.1-5.8c0-7.4,2.5-14.2,6.7-14.2c2.2,0,3.3,1.8,3.3,4.2c0,5-2.5,10.3-6.1,14.1l0,0c0,6.3-0.2,9.8,0.7,9.8
		c1.1,0,4.5-11.1,8.9-11.1c4.6,0,0.8,14.1,2.8,14.1c2.3,0,7.7-14.3,11.3-14.3c5,0,1.6,12,3.3,12c1.8,0,4.4-12,9-12
		c5.9,0,0.4,15.3,3.4,15.3c2.3,0,8.1-15.8,9.4-15.8c1,0-0.5,1.2,3.5,7c0.2,0.2,0.3,0.5,0.5,0.7l0,0c4.1-3.8,9.7-7.1,13.7-7.1
		c0.7,0,1.1,0.1,1.1,0.6c0,1.2-3.6,2.2-3.6,8.1c0,3.6,2.5,6.6,5.3,6.6c3.6,0,5.4-3.6,5.4-6.3c0-0.7-0.1-1.6-0.4-2.5l0,0
		c-0.8,0.2-1.5,0.3-2.4,0.3c-3.1,0-4.4-2.2-4.4-3.8c0-1.2,1.1-2.3,2.6-2.3c2.1,0,4.2,1.2,5.4,3.5l0,0c3.2-1.4,6.2-4.1,8.2-4.1
		c4.9,0,2.1,10.7,3.3,10.7c1.2,0,5-11.1,9-11.1c3.1,0,2.9,4.2,2.9,6c0,4.3-1,10,0.6,10c1.1,0,3.8-4.5,4.2-4.5c0.4,0,0.4,0.1,0.4,0.6
		c0,0.9-4.5,7.6-6.9,7.6c-3.5,0-3.2-5.4-3.2-7.1c0-1.3,0.4-8.3-0.6-8.3c-0.8,0-2.8,4.5-4.7,7.8c-1.9,3.4-2.9,7.2-4.8,7.2
		c-2.5,0-2-3.5-2-7c0-4.6,0.6-9-0.9-9c-0.7,0-2.5,1.6-4.8,2.7l0,0c0.2,0.8,0.4,1.8,0.4,2.8c0,2.9-1.5,10.4-8.5,10.4
		c-5,0-8.9-3.9-8.9-9c0-4.7,2.6-6.2,4.2-7.8c-2.6,0.4-6.8,3.1-10.1,6.1l0,0c0.8,2,0.8,4,0.8,4.7c0,3.4-2.1,5.7-4.3,5.7
		c-1.5,0-2.9-0.9-2.9-2.8c0-1.5,1-3.4,2.7-5.5l0,0c-0.8-2.3-2-3.9-2.6-3.9c-1.3,0-5.1,12.2-9.9,12.2c-5.2,0-1.6-14.8-3.4-14.8
		c-1.7,0-6.7,14.8-9.7,14.8c-4.1,0-0.4-14.6-2.2-14.6c-2.3,0-7.7,14.6-11.4,14.6c-5.1,0-1.3-14.4-3.4-14.4c-1.1,0-3,3.9-4.8,7.8
		c-1.5,3.1-2.4,6.4-4,6.4c-1.5,0-1.8-0.6-1.8-5.4c0-1.5-0.1-4.9-0.2-8.4l0,0c-1.8,1.2-3.7,2-5.6,2.2l0,0c0,0.4,0.1,0.8,0.1,1.2
		c0,3.5-1.4,10.8-8.6,10.8c-5.4,0-8.4-4.1-8.4-9.3c0-2.8,1.3-4.7,2.6-6.2c-2.8,1.7-6.1,4.3-9.1,7.5l0,0c0.3,2.6,0.6,4.9,0.6,6.9
		c0,15.3-6.7,22.8-10.3,22.8c-2.2,0-3.4-3-3.4-6C176.8,47,179.5,40.9,183.2,35.4L183.2,35.4z M272.6,29.6L272.6,29.6
		c-0.9,1.3-1.4,2.5-1.4,3.5c0,1,0.2,1.7,0.8,1.7c0.6,0,1.1-0.7,1.1-1.7C273.1,31.9,272.9,30.7,272.6,29.6L272.6,29.6z M222.7,17
		L222.7,17c2.2-2.8,3.9-6.6,3.9-11.2c0-2.2-0.2-3.4-1.3-3.4C222.4,2.4,222.7,13.2,222.7,17L222.7,17z M210.7,23.1L210.7,23.1
		c-0.5-1.3-1.4-2.4-2.6-2.4c-0.5,0-0.8,0.3-0.8,0.7C207.2,22.6,208.8,23,210.7,23.1L210.7,23.1z M186.3,32.9L186.3,32.9
		c-4,5.3-7,11.4-7,17.2c0,1.9,0,4.8,2.6,4.8c3.3,0,5.6-4.9,5.6-11.7C187.5,40.1,186.9,36.5,186.3,32.9L186.3,32.9z M166.3,31.4
		L166.3,31.4c-0.9-2.2-2.5-4.3-5.7-4.3c-0.9,0-1.3,0.8-1.3,1.7c0,1.7,2.7,2.8,5.2,2.8C165,31.6,165.6,31.5,166.3,31.4L166.3,31.4z
		 M121.9,22.6c-0.5,0.1-1,0.2-1.5,0.2c-1.4,0-2.2-0.6-2.2-1.5c0-0.4,0.5-0.9,1-0.9C120.3,20.3,121.2,21.3,121.9,22.6L121.9,22.6
		L121.9,22.6z M98.3,29.6c0.3,1.1,0.5,2.3,0.5,3.5c0,1-0.5,1.7-1.1,1.7c-0.6,0-0.8-0.6-0.8-1.7C96.8,32.1,97.4,30.9,98.3,29.6
		L98.3,29.6L98.3,29.6z M48.4,17c0-3.8-0.3-14.6,2.6-14.6c1.1,0,1.3,1.2,1.3,3.4C52.3,10.4,50.6,14.2,48.4,17L48.4,17L48.4,17z
		 M36.3,23.1c-1.8-0.1-3.5-0.5-3.5-1.6c0-0.4,0.3-0.7,0.8-0.7C34.9,20.7,35.8,21.7,36.3,23.1L36.3,23.1L36.3,23.1z M11.7,31.6
		c-0.7,0.9-1.4,1.8-2.1,2.7l0,0c-3.2-3.2-5.8-9.9-5.8-15.5c0-13.8,9.1-17.6,9.6-17.6c0.7,0,0.5,0.2,0.5,1.1c0,1.4-3.9,7.9-3.9,17.1
		C9.9,22.6,10.8,27,11.7,31.6L11.7,31.6L11.7,31.6z M11.9,32.9c0.6,3.6,1.2,7.2,1.2,10.3c0,6.8-2.3,11.7-5.6,11.7
		c-2.6,0-2.6-2.9-2.6-4.8C4.9,44.3,7.9,38.2,11.9,32.9L11.9,32.9L11.9,32.9z"/>
</g>
</svg>
