<?xml version="1.0" encoding="utf-8"?>
<!-- Generator: Adobe Illustrator 25.2.3, SVG Export Plug-In . SVG Version: 6.00 Build 0)  -->
<svg version="1.1" id="Layer_1" xmlns="http://www.w3.org/2000/svg" xmlns:xlink="http://www.w3.org/1999/xlink" x="0px" y="0px"
	 viewBox="0 0 1052.4 214.06" style="enable-background:new 0 0 1052.4 214.06;" xml:space="preserve">
<style type="text/css">
	.Arched_x0020_Green{fill:url(#SVGID_1_);stroke:#FFFFFF;stroke-width:0.25;stroke-miterlimit:1;}
	.st0{fill:#54301A;}
</style>
<linearGradient id="SVGID_1_" gradientUnits="userSpaceOnUse" x1="0" y1="214.0596" x2="0.7071" y2="213.3525">
	<stop  offset="0" style="stop-color:#20AC4B"/>
	<stop  offset="0.9831" style="stop-color:#19361A"/>
</linearGradient>
<g>
	<path class="st0" d="M106.14,0H44.25V5.3h19.71V108c0,30.86-8.56,39.56-27.66,39.56c-12,0-13.98-9.13-13.98-13.85
		c0-11.23-0.62-18.09-10.86-18.09C1.19,115.62,0,126.01,0,129.18c0,14.14,6.29,24.98,34.37,24.98c33.5,0,51.41-11.32,51.41-48.87
		V5.26l20.35,0.03V0z"/>
	<path class="st0" d="M114.46,130.31c-3.46,0-6.31,1.1-8.61,3.47c-2.4,2.38-3.58,5.2-3.58,8.61c0,3.4,1.18,6.2,3.61,8.45
		c2.39,2.35,5.24,3.51,8.58,3.51c3.39,0,6.24-1.16,8.7-3.51c2.36-2.25,3.55-5.05,3.55-8.45c0-3.45-1.19-6.29-3.55-8.61
		C120.81,131.4,117.96,130.31,114.46,130.31"/>
	<path class="st0" d="M251.91,130.31c-3.4,0-6.27,1.1-8.6,3.47c-2.37,2.38-3.5,5.2-3.5,8.61c0,3.4,1.13,6.2,3.5,8.45
		c2.51,2.35,5.28,3.51,8.6,3.51c3.45,0,6.33-1.16,8.76-3.51c2.39-2.25,3.57-5.05,3.57-8.45c0-3.45-1.18-6.29-3.56-8.61
		C258.27,131.4,255.39,130.31,251.91,130.31"/>
	<path class="st0" d="M200.51,81.42h-12.39V5.97l11.21-0.16c36.17,0,44.06,14.87,44.06,38.98
		C243.39,69.05,229.18,81.42,200.51,81.42 M208.77,0l-60.6,0.02V5.3h17.81v117.16c0,9.2-0.57,11.6-1.6,14.27
		c-1.1,2.97-3.59,5.33-7.26,6.84c-2.75,1.17-6.91,1.78-12.44,1.93v4.85h65.25v-4.8c-5.55-0.15-9.75-0.77-12.52-1.75
		c-3.88-1.54-6.43-3.8-7.65-6.88c-1.07-2.63-1.64-4.96-1.64-9.58V87.2l16.15-0.05c46.89,0,60.05-18.5,60.05-43.76
		C264.32,17.88,256.24,0,208.77,0"/>
	<path class="st0" d="M457.61,136.34c-0.86-2.7-1.26-6.01-1.26-10.24V5.3c0,0,15.9-0.1,15.72-0.15c-0.19,0,0-4.79,0-4.79h-38.49
		c-0.54,1.39-45.94,114.52-45.94,114.52c-0.2,0.41-0.61,0.66-1.03,0.66c-0.52,0-0.93-0.25-1.1-0.66c0,0-48.37-113.13-48.94-114.52
		h-42.69V5.2h18.53v116.36c0,0-0.4,10.57-0.4,10.6c-0.29,2.79-1.16,5.28-2.54,7.28c-1.44,2.16-3.78,3.8-6.83,4.88
		c-2.02,0.66-5.01,1.1-8.75,1.18v4.85h42.36v-4.79c-3.6-0.15-5.16-0.51-7.28-1.21c-3.11-1.02-5.43-2.57-6.99-4.77
		c-1.37-2.06-2.27-4.52-2.58-7.42c0,0-0.47-10.59-0.47-10.6V21.06h2.49c0,0,54.78,127.88,55.35,129.29h4.57L433.2,22.47h1.31v103.62
		c0,4.44-0.46,7.87-1.31,10.52c-1.02,3.1-3.23,5.44-6.43,7.01c-2.38,1.07-6.01,1.69-10.78,1.87v4.85h59.12v-4.85
		c-4.72-0.24-8.37-0.87-10.86-1.97C460.82,141.84,458.59,139.43,457.61,136.34"/>
	<path class="st0" d="M536.74,148.12c-23.72,0-27.38-11.87-27.38-49.84c0-29.37,1.83-51.39,27.38-51.39
		c27.6,0,27.73,22.8,27.73,49.53C564.47,134.85,557.91,148.12,536.74,148.12 M537.16,40.24c-31.56,0-51.35,20.91-51.35,57.46
		c0,53.52,41.65,57.06,50.64,57.06c17.81,0,51.56-11.11,51.56-58.07C588,60.11,566.41,40.24,537.16,40.24"/>
	<path class="st0" d="M670.54,41.87c-18.87,0-24.75,11.14-29.95,22.5c0,0-1.36-0.1-1.5-0.05c-0.15,0.05-2.7-16.52-3.66-21.39
		c-7.37,0-36.54-0.08-36.54-0.08v5.6h19.77c0,0-0.12,16.78-0.12,22.83v51.39c0,7.36-0.81,12.49-2.39,15.6
		c-2.03,3.67-6.56,5.5-14.06,5.5h-3.2v6.56h61.2v-6.56h-3.29c-8.04,0-11.5-1.74-13.66-5.23c-1.95-3.06-2.82-8.25-2.82-15.87V84.14
		c0-13,9.78-27.78,21.52-27.78c12.26,0,11.97,18.88,25.86,11.28C695.26,63.51,693.99,41.87,670.54,41.87"/>
	<path class="st0" d="M882.32,127.98c0,0.38-0.06,0.64-0.37,0.85l-0.47,0.44c-10.49,9.51-18.49,12.9-24.35,12.9
		c-15,0-17.26-12.49-17.26-18.75c0-20.01,27.43-30.03,42.45-30.03V127.98z M914.38,139.35c-6.54,0-8.62-3.65-9.11-9.7
		c0,0-0.38-13.75-0.38-13.77V70.87c0-9.72-1.56-16.27-7.3-21.98c-5.64-5.72-16.55-8.66-32.33-8.66c-15.15,0-26.4,2.81-33.55,8.3
		c-7,5.31-9.72,10.23-9.72,17.27c0,3.27,0.88,5.57,2.72,7.12c1.84,1.63,4.01,2.39,6.66,2.39c6.08,0,9.5-3.1,10.78-11.1
		c0.93-5.93,2.22-9.32,5.15-12.42c3.12-3.26,8.01-4.9,14.6-4.9c7.67,0,13.12,2.06,16.15,6.19c2.8,3.87,4.29,9.16,4.29,15.68v18.02
		c-19.62,1.77-65.93,5.5-63.87,40.77c0.77,13.81,12.94,25.93,28.66,25.93c17.4,0,28.39-9.9,35.87-17.83
		c1.19,7.51,8.16,16.48,20.83,16.48c14.25,0,22.76-6.99,23.75-24.46h-3.65C922.95,135.27,918.24,139.35,914.38,139.35"/>
	<path class="st0" d="M1039.88,138.58c-2.1-3.08-3.83-8.26-3.83-15.96l0.29-48.69c0-7.05-0.95-13.09-3.59-18.02
		c-2.67-4.82-6.43-8.45-11.09-10.86c-4.74-2.38-10.19-3.56-16.16-3.56c-21.51,0-30.13,13.13-34.84,20.85l-1.96-0.09l-3.83-19.51
		l-33.29-0.07v5.6c6.25,0.27,16.67,0.38,16.67,0.38v73.92c0,5.73-0.45,9.87-1.29,12.6c-0.88,3.27-3.01,5.57-6.15,6.88
		c-2.02,0.87-5.18,1.34-9.22,1.52v6.76h52.91v-6.81c-5.32-0.43-8.92-1.87-10.82-4.59c-2.07-2.91-3.01-7.9-3.01-15.21V95.35
		c0-11.87-0.07-23.34,3.99-30.43c4.37-7.74,12.36-12,21.34-12c8.06,0,12.28,2.57,14.94,7.7c2.18,4.15,3.59,16.54,3.59,25.05
		l-0.27,35.18c0,5.87,0.74,10.19,0.27,12.98c-0.61,3.22-2.07,5.75-4.62,7.42c-1.84,1.29-4.75,1.94-8.48,2.22v6.88h50.99v-6.76
		C1045.95,143.15,1041.74,141.59,1039.88,138.58"/>
	<path class="st0" d="M747.7,114.21c-13.92,0-21.89-5.06-21.89-33.38c0-19.99,6.97-34.85,21.89-34.85
		c17.36,0,22.44,13.53,22.44,34.43C770.13,110.3,760.73,114.21,747.7,114.21 M800.33,35.89c-3.16,1-5.25,3.8-6.36,8.56
		c-0.83,4.38-2.49,6.9-4.7,7.62c-2.22,0.64-4.69,0.45-7.64-0.56c-5.47-5.08-16-11.28-34.51-11.28c-29.79,0-42.94,21.25-42.94,40.61
		c0,22.67,8.72,33.65,27.89,37.69c1.16,0.25,1.16,1.54,0.15,1.75c-16.35,3.31-30.84,8.1-30.84,23.65c0,9.37,5.39,14.5,12.26,17.31
		c7.6,3.08,18.28,4.69,31.68,4.93c11.73,0.14,20.03,0.55,25.45,1.19c5.83,0.67,10.47,2.34,13.9,4.83c3.52,2.71,5.38,6.74,5.38,12
		c0,7.19-3.83,12.98-11.5,17.25c-7.13,3.99-16.88,6.07-29.02,6.07c-10.4,0-18.91-1.14-26.59-5.92c-5.69-3.52-6.8-10.46-5.61-15.44
		c1.06-5.05-0.75-10.37-6.6-11.36c-3.23-0.54-7.28,1.21-9.14,4.13c-1.75,2.72-2.38,5.95-2.38,9.82c0,12.78,9.88,18.77,17.42,20.98
		c11.52,3.51,19.16,4.35,29.74,4.35c14.03,0,25.43-2.15,33.57-6.27c8.15-4.11,13.82-9.15,16.86-14.93c3.2-5.83,4.73-11.78,4.73-17.5
		c0-7.72-1.7-14.03-5-18.67c-10.64-14.63-25.76-12.76-59.77-14.38c-16.35,0-19.5-2.95-19.5-7.99c0-7.37,6.06-10.27,29.73-13.91
		c23.3-3.62,45.02-12.18,45.02-40.63c0-8.19-1.92-15.22-4.22-20.13c4.82,1.07,9.31,1.07,13.41-0.28c4.7-1.46,7.76-3.82,9.53-7.11
		c1.77-3.31,2.17-6.42,1.2-9.47C809.92,36.4,806.11,34.11,800.33,35.89"/>
</g>
</svg>
