<?xml version="1.0" encoding="utf-8"?>
<!-- Generator: Adobe Illustrator 23.0.3, SVG Export Plug-In . SVG Version: 6.00 Build 0)  -->
<svg version="1.1" id="Layer_1" xmlns="http://www.w3.org/2000/svg" xmlns:xlink="http://www.w3.org/1999/xlink" x="0px" y="0px"
	 viewBox="0 0 459.1 151.5" style="enable-background:new 0 0 459.1 151.5;" xml:space="preserve">
<style type="text/css">
	.st0{fill:#696A6C;}
	.st1{fill:#522E14;}
</style>
<g>
	<g>
		<g>
			<g>
				<path class="st0" d="M7.9,141H2.8l12.3-37.8h5.7L32.9,141h-6.1l-2.2-7.5H10.2L7.9,141z M19.1,115.2l-1.4-7.5l-1.7,7.5l-4.5,14.4
					h11.9L19.1,115.2z"/>
				<path class="st0" d="M45.9,141.8c-2.1,0-3.9-0.2-5.4-0.6c-1.5-0.4-2.6-0.9-3.5-1.3l0.6-4c1,0.4,2.2,0.8,3.5,1.2
					c1.3,0.4,2.7,0.6,4.2,0.6c1.9,0,3.3-0.3,4.3-1c1-0.7,1.5-1.9,1.5-3.7c0-0.9-0.1-1.6-0.3-2.1c-0.2-0.5-0.5-1-1.1-1.3
					c-0.5-0.4-1.2-0.7-2.1-1c-0.9-0.3-2-0.6-3.5-1c-1.1-0.3-2.1-0.7-3-1.1c-0.9-0.4-1.7-1-2.3-1.6c-0.7-0.7-1.2-1.5-1.6-2.5
					c-0.4-1-0.5-2.2-0.5-3.6c0-3.1,0.9-5.3,2.7-6.8c1.8-1.5,4.3-2.2,7.3-2.2c1.9,0,3.5,0.2,4.9,0.5c1.4,0.3,2.5,0.8,3.4,1.2
					l-0.8,3.9c-1.1-0.4-2.2-0.7-3.3-1c-1.1-0.2-2.4-0.4-3.8-0.4c-1.8,0-3.2,0.3-4.1,0.9c-0.9,0.6-1.3,1.7-1.3,3.5
					c0,0.8,0.1,1.5,0.4,1.9c0.2,0.5,0.6,0.9,1.1,1.2c0.5,0.3,1.2,0.6,2,0.9c0.8,0.3,1.8,0.5,3,0.8c1.3,0.4,2.5,0.8,3.5,1.2
					c1,0.5,1.8,1,2.5,1.8c0.7,0.7,1.2,1.6,1.5,2.6c0.4,1,0.5,2.2,0.5,3.7c0,2.7-0.9,4.8-2.6,6.5C52,141,49.4,141.8,45.9,141.8"/>
				<path class="st0" d="M69.7,141.8c-2.1,0-3.9-0.2-5.4-0.6c-1.5-0.4-2.6-0.9-3.5-1.3l0.6-4c1,0.4,2.2,0.8,3.5,1.2
					c1.3,0.4,2.7,0.6,4.2,0.6c1.9,0,3.3-0.3,4.3-1c1-0.7,1.5-1.9,1.5-3.7c0-0.9-0.1-1.6-0.3-2.1c-0.2-0.5-0.5-1-1-1.3
					c-0.5-0.4-1.2-0.7-2.1-1c-0.9-0.3-2-0.6-3.5-1c-1.1-0.3-2.1-0.7-3-1.1c-0.9-0.4-1.7-1-2.3-1.6c-0.7-0.7-1.2-1.5-1.6-2.5
					c-0.4-1-0.5-2.2-0.5-3.6c0-3.1,0.9-5.3,2.7-6.8c1.8-1.5,4.2-2.2,7.3-2.2c1.9,0,3.5,0.2,4.9,0.5c1.4,0.3,2.5,0.8,3.4,1.2
					l-0.8,3.9c-1.1-0.4-2.2-0.7-3.3-1c-1.1-0.2-2.3-0.4-3.8-0.4c-1.8,0-3.2,0.3-4.1,0.9c-0.9,0.6-1.3,1.7-1.3,3.5
					c0,0.8,0.1,1.5,0.4,1.9c0.2,0.5,0.6,0.9,1.1,1.2c0.5,0.3,1.2,0.6,2,0.9c0.8,0.3,1.8,0.5,3,0.8c1.3,0.4,2.5,0.8,3.5,1.2
					c1,0.5,1.8,1,2.5,1.8c0.7,0.7,1.2,1.6,1.6,2.6c0.3,1,0.5,2.2,0.5,3.7c0,2.7-0.9,4.8-2.6,6.5C75.8,141,73.2,141.8,69.7,141.8"/>
				<path class="st0" d="M90.8,132.2c0.3,1.3,0.7,2.3,1.3,3.1c0.6,0.8,1.4,1.3,2.3,1.7c0.9,0.3,2.1,0.5,3.3,0.5
					c1.4,0,2.8-0.2,4.1-0.6c1.3-0.4,2.6-0.9,3.9-1.4l0.9,4c-0.9,0.5-2.2,1-3.8,1.5c-1.7,0.5-3.5,0.8-5.4,0.8c-4.2,0-7.4-1.3-9.5-4
					c-2.1-2.7-3.2-6.7-3.2-12c0-5.4,1.1-9.4,3.3-12c2.2-2.6,5.1-3.9,8.8-3.9c3.8,0,6.6,1.3,8.3,3.8c1.8,2.5,2.6,6,2.6,10.4v3.3H90.3
					C90.3,129.3,90.5,130.9,90.8,132.2 M102.6,123.6v-0.9c0-3.2-0.5-5.5-1.4-6.8c-0.9-1.3-2.4-2-4.3-2c-1,0-1.8,0.1-2.6,0.4
					c-0.8,0.3-1.5,0.8-2,1.5c-0.5,0.7-1,1.7-1.3,3c-0.3,1.3-0.5,2.8-0.6,4.8H102.6z"/>
				<path class="st0" d="M121.9,141.6c-2.3,0-4-0.6-5.1-1.9c-1-1.3-1.5-3.2-1.5-5.9v-19.3h-3.6v-3.9h4l2.6-8.2h2.5v8.2h6.7v3.9h-6.7
					V135c0,1,0.2,1.7,0.6,2.1c0.4,0.4,1.1,0.6,2.2,0.6h4.4l0.3,2.9c-0.8,0.3-1.7,0.6-2.7,0.8C124.4,141.5,123.2,141.6,121.9,141.6"
					/>
				<polygon class="st0" points="147.9,103.2 155.6,103.2 162.6,128.3 164.2,138.7 165.8,128.3 173.1,103.2 181.1,103.2 181.1,141 
					175.4,141 175.4,122.2 176.4,105.5 173.7,117.6 166.9,141 160.8,141 154.3,118 151.8,105.5 152.8,122.2 152.8,141 147.9,141 
									"/>
				<path class="st0" d="M204.4,119.9c0-0.8-0.1-1.5-0.2-2.2c-0.2-0.7-0.4-1.2-0.8-1.7c-0.4-0.5-0.9-0.8-1.5-1.1
					c-0.6-0.3-1.4-0.4-2.4-0.4c-1.4,0-2.8,0.2-4.3,0.6c-1.5,0.4-3.1,0.8-4.7,1.4l-0.8-4.1c1.4-0.6,2.9-1.1,4.6-1.6
					c1.7-0.5,3.6-0.7,5.7-0.7c3.5,0,6,0.9,7.6,2.8c1.5,1.8,2.3,4.8,2.3,9V136c0,0.8,0.1,1.4,0.4,1.6c0.3,0.3,0.8,0.4,1.4,0.4h1.2
					l0.2,2.6c-0.3,0.2-0.8,0.4-1.3,0.7c-0.6,0.2-1.3,0.3-2.1,0.3c-0.5,0-0.9,0-1.4-0.1c-0.5-0.1-0.9-0.2-1.3-0.4l-2.2-3.3l-2.6,3
					c-0.6,0.3-1.3,0.5-2.2,0.7c-0.9,0.2-1.8,0.3-2.9,0.3c-1.2,0-2.3-0.2-3.3-0.5c-1.1-0.3-2-0.8-2.8-1.5c-0.8-0.7-1.4-1.6-1.9-2.7
					c-0.5-1.1-0.7-2.5-0.7-4.1c0-1.6,0.2-2.9,0.6-4c0.4-1.1,1.1-2,2-2.8c0.9-0.7,2-1.3,3.4-1.7c1.4-0.4,3.1-0.7,5-1l5-0.6V119.9z
					 M204.4,126.3l-4.7,0.6c-2.2,0.2-3.8,0.8-4.8,1.6c-1,0.8-1.5,2.2-1.5,4.2v0.5c0,1.7,0.4,3,1.3,3.8c0.9,0.8,2.2,1.2,3.9,1.2
					c1.5,0,2.7-0.3,3.5-0.8c0.9-0.5,1.6-1.1,2.1-1.7V126.3z"/>
				<path class="st0" d="M226.9,111.2c0.7-0.3,1.5-0.6,2.4-0.8c0.9-0.3,2-0.4,3.2-0.4c2.6,0,4.6,0.7,6,2.2c1.5,1.5,2.2,4,2.2,7.4
					V141h-5.4v-22.1c0-1.8-0.4-3-1.2-3.6c-0.8-0.6-1.9-1-3.3-1c-1.4,0-2.5,0.2-3.5,0.6c-1,0.4-2,1-3.1,1.7V141h-5.4v-30.4h3.3l2,3.9
					L226.9,111.2z"/>
				<path class="st0" d="M263.3,119.9c0-0.8-0.1-1.5-0.2-2.2c-0.2-0.7-0.4-1.2-0.8-1.7c-0.4-0.5-0.9-0.8-1.5-1.1
					c-0.6-0.3-1.4-0.4-2.4-0.4c-1.4,0-2.8,0.2-4.3,0.6c-1.5,0.4-3.1,0.8-4.7,1.4l-0.8-4.1c1.4-0.6,2.9-1.1,4.6-1.6
					c1.7-0.5,3.6-0.7,5.7-0.7c3.5,0,6,0.9,7.6,2.8c1.5,1.8,2.3,4.8,2.3,9V136c0,0.8,0.2,1.4,0.4,1.6c0.3,0.3,0.8,0.4,1.4,0.4h1.2
					l0.2,2.6c-0.3,0.2-0.7,0.4-1.3,0.7c-0.6,0.2-1.3,0.3-2.1,0.3c-0.5,0-0.9,0-1.4-0.1c-0.5-0.1-0.9-0.2-1.4-0.4l-2.2-3.3l-2.6,3
					c-0.6,0.3-1.3,0.5-2.2,0.7c-0.9,0.2-1.8,0.3-2.9,0.3c-1.2,0-2.3-0.1-3.3-0.5c-1.1-0.3-2-0.8-2.8-1.5c-0.8-0.7-1.4-1.6-1.9-2.7
					c-0.5-1.1-0.7-2.5-0.7-4.1c0-1.6,0.2-2.9,0.6-4c0.4-1.1,1.1-2,2-2.8c0.9-0.7,2-1.3,3.4-1.7c1.4-0.4,3.1-0.7,5-1l5-0.6V119.9z
					 M263.3,126.3l-4.7,0.6c-2.2,0.2-3.8,0.8-4.8,1.6c-1,0.8-1.5,2.2-1.5,4.2v0.5c0,1.7,0.4,3,1.3,3.8c0.8,0.8,2.1,1.2,3.9,1.2
					c1.5,0,2.6-0.3,3.5-0.8c0.9-0.5,1.6-1.1,2.2-1.7V126.3z"/>
				<path class="st0" d="M301.2,109.4v5h-6.9l3.8,2.4c0.1,0.4,0.2,0.8,0.3,1.3c0.1,0.4,0.1,1,0.1,1.6c0,1.9-0.3,3.4-0.9,4.7
					c-0.6,1.3-1.4,2.3-2.4,3.1c-1,0.8-2.2,1.3-3.5,1.7c-1.3,0.3-2.8,0.5-4.2,0.5c-2,0-3.7-0.3-5.1-0.9c-0.4,0.3-0.8,0.7-1.1,1.1
					c-0.3,0.5-0.4,1-0.4,1.6c0,2,1.3,2.9,3.8,2.9h6.7c3,0,5.3,0.6,6.9,1.9c1.6,1.2,2.4,3.1,2.4,5.7c0,1.7-0.4,3.1-1.1,4.3
					c-0.7,1.2-1.7,2.2-2.9,3c-1.2,0.8-2.7,1.3-4.3,1.7c-1.6,0.4-3.4,0.5-5.3,0.5c-3.8,0-6.7-0.6-8.6-2c-1.9-1.3-2.9-3.2-2.9-5.5
					c0-1.1,0.2-2,0.5-2.7c0.3-0.7,0.7-1.2,1-1.5l3.4-1.7c-1.1-0.3-2-0.9-2.7-1.7c-0.7-0.8-1.1-1.9-1.1-3.4c0-1,0.1-1.8,0.4-2.4
					c0.3-0.6,0.6-1.1,0.8-1.4l3.3-1.7l-3.5-2.2c-0.4-0.7-0.7-1.6-1-2.5c-0.2-0.9-0.4-1.9-0.4-3c0-1.9,0.3-3.4,1-4.7
					c0.7-1.3,1.5-2.3,2.6-3c1.1-0.8,2.3-1.3,3.7-1.7c1.3-0.3,2.7-0.5,4-0.5c2.6,0,4.9,0.6,6.8,1.8L301.2,109.4z M280.7,140.7
					c-0.4,0.7-0.6,1.6-0.6,2.6c0,1.5,0.6,2.6,1.7,3.2c1.1,0.7,2.9,1.1,5.3,1.1c2.8,0,4.9-0.5,6.3-1.5c1.4-1,2.1-2.2,2.1-3.5v-0.4
					c0-1-0.3-1.8-0.9-2.4c-0.6-0.7-1.7-1-3.4-1h-8.8C281.6,139.3,281.1,139.9,280.7,140.7 M287.4,126c2,0,3.4-0.5,4.4-1.4
					c0.9-0.9,1.4-2.4,1.4-4.4v-0.8c0-1.8-0.5-3.2-1.4-4.2c-0.9-0.9-2.4-1.4-4.4-1.4c-2,0-3.5,0.5-4.5,1.4c-0.9,0.9-1.4,2.3-1.4,4.1
					v0.8c0,2.1,0.5,3.6,1.4,4.5C283.9,125.6,285.4,126,287.4,126"/>
				<path class="st0" d="M310.6,132.2c0.3,1.3,0.7,2.3,1.3,3.1c0.6,0.8,1.4,1.3,2.3,1.7c0.9,0.3,2,0.5,3.3,0.5
					c1.4,0,2.8-0.2,4.1-0.6c1.3-0.4,2.6-0.9,3.9-1.4l0.9,4c-0.9,0.5-2.2,1-3.8,1.5c-1.7,0.5-3.5,0.8-5.4,0.8c-4.2,0-7.4-1.3-9.5-4
					c-2.2-2.7-3.2-6.7-3.2-12c0-5.4,1.1-9.4,3.3-12c2.2-2.6,5.1-3.9,8.8-3.9c3.8,0,6.6,1.3,8.3,3.8c1.8,2.5,2.6,6,2.6,10.4v3.3
					h-17.5C310.1,129.3,310.3,130.9,310.6,132.2 M322.4,123.6v-0.9c0-3.2-0.5-5.5-1.4-6.8c-0.9-1.3-2.4-2-4.3-2
					c-1,0-1.9,0.1-2.7,0.4c-0.8,0.3-1.5,0.8-2,1.5c-0.5,0.7-1,1.7-1.3,3c-0.3,1.3-0.5,2.8-0.6,4.8H322.4z"/>
				<path class="st0" d="M358.3,111.2c0.6-0.3,1.4-0.6,2.3-0.8c0.9-0.3,1.9-0.4,3.1-0.4c2.6,0,4.6,0.7,6,2.3c1.4,1.5,2.1,4,2.1,7.4
					V141h-5.4v-22.1c0-1.8-0.4-3-1.1-3.6c-0.8-0.6-1.8-1-3.2-1c-1.3,0-2.4,0.2-3.3,0.6c-0.9,0.4-1.9,1-2.9,1.6V141h-5.4v-22.1
					c0-1.8-0.4-3-1.2-3.6c-0.8-0.6-1.8-1-3.1-1c-1.2,0-2.3,0.2-3.3,0.6c-1,0.4-1.9,0.9-2.9,1.6V141h-5.4v-30.4h3.3l1.9,3.8l2.8-3.1
					c0.6-0.3,1.4-0.6,2.3-0.8c0.9-0.3,1.9-0.4,3.1-0.4c1.1,0,2.1,0.1,3,0.3c0.9,0.2,1.6,0.5,2.3,0.9l2.2,3.4L358.3,111.2z"/>
				<path class="st0" d="M384.4,132.2c0.3,1.3,0.7,2.3,1.3,3.1c0.6,0.8,1.4,1.3,2.3,1.7c0.9,0.3,2,0.5,3.3,0.5
					c1.4,0,2.8-0.2,4.1-0.6c1.3-0.4,2.6-0.9,3.9-1.4l0.9,4c-0.9,0.5-2.2,1-3.8,1.5c-1.7,0.5-3.5,0.8-5.4,0.8c-4.2,0-7.4-1.3-9.5-4
					c-2.1-2.7-3.2-6.7-3.2-12c0-5.4,1.1-9.4,3.3-12c2.2-2.6,5.2-3.9,8.8-3.9c3.8,0,6.6,1.3,8.3,3.8c1.7,2.5,2.6,6,2.6,10.4v3.3
					h-17.5C383.9,129.3,384.1,130.9,384.4,132.2 M396.2,123.6v-0.9c0-3.2-0.5-5.5-1.4-6.8c-0.9-1.3-2.4-2-4.3-2
					c-1,0-1.9,0.1-2.6,0.4c-0.8,0.3-1.5,0.8-2,1.5c-0.5,0.7-1,1.7-1.3,3c-0.3,1.3-0.5,2.8-0.6,4.8H396.2z"/>
				<path class="st0" d="M416.4,111.2c0.7-0.3,1.4-0.6,2.4-0.8c0.9-0.3,2-0.4,3.2-0.4c2.6,0,4.6,0.7,6,2.3c1.5,1.5,2.2,4,2.2,7.4
					V141h-5.4v-22.1c0-1.8-0.4-3-1.2-3.6c-0.8-0.6-1.9-1-3.2-1c-1.4,0-2.5,0.2-3.5,0.6c-1,0.4-2,1-3.1,1.7V141h-5.4v-30.4h3.3l2,3.9
					L416.4,111.2z"/>
				<path class="st0" d="M445.5,141.6c-2.3,0-4-0.6-5.1-1.9c-1-1.3-1.6-3.2-1.6-5.9v-19.3h-3.6v-3.9h4l2.6-8.2h2.5v8.2h6.7v3.9h-6.7
					V135c0,1,0.2,1.7,0.6,2.1c0.4,0.4,1.1,0.6,2.2,0.6h4.4l0.3,2.9c-0.8,0.3-1.7,0.6-2.7,0.8C448,141.5,446.8,141.6,445.5,141.6"/>
				<path class="st0" d="M359.3,88.1H457c1.2,0,2.1-1,2.1-2.1c0-1.2-1-2.1-2.1-2.1h-97.6c-1.2,0-2.1,1-2.1,2.1
					C357.2,87.1,358.2,88.1,359.3,88.1"/>
				<path class="st0" d="M2.1,88.1l285.7,0c1.2,0,2.1-1,2.1-2.1c0-1.2-1-2.1-2.1-2.1H2.1C1,83.8,0,84.8,0,86C0,87.1,1,88.1,2.1,88.1
					"/>
				<path class="st1" d="M46.8,0H19.6v2.3h8.7v45.1c0,13.6-3.8,17.4-12.1,17.4c-5.3,0-6.1-4-6.1-6.1c0-4.9-0.3-7.9-4.8-7.9
					c-4.5,0-5,4.6-5,6c0,6.2,4.8,11,17.1,11c14.7,0,20.5-5,20.5-21.5V2.3l8.9,0V0z"/>
				<path class="st1" d="M48.6,57.2c-1.5,0-2.8,0.5-3.8,1.5c-1,1-1.6,2.3-1.6,3.8c0,1.5,0.5,2.7,1.6,3.7c1.1,1,2.3,1.5,3.8,1.5
					c1.5,0,2.7-0.5,3.8-1.5c1-1,1.6-2.2,1.6-3.7c0-1.5-0.5-2.8-1.6-3.8C51.4,57.7,50.2,57.2,48.6,57.2"/>
				<path class="st1" d="M106.9,57.2c-1.5,0-2.8,0.5-3.8,1.5c-1,1-1.5,2.3-1.5,3.8c0,1.5,0.5,2.7,1.5,3.7c1.1,1,2.3,1.5,3.8,1.5
					c1.5,0,2.8-0.5,3.8-1.5c1-1,1.6-2.2,1.6-3.7c0-1.5-0.5-2.8-1.6-3.8C109.7,57.7,108.4,57.2,106.9,57.2"/>
				<path class="st1" d="M90,0L63.4,0l0,2.3h7.8v51.4c0,4-0.2,4.2-0.7,5.4c-0.5,1.3-1.6,2.3-3.2,3c-1.2,0.5-3,0.8-5.5,0.8v3h28.6v-3
					c-2.4-0.1-4.3-0.3-5.5-0.8c-1.7-0.7-2.8-1.7-3.4-3c-0.5-1.2-0.7-2.2-0.7-4.2V38.3l7.1,0c20.6,0,26.4-8.1,26.4-19.2
					C114.4,7.9,110.8,0,90,0 M86.3,35.7h-5.4V2.6l4.9-0.1c15.9,0,19.3,6.5,19.3,17.1C105.2,30.3,98.9,35.7,86.3,35.7"/>
				<path class="st1" d="M196.2,59c-0.4-1.2-0.6-2.6-0.6-4.5V2.3h6.9V0h-16.8c-0.2,0.6-20.3,50.4-20.3,50.4l-0.5,0.3l-0.5-0.3
					c0,0-21.3-49.8-21.5-50.4l-18.7,0v2.3h7.7v50.1l-0.2,4.7c-0.1,1.2-0.5,2.3-1.1,3.2c-0.6,0.9-1.7,1.7-3,2.1
					c-0.9,0.3-2.2,0.5-3.8,0.5v3h19v-3c-1.6-0.1-2.3-0.2-3.2-0.5c-1.4-0.4-2.4-1.1-3.1-2.1c-0.6-0.9-1-2-1.1-3.3l-0.2-4.7V9.2h1.1
					c0,0,24,56.1,24.3,56.7h2l22.8-56.1h0.6v44.6c0,1.9-0.2,3.4-0.6,4.6c-0.5,1.4-1.4,2.4-2.8,3.1c-1.1,0.5-2.6,0.7-4.7,0.8v3h26v-3
					c-2.1-0.1-3.7-0.4-4.8-0.9C197.6,61.4,196.6,60.3,196.2,59"/>
				<path class="st1" d="M231.1,17.7c-13.9,0-22.5,9.2-22.5,25.2c0,23.5,18.3,25,22.2,25c7.8,0,22.6-4.9,22.6-25.5
					C253.5,26.4,244,17.7,231.1,17.7 M230.9,65c-10.4,0-12-5.2-12-21.9c0-12.9,0.8-22.6,12-22.6c12.1,0,12.2,10,12.2,21.7
					C243.1,59.2,240.2,65,230.9,65"/>
				<path class="st1" d="M289.7,18.4c-8.3,0-11.1,4.9-13.4,9.9l-0.7,0l-1.7-9.5h-15.7v2.5h8.6v32.5c0,3.2-0.2,5.7-1,7.1
					c-1,1.6-3,2.2-6.3,2.2h-1.4v3h26.9v-3h-1.5c-3.5,0-5.3-0.8-6.3-2.3c-0.9-1.4-1.2-3.6-1.2-7V36.9c0-5.7,4.6-12.2,9.7-12.2
					c5.4,0,5.6,7.7,11.3,4.9C301.3,27.7,300.4,18.4,289.7,18.4"/>
				<path class="st1" d="M396.7,61.2c-2.9,0-3.8-1.6-4-4.3l-0.2-6V31.1c0-4.3-0.7-7.1-3.2-9.6c-2.5-2.5-7.3-3.8-14.2-3.8
					c-6.7,0-11.6,1.2-14.7,3.6c-3.1,2.3-4.3,4.5-4.3,7.6c0,1.4,0.4,2.5,1.2,3.1c0.8,0.7,1.8,1.1,2.9,1.1c2.7,0,4.2-1.4,4.7-4.9
					c0.4-2.6,1-4.1,2.3-5.5c1.4-1.4,3.5-2.2,6.4-2.2c3.4,0,5.8,0.9,7.1,2.7c1.2,1.7,1.9,4,1.9,6.9v7.9c-8.6,0.8-28.9,2.4-28,17.9
					c0.3,6.1,5.7,11.4,12.6,11.4c7.6,0,12.5-4.3,15.7-7.8c0.5,3.3,3.6,7.2,9.1,7.2c6.3,0,10-3.1,10.4-10.7h-1.6
					C400.5,59.4,398.4,61.2,396.7,61.2 M382.6,56.2l-0.2,0.4l-0.2,0.2c-4.6,4.2-8.1,5.7-10.7,5.7c-6.6,0-7.6-5.5-7.6-8.2
					c0-8.8,12-13.2,18.6-13.2V56.2z"/>
				<path class="st1" d="M451.6,60.9c1.2,1.5,2.8,2,5.7,2.1v3h-22.4V63c1.6-0.1,2.9-0.5,3.7-1c1.1-0.7,1.4-1.9,1.7-3.3
					c0.2-1.2,0.3-3.1,0.3-5.6V37.6c0-3.7-0.3-8.5-1.5-11c-1.1-2.3-3-3.4-6.6-3.4c-3.9,0-7.5,1.9-9.4,5.3c-1.8,3.1-1.7,8.1-1.7,13.4
					v12.5c0,3.2,0.4,5.4,1.3,6.7c0.8,1.2,2.4,1.8,4.7,2v3h-23.2v-3c1.8-0.1,3.2-0.3,4-0.7c1.4-0.6,2.3-1.6,2.7-3
					c0.4-1.2,0.6-3,0.6-5.5V21.3l-7.3,0v-2.4l14.6,0l1.6,8.6l0.7,0c1.9-3.7,6-9.1,15.4-9.1c2.6,0,5,0.5,7.1,1.6
					c2,1.1,3.7,2.7,4.9,4.8c1.2,2.2,1.6,4.8,1.6,7.9v21.4C450.2,56.2,450.5,59.4,451.6,60.9"/>
				<path class="st1" d="M346.6,15.8c-1.4,0.4-2.3,1.7-2.8,3.8c-0.4,1.9-1.1,3-2.1,3.3c-1,0.3-2.6,0.3-3.3-0.2c-2.4-2.2-7-5-15.1-5
					c-13.1,0-18.9,9.3-18.9,17.8c0,10,3.8,14.8,12.2,16.5c0.5,0.1,0.5,0.7,0.1,0.8c-7.2,1.5-13.5,3.5-13.5,10.4
					c0,4.1,2.3,6.4,5.4,7.6c3.3,1.4,8,2.1,13.9,2.2c5.1,0,8.8,0.2,11.2,0.5c2.6,0.3,4.6,1,6.1,2.1c1.6,1.2,2.4,3,2.4,5.3
					c0,3.2-1.7,5.7-5,7.6c-3.1,1.7-7.4,2.7-12.7,2.7c-4.6,0-8.3-0.5-11.7-2.6c-2.5-1.6-3-4.6-2.5-6.8c0.5-2.2-0.3-4.6-2.9-5
					c-1.4-0.2-3.2,0.5-4,1.8c-0.8,1.2-1,2.6-1,4.3c0,5.6,4.3,8.2,7.6,9.2c5.1,1.5,8.4,1.9,13.1,1.9c6.1,0,11.2-1,14.7-2.8
					c3.6-1.8,6.1-4,7.4-6.5c1.4-2.6,2.1-5.2,2.1-7.7c0-3.4-0.7-6.2-2.2-8.2c-4.7-6.4-11.3-5.6-26.2-6.3c-7.2,0-8.6-1.3-8.6-3.5
					c0-3.2,2.7-4.5,13.1-6.1C333.5,51.3,343,47.5,343,35c0-3.6-0.8-6.7-1.8-8.8c2.1,0.5,4.1,0.5,5.9-0.1c2.1-0.6,3.4-1.7,4.2-3.1
					c0.8-1.4,1.1-3.1,0.8-4.5C351.3,15.6,349.2,15,346.6,15.8 M323.5,50.1c-6.1,0-9.6-2.2-9.6-14.7c0-8.8,3.1-15.3,9.6-15.3
					c7.6,0,9.9,5.9,9.9,15.1C333.4,48.4,329.3,50.1,323.5,50.1"/>
			</g>
		</g>
	</g>
</g>
</svg>
