<?xml version="1.0" encoding="utf-8"?>
<!-- Generator: Adobe Illustrator 23.0.6, SVG Export Plug-In . SVG Version: 6.00 Build 0)  -->
<svg version="1.1"
	 id="svg2" xmlns:cc="http://creativecommons.org/ns#" xmlns:dc="http://purl.org/dc/elements/1.1/" xmlns:rdf="http://www.w3.org/1999/02/22-rdf-syntax-ns#" xmlns:svg="http://www.w3.org/2000/svg"
	 xmlns="http://www.w3.org/2000/svg" xmlns:xlink="http://www.w3.org/1999/xlink" x="0px" y="0px"
	 viewBox="2.5 -141.652 507.257 179.869" enable-background="new 2.5 -141.652 507.257 179.869" xml:space="preserve">
<g id="layer1" transform="translate(-322.13697,-853.08578)">
	<path id="path3015" fill="#154374" d="M324.637,886.989c0,0,167.358,4.313,246.729,4.313h13.805
		c79.366,0,246.724-4.313,246.724-4.313V715.746c0,0-167.358-4.313-246.724-4.313h-13.805c-79.371,0-246.729,4.313-246.729,4.313
		V886.989z"/>
	<path id="path3019" fill="#FFFFFF" d="M397.535,759.314h-19.628v52.617h19.628V759.314z"/>
	<path id="path3023" fill="#FFFFFF" d="M456.034,811.932L427.25,787.78l-1.81-1.476l33.073-26.99h-25.441l-34.46,28.121
		l-0.428,0.344l28.765,24.152H456.034L456.034,811.932z"/>
	<path id="path3027" fill="#FFFFFF" d="M488.006,791.124v11.105c4.171,0.226,8.582,0.344,13.161,0.344
		c13.033,0,24.801-0.979,33.108-2.548l-0.005,11.429c-8.306,1.569-20.065,2.553-33.103,2.553c-13.037,0-24.796-0.984-33.108-2.553
		V761.09c8.311-1.569,20.07-2.548,33.108-2.548c13.038,0,24.797,0.984,33.103,2.548l0.005,11.434
		c-8.306-1.574-20.075-2.553-33.108-2.553c-4.578,0-8.99,0.123-13.161,0.349v10.342h29.331v10.46H488.006L488.006,791.124z"/>
	<path id="path3031" fill="#FFFFFF" d="M568.773,771.068v40.868h-19.627v-49.278v-0.064c9.231-2.749,21.914-4.451,35.916-4.451h0.59
		c13.81,0,25.76,2.966,31.505,7.289c0,0,9.255,6.664,6.241,17.872c-0.005,0-2.375,9.919-15.482,11.705c0,0-2.479,0.59-6.629,0.541
		l24.56,16.387H595.95l-23.291-20.488l2.375-4.746c0,0,26.523,7.549,28.249-7.874c0,0,0.649-10.028-18.767-10.028
		c0,0-8.085-0.32-15.526,2.159L568.773,771.068L568.773,771.068z"/>
	<path id="path3035" fill="#FFFFFF" d="M658.496,771.068v40.868h-19.627v-49.278v-0.064c9.226-2.749,21.909-4.451,35.906-4.451
		h0.595c13.815,0,25.761,2.966,31.51,7.289c0,0,9.251,6.664,6.231,17.872c0,0-2.366,9.919-15.472,11.705c0,0-2.484,0.59-6.629,0.541
		l24.555,16.387h-29.897l-23.291-20.488l2.375-4.746c0,0,26.528,7.549,28.249-7.874c0,0,0.644-10.028-18.762-10.028
		c0,0-8.09-0.32-15.531,2.159L658.496,771.068L658.496,771.068z"/>
	<path id="path3039" fill="#FFFFFF" d="M763.092,783.25v28.686h-19.628v-24.585l-30.191-28.037h24.369L763.092,783.25
		L763.092,783.25z"/>
	<path id="path3043" fill="#F2C223" d="M778.568,774.845l16.77-15.536h-23.513l-16.539,15.536H778.568L778.568,774.845z"/>
	<path id="path3047" fill="#F2C223" d="M802.13,836.954c0,0-121.203,4.746-221.273,4.746h-5.183
		c-100.066,0-221.273-4.746-221.273-4.746v-1.726c0,0,121.207-4.746,221.273-4.746h5.183c100.07,0,221.273,4.746,221.273,4.746
		V836.954z"/>
</g>
</svg>
