<?xml version="1.0" encoding="utf-8"?>
<!-- Generator: Adobe Illustrator 23.0.3, SVG Export Plug-In . SVG Version: 6.00 Build 0)  -->
<svg version="1.1" id="Layer_2" xmlns="http://www.w3.org/2000/svg" xmlns:xlink="http://www.w3.org/1999/xlink" x="0px" y="0px"
	 viewBox="0 0 394.1 259.7" style="enable-background:new 0 0 394.1 259.7;" xml:space="preserve">
<style type="text/css">
	.st0{fill:#009E4D;}
	.st1{fill:#FFD400;}
	.st2{fill:#00AEEF;}
	.st3{fill:#ED1C24;}
	.st4{fill:none;}
	.st5{stroke:#000000;stroke-width:2.654900e-02;}
</style>
<path class="st0" d="M286,11.7c-0.2,0.1-0.3,0.4-0.2,0.6c0.1,0.2,0.3,0.4,0.6,0.4c0.1,0,5.7-0.6,15.1,1.1
	c36.6,6.8,56.9,31.4,57.1,31.7c0.1,0.2,0.4,0.2,0.6,0.2c0.2-0.1,0.4-0.2,0.4-0.4c0-0.1,1.4-7.9,8.7-15.3c7.2-7.2,14.6-9.5,14.6-9.5
	c0.2-0.1,0.3-0.2,0.4-0.4c0-0.2-0.1-0.4-0.2-0.5c-0.2-0.2-24.9-17.6-52.8-17.9l0,0C304.2,1.4,286.2,11.6,286,11.7z"/>
<path class="st1" d="M284.6,13.3c-0.2,0-0.3,0.1-0.4,0.3c-0.1,0.2-0.1,0.4,0,0.5L298.9,41c2.5,4.6,18.7,31.7,18.9,32
	c0.1,0.2,0.3,0.3,0.5,0.3c0.2,0,0.4-0.2,0.5-0.3c0,0,0.7-1.7,3.5-5.1c14.5-17.1,33.7-16.3,33.9-16.2c0.2,0,0.4-0.1,0.5-0.3
	c0.1-0.2,0.1-0.4,0-0.6c-0.1-0.2-11.3-16-30.2-26.2C302.1,11.4,284.8,13.2,284.6,13.3z"/>
<path class="st2" d="M282.6,14.5c-0.1,0.1-1.7,2.1-3.1,4.6c-20.1,36.5-7,72.4-6.9,72.8c0.1,0.2,0.3,0.3,0.5,0.3
	c0.2,0,0.4-0.1,0.5-0.3c0,0,1.1-1.9,4.3-4.8c14.9-13.2,35-11.3,35.2-11.2c0.2,0,0.4-0.1,0.5-0.2c0.1-0.2,0.1-0.4,0-0.6l-14.9-29.1
	l0,0c-2.6-5.1-15.1-31.2-15.2-31.5c-0.1-0.2-0.2-0.3-0.4-0.3C282.9,14.3,282.7,14.4,282.6,14.5z"/>
<path class="st3" d="M280.7,14.2c-0.2,0.1-20.9,11.1-35.3,35.7c-15.4,26.3-12.1,48.2-12.1,48.4c0,0.2,0.2,0.4,0.4,0.4
	c0.2,0.1,0.4,0,0.5-0.1c0.1-0.1,8.1-7.1,22-7c8.1,0,11,1.6,11,1.7c0.2,0.1,0.4,0.1,0.6-0.1c0.1-0.1,0.2-0.3,0.2-0.4
	c0-0.1,0-0.1,0-0.2c-0.1-0.2-3.4-10.2-3.4-25c0-12.8,2.5-29.1,12-45.6c2.2-3.7,4.7-6.9,4.7-7c0.1-0.1,0.1-0.2,0.1-0.3
	c0-0.1,0-0.2-0.1-0.3C281.2,14.1,280.9,14.1,280.7,14.2z"/>
<g>
	<path d="M332.6,161.2c-4.8-1.4-11.5-5.3-18.3-10.3c1.3-2.1,2.5-4.4,3.4-6.8c2.1-5.2,3.1-7.9,8-8.4v-2.2c-2.6,0.1-5.4,0.2-8.2,0.2
		c-2.6,0-5.3,0-8-0.2v2.2c1.8,0.4,3.7,0.6,5.5,1.1c0,2.1-1.2,5.8-2.2,8.2c-0.5,1.2-1.1,2.3-1.8,3.4c-6.2-5-12.1-10.8-16.2-16.6
		c5.8-2.7,12.7-6.1,12.7-13.1c0-6.7-4.9-10.2-11.7-10.2c-7.4,0-13.7,5.5-13.7,12.5c0,3.5,1,7.2,2.8,10.7
		c-6.7,3.4-11.3,7.5-11.3,15.3c0,11.3,9.1,16.8,19.3,16.8c7.3,0,12.9-2.9,17.2-7.5c7.7,4.4,15.6,7.3,22,7.6L332.6,161.2z M295,112.6
		c4,0,5.4,3.2,5.4,6.8c0,4.7-3.9,7.2-7.7,8.9c-1.9-3.4-3.1-6.7-3.1-9.7C289.6,115.6,291.8,112.6,295,112.6z M305.6,154.7
		c-2.6,2-6.4,3.1-9.6,3.1c-6.8,0-12.7-5.2-12.7-13.1c0-4,1.6-6.6,4.2-8.7c4.5,6.7,11.4,13.1,19,18
		C306.2,154.2,305.9,154.5,305.6,154.7z"/>
	<path d="M304.4,199.1c-0.6-2.2-1.6-4.6-4.2-4.6c-2,0-4.3,1.7-5.8,3v18.3c0,5.9,2.6,5.1,7.3,5.6v2.3c-4.2,0-8.5-0.2-12.6-0.2
		c-3.1,0-6.2,0-9.4,0.2v-2.3l5-0.8v-22.1c0-2.6-0.2-4.8-3.5-4.8c-0.7,0-1.3,0-1.9,0.1v-2.3c2.4-0.6,4.9-1.2,7.3-1.8
		c1.6-0.5,3.8-1.3,5.4-1.3c2.4,0,2.4,3.1,2.4,4.9v0.8c2.3-2.6,6-5.9,9.7-5.9c3.4,0,6,1.9,6,5.5C310.1,196.5,307.3,199,304.4,199.1z"
		/>
	<path d="M234.5,223.5c-3.3,0-6.6,0-9.9,0.2v-2.3l4.8-0.8v-17.4c0-3.9-0.1-8.8-5.3-8.8c-2.6,0-6.6,1.3-8.8,2.7v20
		c0,3.7,1.3,4.1,4.8,4.4v2.3c-3.4,0-6.7-0.2-10.1-0.2c-3.2,0-6.3,0-9.4,0.2v-2.3l5-0.8v-21.7c0-2.8,0-5.2-3.5-5.2
		c-0.6,0-1.3,0-1.9,0.1v-2.3c2.4-0.6,4.9-1.2,7.3-1.8c2.2-0.6,4.1-1.3,5.4-1.3c2.8,0,2.4,3.7,2.4,5.5c3.8-2.3,10.1-5.5,14.6-5.5
		c2.9,0,5.1,0.6,7.1,2.9c2.3,2.7,2.2,7.1,2.2,10.5v15.1c0,4.8,2.5,4,6.2,4.6v2.3C241.8,223.7,238.1,223.5,234.5,223.5z"/>
	<path d="M131.5,162.3H87.2V160l8.2-1.4v-40.4c0-4.8-1.4-6-7.6-6.2v-2.3H114v2.3l-7.6,1.3v40.5c0,4.5,1,5,7.6,5
		c10.3,0,13.8-0.9,16.2-11.3h2.6L131.5,162.3z"/>
	<path d="M163.8,201c-3.6,0-5,1-5,4.8c0,0,0,11.1,0,15c-5.4,2.3-12,3.9-19.9,3.9c-16,0-26.6-11.1-26.6-26.7
		c0-15.3,12.1-27.7,27.9-27.7c7.7,0,13.8,1.9,18.4,3.5l-0.1,13.3h-2.3c-0.8-4.1-2.1-7.5-4.8-9.9c-2.5-2.2-5.8-3.5-9.8-3.5
		c-13.6,0-16.8,15.7-16.8,24.7c0,9.3,3.3,22.8,15.3,22.8c6.5,0,8.3-2,8.3-8.8V202l-6.5-1v-2.6h23v2.6H163.8z"/>
	<path d="M336.2,224.1c-3.7,0-6.1-0.7-7.5-4.5c-2.5,3.7-7.4,4.8-11,4.8c-6.5,0-12.6-2.8-12.6-10c0-11.5,14.9-11.6,23.1-11.6v-4.4
		c0-4.3-2-6-6.6-6c-3,0-6.2,0.9-9,1.9v-4.3c3.8-1.1,7.6-1.9,12.3-1.9c3.3,0,7.9,0.7,10.4,3.1c2.7,2.6,2.6,5.8,2.6,9.2v15.8
		c0,2.8,0.8,5,3.6,5c2.4,0,5-0.2,7.4-0.4V181c0-2.8,0-5.2-3.5-5.2c-0.6,0-1.3,0.1-1.9,0.1v-2.3c2.4-0.6,4.9-1.2,7.3-1.8
		c2.2-0.6,4.1-1.3,5.4-1.3c2.8,0,2.4,3.5,2.4,5.5v40.9c0,3.8,2.2,4,8,4.4v2.3C356.5,223.7,346.4,224.1,336.2,224.1z M328.3,206.2
		c-5.2,0-12.7,0.9-12.7,8.1c0,3.6,1.6,5.9,5.4,5.9c3.1,0,5.4-2.2,6.4-4.7c0.7-1.9,0.8-3.4,0.8-5.4V206.2z"/>
	<path d="M234.8,162.7c-3.7,0-6.2-0.7-7.5-4.5c-2.5,3.8-7.4,4.9-11,4.9c-6.5,0-12.6-2.8-12.6-10c0-11.5,15-11.7,23.2-11.7v-4.4
		c0-4.3-2.1-5.9-6.6-5.9c-3,0-6.3,0.9-9,1.9v-4.3c3.8-1,7.6-1.8,12.3-1.8c3.2,0,7.9,0.6,10.4,3c2.6,2.6,2.5,5.8,2.5,9.3V155
		c0,2.8,0.8,5.1,3.7,5.1c2.4,0,4.9-0.2,7.4-0.5v-39.9c0-2.9-0.1-5.2-3.5-5.2c-0.6,0-1.3,0.1-1.9,0.2v-2.3c2.4-0.6,4.9-1.2,7.3-1.9
		c2.2-0.6,4.1-1.3,5.5-1.3c2.7,0,2.4,3.6,2.4,5.5v40.9c0,3.8,2.2,4,8,4.5v2.3C255.1,162.3,245.1,162.7,234.8,162.7z M227,144.9
		c-5.2,0-12.7,0.9-12.7,8.1c0,3.6,1.6,5.9,5.4,5.9c3.1,0,5.5-2.3,6.5-4.7c0.7-1.8,0.9-3.4,0.9-5.4V144.9z"/>
	<path d="M278,205.5l-23.5,0.4c0.2,8.6,3.8,14.3,13.1,14.3c2.5,0,5.5-0.5,7.6-1.2v3c-4,1.8-7.4,2.6-12,2.6
		c-10.9,0-19.3-7.1-19.3-18.3c0-11,8.2-17.8,18.9-17.8c8.5,0,15.3,5.9,15.3,14.6C278.1,203.7,278.1,204.6,278,205.5z M262.5,191.7
		c-5.5,0-7.6,6.4-7.8,11l9.4-0.9c2.5-0.2,3.9-0.6,3.9-3.4C267.9,195,266,191.7,262.5,191.7z"/>
	<path d="M207,130.3c-1.6-1.2-3.4-2.2-5.5-2.2c-1.6,0-2.3,1.6-2.9,2.8c2.3,1.9,3.7,5.2,3.7,8.1c0,8.4-6.9,13.3-14.8,13.3
		c-1.7,0-3.3-0.1-4.9-0.5c-0.9,1.1-2.2,2.2-3.5,2.7c0.1,1.7,2,1.8,3.3,1.8c2.8,0,5.5-0.2,8.3-0.2c6.1,0,13,1.9,13,9.2
		c0,10.3-10.4,14.6-19.2,14.6c-6.2,0-15.9-2.8-15.9-10.4c0-3.5,2.8-5.8,5.7-7.2c-2.4-1.4-3.1-4.2-3.1-6.9c0-0.5,0.1-0.9,0.1-1.4
		c2.4-0.3,6.9-1.4,8.4-3.3c-4.8-1.9-7.5-5.6-7.5-10.8c0-8.8,7.6-13,15.5-13c3,0,6.5,0.7,9,2.4c0.9-3.6,3.8-6.2,7.6-6.2
		c1.6,0,4.9,0.5,4.9,2.6C209,127.4,208.1,129,207,130.3z M186.9,130.5c-4.2,0-6,3.4-6,7.9c0,5.2,1.3,10.3,6.5,10.3
		c4.2,0,5.9-3.3,5.9-7.8C193.3,136.1,192,130.5,186.9,130.5z M189.6,163.9c-3,0-4.5,0.3-7.5,0.3c-2,0-3.8-0.2-5.3-0.6
		c-1,0.8-2,2.6-2,3.8c0,4.8,4.7,6.6,11.4,6.6c7.6,0,12.1-2.4,12.1-6.1C198.3,163.8,192.8,163.9,189.6,163.9z"/>
	<path d="M168.7,144.4l-23.5,0.3c0.2,8.6,3.8,14.2,13.1,14.2c2.5,0,5.4-0.5,7.6-1.2v3c-4,1.8-7.5,2.6-11.9,2.6
		c-10.9,0-19.4-7.1-19.4-18.3c0-11.1,8.2-17.9,18.9-17.9c8.6,0,15.3,5.9,15.3,14.6C168.8,142.6,168.8,143.6,168.7,144.4z
		 M153.2,130.5c-5.5,0-7.6,6.5-7.9,11l9.4-0.9c2.4-0.2,4-0.7,4-3.4C158.7,134,156.7,130.5,153.2,130.5z"/>
	<path d="M199.8,205.5l-23.5,0.4c0.3,8.6,3.9,14.3,13.2,14.3c2.5,0,5.4-0.5,7.5-1.2v3c-4,1.8-7.4,2.6-11.9,2.6
		c-10.9,0-19.3-7.1-19.3-18.3c0-11,8.2-17.8,18.9-17.8c8.6,0,15.3,5.9,15.3,14.6C200,203.7,199.9,204.6,199.8,205.5z M184.3,191.7
		c-5.5,0-7.6,6.4-7.8,11l9.3-0.9c2.4-0.2,3.9-0.6,3.9-3.4C189.8,195,187.9,191.7,184.3,191.7z"/>
</g>
<path class="st4" d="M283,14.9c0,0-1.7,2-3.1,4.5c-20.2,36.7-6.9,72.3-6.9,72.3s1.1-2,4.4-4.9c15.3-13.5,35.7-11.4,35.7-11.4
	s-12.3-23.9-14.9-29.1C295.6,41.2,283,14.9,283,14.9z"/>
<path class="st4" d="M276.2,21.7c2.2-3.8,4.8-7,4.8-7s-20.6,10.7-35.1,35.5c-15.4,26.4-12,48-12,48S242,91,256.3,91
	c8.4,0,11.3,1.7,11.3,1.7S255.5,57.8,276.2,21.7z"/>
<path class="st4" d="M283,14.9c0,0-1.7,2-3.1,4.5c-20.2,36.7-6.9,72.3-6.9,72.3s1.1-2,4.4-4.9c15.3-13.5,35.7-11.4,35.7-11.4
	s-12.3-23.9-14.9-29.1C295.6,41.2,283,14.9,283,14.9z"/>
<path class="st5" d="M370.1,130.8c0,0-1-0.5-2.9,0.6c-1.7,1-1.5,2.1-1.5,2.1s0.1,0.2,0.1,0.2c0.5,0.8,2.5,4.3,3.3,6.3
	c0.9,2.1,1.1,4.7-2.1,6.9c-1.7,1.2-4.9,1.9-7.4,0.7c-0.6-0.3-1.5-1-2.2-2c-1.1-1.5-14.3-26.1-14.3-26.1l-22-40.7c0,0-0.5-1-0.5-1.5
	c0.1-0.8,0.3-1.1,0.6-1.5c14.3-23,40.9-20.6,40.9-20.6s-0.1-3,0.6-7c4.4-22.4,31.4-27.2,31.4-27.2s-10.6-8.5-26.8-14.3
	C355.5,2.3,345.8,0,331,0c-17.4,0-32.7,5.2-34.5,5.8c-4.8,1.5-12.1,5.2-12.1,5.2l-6.6-10.2c0,0-0.2-0.2-0.7,0.1
	c-0.4,0.2-0.4,0.6-0.4,0.6l4.3,11.3c0,0-1.6,0.8-3.5,1.9c-3.6,2.2-9.3,5.6-18.4,14.3c-5.5,5.3-13.3,14.9-19.3,25.9
	c-14.1,25.8-10.8,51.9-10.8,51.9s11.1-11.7,27.6-11.5c10.4,0.1,16.4,3.3,16.4,3.3s2.4-4.3,7-8.4c8.5-7.6,21.5-10.7,31.1-10.7
	c2.1,0,3.3,0.1,4,0.3c0.6,0.2,1,0.7,1,0.7l36.2,66.6c0,0,2.8,6.6,10.9,6.2c7.9-0.3,11.9-5.7,11.9-11.1c0-4.4-4-10.1-4.8-11.3
	L370.1,130.8z M330.3,2.2c28,0.3,52.5,17.8,52.5,17.8s-7.4,2.2-14.9,9.6c-7.5,7.5-8.9,15.5-8.9,15.5s-20.2-24.9-57.5-31.9
	c-9.6-1.8-15.2-1.1-15.2-1.1S304,2,330.3,2.2z M256.3,91c-14.3,0-22.4,7.2-22.4,7.2s-3.5-21.6,12-48C260.4,25.4,281,14.7,281,14.7
	s-2.6,3.2-4.8,7c-20.7,36.1-8.6,71-8.6,71S264.7,91,256.3,91z M277.5,86.8c-3.3,2.9-4.4,4.9-4.4,4.9s-13.3-35.6,6.9-72.3
	c1.4-2.5,3.1-4.5,3.1-4.5s12.6,26.3,15.2,31.5c2.7,5.2,14.9,29.1,14.9,29.1S292.8,73.3,277.5,86.8z M299.3,40.7
	c-1.1-2-14.7-26.9-14.7-26.9s17-2,41.5,11.2c19,10.2,30,26,30,26s-19.5-1.1-34.3,16.4c-3,3.6-3.6,5.2-3.6,5.2S301.9,45.4,299.3,40.7
	z"/>
<g>
	<path d="M0,240.1h4.1v19.2H0V240.1z"/>
	<path d="M7.1,240.1h5.9l7.2,15v-15H24v19.1h-5.6L11,243.4v15.9H7.1V240.1z"/>
	<path d="M30,240.2l5,15l5-15h4l-7,19h-4.5l-7-19H30z"/>
	<path d="M45.8,240.1h12.8v3.1h-8.7v4.5H58v3.1h-8.1v5.2h9v3.2H45.8V240.1z"/>
	<path d="M64.5,253.1c0,0.9-0.1,3.6,3.5,3.6c2.2,0,3.6-1.1,3.6-2.7c0-1.7-1.2-2-3.6-2.6c-4.5-1.1-7-2.5-7-5.8c0-3.1,2.2-5.9,7.6-5.9
		c2,0,4.3,0.5,5.8,2.2c1.1,1.4,1.1,2.9,1.1,3.5h-3.9c-0.1-0.7-0.3-2.9-3.1-2.9c-1.9,0-3.1,1-3.1,2.6c0,1.8,1.4,2.1,4.2,2.8
		c3.3,0.8,6.6,1.7,6.6,5.4c0,3.4-2.9,6.2-8.1,6.2c-7.3,0-7.4-4.7-7.4-6.6H64.5z"/>
	<path d="M82.1,243.3h-5.7v-3.2h15.5v3.2h-5.7v15.9h-4.1V243.3z"/>
	<path d="M93.2,240.1h6.7l4,13.9l4.4-13.9h6.5v19.1h-4.1v-16.4l-5.2,16.4h-3.4L97,242.8v16.4h-3.8V240.1z"/>
	<path d="M118,240.1h12.8v3.1h-8.7v4.5h8.1v3.1h-8.1v5.2h9v3.2H118V240.1z"/>
	<path d="M133.6,240.1h5.9l7.2,15v-15h3.8v19.1h-5.6l-7.4-15.9v15.9h-3.9V240.1z"/>
	<path d="M157.7,243.3h-5.7v-3.2h15.5v3.2h-5.7v15.9h-4.1V243.3z"/>
	<path d="M175.7,240.1h6.7l4,13.9l4.4-13.9h6.5v19.1h-4.1v-16.4l-5.2,16.4h-3.4l-5.1-16.4v16.4h-3.8V240.1z"/>
	<path d="M210.4,240.1l6.6,19.1H213l-1.4-4.1H204l-1.4,4.1h-3.9l6.9-19.1H210.4z M210.5,252l-2.6-8.1l-2.8,8.1H210.5z"/>
	<path d="M219,240.1h5.9l7.2,15v-15h3.8v19.1h-5.6l-7.4-15.9v15.9H219V240.1z"/>
	<path d="M249,240.1l6.6,19.1h-4.1l-1.4-4.1h-7.6l-1.4,4.1h-3.9l6.9-19.1H249z M249.1,252l-2.6-8.1l-2.8,8.1H249.1z"/>
	<path d="M269.8,246c0-0.5-0.1-1.2-0.5-1.9c-0.8-1.3-2.3-1.5-3.2-1.5c-4.7,0-5.6,4.3-5.6,7.3c0,1.3,0.2,3.6,1.6,5.1
		c1,1.1,2.2,1.6,4.5,1.6c2,0,2.7-0.2,3.1-0.4v-4H266v-3.2h7.8v9.5c-1.2,0.4-3.1,1.1-7,1.1c-4.4,0-6.6-1.1-8.1-2.5
		c-2.1-2.1-2.5-5.1-2.5-7.1c0-6.8,4.2-10.4,10-10.4c2.5,0,5,0.7,6.5,2.4c1.3,1.5,1.3,3,1.4,4H269.8z"/>
	<path d="M277.1,240.1h12.8v3.1h-8.7v4.5h8.1v3.1h-8.1v5.2h9v3.2h-13.1V240.1z"/>
	<path d="M292.4,240.1h6.7l4,13.9l4.4-13.9h6.5v19.1h-4.1v-16.4l-5.2,16.4h-3.4l-5.1-16.4v16.4h-3.8V240.1z"/>
	<path d="M317.2,240.1H330v3.1h-8.7v4.5h8.1v3.1h-8.1v5.2h9v3.2h-13.1V240.1z"/>
	<path d="M332.7,240.1h5.9l7.2,15v-15h3.8v19.1H344l-7.4-15.9v15.9h-3.9V240.1z"/>
	<path d="M356.9,243.3h-5.7v-3.2h15.5v3.2h-5.7v15.9h-4.1V243.3z"/>
</g>
</svg>
