<?xml version="1.0" encoding="utf-8"?>
<!-- Generator: Adobe Illustrator 23.0.3, SVG Export Plug-In . SVG Version: 6.00 Build 0)  -->
<svg version="1.1" id="Layer_1" xmlns="http://www.w3.org/2000/svg" xmlns:xlink="http://www.w3.org/1999/xlink" x="0px" y="0px"
	 viewBox="0 0 633.5 211.2" style="enable-background:new 0 0 633.5 211.2;" xml:space="preserve">
<style type="text/css">
	.st0{fill:#4AC1E0;}
	.st1{fill:#FFFFFF;}
</style>
<g>
	<rect class="st0" width="633.5" height="211.2"/>
	<g>
		<path class="st1" d="M276,71.2c-9.4,0-20,4.3-26.5,13l0,0l0,0l0-11.6h-22.3v81.3h22.3v-46.2c0-8.3,6.5-17.2,18.4-17.2
			c9.2,0,18.8,6.4,18.8,17.2v46.2H309v-50.4C309,84.7,295.6,71.2,276,71.2"/>
		<polygon class="st1" points="467.6,72.5 447.4,127.9 427.3,72.5 401.8,72.5 435.2,153.8 459.7,153.8 493.1,72.5 		"/>
		<path class="st1" d="M203.4,128.8c-9.4,6.9-14.8,8.6-23.3,8.6c-7.7,0-13.7-2.4-18-6.6l57.1-23.7c-1.2-8.8-4.6-16.7-9.7-22.7
			c-7.5-8.7-18.6-13.3-32.1-13.3c-24.5,0-43,18.1-43,42c0,24.5,18.5,42,45.5,42c15.1,0,30.5-7.2,37.8-15.5L203.4,128.8z M160.5,97
			c3.8-5.1,9.9-8.1,17.2-8.1c8,0,14.1,4.6,17.3,11.4l-39,16.2C155,108.2,157.1,101.7,160.5,97z"/>
		<polygon class="st1" points="132.1,133.3 81.4,133.3 81.4,48.2 58.8,48.2 58.8,153.8 132.1,153.8 		"/>
		<path class="st1" d="M533.2,155.2c-24.4,0-43.5-18.2-43.5-42c0-23.6,19.3-42,43.8-42c24.4,0,43.5,18.2,43.5,42
			C577,136.7,557.7,155.2,533.2,155.2 M533.2,90.3c-12.5,0-21.5,9.4-21.5,22.9c0,12.8,9.6,22.9,21.8,22.9c12.5,0,21.5-9.7,21.5-22.9
			C555,100.3,545.4,90.3,533.2,90.3"/>
		<path class="st1" d="M361.3,155.2c-24.4,0-43.5-18.2-43.5-42c0-23.6,19.3-42,43.8-42c24.4,0,43.5,18.2,43.5,42
			C405.2,136.7,385.9,155.2,361.3,155.2 M361.3,90.3c-12.5,0-21.5,9.4-21.5,22.9c0,12.8,9.6,22.9,21.8,22.9
			c12.5,0,21.5-9.7,21.5-22.9C383.2,100.3,373.6,90.3,361.3,90.3"/>
		<g>
			<path class="st1" d="M580,144.2h-3.6v-2.1h9.5v2.1h-3.6v9.6H580V144.2z M588.4,142.1h2.4l3.5,5.5l3.5-5.5h2.3v11.7H598v-8.3
				l-3.6,5.6h-0.2l-3.6-5.6v8.3h-2.2V142.1z"/>
		</g>
	</g>
</g>
</svg>
