<?xml version="1.0" encoding="utf-8"?>
<!-- Generator: Adobe Illustrator 23.0.3, SVG Export Plug-In . SVG Version: 6.00 Build 0)  -->
<svg version="1.1" id="Layer_1" xmlns="http://www.w3.org/2000/svg" xmlns:xlink="http://www.w3.org/1999/xlink" x="0px" y="0px"
	 viewBox="0 0 348.8 56.7" style="enable-background:new 0 0 348.8 56.7;" xml:space="preserve">
<style type="text/css">
	.st0{fill-rule:evenodd;clip-rule:evenodd;fill:#E91D25;}
	.st1{fill:#FFFFFF;}
</style>
<g>
	<path d="M87.2,5.7h5.9v39.6h23.6v5H87.2V5.7z"/>
	<path d="M120.1,5.7h5.9v44.6h-5.9V5.7z"/>
	<path d="M169.7,44.8c-2.7,4.2-7.8,6.3-12.6,6.3c-12.1,0-13.9-8.6-13.9-12.2c0-7,4.8-10.5,10.4-13.5c-2.5-3.6-4.9-5.9-4.9-10.5
		c0-4.9,3.6-9.2,10.1-9.2c5.6,0,10.8,3.1,10.8,9.1c0,5.3-4.1,9.1-8.4,11.6l8.1,9.8c0.8-2.2,1.3-4.6,1.4-6.9h5.1
		c-0.4,5.3-1.1,7.1-3,11l8.7,10.1h-6.9L169.7,44.8z M156.5,28.8c-4.2,2.4-7.8,4.8-7.8,10.1c0,4.5,4.2,7.6,8.5,7.6
		c4.1,0,7.3-2.1,9.5-5.3L156.5,28.8z M164.2,15.2c0-2.6-1.9-4.8-5.1-4.8c-2.5,0-5.1,1.5-5.1,4.8c0,2.7,2.4,5.3,4.3,7.8
		C160.8,21.3,164.2,18.9,164.2,15.2z"/>
	<path d="M195.2,5.7h29.3v5h-23.4v14.2h20.5v5h-20.5v20.4h-5.9V5.7z"/>
	<path d="M263.6,34.2c0,11.3-6.4,17.2-17.6,17.2c-11.5,0-18.3-5.3-18.3-17.2V5.7h5.9v28.5c0,7.9,4.5,12.2,12.4,12.2
		c7.5,0,11.6-4.3,11.6-12.2V5.7h5.9V34.2z"/>
	<path d="M268.7,5.7h6.3l23.5,36.2h0.1V5.7h5.6v44.6h-6.5l-23.3-35.8h-0.1v35.8h-5.6V5.7z"/>
	<path d="M343.5,44.8c-3.4,4.7-9.1,6.6-14.3,6.6c-13.3,0-21.3-10.9-21.3-22.5c0-13,7.1-24.3,21.3-24.3c9.8,0,17.5,4.4,19.2,14.8
		h-5.9c-1.2-6.8-6.6-9.8-13.3-9.8c-10.8,0-15.3,9.4-15.3,18.9c0,9.3,5.4,17.8,15.3,17.8c9.2,0,14.7-6.4,14.3-14.6h-14.3v-5h19.6
		v23.5h-3.8L343.5,44.8z"/>
</g>
<g>
	<path class="st0" d="M60.3,56.7c4.2,0,7.5-3.4,7.5-7.5V7.5c0-4.2-3.4-7.5-7.5-7.5H7.5C3.4,0,0,3.4,0,7.5v41.6
		c0,4.2,3.4,7.5,7.5,7.5H60.3"/>
	<path class="st1" d="M25.6,8.4c0,0-0.5-2.5,3.3-2.6c3.8-0.1,11.3,0,13.3,0.4c2,0.4,9.8,0.9,17.5,6.6c0.1,0.1,4.8,2.3,2.6,4.7
		c-2.2,2.4-5.7-1.1-5.7-1.1l-0.9-0.1c0,0-0.4,0.4-0.5,1.8c-0.1,1.4,1.5,9.4-2.6,9c-2.7-0.3-2.1-3.4-2.2-3.7c0-0.4-0.1-8.6-0.1-8.6
		s0.2-1.1-1.1-1.6c-1.3-0.5-5.1-2.1-6.5-2.2c-1.4-0.1-2.6-0.1-3.2,0.2c0,0-0.4,1.6-0.4,2.7c0,1.1,0,1.5,0.2,2.8c0,0,0.1,0,0,0.5
		c-0.1,0.5-0.4,2-0.3,2.5c0.1,0.6,0.3,1.9,1.6,1.9c1.3,0,1-1.8,1-2.1c-0.1-0.3-1-2.6-0.9-3.4c0.1-0.8,0.5-2.1,2.1-2.1
		c1.7,0,2.9,1.3,3.5,3.2c0.6,2,0.3,3.9,0.2,5.1c-0.1,1.2-0.7,4.4-0.8,5.9c-0.1,1.4-0.1,3.7,0.5,5.3c0,0,0,0.3,0.9,2
		c0,0,0.1,0,0.1,0.6c-0.1,0.5-0.6,2.3-2.1,2.3c-1.5-0.1-3.9-2.1-4-5.6c-0.2-3.5-0.4-5.8-0.4-5.8s0-0.6-0.5-0.5
		c-0.5,0.1-0.5,0.2-0.5,0.6c-0.1,0.4-0.8,4.3-0.7,8.1c0.1,3.6,0.2,3.5,0.2,3.5s0.1,0.3,0.1,0.6c0,0.3-0.1,0.7,0.2,0.8
		c0.3,0,1.3,0.1,1.7,0.1c0.3,0,2.5-0.2,3.2,1c0.7,1.2,0.6,2.7-0.8,3.5c-1.4,0.8-3.8,0.7-4.5,0.6c-0.7-0.1-3-0.4-4.2-0.3
		c-1.2,0.1-5.1,0.4-6.1-0.4c-1-0.8-1.1-1.5-1-2.3c0.1-0.8,0.6-2,2.8-2.1c2.2-0.1,3,0,3,0s0.4-3.2,0.4-4.1c0.1-0.9,0.3-8.5,0.3-8.8
		s-0.1-12.1-0.1-12.1s0.1-3.1,0.1-3.2c0-0.1,0.1-1-1-1c-1.1,0-1.5,0-2.5,0.1c-1,0.1-3.6,0.6-4.5-0.5C25.4,9,25.6,8.4,25.6,8.4"/>
	<path class="st1" d="M26,12.6c0,0,3.6-0.3,5.4,3.2c0.9,1.7,1.4,5.5-1,5.8c-2.4,0.3-2.9-1.4-3-1.8c-0.1-0.3-0.2-0.6-0.4-1.9
		c0,0-0.2-1.1-1.5-1c-1.3,0.1-1.6,1.9-1.5,2.3c0,0.5,0.1,1.2,1,3.2c0,0,0.6,1,0.2,2.7C25,26.8,24,30,24,30s-0.8,2.5-0.2,4.2
		c0.6,1.7,1.8,1.6,2.2,1.5c0.4-0.1,1.3-1,0.6-2.7c-0.7-1.7-1.1-2.3-0.9-3.4c0.2-1.1,0.7-2.6,1.9-3.8c1.2-1.2,2.1-2.2,3.1-2.2
		c1,0.1,2.5,0.8,2.4,2.2c0,0.3,0,0.9-1.4,2.7c0,0-1.1,1.2-0.9,3c0.1,1.3,0.7,3.4,0.3,4.5c-0.3,1.1-1,2.5-3.2,3.6
		c-2.2,1.1-4.8,1.2-6.9-1.3C19,36,19.3,34.6,19.2,34c-0.1-0.7-0.4-2.4,0-3.9c0.5-1.6,1.4-4.2,1.4-5.9c0-0.8-1-3.1-0.7-5.8
		c0.1-0.4,0.6-3.2,2.7-4.6C24.4,12.7,25.2,12.8,26,12.6"/>
	<path class="st1" d="M5.8,16.4c0,0-0.6-0.9,0.4-2.1c1.1-1.2,2.5-2.6,5.1-3.7c2.6-1.1,6.1-2.2,6.7-2.4c0.6-0.2,1.9-0.7,2.1-0.7
		c0.2-0.1,1.3-0.7,2.4,0c1.1,0.8,1.7,2,0.9,3.2c-0.7,1-1.9,1.1-2.1,1.1c-0.3,0.1-1.9,0.3-2.2,1c0,0-0.2,0.3-0.2,0.8
		c-0.1,0.6-0.6,5.7-0.6,5.7s-0.3,5.1-0.3,8.1c0,3,0,8.1,0,8.1l0,7.3c0,0,0.9,0.7,1.4,1c0.6,0.2,3.8,1.4,6,1.7
		c2.2,0.3,7.3,0.7,9.4,0.6c0.7,0,8.8,0.2,13.7-2.1c0,0,1.2-0.3,1.3-1.7c0-1.5-0.1-7.2-0.1-7.2s0.1-3.3,0.5-4.5
		c0.4-1.2,1.4-1.5,2.3-1.5c0.9,0.1,1.9,0.4,2.1,1.7c0.3,1.3,0.5,3.4,0.5,5.1c0,1.7,0,2.6-0.1,3.1c-0.1,0.5-0.1,1.1,0.3,1.4
		c0.3,0.2,1.3-0.1,1.7-0.2c0.4-0.2,2.4-1.3,2.4-1.3s1.6-0.7,2.5,0.7c0.8,1.3,0.4,2.4-0.3,3.1C61,43.3,59,45.2,56.9,46
		c-2.1,0.8-7.9,3-9.8,3.5c-1.9,0.5-6.8,1.6-10.6,1.6c-3.8,0-7,0-9.7-0.5c-2.6-0.5-7.7-1.5-11.7-3.2c-2.1-1-6.9-3.2-8.7-4.6
		c0,0-1.4-1.3-1.3-2.5c0.2-1.2,0.9-1.8,1.7-1.9c0.9-0.1,1.5,0.2,2.1,0.5c0.6,0.3,2.1,1.3,2.1,1.3s0.1-0.1,0.4,0.1
		c0.4,0.1,0.6,0.2,0.6,0.2s0.2,0.2,0.3-0.4c0.1-0.6,0.4-3.3,0.6-4.7c0.1-1.4,0.3-19,0.3-19s0.2-0.6-0.4-0.5c-0.5,0-0.8,0.3-0.8,0.3
		s-2,1.1-2.5,1.3C9.1,17.5,8.1,18,7,17.4C6.6,17.2,6,16.9,5.8,16.4"/>
	<path class="st1" d="M8.3,24.9c0,0,2.9-0.2,3.1,3.1c0.2,2.4-2.4,2.9-2.4,2.9s-3.7,0.4-3.6-3.3C5.5,25.1,8.3,24.9,8.3,24.9"/>
	<path class="st1" d="M56.8,28.5c0,0-0.1-2.7,2.8-2.9c2.6-0.2,3.1,2.9,3.1,2.9s0,3-2.9,3C57,31.5,56.8,28.5,56.8,28.5"/>
</g>
</svg>
