<?xml version="1.0" encoding="utf-8"?>
<!-- Generator: Adobe Illustrator 23.0.3, SVG Export Plug-In . SVG Version: 6.00 Build 0)  -->
<svg version="1.1" xmlns="http://www.w3.org/2000/svg" xmlns:xlink="http://www.w3.org/1999/xlink" x="0px" y="0px"
	 viewBox="0 0 757.5 233.2" style="enable-background:new 0 0 757.5 233.2;" xml:space="preserve">
<style type="text/css">
	.st0{fill:#CB2A27;}
	.st1{fill:#9E2F2B;}
	.st2{fill:url(#SVGID_1_);}
	.st3{fill-rule:evenodd;clip-rule:evenodd;fill:url(#SVGID_2_);}
	.st4{fill-rule:evenodd;clip-rule:evenodd;fill:url(#SVGID_3_);}
	.st5{fill-rule:evenodd;clip-rule:evenodd;fill:url(#SVGID_4_);}
	.st6{fill-rule:evenodd;clip-rule:evenodd;fill:url(#SVGID_5_);}
	.st7{fill:#878787;}
	.st8{fill:url(#SVGID_6_);}
	.st9{fill:url(#SVGID_7_);}
	.st10{fill:url(#SVGID_8_);}
	.st11{fill:url(#SVGID_9_);}
	.st12{fill:url(#SVGID_10_);}
	.st13{fill:url(#SVGID_11_);}
	.st14{display:none;}
</style>
<g id="Layer_2">
	<polygon points="56,1.1 56,115 130.8,115 130.8,163.3 0,163.3 0,1.1 	"/>
	<polygon points="208.7,1.1 242,55.9 275.4,1.1 333.1,1.1 333.1,163.3 277.3,163.3 277.3,87.5 242.8,141 240.4,141 205.9,87.5 
		205.9,163.3 151,163.3 151,1.1 	"/>
	<path d="M444.7,67.8l-12.6,33.5h25.2L444.7,67.8z M417.8,0h54.6l68.1,163.3l-60.6-0.1l-8.4-21.4h-53.9l-8.2,21.4h-59.8L417.8,0z"/>
	<polygon points="659.8,1.1 639.3,31.5 671.2,78.6 723.7,1.1 	"/>
	<polygon points="725.2,163 671,83.1 639.5,129.7 662.1,163 	"/>
	<g>
		<polygon class="st0" points="548.4,161.9 603.6,80.5 550.7,2.5 611.3,2.5 664.1,80.5 609,161.9 		"/>
		<path class="st1" d="M610.5,3.9l51.9,76.7l-54.2,80H551l53.1-78.4l1-1.5l-1-1.5L553.3,3.9H610.5 M612,1.1h-63.9l53.8,79.4
			l-56.1,82.7h63.9l56.1-82.7L612,1.1L612,1.1z"/>
	</g>
	<g>
		<linearGradient id="SVGID_1_" gradientUnits="userSpaceOnUse" x1="600.8477" y1="70.3759" x2="600.8477" y2="3.8969">
			<stop  offset="0" style="stop-color:#FFFFFF"/>
			<stop  offset="0.9448" style="stop-color:#D83A16"/>
		</linearGradient>
		<path class="st2" d="M553.4,3.9h57.2l37.7,55.7c0,0-13.9,6.7-49.9,10.8L553.4,3.9z"/>
	</g>
	
		<linearGradient id="SVGID_2_" gradientUnits="userSpaceOnUse" x1="-58.214" y1="386.8914" x2="-56.1955" y2="386.8914" gradientTransform="matrix(0 56.2842 56.2842 0 -21747.8926 3259.2373)">
		<stop  offset="0" style="stop-color:#000000"/>
		<stop  offset="8.490400e-02" style="stop-color:#1E1E1D"/>
		<stop  offset="0.2228" style="stop-color:#444443"/>
		<stop  offset="0.3965" style="stop-color:#6C6B6B"/>
		<stop  offset="0.5991" style="stop-color:#9D9C9C"/>
		<stop  offset="0.8233" style="stop-color:#D4D4D3"/>
		<stop  offset="1" style="stop-color:#FFFFFF"/>
	</linearGradient>
	<path class="st3" d="M2.7,96.1c15.8-6.7,34.5-12.3,50.5-15.2V3.8H2.7V96.1z"/>
	
		<linearGradient id="SVGID_3_" gradientUnits="userSpaceOnUse" x1="-58.5051" y1="388.4977" x2="-56.4348" y2="388.4977" gradientTransform="matrix(0 40.0685 40.0685 0 -15324.4746 2333.5942)">
		<stop  offset="0" style="stop-color:#000000"/>
		<stop  offset="8.490400e-02" style="stop-color:#1E1E1D"/>
		<stop  offset="0.2228" style="stop-color:#444443"/>
		<stop  offset="0.3965" style="stop-color:#6C6B6B"/>
		<stop  offset="0.5991" style="stop-color:#9D9C9C"/>
		<stop  offset="0.8233" style="stop-color:#D4D4D3"/>
		<stop  offset="1" style="stop-color:#FFFFFF"/>
	</linearGradient>
	<path class="st4" d="M242,61L207.3,3.8h-53.5V72c65.7-8.2,130.7-5.2,176.6,0.3V3.8h-52.9L242,61z"/>
	
		<linearGradient id="SVGID_4_" gradientUnits="userSpaceOnUse" x1="-58.3142" y1="390.9278" x2="-56.2234" y2="390.9278" gradientTransform="matrix(0 50.0393 50.0393 0 -19116.4063 2903.0906)">
		<stop  offset="0" style="stop-color:#000000"/>
		<stop  offset="8.490400e-02" style="stop-color:#1E1E1D"/>
		<stop  offset="0.2228" style="stop-color:#444443"/>
		<stop  offset="0.3965" style="stop-color:#6C6B6B"/>
		<stop  offset="0.5991" style="stop-color:#9D9C9C"/>
		<stop  offset="0.8233" style="stop-color:#D4D4D3"/>
		<stop  offset="1" style="stop-color:#FFFFFF"/>
	</linearGradient>
	<path class="st5" d="M419.6,2.7l-32.3,77.3c14,2.4,28.5,3,48.1,4.8l9.3-24.8l9.4,25c17.1,0.6,31.1-1.3,49.3-4.1L470.6,2.7H419.6z"
		/>
	
		<linearGradient id="SVGID_5_" gradientUnits="userSpaceOnUse" x1="-58.7918" y1="395.7662" x2="-56.7485" y2="395.7662" gradientTransform="matrix(0 30.094 30.094 0 -11229.6084 1763.9579)">
		<stop  offset="0" style="stop-color:#000000"/>
		<stop  offset="8.490400e-02" style="stop-color:#1E1E1D"/>
		<stop  offset="0.2228" style="stop-color:#444443"/>
		<stop  offset="0.3965" style="stop-color:#6C6B6B"/>
		<stop  offset="0.5991" style="stop-color:#9D9C9C"/>
		<stop  offset="0.8233" style="stop-color:#D4D4D3"/>
		<stop  offset="1" style="stop-color:#FFFFFF"/>
	</linearGradient>
	<path class="st6" d="M661.3,3.9l-18.7,27.6l15.5,23c15.8-4.9,24.9-8.7,37.2-16.4l23.2-34.2H661.3z"/>
	<g>
		<g>
			<polygon class="st7" points="733.7,2.2 728.6,2.2 728.6,0.5 740.7,0.5 740.7,2.2 735.7,2.2 735.7,15.7 733.7,15.7 			"/>
			<polygon class="st7" points="742.4,0.5 745.2,0.5 750,13.3 754.8,0.5 757.5,0.5 757.5,15.7 755.6,15.7 755.6,3.1 755.6,3.1 
				750.9,15.7 749.1,15.7 744.4,3.1 744.4,3.1 744.4,15.7 742.4,15.7 			"/>
		</g>
	</g>
	<g>
		<g>
			<path class="st7" d="M0.3,189.3h31.2v4.4H5.2v14.7h23.6v4.4H5.2V228h26.7v4.4H0.3V189.3z"/>
		</g>
		<g>
			<path class="st7" d="M129.2,189.3l-15.9,21.2l16.5,22H124l-13.8-18.6l-13.8,18.6h-5.6l16.5-22l-15.9-21.2h5.7l13.2,17.8
				l13.2-17.8H129.2z"/>
		</g>
		<g>
			<path class="st7" d="M186.8,211v-0.1c0-12.2,9.1-22.3,21.8-22.3c7.8,0,12.5,2.8,16.8,6.9l-3.3,3.6c-3.6-3.5-7.7-5.9-13.6-5.9
				c-9.6,0-16.7,7.8-16.7,17.7v0.1c0,10,7.2,17.8,16.7,17.8c5.9,0,9.8-2.3,13.9-6.2l3.2,3.1c-4.5,4.6-9.4,7.6-17.3,7.6
				C196,233.2,186.8,223.4,186.8,211z"/>
		</g>
		<g>
			<path class="st7" d="M287.3,189.3h4.9v19.2h24.9v-19.2h4.9v43.2h-4.9V213h-24.9v19.4h-4.9V189.3z"/>
		</g>
		<g>
			<path class="st7" d="M403.2,189h4.6l19.7,43.5h-5.2l-5.1-11.4h-23.5l-5.1,11.4h-5L403.2,189z M415.3,216.6l-9.8-22l-9.9,22H415.3
				z"/>
		</g>
		<g>
			<path class="st7" d="M489,189.3h4.6l27.2,34.6v-34.6h4.8v43.2h-3.9l-27.9-35.4v35.4H489V189.3z"/>
		</g>
		<g>
			<path class="st7" d="M588.9,211v-0.1c0-11.8,8.7-22.3,21.7-22.3c7.3,0,11.8,2.1,16.1,5.7l-3.1,3.7c-3.3-2.9-7-4.9-13.1-4.9
				c-9.6,0-16.4,8.1-16.4,17.7v0.1c0,10.3,6.6,18,17.1,18c4.9,0,9.5-1.9,12.5-4.3v-10.7h-13.1v-4.4h17.8v17.2
				c-4,3.6-10.1,6.6-17.3,6.6C597.3,233.2,588.9,223.3,588.9,211z"/>
		</g>
		<g>
			<path class="st7" d="M694.6,189.3h31.2v4.4h-26.3v14.7H723v4.4h-23.6V228h26.7v4.4h-31.5V189.3z"/>
		</g>
	</g>
	<g>
		<linearGradient id="SVGID_6_" gradientUnits="userSpaceOnUse" x1="685.9536" y1="190.5763" x2="685.9536" y2="165.0468">
			<stop  offset="0" style="stop-color:#FFFFFF;stop-opacity:0"/>
			<stop  offset="0.1367" style="stop-color:#FCFBFB;stop-opacity:0.1367"/>
			<stop  offset="0.3011" style="stop-color:#F1F1F1;stop-opacity:0.3011"/>
			<stop  offset="0.4796" style="stop-color:#DFDFDF;stop-opacity:0.4796"/>
			<stop  offset="0.6683" style="stop-color:#C5C5C5;stop-opacity:0.6683"/>
			<stop  offset="0.8628" style="stop-color:#A3A2A2;stop-opacity:0.8628"/>
			<stop  offset="1" style="stop-color:#858584"/>
		</linearGradient>
		<polygon class="st8" points="725.2,165 662.1,165 646.7,187.8 709.8,187.8 		"/>
		<g>
			<linearGradient id="SVGID_7_" gradientUnits="userSpaceOnUse" x1="445.084" y1="187.791" x2="445.084" y2="165.0468">
				<stop  offset="0" style="stop-color:#FFFFFF;stop-opacity:0"/>
				<stop  offset="0.1367" style="stop-color:#FCFBFB;stop-opacity:0.1367"/>
				<stop  offset="0.3011" style="stop-color:#F1F1F1;stop-opacity:0.3011"/>
				<stop  offset="0.4796" style="stop-color:#DFDFDF;stop-opacity:0.4796"/>
				<stop  offset="0.6683" style="stop-color:#C5C5C5;stop-opacity:0.6683"/>
				<stop  offset="0.8628" style="stop-color:#A3A2A2;stop-opacity:0.8628"/>
				<stop  offset="1" style="stop-color:#858584"/>
			</linearGradient>
			<polygon class="st9" points="540.6,165 480.7,165 472.5,186.4 418.6,186.4 410.2,165 349.6,165 359.1,187.8 531.1,187.8 			"/>
		</g>
		<g>
			<linearGradient id="SVGID_8_" gradientUnits="userSpaceOnUse" x1="305.1253" y1="187.791" x2="305.1253" y2="165.0468">
				<stop  offset="0" style="stop-color:#FFFFFF;stop-opacity:0"/>
				<stop  offset="0.1367" style="stop-color:#FCFBFB;stop-opacity:0.1367"/>
				<stop  offset="0.3011" style="stop-color:#F1F1F1;stop-opacity:0.3011"/>
				<stop  offset="0.4796" style="stop-color:#DFDFDF;stop-opacity:0.4796"/>
				<stop  offset="0.6683" style="stop-color:#C5C5C5;stop-opacity:0.6683"/>
				<stop  offset="0.8628" style="stop-color:#A3A2A2;stop-opacity:0.8628"/>
				<stop  offset="1" style="stop-color:#858584"/>
			</linearGradient>
			<rect x="277.2" y="165" class="st10" width="55.9" height="22.7"/>
		</g>
		<g>
			<linearGradient id="SVGID_9_" gradientUnits="userSpaceOnUse" x1="178.4529" y1="187.791" x2="178.4529" y2="165.0468">
				<stop  offset="0" style="stop-color:#FFFFFF;stop-opacity:0"/>
				<stop  offset="0.1367" style="stop-color:#FCFBFB;stop-opacity:0.1367"/>
				<stop  offset="0.3011" style="stop-color:#F1F1F1;stop-opacity:0.3011"/>
				<stop  offset="0.4796" style="stop-color:#DFDFDF;stop-opacity:0.4796"/>
				<stop  offset="0.6683" style="stop-color:#C5C5C5;stop-opacity:0.6683"/>
				<stop  offset="0.8628" style="stop-color:#A3A2A2;stop-opacity:0.8628"/>
				<stop  offset="1" style="stop-color:#858584"/>
			</linearGradient>
			<rect x="151" y="165" class="st11" width="54.8" height="22.7"/>
		</g>
		<linearGradient id="SVGID_10_" gradientUnits="userSpaceOnUse" x1="65.4075" y1="190.5763" x2="65.4075" y2="165.0468">
			<stop  offset="0" style="stop-color:#FFFFFF;stop-opacity:0"/>
			<stop  offset="0.1367" style="stop-color:#FCFBFB;stop-opacity:0.1367"/>
			<stop  offset="0.3011" style="stop-color:#F1F1F1;stop-opacity:0.3011"/>
			<stop  offset="0.4796" style="stop-color:#DFDFDF;stop-opacity:0.4796"/>
			<stop  offset="0.6683" style="stop-color:#C5C5C5;stop-opacity:0.6683"/>
			<stop  offset="0.8628" style="stop-color:#A3A2A2;stop-opacity:0.8628"/>
			<stop  offset="1" style="stop-color:#858584"/>
		</linearGradient>
		<rect y="165" class="st12" width="130.8" height="22.7"/>
		<g>
			<linearGradient id="SVGID_11_" gradientUnits="userSpaceOnUse" x1="585.5742" y1="187.791" x2="585.5742" y2="165.0927">
				<stop  offset="0" style="stop-color:#FFFFFF;stop-opacity:0"/>
				<stop  offset="0.1079" style="stop-color:#FFFBF9;stop-opacity:8.095104e-02"/>
				<stop  offset="0.2515" style="stop-color:#FEEEE8;stop-opacity:0.1886"/>
				<stop  offset="0.4152" style="stop-color:#FCD9CB;stop-opacity:0.3114"/>
				<stop  offset="0.5938" style="stop-color:#F8BAA2;stop-opacity:0.4454"/>
				<stop  offset="0.7846" style="stop-color:#F28F70;stop-opacity:0.5884"/>
				<stop  offset="0.9826" style="stop-color:#EA553A;stop-opacity:0.737"/>
				<stop  offset="1" style="stop-color:#E94F35;stop-opacity:0.75"/>
			</linearGradient>
			<polygon class="st13" points="609.8,165.1 545.9,165.1 561.3,187.8 625.2,187.8 			"/>
		</g>
	</g>
</g>
<g id="Layer_1" class="st14">
</g>
</svg>
