<?xml version="1.0" encoding="utf-8"?>
<!-- Generator: Adobe Illustrator 23.0.3, SVG Export Plug-In . SVG Version: 6.00 Build 0)  -->
<svg version="1.1" id="Layer_1" xmlns="http://www.w3.org/2000/svg" xmlns:xlink="http://www.w3.org/1999/xlink" x="0px" y="0px"
	 viewBox="0 0 622.5 136.1" style="enable-background:new 0 0 622.5 136.1;" xml:space="preserve">
<style type="text/css">
	.st0{fill:#002D6A;}
	.st1{fill:#B4975A;}
	.st2{fill:#FFFFFF;}
</style>
<g id="XMLID_1_">
	<rect id="XMLID_52_" class="st0" width="622.5" height="136.1"/>
	<path id="XMLID_99_" class="st1" d="M590.2,71.6c0-1.7-0.3-3.2-0.8-4.4l-3.2,0c0.2,1.1,0.2,2.3,0.2,3.4h-6.8c0-0.9,0.1-2.2,0.4-3.3
		h0c0.5-1.6,1.4-3,3-3c1.9,0,2.8,1.4,3.1,3h3.2c-1.1-2.5-3.1-3.9-6-3.9c-2.8,0-4.8,1.6-6.1,3.9l1.4,0l-1.4,0
		c-0.8,1.6-1.3,3.5-1.3,5.5c0,5.2,1.9,9.5,6.8,9.5c3.5,0,5.5-1.3,6.8-5.6l-0.9-0.3c-0.9,2.5-2.2,4.7-4.9,4.7c-4.1,0-4.2-3.7-4.2-8.9
		v-0.7H590.2z M575.5,67.2c0-0.2,0-0.4,0-0.6c0-2.2-1.2-3.3-3-3.3c-2.2,0-3.5,2-4.3,4l0.5,0l-0.5,0l-0.2,0.5v-0.5v-3.6h-5.9v0.9h2.7
		v2.6V81h-2.7v0.9h8.6V81h-2.6v-8.3c0-2,0.4-3.9,1.1-5.4c0.7-1.5,1.6-2.5,2.4-2.5c0.4,0,0.8,0.3,0.8,0.9v1.6L575.5,67.2z
		 M575.5,67.2h-3.1v0.1c0,1.1,0.6,1.5,1.5,1.5C574.9,68.9,575.4,68.2,575.5,67.2 M561,72.8c0-1.7-0.3-3.8-1.2-5.6h-0.6h0.6
		c-1.1-2.2-3-4-6.1-4c-3.1,0-5,1.8-6.1,4c-0.9,1.8-1.2,3.9-1.2,5.6c0,3.7,1.7,9.5,7.3,9.5C559.2,82.3,561,76.5,561,72.8 M556.9,67.2
		c0.4,1.6,0.4,3.7,0.4,5.6c0,3.9,0,8.6-3.7,8.6c-3.7,0-3.7-4.7-3.7-8.6c0-1.9,0-3.9,0.4-5.6h-2.2l2.2,0c0.5-1.7,1.4-3,3.3-3
		C555.5,64.2,556.5,65.5,556.9,67.2 M544.1,72.8c0-2.3-0.4-4.1-1-5.6l-2.1,0l2.1,0c-1.2-2.8-3.3-4-5.5-4c-2.1,0-3.6,0.7-4.6,3
		c0-2.6,0-2.6,0-2.6h-5.9v1h2.6v2.6l3.6,0c0.8-2.2,2.2-2.8,3.2-2.8c1.6,0,2.6,1.1,3.2,2.8c0.5,1.5,0.7,3.4,0.7,5.6
		c0,5.3-1.4,8.4-3.9,8.4c-3.2,0-3.7-3.9-3.7-7.1v-3c0-1.6,0.2-2.9,0.5-3.8h-3.6v21.9h-2.8V90h8.8v-0.9h-2.7v-9.3
		c0.7,1.8,2.3,2.6,4.1,2.6C542,82.3,544.1,77.8,544.1,72.8 M524.3,81.9h2.4V81c-1.8,0-2.5,0.3-2.5-2.5v-9.8c0-0.5,0-0.9-0.1-1.4h0
		c-0.3-2.3-1.8-4-5.9-4c-2.4,0-5.8,0.8-6.1,4h0l0,0.4c0,1.1,0.6,1.4,1.4,1.4c1,0,1.5-0.5,1.6-1.8l-1,0l1,0v-0.2
		c0-2.3,1.5-2.9,3.1-2.9c1.7,0,2.5,1.2,2.7,3.1c0,0.4,0.1,0.8,0.1,1.2V70c-4,1.4-9.7,1.5-9.7,7c0,3.4,1.1,5.3,4.4,5.3
		c2.1,0,3.9-0.6,5.1-2.9C521.3,81.7,522.5,81.9,524.3,81.9 M521,71v4.3c0,2.5-1.2,5.7-4,5.7c-1.7,0-2.2-1.9-2.2-4.2
		c0-3.6,1.4-4.4,3.3-5L521,71z M510.3,65.4c0-1.4-1-2.2-2-2.2c-1.1,0-1.8,0.7-2.3,1.5c-1.1-1.1-2.7-1.5-4.3-1.5c-2.2,0-4.3,1.5-5,4
		h0c-0.1,0.5-0.2,1-0.2,1.6c0,1.6,0.2,2.6,1.1,3.9c-1.5,0.7-2.8,2-2.8,4.2c0,2.1,1.2,3.7,3.2,4.3c-1.5,0.3-3.1,1.4-3.1,3.6
		c0,4.4,4.7,5.2,7.4,5.2c3.4,0,7.6-1.7,7.6-6.7c0-4.1-2.3-5.7-5.5-5.7h-5.5c-1.8,0-2.9-0.3-2.9-1.6c0-1.3,1.4-2.3,2.3-2.3
		c1.1,0.7,2.4,1.2,3.7,1.2c3,0,5.3-2.3,5.3-5.9c0-0.6-0.1-1.2-0.2-1.7h0c-0.1-0.5-0.3-1-0.6-1.5c0-0.4,0.6-1.1,0.9-1.1
		c1.1,0,0,2.4,1.7,2.4C509.9,67,510.3,66.3,510.3,65.4 M503.8,81.3c3,0,4.6,0.5,4.6,3c0,2.6-2.6,4.7-5.9,4.7c-3.2,0-5.5-1-5.5-4
		C497.1,81.6,499.4,81.3,503.8,81.3 M504.2,67.2L504.2,67.2c0.1,0.7,0.1,1.3,0.1,2c0,2-0.2,4.7-2.4,4.7c-2.3,0-2.4-3.2-2.4-5.2
		c0-0.5,0-1,0-1.5l-0.8,0l0.8,0c0.1-1.7,0.6-3.1,2.4-3.1C503.6,64.2,504,65.6,504.2,67.2 M485.7,81.9h8.2V81h-2.5V68.5
		c0-0.5,0-0.9-0.1-1.2l-3.2,0c0.1,0.5,0.1,0.9,0.1,1.4V81h-2.5V81.9z M488.1,67.2l3.2,0c-0.3-2.8-1.9-4-4.6-4
		c-2.6,0-4.5,1.4-5.5,3.9v-3.5h-5.9v1h2.7v2.6h4c0.7-1.6,1.9-2.6,3.6-2.6C487.3,64.6,487.9,65.8,488.1,67.2 M482,67.2h-4V81h-2.7
		v0.9h8.4V81h-2.5v-9.6C481.2,69.8,481.5,68.4,482,67.2 M466.3,81.9h8.6V81h-2.7V67.2v-3.6h-5.9v0.9h2.7v2.6V81h-2.7V81.9z
		 M472.6,57.9c0-1.4-0.9-2.2-2-2.2c-1.1,0-2,0.8-2,2.2c0,1.3,0.9,2.2,2,2.2C471.6,60.1,472.6,59.3,472.6,57.9 M452.5,60.8
		c0-2.9,2.5-4.9,4.7-4.9c2.9,0,5.2,2.3,5.6,6.5h1l-0.2-5.8c-1.7-0.9-4.2-1.6-6.1-1.6c-3.7,0-7.6,2.2-7.6,7.3c0,2.3,0.7,3.8,1.9,5h0
		c3.4,3.5,10.3,3.4,10.3,8.8c0,3.6-2.4,5.3-5,5.3c-4,0-6.5-2.8-6.8-7.5h-1l0.2,6.7c1.9,1,5.2,1.6,7.3,1.6c4.4,0,7.8-2,7.8-7.6
		c0-4.1-2.1-6.1-4.5-7.4h0C456.7,65.3,452.5,64.7,452.5,60.8 M442.8,58.5c0-2.9-2.8-3.6-4.7-3.6c-2.4,0-5,1-5,5.1v3.7h-2.7v0.9h2.7
		v2.6V81h-2.7v0.9h8.4V81h-2.5V67.2v-2.6h3v-0.9h-3v-4.1c0-2.2,0.2-3.7,1.9-3.7c1.2,0,1.7,0.9,1.7,2.5c0,1.2,0.4,1.7,1.5,1.7
		C442.2,60.1,442.8,59.5,442.8,58.5 M429.2,72.8c0-1.7-0.4-3.8-1.2-5.6h-0.6h0.6c-1.1-2.2-3-4-6.1-4c-3.1,0-5,1.8-6.1,4
		c-0.9,1.8-1.2,3.9-1.2,5.6c0,3.7,1.7,9.5,7.3,9.5C427.4,82.3,429.2,76.5,429.2,72.8 M425.2,67.2c0.4,1.6,0.4,3.7,0.4,5.6
		c0,3.9,0,8.6-3.7,8.6c-3.7,0-3.7-4.7-3.7-8.6c0-1.9,0-3.9,0.4-5.6h-2.2l2.2,0c0.5-1.7,1.4-3,3.3-3
		C423.8,64.2,424.7,65.5,425.2,67.2 M407.3,64.6l0-0.9h-6.4v0.9h3l-0.9,2.7l-2.4,7.4c-0.4,1.3-0.8,2.7-0.9,2.7c0,0-0.2-1.4-0.7-2.8
		l-2.3-7.3l-0.8-2.7h2.9v-0.9H390l-2.4,0v-4.9h-3.2v4.9h-2.6v0.9h2.6v2.6v10.3c0,2.4,0.3,4.6,3.6,4.6c2.5,0,3.6-1.3,4.3-3.2
		l-0.9-0.3c-0.5,1.2-1.1,2.2-2.3,2.2c-1.3,0-1.6-1-1.6-3.2V67.2v-2.6h3.5l1.3,0l0.9,2.7l4.9,14.6l-0.6,2.3c-0.9,3.3-2,4.8-3,4.8
		c-0.9,0-1.1-1-1.1-1.9c0-1-0.2-1.9-1.4-1.9c-0.9,0-1.4,0.8-1.4,2.1c0,1.6,1,3.1,2.9,3.1c4.2,0,4.7-5.7,5.6-8.4l4.9-14.6l0.9-2.7
		H407.3z M372.7,81.9h8.6V81h-2.7V67.2v-3.6h-5.9v0.9h2.7v2.6V81h-2.7V81.9z M379,57.9c0-1.4-0.9-2.2-2-2.2c-1.1,0-2,0.8-2,2.2
		c0,1.3,0.9,2.2,2,2.2C378.1,60.1,379,59.3,379,57.9 M372.4,67.2c0-0.2,0-0.4,0-0.6c0-2.2-1.1-3.3-3-3.3c-2.2,0-3.5,2-4.2,4l0.5,0
		l-0.5,0l-0.2,0.5v-0.5v-3.6h-5.9v0.9h2.7v2.6V81h-2.7v0.9h8.6V81H365v-8.3c0-2,0.4-3.9,1.1-5.4c0.7-1.5,1.6-2.5,2.5-2.5
		c0.4,0,0.8,0.3,0.8,0.9v1.6L372.4,67.2z M372.4,67.2h-3.1v0.1c0,1.1,0.6,1.5,1.5,1.5C371.7,68.9,372.3,68.2,372.4,67.2 M357.9,72.8
		c0-1.7-0.3-3.8-1.2-5.6H356h0.6c-1.1-2.2-3-4-6.1-4c-3.1,0-5,1.8-6.1,4h0c-0.9,1.8-1.2,3.9-1.2,5.6c0,3.7,1.7,9.5,7.3,9.5
		C356.1,82.3,357.9,76.5,357.9,72.8 M353.8,67.2c0.4,1.6,0.4,3.7,0.4,5.6c0,3.9,0,8.6-3.7,8.6c-3.7,0-3.7-4.7-3.7-8.6
		c0-1.9,0-3.9,0.4-5.6H345l2.2,0c0.5-1.7,1.4-3,3.3-3C352.4,64.2,353.4,65.5,353.8,67.2 M333.7,81.9h8.2V81h-2.5V68.5
		c0-0.5,0-0.9-0.1-1.2l-3.2,0c0.1,0.5,0.1,0.9,0.1,1.4V81h-2.5V81.9z M336.1,67.2l3.2,0c-0.3-2.8-1.9-4-4.6-4
		c-2.6,0-4.5,1.4-5.5,3.9V55.4h-5.9v0.9h2.7v11h4c0.7-1.6,1.9-2.6,3.6-2.6C335.4,64.6,336,65.8,336.1,67.2 M330.1,67.2h-4V81h-2.7
		v0.9h8.4V81h-2.5v-9.6C329.3,69.8,329.5,68.4,330.1,67.2 M318.9,67.2v-2.6h3.5v-0.9h-3.5v-4.9h-3.2v4.9h-2.6v0.9h2.6v2.6v10.3
		c0,2.4,0.3,4.6,3.6,4.6c2.5,0,3.6-1.3,4.3-3.2l-0.9-0.3c-0.5,1.2-1.1,2.2-2.3,2.2c-1.3,0-1.6-1-1.6-3.2V67.2z M306.8,81.9h5.9V81
		H310V67.2v-3.5H304v0.9h2.9v2.6v7c0,3.5-1.5,6.7-4.4,6.7c-2.2,0-2.5-2-2.5-4.1v-9.7v-3.5h-5.7v0.9h2.5v2.6v9.9
		c0,3.7,1.5,5.2,4.6,5.2c2.6,0,4.5-1.4,5.5-3.9C306.8,81.9,306.8,81.9,306.8,81.9 M296.3,81h-2.9l-4-13.7l-3.6-12.3h-0.8l-3.5,12.3
		L277.5,81h-2.7v0.9h7.2V81h-3.4l2.4-8.5h6l2.4,8.5h-3.3v0.9h10.2V81L296.3,81z M285.6,67.2l1.2,4.3h-5.5l1.2-4.3l0.7-2.5l1-3.3
		l0.7,3.3L285.6,67.2z M271,64.6l0-0.9h-6.4v0.9h3l-0.9,2.7l-2.4,7.4c-0.4,1.3-0.8,2.7-0.9,2.7c0,0-0.2-1.4-0.7-2.8l-2.3-7.3
		l-0.8-2.7h2.9v-0.9h-8.9v0.7c-0.5-0.7-1.3-1.1-2.4-1.1c-2.2,0-3.5,2-4.3,4l0.5,0l-0.5,0l-0.2,0.5v-0.5v-3.6H241v0.9h2.7v2.6V81H241
		v0.9h8.6V81h-2.6v-8.3c0-2,0.4-3.9,1.1-5.4h0c0.7-1.5,1.6-2.5,2.4-2.5c0.4,0,0.8,0.3,0.8,0.9v1.6l3.1,0c0-0.2,0-0.4,0-0.6
		c0-0.8-0.2-1.5-0.5-2h2.2l0.9,2.7l4.9,14.6l-0.6,2.3c-0.9,3.3-2,4.8-3,4.8c-0.9,0-1.1-1-1.1-1.9c0-1-0.2-1.9-1.4-1.9
		c-0.9,0-1.5,0.8-1.5,2.1c0,1.6,1,3.1,2.9,3.1c4.2,0,4.7-5.7,5.6-8.4l4.9-14.6l0.9-2.7H271L271,64.6z M254.3,67.2h-3.1v0.1
		c0,1.1,0.6,1.5,1.5,1.5C253.6,68.9,254.1,68.2,254.3,67.2 M238.3,81.9h2.4V81c-1.8,0-2.5,0.3-2.5-2.5v-9.8c0-0.5,0-0.9-0.1-1.4h0
		c-0.3-2.3-1.8-4-5.9-4c-2.4,0-5.8,0.8-6.1,4h0l0,0.4c0,1.1,0.6,1.4,1.4,1.4c1,0,1.5-0.5,1.6-1.8l-1,0l1,0l0-0.2
		c0-2.3,1.5-2.9,3.1-2.9c1.7,0,2.5,1.2,2.7,3.1c0,0.4,0.1,0.8,0.1,1.2V70c-4,1.4-9.7,1.5-9.7,7c0,3.4,1.1,5.3,4.4,5.3
		c2.1,0,3.9-0.6,5.1-2.9C235.4,81.7,236.6,81.9,238.3,81.9 M235,71v4.3c0,2.5-1.2,5.7-4,5.7c-1.7,0-2.2-1.9-2.2-4.2
		c0-3.6,1.4-4.4,3.3-5L235,71z M220.7,67.2v-2.6h3.5v-0.9h-3.5v-4.9h-3.2v4.9h-2.6v0.9h2.6v2.6v10.3c0,2.4,0.3,4.6,3.6,4.6
		c2.5,0,3.6-1.3,4.3-3.2l-0.9-0.3c-0.5,1.2-1.1,2.2-2.3,2.2c-1.3,0-1.6-1-1.6-3.2L220.7,67.2L220.7,67.2z M203.5,71.6H214
		c0-1.7-0.3-3.2-0.8-4.4l-3.2,0c0.2,1.1,0.2,2.3,0.2,3.4h-6.8c0-0.9,0.1-2.2,0.5-3.3c0.5-1.6,1.4-3,3-3c1.9,0,2.7,1.4,3.1,3h3.2
		c-1.1-2.5-3.1-3.9-6-3.9c-2.7,0-4.8,1.6-6.1,3.9l1.4,0l-1.4,0c-0.8,1.6-1.3,3.5-1.3,5.5c0,5.2,1.9,9.5,6.8,9.5
		c3.5,0,5.5-1.3,6.8-5.6l-0.9-0.3c-0.8,2.5-2.2,4.7-4.9,4.7c-4.1,0-4.2-3.7-4.2-8.9V71.6z M190.4,81.9h8.2V81h-2.5V68.5
		c0-0.5,0-0.9-0.1-1.2l-3.2,0c0.1,0.5,0.1,0.9,0.1,1.4V81h-2.5V81.9L190.4,81.9z M192.8,67.2l3.2,0c-0.3-2.8-1.9-4-4.6-4
		c-2.6,0-4.5,1.4-5.5,3.9v-3.5H180v1h2.7v2.6h4c0.7-1.6,1.9-2.6,3.6-2.6C192.1,64.6,192.7,65.8,192.8,67.2 M186.8,67.2h-4V81H180
		v0.9h8.4V81H186v-9.6C186,69.8,186.2,68.4,186.8,67.2 M178.8,72.8c0-1.7-0.3-3.8-1.2-5.6h-0.6h0.6c-1.1-2.2-3-4-6.1-4
		c-3.1,0-5,1.8-6.1,4c-0.9,1.8-1.2,3.9-1.2,5.6c0,3.7,1.7,9.5,7.3,9.5C177,82.3,178.8,76.5,178.8,72.8 M174.8,67.2
		c0.4,1.6,0.4,3.7,0.4,5.6c0,3.9,0,8.6-3.7,8.6c-3.7,0-3.7-4.7-3.7-8.6c0-1.9,0-3.9,0.4-5.6H166l2.2,0c0.5-1.7,1.4-3,3.3-3
		C173.4,64.2,174.3,65.5,174.8,67.2 M152.5,81.9h10V81h-2.9V67.2v-11h2.9v-0.9h-7.1l-3.9,11.9l-1.7,5.1l-1.3,4.1l-1.2-4l-1.7-5.2
		l-3.9-11.9h-7.3v0.9h3v11V81h-3v0.9h7.4V81h-3.4l0-13.7l0-10.3l3.4,10.3l5,15.1h0.7l5-15.1l3.5-10.3v10.3V81h-3.5V81.9L152.5,81.9z
		"/>
	<path id="XMLID_100_" class="st1" d="M112.3,68c0,22.9-17.9,41.5-40,41.5c-22.1,0-40-18.6-40-41.5s17.9-41.5,40-41.5
		C94.4,26.6,112.3,45.1,112.3,68"/>
	<path id="XMLID_101_" class="st2" d="M94.6,80.6c-3.8,0-5.8-3.5-6.2-9.3h-0.9v8.4c1.8,1.3,5,2,7,2c4.1,0,7.2-2.5,7.1-9.5
		c-0.3-12.5-11.6-9-11.9-17.3c-0.1-3.7,2.2-6.2,4.2-6.2c2.7,0,4.9,2.8,5.5,8.1h0.9v-7.3c-1.6-1.2-4.4-1.9-6.1-1.9
		c-3.4,0-7,2.8-6.9,9.1C87.6,68.2,98.9,65,99.1,74C99.2,78.4,97,80.6,94.6,80.6"/>
	<path id="XMLID_104_" class="st2" d="M73.3,68.4l3.2-14.2l2.8,14.2H73.3z M78.5,81.3h8.9v-1.5h-2.3l-6.3-32.1h-2.2l-7.1,32.1h-1.2
		h-2.6v-30h2.6v-1.5h-6.4l-6.2,26.3l-6.2-26.3H43v1.5h2.3v30H43v1.5h6.7v-1.5h-3.1V50.2h0.1l7.6,31.7h0.9l7.2-30.6h0.1v28.5h-3.1
		v1.5h8.9h5.6v-1.5h-3l2.2-9.8h6.7l1.9,9.8h-3L78.5,81.3L78.5,81.3z"/>
</g>
</svg>
