<?xml version="1.0" encoding="UTF-8"?><svg id="a" xmlns="http://www.w3.org/2000/svg" viewBox="0 0 278.98 39.06"><defs><style>.b{fill:#0868b2;}.c{fill:#e7363e;}</style></defs><path class="b" d="M31.19,15.99h2.63c1.65,0,3.39,.38,4.88,1.11v-1.33c0-.95-1.81-3.08-6.22-3.08-2.09,0-3.92,.19-5.47,1-.41,.22-1.16-.39-1.67-1.34-.51-.96-.56-1.92-.15-2.13,2.43-1.28,5.06-1.45,7.29-1.45,4.68,0,10.15,2.39,10.15,7.01v7.82c0,4.15-4.17,6.68-8.13,6.68h-3.98c-3.97,0-8.13-2.53-8.13-6.68v-.93c0-4.29,4.68-6.67,8.81-6.67m0,3.93c-3.43,0-4.88,1.84-4.88,2.75v.93c0,1.06,1.36,2.75,4.21,2.75h3.98c2.85,0,4.21-1.69,4.21-2.75v-.93c0-.91-1.45-2.75-4.88-2.75h-2.63Zm34.77,2.32c0,1.73,2.16,4.06,6.16,4.06s6.17-2.34,6.17-4.06v-5.47c0-1.73-2.16-4.06-6.17-4.06s-6.17,2.33-6.17,4.06v5.47Zm16.3,0c0,4.94-5.12,8.03-10.13,8.03s-10.13-3.09-10.13-8.03v-5.47c0-4.94,5.12-8.03,10.13-8.03s10.13,3.09,10.13,8.03v5.47Zm33.65-6.25h2.63c1.65,0,3.39,.38,4.88,1.11v-1.33c0-.95-1.81-3.09-6.22-3.09-2.09,0-3.92,.19-5.47,1-.41,.22-1.16-.38-1.67-1.34-.51-.96-.56-1.92-.15-2.14,2.43-1.27,5.06-1.45,7.29-1.45,4.68,0,10.15,2.39,10.15,7.01v7.82c0,4.15-4.17,6.67-8.13,6.67h-3.98c-3.97,0-8.14-2.53-8.14-6.67v-.93c0-4.3,4.68-6.67,8.81-6.67m0,3.93c-3.43,0-4.88,1.84-4.88,2.75v.93c0,1.06,1.36,2.75,4.21,2.75h3.98c2.85,0,4.21-1.69,4.21-2.75v-.93c0-.91-1.45-2.75-4.88-2.75h-2.63Zm-27.23,8.29v1.14c0,.47-.89,.84-1.98,.84s-1.98-.38-1.98-.84v-12.58c0-4.94,5.12-8.03,10.13-8.03s10.13,3.09,10.13,8.02l.02,6.21v6.37c0,.46-.88,.84-1.97,.84-1.11,0-2-.38-2-.84v-12.58c-.01-1.73-2.18-4.06-6.18-4.06s-6.16,2.33-6.16,4.06v11.44h0ZM3.96,28.21v1.14c0,.47-.89,.84-1.98,.84s-1.98-.38-1.98-.84v-12.58c0-4.94,5.12-8.03,10.13-8.03s10.13,3.09,10.13,8.02v6.21l.02,5.23v1.14c0,.46-.89,.84-1.97,.84-1.11,0-2-.38-2-.84v-4.77l-.02-7.81c0-1.73-2.16-4.06-6.17-4.06s-6.17,2.34-6.17,4.06v11.44ZM55.59,15.96v-6.12c0-.46,.88-.84,1.97-.84,1.1,0,1.99,.38,1.99,.84V29.35c0,.47-.89,.84-1.98,.84s-1.98-.38-1.98-.84V15.96h0Zm0-13.55V.84C55.59,.38,56.48,0,57.57,0s1.98,.38,1.98,.84V3.19c0,.46-.89,.84-1.98,.84s-1.98-.38-1.98-.84v-.77Zm-10.06,4.8V.84c0-.46,.88-.84,1.97-.84,1.1,0,1.99,.38,1.99,.84V9.13h3.63c.46,0,.84,.88,.84,1.98,0,1.1-.38,1.99-.84,1.99h-3.63V29.35c0,.47-.89,.84-1.98,.84s-1.98-.38-1.98-.84V7.22h0Zm84.72,0V.84c0-.46,.88-.84,1.97-.84,1.1,0,1.99,.38,1.99,.84V29.35c0,.47-.89,.84-1.98,.84s-1.98-.38-1.98-.84V7.22h0Z"/><path class="c" d="M158.46,15.28c-.89-1.27-2.76-2.41-5.58-2.41-4.01,0-6.17,2.34-6.17,4.06v2.66l11.98-3.97-.23-.33Zm-15.71,7.18c-.01-.12-.01-.26,0-.37v-5.16c0-4.93,5.12-8.02,10.13-8.02s10.13,3.09,10.13,8.02c0,.6-.54,1.61-1.36,1.88l-14.59,4.84,.23,.33c.89,1.27,2.76,2.42,5.58,2.42,3.08,0,5.46-1.56,6.41-3.31l.41-.75c.22-.41,1.18-.33,2.13,.18,.96,.51,1.54,1.27,1.32,1.69l-.31,.62c-1.81,3.35-5.64,5.54-9.97,5.54-4.96,0-10.04-3.04-10.13-7.9m78.71,0c0-.12,0-.26,0-.37v-5.16c0-4.93,5.12-8.02,10.13-8.02,5.01,0,10.13,3.09,10.13,8.02,0,.6-.54,1.61-1.36,1.88l-14.59,4.84,.23,.33c.89,1.27,2.76,2.42,5.59,2.42,3.08,0,5.46-1.56,6.41-3.31l.41-.75c.22-.41,1.18-.33,2.14,.18,.96,.51,1.54,1.27,1.32,1.69l-.31,.62c-1.81,3.35-5.64,5.54-9.97,5.54-4.96,0-10.04-3.04-10.13-7.9m15.72-7.18c-.89-1.27-2.76-2.41-5.58-2.41-4.01,0-6.17,2.34-6.17,4.06v2.66l11.98-3.97-.23-.33Zm-45.73,7.01c0,1.73,2.16,4.06,6.17,4.06s6.17-2.34,6.17-4.06v-5.4c0-1.73-2.16-4.06-6.17-4.06s-6.17,2.33-6.17,4.06v5.4Zm16.3,0c0,4.94-5.12,8.03-10.13,8.03-2.18,0-4.38-.58-6.17-1.65v9.55c0,.46-.89,.84-1.98,.84s-1.98-.38-1.98-.84V16.89c0-4.93,5.12-8.02,10.13-8.02s10.13,3.09,10.13,8.02v5.4h0Zm12.7-9.19c-4.41,.02-6.19,2.15-6.19,3.1v13.27c0,.46-.89,.84-1.98,.84s-1.98-.38-1.98-.84V10.01c0-.46,.88-.84,1.97-.84s1.99,.38,1.99,.84v.89c1.84-1.28,4.1-1.71,6.19-1.71,.47-.02,.84,.86,.84,1.95,0,1.08-.38,1.96-.84,1.96m38.38-2.79c.55,.24,.54,1.09,.16,1.98-.38,.9-1.02,1.49-1.4,1.32-1.73-.81-3.12-1.1-5.02-1.1-2.49,0-4.17,.56-4.17,2.18,0,.8,.33,1.29,1.11,1.72,.38,.21,.88,.41,1.49,.62,.61,.21,1.35,.45,2.24,.73,4.32,1.42,7.26,2.87,7.26,6.33s-3.09,6.23-8.79,6.23c-2.3,0-5.33-.75-7.54-2.07l-.82-.46c-.35-.19-.27-1.02,.19-1.85,.46-.83,1.12-1.34,1.47-1.15l.56,.32c1.83,1,3.79,1.67,5.85,1.67,2.29,0,4.93-.65,4.93-2.61,0-1.51-1.4-2.06-6.17-3.7-3.96-1.37-5.98-3.14-5.98-6,0-3.41,3.41-5.62,7.98-5.62,3.11,0,4.66,.47,6.63,1.41m18.49,0c.55,.24,.55,1.09,.17,1.98s-1.02,1.49-1.4,1.32c-1.73-.81-3.11-1.1-5.02-1.1-2.49,0-4.17,.56-4.17,2.18,0,.8,.33,1.29,1.11,1.72,.38,.21,.88,.41,1.49,.62,.62,.21,1.36,.45,2.25,.73,4.32,1.42,7.26,2.87,7.26,6.33s-3.09,6.23-8.79,6.23c-2.3,0-5.33-.75-7.53-2.07l-.82-.46c-.35-.19-.26-1.02,.19-1.85,.46-.83,1.11-1.34,1.46-1.15l.57,.32c1.83,1,3.79,1.67,5.85,1.67,2.29,0,4.93-.65,4.93-2.61,0-1.51-1.4-2.05-6.17-3.69-3.96-1.37-5.98-3.14-5.98-6,0-3.41,3.41-5.62,7.98-5.62,3.11,0,4.66,.47,6.63,1.41m-94.69-1.14c.33-.33,1.22,.03,1.99,.8,.78,.78,1.14,1.67,.81,2l-7.55,7.55,7.86,7.86c.33,.33-.03,1.22-.81,2-.77,.77-1.67,1.14-2,.8l-7.86-7.86-7.86,7.86c-.33,.33-1.22-.03-2-.81-.77-.77-1.13-1.67-.81-2l7.86-7.86-7.55-7.55c-.33-.33,.03-1.22,.81-2,.77-.77,1.66-1.13,1.99-.8l7.55,7.55,7.55-7.55Z"/></svg>