<svg id="Layer_1" data-name="Layer 1" xmlns="http://www.w3.org/2000/svg" xmlns:xlink="http://www.w3.org/1999/xlink" viewBox="0 0 283.46 312.84"><defs><style>.cls-1{fill:url(#linear-gradient);}.cls-2{fill:url(#linear-gradient-2);}.cls-3{fill:url(#linear-gradient-3);}.cls-4{fill:none;}.cls-5{fill:#401663;}.cls-6{opacity:0.1;}.cls-7{clip-path:url(#clip-path);}.cls-8{fill:#fff;}.cls-9{clip-path:url(#clip-path-2);}.cls-10{mask:url(#mask);}.cls-11{fill:url(#linear-gradient-4);}.cls-12{clip-path:url(#clip-path-3);}.cls-13{mask:url(#mask-2);}.cls-14{fill:url(#linear-gradient-5);}.cls-15{clip-path:url(#clip-path-4);}.cls-16{mask:url(#mask-3);}.cls-17{fill:url(#linear-gradient-6);}.cls-18{fill:#ed1b2f;}.cls-19{fill:#d71925;}</style><linearGradient id="linear-gradient" x1="-58.44" y1="370.26" x2="-57.44" y2="370.26" gradientTransform="matrix(0, 60.9, 60.9, 0, -22372.91, 3650.43)" gradientUnits="userSpaceOnUse"><stop offset="0" stop-color="#1a1a1a"/><stop offset="0.14" stop-color="#232323"/><stop offset="0.37" stop-color="#3b3b3b"/><stop offset="0.66" stop-color="#636363"/><stop offset="1" stop-color="#999"/></linearGradient><linearGradient id="linear-gradient-2" x1="-58.44" y1="370.25" x2="-57.44" y2="370.25" gradientTransform="matrix(-57.2, 0, 0, 57.2, -3183.43, -21085.17)" xlink:href="#linear-gradient"/><linearGradient id="linear-gradient-3" x1="-58.44" y1="370.18" x2="-57.44" y2="370.18" gradientTransform="matrix(0, 78.27, 78.27, 0, -28859.78, 4693.9)" xlink:href="#linear-gradient"/><clipPath id="clip-path"><rect class="cls-4" x="18.7" width="246.05" height="213.08"/></clipPath><clipPath id="clip-path-2"><polygon class="cls-4" points="194.43 91.34 176.89 121.73 141.74 121.73 124.2 152.18 194.49 152.18 229.61 91.34 194.43 91.34"/></clipPath><mask id="mask" x="97.85" y="45.69" width="158.11" height="152.13" maskUnits="userSpaceOnUse"><rect class="cls-1" x="124.21" y="60.9" width="105.4" height="121.71" transform="translate(-16.99 214.09) rotate(-60)"/></mask><linearGradient id="linear-gradient-4" x1="-58.44" y1="370.26" x2="-57.44" y2="370.26" gradientTransform="matrix(0, 60.9, 60.9, 0, -22372.92, 3650.44)" gradientUnits="userSpaceOnUse"><stop offset="0" stop-color="#ed1b2f"/><stop offset="1" stop-color="#ed1b2f"/></linearGradient><clipPath id="clip-path-3"><polygon class="cls-4" points="71.47 60.84 89.11 91.33 124.14 91.33 141.74 121.73 176.89 121.73 141.75 60.84 71.47 60.84"/></clipPath><mask id="mask-2" x="41.49" y="8.93" width="165.39" height="164.71" maskUnits="userSpaceOnUse"><rect class="cls-2" x="66.98" y="31.34" width="114.41" height="119.9" transform="translate(-25.57 127.74) rotate(-50)"/></mask><linearGradient id="linear-gradient-5" x1="-58.44" y1="370.25" x2="-57.44" y2="370.25" gradientTransform="matrix(-57.2, 0, 0, 57.2, -3183.43, -21085.17)" xlink:href="#linear-gradient-4"/><clipPath id="clip-path-4"><polygon class="cls-4" points="89.02 152.18 124.16 213.08 141.72 182.56 124.2 152.18 141.74 121.73 124.14 91.33 89.02 152.18"/></clipPath><mask id="mask-3" x="29.07" y="65.37" width="172.63" height="173.67" maskUnits="userSpaceOnUse"><rect class="cls-3" x="51.8" y="92.88" width="127.16" height="118.65" transform="translate(-75.38 142.76) rotate(-50)"/></mask><linearGradient id="linear-gradient-6" x1="-58.44" y1="370.18" x2="-57.44" y2="370.18" gradientTransform="matrix(0, 78.27, 78.27, 0, -28859.72, 4694.03)" xlink:href="#linear-gradient-4"/></defs><path class="cls-5" d="M115.51,267.59v8.7h-10.6V299c0,4,1.92,4.83,5.45,4.83a14.83,14.83,0,0,0,4.36-.63l.79-.25v8.72l-.44.11a33.91,33.91,0,0,1-9.13,1c-2.54,0-10.82-.84-10.82-11.7V276.29H88.9v-.58c0-.42,0-3.41,0-6.2v-1.92h6.22V256.44l9.79-3.43v14.58Zm65.74-14.22-11.72,58.44h-9.95l-10.35-40.69L138.7,311.81h-9.78l-12.25-58.44h10.21L134.82,293l9.87-39.65h9.52c.95,3.71,9.89,39.16,10,39.6.07-.47,7-38.3,7.27-39.6Zm10.15,31.75c.25-4.16,3.19-9.6,9.42-9.6,6.76,0,8.81,6,9,9.6Zm9.86-18.32c-7.46,0-20.06,4.87-20.06,23.11,0,21.73,17.28,22.84,20.75,22.84,7.34,0,10.61-1.54,13.83-3l.35-.16V300.3l-.93.56a24.09,24.09,0,0,1-11.95,3.1c-10.27,0-11.72-7.34-11.85-10.44h28.24l.06-.5c.89-6.09,0-14.63-5-20.44-3.31-3.83-7.84-5.78-13.44-5.78m54.63,32.7c0,6.63-5.77,13.34-16.75,13.34a34.17,34.17,0,0,1-13.95-3l-.35-.18v-9.48l.91.49a29.83,29.83,0,0,0,13.13,3.53c4.44,0,7-1.59,7-4.37,0-2.61-1.57-3.41-5.42-5.12l-1.52-.65c-1.87-.8-3.5-1.52-6.19-2.75s-8.6-3.88-8.6-11.95c0-4.34,3.33-12.51,15.84-12.51a32.87,32.87,0,0,1,12.27,2.37l.36.18v9.32l-.91-.43a24.68,24.68,0,0,0-11.37-2.88c-1.43,0-6.16.28-6.16,3.59,0,2.5,3,3.82,5.38,4.9l.46.19c1.74.77,3.1,1.41,4.27,1.87l1.26.54c7.53,3.29,10.35,6.81,10.35,13M34.78,253.37h9.55v58.44H35l-25.5-40.7v40.7H0V253.37H9.53l25.25,41Zm238.08,22.92V299c0,4.06,1.91,4.83,5.46,4.83a16.36,16.36,0,0,0,4.35-.61l.79-.27v8.72l-.5.11a33.25,33.25,0,0,1-9.08,1c-2.54,0-10.78-.84-10.78-11.7V276.29h-6.25v-.58c0-.42,0-3.41,0-6.2v-1.92h6.25V256.44l9.76-3.43v14.58h10.6v8.7ZM76.35,298.9a13.38,13.38,0,0,1-10.11,5c-4.21,0-6.9-2.42-6.9-6.16s3.07-6,8.41-6h8.6Zm-7.54-32.23A34.73,34.73,0,0,0,55.62,269l-.38.14v9l.88-.45c2.3-1.11,7.8-2.12,11.24-2.12,8.59,0,9,3.27,9,7.52H67.17c-12.15,0-17.69,7.62-17.69,14.68,0,9.85,7.84,15,15.61,15a16,16,0,0,0,11.33-4.37v3.43H86.1V281.93c0-13.78-12.1-15.26-17.29-15.26"/><g class="cls-6"><g class="cls-7"><polygon class="cls-8" points="124.15 213.08 141.72 182.56 159.32 213.08 229.61 213.08 229.63 213.08 264.76 152.21 229.61 91.34 229.61 91.34 194.44 91.34 212.02 60.87 176.88 0 176.88 0 106.59 0 71.47 60.84 89.11 91.33 53.85 91.33 18.73 152.17 18.72 152.17 18.7 152.2 53.85 213.08 124.13 213.08 124.15 213.08"/></g></g><g class="cls-9"><g class="cls-10"><rect class="cls-11" x="124.21" y="60.9" width="105.4" height="121.71" transform="translate(-16.99 214.09) rotate(-60)"/></g></g><g class="cls-12"><g class="cls-13"><rect class="cls-14" x="66.98" y="31.34" width="114.41" height="119.9" transform="translate(-25.57 127.74) rotate(-50)"/></g></g><g class="cls-15"><g class="cls-16"><rect class="cls-17" x="51.8" y="92.88" width="127.16" height="118.65" transform="translate(-75.38 142.75) rotate(-50)"/></g></g><polygon class="cls-18" points="264.76 152.21 229.61 91.34 194.49 152.18 124.2 152.18 159.32 213.08 229.61 213.08 229.63 213.08 264.76 152.21"/><polygon class="cls-18" points="89.02 152.17 89.02 152.17 124.14 91.33 53.85 91.33 18.73 152.17 18.73 152.17 18.71 152.2 53.85 213.08 124.14 213.08 124.16 213.08 89.02 152.17"/><polygon class="cls-18" points="212.02 60.87 176.88 0.01 176.88 0 106.59 0 71.47 60.84 141.75 60.84 141.75 60.84 176.9 121.73 212.02 60.87"/><polygon class="cls-19" points="229.61 91.34 264.76 152.21 229.63 213.08 194.49 152.18 229.61 91.34"/><polygon class="cls-19" points="124.16 213.08 124.14 213.08 53.85 213.08 18.71 152.2 18.73 152.17 89.02 152.17 124.16 213.08"/><polygon class="cls-19" points="141.75 60.84 176.9 121.73 212.02 60.87 176.88 0 141.75 60.84"/></svg>