<svg id="Layer_1" data-name="Layer 1" xmlns="http://www.w3.org/2000/svg" viewBox="0 0 283.2 124.2"><defs><style>.cls-1{fill:#3d5567;}.cls-2{fill:#00589d;}.cls-3{fill:#00aa4f;}</style></defs><title>pennon-logo-2019</title><path class="cls-1" d="M143.86,78.66h12.36v4.09a16,16,0,0,1,12-5.08c10.06,0,15.74,6.57,15.74,16.44V123.2H171.57V96.7c0-5-2.4-7.87-7.28-7.87-3.79,0-8.07,2.08-8.07,6.7V123.2H143.86Z"/><path class="cls-1" d="M96.26,78.66h12.35v4.09a16,16,0,0,1,12-5.08c10.06,0,15.74,6.57,15.74,16.44V123.2H124V96.7c0-5-2.39-7.87-7.28-7.87-3.78,0-8.07,2.08-8.07,6.7V123.2H96.26Z"/><path class="cls-1" d="M12.65,102V123.2H0V62H24.36c13,0,21.52,7,21.52,20S37.31,102,24.36,102ZM23.56,72.89H12.65V91.12H23.56c6.58,0,9.77-3.79,9.77-9.07,0-5.48-3.19-9.16-9.77-9.16"/><path class="cls-1" d="M243.14,78.66H255.5v4.09a15.94,15.94,0,0,1,11.95-5.08c10.07,0,15.75,6.57,15.75,16.44V123.2H270.84V96.7c0-5-2.39-7.87-7.27-7.87-3.79,0-8.07,2.08-8.07,6.7V123.2H243.14Z"/><path class="cls-1" d="M213.53,77.65a23.16,23.16,0,1,0,23.15,23.15,23.18,23.18,0,0,0-23.15-23.15m-.06,35.47A12.32,12.32,0,1,1,226,100.8a12.33,12.33,0,0,1-12.5,12.32"/><path class="cls-1" d="M69.77,114.24c-5.48,0-9.26-4-9.67-10.67H89.8V99.79c0-13.05-7.18-22.12-20.23-22.12-12.45,0-21.42,9.86-21.42,23.31,0,13.75,8.67,23.22,21.62,23.22,11,0,18-6,19.67-15.24H77.93c-1.08,3.57-4.1,5.28-8.16,5.28m-.1-26.51c5.08,0,7.87,3.69,8,8.37H60.41c1.09-5.48,4.48-8.37,9.26-8.37"/><path class="cls-2" d="M56.1,15.56S80.14,35,143.86,35c64.33,0,88.57-19.13,122.55-6A66,66,0,0,1,283,38.54V13.89C229.86-28.84,147.11,43.27,56.1,15.56"/><path class="cls-3" d="M204.35,36.34s22.68,10.41,49.39,10c24.49-.41,29.29-7.77,29.29-7.77-6.69-5.09-12.52-9-24.2-10.14-21.58-2-43,10-54.48,8"/></svg>