<svg id="New_Wordmark" data-name="New Wordmark" xmlns="http://www.w3.org/2000/svg" viewBox="0 0 708.66 129.94"><defs><style>.cls-1{fill:#0b5ed7;}</style></defs><path class="cls-1" d="M240.39,2.61H202.33V52.19H162.7V2.61H124.63V127.33H162.7v-49h39.63v49.05h38.06V2.61Zm132.45,99.67V2.61H334.78V127.33h68.83l5.73-25ZM306.62,2.61H268.55V127.33h38.07V2.61ZM461,2.61H422.9V127.33H461V2.61ZM648.69,34.44c0-6.78,6.78-9.91,17.73-9.91,12,0,25,2.6,33.9,6.26L697.19,3.65A148.78,148.78,0,0,0,662.25,0c-30.76,0-51.62,12.13-51.62,37.57,0,43.84,59.44,35,59.44,55.32,0,7.83-5.73,12-19.81,12-12.52,0-31.81-4.17-43.28-9.91l4.17,28.7c11.47,4.17,27.11,6.26,39.63,6.26,31.81,0,57.88-10.44,57.88-41.75,0-41.75-60-33.92-60-53.75ZM541.27,97.59c35.46,0,57.89-18.27,57.89-50.1,0-35-24-47.49-63.1-47.49a427.49,427.49,0,0,0-46.41,2.61V127.33h38.07V97.59ZM561.61,48c0,16.18-7.82,27.14-27.64,27.14h-6.25V23.61c2.21-.13,4.3-.13,6.25-.13,18.78,0,27.64,8.87,27.64,24.53Zm-510,49.58c35.46,0,57.89-18.27,57.89-50.1,0-35-24-47.49-63.1-47.49A427.49,427.49,0,0,0,0,2.61V127.33H38.07V97.59ZM72,48c0,16.18-7.82,27.14-27.64,27.14H38.07V23.61c2.21-.13,4.3-.13,6.25-.13C63.1,23.48,72,32.35,72,48Z"/></svg>