<svg id="Layer_1" data-name="Layer 1" xmlns="http://www.w3.org/2000/svg" viewBox="0 0 160.5 75.7"><defs><style>.cls-1{fill:#0065a4;}.cls-1,.cls-2,.cls-3{fill-rule:evenodd;}.cls-2{fill:#ee3524;}.cls-3{fill:#fff;}</style></defs><title>skf-logo-2019</title><path class="cls-1" d="M5.6,0H154.89a5.61,5.61,0,0,1,5.61,5.6V60.31H0V5.6A5.6,5.6,0,0,1,5.6,0Z"/><path class="cls-2" d="M160.5,64.07H0v6a5.6,5.6,0,0,0,5.6,5.6H154.89a5.61,5.61,0,0,0,5.61-5.6v-6Z"/><path class="cls-3" d="M75,33.71l.17-.15c.15,0,.15,0,.15.15l11,11a.88.88,0,0,0,.76.48h13.81a1.33,1.33,0,0,0,1.2-1.25V34.49a1.33,1.33,0,0,0-1.2-1.25h-10a1.24,1.24,0,0,1-.76-.3l-7.26-7.47a.15.15,0,0,1-.15-.15.15.15,0,0,0,.15-.15l3.32-3.43a2.32,2.32,0,0,1,.91-.3H97a1.33,1.33,0,0,0,1.22-1.26V14.75A1.13,1.13,0,0,0,97,13.51H87.29a1.14,1.14,0,0,0-.76.31L75.31,25.32h-.15s-.17,0-.17-.15V14.75c0-.78-.44-1.24-1-1.24H62.71c-.61,0-1.05.46-1.05,1.24v9.49a1,1,0,0,0,1.05,1.08.82.82,0,0,1,.76.78v6.36a.71.71,0,0,1-.76.78,1.19,1.19,0,0,0-1.05,1.25V44a1.19,1.19,0,0,0,1.05,1.25H73.94A1.19,1.19,0,0,0,75,44V33.71Z"/><path class="cls-3" d="M41.64,21.44a1.21,1.21,0,0,1-1.2-1.26v-2a.83.83,0,0,0-.76-.78H33.47a.8.8,0,0,0-.76.78v6.36a.71.71,0,0,0,.76.78H54.69a1.2,1.2,0,0,1,1.05,1.25V44a1.2,1.2,0,0,1-1.05,1.25H18.45A1.33,1.33,0,0,1,17.23,44V34.49a1.33,1.33,0,0,1,1.22-1.25H27.7a1.19,1.19,0,0,1,1.05,1.25v5.89a.86.86,0,0,0,.93.78H43.47a.73.73,0,0,0,.76-.78V30.13a.74.74,0,0,0-.76-.77H22.24A1.33,1.33,0,0,1,21,28.12l.15-13.37a1.1,1.1,0,0,1,1.07-1.24H50.73A1.21,1.21,0,0,1,52,14.75v5.43a1.33,1.33,0,0,1-1.22,1.26Z"/><path class="cls-3" d="M134,21.44a1.19,1.19,0,0,1-1.05-1.26v-2a1,1,0,0,0-.76-.78h-12a.81.81,0,0,0-.76.78v6.36a.72.72,0,0,0,.76.78h4.25a.72.72,0,0,0,.76-.78,1.08,1.08,0,0,1,1.2-1.08h9.25a1,1,0,0,1,1.07,1.08v5.59a1.06,1.06,0,0,1-1.07,1.1h-9.25a1.09,1.09,0,0,1-1.2-1.1.73.73,0,0,0-.76-.77h-4.25a.73.73,0,0,0-.76.77v2.33a.72.72,0,0,0,.76.78,1.33,1.33,0,0,1,1.22,1.25V44a1.33,1.33,0,0,1-1.22,1.25H109A1.2,1.2,0,0,1,107.9,44V34.49A1.2,1.2,0,0,1,109,33.24a.72.72,0,0,0,.76-.78V26.1a.82.82,0,0,0-.76-.78,1,1,0,0,1-1.06-1.08V14.75A1.09,1.09,0,0,1,109,13.51h38.22a1.21,1.21,0,0,1,1.2,1.24v5.43a1.33,1.33,0,0,1-1.2,1.26Z"/></svg>