<svg id="Layer_1" data-name="Layer 1" xmlns="http://www.w3.org/2000/svg" viewBox="0 0 398.4 227.98"><defs><style>.cls-1,.cls-2{fill:#004164;}.cls-1{fill-rule:evenodd;}</style></defs><title>small-world-logo-2019</title><path class="cls-1" d="M9.3,79.17c1.4,0,4.33,1,8.73,3s7.84,2.92,10.37,2.92c2.06,0,3.53-.32,4.49-1.07a4.37,4.37,0,0,0,1.67-3,3.68,3.68,0,0,0-1.63-3.53c-4.39-1.92-9-4-14.06-6.1s-8.63-4.6-11-7.29S4.72,57.52,5.2,52.38c.59-6.18,3.49-11.64,8.7-16.26s11.8-7,19.68-7A34.09,34.09,0,0,1,49,32.91c5,2.46,7.29,6.1,6.83,10.82A9.42,9.42,0,0,1,52.9,50a9,9,0,0,1-6.35,2.37c-.81,0-3.15-.83-7.16-2.61s-6.92-2.49-8.74-2.49a6.54,6.54,0,0,0-3.92,1.07,4,4,0,0,0-1.82,3.24C24.72,53.51,27.75,55.68,34,58a59.94,59.94,0,0,1,15.24,8c3.91,3,5.59,7.71,5,14.15A22.85,22.85,0,0,1,45.11,97,30.8,30.8,0,0,1,26,103.2,42.37,42.37,0,0,1,7.46,99.34C2.15,96.77-.37,93.32,0,89.1A11.28,11.28,0,0,1,3.15,82,8.18,8.18,0,0,1,9.3,79.17"/><path class="cls-1" d="M63.65,41.09a11.78,11.78,0,0,1,3.54-7.54,11.16,11.16,0,0,1,13.89-1.24A9.74,9.74,0,0,1,84.43,37,18.8,18.8,0,0,1,92,31.11a28.55,28.55,0,0,1,20.85,0,17.94,17.94,0,0,1,8,6.43A71.27,71.27,0,0,1,131,31.44a23.28,23.28,0,0,1,10.49-2.3c7.44,0,13.37,2,17.71,6.08s6.17,10.14,5.46,18.08l-3.43,37.93a11.82,11.82,0,0,1-3.53,7.58,10.63,10.63,0,0,1-7.69,3.07,8.6,8.6,0,0,1-7-3,9.62,9.62,0,0,1-2.25-7.63l3-32.41a13.62,13.62,0,0,0-2-8.68,8,8,0,0,0-7.1-3.66A9.8,9.8,0,0,0,126.78,50a15.63,15.63,0,0,0-3.49,8.78l-2.91,32.41a12,12,0,0,1-3.53,7.58,10.61,10.61,0,0,1-7.69,3.07,8.67,8.67,0,0,1-7-3,10.25,10.25,0,0,1-2.26-7.63l3-32.41a12.89,12.89,0,0,0-1.93-8.68,7.94,7.94,0,0,0-7.1-3.66A9.82,9.82,0,0,0,86,50a15.22,15.22,0,0,0-3.49,8.78L79.54,91.23A12.09,12.09,0,0,1,76,98.81a10.63,10.63,0,0,1-7.66,3.07,8.74,8.74,0,0,1-7-3,9.85,9.85,0,0,1-2.26-7.63Z"/><path class="cls-1" d="M81.37,135.42c-1.07-3.85-1.72-6.31-1.94-7.36a14.46,14.46,0,0,1-.18-4.11,10.5,10.5,0,0,1,11.27-9.79c5.06,0,8.07,2.36,9,7.23l6.87,33.15,12-28.74a34.35,34.35,0,0,1,4.79-8.79c1.55-2,4-2.85,7.29-2.85s5.47,1,6.77,3a32.31,32.31,0,0,1,3.16,8.65L147,154.54l13.27-33.15c1.78-4.87,5.23-7.23,10.33-7.23,3.3,0,5.72.9,7.39,2.76a9,9,0,0,1,2,7,10.82,10.82,0,0,1-.75,3.64c-.41,1.11-1.52,3.72-3.38,7.84l-17.91,40a19.59,19.59,0,0,1-5.34,7.72,13.17,13.17,0,0,1-8.28,2.4c-3.49,0-6-.86-7.5-2.51s-2.74-4.4-3.68-8.25l-5.77-24.16-10.46,24.16c-1.67,3.84-3.39,6.6-5.16,8.25s-4.5,2.51-8,2.51-5.93-.83-7.72-2.4A15,15,0,0,1,92,175.45Z"/><path class="cls-1" d="M254.4,125A11.71,11.71,0,0,1,258,117.4a10.77,10.77,0,0,1,7.67-3.17,9.62,9.62,0,0,1,6.24,1.8,9.89,9.89,0,0,1,3.32,4.65,35.64,35.64,0,0,1,7.07-5.76,14.73,14.73,0,0,1,7.9-2.28,9.35,9.35,0,0,1,9.4,10.51c-.31,3.28-1.53,5.62-3.55,7s-5.52,2.73-10.33,4.15-8.08,3.2-9.9,5.14-2.9,5.48-3.42,10.55L269.88,175a11.77,11.77,0,0,1-3.55,7.6,10.27,10.27,0,0,1-7.7,3.16,8.66,8.66,0,0,1-7-2.88,10,10,0,0,1-2.1-7.63Z"/><path class="cls-1" d="M258.05,103.05a12.33,12.33,0,0,1-7.4-2.78c-7.37-5.69-10.3-15.12-9.32-24.72l6.59-65.35A10.91,10.91,0,0,1,259.05,0c5,0,9.76,3.34,9.05,10.19l-6.6,65.35c-.36,3.76.35,6.5,2.42,7.69a8.86,8.86,0,0,1,4.81,9.18,11.27,11.27,0,0,1-2,5.53,10.65,10.65,0,0,1-8.73,5.1"/><path class="cls-1" d="M288.12,103.05a12.31,12.31,0,0,1-7.39-2.78c-7.34-5.69-10.28-15.12-9.28-24.72L278,10.2A11,11,0,0,1,289.13,0c5.1,0,9.77,3.35,9.06,10.2l-6.54,65.35c-.43,3.76.34,6.5,2.37,7.69a8.87,8.87,0,0,1,4.83,9.18,11.39,11.39,0,0,1-2,5.53,10.67,10.67,0,0,1-8.76,5.1"/><path class="cls-1" d="M316.63,187.23a12.41,12.41,0,0,1-7.42-2.82c-7.48-5.7-10.45-15.25-9.46-25l6.69-65.93a11.05,11.05,0,0,1,11.19-10.3c5.12,0,9.86,3.39,9.18,10.3l-6.65,65.94c-.44,3.87.36,6.61,2.42,7.83a9,9,0,0,1,4.87,9.26,10.75,10.75,0,0,1-2,5.6,10.56,10.56,0,0,1-8.84,5.14"/><path class="cls-1" d="M225.7,144.18a8.31,8.31,0,0,1-.06,1.22l-1.24-.07,1.24.07-1.07,10.72c-.79,7.54-7.4,11.3-13.39,11.3h-.07c-5.78,0-11.59-3.4-11.59-10.28,0-.42,0-.86,0-1.29l1.06-10.71c.8-7.41,7.47-11.19,13.63-11.17,5.64,0,11.45,3.44,11.45,10.21m-45.8,1.22-1.1,10.72c-.13,1.36-.2,2.7-.2,3.95.07,18.7,14.34,27.73,30.15,27.87,16.72-.08,34.58-10.76,36.74-32.09l1.1-10.7c.13-1.33.17-2.64.17-3.83,0-18.57-14.48-27.71-30.19-27.77C199.66,113.55,182.05,124.13,179.9,145.4Z"/><path class="cls-1" d="M373.54,145.33l-.86,10.31c-.54,6.54-5.81,10.74-12.41,10.74h-.06c-6.25,0-10.72-3.83-10.72-9.8a9.48,9.48,0,0,1,0-1.07l.9-10.36c.5-6.5,5.79-10.71,12.39-10.71,6.23,0,10.72,3.79,10.72,9.77ZM376,115.81l-.86-.38a29,29,0,0,0-10.53-1.71,34.41,34.41,0,0,0-34.22,31.61l-.86,10.31c-.06,1-.14,2-.13,2.92,0,17.12,12.78,28.45,29,28.49a32.72,32.72,0,0,0,14.29-3.32l.4-.19.29.4a10.18,10.18,0,0,0,7.5,3.11c4.62-.08,9.26-2.91,9.91-9.89l7.6-83.7c0-.46,0-.79,0-1.2,0-6.17-4.24-9.07-9-9.1a10.84,10.84,0,0,0-10.91,10.37Z"/><path class="cls-1" d="M215,61.05l-.86,10.37c-.52,6.56-5.78,10.79-12.35,10.78h-.08c-6.21,0-11.26-3.43-12.13-9.84-.49-3.47.18-7.51.91-11.41,1.38-7.44,7.23-10.76,13.77-10.76,6.29,0,10.78,3.84,10.78,9.79a9.84,9.84,0,0,1,0,1.07m12.33-32.24a9.24,9.24,0,0,0-8.05,4.3C215.83,31,210.75,30,206.38,30h-.17c-20.24.17-34.6,14.78-36.5,34.29-1.92,18.28,3,36.16,25.66,37.45a30.35,30.35,0,0,0,3.4.13,33.2,33.2,0,0,0,14-2.66c1.82,2.39,5.45,3.43,8.12,3.43h.49c5-.13,10.67-3.62,11.45-11.14l5.28-52.18C238.84,33.11,233,28.81,227.36,28.81Z"/><path class="cls-2" d="M167.84,218.26l3-18a2.93,2.93,0,0,1,1.05-1.71,3.14,3.14,0,0,1,2.11-.77,3.25,3.25,0,0,1,2.05.69,3.2,3.2,0,0,1,1.18,1.63l3.82,12.8h.06l3.82-12.8a3.22,3.22,0,0,1,1.18-1.62,3.3,3.3,0,0,1,4.15.07,2.9,2.9,0,0,1,1.06,1.71l3,18a2.62,2.62,0,0,1,0,.55,2.2,2.2,0,0,1-.68,1.69,2.32,2.32,0,0,1-1.66.63,2.54,2.54,0,0,1-1.76-.53,2.9,2.9,0,0,1-.76-1.72l-1.9-13.16h-.08l-3.86,13.55a2.45,2.45,0,0,1-2.59,1.86,2.42,2.42,0,0,1-2.59-1.86l-3.88-13.55h-.06l-1.91,13.16a2.93,2.93,0,0,1-.75,1.71,2.49,2.49,0,0,1-1.76.54,2.29,2.29,0,0,1-1.66-.64,2.19,2.19,0,0,1-.68-1.68A3.56,3.56,0,0,1,167.84,218.26Z"/><path class="cls-2" d="M204.13,203.37a7.78,7.78,0,0,1,3.36.73,8.36,8.36,0,0,1,2.67,2,9.37,9.37,0,0,1,1.72,2.87,9.67,9.67,0,0,1,.6,3.41,9.88,9.88,0,0,1-.6,3.44,9.17,9.17,0,0,1-1.69,2.86,7.92,7.92,0,0,1-2.66,1.94,8,8,0,0,1-3.4.72,7.94,7.94,0,0,1-4.32-1.21,8.07,8.07,0,0,1-3-3.27,9.94,9.94,0,0,1-.45-7.85,9.48,9.48,0,0,1,1.73-2.91,8.25,8.25,0,0,1,2.67-2A7.79,7.79,0,0,1,204.13,203.37Zm0,4.26a3.07,3.07,0,0,0-2,.69,4.11,4.11,0,0,0-1.26,1.79,6.55,6.55,0,0,0-.41,2.27,6.22,6.22,0,0,0,.42,2.27,4.19,4.19,0,0,0,1.25,1.76,3.12,3.12,0,0,0,2,.67,3.16,3.16,0,0,0,2-.67,4.19,4.19,0,0,0,1.25-1.76,6.22,6.22,0,0,0,.42-2.27,6.46,6.46,0,0,0-.41-2.26,4.24,4.24,0,0,0-1.25-1.8A3.11,3.11,0,0,0,204.13,207.63Z"/><path class="cls-2" d="M214.46,218.54v-12.4a2.66,2.66,0,0,1,.64-1.86,2.12,2.12,0,0,1,1.68-.72,2.2,2.2,0,0,1,1.46.46,2,2,0,0,1,.69,1.26c.9-1.28,2.4-1.91,4.48-1.91a7,7,0,0,1,3.28.75,5.52,5.52,0,0,1,2.28,2.16,6.62,6.62,0,0,1,.82,3.35v8.91a2.92,2.92,0,0,1-.3,1.35,2.2,2.2,0,0,1-.84.92,2.34,2.34,0,0,1-1.2.32,2.15,2.15,0,0,1-1.68-.72,2.67,2.67,0,0,1-.64-1.87v-8.1a3.15,3.15,0,0,0-.84-2.38,3.07,3.07,0,0,0-2.21-.81,3,3,0,0,0-1.59.42,2.68,2.68,0,0,0-1,1.13,3.7,3.7,0,0,0-.34,1.64v8.1a2.92,2.92,0,0,1-.3,1.35,2.2,2.2,0,0,1-.84.92,2.34,2.34,0,0,1-1.2.32,2.12,2.12,0,0,1-1.68-.72A2.67,2.67,0,0,1,214.46,218.54Z"/><path class="cls-2" d="M246.11,213.91H236.2a3.49,3.49,0,0,0,1.45,2.5,5,5,0,0,0,2.94.86,4.45,4.45,0,0,0,1.8-.33c.49-.23,1.11-.54,1.85-.94a4,4,0,0,1,1.62-.61,1.69,1.69,0,0,1,.92.29,2.34,2.34,0,0,1,.72.75,1.89,1.89,0,0,1,.27,1,2.08,2.08,0,0,1-.67,1.44,6.4,6.4,0,0,1-1.78,1.27,12.21,12.21,0,0,1-2.52.9,11.52,11.52,0,0,1-2.64.34,9,9,0,0,1-4.55-1.16,8,8,0,0,1-3.09-3.21,9.91,9.91,0,0,1-.47-8,9.76,9.76,0,0,1,1.74-2.92,8,8,0,0,1,9.38-2,8.27,8.27,0,0,1,2.66,2,9.69,9.69,0,0,1,1.7,2.73,7.93,7.93,0,0,1,.62,3A1.83,1.83,0,0,1,246.11,213.91Zm-10-3.11h7.4a4.14,4.14,0,0,0-1.17-2.57,3.44,3.44,0,0,0-2.54-1,3.38,3.38,0,0,0-2.49,1A4.24,4.24,0,0,0,236.09,210.8Z"/><path class="cls-2" d="M253.79,219.59l-5.15-12.83a3.56,3.56,0,0,1-.22-1.2,1.77,1.77,0,0,1,.7-1.42,2.3,2.3,0,0,1,1.49-.58,2.44,2.44,0,0,1,1.45.43,2.55,2.55,0,0,1,.89,1.22l3.19,8.76,3.42-8.76a2.79,2.79,0,0,1,.91-1.22,2.35,2.35,0,0,1,1.43-.43,2.32,2.32,0,0,1,1.49.57,1.78,1.78,0,0,1,.7,1.43,3,3,0,0,1-.22,1.2l-7.8,19.39q-.72,1.83-2.19,1.83a2.53,2.53,0,0,1-1.77-.6,1.84,1.84,0,0,1-.66-1.4,4,4,0,0,1,.3-1.36Z"/><path class="cls-2" d="M278,218.63V202.41h-3.53a2.05,2.05,0,0,1-1.64-.66,2.32,2.32,0,0,1-.57-1.58,2.36,2.36,0,0,1,.28-1.09,2.1,2.1,0,0,1,.79-.83,2.12,2.12,0,0,1,1.14-.31H286.4a2.16,2.16,0,0,1,1.94,1.14,2.46,2.46,0,0,1-.28,2.67,2,2,0,0,1-1.66.66h-3.52v16.22a2.47,2.47,0,0,1-.67,1.85,2.68,2.68,0,0,1-3.5,0A2.47,2.47,0,0,1,278,218.63Z"/><path class="cls-2" d="M289.48,218.54V205.89a2.15,2.15,0,0,1,.72-1.72,2.48,2.48,0,0,1,1.67-.61c1.51,0,2.27.64,2.27,1.94h.06a5.11,5.11,0,0,1,1.45-1.48,3.37,3.37,0,0,1,1.82-.46,2.21,2.21,0,0,1,1.58.64,2.46,2.46,0,0,1,.68,1.85,1.45,1.45,0,0,1-.36,1.06,2.84,2.84,0,0,1-1,.61l-1.45.59a8.38,8.38,0,0,0-2.1,1.25,2.35,2.35,0,0,0-.71,1.85v7.13a2.92,2.92,0,0,1-.3,1.35,2.2,2.2,0,0,1-.84.92,2.34,2.34,0,0,1-1.2.32,2.15,2.15,0,0,1-1.68-.72A2.72,2.72,0,0,1,289.48,218.54Z"/><path class="cls-2" d="M316.23,206.6v11.5a5.43,5.43,0,0,1-.38,2.2c-.26.55-.88.83-1.87.83a2,2,0,0,1-1.46-.49,3.09,3.09,0,0,1-.76-1.47,5.66,5.66,0,0,1-4.44,2.17,7.07,7.07,0,0,1-3.91-1.15,7.81,7.81,0,0,1-2.77-3.2,10.81,10.81,0,0,1,0-9.17,8.26,8.26,0,0,1,2.79-3.26,6.82,6.82,0,0,1,3.87-1.19,6.1,6.1,0,0,1,2.5.53,4.79,4.79,0,0,1,1.94,1.6,2.07,2.07,0,0,1,.73-1.4,2.26,2.26,0,0,1,1.49-.54c1,0,1.61.28,1.87.84A5.47,5.47,0,0,1,316.23,206.6Zm-11.94,5.78a6.22,6.22,0,0,0,.42,2.27,4.11,4.11,0,0,0,1.25,1.76,3.12,3.12,0,0,0,2,.67,3,3,0,0,0,2.65-1.42,5.75,5.75,0,0,0,.95-3.28,6.68,6.68,0,0,0-.4-2.26,4.2,4.2,0,0,0-1.23-1.8,3,3,0,0,0-2-.69,3.07,3.07,0,0,0-2,.69,4,4,0,0,0-1.26,1.79A6.55,6.55,0,0,0,304.29,212.38Z"/><path class="cls-2" d="M318.88,218.54v-12.4a2.66,2.66,0,0,1,.64-1.86,2.12,2.12,0,0,1,1.68-.72,2.2,2.2,0,0,1,1.46.46,2,2,0,0,1,.69,1.26c.9-1.28,2.4-1.91,4.48-1.91a7,7,0,0,1,3.28.75,5.52,5.52,0,0,1,2.28,2.16,6.52,6.52,0,0,1,.82,3.35v8.91a2.92,2.92,0,0,1-.3,1.35,2.2,2.2,0,0,1-.84.92,2.34,2.34,0,0,1-1.2.32,2.15,2.15,0,0,1-1.68-.72,2.67,2.67,0,0,1-.64-1.87v-8.1a3.15,3.15,0,0,0-.84-2.38,3.07,3.07,0,0,0-2.21-.81,3,3,0,0,0-1.59.42,2.68,2.68,0,0,0-1,1.13,3.7,3.7,0,0,0-.34,1.64v8.1a2.92,2.92,0,0,1-.3,1.35,2.2,2.2,0,0,1-.84.92,2.34,2.34,0,0,1-1.2.32,2.12,2.12,0,0,1-1.68-.72A2.67,2.67,0,0,1,318.88,218.54Z"/><path class="cls-2" d="M348.56,206.73a2.14,2.14,0,0,1-.54,1.43,1.74,1.74,0,0,1-1.35.64,4.49,4.49,0,0,1-1.39-.46c-.67-.31-1.2-.53-1.57-.68a3.24,3.24,0,0,0-1.23-.22,1.87,1.87,0,0,0-1.13.33,1.12,1.12,0,0,0-.45,1c0,.45.47.88,1.39,1.29s1.91.82,2.95,1.24a8.26,8.26,0,0,1,2.65,1.72,3.84,3.84,0,0,1,1.1,2.88,5,5,0,0,1-.82,2.8,5.58,5.58,0,0,1-2.35,2,8,8,0,0,1-3.46.72,9.61,9.61,0,0,1-2.9-.48,7.59,7.59,0,0,1-2.57-1.31,2.35,2.35,0,0,1-1-1.81,2.27,2.27,0,0,1,.56-1.35,1.75,1.75,0,0,1,1.45-.72,2.84,2.84,0,0,1,1.1.2,9.73,9.73,0,0,1,1.19.61,9.09,9.09,0,0,0,1.25.6,4,4,0,0,0,1.29.19,2.33,2.33,0,0,0,1.43-.33,1.22,1.22,0,0,0,.4-1c0-.45-.45-.87-1.34-1.26l-3-1.25a8.13,8.13,0,0,1-2.7-1.75,3.91,3.91,0,0,1-1.09-2.88,5,5,0,0,1,.81-2.83,5.41,5.41,0,0,1,2.24-1.92,7.62,7.62,0,0,1,3.27-.68,9.33,9.33,0,0,1,2.62.38,5.94,5.94,0,0,1,2.27,1.15A2.32,2.32,0,0,1,348.56,206.73Z"/><path class="cls-2" d="M351.69,218.54V207.82h-1.05a1.92,1.92,0,0,1-2-2,2,2,0,0,1,.58-1.44,2,2,0,0,1,1.45-.58h1.05v-2.39a5.38,5.38,0,0,1,1.35-3.91,4.73,4.73,0,0,1,3.53-1.39,5,5,0,0,1,2.32.49,1.69,1.69,0,0,1,.93,1.61,1.71,1.71,0,0,1-1.91,2,2,2,0,0,0-1.17.29c-.27.19-.4.67-.4,1.43v1.9h1.47c1.57,0,2.35.67,2.35,2s-.78,2-2.35,2h-1.47v10.72a2.69,2.69,0,0,1-.64,1.87,2.33,2.33,0,0,1-3.37,0A2.69,2.69,0,0,1,351.69,218.54Z"/><path class="cls-2" d="M373.87,213.91H364a3.47,3.47,0,0,0,1.46,2.5,5,5,0,0,0,2.93.86,4.39,4.39,0,0,0,1.8-.33c.5-.23,1.11-.54,1.86-.94a4,4,0,0,1,1.62-.61,1.72,1.72,0,0,1,.92.29,2.34,2.34,0,0,1,.72.75,1.89,1.89,0,0,1,.27,1,2.1,2.1,0,0,1-.68,1.44,6.26,6.26,0,0,1-1.78,1.27,12.12,12.12,0,0,1-2.51.9,11.52,11.52,0,0,1-2.64.34,9,9,0,0,1-4.55-1.16,8,8,0,0,1-3.1-3.21,9.66,9.66,0,0,1-1.08-4.59,9.65,9.65,0,0,1,2.36-6.3,8,8,0,0,1,9.37-2,8.16,8.16,0,0,1,2.66,2,9.5,9.5,0,0,1,1.71,2.73,7.91,7.91,0,0,1,.61,3A1.82,1.82,0,0,1,373.87,213.91Zm-10-3.11h7.41a4.25,4.25,0,0,0-1.17-2.57,3.72,3.72,0,0,0-5,0A4.36,4.36,0,0,0,363.84,210.8Z"/><path class="cls-2" d="M377.5,218.54V205.89a2.15,2.15,0,0,1,.72-1.72,2.47,2.47,0,0,1,1.66-.61c1.52,0,2.28.64,2.28,1.94h.06a5,5,0,0,1,1.45-1.48,3.37,3.37,0,0,1,1.82-.46,2.23,2.23,0,0,1,1.58.64,2.46,2.46,0,0,1,.68,1.85,1.45,1.45,0,0,1-.36,1.06,2.94,2.94,0,0,1-1,.61l-1.45.59a8.38,8.38,0,0,0-2.1,1.25,2.31,2.31,0,0,0-.71,1.85v7.13a2.92,2.92,0,0,1-.3,1.35,2.2,2.2,0,0,1-.84.92,2.34,2.34,0,0,1-1.2.32,2.14,2.14,0,0,1-1.68-.72A2.67,2.67,0,0,1,377.5,218.54Z"/></svg>