<?xml version="1.0" encoding="utf-8"?>
<!-- Generator: Adobe Illustrator 23.0.3, SVG Export Plug-In . SVG Version: 6.00 Build 0)  -->
<svg version="1.1" id="Calque_1" xmlns="http://www.w3.org/2000/svg" xmlns:xlink="http://www.w3.org/1999/xlink" x="0px" y="0px"
	 viewBox="0 0 431.2 151.5" style="enable-background:new 0 0 431.2 151.5;" xml:space="preserve">
<style type="text/css">
	.st0{fill:#00AEEF;}
</style>
<g>
	<g>
		<g>
			<path class="st0" d="M145.2,123.1c-1.3,0-2.8,0.2-3.9,0.5l0.2,1.6c0.9-0.2,2.4-0.4,3.6-0.4c1.9,0,2.6,0.5,2.6,2v1.9h-3.2
				c-2.4,0-3.6,0.9-3.6,3.3c0,2.1,0.9,3.4,3.1,3.4c1.4,0,2.8-0.4,3.9-1.1l0.1,0.9h1.7V127C149.7,124.4,148.6,123.1,145.2,123.1z
				 M147.6,132.7c-0.9,0.6-2,1-3.1,1c-1.5,0-1.7-0.5-1.7-1.7c0-1.2,0.5-1.6,1.7-1.6h3V132.7z"/>
		</g>
		<g>
			<path class="st0" d="M157,128.4c-2-0.5-2-0.7-2-2c0-1.1,0.2-1.5,2-1.5c1,0,2.3,0.1,3.3,0.3l0.1-1.7c-1-0.3-2.2-0.4-3.4-0.4
				c-3.1,0-4.1,1-4.1,3.2c0,2.5,0.3,3.1,3.2,3.8c2.4,0.6,2.5,0.7,2.5,2c0,1.3-0.3,1.6-2.2,1.6c-1,0-2.4-0.2-3.4-0.5l-0.3,1.6
				c1,0.4,2.6,0.6,3.8,0.6c3.4,0,4.1-1.1,4.1-3.4C160.7,129.7,160.4,129.2,157,128.4z"/>
		</g>
		<g>
			<polygon class="st0" points="164,135.2 166.1,135.2 166.1,118.2 164,118.5 			"/>
		</g>
		<g>
			<polygon class="st0" points="173.1,123.3 170.8,123.3 166.6,129.2 170.9,135.2 173.3,135.2 168.9,129.2 			"/>
		</g>
		<g>
			<rect x="175.8" y="123.3" class="st0" width="2" height="11.9"/>
		</g>
		<g>
			<rect x="175.8" y="118.5" class="st0" width="2" height="3"/>
		</g>
		<g>
			<path class="st0" d="M188.4,123.1c-1.4,0-3.5,0.6-4.8,1.3l-0.2-1h-1.7v11.9h2v-9c1.3-0.7,3.1-1.2,4-1.2c0.8,0,1.1,0.3,1.1,1.1
				v9.1h2v-9.1C191,124.3,190.3,123.1,188.4,123.1z"/>
		</g>
		<g>
			<path class="st0" d="M198.5,123.1c-3.4,0-4.6,1.5-4.6,4.1v0.5c0,1.6,0.5,2.7,1.7,3.4c-0.6,0.5-1.1,1.2-1.1,2.1
				c0,1.1,0.6,2,2.3,2.2c1.4,0.1,1.8,0.2,3.1,0.3c1.4,0.1,1.8,0.3,1.8,1.3c0,1.2-0.3,1.7-3.3,1.7c-1.2,0-2.7-0.2-4-0.5l-0.3,1.6
				c1.3,0.4,3.2,0.6,4.3,0.6c4.3,0,5.2-0.9,5.2-3.4c0-1.8-0.8-2.6-3-2.9c-1.5-0.1-2.1-0.2-3.4-0.3c-0.5,0-0.8-0.2-0.8-0.7
				c0-0.5,0.4-0.9,0.9-1.3c0.4,0,0.8,0.1,1.2,0.1c3.1,0,4.7-1.5,4.7-4v-0.5c0-0.9-0.2-1.8-0.7-2.4l1.4-0.3v-1.2h-3.4
				C200,123.2,199.1,123.1,198.5,123.1z M201.2,127.2v0.5c0,1.6-0.8,2.4-2.7,2.4s-2.7-0.6-2.7-2.4v-0.5c0-1.8,0.7-2.4,2.7-2.4
				S201.2,125.5,201.2,127.2z"/>
		</g>
		<g>
			<path class="st0" d="M225.8,123.1c-1.5,0-3.5,0.6-4.9,1.3c-0.3-0.8-1-1.3-2.3-1.3c-1.4,0-3.5,0.6-4.8,1.3l-0.2-1H212v11.9h2v-9
				c1.3-0.7,3.1-1.2,4-1.2c0.8,0,1.1,0.3,1.1,1.1v9.1h2v-9c1.3-0.7,3-1.2,4-1.2c0.8,0,1.1,0.3,1.1,1.1v9.1h2v-9.1
				C228.3,124.3,227.7,123.1,225.8,123.1z"/>
		</g>
		<g>
			<path class="st0" d="M236.3,123.1c-3.5,0-4.8,2-4.8,4.5v3.4c0,2.5,1.4,4.5,4.8,4.5s4.8-2,4.8-4.5v-3.4
				C241.2,125.1,239.8,123.1,236.3,123.1z M239.1,131.1c0,1.7-0.9,2.6-2.8,2.6s-2.8-0.9-2.8-2.6v-3.6c0-1.7,0.9-2.6,2.8-2.6
				s2.8,0.9,2.8,2.6V131.1z"/>
		</g>
		<g>
			<path class="st0" d="M246.4,125l-0.1-1.7h-1.8v11.9h2V127c1-0.7,2.3-1.5,3.4-2l-0.3-1.9C248.5,123.6,247.2,124.3,246.4,125z"/>
		</g>
		<g>
			<path class="st0" d="M256.1,123.1c-3.5,0-4.7,2-4.7,4.4v3.6c0,2.7,1.2,4.4,4.7,4.4c1.5,0,3.1-0.3,4.2-0.7l-0.3-1.6
				c-1.3,0.3-2.6,0.6-3.8,0.6c-2.3,0-2.8-0.8-2.8-2.6v-1h7.1v-2.5C260.6,125.1,259.6,123.1,256.1,123.1z M258.6,128.4h-5.1v-1
				c0-1.7,0.7-2.6,2.6-2.6c1.9,0,2.5,0.9,2.5,2.6V128.4z"/>
		</g>
		<g>
			<path class="st0" d="M269.9,121.2v2.2h-2.1v1.7h2.1v10.2h2v-10.2h3.2l0.2-1.7h-3.4v-2c0-1.2,0.3-1.6,1.6-1.6c0.5,0,1.3,0.1,2,0.2
				l0.2-1.6c-0.8-0.2-1.6-0.3-2.4-0.3C271.1,118,269.9,119.1,269.9,121.2z"/>
		</g>
		<g>
			<path class="st0" d="M279.5,125l-0.1-1.7h-1.8v11.9h2V127c1-0.7,2.3-1.5,3.4-2l-0.3-1.9C281.6,123.6,280.4,124.3,279.5,125z"/>
		</g>
		<g>
			<path class="st0" d="M289.4,123.1c-3.5,0-4.8,2-4.8,4.5v3.4c0,2.5,1.4,4.5,4.8,4.5c3.5,0,4.8-2,4.8-4.5v-3.4
				C294.2,125.1,292.8,123.1,289.4,123.1z M292.1,131.1c0,1.7-0.9,2.6-2.8,2.6c-1.9,0-2.8-0.9-2.8-2.6v-3.6c0-1.7,0.9-2.6,2.8-2.6
				c1.9,0,2.8,0.9,2.8,2.6V131.1z"/>
		</g>
		<g>
			<path class="st0" d="M311.3,123.1c-1.5,0-3.5,0.6-4.9,1.3c-0.3-0.8-1-1.3-2.3-1.3c-1.4,0-3.5,0.6-4.8,1.3l-0.2-1h-1.7v11.9h2v-9
				c1.3-0.7,3.1-1.2,4-1.2c0.8,0,1.1,0.3,1.1,1.1v9.1h2v-9c1.3-0.7,3-1.2,4-1.2c0.8,0,1.1,0.3,1.1,1.1v9.1h2v-9.1
				C313.9,124.3,313.2,123.1,311.3,123.1z"/>
		</g>
		<g>
			<path class="st0" d="M326.9,133.7c-2,0-2.7-0.6-2.7-2.4v-3.9c0-1.9,0.7-2.4,2.7-2.4c0.8,0,1.7,0.1,2.6,0.3l0.2-1.7
				c-0.6-0.2-1.8-0.4-2.8-0.4c-3.7,0-4.7,1.6-4.7,4.3v3.7c0,2.7,0.9,4.3,4.7,4.3c1,0,2.2-0.2,2.9-0.4l-0.2-1.7
				C328.6,133.6,327.8,133.7,326.9,133.7z"/>
		</g>
		<g>
			<path class="st0" d="M339.5,123.1c-1.4,0-3.3,0.6-4.6,1.2v-6.1l-2,0.3v16.7h2v-8.9c1.3-0.7,3.1-1.2,4-1.2c0.8,0,1.1,0.3,1.1,1.1
				v9.1h2v-9.1C342.1,124.3,341.4,123.1,339.5,123.1z"/>
		</g>
		<g>
			<path class="st0" d="M349.9,123.1c-3.5,0-4.7,2-4.7,4.4v3.6c0,2.7,1.2,4.4,4.7,4.4c1.5,0,3.1-0.3,4.2-0.7l-0.3-1.6
				c-1.3,0.3-2.6,0.6-3.8,0.6c-2.3,0-2.8-0.8-2.8-2.6v-1h7.1v-2.5C354.4,125.1,353.4,123.1,349.9,123.1z M352.4,128.4h-5.1v-1
				c0-1.7,0.7-2.6,2.6-2.6c1.9,0,2.5,0.9,2.5,2.6V128.4z"/>
		</g>
		<g>
			<path class="st0" d="M371.4,123.1c-1.5,0-3.5,0.6-4.9,1.3c-0.3-0.8-1-1.3-2.3-1.3c-1.4,0-3.5,0.6-4.8,1.3l-0.2-1h-1.7v11.9h2v-9
				c1.3-0.7,3.1-1.2,4-1.2c0.8,0,1.1,0.3,1.1,1.1v9.1h2v-9c1.3-0.7,3-1.2,4-1.2c0.8,0,1.1,0.3,1.1,1.1v9.1h2v-9.1
				C374,124.3,373.3,123.1,371.4,123.1z"/>
		</g>
		<g>
			<rect x="377.8" y="118.5" class="st0" width="2" height="3"/>
		</g>
		<g>
			<rect x="377.8" y="123.3" class="st0" width="2" height="11.9"/>
		</g>
		<g>
			<path class="st0" d="M387.4,128.4c-2-0.5-2-0.7-2-2c0-1.1,0.2-1.5,2-1.5c1,0,2.3,0.1,3.3,0.3l0.1-1.7c-1-0.3-2.2-0.4-3.4-0.4
				c-3.1,0-4.1,1-4.1,3.2c0,2.5,0.3,3.1,3.2,3.8c2.4,0.6,2.5,0.7,2.5,2c0,1.3-0.3,1.6-2.2,1.6c-1,0-2.4-0.2-3.4-0.5l-0.3,1.6
				c1,0.4,2.6,0.6,3.8,0.6c3.4,0,4.1-1.1,4.1-3.4C391.1,129.7,390.8,129.2,387.4,128.4z"/>
		</g>
		<g>
			<path class="st0" d="M398.4,133.7c-1.1,0-1.2-0.4-1.2-1.3v-7.4h3.2l0.2-1.7h-3.4v-3.2l-2,0.3v2.9h-2.1v1.7h2.1v7.7
				c0,2,1,2.7,2.9,2.7c0.9,0,1.8-0.2,2.5-0.4l-0.3-1.6C399.6,133.6,399,133.7,398.4,133.7z"/>
		</g>
		<g>
			<path class="st0" d="M405.3,125l-0.1-1.7h-1.8v11.9h2V127c1-0.7,2.3-1.5,3.4-2l-0.3-1.9C407.4,123.6,406.2,124.3,405.3,125z"/>
		</g>
		<g>
			<polygon class="st0" points="415,133.6 411.7,123.3 409.7,123.3 413.5,135.2 414.4,135.2 412.7,140 414.7,140 416.4,135.2 
				420.3,123.3 418.3,123.3 			"/>
		</g>
		<g>
			<path class="st0" d="M426.8,118.3c-2.7,0-4.4,2-4.4,4.4s1.7,4.4,4.4,4.4c2.7,0,4.4-2,4.4-4.4S429.5,118.3,426.8,118.3z
				 M426.8,126.1c-2.2,0-3.4-1.6-3.4-3.4s1.1-3.4,3.4-3.4c2.2,0,3.4,1.6,3.4,3.4S429,126.1,426.8,126.1z"/>
		</g>
		<g>
			<path class="st0" d="M428.3,122.2v-0.6c0-0.7-0.4-1.1-1.3-1.1h-1.6v4h0.7v-1.3h0.8l1,1.3h0.8l-1.1-1.5
				C428.2,122.9,428.3,122.6,428.3,122.2z M427.6,122.2c0,0.3-0.1,0.5-0.6,0.5h-0.9v-1.4h0.9c0.4,0,0.6,0.1,0.6,0.5V122.2z"/>
		</g>
		<g>
			<path class="st0" d="M251.6,89.7c0-0.8-0.6-1.4-1.4-1.4h-12.7c-4,0-5.4-1.4-5.4-6V54.2c0-0.8-0.6-1.4-1.4-1.4h-6.9
				c-0.8,0-1.4,0.6-1.4,1.4v28.2c0,11.8,7,14.2,16,14.2c3.7,0,9.7-0.4,11.8-0.8c1-0.2,1.4-0.5,1.4-1.5V89.7z"/>
		</g>
		<g>
			<path class="st0" d="M170.8,84.4c0-4.6-2-8.3-9.4-11.9l-8.1-3.9c-4.4-2.1-5.5-3.3-5.5-5.2c0-2.6,2.1-3.6,7.1-3.6
				c4.4,0,8.9,0.2,13.3,0.6c0.1,0,0.1,0,0.1,0c0.7,0,1.1-0.5,1.1-1v-4.9c0-0.6-0.5-1-1.2-1.1c-2.3-0.5-8.5-1.1-13-1.1
				c-12.6,0-16.9,4.7-16.9,11.1c0,4.1,1.7,7.5,8,10.7l8.9,4.6c4,2,5.6,3.3,5.7,5.1c0,3-2.2,4.6-7.4,4.6c-2.6,0-9.5-0.3-12.3-0.7
				c-0.1,0-0.1,0-0.1,0c-0.7,0-1.3,0.6-1.3,1.3v5c0,0.8,0.6,1.2,1.3,1.4c3.2,0.7,6.9,1.2,11.9,1.2c0,0,0.3,0,0.4,0
				c3,0,5.6-0.4,7.8-1C168.4,93.5,170.8,88.9,170.8,84.4z"/>
		</g>
		<g>
			<path class="st0" d="M346,81.5c-2.9,5.1-5.4,9.1-8.1,12.5l-0.1,0.1c-0.8,1-0.7,2,0.8,2c0.1,0,0.2,0,0.4,0h6.7c0.3,0,0.5,0,0.6,0
				c1.1,0,1.6-0.3,2-0.7c8-11.6,16.4-28.8,20.8-41.5c0.3-0.7,0.2-1.1-0.3-1.1h-7.8c-0.6,0-1.1,0.4-1.3,1c-0.2,0.5-0.3,0.7-0.4,1.1
				c-2.5,6.6-5,12.3-8.5,19c-4.8-5.6-9.2-12.4-13.2-20.2c-0.4-0.8-0.6-0.8-1.3-0.8h-8.1c-0.9,0-0.8,0.6-0.3,1.6
				C333.1,65,339.1,74.6,346,81.5z"/>
		</g>
		<g>
			<path class="st0" d="M319.1,58.3c-1.6-5.4-6.5-5.9-9.4-5.9c-2.9,0-7.8,0.5-9.4,5.9l-11.1,36.5c0,0.1-0.1,0.2-0.1,0.3
				c0,0.6,0.5,1,1.2,1h7.2c0.6,0,1.1-0.5,1.3-1l2-6.9h17.8l2,6.9c0.1,0.5,0.7,1,1.3,1h7.2c0.7,0,1.2-0.4,1.2-1
				c0-0.1-0.1-0.2-0.1-0.3L319.1,58.3z M302.9,81.3l5.7-19.6c0.2-0.7,0.4-0.9,1.1-0.9c0.7,0,0.9,0.2,1.1,0.9l5.7,19.6H302.9z"/>
		</g>
		<g>
			<path class="st0" d="M214.8,70.5c0-12.8-8-18.2-19.1-18.2c-11.1,0-19.1,5.4-19.1,18.2v7.9c0,12.8,8,18.2,19.1,18.2
				c11.1,0,19.1-5.4,19.1-18.2V70.5z M205.4,78.4c0,7.7-3.1,10-9.7,10c-6.6,0-9.7-2.3-9.7-10v-7.1c0-7.7,3.1-11.1,9.7-11.1
				c6.6,0,9.7,3.4,9.7,11.1V78.4z"/>
		</g>
		<g>
			<path class="st0" d="M290.2,54.1c0-0.1,0.1-0.2,0.1-0.3c0-0.6-0.5-1-1.2-1h-7.2c-0.6,0-1.1,0.5-1.3,1l-9.8,33.5
				c-0.2,0.7-0.4,0.9-1.1,0.9c-0.7,0-0.9-0.2-1.1-0.9l-9.8-33.5c-0.1-0.5-0.7-1-1.3-1h-7.2c-0.7,0-1.2,0.4-1.2,1
				c0,0.1,0.1,0.2,0.1,0.3l11.1,36.5c1.6,5.4,6.5,5.9,9.4,5.9c2.9,0,7.8-0.5,9.4-5.9L290.2,54.1z"/>
		</g>
		<g>
			<path class="st0" d="M36.5,33.2c-1.6,4.9,3.8,10.3,7.7,13.4C50,34.5,79.4,17.3,87.9,12.5c8.2-4.8,7.7-3.2,7.7-9.4
				C79.1,7.7,39.7,21.8,36.5,33.2z"/>
		</g>
		<g>
			<path class="st0" d="M45.3,47.6c10.3,7.7,18.1,14.9,23.5,21.9h0c0,0,0,0,0,0c1.3,1.7,2.4,3.3,3.4,4.9c5.7,9.9,8,23.9-3.2,33.6
				c-1,0.8-1.9,1.6-2.9,2.3c0,0-0.2,0.1-0.2,0.2c0,0,0,0,0,0c-20.5,14.8-50.7,10.4-57.8-2C0.4,95,16.7,74.1,16.8,74
				c0.1-0.1,0.1-0.2,0-0.3c-0.1-0.1-0.4,0.1-0.6,0.4c-0.1,0.1-15.4,15.1-16.2,34c0,0,0,0,0,0c0,1.2,0,1.8,0,2.7
				c0,1.6,0.2,2.7,0.3,3.3C4.3,143.6,35,154,59.6,151c29.2-2.6,63.2-42.3,30.2-75.5C79.1,64.8,60.2,57.8,45.3,47.6z"/>
		</g>
		<g>
			<path class="st0" d="M66.4,107.2c0,0.5-0.1,0.9-0.1,1.4c6-4.4,7.3-11.1,7.5-16C74,80.4,63.7,66,42.9,50
				c-8.2-6.3-11.6-12.5-9.8-17.9C37,18.4,80.4,5.9,95.7,1.7l0-1.7c0,0-79.4,12.4-88.4,47.6C-0.7,78.6,67.2,81.9,66.4,107.2z"/>
		</g>
	</g>
</g>
</svg>
