<?xml version="1.0" encoding="UTF-8"?><svg id="Trustmark" xmlns="http://www.w3.org/2000/svg" viewBox="0 0 2987.01 1172.32"><defs><style>.cls-1{fill:#7cc24a;}.cls-2{fill:#0080c6;}.cls-3{fill:#58595b;}</style></defs><g><path class="cls-1" d="M571.52,1155.09L80.21,835.23s-61.62-35.42-75.73-101.42c-19.81-92.67,45.51-172.1,45.51-172.1l637.65,415.27c49.19,32.07,62.62,97.65,31,147.12-32.48,50.81-99.23,62.03-147.12,31Z"/><path class="cls-2" d="M106.15,493.16S30.89,447.72,30.89,342.61,106.12,192.99,106.12,192.99L374.71,17.19c49.23-32,115.08-18.03,147.08,31.19,32,49.23,18.03,115.08-31.19,147.08l-226.38,147.42,385.72,251.2s69.43,39.79,83.11,106.93c19.09,93.68-45.39,170.86-45.39,170.86L106.15,493.16Z"/><path class="cls-1" d="M611.72,238.12c-25.23,0-43.17,7.95-60.68,19.35l-131.13,85.4,131.13,85.4c17.68,11.38,36.23,19.35,60.68,19.35,57.85,0,104.75-46.9,104.75-104.75s-46.9-104.77-104.75-104.76"/><path class="cls-2" d="M104.76,1172.04c25.22,0,43.17-7.95,60.68-19.35l131.13-85.4-131.13-85.4c-17.68-11.38-36.23-19.35-60.68-19.35-57.85,0-104.76,46.9-104.76,104.76s46.9,104.77,104.76,104.75"/></g><g><g><path class="cls-3" d="M1157.23,839.53c27.73,0,53.58-7.52,73.79-24.91v39.01c-22.56,15.51-49.35,22.09-77.55,22.09-70.97,0-120.32-49.35-120.32-120.32s50.76-119.85,121.26-119.85c27.73,0,53.58,7.99,74.26,23.5v42.77c-18.33-19.74-43.71-30.08-71.91-30.08-49.35,0-84.13,34.31-84.13,83.66s35.25,84.13,84.6,84.13Z"/><path class="cls-3" d="M1311.38,871.49h-38.07v-305.16l38.07,23.53v89.4c17.39-26.79,45.12-43.71,80.37-43.71,58.28,0,89.3,42.77,89.3,99.64v136.3h-38.54v-129.72c0-45.12-19.74-69.09-60.16-69.09-42.77,0-70.97,36.66-70.97,82.72v116.09Z"/><path class="cls-3" d="M1717.46,832.01c-19.27,27.26-48.88,43.71-85.07,43.71-67.68,0-116.09-50.29-116.09-118.91s48.41-121.26,116.09-121.26c36.19,0,65.8,16.92,85.07,44.65v-40.42h38.54v231.71h-38.54v-39.48Zm-161.68-75.67c0,47.94,33.37,83.19,80.37,83.19s81.3-35.25,81.3-83.19-33.84-84.6-81.3-84.6-80.37,35.72-80.37,84.6Z"/><path class="cls-3" d="M1853.28,871.49h-38.07v-231.71h38.07v49.35c18.33-34.31,47.94-53.58,84.6-53.58v43.71c-46.06-6.58-84.6,24.44-84.6,81.78v110.45Z"/><path class="cls-3" d="M2327.97,770.45h-182.83c5.64,41.83,38.54,69.56,84.6,69.56,29.61,0,58.28-8.46,82.72-25.85v36.66c-24.91,16.92-53.11,24.91-82.72,24.91-72.85,0-125.02-47-125.02-117.97s44.18-122.2,114.21-122.2,110.45,49.35,110.45,115.62c0,6.58-.47,13.16-1.41,19.27Zm-182.36-31.02h143.35c-3.76-39.48-28.67-68.62-69.56-68.62s-67.68,29.61-73.79,68.62Z"/><path class="cls-3" d="M2409.28,871.49h-38.07v-231.71h38.07v49.35c18.33-34.31,47.94-53.58,84.6-53.58v43.71c-46.06-6.58-84.6,24.44-84.6,81.78v110.45Z"/><path class="cls-3" d="M2719.94,770.45h-182.83c5.64,41.83,38.54,69.56,84.6,69.56,29.61,0,58.28-8.46,82.72-25.85v36.66c-24.91,16.92-53.11,24.91-82.72,24.91-72.85,0-125.02-47-125.02-117.97s44.18-122.2,114.21-122.2,110.45,49.35,110.45,115.62c0,6.58-.47,13.16-1.41,19.27Zm-182.36-31.02h143.35c-3.76-39.48-28.67-68.62-69.56-68.62s-67.68,29.61-73.79,68.62Z"/><path class="cls-3" d="M2948.47,831.7c-18.8,27.73-48.88,44.65-85.07,44.65-67.68,0-116.09-50.29-116.09-118.91s48.41-121.26,116.09-121.26c36.19,0,66.27,17.39,85.07,45.59v-115.38l38.54,23.54v281.54h-38.54v-39.78Zm-161.68-74.73c0,47.94,33.37,83.19,80.37,83.19s81.3-35.25,81.3-83.19-33.84-84.6-81.3-84.6-80.37,35.72-80.37,84.6Z"/><path class="cls-3" d="M2004.4,794.47c0,32.43,19.74,45.12,44.65,45.12,18.8,0,37.6-5.17,54.05-16.92v37.13c-15.98,11.75-38.07,16.45-57.34,16.45-49.35,0-79.43-22.09-79.43-84.6v-225.36l38.07,23.53v204.65Z"/><path class="cls-3" d="M2065.94,636.76c-9.67-6.38-22.18-6.49-31.96-.28-18.16,11.54-18.18,38.03-.04,49.6l.81,.52c9.66,6.16,22.03,6.15,31.68-.04l37.86-24.28-38.35-25.52Z"/></g><g><path class="cls-3" d="M1112.58,505.4c27.26,0,47-11.75,47-32.9,0-12.69-6.58-22.56-23.97-29.61l-54.99-22.09c-28.2-12.22-43.71-28.2-43.71-58.28,0-40.42,32.43-65.8,79.43-65.8,27.26,0,52.64,7.52,70.5,21.15v39.95c-21.15-18.8-47-29.61-70.03-29.61-24.44,0-41.83,11.28-41.83,30.08,0,14.1,6.58,22.56,24.91,29.61l54.99,22.09c29.61,12.69,43.24,30.55,43.24,55.46,0,44.18-35.72,71.44-86.01,71.44-30.55,0-58.28-8.46-78.49-23.5v-41.36c24.44,23.03,51.7,33.37,78.96,33.37Z"/><path class="cls-3" d="M1270.5,455.11c0,32.43,19.74,45.12,44.65,45.12,18.8,0,37.6-5.17,54.05-16.92v37.13c-15.98,11.75-38.07,16.45-57.34,16.45-49.35,0-79.43-22.09-79.43-84.6V250.27l38.07-23.55v228.4Z"/><path class="cls-3" d="M1582.1,493.18c-19.26,27.26-48.88,43.71-85.07,43.71-67.68,0-116.09-50.29-116.09-118.91s48.41-121.26,116.09-121.26c36.19,0,65.8,16.92,85.07,44.65v-40.42h38.54v231.71h-38.54v-39.48Zm-161.68-75.67c0,47.94,33.37,83.19,80.37,83.19s81.3-35.25,81.3-83.19-33.84-84.6-81.3-84.6-80.37,35.72-80.37,84.6Z"/><path class="cls-3" d="M1717.92,532.66h-38.07v-231.71h38.07v39.48c17.39-26.79,45.12-43.71,80.37-43.71,58.28,0,89.3,42.77,89.3,99.64v136.3h-38.54v-129.72c0-45.12-19.74-69.09-60.16-69.09-42.77,0-70.97,36.66-70.97,82.72v116.09Z"/><path class="cls-3" d="M2124,492.24c-18.8,27.73-48.88,44.65-85.07,44.65-67.68,0-116.09-50.29-116.09-118.91s48.41-121.26,116.09-121.26c36.19,0,66.27,17.39,85.07,45.59v-92.06l38.54-23.52v305.93h-38.54v-40.42Zm-161.68-74.73c0,47.94,33.37,83.19,80.37,83.19s81.3-35.25,81.3-83.19-33.84-84.6-81.3-84.6-80.37,35.72-80.37,84.6Z"/><path class="cls-3" d="M2829,492.24c-18.8,27.73-48.88,44.65-85.07,44.65-67.68,0-116.09-50.29-116.09-118.91s48.41-121.26,116.09-121.26c36.19,0,66.27,17.39,85.07,45.59v-92.06l38.54-23.52v305.93h-38.54v-40.42Zm-161.68-74.73c0,47.94,33.37,83.19,80.37,83.19s81.3-35.25,81.3-83.19-33.84-84.6-81.3-84.6-80.37,35.72-80.37,84.6Z"/><path class="cls-3" d="M2405.06,493.18c-19.27,27.26-48.88,43.71-85.07,43.71-67.68,0-116.09-50.29-116.09-118.91s48.41-121.26,116.09-121.26c36.19,0,65.8,16.92,85.07,44.65v-40.42h38.54v231.71h-38.54v-39.48Zm-161.68-75.67c0,47.94,33.37,83.19,80.37,83.19s81.3-35.25,81.3-83.19-33.84-84.6-81.3-84.6-80.37,35.72-80.37,84.6Z"/><path class="cls-3" d="M2540.88,532.66h-38.07v-231.71h38.07v49.35c18.33-34.31,47.94-53.58,84.6-53.58v43.71c-46.06-6.58-84.6,24.44-84.6,81.78v110.45Z"/><path class="cls-3" d="M1324.16,350.33c9.68,6.36,22.2,6.44,31.96,.2,18.13-11.58,18.09-38.08-.07-49.6l-.81-.51c-9.68-6.14-22.04-6.09-31.68,.12l-37.81,24.37,38.41,25.43Z"/></g></g></svg>