<svg id="Layer_1" data-name="Layer 1" xmlns="http://www.w3.org/2000/svg" viewBox="0 0 914.53 348.51"><defs><style>.cls-1{fill:#0072aa;}.cls-2{fill:#78add2;}.cls-3{fill:#a4d1a0;}.cls-4{fill:#22aa47;}</style></defs><title>standard-chartered-logo-2013-cmyk</title><path class="cls-1" d="M179.31,151.35h-9.52c-6.36,0-9-4.06-9-9.93v-42h18.52V87.54H160.79V65.19H147.44v76c0,16,8,22.88,22.33,22.88h9.54Z"/><path class="cls-1" d="M50.89,127.92v.55c0,27.22,22.24,37,43.06,37,20.34,0,40.81-9.73,40.81-31.27,0-20.93-17.19-26.59-33.31-30.26l-5.63-1.22c-14.45-3.16-27-5.82-27-16.58C68.85,70.78,84.61,69,91.37,69c14.88,0,23.53,7.18,25,20.58l.05.5h14.06v-.58c-.81-21.08-14.84-33.12-38.51-33.12-18.86,0-37.9,9.46-37.9,30.7,0,18.93,15.83,23.95,33.46,27.8l3.48.77c14.89,3.16,29,6.17,29,18.9,0,15.8-16,18.15-25.56,18.15-8.06,0-15.34-2.06-20.5-5.79C68.05,142.72,65,136.36,65,128.47v-.55Z"/><path class="cls-1" d="M259.62,151.78l-.74.27a9.75,9.75,0,0,1-3.55.69c-3.21,0-3.36-1.74-3.36-7.78V106.62c0-14.19-9.31-21.06-28.5-21.06-11.63,0-31.27,3.29-32.14,25.49v.58h13.32l0-.52c.49-9.26,6.26-13.65,18.08-13.65,10.91,0,16,3.75,16,11.89,0,6.77-6.86,7.73-16.31,9.06-2.71.38-5.44.78-8.36,1.33-13,2.5-25.69,6.37-25.69,23.5,0,13.4,9.44,21.49,25.23,21.49,10.6,0,19.22-3.76,25.81-10.88.52,8.8,6.07,10.88,10.81,10.88a17.12,17.12,0,0,0,9.09-2.18l.26-.16Zm-43.24,1c-4.16,0-13.87-1-13.87-10.37,0-9,7.38-11.64,14.54-12.92,2.19-.37,4.53-.69,6.75-1,5.74-.74,11.17-1.46,14.83-3.62h0v11.6C238.63,142.76,232.58,152.74,216.38,152.74Z"/><path class="cls-1" d="M271.43,87.54v75.62H284.8V120.53c0-14.24,8-22.82,21.5-22.82,9,0,14.58,5.61,14.58,14.48v51h13.37V113.63c0-18.74-8.6-27.82-26.23-27.82-10.74,0-18.76,4.2-24,12.56V87.54Z"/><path class="cls-1" d="M405.19,59.12V96.74c-5.65-8-15.87-10.93-23.77-10.93-21.06,0-34.63,15.4-34.63,39.32,0,11,3.12,20.86,8.7,27.87,6.2,7.77,15.26,12,26.21,12s19.38-4,23.49-10.92v9.1h13.39v-104ZM383.42,153c-15.54,0-22.54-13.51-22.54-27,0-8.48,2.12-28.29,21.83-28.29,21.25,0,22.92,21.23,22.92,27.71C405.63,138.8,399.81,153,383.42,153Z"/><path class="cls-1" d="M503.24,152l-.73.27A9.68,9.68,0,0,1,499,153c-3.27,0-3.41-1.74-3.41-7.77V106.87c0-14.19-9.31-21.06-28.44-21.06-11.68,0-31.3,3.29-32.17,25.49l0,.58h13.36l0-.52c.49-9.26,6.21-13.65,18.06-13.65,10.92,0,16,3.85,16,11.89,0,6.77-6.82,7.73-16.27,9.06-2.72.38-5.47.78-8.37,1.33-13,2.5-25.65,6.37-25.65,23.5,0,13.4,9.39,21.49,25.19,21.49,10.61,0,19.23-3.75,25.78-10.87.52,8.79,6.07,10.87,10.81,10.87A17,17,0,0,0,503,162.8l.27-.16ZM460,153c-4.16,0-13.82-1-13.82-10.37,0-9,7.31-11.64,14.48-12.92,2.19-.37,4.47-.68,6.77-1,5.75-.74,11.17-1.46,14.8-3.62h0v11.6C482.21,143,476.19,153,460,153Z"/><path class="cls-1" d="M555.19,85.83l-.53,0c-12.49-.4-20.87,4.59-27.16,16.33V87.54H514.9v75.62h13.32V129.45c0-20.13,8.46-29.59,26.42-29.59h.55Z"/><path class="cls-1" d="M615.43,59.12V96.74c-5.65-8-15.84-10.93-23.85-10.93-21,0-34.57,15.4-34.57,39.32,0,11,3.08,20.86,8.76,27.87,6.19,7.77,15.21,12,26.16,12s19.4-4,23.5-10.92v9.1h13.42v-104ZM593.69,153c-15.59,0-22.54-13.51-22.54-27,0-8.48,2.11-28.29,21.83-28.29,21.22,0,22.88,21.23,22.88,27.71C615.86,138.8,610,153,593.69,153Z"/><path class="cls-1" d="M78.48,268.29l0,.5C77.06,286.75,65.92,298,49.32,298,37.86,298,29,293.8,23,285.42c-5.35-7.35-8.21-17.71-8.21-30,0-11.21,2.94-21.33,8.18-28.57,6-8.2,15.07-12.52,26.2-12.52,15.06,0,25.6,8,28.26,21.5l.09.44H92.33l-.1-.62c-1.51-10.66-6.55-19.38-14.54-25.34-7.52-5.62-17.36-8.6-28.37-8.6-15.19,0-27.88,5.55-36.72,16.08C4.5,227.42,0,241.21,0,256.39c0,33.43,18.47,54.22,48.17,54.22,12.76,0,23.63-3.85,31.41-11.12S92,281.69,93.24,268.88l.06-.59Z"/><path class="cls-1" d="M106.11,204V308.24h13.37V265.53c0-14.33,8.07-22.83,21.49-22.83,9,0,14.6,5.52,14.6,14.41v51.13h13.37v-49.7c0-18.66-8.56-27.73-26.19-27.73-7.94,0-18.5,3-23.27,11.46V204Z"/><path class="cls-1" d="M196.92,256.8v-.54c.49-9.25,6.21-13.56,18-13.56,11,0,16,3.76,16,11.82,0,6.85-6.82,7.82-16.3,9.15-2.67.37-5.41.77-8.31,1.33-13,2.49-25.71,6.36-25.71,23.4,0,13.48,9.45,21.49,25.23,21.49,10.56,0,19.24-3.67,25.77-10.78.51,8.79,6.11,10.78,10.85,10.78a17,17,0,0,0,9.06-2.09l.26-.16V297l-.74.26a9.54,9.54,0,0,1-3.55.68c-3.18,0-3.32-1.72-3.32-7.85V251.78c0-14.11-9.35-21-28.54-21-11.64,0-31.27,3.3-32.14,25.41v.58ZM208.65,298c-4.19,0-13.87-1-13.87-10.45,0-9,7.32-11.55,14.55-12.82,2.18-.39,4.46-.68,6.67-1,5.8-.74,11.24-1.46,14.86-3.64h0v11.52C230.86,287.93,224.84,298,208.65,298Z"/><path class="cls-1" d="M628.85,308.18V204.12H615.43v37.62c-5.65-8-15.84-10.93-23.85-10.93-21,0-34.57,15.4-34.57,39.32,0,10.9,3.08,20.85,8.76,27.87,6.19,7.76,15.21,11.89,26.16,11.89s19.4-4,23.5-10.84v9.13ZM593.69,298c-15.59,0-22.54-13.59-22.54-27,0-8.49,2.11-28.31,21.83-28.31,21.22,0,22.88,21.24,22.88,27.72C615.86,283.71,610,298,593.69,298Z"/><path class="cls-1" d="M408.91,284.7c-2.29,8.59-8.76,13.28-18.5,13.28-6.89,0-12.67-2.15-16.62-6.24-4-4.24-6.14-10.29-6-17.17h55.74l.05-.54c.53-13.44-3.6-26.2-11.05-34-5.95-6.15-13.74-9.26-23.25-9.26-20.62,0-35.59,16.5-35.59,39.32.8,25.31,14.05,39.76,36.31,39.76,17,0,28.76-9.15,32.25-25.19Zm-20.38-42c11.17,0,20,8.52,20.85,20H367.83C368.81,252.59,375.51,242.7,388.53,242.7Z"/><path class="cls-1" d="M533.63,284.88c-2.31,8.48-8.87,13.1-18.49,13.1-6.89,0-12.61-2.15-16.56-6.24-4.12-4.24-6.22-10.29-6.12-17.17h55.79l0-.54c.53-13.44-3.59-26.2-11-34-5.9-6.15-13.77-9.26-23.24-9.26-20.66,0-35.57,16.5-35.57,39.32.78,25.31,14,39.76,36.3,39.76,17,0,28.68-9.08,32.21-25ZM513.26,242.7c11.14,0,20,8.52,20.89,20H492.52C493.51,252.59,500.3,242.7,513.26,242.7Z"/><path class="cls-1" d="M277,308.23V274.44c0-20.21,8.41-29.58,26.43-29.58H304v-14h-.53c-12.54-.41-21,4.59-27.17,16.23v-14.6H263.62v75.79Z"/><path class="cls-1" d="M450.08,308.18V274.44c0-20.21,8.37-29.58,26.42-29.58h.55v-14h-.53c-12.58-.41-21,4.59-27.16,16.23V232.48H436.72v75.7Z"/><path class="cls-1" d="M346.93,296.36h-9.48c-6.41,0-9-4.07-9-10V244.39h18.52V232.53H328.41V210.19H315.05v75.95c0,16.12,8.08,23,22.38,23h9.5Z"/><path class="cls-2" d="M756.79,336.58c-9.13,5.43-17.42,8.68-26.12,8.68-22.5,0-41.3-18.43-42.39-40.59l43.85-26.12L800.29,309Z"/><path class="cls-3" d="M782.85,224.35,750.29,210C735.73,203.5,722,198.09,722,182.07c0-8.3,2.52-12.64,6.49-17l68.89,30.36-17.08,9.85c-4.71,2.9-8,5.43-8,9.05,0,3.92,4.47,7.25,10.51,10Z"/><path class="cls-2" d="M814.84,74.07,781.45,94.32c-3,1.79-6.93,4.68-6.93,9.13,0,5.06,7.71,8.93,14.56,12.19L747.3,97.21C735,91.79,722.72,85.64,722.72,70.8a27.22,27.22,0,0,1,4.7-15.61L817.72,0c10.83,6.14,21.33,18.55,21.33,35.19C839.05,53,830,64.93,814.84,74.07Z"/><path class="cls-3" d="M885.86,139.33l-8.3,4.69-69-30.45L888.77,65.3c10.82,6.24,21.43,18.53,21.43,35.16C910.2,118.27,901.42,130.55,885.86,139.33Z"/><path class="cls-2" d="M827.63,197.89l40.8,17.93c15.29,6.85,20,14.89,20,25,0,5.77-3.26,11.57-7.94,15.55l-68.62-30.48,11.61-6.51c9.82-5.42,13.07-8.68,13.07-12.29s-2.29-6.23-8.91-9.24Z"/><path class="cls-4" d="M900.35,348.51C883,335.14,864.47,326.1,842,315.88l-104.05-46c-26.14-11.65-43.48-27.18-43.48-53.32,0-25.41,12.3-37.71,28.29-47.81l5.77-3.62c-4,4.33-6.49,8.67-6.49,17,0,16,13.73,21.43,28.29,27.94l121.05,53.34c21.06,9,40.33,24.59,40.33,51.08C911.67,329,906.13,342,900.35,348.51Z"/><path class="cls-1" d="M888.06,251.69l-7.58,4.72c4.68-4,7.94-9.78,7.94-15.56,0-10.14-4.71-18.18-20-25L739,158.85c-26.13-11.56-42.4-26.48-42.4-52.5,0-24,11.93-39.61,30.83-51.16a27.22,27.22,0,0,0-4.7,15.61c0,14.84,12.28,21,24.58,26.41l125.83,55.5c22.87,10.12,41.4,25.4,41.4,53.33C914.53,227.83,904.34,241.56,888.06,251.69Z"/></svg>