<svg id="Layer_1" data-name="Layer 1" xmlns="http://www.w3.org/2000/svg" viewBox="0 0 180 22.01"><defs><style>.cls-1{fill:#49635f;}</style></defs><title>SSGA Logo_Horizontal_Base</title><path class="cls-1" d="M138.26,21.72h2.18L139,12.18h-3l-1.55,9.54h2.06l.25-2.11h1.27Zm-1.33-3.38.52-4.53.47,4.53Zm4.14,3.38h2.74c1.92,0,2.9-1.53,2.9-4.78s-1-4.76-2.9-4.76h-2.74Zm3.41-4.78c0,2.58-.34,3.13-.93,3.13h-.32V13.84h.32c.59,0,.93.53.93,3.1m4.68-4.76H147l1.45,9.54h2.92L153,12.18h-2.06L150,20.09Zm4.49,9.54h2.16V12.18h-2.16Zm5-7.32c0-.5.3-.69.6-.69.51,0,.7.44.72,1v.45l1.68-.09,0-.53c-.09-1.93-1.09-2.5-2.4-2.5a2.32,2.32,0,0,0-2.52,2.5,3.77,3.77,0,0,0,1.63,3c.7.61,1.42,1.2,1.42,1.85,0,.47-.19.71-.6.71s-.8-.29-.85-1.21l0-.47-1.72.09,0,.74a2.58,2.58,0,0,0,5.16-.1c0-1.43-.81-2.14-1.68-2.94-1-1-1.44-1.22-1.44-1.88m6.63,7.45c2,0,2.94-1.34,2.94-4.91s-1-4.88-2.94-4.88-2.92,1.33-2.92,4.88,1,4.91,2.92,4.91m0-1.66c-.47,0-.72-.52-.72-3.25s.25-3.23.72-3.23.74.51.74,3.23-.27,3.25-.74,3.25m9.14,1.53-1.09-4.35a2.93,2.93,0,0,0,1-2.44c0-1.79-1-2.75-2.49-2.75h-2.79v9.54h2.17V17.87h.17l.86,3.85Zm-3.17-7.95h.26c.35,0,.69.21.69,1.43s-.4,1.4-.76,1.4h-.19Zm5.65.63c0-.5.3-.69.6-.69.51,0,.7.44.71,1l0,.45,1.67-.09,0-.53c-.09-1.93-1.09-2.5-2.4-2.5a2.32,2.32,0,0,0-2.52,2.5,3.77,3.77,0,0,0,1.63,3c.7.61,1.42,1.2,1.42,1.85,0,.47-.19.71-.6.71s-.8-.29-.85-1.21l0-.47-1.72.09,0,.74a2.58,2.58,0,0,0,5.16-.1c0-1.43-.81-2.14-1.68-2.94-1-1-1.44-1.22-1.44-1.88"/><path class="cls-1" d="M140,3.2l0-.54c-.07-1.64-.94-2.5-2.3-2.5-2,0-3.05,1.56-3.05,4.88,0,3.47,1.08,4.91,2.71,4.91a1.71,1.71,0,0,0,1.55-.81l.38.68h.78V4.71h-2.47V5.86h.66V7.67c0,.5-.24.63-.56.63-.47,0-.83-.57-.83-3.26s.31-3.23.83-3.23c.37,0,.61.29.64,1.1v.38Zm4.7,6.62V8.17h-1.46V.29H141.1V9.82Zm3.22.13c1.95,0,2.94-1.33,2.94-4.91s-1-4.88-2.94-4.88S145,1.49,145,5,146,10,147.94,10m0-1.65c-.47,0-.73-.52-.73-3.26s.26-3.23.73-3.23.74.51.74,3.23-.27,3.26-.74,3.26m3.74,1.52h2.54c1.92,0,2.89-1,2.89-3a2.26,2.26,0,0,0-1.31-2.24,2,2,0,0,0,1.22-2c0-1.55-.89-2.36-2.76-2.36h-2.58ZM154.91,3c0,.89-.29,1.2-.79,1.2h-.28V1.94h.22c.52,0,.85.2.85,1m-1.07,5.21V5.44h.23c.53,0,.88.25.88,1.32s-.35,1.41-.88,1.41Zm7.3,1.65h2.18L161.9.29h-3l-1.55,9.53h2.06l.24-2.11h1.27Zm-1.33-3.38.52-4.53.47,4.53Zm7.77,3.38V8.17h-1.47V.29H164V9.82Z"/><path class="cls-1" d="M4.69,5.26c0-1.12.65-1.55,1.34-1.55,1.14,0,1.57,1,1.6,2.29l0,1,3.77-.2,0-1.2C11.17,1.29,8.92,0,6,0,2.14,0,.31,2.49.31,5.63S1.66,10.43,4,12.49c1.57,1.37,3.2,2.69,3.2,4.14,0,1.06-.43,1.6-1.34,1.6-1.06,0-1.8-.65-1.91-2.71l-.06-1.06L0,14.66l.09,1.66C.31,20.81,3.06,22,5.92,22c4,0,5.77-2.43,5.77-5.92,0-3.2-1.83-4.8-3.77-6.6C5.6,7.32,4.69,6.74,4.69,5.26M14.83,21.72h4.86V4h2.86V.29H12V4h2.85Zm15.78,0H35.5L32.32.29H25.58L22.09,21.72h4.63L27.27,17h2.85Zm-3-7.6L28.78,3.94l1.06,10.18Zm10.49,7.6H43V4h2.86V.29H35.24V4H38.1Zm17.72,0V18H52.24V11.86h3V9h-3V4h3.58V.29H47.38V21.72ZM66.76,5.26c0-1.12.66-1.55,1.35-1.55,1.14,0,1.57,1,1.6,2.29l0,1,3.78-.2-.06-1.2C73.25,1.29,71,0,68.05,0c-3.83,0-5.66,2.49-5.66,5.63s1.34,4.8,3.66,6.86c1.57,1.37,3.2,2.69,3.2,4.14,0,1.06-.43,1.6-1.34,1.6-1.06,0-1.81-.65-1.92-2.71l-.06-1.06-3.86.2.09,1.66c.23,4.49,3,5.69,5.83,5.69,4,0,5.77-2.43,5.77-5.92,0-3.2-1.82-4.8-3.77-6.6-2.31-2.17-3.23-2.75-3.23-4.23M76.91,21.72h4.86V4h2.85V.29H74.05V4h2.86Zm20.86,0L95.31,12a6.61,6.61,0,0,0,2.32-5.49c0-4-2.2-6.17-5.6-6.17H85.77V21.72h4.86V13.06H91l1.91,8.66ZM90.63,3.86h.6c.77,0,1.54.45,1.54,3.2s-.89,3.14-1.72,3.14h-.42Zm17.11,17.86V18h-3.57V11.86h3V9h-3V4h3.57V.29H99.31V21.72Zm10.15,0V18h-3.57V11.86h3V9h-3V4h3.57V.29h-8.43V21.72Zm4,0h4.86V4h2.86V.29H119V4h2.86Z"/></svg>