<?xml version="1.0" encoding="utf-8"?>
<!-- Generator: Adobe Illustrator 25.2.1, SVG Export Plug-In . SVG Version: 6.00 Build 0)  -->
<svg version="1.1" id="Artwork" xmlns="http://www.w3.org/2000/svg" xmlns:xlink="http://www.w3.org/1999/xlink" x="0px" y="0px"
	 viewBox="0 0 207.87 74.11" style="enable-background:new 0 0 207.87 74.11;" xml:space="preserve">
<style type="text/css">
	.アーチ_x0020__x0028_グリーン_x0029_{fill:url(#SVGID_1_);stroke:#FFFFFF;stroke-width:0.25;stroke-miterlimit:1;}
	.st0{fill:#FFFFFF;}
	.st1{fill:#E60013;}
</style>
<linearGradient id="SVGID_1_" gradientUnits="userSpaceOnUse" x1="-196.5176" y1="567.3398" x2="-195.8105" y2="566.6327">
	<stop  offset="0" style="stop-color:#00A53C"/>
	<stop  offset="0.9831" style="stop-color:#153719"/>
</linearGradient>
<g>
	<g>
		<path class="st0" d="M28.58,23.36C11.78,34.93,0,50.56,0,50.56l22.03,14.89c0,0,1.92-4.76,1.97-4.89
			c5.24,10.79,16.48,13.69,22.76,13.54h-0.1h114.41h-0.12c6.35,0.17,17.7-2.69,22.99-13.46c0.18,0.45,1.9,4.64,1.9,4.64l22.03-14.74
			c0,0-11.96-15.64-28.88-27.2C163.4,12.69,137.68,0,103.67,0C69.65,0,44.05,12.7,28.58,23.36z"/>
		<polygon class="st1" points="70.31,35.18 72.21,31.11 47.78,31.11 45.87,35.18 55.33,35.18 45.53,55.12 51.86,55.12 61.66,35.18 
					"/>
		<path class="st1" d="M158.54,48.5c-1.82,2.55-4.39,3.85-5.75,2.89c-1.36-0.97-0.99-3.82,0.83-6.38c1.82-2.56,4.39-3.85,5.75-2.89
			C160.74,43.09,160.36,45.94,158.54,48.5z M137.16,48.41c-1.82,2.56-4.39,3.85-5.75,2.89c-1.36-0.97-0.99-3.82,0.83-6.39
			c1.82-2.55,4.39-3.85,5.75-2.88C139.35,42.99,138.97,45.85,137.16,48.41 M110.58,46.55c0,0,1.18-3.97,5.02-5.56
			c0,0,1.08-0.38,1.67,0.1c0,0,0.82,0.8-0.16,2.26c-0.88,1.3-2.97,3.66-5.25,4.45C111.87,47.8,109.81,48.69,110.58,46.55
			 M73.28,48.41c-1.82,2.56-4.39,3.85-5.75,2.89c-1.36-0.97-0.98-3.82,0.83-6.39c1.82-2.55,4.39-3.85,5.75-2.88
			C75.46,42.99,75.09,45.85,73.28,48.41 M164.63,51.52c0,0-1.23,0.57-1.77,0.02c-0.53-0.55-0.06-1.57-0.06-1.57l5.17-10.86h-5.27
			l-0.8,1.45c-3.08-2.71-8.86-1.31-12.44,2.44c-2.07,2.16-3.24,4.72-3.4,6.94c-0.59,0.39-1.56,0.98-2.83,1.48
			c0,0-1.23,0.56-1.76,0.01s-0.06-1.57-0.06-1.57l9.17-18.86h-5.26l-4.81,9.46c-3.07-2.7-8.85-1.3-12.44,2.44
			c-0.73,0.76-1.34,1.57-1.84,2.4l0-0.02c-0.03,0.06-0.07,0.13-0.11,0.2c-0.11,0.19-0.22,0.39-0.32,0.58
			c-2.86,4.95-6.42,5.78-6.42,5.78c-7.52,2.25-8.38-1.43-8.38-1.43c8.43-3.12,11.59-6.8,11.3-9.62c-0.29-2.83-4.17-2.97-4.17-2.97
			c-6.37-0.38-11.88,4.07-13.22,8.43c-0.41,1.33-0.53,2.69-0.28,3.94c-2.55,1.36-4.01,1.57-4.01,1.57
			c-2.12,0.67-2.38-0.33-2.64-0.95c-0.26-0.62-1.21-6.04-1.21-6.04l8.94-5.85h-5.47l-6.72,4.16c-1.51,0.62-0.92-0.96-0.92-0.96
			L98.09,31h-5.26l-8.9,18.03c-1.02,0.61-3.08,1.81-4.57,2.4c0,0-1.23,0.56-1.77,0.01c-0.53-0.55-0.06-1.57-0.06-1.57l5.17-10.85
			h-5.26l-0.81,1.45c-3.07-2.7-8.85-1.3-12.44,2.44c-3.58,3.74-4.5,8.69-2.05,11.03c1.96,1.88,5.49,1.54,8.65-0.6
			c0,0,0.8-0.69,1.24,0.12c0.45,0.83,2.26,2.72,6.44,1.08c1.34-0.53,2.54-1.13,3.57-1.71l-1.09,2.22h5.27l2.63-5.34l2.29-1.46
			c0,0,0.7-0.55,0.98,0.63c0,0,1.13,4.48,1.58,5.07c0.44,0.59,1.32,1.9,5.02,0.84c2.84-0.81,5.48-1.82,6.87-2.41
			c1.24,1.7,3.62,2.87,7.52,2.87c5.78,0,9.85-2.76,11.58-4.19c0.12,1.14,0.56,2.15,1.34,2.88c1.96,1.88,5.49,1.54,8.65-0.6
			c0,0,0.8-0.69,1.24,0.12c0.45,0.83,2.26,2.72,6.44,1.08c1.92-0.76,3.21-1.48,4.04-2.04c0.23,0.59,0.57,1.11,1.02,1.55
			c1.96,1.88,5.49,1.53,8.65-0.61c0,0,0.8-0.69,1.24,0.12c0.45,0.84,2.26,2.72,6.44,1.08c4.18-1.65,5.38-3.14,5.38-3.14l-1.06-1.86
			C167.92,49.71,166.64,50.73,164.63,51.52"/>
		<path class="st1" d="M179.38,51.02c0,0-2.49,14.53-18.55,14.53c-15.93,0-98.29,0-114.22,0c-16.06,0-18.32-14.66-18.32-14.66
			c-0.61-3.89,0.14-6.55,1.34-8.4C41.18,27.27,64.06,6.84,103.62,6.84c39.89,0,62.96,20.72,74.52,35.95
			C179.47,44.48,179.97,47.26,179.38,51.02z M103.67,4.32c-63.71,0-97.5,45.2-97.5,45.2l13.85,9.36c0,0,1.67-4.19,5.51-10.19
			c0.02,1.5,0.22,2.56,0.22,2.56c2.45,18.99,20.9,18.54,20.9,18.54h114.41c0,0,18.7,0.51,21.14-18.47c0,0,0.19-0.98,0.21-2.47
			c3.76,5.85,5.42,9.92,5.42,9.92l13.83-9.26C201.66,49.5,167.38,4.32,103.67,4.32"/>
	</g>
</g>
</svg>
