<?xml version="1.0" encoding="utf-8"?>
<!-- Generator: Adobe Illustrator 23.0.3, SVG Export Plug-In . SVG Version: 6.00 Build 0)  -->
<svg version="1.1" id="Layer_1" xmlns="http://www.w3.org/2000/svg" xmlns:xlink="http://www.w3.org/1999/xlink" x="0px" y="0px"
	 viewBox="0 0 772.8 47.2" style="enable-background:new 0 0 772.8 47.2;" xml:space="preserve">
<style type="text/css">
	.st0{fill:#4E84C4;}
	.st1{fill-rule:evenodd;clip-rule:evenodd;fill:#4E84C4;}
</style>
<g>
	<g>
		<g>
			<path class="st0" d="M245.4,45.1c-2,1-6.3,2.1-11.8,2.1c-14.5,0-23.4-9.2-23.4-23.1C210.2,9.1,220.7,0,234.6,0
				c5.5,0,9.4,1.2,11.1,2l-1.8,6.7c-2.2-1-5.2-1.8-9-1.8c-9.3,0-16,5.8-16,16.8c0,10,5.9,16.5,16,16.5c3.4,0,6.9-0.7,9.1-1.7
				L245.4,45.1z"/>
			<path class="st0" d="M291.3,23.1c0,15.3-9.3,24.1-21.9,24.1c-12.9,0-21-9.8-21-23.3c0-14.1,8.8-24,21.7-24
				C283.5,0,291.3,10.1,291.3,23.1z M257.2,23.8c0,9.3,4.7,16.8,12.7,16.8c8.1,0,12.6-7.5,12.6-17.1c0-8.6-4.3-16.8-12.6-16.8
				C261.6,6.7,257.2,14.4,257.2,23.8z"/>
			<path class="st0" d="M337.1,27.8c-0.3-5.9-0.6-13-0.5-19.3h-0.2c-1.5,5.6-3.4,11.8-5.4,17.6L324.3,46h-6.4l-6.1-19.6
				c-1.8-5.8-3.4-12.1-4.6-17.9H307c-0.2,6-0.5,13.3-0.8,19.6l-1,18.4h-7.8l3.1-45.8h11l6,18.4c1.6,5.4,3.1,10.8,4.2,15.9h0.2
				c1.2-5,2.8-10.6,4.6-16l6.3-18.3h10.9l2.6,45.8H338L337.1,27.8z"/>
			<path class="st0" d="M393.3,27.8c-0.3-5.9-0.6-13-0.5-19.3h-0.2c-1.5,5.6-3.4,11.8-5.4,17.6L380.5,46H374l-6.1-19.6
				c-1.8-5.8-3.4-12.1-4.6-17.9h-0.1c-0.2,6-0.5,13.3-0.8,19.6l-1,18.4h-7.8l3.1-45.8h11l6,18.4c1.6,5.4,3.1,10.8,4.2,15.9h0.2
				c1.2-5,2.8-10.6,4.5-16l6.3-18.3h10.9l2.7,45.8h-8.1L393.3,27.8z"/>
			<path class="st0" d="M419.1,0.7v26.7c0,9,3.7,13.1,9.4,13.1c6,0,9.6-4.1,9.6-13.1V0.7h8.4v26.1c0,14.1-7.3,20.4-18.3,20.4
				c-10.6,0-17.4-5.9-17.4-20.3V0.7H419.1z"/>
			<path class="st0" d="M456,46.5V0.7h9.5l11.8,19.6c3.1,5.1,5.7,10.4,7.8,15.3h0.1c-0.5-6.1-0.7-12-0.7-19v-16h7.7v45.8h-8.6
				l-11.9-20.2c-2.9-5-6-10.6-8.2-15.7l-0.2,0.1c0.3,5.9,0.4,11.9,0.4,19.5v16.4H456z"/>
			<path class="st0" d="M510.2,0.7v45.8h-8.4V0.7H510.2z"/>
			<path class="st0" d="M552.6,45.1c-2,1-6.3,2.1-11.8,2.1c-14.5,0-23.3-9.2-23.3-23.1C517.4,9.1,527.9,0,541.9,0
				c5.5,0,9.4,1.2,11.1,2l-1.8,6.7c-2.2-1-5.2-1.8-9-1.8c-9.3,0-16,5.8-16,16.8c0,10,5.9,16.5,16,16.5c3.4,0,6.9-0.7,9.1-1.7
				L552.6,45.1z"/>
			<path class="st0" d="M569.4,33.5l-3.9,13h-8.6l14.7-45.8h10.7L597,46.5h-9l-4.1-13H569.4z M582.5,27.2L578.9,16
				c-0.9-2.8-1.6-5.9-2.3-8.6h-0.1c-0.7,2.6-1.4,5.8-2.2,8.6l-3.5,11.3H582.5z"/>
			<path class="st0" d="M606.6,7.7h-13v-7h34.6v7H615v38.8h-8.4V7.7z"/>
			<path class="st0" d="M641.9,0.7v45.8h-8.3V0.7H641.9z"/>
			<path class="st0" d="M692,23.1c0,15.3-9.3,24.1-21.9,24.1c-12.9,0-21-9.8-21-23.3c0-14.1,8.8-24,21.7-24
				C684.2,0,692,10.1,692,23.1z M657.9,23.8c0,9.3,4.7,16.8,12.7,16.8c8.1,0,12.6-7.5,12.6-17.1c0-8.6-4.3-16.8-12.6-16.8
				C662.3,6.7,657.9,14.4,657.9,23.8z"/>
			<path class="st0" d="M699.2,46.5V0.7h9.5l11.8,19.6c3.1,5.1,5.7,10.4,7.8,15.3h0.1c-0.5-6.1-0.7-12-0.7-19v-16h7.7v45.8h-8.6
				l-11.9-20.2c-2.9-5-6-10.6-8.2-15.7l-0.2,0.1c0.3,5.9,0.4,11.9,0.4,19.5v16.4H699.2z"/>
			<path class="st0" d="M744.9,37.4c2.7,1.6,6.8,2.9,11.1,2.9c5.4,0,8.4-2.5,8.4-6.2c0-3.5-2.3-5.5-8.2-7.6
				c-7.5-2.7-12.4-6.7-12.4-13.3C743.8,5.7,750.1,0,760,0c5,0,8.6,1.1,11,2.3l-2,6.7c-1.6-0.9-4.8-2.2-9.1-2.2
				c-5.3,0-7.6,2.9-7.6,5.5c0,3.5,2.6,5.2,8.8,7.5c7.9,3,11.8,7,11.8,13.6c0,7.3-5.6,13.8-17.4,13.8c-4.8,0-9.8-1.4-12.4-2.9
				L744.9,37.4z"/>
		</g>
	</g>
	<polyline class="st1" points="13.1,46.3 13.1,13.9 0,13.9 0,0.4 44.4,0.4 44.4,13.9 31.8,13.9 31.8,46.3 13.1,46.3 	"/>
	<polyline class="st1" points="101.7,46.3 101.7,13.9 88.6,13.9 88.6,0.4 133.1,0.4 133.1,13.9 120.4,13.9 120.4,46.3 101.7,46.3 	
		"/>
	<polyline class="st1" points="40.2,46.4 57,0.5 76.1,0.5 93.9,46.4 75.9,46.4 66.6,18.6 57.4,46.4 40.2,46.4 	"/>
	<polyline class="st1" points="128.8,46.4 145.6,0.5 164.5,0.5 182.6,46.4 164.5,46.4 155.5,18.6 146,46.4 128.8,46.4 	"/>
</g>
</svg>
