<?xml version="1.0" encoding="utf-8"?>
<!-- Generator: Adobe Illustrator 25.4.1, SVG Export Plug-In . SVG Version: 6.00 Build 0)  -->
<svg version="1.1" id="Layer_1" xmlns="http://www.w3.org/2000/svg" xmlns:xlink="http://www.w3.org/1999/xlink" x="0px" y="0px"
	 viewBox="0 0 283.46 80.16" style="enable-background:new 0 0 283.46 80.16;" xml:space="preserve">
<style type="text/css">
	.st0{fill:#E30613;}
	.st1{fill:#004A97;}
</style>
<g id="XMLID_110_">
	<path id="XMLID_71_" class="st0" d="M2.32,1.09h57.55v12.55c-4.08-3.43-12.76-4.81-22.03-4.81v34.21c0,5.11,0.44,6.49,2.41,9.12
		H21.94c1.97-2.63,2.41-4.01,2.41-9.12V8.83c-9.26,0-17.94,1.39-22.03,4.81V1.09z M87.51,44.42c5.91,0,15.76-1.39,19.62-4.81v12.55
		H65.19c2.04-2.41,2.41-4.01,2.41-8.9V9.99c0-4.89-0.36-6.49-2.41-8.9h39.75v12.55c-3.87-3.43-13.71-4.81-19.62-4.81h-4.67v13.57
		h3.43c3.36,0,8.53-0.15,11.96-1.39v10.07c-3.43-1.24-8.61-1.39-11.96-1.39h-3.43v14.73H87.51z M142.51,20.72
		c9.99,1.39,18.31,4.89,18.31,15.76c0,12.76-12.11,16.85-25.17,16.78c-9.12-0.07-16.85-0.95-22.54-3.21V38.59
		c8.1,5.25,16.41,6.93,22.54,6.93c6.35,0,12.18-1.53,12.18-6.35s-5.4-5.98-16.48-7.66c-9.56-1.46-18.24-5.54-18.31-14.95
		C112.97,3.87,125.01,0,136.53,0c7.44,0,14.66,0.88,21.3,3.06v12.33c-5.54-4.89-13.79-7.66-21.88-7.66
		c-5.47,0-10.65,1.75-10.65,5.84C125.3,18.67,132.96,19.4,142.51,20.72z M199.48,0c5.98,0,11.16,0.73,15.32,1.82v12.69
		c-4.08-4.16-8.9-6.78-15.24-6.78c-11.6,0-19.33,8.1-19.33,18.89s7.73,18.89,19.33,18.89c6.35,0,11.16-2.63,15.24-6.78v12.69
		c-4.16,1.09-9.34,1.9-15.32,1.9c-20.06,0-34.57-9.99-34.57-26.7C164.91,9.92,179.42,0,199.48,0z"/>
	<path id="XMLID_68_" class="st0" d="M250.93,0c-20.72,0-32.53,12.04-32.53,26.62c0,14.52,11.82,26.62,32.53,26.62
		c20.72,0,32.53-12.11,32.53-26.62C283.46,12.04,271.65,0,250.93,0z M250.93,45.52c-10.43,0-17.21-8.61-17.21-18.89
		c0-10.36,6.78-18.89,17.21-18.89c10.43,0,17.21,8.53,17.21,18.89C268.15,36.91,261.36,45.52,250.93,45.52z"/>
	<path id="XMLID_67_" class="st1" d="M248.08,66.02h34.75c0.04,0,0.07,0.01,0.1,0.02l0.01,0c0.01,0,0.02,0.01,0.02,0.02
		c0.07,0.07,0.07,0.2-0.03,0.3c-0.03,0.03-0.05,0.04-0.08,0.06l-0.06,0.03c-4.04,1.84-9.44,7.45-9.44,7.45
		c-4.04,3.84-7.07,6.26-13.54,6.26h-33.13c-0.1,0-0.15-0.09-0.15-0.19c0,0,0,0,0,0c0-0.06,0.03-0.12,0.07-0.16
		c0.03-0.02,0.07-0.05,0.1-0.07c3.64-2.03,9.07-7.66,9.07-7.66C237.98,69.46,242.42,66.02,248.08,66.02"/>
	<path id="XMLID_66_" class="st1" d="M191.45,66.02h34.75c0.04,0,0.07,0.01,0.1,0.02l0.01,0c0.01,0,0.02,0.01,0.02,0.02
		c0.07,0.07,0.07,0.2-0.03,0.3c-0.03,0.03-0.05,0.04-0.09,0.06l-0.06,0.03c-4.04,1.84-9.44,7.45-9.44,7.45
		c-4.04,3.84-7.07,6.26-13.54,6.26h-33.13c-0.1,0-0.15-0.09-0.15-0.19c0,0,0,0,0,0c0-0.06,0.03-0.12,0.07-0.16
		c0.03-0.02,0.07-0.05,0.1-0.07c3.64-2.03,9.07-7.66,9.07-7.66C181.35,69.46,185.79,66.02,191.45,66.02"/>
	<path id="XMLID_65_" class="st1" d="M134.82,66.02h34.75c0.04,0,0.07,0.01,0.1,0.02l0.01,0c0.01,0,0.02,0.01,0.02,0.02
		c0.07,0.07,0.07,0.2-0.03,0.3c-0.03,0.03-0.05,0.04-0.09,0.06l-0.06,0.03c-4.04,1.84-9.44,7.45-9.44,7.45
		c-4.04,3.84-7.07,6.26-13.54,6.26h-33.13c-0.1,0-0.15-0.09-0.15-0.19c0,0,0,0,0,0c0-0.06,0.03-0.12,0.07-0.16
		c0.03-0.02,0.07-0.05,0.1-0.07c3.64-2.03,9.07-7.66,9.07-7.66C124.72,69.46,129.17,66.02,134.82,66.02"/>
	<path id="XMLID_58_" class="st1" d="M78.2,66.02h34.75c0.04,0,0.07,0.01,0.1,0.02l0.01,0c0.01,0,0.02,0.01,0.02,0.02
		c0.07,0.07,0.07,0.2-0.03,0.3c-0.03,0.03-0.05,0.04-0.09,0.06l-0.06,0.03c-4.04,1.84-9.44,7.45-9.44,7.45
		c-4.04,3.84-7.07,6.26-13.54,6.26H56.78c-0.1,0-0.15-0.09-0.15-0.19c0,0,0,0,0,0c0-0.06,0.03-0.12,0.07-0.16
		c0.03-0.02,0.07-0.05,0.1-0.07c3.64-2.03,9.07-7.66,9.07-7.66C68.09,69.46,72.54,66.02,78.2,66.02"/>
	<path id="XMLID_57_" class="st1" d="M21.57,66.02h34.75c0.04,0,0.07,0.01,0.1,0.02l0.01,0c0.01,0,0.02,0.01,0.02,0.02
		c0.07,0.07,0.07,0.2-0.03,0.3c-0.03,0.03-0.05,0.04-0.09,0.06l-0.06,0.03c-4.04,1.84-9.44,7.45-9.44,7.45
		c-4.04,3.84-7.07,6.26-13.54,6.26H0.15c-0.1,0-0.15-0.09-0.15-0.19c0,0,0,0,0,0c0-0.06,0.03-0.12,0.07-0.16
		c0.03-0.02,0.07-0.05,0.1-0.07c3.64-2.03,9.07-7.66,9.07-7.66C11.47,69.46,15.91,66.02,21.57,66.02"/>
</g>
</svg>
