<?xml version="1.0" encoding="utf-8"?>
<!-- Generator: Adobe Illustrator 25.3.0, SVG Export Plug-In . SVG Version: 6.00 Build 0)  -->
<svg version="1.1" id="Layer_1" xmlns="http://www.w3.org/2000/svg" xmlns:xlink="http://www.w3.org/1999/xlink" x="0px" y="0px"
	 viewBox="0 0 275.34 196.01" style="enable-background:new 0 0 275.34 196.01;" xml:space="preserve">
<style type="text/css">
	.st0{fill:#1A3D65;}
	.st1{fill:#83B140;}
	.st2{fill:#FFFFFF;}
	.st3{opacity:0.7;fill:#FFFFFF;}
	.st4{fill:none;}
</style>
<path class="st0" d="M85.16,159v35.08H64.11c-15,0-26.7-3.67-35.08-11.01c-8.39-7.34-12.58-19.31-12.58-35.93V93.43H0V59.08h16.45
	v-32.9h41.37v32.9h27.1v34.35h-27.1v54.19c0,4.03,0.97,6.94,2.9,8.71c1.93,1.78,5.16,2.66,9.68,2.66H85.16z"/>
<path class="st0" d="M141.45,59.08v135h-41.37v-135H141.45z"/>
<path class="st0" d="M189.21,189.97c-9.19-4.03-16.45-9.56-21.77-16.57c-5.32-7.02-8.31-14.88-8.95-23.59h40.89
	c0.48,4.68,2.66,8.47,6.53,11.37s8.63,4.35,14.27,4.35c5.16,0,9.15-1,11.98-3.02c2.82-2.01,4.23-4.63,4.23-7.86
	c0-3.87-2.02-6.73-6.05-8.59c-4.03-1.85-10.56-3.91-19.6-6.17c-9.68-2.26-17.75-4.64-24.19-7.14c-6.45-2.5-12.02-6.45-16.69-11.85
	c-4.68-5.4-7.02-12.7-7.02-21.9c0-7.74,2.14-14.8,6.41-21.17c4.27-6.37,10.56-11.41,18.87-15.12c8.31-3.71,18.18-5.56,29.64-5.56
	c16.94,0,30.28,4.2,40.04,12.58c9.76,8.39,15.36,19.52,16.81,33.39h-38.23c-0.65-4.68-2.7-8.38-6.17-11.13
	c-3.47-2.74-8.02-4.11-13.67-4.11c-4.84,0-8.55,0.93-11.13,2.78c-2.58,1.86-3.87,4.4-3.87,7.62c0,3.87,2.06,6.77,6.17,8.71
	c4.11,1.93,10.52,3.87,19.23,5.81c10,2.58,18.14,5.12,24.44,7.62c6.29,2.5,11.81,6.53,16.57,12.1c4.76,5.56,7.22,13.03,7.38,22.38
	c0,7.9-2.22,14.96-6.65,21.17c-4.44,6.21-10.81,11.09-19.11,14.64c-8.31,3.55-17.94,5.32-28.91,5.32
	C208.89,196.01,198.41,194,189.21,189.97z"/>
<path class="st1" d="M102.98,38.35c-4.6-4.27-6.9-9.56-6.9-15.85c0-6.45,2.3-11.81,6.9-16.09C107.57,2.14,113.5,0,120.76,0
	c7.1,0,12.94,2.14,17.54,6.41c4.6,4.28,6.9,9.64,6.9,16.09c0,6.29-2.3,11.58-6.9,15.85c-4.6,4.28-10.44,6.41-17.54,6.41
	C113.5,44.76,107.57,42.62,102.98,38.35z"/>
<path class="st2" d="M113.79,20.16c2.42,1.65,4.69,3.49,6.79,5.51c2.11-2.02,4.38-3.86,6.79-5.51c-2.12-2.1-4.39-4.04-6.79-5.82
	C118.18,16.11,115.91,18.06,113.79,20.16z"/>
<path class="st3" d="M120.59,14.34c-5.02-3.71-10.62-6.68-16.65-8.73c-0.32,0.27-0.65,0.52-0.96,0.81c-2.08,1.94-3.67,4.11-4.81,6.5
	c5.64,1.56,10.91,4.03,15.63,7.25C115.91,18.06,118.18,16.11,120.59,14.34z"/>
<path class="st3" d="M127.38,20.16c4.74-3.23,10.04-5.71,15.72-7.27c-1.14-2.38-2.72-4.54-4.8-6.48c-0.32-0.3-0.66-0.56-0.99-0.84
	c-6.05,2.06-11.68,5.03-16.72,8.76C122.99,16.11,125.26,18.06,127.38,20.16z"/>
<path class="st3" d="M113.79,20.16c-4.92,4.88-9.01,10.6-12.07,16.91c0.4,0.43,0.81,0.86,1.25,1.28c1.76,1.64,3.72,2.96,5.88,3.97
	c2.81-6.3,6.82-11.94,11.73-16.65C118.48,23.65,116.21,21.81,113.79,20.16z"/>
<path class="st4" d="M102.98,38.35c-4.6-4.27-6.9-9.56-6.9-15.85c0-6.45,2.3-11.81,6.9-16.09C107.57,2.14,113.5,0,120.76,0
	c7.1,0,12.94,2.14,17.54,6.41c4.6,4.28,6.9,9.64,6.9,16.09c0,6.29-2.3,11.58-6.9,15.85c-4.6,4.28-10.44,6.41-17.54,6.41
	C113.5,44.76,107.57,42.62,102.98,38.35z"/>
<path class="st4" d="M102.98,38.35c-4.6-4.27-6.9-9.56-6.9-15.85c0-6.45,2.3-11.81,6.9-16.09C107.57,2.14,113.5,0,120.76,0
	c7.1,0,12.94,2.14,17.54,6.41c4.6,4.28,6.9,9.64,6.9,16.09c0,6.29-2.3,11.58-6.9,15.85c-4.6,4.28-10.44,6.41-17.54,6.41
	C113.5,44.76,107.57,42.62,102.98,38.35z"/>
<path class="st3" d="M139.48,37.14c-3.06-6.34-7.16-12.08-12.1-16.98c-2.42,1.65-4.69,3.49-6.79,5.51
	c4.93,4.72,8.94,10.38,11.76,16.7c2.17-1.02,4.16-2.35,5.95-4.02C138.72,37.96,139.1,37.55,139.48,37.14z"/>
</svg>
