<svg id="Layer_1" data-name="Layer 1" xmlns="http://www.w3.org/2000/svg" xmlns:xlink="http://www.w3.org/1999/xlink" viewBox="0 0 245.3 21.71"><defs><style>.cls-1{fill:none;}.cls-2{clip-path:url(#clip-path);}.cls-3,.cls-4{fill:#002d73;}.cls-3{fill-rule:evenodd;}</style><clipPath id="clip-path" transform="translate(0 0)"><rect class="cls-1" width="245.31" height="21.71"/></clipPath></defs><g class="cls-2"><path class="cls-3" d="M6.33,20.07a2,2,0,0,0,1.91,1.52H8.6a2,2,0,0,0,1.91-1.52L15.16,6.43l4.65,13.64a2,2,0,0,0,1.88,1.52h.36A2,2,0,0,0,24,20.07L30.14,2.76A2.11,2.11,0,0,0,30.32,2,1.8,1.8,0,0,0,28.5.26a1.86,1.86,0,0,0-1.79,1.31L21.9,16,17.19,1.66A1.91,1.91,0,0,0,15.34.2h-.27a1.93,1.93,0,0,0-1.85,1.46L8.51,16,3.7,1.6A1.86,1.86,0,0,0,1.88.26,1.83,1.83,0,0,0,0,2.05a1.92,1.92,0,0,0,.15.71Z" transform="translate(0 0)"/><path class="cls-3" d="M33.33,19.62a1.84,1.84,0,0,0,3.67,0V12.49H47v7.13a1.84,1.84,0,0,0,3.67,0V2.08a1.84,1.84,0,0,0-3.67,0v7H37v-7a1.84,1.84,0,0,0-3.67,0Z" transform="translate(0 0)"/><path class="cls-3" d="M55.33,19.62a1.83,1.83,0,0,0,3.66,0V2.08a1.83,1.83,0,0,0-3.66,0Z" transform="translate(0 0)"/><path class="cls-3" d="M68.81,19.62a1.85,1.85,0,0,0,3.7,0V3.81h5.11a1.7,1.7,0,0,0,0-3.4H63.74a1.7,1.7,0,0,0,0,3.4h5.07Z" transform="translate(0 0)"/><path class="cls-3" d="M82.12,19.44A1.83,1.83,0,0,0,84,21.3h7.82c4.66,0,7.73-2,7.73-5.74v-.05c0-2.84-1.7-4.24-4.15-5.08a5,5,0,0,0,3-4.65V5.72A4.63,4.63,0,0,0,97,2.26,7.5,7.5,0,0,0,91.49.41H84a1.82,1.82,0,0,0-1.85,1.85ZM85.73,9.21V3.66H91c2.36,0,3.67,1,3.67,2.65v.06c0,1.91-1.58,2.84-3.93,2.84Zm0,8.83V12.31h5.82c2.9,0,4.3,1,4.3,2.81v.06c0,1.87-1.52,2.86-4,2.86Z" transform="translate(0 0)"/><path class="cls-3" d="M102.77,19.62a1.84,1.84,0,0,0,3.67,0V14h4.63l5.07,6.48a2.1,2.1,0,0,0,1.79,1,1.72,1.72,0,0,0,1.76-1.7,2.14,2.14,0,0,0-.6-1.4l-4-5a6.19,6.19,0,0,0,4.74-6.24V7a6.35,6.35,0,0,0-1.73-4.51,8.42,8.42,0,0,0-6-2.08h-7.46a1.82,1.82,0,0,0-1.85,1.85Zm3.67-8.86v-7h5.34c2.72,0,4.33,1.22,4.33,3.46v.06c0,2.12-1.67,3.49-4.3,3.49Z" transform="translate(0 0)"/><path class="cls-3" d="M125.05,21.3h10.81a1.64,1.64,0,0,0,1.64-1.65A1.66,1.66,0,0,0,135.86,18h-9V12.4h9a1.64,1.64,0,0,0,1.65-1.61,1.67,1.67,0,0,0-1.65-1.67h-9V3.69H137.2a1.64,1.64,0,1,0,0-3.28H125.05a1.82,1.82,0,0,0-1.85,1.85V19.44a1.83,1.83,0,0,0,1.85,1.86" transform="translate(0 0)"/><path class="cls-3" d="M162,19.44a1.81,1.81,0,0,0,1.84,1.85h5.95c6.56,0,11.1-4.56,11.1-10.44v-.06c0-5.88-4.54-10.38-11.1-10.38h-5.95A1.81,1.81,0,0,0,162,2.26ZM165.66,18V3.75h4.12a6.85,6.85,0,0,1,7.25,7.1v.06c0,4.09-2.87,7-7.25,7Z" transform="translate(0 0)"/><path class="cls-4" d="M155.24,3.76h0Zm0,9.24V3.76h-1.53c-1.76.09-3,.73-3.57,1.88L146.56,13Zm0,6.67V16.25H145l-2.06,4.22a1.84,1.84,0,0,1-3.3-1.61L146.52,4.7c.29-.66,1.92-4.29,7.32-4.29l3.22,0a1.82,1.82,0,0,1,1.83,1.56l0,.29V19.67a1.84,1.84,0,0,1-3.67,0" transform="translate(0 0)"/><path class="cls-4" d="M190.6,2.22A1.86,1.86,0,0,1,192.52.36h6.6c5.07,0,8.21,2.79,8.21,7v.06c0,4.7-3.89,7.16-8.64,7.16H194.4v5.07a1.9,1.9,0,0,1-3.8,0Zm8.21,9c2.88,0,4.66-1.56,4.66-3.75v0c0-2.46-1.82-3.75-4.66-3.75H194.4v7.55Z" transform="translate(0 0)"/><path class="cls-4" d="M210.08,2a1.9,1.9,0,0,1,3.8,0V18h9.79a1.68,1.68,0,1,1,0,3.35H212a1.86,1.86,0,0,1-1.91-1.85Z" transform="translate(0 0)"/><path class="cls-4" d="M225.85,10.91v-.06A10.79,10.79,0,0,1,237,0a11.57,11.57,0,0,1,7.41,2.37,1.81,1.81,0,0,1-1.14,3.27,1.85,1.85,0,0,1-1.14-.36A8,8,0,0,0,237,3.39a7.15,7.15,0,0,0-7.13,7.4v.06A7.17,7.17,0,0,0,237,18.29a7.85,7.85,0,0,0,5.4-2,1.76,1.76,0,0,1,1.14-.42,1.78,1.78,0,0,1,1.8,1.71,1.71,1.71,0,0,1-.62,1.31,11.2,11.2,0,0,1-7.84,2.83,10.72,10.72,0,0,1-11-10.8" transform="translate(0 0)"/></g></svg>