<svg id="Layer_2" data-name="Layer 2" xmlns="http://www.w3.org/2000/svg" viewBox="0 0 1067.74 169.64"><defs><style>.cls-1{fill:#429ed6;}.cls-2{fill:#0081c6;}.cls-3{fill:#a0c4e6;}.cls-4{fill:#9acd6e;}.cls-5{fill:#cae3b2;}.cls-6{fill:#7ac143;}.cls-7{fill:#e50e63;}.cls-8{fill:#696a6d;}</style></defs><title>WoltersKluwer-logo-2013</title><path class="cls-1" d="M64.83,24.86V2.35a84.89,84.89,0,0,0-40,22.51Z"/><path class="cls-2" d="M104.8,24.86V2.35a84.84,84.84,0,0,1,40,22.51Z"/><path class="cls-3" d="M84.89,0A85.59,85.59,0,0,0,64.83,2.35V24.86h40V2.37A84.39,84.39,0,0,0,84.89,0Z"/><path class="cls-2" d="M104.8,144.78v22.51a84.76,84.76,0,0,0,40-22.51Z"/><path class="cls-2" d="M64.83,144.78v22.51a84.8,84.8,0,0,1-40-22.51Z"/><path class="cls-1" d="M84.75,169.64a85.5,85.5,0,0,0,20-2.35V144.78h-40v22.49A84.35,84.35,0,0,0,84.75,169.64Z"/><path class="cls-2" d="M144.77,64.83h22.52a84.78,84.78,0,0,0-22.52-40Z"/><path class="cls-2" d="M144.77,104.81h22.52a84.78,84.78,0,0,1-22.52,40Z"/><path class="cls-1" d="M169.64,84.89a85.59,85.59,0,0,0-2.35-20.06H144.77v40h22.5A84.93,84.93,0,0,0,169.64,84.89Z"/><path class="cls-2" d="M24.86,104.81H2.35a84.77,84.77,0,0,0,22.51,40Z"/><path class="cls-1" d="M24.86,64.83H2.35a84.77,84.77,0,0,1,22.51-40Z"/><path class="cls-3" d="M0,84.74a85.54,85.54,0,0,0,2.35,20.07H24.86v-40H2.37A84.39,84.39,0,0,0,0,84.74Z"/><rect class="cls-4" x="24.86" y="24.86" width="39.96" height="39.97"/><rect class="cls-5" x="24.86" y="64.83" width="39.96" height="39.98"/><rect class="cls-6" x="24.86" y="104.81" width="39.96" height="39.97"/><rect class="cls-5" x="64.83" y="24.86" width="39.97" height="39.97"/><rect class="cls-7" x="64.83" y="64.83" width="39.97" height="39.98"/><rect class="cls-4" x="64.83" y="104.81" width="39.97" height="39.97"/><rect class="cls-6" x="104.8" y="24.86" width="39.97" height="39.97"/><rect class="cls-4" x="104.8" y="64.83" width="39.97" height="39.98"/><rect class="cls-6" x="104.8" y="104.81" width="39.97" height="39.97"/><path class="cls-8" d="M310.14,145.18h-7.65L285,96.09c-1.45-4-3.18-9.09-4.91-14.86h-.29c-1.73,5.62-3.46,10.39-5.05,14.86l-18.19,49.09h-7.8L215.72,49.61h11.41l21.22,63.52c1.73,5.34,3.32,10.11,4.62,14.87h.29c1.3-4.62,3.17-9.38,5.05-14.58l16.46-45-6.5-18.77h11.12l21.8,63c1.87,5.48,3.75,10.1,5.05,14.72h.29c1.15-4.77,2.45-9.1,4.18-14.29L331.5,49.61h11.12Z"/><path class="cls-8" d="M395,137.68c-5.34,5.48-12.85,8.51-21.65,8.51-8.52,0-15.89-2.89-21.23-8.37-6.2-6.35-9.53-16-9.53-27.29s3.47-20.64,9.53-27a30.66,30.66,0,0,1,43,0c6.07,6.35,9.54,15.73,9.54,27S401.21,131.32,395,137.68Zm-21.51-54c-12.85,0-20.21,10.4-20.21,26.56s7.65,26.86,20.35,26.86S394,126.41,394,110.24,386.63,83.68,373.49,83.68Z"/><path class="cls-8" d="M430.37,146.19c-8.38,0-12-5.34-12-12.56V42.54h10.54v86.33c0,6.49,1.58,7.79,5.63,7.79a13.75,13.75,0,0,0,3.61-.43l1.3,7.66A18.65,18.65,0,0,1,430.37,146.19Z"/><path class="cls-8" d="M468.77,146.19c-9.82,0-14.58-5.77-14.58-14.58V85.41H443.07v-9h11.12v-15l10.54-3.61V76.46h20.93l-3.75,9H464.73v43c0,5.77,2.16,8.37,6.64,8.37,4.91,0,9.38-2.74,12.13-4.91l3.32,7.51C481.77,143.16,475.13,146.19,468.77,146.19Z"/><path class="cls-8" d="M501.83,112.41c0,13,7.51,24.54,22.67,24.54a32.37,32.37,0,0,0,16.17-4.9l3.18,7.21c-4.91,4-13.58,6.93-21.52,6.93-21.37,0-31.76-17.47-31.76-37,0-19.78,11.26-34.5,27.72-34.5,17.62,0,27.29,14,27.29,35.23v2.45Zm16.6-28.73c-10.1,0-16.45,8.95-16.45,19.78h32.19C534.17,93.93,528.83,83.68,518.43,83.68Z"/><path class="cls-8" d="M593.79,87a17.38,17.38,0,0,0-6.49-1.15c-4,0-10.69,3.46-15,8.23v50.67H561.75V76.46h8.65l1.45,7.8c9.38-8.52,14.58-9.53,19.49-9.53a13.14,13.14,0,0,1,6.93,2Z"/><path class="cls-8" d="M620.06,146.19c-9.81,0-15.73-2.6-20.21-5.2l4-8.22a31.48,31.48,0,0,0,16.6,4.91c8.37,0,14.44-3.76,14.44-10.11,0-16.75-31-10.83-31-34.79,0-9.82,7.07-18,22.66-18a40.51,40.51,0,0,1,17.18,3.61v9.24c-4.77-2-9.67-4-16.74-4S614.29,86,614.29,92.2c0,15.3,31.62,11.4,31.62,33.78C645.91,140.27,634.07,146.19,620.06,146.19Z"/><path class="cls-8" d="M739.31,144.75l-38-43h-.14v43H690.66V49.61H701.2V93.35h.14L736.71,49.9h13.14L710.72,96.67l42.6,48.08Z"/><path class="cls-8" d="M775.4,146.19c-8.37,0-12-5.34-12-12.56V42.54H774v86.33c0,6.49,1.58,7.79,5.63,7.79a13.71,13.71,0,0,0,3.61-.43l1.3,7.66A18.62,18.62,0,0,1,775.4,146.19Z"/><path class="cls-8" d="M840.65,144.75l-2.74-7.07c-5,4.33-13,8.51-22.08,8.51-9.24,0-20.79-4.76-20.79-24V76.46h10.53v44.75c0,11.41,4.77,15.89,13.29,15.89s15.3-5.49,18.19-9.1V76.46h10.54v39.71c0,21.51.43,25.69,1.44,28.58Z"/><path class="cls-8" d="M934.35,145.18h-9.53L907.79,90h-.44l-16.89,55.15h-9.24L858.41,76.46H869.1l16.75,54.29h.43l16.88-54.29h9.54l17,54.43h.43l16.46-54.43h10.25Z"/><path class="cls-8" d="M973.33,112.41c0,13,7.5,24.54,22.66,24.54a32.31,32.31,0,0,0,16.17-4.9l3.18,7.21c-4.91,4-13.57,6.93-21.51,6.93-21.37,0-31.76-17.47-31.76-37,0-19.78,11.26-34.5,27.72-34.5,17.61,0,27.28,14,27.28,35.23v2.45Zm16.6-28.73c-10.11,0-16.46,8.95-16.46,19.78h32.2C1005.67,93.93,1000.33,83.68,989.93,83.68Z"/><path class="cls-8" d="M1063.27,87a17.43,17.43,0,0,0-6.5-1.15c-4,0-10.68,3.46-15,8.23v50.67h-10.54V76.46h8.66l1.44,7.8c9.39-8.52,14.58-9.53,19.49-9.53a13.14,13.14,0,0,1,6.93,2Z"/><path class="cls-8" d="M160.65,136.74a8.7,8.7,0,0,1,8.89-9.08,9.08,9.08,0,0,1,0,18.16A8.69,8.69,0,0,1,160.65,136.74Zm15.69,0c0-4-2.8-7.18-6.8-7.18a7.19,7.19,0,0,0,0,14.35C173.54,143.91,176.34,140.73,176.34,136.74Zm-10-5.05h3a4.65,4.65,0,0,1,1.57.23,2.47,2.47,0,0,1,1.9,2.46,2.75,2.75,0,0,1-2.31,2.66v0c.67.34,1.71,2.28,2.87,4.45h-2.27c-1.27-2.35-2.06-3.89-2.47-3.92h-.34v3.92h-2Zm2.47,4.34c1,0,1.9-.41,1.9-1.42a1.13,1.13,0,0,0-.78-1.2,3.09,3.09,0,0,0-1.08-.15h-.53V136Z"/></svg>