<svg id="图层_1" data-name="图层 1" xmlns="http://www.w3.org/2000/svg" viewBox="0 0 1123 252.11"><defs><style>.cls-1{fill:#5d595c;}.cls-2{fill:#b6956b;}</style></defs><title>one-connect-logo-2019</title><path class="cls-1" d="M542.8,138.9v-7.22a3,3,0,0,1,3-3h4.51V95.79h-41.7V138.9a3,3,0,0,1-3,3H493.87a3,3,0,0,1-3-3V93.4A10.18,10.18,0,0,1,501,83.22H557.9A10.18,10.18,0,0,1,568.08,93.4v45.5a3,3,0,0,1-3,3H545.81a3,3,0,0,1-3-3"/><path class="cls-1" d="M492.36,36.56V29.34a3,3,0,0,1,3-3h68.19a3,3,0,0,1,3,3v7.22a3,3,0,0,1-3,3H495.37a3,3,0,0,1-3-3"/><path class="cls-1" d="M513.13,120.35v-7.23a3,3,0,0,1,3-3H542.8a3,3,0,0,1,3,3v7.23a3,3,0,0,1-3,3H516.14a3,3,0,0,1-3-3"/><path class="cls-1" d="M923.61,63.25l11.6-34.11a6,6,0,0,1,5.67-4H956a1.8,1.8,0,0,1,1.7,2.41L946,61.67a6,6,0,0,1-5.67,4h-15a1.8,1.8,0,0,1-1.7-2.41M866.16,104.1V39.27H831.92V104.1a3,3,0,0,1-3,3h-9.17a3,3,0,0,1-3-3V33.87a8.14,8.14,0,0,1,8.14-8.14h48.91a8.15,8.15,0,0,1,8.15,8.14V104.1a3,3,0,0,1-3,3h-9.75a3,3,0,0,1-3-3m-5.45,36-10.92-21.27-12.24,19.63a6,6,0,0,1-5.45,3.46H821a3,3,0,0,1-3-3l22.54-36.59V47.44a3,3,0,0,1,3-3l11.29-.07a3,3,0,0,1,3,3v55.3c0,3.28-4.29,9.45-4.29,9.45h9.76a3,3,0,0,1,2.77,1.81l13.4,23.78a3,3,0,0,1-2.76,4.21h-13.2a3,3,0,0,1-2.77-1.82m53.54-53.41v42h8.11a3,3,0,0,1,3,3l0,7.22a3,3,0,0,1-3,3H900.09a6.11,6.11,0,0,1-6.11-6.18l.57-49h-4.39a3,3,0,0,1-3-3V75.25a3,3,0,0,1,3-3h4.39V26.93a3,3,0,0,1,3-3h13.68a3,3,0,0,1,3,3v45.3h42.69a3,3,0,0,1,3,3v8.43a3,3,0,0,1-3,3Z"/><path class="cls-1" d="M660.42,54.46V48.31a3,3,0,0,1,3-3h52.3v-5H658a3,3,0,0,1-3-3V31a3,3,0,0,1,3-3h57.72V26.2a3,3,0,0,1,3-3h13.08a3,3,0,0,1,3,3V28h57.72a3,3,0,0,1,3,3v6.24a3,3,0,0,1-3,3H734.84v5h52.6a3,3,0,0,1,3,3v6.15a3,3,0,0,1-3,3h-124a3,3,0,0,1-3-3m25.66,58.06h76.19v-7H686.08Zm-17.82,7.58v-22a3,3,0,0,1,3-3H777.8a3,3,0,0,1,3,3v22a3,3,0,0,1-3,3H671.27a3,3,0,0,1-3-3m-15.65,18.8v-7.22a3,3,0,0,1,3-3h139a3,3,0,0,1,3,3v7.22a3,3,0,0,1-3,3h-139a3,3,0,0,1-3-3"/><path class="cls-1" d="M447,40.74c2.25,4.82,4.5,5.79,11.26,5.79h14.14a3,3,0,0,1,3,3v7.8a3,3,0,0,1-3,3H456.42c-16.4.32-20.58-2.25-26-12.54l-4-8.48H376.66l-4,8.48c-5.47,10.29-10,12.86-26.37,12.54H330a3,3,0,0,1-3-3v-7.8a3,3,0,0,1,3-3h14.08c6.75,0,9-1,11.25-5.79l5.77-11.19a8.12,8.12,0,0,1,7.24-4.42h65.62a8.14,8.14,0,0,1,7.25,4.42Zm-1.84,87.93h23.66a2.94,2.94,0,0,1,2.86,3v7.22a3,3,0,0,1-2.86,3l-135.2,0a2.94,2.94,0,0,1-2.86-3v-7.18a2.93,2.93,0,0,1,2.86-3h23.48m20.79,0h11.74V106.39H339.32a3,3,0,0,1-3-3V96a3,3,0,0,1,3-3h50.26V80.22H335.7a3,3,0,0,1-3-3V70a3,3,0,0,1,3-3H466.33a3,3,0,0,1,3,3V77.2a3,3,0,0,1-3,3H412.76V93H463a3,3,0,0,1,3,3v7.38a3,3,0,0,1-3,3H412.76v22.28H425"/><path class="cls-1" d="M978.34,41l-1-14.45a2.41,2.41,0,0,1,2.4-2.6h17.62a2.41,2.41,0,0,1,2.4,2.2l1.1,14.45a2.4,2.4,0,0,1-2.4,2.62H980.74a2.42,2.42,0,0,1-2.4-2.22m8.07,100.93a8.13,8.13,0,0,1-8.14-8.17l.25-76.1a3,3,0,0,1,3-3H996.7a3,3,0,0,1,3,3v71H1120a3,3,0,0,1,3,3v7.22a3,3,0,0,1-3,3Z"/><path class="cls-1" d="M516.14,100.19h7.23a3,3,0,0,1,3,3v13.54a3,3,0,0,1-3,3h-7.23a3,3,0,0,1-3-3V103.2a3,3,0,0,1,3-3"/><path class="cls-1" d="M535.57,100.19h7.23a3,3,0,0,1,3,3v13.54a3,3,0,0,1-3,3h-7.23a3,3,0,0,1-3-3V103.2a3,3,0,0,1,3-3"/><path class="cls-1" d="M526,111.5h7.1c2.54,0,4.59,1.65,4.59,3.68v23c0,2-2.06,3.68-4.59,3.68H526c-2.54,0-4.6-1.65-4.6-3.68v-23c0-2,2.06-3.68,4.6-3.68"/><path class="cls-1" d="M455.64,122.33c1.32-2.51,3.71-7.18,3.71-7.42,0-.83-1.08-1.43-1.8-1.31H441.64c-1.2.12-3.11.36-3.95,2-3.47,6.34-6.7,13-10.05,19.5-.2.4-.42.82-.64,1.24h21.55c2.41-4.68,4.75-9.36,7.09-14"/><path class="cls-1" d="M348.35,122.33c-1.32-2.51-3.71-7.18-3.71-7.42,0-.83,1.08-1.43,1.79-1.31h15.92c1.19.12,3.11.36,3.95,2,3.47,6.34,6.7,13,10.05,19.5.2.4.42.82.64,1.24H355.44c-2.41-4.68-4.75-9.36-7.09-14"/><path class="cls-1" d="M765.54,123.35c1.32-2.51,3.72-7.18,3.72-7.42,0-.83-1.08-1.44-1.8-1.31H751.61c-1.2.12-3.12.35-4,2-3.47,6.34-6.7,13-10.06,19.5-.19.4-.41.82-.63,1.24h21.49q3.6-7,7.08-14"/><path class="cls-1" d="M684.73,123.35c-1.32-2.51-3.71-7.18-3.71-7.42,0-.83,1.08-1.44,1.79-1.31h16c1.19.12,3.11.35,4,2,3.46,6.34,6.7,13,10,19.5.2.4.42.82.65,1.24H691.81c-2.4-4.68-4.74-9.36-7.08-14"/><path class="cls-1" d="M781.92,84.8a3,3,0,0,0,3,3h9.73a3,3,0,0,0,3-3V72.58A10.18,10.18,0,0,0,787.48,62.4H662.79a10.18,10.18,0,0,0-10.18,10.18V84.8a3,3,0,0,0,3,3h9.7a3,3,0,0,0,3-3V75H781.94Z"/><path class="cls-1" d="M935,82.38a4.41,4.41,0,0,1,2.81,1c1.68,1.66,1.9,3.73,2.8,5.81,1.69,3.73,22.11,50.12,22.11,51.23,0,.41-.34,1.52-.9,1.52H945.18c-2.92-.42-3.82-5-4.83-7.19-1.8-4.15-21.77-49.85-21.77-50.82s.67-1.66,1.57-1.52Z"/><path class="cls-1" d="M547.3,66H511.87V56.75H547.3ZM495.67,53.72V69.05a8.15,8.15,0,0,0,8.15,8.15h51.6a8.14,8.14,0,0,0,8.14-8.15V53.74a8.14,8.14,0,0,0-8.14-8.15h-51.6a8.14,8.14,0,0,0-8.15,8.14"/><path class="cls-1" d="M595.88,89.16h-9.15V54.83h9.15ZM613,54.82h9.26V89.16H613Zm23.14-2.35a10.18,10.18,0,0,0-10.18-10.18H613.11V26a3,3,0,0,0-3-3h-11a3,3,0,0,0-3,3V42.29H583.68A10.18,10.18,0,0,0,573.5,52.47V91.4a10.18,10.18,0,0,0,10.18,10.18h12.41v27.09H576.51a3,3,0,0,0-3,3v7.22a3,3,0,0,0,3,3h56.58a3,3,0,0,0,3-3V121.14a3,3,0,0,0-3-3h-8.74a3,3,0,0,0-3,3v7.53h-8.24V101.58h12.81A10.18,10.18,0,0,0,636.1,91.4Z"/><path class="cls-1" d="M1111.62,39.83H1018a2.82,2.82,0,0,1-2.82-2.82V28a2.81,2.81,0,0,1,2.82-2.81h93.61a2.81,2.81,0,0,1,2.81,2.81v9a2.81,2.81,0,0,1-2.81,2.82"/><rect class="cls-1" x="1055.63" y="61.04" width="18.16" height="54.56"/><path class="cls-1" d="M1051.83,44.74h-10.89a2,2,0,0,0-1.49,3.43l16.18,17.15h18.16l-16-18a8.14,8.14,0,0,0-6-2.61"/><path class="cls-1" d="M1078.64,44.74h9.62a2,2,0,0,1,1.49,3.43l-16,17.15h-18.16l17-18a8.14,8.14,0,0,1,6-2.61"/><rect class="cls-1" x="1033.81" y="71.61" width="61.44" height="12.89"/><rect class="cls-1" x="1033.81" y="92.57" width="61.44" height="12.89"/><path class="cls-1" d="M1110.77,49.92h-13.56a4.08,4.08,0,0,0-3,1.27l-7.68,8.7a2,2,0,0,0,1.47,3.44h13.75v48.48h-7a3,3,0,0,0-3,3v3.91a3,3,0,0,0,3,3h16a8.14,8.14,0,0,0,8.15-8.14V58.07a8.15,8.15,0,0,0-8.15-8.15"/><path class="cls-1" d="M1031.81,49.92h-13.47a8.15,8.15,0,0,0-8.15,8.15v59.6a4.07,4.07,0,0,0,4.07,4.07h9.12a4.08,4.08,0,0,0,4.08-4.07V63.33h14.42a2,2,0,0,0,1.43-3.49l-8.64-8.74a4.08,4.08,0,0,0-2.86-1.18"/><path class="cls-1" d="M675.57,90.05h99.14a2,2,0,0,0,2-2V82.1a2,2,0,0,0-2-2H675.57a2,2,0,0,0-2,2V88a2,2,0,0,0,2,2"/><path class="cls-1" d="M467.53,171.23H458.7a1.39,1.39,0,0,0-1.47,1.47v40c-4.42-5.3-34.72-39.73-35.61-40.31a4,4,0,0,0-2.65-1.18h-8.53A1.39,1.39,0,0,0,409,172.7V228a1.39,1.39,0,0,0,1.47,1.47H419a1.39,1.39,0,0,0,1.48-1.47V187.71c3.23,3.53,35.31,39.72,35.89,40.61a4.12,4.12,0,0,0,2.65,1.17h8.54A1.39,1.39,0,0,0,469,228V172.7a1.39,1.39,0,0,0-1.47-1.47"/><path class="cls-1" d="M374.55,217.79a1.39,1.39,0,0,1-1.47,1.46H341.17a1.39,1.39,0,0,1-1.47-1.46V183.23a1.38,1.38,0,0,1,1.47-1.46h31.91a1.38,1.38,0,0,1,1.47,1.46Zm.33-47.15H339a12,12,0,0,0-12,12v35.38a12,12,0,0,0,12,12h35.87a12,12,0,0,0,12-12V182.67a12,12,0,0,0-12-12"/><path class="cls-1" d="M705.71,217.79a1.39,1.39,0,0,1-1.46,1.46H672.33a1.39,1.39,0,0,1-1.47-1.46V183.23a1.38,1.38,0,0,1,1.47-1.46h31.92a1.38,1.38,0,0,1,1.46,1.46Zm.33-47.15H670.17a12,12,0,0,0-12,12v35.38a12,12,0,0,0,12,12H706a12,12,0,0,0,12-12V182.67a12,12,0,0,0-12-12"/><path class="cls-1" d="M798.69,171.23h-8.83a1.39,1.39,0,0,0-1.47,1.47v40c-4.41-5.3-34.72-39.73-35.61-40.31a4,4,0,0,0-2.64-1.18H741.6a1.39,1.39,0,0,0-1.47,1.47V228a1.39,1.39,0,0,0,1.47,1.47h8.54a1.39,1.39,0,0,0,1.47-1.47V187.71c3.23,3.53,35.31,39.72,35.9,40.61a4.1,4.1,0,0,0,2.65,1.17h8.53a1.39,1.39,0,0,0,1.47-1.47V172.7a1.39,1.39,0,0,0-1.47-1.47"/><path class="cls-1" d="M880.78,171.23H872a1.39,1.39,0,0,0-1.47,1.47v40c-4.42-5.3-34.72-39.73-35.61-40.31a4,4,0,0,0-2.65-1.18h-8.53a1.39,1.39,0,0,0-1.47,1.47V228a1.39,1.39,0,0,0,1.47,1.47h8.53A1.39,1.39,0,0,0,833.7,228V187.71c3.23,3.53,35.31,39.72,35.89,40.61a4.12,4.12,0,0,0,2.65,1.17h8.54a1.39,1.39,0,0,0,1.47-1.47V172.7a1.39,1.39,0,0,0-1.47-1.47"/><path class="cls-1" d="M904.31,182.67V217.9a12,12,0,0,0,12,12h42.3a1.77,1.77,0,0,0,1.77-1.77v-7.27a1.77,1.77,0,0,0-1.77-1.77H918.42a1.46,1.46,0,0,1-1.46-1.46V183.2a1.46,1.46,0,0,1,1.46-1.46h40.22a1.77,1.77,0,0,0,1.77-1.77v-7.56a1.77,1.77,0,0,0-1.77-1.77h-42.3a12,12,0,0,0-12,12"/><path class="cls-1" d="M958.76,205.72H915.62a1.65,1.65,0,0,1-1.65-1.65V196.5a1.65,1.65,0,0,1,1.65-1.65h43.14a1.65,1.65,0,0,1,1.65,1.65v7.57a1.65,1.65,0,0,1-1.65,1.65"/><path class="cls-1" d="M491.06,182.67V217.9a12,12,0,0,0,12,12h42.3a1.77,1.77,0,0,0,1.77-1.77v-7.27a1.77,1.77,0,0,0-1.77-1.77H505.17a1.46,1.46,0,0,1-1.46-1.46V183.2a1.46,1.46,0,0,1,1.46-1.46h40.22a1.77,1.77,0,0,0,1.77-1.77v-7.56a1.77,1.77,0,0,0-1.77-1.77h-42.3a12,12,0,0,0-12,12"/><path class="cls-1" d="M545.51,205.72H502.37a1.65,1.65,0,0,1-1.65-1.65V196.5a1.65,1.65,0,0,1,1.65-1.65h43.14a1.65,1.65,0,0,1,1.65,1.65v7.57a1.65,1.65,0,0,1-1.65,1.65"/><path class="cls-1" d="M580,182.67V217.9a12,12,0,0,0,12,12h42.3a1.78,1.78,0,0,0,1.78-1.77v-7.27a1.78,1.78,0,0,0-1.78-1.77H594.08a1.46,1.46,0,0,1-1.46-1.46V183.2a1.46,1.46,0,0,1,1.46-1.46H634.3a1.78,1.78,0,0,0,1.78-1.77v-7.56a1.78,1.78,0,0,0-1.78-1.77H592a12,12,0,0,0-12,12"/><path class="cls-1" d="M982.47,182.67V217.9a12,12,0,0,0,12,12h42.31a1.77,1.77,0,0,0,1.77-1.77v-7.27a1.77,1.77,0,0,0-1.77-1.77H996.58a1.46,1.46,0,0,1-1.46-1.46V183.2a1.46,1.46,0,0,1,1.46-1.46h40.23a1.77,1.77,0,0,0,1.77-1.77v-7.56a1.77,1.77,0,0,0-1.77-1.77H994.5a12,12,0,0,0-12,12"/><path class="cls-1" d="M1121.35,182.1h-59.06a1.65,1.65,0,0,1-1.65-1.65v-7.57a1.65,1.65,0,0,1,1.65-1.65h59.06a1.65,1.65,0,0,1,1.65,1.65v7.57a1.65,1.65,0,0,1-1.65,1.65"/><path class="cls-1" d="M1085.32,227.9V171.23h13V227.9a1.65,1.65,0,0,1-1.65,1.65H1087a1.65,1.65,0,0,1-1.65-1.65"/><path class="cls-2" d="M121,50.84l-29.86-37L101.53,11,126.86,43.2l7-9.66S110.55,4.84,110,4A10.73,10.73,0,0,0,99.09.32L72.83,7l41.31,53.26Z"/><path class="cls-2" d="M124.63,78.55l-5.48,7.06,6.54,2.27c3,1,5.26.23,6.57-1.45l3.39-4.23c1.94.65,4.42,1.55,4.81,1.68,1.91.63,4.82,2.66,9-3s52.71-69.77,52.71-69.77-5.43-2.4-7.25-3.14c-1.64-.66-4.27-1.14-8.21,3.93s-45,60.7-45,60.7l-9.58-3.19,49-66.18L175,.64c-3.42-1.12-6.65-.69-9.75,3,0,.3-51.93,71.21-51.93,71.21Z"/><path class="cls-2" d="M146.56,201.27l29.86,37-10.37,2.76L140.73,208.9l-7,9.67s23.31,28.7,23.84,29.58a10.75,10.75,0,0,0,10.94,3.64l26.25-6.66-41.31-53.26Z"/><path class="cls-2" d="M143,173.56l5.48-7.06-6.54-2.27c-3-1-5.26-.23-6.57,1.44l-3.39,4.24c-1.94-.65-4.41-1.55-4.81-1.68-1.91-.64-4.83-2.66-9,3S65.44,241,65.44,241s5.44,2.4,7.25,3.13c1.63.67,4.27,1.15,8.21-3.92s45-60.7,45-60.7l9.58,3.19-49,66.18,6.17,2.59c3.43,1.12,6.65.69,9.75-3,0-.3,51.93-71.21,51.93-71.21Z"/><path class="cls-2" d="M192.65,77.73l17.24-44.34L217.45,41,202.17,79l11.88,1.26s13.27-34.51,13.77-35.41a10.74,10.74,0,0,0-2.29-11.29L206.67,14.1l-25.6,62.35Z"/><path class="cls-2" d="M170.42,94.66l-8.85-1.23,1.28,6.8c.61,3.11,2.42,4.68,4.53,5l5.36.83c.41,2,.86,4.6.94,5,.41,2,.1,5.52,7.07,6.28s86.75,11,86.75,11-.62-5.9-.89-7.84c-.24-1.75-1.13-4.27-7.49-5.16s-75-8.78-75-8.78l-2-9.89,81.81,9.55-.82-6.63c-.74-3.54-2.72-6.12-7.47-7C255.34,92.71,168,83,168,83Z"/><path class="cls-2" d="M74.93,174.81,57.69,219.16l-7.56-7.62,15.28-38L53.54,172.3s-13.28,34.51-13.78,35.41A10.75,10.75,0,0,0,42.05,219l18.86,19.45,25.6-62.36Z"/><path class="cls-2" d="M97.16,157.88l8.85,1.23-1.28-6.8c-.6-3.1-2.42-4.67-4.53-5l-5.36-.83c-.41-2-.86-4.6-.94-5-.41-2-.1-5.51-7.07-6.28s-86.75-11-86.75-11,.62,5.9.89,7.85c.24,1.75,1.13,4.26,7.49,5.16s75,8.78,75,8.78l2,9.88L3.7,146.39,4.52,153c.74,3.53,2.72,6.12,7.47,7,.25-.15,87.61,9.55,87.61,9.55Z"/><path class="cls-2" d="M205,152.89l47-7.15-2.84,10.35-40.54,5.69,4.82,10.91S250,167,251,167a10.75,10.75,0,0,0,8.65-7.62l7.46-26-66.81,8.89Z"/><path class="cls-2" d="M188.13,134.13l-8.9,7.92-3.35-8.28-5.25,4.5c-2.39,2.07-2.84,4.43-2,6.41l1.95,5.06c-1.54,1.35-3.56,3-3.87,3.31-1.51,1.33-4.74,2.83-1.93,9.26S198.48,243,198.48,243s4.8-3.49,6.35-4.69c1.4-1.08,3.14-3.11.75-9.06s-29.79-69.44-29.79-69.44l7.57-6.67,32.49,75.69,5.34-4c2.7-2.4,3.95-5.41,2.32-9.95-.26-.13-35.38-80.71-35.38-80.71"/><path class="cls-2" d="M62.15,99.22l-47,7.15L18,96,58.5,90.33,53.67,79.42s-36.53,5.69-37.56,5.7a10.74,10.74,0,0,0-8.65,7.62L0,118.78l66.81-8.88Z"/><path class="cls-2" d="M79,118l8.89-7.92,3.35,8.28,5.25-4.5c2.4-2.07,2.85-4.43,2.06-6.41l-1.95-5.06c1.54-1.35,3.56-3,3.87-3.31,1.51-1.34,4.73-2.83,1.92-9.26S68.66,9.13,68.66,9.13s-4.8,3.49-6.35,4.69-3.14,3.11-.74,9.06S91.36,92.32,91.36,92.32L83.79,99,51.29,23.3l-5.34,4c-2.7,2.4-4,5.41-2.32,9.94C43.89,37.4,79,118,79,118"/></svg>