<?xml version="1.0" encoding="utf-8"?>
<!-- Generator: Adobe Illustrator 26.0.2, SVG Export Plug-In . SVG Version: 6.00 Build 0)  -->
<svg version="1.1" id="MASTER" xmlns="http://www.w3.org/2000/svg" xmlns:xlink="http://www.w3.org/1999/xlink" x="0px" y="0px"
	 viewBox="0 0 434.94 74.03" style="enable-background:new 0 0 434.94 74.03;" xml:space="preserve">
<style type="text/css">
	.Arched_x0020_Green{fill:url(#SVGID_1_);stroke:#FFFFFF;stroke-width:0.25;stroke-miterlimit:1;}
	.st0{fill:#173E6D;}
	.st1{fill:#CC2029;}
</style>
<linearGradient id="SVGID_1_" gradientUnits="userSpaceOnUse" x1="-1.0698" y1="8.3408" x2="-0.3627" y2="7.6337">
	<stop  offset="0" style="stop-color:#20AC4B"/>
	<stop  offset="0.9831" style="stop-color:#19361A"/>
</linearGradient>
<g id="Colour">
	<g>
		<path class="st0" d="M62.17,32.27h5.47l9.08,24.27h-5.54l-1.84-5.41h-9.08l-1.9,5.41h-5.41L62.17,32.27z M61.66,47.16h6.29
			l-3.06-8.91h-0.07L61.66,47.16z"/>
		<path class="st0" d="M89.24,54.3h-0.07c-1.12,1.9-3.09,2.72-5.34,2.72c-5.3,0-7.89-4.56-7.89-9.42c0-4.73,2.62-9.11,7.79-9.11
			c2.07,0,4.11,0.88,5.2,2.62H89v-8.84h4.83v24.27h-4.59V54.3z M85.02,42.13c-3.16,0-4.25,2.72-4.25,5.61
			c0,2.75,1.26,5.64,4.25,5.64c3.2,0,4.15-2.79,4.15-5.68C89.17,44.85,88.15,42.13,85.02,42.13z"/>
		<path class="st0" d="M95.7,44.37c0.27-4.52,4.32-5.88,8.26-5.88c3.5,0,7.72,0.78,7.72,5v9.15c0,1.6,0.17,3.2,0.61,3.91h-4.9
			c-0.17-0.54-0.31-1.12-0.34-1.7c-1.53,1.6-3.77,2.18-5.92,2.18c-3.33,0-5.98-1.67-5.98-5.27c0-3.98,2.99-4.93,5.98-5.34
			c2.96-0.44,5.71-0.34,5.71-2.31c0-2.07-1.43-2.38-3.13-2.38c-1.84,0-3.03,0.75-3.2,2.65H95.7z M106.85,47.94
			c-0.82,0.71-2.52,0.75-4.01,1.02c-1.5,0.31-2.86,0.82-2.86,2.58c0,1.8,1.39,2.24,2.96,2.24c3.77,0,3.91-2.99,3.91-4.05V47.94z"/>
		<path class="st0" d="M113.89,38.96h4.56v2.38h0.07c1.26-1.8,3.09-2.86,5.37-2.86c2.21,0,4.18,0.82,5.13,2.92
			c1.02-1.53,2.86-2.92,5.3-2.92c3.74,0,6.43,1.73,6.43,6.29v11.76h-4.83v-9.96c0-2.35-0.2-4.28-2.96-4.28
			c-2.72,0-3.23,2.24-3.23,4.45v9.79h-4.83v-9.86c0-2.04,0.14-4.39-2.92-4.39c-0.95,0-3.26,0.61-3.26,4.05v10.2h-4.83V38.96z"/>
		<path class="st0" d="M154.76,48.48c0,3.23,2.52,4.49,5.37,4.49c1.87,0,4.73-0.54,4.73-3.03c0-2.62-3.64-3.06-7.21-4.01
			c-3.6-0.95-7.24-2.35-7.24-6.9c0-4.96,4.69-7.34,9.08-7.34c5.07,0,9.72,2.21,9.72,7.82h-5.17c-0.17-2.92-2.24-3.67-4.79-3.67
			c-1.7,0-3.67,0.71-3.67,2.75c0,1.87,1.16,2.11,7.24,3.67c1.77,0.44,7.21,1.56,7.21,7.07c0,4.45-3.5,7.79-10.1,7.79
			c-5.37,0-10.4-2.65-10.33-8.64H154.76z"/>
		<path class="st0" d="M171.37,38.96h4.56v2.38H176c1.26-1.8,3.09-2.86,5.37-2.86c2.21,0,4.18,0.82,5.13,2.92
			c1.02-1.53,2.86-2.92,5.3-2.92c3.74,0,6.43,1.73,6.43,6.29v11.76h-4.83v-9.96c0-2.35-0.2-4.28-2.96-4.28
			c-2.72,0-3.23,2.24-3.23,4.45v9.79h-4.83v-9.86c0-2.04,0.14-4.39-2.92-4.39c-0.95,0-3.26,0.61-3.26,4.05v10.2h-4.83V38.96z"/>
		<path class="st0" d="M204.81,36.24h-4.83v-3.98h4.83V36.24z M199.99,38.96h4.83v17.58h-4.83V38.96z"/>
		<path class="st0" d="M213.99,38.96h3.54v3.23h-3.54v8.7c0,1.63,0.41,2.04,2.04,2.04c0.51,0,0.99-0.03,1.5-0.14v3.77
			c-0.82,0.14-1.87,0.17-2.82,0.17c-2.96,0-5.54-0.68-5.54-4.18V42.19h-2.92v-3.23h2.92v-5.27h4.83V38.96z"/>
		<path class="st0" d="M219.19,32.27h4.83v9.15h0.1c1.22-1.97,3.33-2.92,5.13-2.92c5.13,0,6.43,2.89,6.43,7.24v10.81h-4.83v-9.93
			c0-2.89-0.85-4.32-3.09-4.32c-2.62,0-3.74,1.46-3.74,5.03v9.21h-4.83V32.27z"/>
		<path class="st0" d="M252.54,32.27h5.47l9.08,24.27h-5.54l-1.84-5.41h-9.08l-1.9,5.41h-5.41L252.54,32.27z M252.03,47.16h6.29
			l-3.06-8.91h-0.07L252.03,47.16z"/>
		<path class="st0" d="M285.5,56.54h-4.96l-3.13-11.8h-0.07l-2.99,11.8h-5l-5.58-17.58h5.1l3.23,11.93h0.07l2.92-11.93h4.69
			l2.99,11.9h0.07l3.23-11.9h4.96L285.5,56.54z"/>
		<path class="st0" d="M291.22,44.37c0.27-4.52,4.32-5.88,8.26-5.88c3.5,0,7.72,0.78,7.72,5v9.15c0,1.6,0.17,3.2,0.61,3.91h-4.89
			c-0.17-0.54-0.31-1.12-0.34-1.7c-1.53,1.6-3.77,2.18-5.92,2.18c-3.33,0-5.98-1.67-5.98-5.27c0-3.98,2.99-4.93,5.98-5.34
			c2.96-0.44,5.71-0.34,5.71-2.31c0-2.07-1.43-2.38-3.13-2.38c-1.84,0-3.03,0.75-3.2,2.65H291.22z M302.37,47.94
			c-0.82,0.71-2.52,0.75-4.01,1.02c-1.5,0.31-2.86,0.82-2.86,2.58c0,1.8,1.39,2.24,2.96,2.24c3.77,0,3.91-2.99,3.91-4.05V47.94z"/>
		<path class="st0" d="M309.35,38.96h4.59v3.26H314c0.88-2.21,3.26-3.74,5.61-3.74c0.34,0,0.75,0.07,1.05,0.17v4.49
			c-0.44-0.1-1.16-0.17-1.73-0.17c-3.54,0-4.76,2.55-4.76,5.64v7.92h-4.83V38.96z"/>
		<path class="st0" d="M334.41,54.3h-0.07c-1.12,1.9-3.09,2.72-5.34,2.72c-5.3,0-7.89-4.56-7.89-9.42c0-4.73,2.62-9.11,7.79-9.11
			c2.07,0,4.11,0.88,5.2,2.62h0.07v-8.84H339v24.27h-4.59V54.3z M330.2,42.13c-3.16,0-4.25,2.72-4.25,5.61
			c0,2.75,1.26,5.64,4.25,5.64c3.2,0,4.15-2.79,4.15-5.68C334.35,44.85,333.33,42.13,330.2,42.13z"/>
		<path class="st0" d="M344.98,50.83c0.03,2.11,1.8,2.96,3.71,2.96c1.39,0,3.16-0.54,3.16-2.24c0-1.46-2.01-1.97-5.47-2.72
			c-2.79-0.61-5.58-1.6-5.58-4.69c0-4.49,3.88-5.64,7.65-5.64c3.84,0,7.38,1.29,7.75,5.61h-4.59c-0.14-1.87-1.56-2.38-3.3-2.38
			c-1.09,0-2.69,0.2-2.69,1.63c0,1.73,2.72,1.97,5.47,2.62c2.82,0.65,5.58,1.67,5.58,4.93c0,4.62-4.01,6.12-8.02,6.12
			c-4.08,0-8.06-1.53-8.26-6.19H344.98z"/>
		<path class="st0" d="M364.98,41.89c-0.17-5.44,2.92-9.62,8.63-9.62c4.35,0,8.16,2.79,8.16,7.45c0,3.57-1.9,5.54-4.25,7.21
			s-5.13,3.03-6.87,5.47h11.25v4.15h-17.47c0.03-5.51,3.4-7.85,7.51-10.64c2.11-1.43,4.96-2.89,5-5.81c0-2.24-1.5-3.67-3.57-3.67
			c-2.86,0-3.77,2.96-3.77,5.47H364.98z"/>
		<path class="st0" d="M390.86,32.27c4.76,0,8.77,2.99,8.77,12.27c0,9.49-4.01,12.48-8.77,12.48c-4.69,0-8.7-2.99-8.7-12.48
			C382.16,35.26,386.17,32.27,390.86,32.27z M390.86,53.04c3.94,0,3.94-5.81,3.94-8.5c0-2.48,0-8.29-3.94-8.29
			c-3.88,0-3.88,5.81-3.88,8.29C386.98,47.23,386.98,53.04,390.86,53.04z"/>
		<path class="st0" d="M400.04,41.89c-0.17-5.44,2.92-9.62,8.63-9.62c4.35,0,8.16,2.79,8.16,7.45c0,3.57-1.9,5.54-4.25,7.21
			s-5.13,3.03-6.87,5.47h11.25v4.15H399.5c0.03-5.51,3.4-7.85,7.51-10.64c2.11-1.43,4.96-2.89,5-5.81c0-2.24-1.5-3.67-3.57-3.67
			c-2.86,0-3.77,2.96-3.77,5.47H400.04z"/>
		<path class="st0" d="M418.01,41.89c-0.17-5.44,2.92-9.62,8.63-9.62c4.35,0,8.16,2.79,8.16,7.45c0,3.57-1.9,5.54-4.25,7.21
			s-5.13,3.03-6.87,5.47h11.25v4.15h-17.47c0.03-5.51,3.4-7.85,7.51-10.64c2.11-1.43,4.96-2.89,5-5.81c0-2.24-1.5-3.67-3.57-3.67
			c-2.86,0-3.77,2.96-3.77,5.47H418.01z"/>
	</g>
	<g id="sail-outline">
		<path class="st1" d="M27.98,57.48L64.2,0c0,0-12.07,39.14-19.72,49.77C36.83,60.39,27.98,57.48,27.98,57.48 M25.9,54.53
			C34.55,44.7,50.35,6.91,50.35,6.91L8.72,60.6C8.72,60.6,17.25,64.36,25.9,54.53"/>
		<path class="st0" d="M45.27,51.38c0.02,0.4,0.03,0.79,0.03,1.2c0,7.21-3.38,13.63-8.63,17.78c3.29-3.34,5.32-7.92,5.32-12.99
			c0-0.78-0.05-1.55-0.15-2.3C42.99,54.08,44.14,52.86,45.27,51.38z M4.96,57.37c0-10.23,8.29-18.52,18.52-18.52
			c0.03,0,0.06,0,0.09,0l6.07-7.83c-2.2-0.71-4.55-1.1-6.99-1.1C10.14,29.93,0,40.07,0,52.58C0,62.55,6.44,71,15.38,74.03
			C9.21,71.03,4.96,64.7,4.96,57.37z"/>
	</g>
	<g id="treasurytoday-logo-outline">
		<path class="st0" d="M66.98,12.23h1.49V9.54h1.98v2.69h1.78v1.47h-1.78v4.78c0,0.81,0.07,1.23,0.95,1.23c0.28,0,0.55,0,0.83-0.07
			v1.52c-0.43,0.03-0.85,0.11-1.28,0.11c-2.06,0-2.44-0.8-2.48-2.29V13.7h-1.49V12.23z"/>
		<path class="st0" d="M72.84,12.23h1.85v1.73h0.04c0.22-0.95,1.4-1.97,2.62-1.97c0.45,0,0.57,0.04,0.75,0.05v1.9
			c-0.28-0.03-0.57-0.09-0.85-0.09c-1.35,0-2.42,1.09-2.42,3.07v4.26h-1.98V12.23z"/>
		<path class="st0" d="M80.12,17.22c0,1.4,0.76,2.65,2.41,2.65c1.14,0,1.83-0.5,2.18-1.49h1.87c-0.43,1.96-2.1,3.05-4.05,3.05
			c-2.81,0-4.38-1.96-4.38-4.71c0-2.55,1.66-4.73,4.33-4.73c2.82,0,4.56,2.55,4.23,5.23H80.12z M84.73,15.92
			c-0.07-1.25-0.92-2.38-2.25-2.38c-1.37,0-2.3,1.04-2.36,2.38H84.73z"/>
		<path class="st0" d="M95.27,19.19c0,0.48,0.1,0.67,0.47,0.67c0.12,0,0.28,0,0.49-0.03v1.37c-0.29,0.1-0.92,0.23-1.25,0.23
			c-0.8,0-1.37-0.28-1.53-1.09c-0.78,0.76-2.04,1.09-3.1,1.09c-1.61,0-3.07-0.87-3.07-2.62c0-2.23,1.79-2.6,3.45-2.79
			c1.42-0.26,2.69-0.1,2.69-1.26c0-1.02-1.06-1.21-1.85-1.21c-1.11,0-1.89,0.45-1.98,1.42h-1.98c0.14-2.31,2.1-2.98,4.07-2.98
			c1.75,0,3.59,0.71,3.59,2.6V19.19z M93.29,16.7c-0.61,0.4-1.56,0.38-2.43,0.54c-0.85,0.14-1.61,0.45-1.61,1.49
			c0,0.88,1.13,1.14,1.82,1.14c0.87,0,2.22-0.45,2.22-1.7V16.7z"/>
		<path class="st0" d="M98.43,18.31c0.1,1.14,0.97,1.56,2.03,1.56c0.75,0,2.04-0.16,1.99-1.18c-0.05-1.04-1.49-1.16-2.93-1.49
			c-1.46-0.31-2.88-0.83-2.88-2.65c0-1.96,2.11-2.56,3.74-2.56c1.84,0,3.5,0.76,3.74,2.75h-2.06c-0.17-0.94-0.95-1.2-1.82-1.2
			c-0.57,0-1.63,0.14-1.63,0.92c0,0.97,1.45,1.11,2.91,1.44c1.44,0.33,2.89,0.85,2.89,2.62c0,2.13-2.15,2.91-4,2.91
			c-2.25,0-3.93-1-3.97-3.12H98.43z"/>
		<path class="st0" d="M113.18,21.18h-1.94v-1.25h-0.04c-0.48,0.9-1.56,1.49-2.55,1.49c-2.34,0-3.34-1.18-3.34-3.52v-5.68h1.97v5.49
			c0,1.58,0.64,2.15,1.72,2.15c1.65,0,2.2-1.06,2.2-2.44v-5.2h1.98V21.18z"/>
		<path class="st0" d="M114.67,12.23h1.85v1.73h0.03c0.23-0.95,1.4-1.97,2.62-1.97c0.45,0,0.57,0.04,0.74,0.05v1.9
			c-0.28-0.03-0.57-0.09-0.85-0.09c-1.35,0-2.43,1.09-2.43,3.07v4.26h-1.97V12.23z"/>
		<path class="st0" d="M120.56,12.23h2.17l2.34,6.69h0.04l2.27-6.69h2.06l-3.48,9.44c-0.64,1.61-1.11,3.07-3.17,3.07
			c-0.47,0-0.92-0.03-1.37-0.1v-1.66c0.31,0.05,0.62,0.12,0.94,0.12c0.92,0,1.14-0.49,1.39-1.25l0.23-0.69L120.56,12.23z"/>
		<path class="st1" d="M129.83,12.23h1.49V9.54h1.98v2.69h1.78v1.47h-1.78v4.78c0,0.81,0.07,1.23,0.95,1.23c0.28,0,0.55,0,0.83-0.07
			v1.52c-0.43,0.03-0.85,0.11-1.28,0.11c-2.06,0-2.44-0.8-2.48-2.29V13.7h-1.49V12.23z"/>
		<path class="st1" d="M135.42,16.7c0-2.74,1.65-4.71,4.52-4.71c2.88,0,4.52,1.97,4.52,4.71c0,2.75-1.64,4.73-4.52,4.73
			C137.07,21.43,135.42,19.45,135.42,16.7 M142.49,16.7c0-1.54-0.78-3.15-2.55-3.15c-1.77,0-2.55,1.61-2.55,3.15
			c0,1.56,0.78,3.17,2.55,3.17C141.71,19.87,142.49,18.26,142.49,16.7"/>
		<path class="st1" d="M153.99,21.18h-1.87v-1.21h-0.03c-0.52,1.02-1.65,1.46-2.77,1.46c-2.82,0-4.19-2.1-4.19-4.78
			c0-3.24,1.92-4.66,3.88-4.66c1.13,0,2.38,0.42,2.98,1.4h0.03V8.81h1.98V21.18z M149.57,19.87c1.77,0,2.51-1.61,2.51-3.17
			c0-1.97-0.95-3.15-2.48-3.15c-1.85,0-2.51,1.65-2.51,3.26C147.09,18.34,147.86,19.87,149.57,19.87"/>
		<path class="st1" d="M162.93,19.19c0,0.48,0.1,0.67,0.47,0.67c0.12,0,0.28,0,0.48-0.03v1.37c-0.29,0.1-0.92,0.23-1.25,0.23
			c-0.8,0-1.37-0.28-1.53-1.09c-0.78,0.76-2.04,1.09-3.1,1.09c-1.61,0-3.07-0.87-3.07-2.62c0-2.23,1.79-2.6,3.45-2.79
			c1.42-0.26,2.69-0.1,2.69-1.26c0-1.02-1.06-1.21-1.85-1.21c-1.11,0-1.89,0.45-1.98,1.42h-1.98c0.14-2.31,2.1-2.98,4.07-2.98
			c1.75,0,3.59,0.71,3.59,2.6V19.19z M160.95,16.7c-0.61,0.4-1.56,0.38-2.43,0.54c-0.85,0.14-1.61,0.45-1.61,1.49
			c0,0.88,1.13,1.14,1.82,1.14c0.87,0,2.22-0.45,2.22-1.7V16.7z"/>
		<path class="st1" d="M162.99,12.23h2.17l2.34,6.69h0.04l2.27-6.69h2.06l-3.48,9.44c-0.64,1.61-1.11,3.07-3.17,3.07
			c-0.47,0-0.92-0.03-1.37-0.1v-1.66c0.31,0.05,0.62,0.12,0.94,0.12c0.92,0,1.14-0.49,1.39-1.25l0.22-0.69L162.99,12.23z"/>
	</g>
</g>
</svg>
